<?xml version="1.0" encoding="utf-8"?>
<svg xmlns="http://www.w3.org/2000/svg" xmlns:xlink="http://www.w3.org/1999/xlink" width="604.75" height="364.75" viewBox="0 0 2419 1459">
<defs>
  <clipPath id="clip840">
    <rect x="0" y="0" width="2419" height="1459"/>
  </clipPath>
</defs>
<path clip-path="url(#clip840)" d="M0 1459 L2419 1459 L2419 0 L0 0  Z" fill="#ffffff" fill-rule="evenodd" fill-opacity="1"/>
<defs>
  <clipPath id="clip841">
    <rect x="483" y="0" width="1694" height="1459"/>
  </clipPath>
</defs>
<path clip-path="url(#clip840)" d="M169.299 1291.43 L2371.76 1291.43 L2371.76 47.2376 L169.299 47.2376  Z" fill="#ffffff" fill-rule="evenodd" fill-opacity="1"/>
<defs>
  <clipPath id="clip842">
    <rect x="169" y="47" width="2203" height="1245"/>
  </clipPath>
</defs>
<polyline clip-path="url(#clip842)" style="stroke:#000000; stroke-linecap:round; stroke-linejoin:round; stroke-width:1.99973; stroke-opacity:0.1; fill:none" points="169.299,1291.43 169.299,47.2376 "/>
<polyline clip-path="url(#clip842)" style="stroke:#000000; stroke-linecap:round; stroke-linejoin:round; stroke-width:1.99973; stroke-opacity:0.1; fill:none" points="609.791,1291.43 609.791,47.2376 "/>
<polyline clip-path="url(#clip842)" style="stroke:#000000; stroke-linecap:round; stroke-linejoin:round; stroke-width:1.99973; stroke-opacity:0.1; fill:none" points="1050.28,1291.43 1050.28,47.2376 "/>
<polyline clip-path="url(#clip842)" style="stroke:#000000; stroke-linecap:round; stroke-linejoin:round; stroke-width:1.99973; stroke-opacity:0.1; fill:none" points="1490.78,1291.43 1490.78,47.2376 "/>
<polyline clip-path="url(#clip842)" style="stroke:#000000; stroke-linecap:round; stroke-linejoin:round; stroke-width:1.99973; stroke-opacity:0.1; fill:none" points="1931.27,1291.43 1931.27,47.2376 "/>
<polyline clip-path="url(#clip842)" style="stroke:#000000; stroke-linecap:round; stroke-linejoin:round; stroke-width:1.99973; stroke-opacity:0.1; fill:none" points="2371.76,1291.43 2371.76,47.2376 "/>
<polyline clip-path="url(#clip840)" style="stroke:#000000; stroke-linecap:round; stroke-linejoin:round; stroke-width:3.99945; stroke-opacity:1; fill:none" points="169.299,1291.43 2371.76,1291.43 "/>
<polyline clip-path="url(#clip840)" style="stroke:#000000; stroke-linecap:round; stroke-linejoin:round; stroke-width:3.99945; stroke-opacity:1; fill:none" points="169.299,1291.43 169.299,1272.53 "/>
<polyline clip-path="url(#clip840)" style="stroke:#000000; stroke-linecap:round; stroke-linejoin:round; stroke-width:3.99945; stroke-opacity:1; fill:none" points="609.791,1291.43 609.791,1272.53 "/>
<polyline clip-path="url(#clip840)" style="stroke:#000000; stroke-linecap:round; stroke-linejoin:round; stroke-width:3.99945; stroke-opacity:1; fill:none" points="1050.28,1291.43 1050.28,1272.53 "/>
<polyline clip-path="url(#clip840)" style="stroke:#000000; stroke-linecap:round; stroke-linejoin:round; stroke-width:3.99945; stroke-opacity:1; fill:none" points="1490.78,1291.43 1490.78,1272.53 "/>
<polyline clip-path="url(#clip840)" style="stroke:#000000; stroke-linecap:round; stroke-linejoin:round; stroke-width:3.99945; stroke-opacity:1; fill:none" points="1931.27,1291.43 1931.27,1272.53 "/>
<polyline clip-path="url(#clip840)" style="stroke:#000000; stroke-linecap:round; stroke-linejoin:round; stroke-width:3.99945; stroke-opacity:1; fill:none" points="2371.76,1291.43 2371.76,1272.53 "/>
<path clip-path="url(#clip840)" d="M169.299 1322.5 Q165.689 1322.5 163.86 1326.06 Q162.055 1329.6 162.055 1336.73 Q162.055 1343.84 163.86 1347.4 Q165.689 1350.94 169.299 1350.94 Q172.933 1350.94 174.739 1347.4 Q176.567 1343.84 176.567 1336.73 Q176.567 1329.6 174.739 1326.06 Q172.933 1322.5 169.299 1322.5 M169.299 1318.79 Q175.109 1318.79 178.164 1323.4 Q181.243 1327.98 181.243 1336.73 Q181.243 1345.46 178.164 1350.06 Q175.109 1354.64 169.299 1354.64 Q163.49 1354.64 160.411 1350.06 Q157.356 1345.46 157.356 1336.73 Q157.356 1327.98 160.411 1323.4 Q163.49 1318.79 169.299 1318.79 Z" fill="#000000" fill-rule="evenodd" fill-opacity="1" /><path clip-path="url(#clip840)" d="M584.481 1350.04 L592.119 1350.04 L592.119 1323.68 L583.81 1325.34 L583.81 1321.08 L592.073 1319.42 L596.749 1319.42 L596.749 1350.04 L604.387 1350.04 L604.387 1353.97 L584.481 1353.97 L584.481 1350.04 Z" fill="#000000" fill-rule="evenodd" fill-opacity="1" /><path clip-path="url(#clip840)" d="M623.83 1322.5 Q620.219 1322.5 618.39 1326.06 Q616.585 1329.6 616.585 1336.73 Q616.585 1343.84 618.39 1347.4 Q620.219 1350.94 623.83 1350.94 Q627.463 1350.94 629.269 1347.4 Q631.097 1343.84 631.097 1336.73 Q631.097 1329.6 629.269 1326.06 Q627.463 1322.5 623.83 1322.5 M623.83 1318.79 Q629.639 1318.79 632.694 1323.4 Q635.773 1327.98 635.773 1336.73 Q635.773 1345.46 632.694 1350.06 Q629.639 1354.64 623.83 1354.64 Q618.02 1354.64 614.941 1350.06 Q611.886 1345.46 611.886 1336.73 Q611.886 1327.98 614.941 1323.4 Q618.02 1318.79 623.83 1318.79 Z" fill="#000000" fill-rule="evenodd" fill-opacity="1" /><path clip-path="url(#clip840)" d="M1029.06 1350.04 L1045.38 1350.04 L1045.38 1353.97 L1023.43 1353.97 L1023.43 1350.04 Q1026.1 1347.28 1030.68 1342.66 Q1035.28 1338 1036.47 1336.66 Q1038.71 1334.14 1039.59 1332.4 Q1040.49 1330.64 1040.49 1328.95 Q1040.49 1326.2 1038.55 1324.46 Q1036.63 1322.73 1033.53 1322.73 Q1031.33 1322.73 1028.87 1323.49 Q1026.44 1324.25 1023.67 1325.81 L1023.67 1321.08 Q1026.49 1319.95 1028.94 1319.37 Q1031.4 1318.79 1033.43 1318.79 Q1038.8 1318.79 1042 1321.48 Q1045.19 1324.16 1045.19 1328.65 Q1045.19 1330.78 1044.38 1332.7 Q1043.59 1334.6 1041.49 1337.19 Q1040.91 1337.86 1037.81 1341.08 Q1034.71 1344.28 1029.06 1350.04 Z" fill="#000000" fill-rule="evenodd" fill-opacity="1" /><path clip-path="url(#clip840)" d="M1065.19 1322.5 Q1061.58 1322.5 1059.75 1326.06 Q1057.94 1329.6 1057.94 1336.73 Q1057.94 1343.84 1059.75 1347.4 Q1061.58 1350.94 1065.19 1350.94 Q1068.82 1350.94 1070.63 1347.4 Q1072.46 1343.84 1072.46 1336.73 Q1072.46 1329.6 1070.63 1326.06 Q1068.82 1322.5 1065.19 1322.5 M1065.19 1318.79 Q1071 1318.79 1074.05 1323.4 Q1077.13 1327.98 1077.13 1336.73 Q1077.13 1345.46 1074.05 1350.06 Q1071 1354.64 1065.19 1354.64 Q1059.38 1354.64 1056.3 1350.06 Q1053.25 1345.46 1053.25 1336.73 Q1053.25 1327.98 1056.3 1323.4 Q1059.38 1318.79 1065.19 1318.79 Z" fill="#000000" fill-rule="evenodd" fill-opacity="1" /><path clip-path="url(#clip840)" d="M1479.62 1335.34 Q1482.98 1336.06 1484.85 1338.33 Q1486.75 1340.6 1486.75 1343.93 Q1486.75 1349.04 1483.23 1351.84 Q1479.71 1354.64 1473.23 1354.64 Q1471.06 1354.64 1468.74 1354.2 Q1466.45 1353.79 1464 1352.93 L1464 1348.42 Q1465.94 1349.55 1468.25 1350.13 Q1470.57 1350.71 1473.09 1350.71 Q1477.49 1350.71 1479.78 1348.97 Q1482.1 1347.24 1482.1 1343.93 Q1482.1 1340.87 1479.94 1339.16 Q1477.81 1337.42 1473.99 1337.42 L1469.97 1337.42 L1469.97 1333.58 L1474.18 1333.58 Q1477.63 1333.58 1479.46 1332.22 Q1481.29 1330.83 1481.29 1328.24 Q1481.29 1325.57 1479.39 1324.16 Q1477.51 1322.73 1473.99 1322.73 Q1472.07 1322.73 1469.87 1323.14 Q1467.68 1323.56 1465.04 1324.44 L1465.04 1320.27 Q1467.7 1319.53 1470.01 1319.16 Q1472.35 1318.79 1474.41 1318.79 Q1479.73 1318.79 1482.84 1321.22 Q1485.94 1323.63 1485.94 1327.75 Q1485.94 1330.62 1484.29 1332.61 Q1482.65 1334.58 1479.62 1335.34 Z" fill="#000000" fill-rule="evenodd" fill-opacity="1" /><path clip-path="url(#clip840)" d="M1505.61 1322.5 Q1502 1322.5 1500.17 1326.06 Q1498.37 1329.6 1498.37 1336.73 Q1498.37 1343.84 1500.17 1347.4 Q1502 1350.94 1505.61 1350.94 Q1509.25 1350.94 1511.05 1347.4 Q1512.88 1343.84 1512.88 1336.73 Q1512.88 1329.6 1511.05 1326.06 Q1509.25 1322.5 1505.61 1322.5 M1505.61 1318.79 Q1511.42 1318.79 1514.48 1323.4 Q1517.56 1327.98 1517.56 1336.73 Q1517.56 1345.46 1514.48 1350.06 Q1511.42 1354.64 1505.61 1354.64 Q1499.8 1354.64 1496.72 1350.06 Q1493.67 1345.46 1493.67 1336.73 Q1493.67 1327.98 1496.72 1323.4 Q1499.8 1318.79 1505.61 1318.79 Z" fill="#000000" fill-rule="evenodd" fill-opacity="1" /><path clip-path="url(#clip840)" d="M1919.44 1323.49 L1907.64 1341.94 L1919.44 1341.94 L1919.44 1323.49 M1918.21 1319.42 L1924.09 1319.42 L1924.09 1341.94 L1929.02 1341.94 L1929.02 1345.83 L1924.09 1345.83 L1924.09 1353.97 L1919.44 1353.97 L1919.44 1345.83 L1903.84 1345.83 L1903.84 1341.31 L1918.21 1319.42 Z" fill="#000000" fill-rule="evenodd" fill-opacity="1" /><path clip-path="url(#clip840)" d="M1946.75 1322.5 Q1943.14 1322.5 1941.31 1326.06 Q1939.51 1329.6 1939.51 1336.73 Q1939.51 1343.84 1941.31 1347.4 Q1943.14 1350.94 1946.75 1350.94 Q1950.39 1350.94 1952.19 1347.4 Q1954.02 1343.84 1954.02 1336.73 Q1954.02 1329.6 1952.19 1326.06 Q1950.39 1322.5 1946.75 1322.5 M1946.75 1318.79 Q1952.56 1318.79 1955.62 1323.4 Q1958.7 1327.98 1958.7 1336.73 Q1958.7 1345.46 1955.62 1350.06 Q1952.56 1354.64 1946.75 1354.64 Q1940.94 1354.64 1937.86 1350.06 Q1934.81 1345.46 1934.81 1336.73 Q1934.81 1327.98 1937.86 1323.4 Q1940.94 1318.79 1946.75 1318.79 Z" fill="#000000" fill-rule="evenodd" fill-opacity="1" /><path clip-path="url(#clip840)" d="M2346.46 1319.42 L2364.82 1319.42 L2364.82 1323.35 L2350.74 1323.35 L2350.74 1331.82 Q2351.76 1331.48 2352.78 1331.31 Q2353.8 1331.13 2354.82 1331.13 Q2360.6 1331.13 2363.98 1334.3 Q2367.36 1337.47 2367.36 1342.89 Q2367.36 1348.46 2363.89 1351.57 Q2360.42 1354.64 2354.1 1354.64 Q2351.92 1354.64 2349.66 1354.27 Q2347.41 1353.9 2345 1353.16 L2345 1348.46 Q2347.09 1349.6 2349.31 1350.15 Q2351.53 1350.71 2354.01 1350.71 Q2358.01 1350.71 2360.35 1348.6 Q2362.69 1346.5 2362.69 1342.89 Q2362.69 1339.28 2360.35 1337.17 Q2358.01 1335.06 2354.01 1335.06 Q2352.13 1335.06 2350.26 1335.48 Q2348.41 1335.9 2346.46 1336.78 L2346.46 1319.42 Z" fill="#000000" fill-rule="evenodd" fill-opacity="1" /><path clip-path="url(#clip840)" d="M2386.57 1322.5 Q2382.96 1322.5 2381.13 1326.06 Q2379.33 1329.6 2379.33 1336.73 Q2379.33 1343.84 2381.13 1347.4 Q2382.96 1350.94 2386.57 1350.94 Q2390.21 1350.94 2392.01 1347.4 Q2393.84 1343.84 2393.84 1336.73 Q2393.84 1329.6 2392.01 1326.06 Q2390.21 1322.5 2386.57 1322.5 M2386.57 1318.79 Q2392.38 1318.79 2395.44 1323.4 Q2398.52 1327.98 2398.52 1336.73 Q2398.52 1345.46 2395.44 1350.06 Q2392.38 1354.64 2386.57 1354.64 Q2380.76 1354.64 2377.69 1350.06 Q2374.63 1345.46 2374.63 1336.73 Q2374.63 1327.98 2377.69 1323.4 Q2380.76 1318.79 2386.57 1318.79 Z" fill="#000000" fill-rule="evenodd" fill-opacity="1" /><path clip-path="url(#clip840)" d="M1269.59 1390.8 L1269.59 1400.92 L1281.65 1400.92 L1281.65 1405.47 L1269.59 1405.47 L1269.59 1424.82 Q1269.59 1429.18 1270.77 1430.42 Q1271.98 1431.66 1275.64 1431.66 L1281.65 1431.66 L1281.65 1436.56 L1275.64 1436.56 Q1268.86 1436.56 1266.28 1434.05 Q1263.7 1431.5 1263.7 1424.82 L1263.7 1405.47 L1259.41 1405.47 L1259.41 1400.92 L1263.7 1400.92 L1263.7 1390.8 L1269.59 1390.8 Z" fill="#000000" fill-rule="evenodd" fill-opacity="1" /><polyline clip-path="url(#clip842)" style="stroke:#000000; stroke-linecap:round; stroke-linejoin:round; stroke-width:1.99973; stroke-opacity:0.1; fill:none" points="169.299,1256.22 2371.76,1256.22 "/>
<polyline clip-path="url(#clip842)" style="stroke:#000000; stroke-linecap:round; stroke-linejoin:round; stroke-width:1.99973; stroke-opacity:0.1; fill:none" points="169.299,959.81 2371.76,959.81 "/>
<polyline clip-path="url(#clip842)" style="stroke:#000000; stroke-linecap:round; stroke-linejoin:round; stroke-width:1.99973; stroke-opacity:0.1; fill:none" points="169.299,663.405 2371.76,663.405 "/>
<polyline clip-path="url(#clip842)" style="stroke:#000000; stroke-linecap:round; stroke-linejoin:round; stroke-width:1.99973; stroke-opacity:0.1; fill:none" points="169.299,367 2371.76,367 "/>
<polyline clip-path="url(#clip842)" style="stroke:#000000; stroke-linecap:round; stroke-linejoin:round; stroke-width:1.99973; stroke-opacity:0.1; fill:none" points="169.299,70.5943 2371.76,70.5943 "/>
<polyline clip-path="url(#clip840)" style="stroke:#000000; stroke-linecap:round; stroke-linejoin:round; stroke-width:3.99945; stroke-opacity:1; fill:none" points="169.299,1291.43 169.299,47.2376 "/>
<polyline clip-path="url(#clip840)" style="stroke:#000000; stroke-linecap:round; stroke-linejoin:round; stroke-width:3.99945; stroke-opacity:1; fill:none" points="169.299,1256.22 188.195,1256.22 "/>
<polyline clip-path="url(#clip840)" style="stroke:#000000; stroke-linecap:round; stroke-linejoin:round; stroke-width:3.99945; stroke-opacity:1; fill:none" points="169.299,959.81 188.195,959.81 "/>
<polyline clip-path="url(#clip840)" style="stroke:#000000; stroke-linecap:round; stroke-linejoin:round; stroke-width:3.99945; stroke-opacity:1; fill:none" points="169.299,663.405 188.195,663.405 "/>
<polyline clip-path="url(#clip840)" style="stroke:#000000; stroke-linecap:round; stroke-linejoin:round; stroke-width:3.99945; stroke-opacity:1; fill:none" points="169.299,367 188.195,367 "/>
<polyline clip-path="url(#clip840)" style="stroke:#000000; stroke-linecap:round; stroke-linejoin:round; stroke-width:3.99945; stroke-opacity:1; fill:none" points="169.299,70.5943 188.195,70.5943 "/>
<path clip-path="url(#clip840)" d="M121.071 1242.02 Q117.46 1242.02 115.632 1245.58 Q113.826 1249.12 113.826 1256.25 Q113.826 1263.36 115.632 1266.92 Q117.46 1270.46 121.071 1270.46 Q124.705 1270.46 126.51 1266.92 Q128.339 1263.36 128.339 1256.25 Q128.339 1249.12 126.51 1245.58 Q124.705 1242.02 121.071 1242.02 M121.071 1238.31 Q126.881 1238.31 129.936 1242.92 Q133.014 1247.5 133.014 1256.25 Q133.014 1264.98 129.936 1269.58 Q126.881 1274.16 121.071 1274.16 Q115.261 1274.16 112.183 1269.58 Q109.128 1264.98 109.128 1256.25 Q109.128 1247.5 112.183 1242.92 Q115.261 1238.31 121.071 1238.31 Z" fill="#000000" fill-rule="evenodd" fill-opacity="1" /><path clip-path="url(#clip840)" d="M85.9351 973.153 L102.253 973.153 L102.253 977.087 L80.3106 977.087 L80.3106 973.153 Q82.9724 970.399 87.5554 965.77 Q92.1614 961.118 93.3419 959.775 Q95.5871 957.252 96.4666 955.516 Q97.3693 953.757 97.3693 952.068 Q97.3693 949.314 95.425 947.578 Q93.5039 945.842 90.4023 945.842 Q88.2034 945.842 85.75 946.606 Q83.3196 947.369 80.5421 948.92 L80.5421 944.199 Q83.3659 943.065 85.8194 942.486 Q88.2729 941.907 90.3097 941.907 Q95.6796 941.907 98.8738 944.592 Q102.068 947.277 102.068 951.767 Q102.068 953.896 101.258 955.817 Q100.471 957.715 98.3646 960.307 Q97.7859 960.979 94.6844 964.196 Q91.5828 967.39 85.9351 973.153 Z" fill="#000000" fill-rule="evenodd" fill-opacity="1" /><path clip-path="url(#clip840)" d="M112.113 942.532 L130.468 942.532 L130.468 946.467 L116.395 946.467 L116.395 954.938 Q117.414 954.591 118.432 954.429 Q119.451 954.244 120.469 954.244 Q126.256 954.244 129.635 957.414 Q133.014 960.585 133.014 966.001 Q133.014 971.579 129.542 974.68 Q126.07 977.759 119.752 977.759 Q117.576 977.759 115.308 977.388 Q113.062 977.018 110.655 976.277 L110.655 971.579 Q112.738 972.713 114.96 973.269 Q117.182 973.824 119.659 973.824 Q123.663 973.824 126.001 971.718 Q128.339 969.612 128.339 966.001 Q128.339 962.391 126.001 960.284 Q123.663 958.178 119.659 958.178 Q117.784 958.178 115.909 958.595 Q114.058 959.011 112.113 959.891 L112.113 942.532 Z" fill="#000000" fill-rule="evenodd" fill-opacity="1" /><path clip-path="url(#clip840)" d="M80.9587 646.127 L99.3136 646.127 L99.3136 650.062 L85.2407 650.062 L85.2407 658.533 Q86.2592 658.186 87.2776 658.024 Q88.296 657.838 89.3145 657.838 Q95.101 657.838 98.4803 661.009 Q101.86 664.18 101.86 669.596 Q101.86 675.174 98.3877 678.275 Q94.9158 681.354 88.5969 681.354 Q86.4212 681.354 84.1529 680.983 Q81.9077 680.613 79.5005 679.872 L79.5005 675.174 Q81.5837 676.308 83.8057 676.863 Q86.0277 677.419 88.5043 677.419 Q92.5086 677.419 94.8464 675.313 Q97.1841 673.207 97.1841 669.596 Q97.1841 665.985 94.8464 663.879 Q92.5086 661.773 88.5043 661.773 Q86.6295 661.773 84.7547 662.19 Q82.903 662.606 80.9587 663.486 L80.9587 646.127 Z" fill="#000000" fill-rule="evenodd" fill-opacity="1" /><path clip-path="url(#clip840)" d="M121.071 649.205 Q117.46 649.205 115.632 652.77 Q113.826 656.311 113.826 663.439 Q113.826 670.545 115.632 674.109 Q117.46 677.65 121.071 677.65 Q124.705 677.65 126.51 674.109 Q128.339 670.545 128.339 663.439 Q128.339 656.311 126.51 652.77 Q124.705 649.205 121.071 649.205 M121.071 645.502 Q126.881 645.502 129.936 650.108 Q133.014 654.691 133.014 663.439 Q133.014 672.165 129.936 676.771 Q126.881 681.354 121.071 681.354 Q115.261 681.354 112.183 676.771 Q109.128 672.165 109.128 663.439 Q109.128 654.691 112.183 650.108 Q115.261 645.502 121.071 645.502 Z" fill="#000000" fill-rule="evenodd" fill-opacity="1" /><path clip-path="url(#clip840)" d="M80.7273 349.722 L102.948 349.722 L102.948 351.712 L90.4023 384.277 L85.5185 384.277 L97.323 353.657 L80.7273 353.657 L80.7273 349.722 Z" fill="#000000" fill-rule="evenodd" fill-opacity="1" /><path clip-path="url(#clip840)" d="M112.113 349.722 L130.468 349.722 L130.468 353.657 L116.395 353.657 L116.395 362.128 Q117.414 361.78 118.432 361.618 Q119.451 361.433 120.469 361.433 Q126.256 361.433 129.635 364.604 Q133.014 367.775 133.014 373.191 Q133.014 378.769 129.542 381.87 Q126.07 384.948 119.752 384.948 Q117.576 384.948 115.308 384.578 Q113.062 384.208 110.655 383.467 L110.655 378.769 Q112.738 379.903 114.96 380.458 Q117.182 381.014 119.659 381.014 Q123.663 381.014 126.001 378.908 Q128.339 376.801 128.339 373.191 Q128.339 369.58 126.001 367.474 Q123.663 365.368 119.659 365.368 Q117.784 365.368 115.909 365.784 Q114.058 366.201 112.113 367.081 L112.113 349.722 Z" fill="#000000" fill-rule="evenodd" fill-opacity="1" /><path clip-path="url(#clip840)" d="M51.5632 83.9374 L59.2014 83.9374 L59.2014 57.5754 L50.8919 59.2418 L50.8919 54.9831 L59.1551 53.3167 L63.8306 53.3167 L63.8306 83.9374 L71.4688 83.9374 L71.4688 87.872 L51.5632 87.872 L51.5632 83.9374 Z" fill="#000000" fill-rule="evenodd" fill-opacity="1" /><path clip-path="url(#clip840)" d="M90.9115 56.395 Q87.3007 56.395 85.4722 59.9593 Q83.6668 63.5004 83.6668 70.6291 Q83.6668 77.7345 85.4722 81.2988 Q87.3007 84.84 90.9115 84.84 Q94.5455 84.84 96.3509 81.2988 Q98.1794 77.7345 98.1794 70.6291 Q98.1794 63.5004 96.3509 59.9593 Q94.5455 56.395 90.9115 56.395 M90.9115 52.6918 Q96.7212 52.6918 99.7765 57.2976 Q102.855 61.8803 102.855 70.6291 Q102.855 79.3547 99.7765 83.9605 Q96.7212 88.5432 90.9115 88.5432 Q85.1019 88.5432 82.0234 83.9605 Q78.9682 79.3547 78.9682 70.6291 Q78.9682 61.8803 82.0234 57.2976 Q85.1019 52.6918 90.9115 52.6918 Z" fill="#000000" fill-rule="evenodd" fill-opacity="1" /><path clip-path="url(#clip840)" d="M121.071 56.395 Q117.46 56.395 115.632 59.9593 Q113.826 63.5004 113.826 70.6291 Q113.826 77.7345 115.632 81.2988 Q117.46 84.84 121.071 84.84 Q124.705 84.84 126.51 81.2988 Q128.339 77.7345 128.339 70.6291 Q128.339 63.5004 126.51 59.9593 Q124.705 56.395 121.071 56.395 M121.071 52.6918 Q126.881 52.6918 129.936 57.2976 Q133.014 61.8803 133.014 70.6291 Q133.014 79.3547 129.936 83.9605 Q126.881 88.5432 121.071 88.5432 Q115.261 88.5432 112.183 83.9605 Q109.128 79.3547 109.128 70.6291 Q109.128 61.8803 112.183 57.2976 Q115.261 52.6918 121.071 52.6918 Z" fill="#000000" fill-rule="evenodd" fill-opacity="1" /><polyline clip-path="url(#clip842)" style="stroke:#009af9; stroke-linecap:round; stroke-linejoin:round; stroke-width:3.99945; stroke-opacity:1; fill:none" points="169.299,82.4506 195.612,82.4506 "/>
<polyline clip-path="url(#clip842)" style="stroke:#e26f46; stroke-linecap:round; stroke-linejoin:round; stroke-width:3.99945; stroke-opacity:1; fill:none" points="169.299,1244.36 195.612,1256.22 "/>
<polyline clip-path="url(#clip842)" style="stroke:#3da44d; stroke-linecap:round; stroke-linejoin:round; stroke-width:3.99945; stroke-opacity:1; fill:none" points="169.299,1256.22 195.612,1244.36 "/>
<polyline clip-path="url(#clip842)" style="stroke:#c271d2; stroke-linecap:round; stroke-linejoin:round; stroke-width:3.99945; stroke-opacity:1; fill:none" points="169.299,82.4506 171.504,82.7472 173.709,83.0496 175.913,83.3581 178.118,83.6725 180.323,83.9932 182.527,84.3202 184.732,84.6536 186.937,84.9935 189.141,85.3401 191.346,85.6935 193.551,86.0538 195.755,86.4212 197.96,86.7958 200.165,87.1776 202.369,87.567 204.574,87.9639 206.779,88.3686 208.983,88.7811 211.188,89.2017 213.393,89.6305 215.597,90.0676 217.802,90.5132 220.007,90.9674 222.211,91.4304 224.416,91.9024 226.621,92.3835 228.825,92.874 231.03,93.3739 233.235,93.8834 235.439,94.4028 237.644,94.9321 239.849,95.4716 242.053,96.0215 244.258,96.582 246.463,97.1532 248.667,97.7353 250.872,98.3286 253.077,98.9331 255.281,99.5493 257.486,100.177 259.691,100.817 261.895,101.469 264.1,102.133 266.305,102.81 268.509,103.5 270.714,104.203 272.919,104.919 275.123,105.648 277.328,106.391 279.533,107.149 281.737,107.92 283.942,108.706 286.147,109.506 288.351,110.322 290.556,111.153 292.761,111.999 294.965,112.861 297.17,113.738 299.375,114.632 301.579,115.543 303.784,116.47 305.989,117.415 308.193,118.377 310.398,119.356 312.603,120.353 314.807,121.369 317.012,122.403 319.217,123.455 321.421,124.527 323.626,125.618 325.831,126.729 328.035,127.86 330.24,129.012 332.445,130.184 334.649,131.376 336.854,132.59 339.059,133.826 341.263,135.084 343.468,136.364 345.673,137.666 347.877,138.991 350.082,140.34 352.287,141.712 354.491,143.108 356.696,144.528 358.901,145.973 361.105,147.443 363.31,148.938 365.515,150.458 367.719,152.005 369.924,153.578 372.129,155.177 374.333,156.804 376.538,158.458 378.743,160.14 380.947,161.85 383.152,163.589 385.357,165.356 387.561,167.153 389.766,168.979 391.97,170.836 394.175,172.722 396.38,174.639 398.584,176.587 400.789,178.567 402.994,180.578 405.198,182.621 407.403,184.697 409.608,186.805 411.812,188.946 414.017,191.121 416.222,193.33 418.426,195.572 420.631,197.849 422.836,200.161 425.04,202.509 427.245,204.891 429.45,207.309 431.654,209.763 433.859,212.254 436.064,214.781 438.268,217.345 440.473,219.947 442.678,222.586 444.882,225.263 447.087,227.979 449.292,230.733 451.496,233.525 453.701,236.357 455.906,239.227 458.11,242.137 460.315,245.087 462.52,248.077 464.724,251.106 466.929,254.176 469.134,257.286 471.338,260.436 473.543,263.627 475.748,266.859 477.952,270.132 480.157,273.446 482.362,276.801 484.566,280.197 486.771,283.634 488.976,287.113 491.18,290.633 493.385,294.194 495.59,297.797 497.794,301.442 499.999,305.128 502.204,308.855 504.408,312.624 506.613,316.434 508.818,320.286 511.022,324.178 513.227,328.112 515.432,332.086 517.636,336.102 519.841,340.157 522.046,344.253 524.25,348.389 526.455,352.565 528.66,356.78 530.864,361.035 533.069,365.328 535.274,369.66 537.478,374.031 539.683,378.439 541.888,382.884 544.092,387.367 546.297,391.887 548.502,396.442 550.706,401.034 552.911,405.66 555.116,410.322 557.32,415.017 559.525,419.747 561.73,424.509 563.934,429.304 566.139,434.13 568.344,438.988 570.548,443.877 572.753,448.796 574.958,453.744 577.162,458.72 579.367,463.724 581.572,468.755 583.776,473.813 585.981,478.896 588.186,484.004 590.39,489.136 592.595,494.291 594.8,499.468 597.004,504.666 599.209,509.886 601.414,515.126 603.618,520.385 605.823,525.662 608.028,530.956 610.232,536.266 612.437,541.591 614.642,546.93 616.846,552.281 619.051,557.644 621.256,563.018 623.46,568.402 625.665,573.794 627.87,579.194 630.074,584.601 632.279,590.013 634.484,595.43 636.688,600.851 638.893,606.274 641.098,611.7 643.302,617.125 645.507,622.551 647.712,627.975 649.916,633.398 652.121,638.817 654.326,644.232 656.53,649.642 658.735,655.046 660.94,660.443 663.144,665.832 665.349,671.213 667.554,676.584 669.758,681.944 671.963,687.292 674.168,692.628 676.372,697.951 678.577,703.26 680.782,708.553 682.986,713.83 685.191,719.091 687.396,724.333 689.6,729.557 691.805,734.761 694.01,739.945 696.214,745.108 698.419,750.248 700.624,755.365 702.828,760.459 705.033,765.527 707.238,770.57 709.442,775.588 711.647,780.578 713.852,785.541 716.056,790.477 718.261,795.384 720.466,800.262 722.67,805.111 724.875,809.93 727.08,814.718 729.284,819.476 731.489,824.202 733.694,828.896 735.898,833.558 738.103,838.187 740.308,842.783 742.512,847.345 744.717,851.873 746.922,856.367 749.126,860.827 751.331,865.251 753.536,869.64 755.74,873.994 757.945,878.312 760.15,882.594 762.354,886.839 764.559,891.048 766.764,895.221 768.968,899.356 771.173,903.454 773.378,907.515 775.582,911.539 777.787,915.525 779.992,919.474 782.196,923.385 784.401,927.258 786.606,931.093 788.81,934.891 791.015,938.65 793.22,942.372 795.424,946.056 797.629,949.702 799.834,953.311 802.038,956.882 804.243,960.415 806.448,963.91 808.652,967.369 810.857,970.79 813.062,974.174 815.266,977.521 817.471,980.831 819.676,984.105 821.88,987.342 824.085,990.544 826.29,993.708 828.494,996.837 830.699,999.929 832.904,1002.99 835.108,1006.01 837.313,1008.99 839.518,1011.94 841.722,1014.86 843.927,1017.74 846.132,1020.59 848.336,1023.4 850.541,1026.18 852.746,1028.93 854.95,1031.64 857.155,1034.32 859.36,1036.97 861.564,1039.58 863.769,1042.16 865.974,1044.71 868.178,1047.23 870.383,1049.72 872.588,1052.18 874.792,1054.61 876.997,1057 879.201,1059.37 881.406,1061.7 883.611,1064.01 885.815,1066.28 888.02,1068.53 890.225,1070.75 892.429,1072.94 894.634,1075.1 896.839,1077.24 899.043,1079.34 901.248,1081.42 903.453,1083.47 905.657,1085.5 907.862,1087.5 910.067,1089.47 912.271,1091.41 914.476,1093.33 916.681,1095.23 918.885,1097.1 921.09,1098.94 923.295,1100.76 925.499,1102.56 927.704,1104.33 929.909,1106.08 932.113,1107.8 934.318,1109.5 936.523,1111.18 938.727,1112.84 940.932,1114.47 943.137,1116.09 945.341,1117.68 947.546,1119.25 949.751,1120.79 951.955,1122.32 954.16,1123.83 956.365,1125.32 958.569,1126.78 960.774,1128.23 962.979,1129.66 965.183,1131.07 967.388,1132.46 969.593,1133.83 971.797,1135.18 974.002,1136.52 976.207,1137.83 978.411,1139.13 980.616,1140.41 982.821,1141.68 985.025,1142.92 987.23,1144.15 989.435,1145.37 991.639,1146.57 993.844,1147.75 996.049,1148.91 998.253,1150.06 1000.46,1151.2 1002.66,1152.32 1004.87,1153.42 1007.07,1154.51 1009.28,1155.59 1011.48,1156.65 1013.69,1157.69 1015.89,1158.72 1018.1,1159.74 1020.3,1160.75 1022.5,1161.74 1024.71,1162.72 1026.91,1163.68 1029.12,1164.64 1031.32,1165.57 1033.53,1166.5 1035.73,1167.42 1037.94,1168.32 1040.14,1169.21 1042.35,1170.09 1044.55,1170.96 1046.76,1171.81 1048.96,1172.66 1051.17,1173.49 1053.37,1174.31 1055.57,1175.12 1057.78,1175.93 1059.98,1176.72 1062.19,1177.5 1064.39,1178.27 1066.6,1179.03 1068.8,1179.78 1071.01,1180.52 1073.21,1181.25 1075.42,1181.97 1077.62,1182.68 1079.83,1183.38 1082.03,1184.07 1084.24,1184.76 1086.44,1185.43 1088.64,1186.1 1090.85,1186.76 1093.05,1187.41 1095.26,1188.05 1097.46,1188.68 1099.67,1189.31 1101.87,1189.92 1104.08,1190.53 1106.28,1191.13 1108.49,1191.73 1110.69,1192.31 1112.9,1192.89 1115.1,1193.46 1117.31,1194.03 1119.51,1194.58 1121.71,1195.13 1123.92,1195.68 1126.12,1196.21 1128.33,1196.74 1130.53,1197.27 1132.74,1197.78 1134.94,1198.29 1137.15,1198.79 1139.35,1199.29 1141.56,1199.78 1143.76,1200.27 1145.97,1200.75 1148.17,1201.22 1150.38,1201.69 1152.58,1202.15 1154.78,1202.6 1156.99,1203.05 1159.19,1203.5 1161.4,1203.94 1163.6,1204.37 1165.81,1204.8 1168.01,1205.22 1170.22,1205.64 1172.42,1206.05 1174.63,1206.46 1176.83,1206.87 1179.04,1207.26 1181.24,1207.66 1183.45,1208.05 1185.65,1208.43 1187.85,1208.81 1190.06,1209.19 1192.26,1209.56 1194.47,1209.92 1196.67,1210.29 1198.88,1210.64 1201.08,1211 1203.29,1211.35 1205.49,1211.69 1207.7,1212.03 1209.9,1212.37 1212.11,1212.7 1214.31,1213.03 1216.52,1213.36 1218.72,1213.68 1220.92,1214 1223.13,1214.31 1225.33,1214.63 1227.54,1214.93 1229.74,1215.24 1231.95,1215.54 1234.15,1215.83 1236.36,1216.13 1238.56,1216.42 1240.77,1216.71 1242.97,1216.99 1245.18,1217.27 1247.38,1217.55 1249.59,1217.82 1251.79,1218.09 1253.99,1218.36 1256.2,1218.63 1258.4,1218.89 1260.61,1219.15 1262.81,1219.4 1265.02,1219.66 1267.22,1219.91 1269.43,1220.16 1271.63,1220.4 1273.84,1220.64 1276.04,1220.88 1278.25,1221.12 1280.45,1221.35 1282.66,1221.59 1284.86,1221.82 1287.06,1222.04 1289.27,1222.27 1291.47,1222.49 1293.68,1222.71 1295.88,1222.93 1298.09,1223.14 1300.29,1223.35 1302.5,1223.57 1304.7,1223.77 1306.91,1223.98 1309.11,1224.18 1311.32,1224.38 1313.52,1224.58 1315.73,1224.78 1317.93,1224.98 1320.13,1225.17 1322.34,1225.36 1324.54,1225.55 1326.75,1225.74 1328.95,1225.92 1331.16,1226.1 1333.36,1226.29 1335.57,1226.47 1337.77,1226.64 1339.98,1226.82 1342.18,1226.99 1344.39,1227.16 1346.59,1227.34 1348.8,1227.5 1351,1227.67 1353.2,1227.84 1355.41,1228 1357.61,1228.16 1359.82,1228.32 1362.02,1228.48 1364.23,1228.64 1366.43,1228.79 1368.64,1228.95 1370.84,1229.1 1373.05,1229.25 1375.25,1229.4 1377.46,1229.55 1379.66,1229.69 1381.87,1229.84 1384.07,1229.98 1386.27,1230.13 1388.48,1230.27 1390.68,1230.41 1392.89,1230.54 1395.09,1230.68 1397.3,1230.82 1399.5,1230.95 1401.71,1231.08 1403.91,1231.21 1406.12,1231.34 1408.32,1231.47 1410.53,1231.6 1412.73,1231.73 1414.94,1231.85 1417.14,1231.98 1419.34,1232.1 1421.55,1232.22 1423.75,1232.34 1425.96,1232.46 1428.16,1232.58 1430.37,1232.7 1432.57,1232.82 1434.78,1232.93 1436.98,1233.04 1439.19,1233.16 1441.39,1233.27 1443.6,1233.38 1445.8,1233.49 1448.01,1233.6 1450.21,1233.71 1452.41,1233.81 1454.62,1233.92 1456.82,1234.02 1459.03,1234.13 1461.23,1234.23 1463.44,1234.33 1465.64,1234.43 1467.85,1234.53 1470.05,1234.63 1472.26,1234.73 1474.46,1234.83 1476.67,1234.92 1478.87,1235.02 1481.08,1235.11 1483.28,1235.21 1485.48,1235.3 1487.69,1235.39 1489.89,1235.48 1492.1,1235.58 1494.3,1235.67 1496.51,1235.75 1498.71,1235.84 1500.92,1235.93 1503.12,1236.02 1505.33,1236.1 1507.53,1236.19 1509.74,1236.27 1511.94,1236.35 1514.15,1236.44 1516.35,1236.52 1518.55,1236.6 1520.76,1236.68 1522.96,1236.76 1525.17,1236.84 1527.37,1236.92 1529.58,1237 1531.78,1237.08 1533.99,1237.15 1536.19,1237.23 1538.4,1237.3 1540.6,1237.38 1542.81,1237.45 1545.01,1237.52 1547.22,1237.6 1549.42,1237.67 1551.62,1237.74 1553.83,1237.81 1556.03,1237.88 1558.24,1237.95 1560.44,1238.02 1562.65,1238.09 1564.85,1238.16 1567.06,1238.23 1569.26,1238.29 1571.47,1238.36 1573.67,1238.42 1575.88,1238.49 1578.08,1238.55 1580.29,1238.62 1582.49,1238.68 1584.69,1238.74 1586.9,1238.81 1589.1,1238.87 1591.31,1238.93 1593.51,1238.99 1595.72,1239.05 1597.92,1239.11 1600.13,1239.17 1602.33,1239.23 1604.54,1239.29 1606.74,1239.35 1608.95,1239.41 1611.15,1239.46 1613.35,1239.52 1615.56,1239.58 1617.76,1239.63 1619.97,1239.69 1622.17,1239.74 1624.38,1239.8 1626.58,1239.85 1628.79,1239.91 1630.99,1239.96 1633.2,1240.01 1635.4,1240.06 1637.61,1240.12 1639.81,1240.17 1642.02,1240.22 1644.22,1240.27 1646.42,1240.32 1648.63,1240.37 1650.83,1240.42 1653.04,1240.47 1655.24,1240.52 1657.45,1240.57 1659.65,1240.62 1661.86,1240.66 1664.06,1240.71 1666.27,1240.76 1668.47,1240.8 1670.68,1240.85 1672.88,1240.9 1675.09,1240.94 1677.29,1240.99 1679.49,1241.03 1681.7,1241.08 1683.9,1241.12 1686.11,1241.16 1688.31,1241.21 1690.52,1241.25 1692.72,1241.29 1694.93,1241.34 1697.13,1241.38 1699.34,1241.42 1701.54,1241.46 1703.75,1241.5 1705.95,1241.55 1708.16,1241.59 1710.36,1241.63 1712.56,1241.67 1714.77,1241.71 1716.97,1241.75 1719.18,1241.78 1721.38,1241.82 1723.59,1241.86 1725.79,1241.9 1728,1241.94 1730.2,1241.98 1732.41,1242.01 1734.61,1242.05 1736.82,1242.09 1739.02,1242.12 1741.23,1242.16 1743.43,1242.2 1745.63,1242.23 1747.84,1242.27 1750.04,1242.3 1752.25,1242.34 1754.45,1242.37 1756.66,1242.41 1758.86,1242.44 1761.07,1242.48 1763.27,1242.51 1765.48,1242.54 1767.68,1242.58 1769.89,1242.61 1772.09,1242.64 1774.3,1242.68 1776.5,1242.71 1778.7,1242.74 1780.91,1242.77 1783.11,1242.81 1785.32,1242.84 1787.52,1242.87 1789.73,1242.9 1791.93,1242.93 1794.14,1242.96 1796.34,1242.99 1798.55,1243.02 1800.75,1243.05 1802.96,1243.08 1805.16,1243.11 1807.37,1243.14 1809.57,1243.17 1811.77,1243.2 1813.98,1243.23 1816.18,1243.26 1818.39,1243.28 1820.59,1243.31 1822.8,1243.34 1825,1243.37 1827.21,1243.4 1829.41,1243.42 1831.62,1243.45 1833.82,1243.48 1836.03,1243.5 1838.23,1243.53 1840.44,1243.56 1842.64,1243.58 1844.84,1243.61 1847.05,1243.64 1849.25,1243.66 1851.46,1243.69 1853.66,1243.71 1855.87,1243.74 1858.07,1243.76 1860.28,1243.79 1862.48,1243.81 1864.69,1243.84 1866.89,1243.86 1869.1,1243.89 1871.3,1243.91 1873.51,1243.93 1875.71,1243.96 1877.91,1243.98 1880.12,1244.01 1882.32,1244.03 1884.53,1244.05 1886.73,1244.08 1888.94,1244.1 1891.14,1244.12 1893.35,1244.14 1895.55,1244.17 1897.76,1244.19 1899.96,1244.21 1902.17,1244.23 1904.37,1244.25 1906.58,1244.28 1908.78,1244.3 1910.98,1244.32 1913.19,1244.34 1915.39,1244.36 1917.6,1244.38 1919.8,1244.4 1922.01,1244.42 1924.21,1244.44 1926.42,1244.46 1928.62,1244.49 1930.83,1244.51 1933.03,1244.53 1935.24,1244.55 1937.44,1244.57 1939.65,1244.58 1941.85,1244.6 1944.05,1244.62 1946.26,1244.64 1948.46,1244.66 1950.67,1244.68 1952.87,1244.7 1955.08,1244.72 1957.28,1244.74 1959.49,1244.76 1961.69,1244.77 1963.9,1244.79 1966.1,1244.81 1968.31,1244.83 1970.51,1244.85 1972.72,1244.87 1974.92,1244.88 1977.12,1244.9 1979.33,1244.92 1981.53,1244.94 1983.74,1244.95 1985.94,1244.97 1988.15,1244.99 1990.35,1245 1992.56,1245.02 1994.76,1245.04 1996.97,1245.05 1999.17,1245.07 2001.38,1245.09 2003.58,1245.1 2005.79,1245.12 2007.99,1245.14 2010.19,1245.15 2012.4,1245.17 2014.6,1245.18 2016.81,1245.2 2019.01,1245.22 2021.22,1245.23 2023.42,1245.25 2025.63,1245.26 2027.83,1245.28 2030.04,1245.29 2032.24,1245.31 2034.45,1245.32 2036.65,1245.34 2038.86,1245.35 2041.06,1245.37 2043.26,1245.38 2045.47,1245.4 2047.67,1245.41 2049.88,1245.43 2052.08,1245.44 2054.29,1245.45 2056.49,1245.47 2058.7,1245.48 2060.9,1245.5 2063.11,1245.51 2065.31,1245.52 2067.52,1245.54 2069.72,1245.55 2071.93,1245.56 2074.13,1245.58 2076.33,1245.59 2078.54,1245.6 2080.74,1245.62 2082.95,1245.63 2085.15,1245.64 2087.36,1245.66 2089.56,1245.67 2091.77,1245.68 2093.97,1245.69 2096.18,1245.71 2098.38,1245.72 2100.59,1245.73 2102.79,1245.75 2105,1245.76 2107.2,1245.77 2109.4,1245.78 2111.61,1245.79 2113.81,1245.81 2116.02,1245.82 2118.22,1245.83 2120.43,1245.84 2122.63,1245.85 2124.84,1245.87 2127.04,1245.88 2129.25,1245.89 2131.45,1245.9 2133.66,1245.91 2135.86,1245.92 2138.07,1245.93 2140.27,1245.95 2142.47,1245.96 2144.68,1245.97 2146.88,1245.98 2149.09,1245.99 2151.29,1246 2153.5,1246.01 2155.7,1246.02 2157.91,1246.03 2160.11,1246.04 2162.32,1246.05 2164.52,1246.06 2166.73,1246.08 2168.93,1246.09 2171.14,1246.1 2173.34,1246.11 2175.54,1246.12 2177.75,1246.13 2179.95,1246.14 2182.16,1246.15 2184.36,1246.16 2186.57,1246.17 2188.77,1246.18 2190.98,1246.19 2193.18,1246.2 2195.39,1246.21 2197.59,1246.22 2199.8,1246.23 2202,1246.24 2204.21,1246.24 2206.41,1246.25 2208.61,1246.26 2210.82,1246.27 2213.02,1246.28 2215.23,1246.29 2217.43,1246.3 2219.64,1246.31 2221.84,1246.32 2224.05,1246.33 2226.25,1246.34 2228.46,1246.35 2230.66,1246.35 2232.87,1246.36 2235.07,1246.37 2237.28,1246.38 2239.48,1246.39 2241.68,1246.4 2243.89,1246.41 2246.09,1246.42 2248.3,1246.42 2250.5,1246.43 2252.71,1246.44 2254.91,1246.45 2257.12,1246.46 2259.32,1246.47 2261.53,1246.47 2263.73,1246.48 2265.94,1246.49 2268.14,1246.5 2270.35,1246.51 2272.55,1246.51 2274.75,1246.52 2276.96,1246.53 2279.16,1246.54 2281.37,1246.55 2283.57,1246.55 2285.78,1246.56 2287.98,1246.57 2290.19,1246.58 2292.39,1246.58 2294.6,1246.59 2296.8,1246.6 2299.01,1246.61 2301.21,1246.61 2303.42,1246.62 2305.62,1246.63 2307.82,1246.64 2310.03,1246.64 2312.23,1246.65 2314.44,1246.66 2316.64,1246.66 2318.85,1246.67 2321.05,1246.68 2323.26,1246.69 2325.46,1246.69 2327.67,1246.7 2329.87,1246.71 2332.08,1246.71 2334.28,1246.72 2336.49,1246.73 2338.69,1246.73 2340.89,1246.74 2343.1,1246.75 2345.3,1246.75 2347.51,1246.76 2349.71,1246.77 2351.92,1246.77 2354.12,1246.78 2356.33,1246.79 2358.53,1246.79 2360.74,1246.8 2362.94,1246.81 2365.15,1246.81 2367.35,1246.82 2369.56,1246.82 2371.76,1246.83 "/>
<polyline clip-path="url(#clip842)" style="stroke:#ac8d18; stroke-linecap:round; stroke-linejoin:round; stroke-width:3.99945; stroke-opacity:1; fill:none" points="169.299,1244.36 171.504,1244.12 173.709,1243.88 175.913,1243.63 178.118,1243.38 180.323,1243.13 182.527,1242.87 184.732,1242.6 186.937,1242.33 189.141,1242.05 191.346,1241.77 193.551,1241.48 195.755,1241.19 197.96,1240.89 200.165,1240.59 202.369,1240.28 204.574,1239.96 206.779,1239.64 208.983,1239.31 211.188,1238.98 213.393,1238.63 215.597,1238.29 217.802,1237.93 220.007,1237.57 222.211,1237.2 224.416,1236.82 226.621,1236.44 228.825,1236.05 231.03,1235.65 233.235,1235.25 235.439,1234.83 237.644,1234.41 239.849,1233.98 242.053,1233.55 244.258,1233.1 246.463,1232.65 248.667,1232.18 250.872,1231.71 253.077,1231.23 255.281,1230.74 257.486,1230.24 259.691,1229.73 261.895,1229.21 264.1,1228.69 266.305,1228.15 268.509,1227.6 270.714,1227.04 272.919,1226.47 275.123,1225.89 277.328,1225.3 279.533,1224.7 281.737,1224.09 283.942,1223.47 286.147,1222.83 288.351,1222.19 290.556,1221.53 292.761,1220.86 294.965,1220.17 297.17,1219.48 299.375,1218.77 301.579,1218.05 303.784,1217.31 305.989,1216.57 308.193,1215.8 310.398,1215.03 312.603,1214.24 314.807,1213.44 317.012,1212.62 319.217,1211.79 321.421,1210.94 323.626,1210.08 325.831,1209.2 328.035,1208.3 330.24,1207.4 332.445,1206.47 334.649,1205.53 336.854,1204.57 339.059,1203.6 341.263,1202.6 343.468,1201.6 345.673,1200.57 347.877,1199.52 350.082,1198.46 352.287,1197.38 354.491,1196.28 356.696,1195.17 358.901,1194.03 361.105,1192.87 363.31,1191.7 365.515,1190.5 367.719,1189.29 369.924,1188.05 372.129,1186.8 374.333,1185.52 376.538,1184.23 378.743,1182.91 380.947,1181.57 383.152,1180.21 385.357,1178.82 387.561,1177.42 389.766,1175.99 391.97,1174.54 394.175,1173.06 396.38,1171.57 398.584,1170.05 400.789,1168.5 402.994,1166.93 405.198,1165.34 407.403,1163.72 409.608,1162.08 411.812,1160.42 414.017,1158.73 416.222,1157.01 418.426,1155.27 420.631,1153.5 422.836,1151.71 425.04,1149.89 427.245,1148.04 429.45,1146.17 431.654,1144.27 433.859,1142.35 436.064,1140.39 438.268,1138.41 440.473,1136.41 442.678,1134.37 444.882,1132.31 447.087,1130.22 449.292,1128.1 451.496,1125.96 453.701,1123.78 455.906,1121.58 458.11,1119.35 460.315,1117.09 462.52,1114.8 464.724,1112.49 466.929,1110.14 469.134,1107.77 471.338,1105.37 473.543,1102.94 475.748,1100.48 477.952,1097.99 480.157,1095.48 482.362,1092.93 484.566,1090.36 486.771,1087.76 488.976,1085.13 491.18,1082.47 493.385,1079.79 495.59,1077.07 497.794,1074.33 499.999,1071.56 502.204,1068.77 504.408,1065.94 506.613,1063.09 508.818,1060.22 511.022,1057.31 513.227,1054.38 515.432,1051.42 517.636,1048.44 519.841,1045.43 522.046,1042.4 524.25,1039.34 526.455,1036.26 528.66,1033.15 530.864,1030.02 533.069,1026.87 535.274,1023.69 537.478,1020.49 539.683,1017.27 541.888,1014.03 544.092,1010.77 546.297,1007.49 548.502,1004.18 550.706,1000.86 552.911,997.522 555.116,994.164 557.32,990.788 559.525,987.396 561.73,983.988 563.934,980.564 566.139,977.126 568.344,973.673 570.548,970.207 572.753,966.729 574.958,963.239 577.162,959.737 579.367,956.226 581.572,952.705 583.776,949.175 585.981,945.637 588.186,942.092 590.39,938.542 592.595,934.986 594.8,931.425 597.004,927.861 599.209,924.294 601.414,920.724 603.618,917.153 605.823,913.582 608.028,910.013 610.232,906.445 612.437,902.88 614.642,899.319 616.846,895.763 619.051,892.213 621.256,888.67 623.46,885.135 625.665,881.609 627.87,878.093 630.074,874.588 632.279,871.094 634.484,867.614 636.688,864.147 638.893,860.694 641.098,857.257 643.302,853.837 645.507,850.433 647.712,847.048 649.916,843.682 652.121,840.336 654.326,837.011 656.53,833.707 658.735,830.425 660.94,827.167 663.144,823.933 665.349,820.724 667.554,817.541 669.758,814.384 671.963,811.254 674.168,808.153 676.372,805.08 678.577,802.037 680.782,799.024 682.986,796.042 685.191,793.092 687.396,790.175 689.6,787.291 691.805,784.441 694.01,781.625 696.214,778.845 698.419,776.1 700.624,773.393 702.828,770.723 705.033,768.09 707.238,765.497 709.442,762.942 711.647,760.427 713.852,757.952 716.056,755.516 718.261,753.122 720.466,750.768 722.67,748.455 724.875,746.183 727.08,743.954 729.284,741.766 731.489,739.62 733.694,737.517 735.898,735.457 738.103,733.44 740.308,731.466 742.512,729.535 744.717,727.647 746.922,725.803 749.126,724.003 751.331,722.247 753.536,720.534 755.74,718.865 757.945,717.241 760.15,715.66 762.354,714.124 764.559,712.631 766.764,711.183 768.968,709.779 771.173,708.419 773.378,707.102 775.582,705.83 777.787,704.601 779.992,703.416 782.196,702.274 784.401,701.176 786.606,700.121 788.81,699.109 791.015,698.14 793.22,697.214 795.424,696.33 797.629,695.488 799.834,694.688 802.038,693.929 804.243,693.212 806.448,692.536 808.652,691.901 810.857,691.306 813.062,690.751 815.266,690.235 817.471,689.759 819.676,689.321 821.88,688.922 824.085,688.561 826.29,688.239 828.494,687.954 830.699,687.706 832.904,687.495 835.108,687.321 837.313,687.182 839.518,687.08 841.722,687.012 843.927,686.979 846.132,686.981 848.336,687.016 850.541,687.085 852.746,687.187 854.95,687.321 857.155,687.487 859.36,687.686 861.564,687.915 863.769,688.176 865.974,688.467 868.178,688.788 870.383,689.139 872.588,689.519 874.792,689.927 876.997,690.365 879.201,690.83 881.406,691.323 883.611,691.842 885.815,692.389 888.02,692.962 890.225,693.561 892.429,694.186 894.634,694.835 896.839,695.509 899.043,696.208 901.248,696.931 903.453,697.677 905.657,698.446 907.862,699.238 910.067,700.052 912.271,700.888 914.476,701.745 916.681,702.624 918.885,703.523 921.09,704.443 923.295,705.383 925.499,706.342 927.704,707.32 929.909,708.317 932.113,709.332 934.318,710.366 936.523,711.417 938.727,712.485 940.932,713.57 943.137,714.671 945.341,715.788 947.546,716.921 949.751,718.07 951.955,719.233 954.16,720.411 956.365,721.603 958.569,722.808 960.774,724.027 962.979,725.26 965.183,726.505 967.388,727.763 969.593,729.033 971.797,730.315 974.002,731.609 976.207,732.915 978.411,734.231 980.616,735.559 982.821,736.897 985.025,738.245 987.23,739.603 989.435,740.971 991.639,742.348 993.844,743.735 996.049,745.131 998.253,746.535 1000.46,747.948 1002.66,749.368 1004.87,750.797 1007.07,752.234 1009.28,753.678 1011.48,755.129 1013.69,756.587 1015.89,758.051 1018.1,759.522 1020.3,761 1022.5,762.483 1024.71,763.973 1026.91,765.468 1029.12,766.968 1031.32,768.473 1033.53,769.984 1035.73,771.499 1037.94,773.019 1040.14,774.543 1042.35,776.071 1044.55,777.603 1046.76,779.139 1048.96,780.679 1051.17,782.222 1053.37,783.768 1055.57,785.318 1057.78,786.87 1059.98,788.425 1062.19,789.982 1064.39,791.542 1066.6,793.104 1068.8,794.669 1071.01,796.235 1073.21,797.803 1075.42,799.373 1077.62,800.944 1079.83,802.516 1082.03,804.09 1084.24,805.665 1086.44,807.241 1088.64,808.817 1090.85,810.395 1093.05,811.973 1095.26,813.551 1097.46,815.13 1099.67,816.709 1101.87,818.288 1104.08,819.866 1106.28,821.445 1108.49,823.023 1110.69,824.601 1112.9,826.179 1115.1,827.756 1117.31,829.332 1119.51,830.907 1121.71,832.482 1123.92,834.056 1126.12,835.629 1128.33,837.2 1130.53,838.77 1132.74,840.339 1134.94,841.907 1137.15,843.473 1139.35,845.038 1141.56,846.601 1143.76,848.162 1145.97,849.722 1148.17,851.279 1150.38,852.835 1152.58,854.389 1154.78,855.94 1156.99,857.49 1159.19,859.037 1161.4,860.582 1163.6,862.124 1165.81,863.665 1168.01,865.202 1170.22,866.737 1172.42,868.27 1174.63,869.799 1176.83,871.326 1179.04,872.851 1181.24,874.372 1183.45,875.891 1185.65,877.406 1187.85,878.919 1190.06,880.428 1192.26,881.934 1194.47,883.438 1196.67,884.938 1198.88,886.434 1201.08,887.928 1203.29,889.418 1205.49,890.905 1207.7,892.388 1209.9,893.868 1212.11,895.344 1214.31,896.817 1216.52,898.287 1218.72,899.752 1220.92,901.214 1223.13,902.673 1225.33,904.128 1227.54,905.579 1229.74,907.026 1231.95,908.47 1234.15,909.91 1236.36,911.346 1238.56,912.778 1240.77,914.206 1242.97,915.631 1245.18,917.052 1247.38,918.468 1249.59,919.881 1251.79,921.29 1253.99,922.694 1256.2,924.095 1258.4,925.491 1260.61,926.884 1262.81,928.272 1265.02,929.657 1267.22,931.037 1269.43,932.413 1271.63,933.785 1273.84,935.152 1276.04,936.516 1278.25,937.875 1280.45,939.231 1282.66,940.582 1284.86,941.928 1287.06,943.271 1289.27,944.609 1291.47,945.943 1293.68,947.273 1295.88,948.599 1298.09,949.92 1300.29,951.237 1302.5,952.55 1304.7,953.858 1306.91,955.162 1309.11,956.462 1311.32,957.758 1313.52,959.049 1315.73,960.336 1317.93,961.618 1320.13,962.896 1322.34,964.17 1324.54,965.44 1326.75,966.705 1328.95,967.965 1331.16,969.222 1333.36,970.474 1335.57,971.721 1337.77,972.965 1339.98,974.204 1342.18,975.438 1344.39,976.668 1346.59,977.894 1348.8,979.115 1351,980.332 1353.2,981.545 1355.41,982.753 1357.61,983.957 1359.82,985.156 1362.02,986.351 1364.23,987.542 1366.43,988.728 1368.64,989.91 1370.84,991.088 1373.05,992.261 1375.25,993.43 1377.46,994.594 1379.66,995.754 1381.87,996.91 1384.07,998.061 1386.27,999.208 1388.48,1000.35 1390.68,1001.49 1392.89,1002.62 1395.09,1003.75 1397.3,1004.88 1399.5,1006 1401.71,1007.12 1403.91,1008.23 1406.12,1009.34 1408.32,1010.44 1410.53,1011.54 1412.73,1012.63 1414.94,1013.73 1417.14,1014.81 1419.34,1015.89 1421.55,1016.97 1423.75,1018.05 1425.96,1019.12 1428.16,1020.18 1430.37,1021.24 1432.57,1022.3 1434.78,1023.35 1436.98,1024.4 1439.19,1025.45 1441.39,1026.49 1443.6,1027.52 1445.8,1028.56 1448.01,1029.59 1450.21,1030.61 1452.41,1031.63 1454.62,1032.64 1456.82,1033.66 1459.03,1034.66 1461.23,1035.67 1463.44,1036.67 1465.64,1037.66 1467.85,1038.65 1470.05,1039.64 1472.26,1040.62 1474.46,1041.6 1476.67,1042.58 1478.87,1043.55 1481.08,1044.52 1483.28,1045.48 1485.48,1046.44 1487.69,1047.4 1489.89,1048.35 1492.1,1049.29 1494.3,1050.24 1496.51,1051.18 1498.71,1052.11 1500.92,1053.04 1503.12,1053.97 1505.33,1054.9 1507.53,1055.82 1509.74,1056.73 1511.94,1057.65 1514.15,1058.55 1516.35,1059.46 1518.55,1060.36 1520.76,1061.26 1522.96,1062.15 1525.17,1063.04 1527.37,1063.93 1529.58,1064.81 1531.78,1065.69 1533.99,1066.56 1536.19,1067.43 1538.4,1068.3 1540.6,1069.17 1542.81,1070.03 1545.01,1070.88 1547.22,1071.73 1549.42,1072.58 1551.62,1073.43 1553.83,1074.27 1556.03,1075.11 1558.24,1075.94 1560.44,1076.77 1562.65,1077.6 1564.85,1078.43 1567.06,1079.25 1569.26,1080.06 1571.47,1080.88 1573.67,1081.69 1575.88,1082.49 1578.08,1083.3 1580.29,1084.09 1582.49,1084.89 1584.69,1085.68 1586.9,1086.47 1589.1,1087.26 1591.31,1088.04 1593.51,1088.82 1595.72,1089.59 1597.92,1090.37 1600.13,1091.13 1602.33,1091.9 1604.54,1092.66 1606.74,1093.42 1608.95,1094.17 1611.15,1094.93 1613.35,1095.67 1615.56,1096.42 1617.76,1097.16 1619.97,1097.9 1622.17,1098.64 1624.38,1099.37 1626.58,1100.1 1628.79,1100.82 1630.99,1101.55 1633.2,1102.27 1635.4,1102.98 1637.61,1103.69 1639.81,1104.4 1642.02,1105.11 1644.22,1105.81 1646.42,1106.52 1648.63,1107.21 1650.83,1107.91 1653.04,1108.6 1655.24,1109.29 1657.45,1109.97 1659.65,1110.65 1661.86,1111.33 1664.06,1112.01 1666.27,1112.68 1668.47,1113.35 1670.68,1114.02 1672.88,1114.68 1675.09,1115.34 1677.29,1116 1679.49,1116.66 1681.7,1117.31 1683.9,1117.96 1686.11,1118.61 1688.31,1119.25 1690.52,1119.89 1692.72,1120.53 1694.93,1121.16 1697.13,1121.8 1699.34,1122.42 1701.54,1123.05 1703.75,1123.67 1705.95,1124.3 1708.16,1124.91 1710.36,1125.53 1712.56,1126.14 1714.77,1126.75 1716.97,1127.36 1719.18,1127.96 1721.38,1128.56 1723.59,1129.16 1725.79,1129.76 1728,1130.35 1730.2,1130.94 1732.41,1131.53 1734.61,1132.12 1736.82,1132.7 1739.02,1133.28 1741.23,1133.86 1743.43,1134.43 1745.63,1135 1747.84,1135.57 1750.04,1136.14 1752.25,1136.71 1754.45,1137.27 1756.66,1137.83 1758.86,1138.38 1761.07,1138.94 1763.27,1139.49 1765.48,1140.04 1767.68,1140.59 1769.89,1141.13 1772.09,1141.67 1774.3,1142.21 1776.5,1142.75 1778.7,1143.28 1780.91,1143.81 1783.11,1144.34 1785.32,1144.87 1787.52,1145.39 1789.73,1145.92 1791.93,1146.44 1794.14,1146.95 1796.34,1147.47 1798.55,1147.98 1800.75,1148.49 1802.96,1149 1805.16,1149.51 1807.37,1150.01 1809.57,1150.51 1811.77,1151.01 1813.98,1151.51 1816.18,1152 1818.39,1152.49 1820.59,1152.98 1822.8,1153.47 1825,1153.95 1827.21,1154.44 1829.41,1154.92 1831.62,1155.4 1833.82,1155.87 1836.03,1156.35 1838.23,1156.82 1840.44,1157.29 1842.64,1157.76 1844.84,1158.22 1847.05,1158.68 1849.25,1159.15 1851.46,1159.6 1853.66,1160.06 1855.87,1160.52 1858.07,1160.97 1860.28,1161.42 1862.48,1161.87 1864.69,1162.31 1866.89,1162.76 1869.1,1163.2 1871.3,1163.64 1873.51,1164.08 1875.71,1164.52 1877.91,1164.95 1880.12,1165.38 1882.32,1165.81 1884.53,1166.24 1886.73,1166.67 1888.94,1167.09 1891.14,1167.51 1893.35,1167.93 1895.55,1168.35 1897.76,1168.77 1899.96,1169.18 1902.17,1169.6 1904.37,1170.01 1906.58,1170.42 1908.78,1170.82 1910.98,1171.23 1913.19,1171.63 1915.39,1172.03 1917.6,1172.43 1919.8,1172.83 1922.01,1173.22 1924.21,1173.62 1926.42,1174.01 1928.62,1174.4 1930.83,1174.79 1933.03,1175.18 1935.24,1175.56 1937.44,1175.94 1939.65,1176.32 1941.85,1176.7 1944.05,1177.08 1946.26,1177.46 1948.46,1177.83 1950.67,1178.2 1952.87,1178.57 1955.08,1178.94 1957.28,1179.31 1959.49,1179.68 1961.69,1180.04 1963.9,1180.4 1966.1,1180.76 1968.31,1181.12 1970.51,1181.48 1972.72,1181.83 1974.92,1182.19 1977.12,1182.54 1979.33,1182.89 1981.53,1183.24 1983.74,1183.59 1985.94,1183.93 1988.15,1184.27 1990.35,1184.62 1992.56,1184.96 1994.76,1185.3 1996.97,1185.63 1999.17,1185.97 2001.38,1186.3 2003.58,1186.64 2005.79,1186.97 2007.99,1187.3 2010.19,1187.63 2012.4,1187.95 2014.6,1188.28 2016.81,1188.6 2019.01,1188.92 2021.22,1189.24 2023.42,1189.56 2025.63,1189.88 2027.83,1190.2 2030.04,1190.51 2032.24,1190.82 2034.45,1191.13 2036.65,1191.44 2038.86,1191.75 2041.06,1192.06 2043.26,1192.37 2045.47,1192.67 2047.67,1192.97 2049.88,1193.27 2052.08,1193.57 2054.29,1193.87 2056.49,1194.17 2058.7,1194.47 2060.9,1194.76 2063.11,1195.05 2065.31,1195.34 2067.52,1195.63 2069.72,1195.92 2071.93,1196.21 2074.13,1196.5 2076.33,1196.78 2078.54,1197.07 2080.74,1197.35 2082.95,1197.63 2085.15,1197.91 2087.36,1198.19 2089.56,1198.46 2091.77,1198.74 2093.97,1199.01 2096.18,1199.29 2098.38,1199.56 2100.59,1199.83 2102.79,1200.1 2105,1200.36 2107.2,1200.63 2109.4,1200.9 2111.61,1201.16 2113.81,1201.42 2116.02,1201.68 2118.22,1201.94 2120.43,1202.2 2122.63,1202.46 2124.84,1202.72 2127.04,1202.97 2129.25,1203.23 2131.45,1203.48 2133.66,1203.73 2135.86,1203.98 2138.07,1204.23 2140.27,1204.48 2142.47,1204.73 2144.68,1204.97 2146.88,1205.22 2149.09,1205.46 2151.29,1205.7 2153.5,1205.95 2155.7,1206.19 2157.91,1206.42 2160.11,1206.66 2162.32,1206.9 2164.52,1207.14 2166.73,1207.37 2168.93,1207.6 2171.14,1207.84 2173.34,1208.07 2175.54,1208.3 2177.75,1208.53 2179.95,1208.75 2182.16,1208.98 2184.36,1209.21 2186.57,1209.43 2188.77,1209.66 2190.98,1209.88 2193.18,1210.1 2195.39,1210.32 2197.59,1210.54 2199.8,1210.76 2202,1210.98 2204.21,1211.19 2206.41,1211.41 2208.61,1211.62 2210.82,1211.83 2213.02,1212.05 2215.23,1212.26 2217.43,1212.47 2219.64,1212.68 2221.84,1212.89 2224.05,1213.09 2226.25,1213.3 2228.46,1213.51 2230.66,1213.71 2232.87,1213.91 2235.07,1214.12 2237.28,1214.32 2239.48,1214.52 2241.68,1214.72 2243.89,1214.92 2246.09,1215.11 2248.3,1215.31 2250.5,1215.51 2252.71,1215.7 2254.91,1215.89 2257.12,1216.09 2259.32,1216.28 2261.53,1216.47 2263.73,1216.66 2265.94,1216.85 2268.14,1217.04 2270.35,1217.23 2272.55,1217.41 2274.75,1217.6 2276.96,1217.78 2279.16,1217.97 2281.37,1218.15 2283.57,1218.33 2285.78,1218.52 2287.98,1218.7 2290.19,1218.88 2292.39,1219.05 2294.6,1219.23 2296.8,1219.41 2299.01,1219.59 2301.21,1219.76 2303.42,1219.94 2305.62,1220.11 2307.82,1220.28 2310.03,1220.45 2312.23,1220.63 2314.44,1220.8 2316.64,1220.97 2318.85,1221.14 2321.05,1221.3 2323.26,1221.47 2325.46,1221.64 2327.67,1221.8 2329.87,1221.97 2332.08,1222.13 2334.28,1222.3 2336.49,1222.46 2338.69,1222.62 2340.89,1222.78 2343.1,1222.94 2345.3,1223.1 2347.51,1223.26 2349.71,1223.42 2351.92,1223.57 2354.12,1223.73 2356.33,1223.89 2358.53,1224.04 2360.74,1224.2 2362.94,1224.35 2365.15,1224.5 2367.35,1224.65 2369.56,1224.81 2371.76,1224.96 "/>
<polyline clip-path="url(#clip842)" style="stroke:#00a9ad; stroke-linecap:round; stroke-linejoin:round; stroke-width:3.99945; stroke-opacity:1; fill:none" points="169.299,1256.22 171.504,1256.16 173.709,1256.09 175.913,1256.03 178.118,1255.97 180.323,1255.9 182.527,1255.84 184.732,1255.77 186.937,1255.7 189.141,1255.63 191.346,1255.56 193.551,1255.49 195.755,1255.41 197.96,1255.34 200.165,1255.26 202.369,1255.18 204.574,1255.1 206.779,1255.02 208.983,1254.93 211.188,1254.85 213.393,1254.76 215.597,1254.67 217.802,1254.58 220.007,1254.49 222.211,1254.39 224.416,1254.3 226.621,1254.2 228.825,1254.1 231.03,1254 233.235,1253.89 235.439,1253.79 237.644,1253.68 239.849,1253.57 242.053,1253.46 244.258,1253.34 246.463,1253.23 248.667,1253.11 250.872,1252.99 253.077,1252.86 255.281,1252.74 257.486,1252.61 259.691,1252.48 261.895,1252.34 264.1,1252.21 266.305,1252.07 268.509,1251.92 270.714,1251.78 272.919,1251.63 275.123,1251.48 277.328,1251.33 279.533,1251.17 281.737,1251.01 283.942,1250.85 286.147,1250.69 288.351,1250.52 290.556,1250.34 292.761,1250.17 294.965,1249.99 297.17,1249.81 299.375,1249.62 301.579,1249.43 303.784,1249.24 305.989,1249.04 308.193,1248.84 310.398,1248.64 312.603,1248.43 314.807,1248.22 317.012,1248 319.217,1247.78 321.421,1247.56 323.626,1247.33 325.831,1247.1 328.035,1246.86 330.24,1246.62 332.445,1246.37 334.649,1246.12 336.854,1245.86 339.059,1245.6 341.263,1245.34 343.468,1245.07 345.673,1244.79 347.877,1244.51 350.082,1244.22 352.287,1243.93 354.491,1243.63 356.696,1243.33 358.901,1243.02 361.105,1242.71 363.31,1242.39 365.515,1242.06 367.719,1241.73 369.924,1241.39 372.129,1241.05 374.333,1240.7 376.538,1240.34 378.743,1239.98 380.947,1239.61 383.152,1239.23 385.357,1238.85 387.561,1238.45 389.766,1238.06 391.97,1237.65 394.175,1237.24 396.38,1236.82 398.584,1236.39 400.789,1235.96 402.994,1235.51 405.198,1235.06 407.403,1234.6 409.608,1234.14 411.812,1233.66 414.017,1233.18 416.222,1232.69 418.426,1232.18 420.631,1231.68 422.836,1231.16 425.04,1230.63 427.245,1230.09 429.45,1229.55 431.654,1228.99 433.859,1228.43 436.064,1227.85 438.268,1227.27 440.473,1226.67 442.678,1226.07 444.882,1225.45 447.087,1224.83 449.292,1224.19 451.496,1223.54 453.701,1222.89 455.906,1222.22 458.11,1221.54 460.315,1220.85 462.52,1220.15 464.724,1219.43 466.929,1218.71 469.134,1217.97 471.338,1217.22 473.543,1216.46 475.748,1215.69 477.952,1214.9 480.157,1214.1 482.362,1213.29 484.566,1212.47 486.771,1211.63 488.976,1210.78 491.18,1209.92 493.385,1209.04 495.59,1208.15 497.794,1207.25 499.999,1206.33 502.204,1205.4 504.408,1204.46 506.613,1203.5 508.818,1202.52 511.022,1201.53 513.227,1200.53 515.432,1199.51 517.636,1198.48 519.841,1197.44 522.046,1196.37 524.25,1195.29 526.455,1194.2 528.66,1193.09 530.864,1191.97 533.069,1190.83 535.274,1189.67 537.478,1188.5 539.683,1187.31 541.888,1186.11 544.092,1184.89 546.297,1183.65 548.502,1182.4 550.706,1181.13 552.911,1179.84 555.116,1178.54 557.32,1177.22 559.525,1175.88 561.73,1174.53 563.934,1173.16 566.139,1171.77 568.344,1170.36 570.548,1168.94 572.753,1167.5 574.958,1166.04 577.162,1164.57 579.367,1163.07 581.572,1161.56 583.776,1160.04 585.981,1158.49 588.186,1156.93 590.39,1155.35 592.595,1153.75 594.8,1152.13 597.004,1150.5 599.209,1148.84 601.414,1147.17 603.618,1145.49 605.823,1143.78 608.028,1142.06 610.232,1140.31 612.437,1138.55 614.642,1136.78 616.846,1134.98 619.051,1133.17 621.256,1131.34 623.46,1129.49 625.665,1127.62 627.87,1125.74 630.074,1123.84 632.279,1121.92 634.484,1119.98 636.688,1118.03 638.893,1116.06 641.098,1114.07 643.302,1112.06 645.507,1110.04 647.712,1108 649.916,1105.94 652.121,1103.87 654.326,1101.78 656.53,1099.68 658.735,1097.55 660.94,1095.41 663.144,1093.26 665.349,1091.09 667.554,1088.9 669.758,1086.7 671.963,1084.48 674.168,1082.24 676.372,1079.99 678.577,1077.73 680.782,1075.45 682.986,1073.15 685.191,1070.84 687.396,1068.52 689.6,1066.18 691.805,1063.82 694.01,1061.45 696.214,1059.07 698.419,1056.68 700.624,1054.27 702.828,1051.84 705.033,1049.41 707.238,1046.96 709.442,1044.49 711.647,1042.02 713.852,1039.53 716.056,1037.03 718.261,1034.52 720.466,1031.99 722.67,1029.46 724.875,1026.91 727.08,1024.35 729.284,1021.78 731.489,1019.2 733.694,1016.61 735.898,1014.01 738.103,1011.4 740.308,1008.78 742.512,1006.14 744.717,1003.5 746.922,1000.85 749.126,998.195 751.331,995.527 753.536,992.85 755.74,990.165 757.945,987.472 760.15,984.77 762.354,982.061 764.559,979.345 766.764,976.621 768.968,973.89 771.173,971.152 773.378,968.407 775.582,965.656 777.787,962.898 779.992,960.135 782.196,957.365 784.401,954.59 786.606,951.81 788.81,949.024 791.015,946.234 793.22,943.439 795.424,940.639 797.629,937.834 799.834,935.026 802.038,932.213 804.243,929.397 806.448,926.578 808.652,923.755 810.857,920.929 813.062,918.1 815.266,915.268 817.471,912.434 819.676,909.598 821.88,906.76 824.085,903.919 826.29,901.078 828.494,898.234 830.699,895.39 832.904,892.544 835.108,889.697 837.313,886.85 839.518,884.002 841.722,881.154 843.927,878.305 846.132,875.457 848.336,872.608 850.541,869.76 852.746,866.912 854.95,864.065 857.155,861.219 859.36,858.373 861.564,855.528 863.769,852.685 865.974,849.843 868.178,847.003 870.383,844.164 872.588,841.327 874.792,838.492 876.997,835.659 879.201,832.828 881.406,830 883.611,827.174 885.815,824.35 888.02,821.53 890.225,818.712 892.429,815.898 894.634,813.086 896.839,810.278 899.043,807.473 901.248,804.672 903.453,801.874 905.657,799.081 907.862,796.291 910.067,793.505 912.271,790.723 914.476,787.945 916.681,785.172 918.885,782.403 921.09,779.639 923.295,776.879 925.499,774.124 927.704,771.374 929.909,768.629 932.113,765.889 934.318,763.154 936.523,760.424 938.727,757.7 940.932,754.981 943.137,752.267 945.341,749.559 947.546,746.857 949.751,744.16 951.955,741.47 954.16,738.785 956.365,736.106 958.569,733.433 960.774,730.767 962.979,728.106 965.183,725.452 967.388,722.804 969.593,720.163 971.797,717.528 974.002,714.899 976.207,712.277 978.411,709.662 980.616,707.053 982.821,704.451 985.025,701.855 987.23,699.267 989.435,696.685 991.639,694.11 993.844,691.541 996.049,688.98 998.253,686.426 1000.46,683.879 1002.66,681.339 1004.87,678.806 1007.07,676.28 1009.28,673.761 1011.48,671.249 1013.69,668.745 1015.89,666.248 1018.1,663.759 1020.3,661.276 1022.5,658.801 1024.71,656.334 1026.91,653.874 1029.12,651.421 1031.32,648.976 1033.53,646.539 1035.73,644.109 1037.94,641.686 1040.14,639.271 1042.35,636.864 1044.55,634.465 1046.76,632.073 1048.96,629.689 1051.17,627.312 1053.37,624.943 1055.57,622.582 1057.78,620.229 1059.98,617.884 1062.19,615.546 1064.39,613.216 1066.6,610.894 1068.8,608.58 1071.01,606.274 1073.21,603.975 1075.42,601.685 1077.62,599.402 1079.83,597.127 1082.03,594.86 1084.24,592.601 1086.44,590.35 1088.64,588.107 1090.85,585.872 1093.05,583.644 1095.26,581.425 1097.46,579.213 1099.67,577.01 1101.87,574.814 1104.08,572.626 1106.28,570.446 1108.49,568.274 1110.69,566.11 1112.9,563.954 1115.1,561.806 1117.31,559.665 1119.51,557.533 1121.71,555.408 1123.92,553.292 1126.12,551.183 1128.33,549.082 1130.53,546.989 1132.74,544.904 1134.94,542.826 1137.15,540.757 1139.35,538.695 1141.56,536.641 1143.76,534.595 1145.97,532.556 1148.17,530.526 1150.38,528.503 1152.58,526.488 1154.78,524.481 1156.99,522.481 1159.19,520.489 1161.4,518.505 1163.6,516.529 1165.81,514.56 1168.01,512.599 1170.22,510.646 1172.42,508.701 1174.63,506.763 1176.83,504.832 1179.04,502.91 1181.24,500.995 1183.45,499.087 1185.65,497.187 1187.85,495.295 1190.06,493.41 1192.26,491.533 1194.47,489.664 1196.67,487.801 1198.88,485.947 1201.08,484.1 1203.29,482.26 1205.49,480.428 1207.7,478.603 1209.9,476.786 1212.11,474.976 1214.31,473.173 1216.52,471.378 1218.72,469.59 1220.92,467.81 1223.13,466.037 1225.33,464.271 1227.54,462.512 1229.74,460.761 1231.95,459.017 1234.15,457.28 1236.36,455.55 1238.56,453.828 1240.77,452.113 1242.97,450.404 1245.18,448.703 1247.38,447.009 1249.59,445.322 1251.79,443.643 1253.99,441.97 1256.2,440.304 1258.4,438.645 1260.61,436.994 1262.81,435.349 1265.02,433.711 1267.22,432.08 1269.43,430.456 1271.63,428.839 1273.84,427.229 1276.04,425.625 1278.25,424.029 1280.45,422.439 1282.66,420.856 1284.86,419.28 1287.06,417.71 1289.27,416.147 1291.47,414.591 1293.68,413.042 1295.88,411.499 1298.09,409.962 1300.29,408.433 1302.5,406.91 1304.7,405.393 1306.91,403.883 1309.11,402.38 1311.32,400.883 1313.52,399.392 1315.73,397.908 1317.93,396.43 1320.13,394.959 1322.34,393.494 1324.54,392.036 1326.75,390.583 1328.95,389.137 1331.16,387.698 1333.36,386.265 1335.57,384.837 1337.77,383.417 1339.98,382.002 1342.18,380.594 1344.39,379.191 1346.59,377.795 1348.8,376.405 1351,375.021 1353.2,373.644 1355.41,372.272 1357.61,370.906 1359.82,369.546 1362.02,368.193 1364.23,366.845 1366.43,365.503 1368.64,364.167 1370.84,362.837 1373.05,361.513 1375.25,360.195 1377.46,358.883 1379.66,357.576 1381.87,356.275 1384.07,354.98 1386.27,353.691 1388.48,352.407 1390.68,351.13 1392.89,349.858 1395.09,348.591 1397.3,347.33 1399.5,346.075 1401.71,344.826 1403.91,343.582 1406.12,342.343 1408.32,341.11 1410.53,339.883 1412.73,338.661 1414.94,337.445 1417.14,336.234 1419.34,335.028 1421.55,333.828 1423.75,332.634 1425.96,331.444 1428.16,330.26 1430.37,329.082 1432.57,327.908 1434.78,326.74 1436.98,325.577 1439.19,324.42 1441.39,323.267 1443.6,322.12 1445.8,320.978 1448.01,319.841 1450.21,318.71 1452.41,317.583 1454.62,316.461 1456.82,315.345 1459.03,314.234 1461.23,313.127 1463.44,312.026 1465.64,310.929 1467.85,309.838 1470.05,308.752 1472.26,307.67 1474.46,306.594 1476.67,305.522 1478.87,304.455 1481.08,303.393 1483.28,302.336 1485.48,301.283 1487.69,300.236 1489.89,299.193 1492.1,298.155 1494.3,297.122 1496.51,296.093 1498.71,295.069 1500.92,294.05 1503.12,293.036 1505.33,292.026 1507.53,291.02 1509.74,290.02 1511.94,289.023 1514.15,288.032 1516.35,287.045 1518.55,286.062 1520.76,285.084 1522.96,284.111 1525.17,283.142 1527.37,282.177 1529.58,281.217 1531.78,280.261 1533.99,279.31 1536.19,278.362 1538.4,277.42 1540.6,276.481 1542.81,275.547 1545.01,274.618 1547.22,273.692 1549.42,272.771 1551.62,271.854 1553.83,270.941 1556.03,270.033 1558.24,269.128 1560.44,268.228 1562.65,267.332 1564.85,266.44 1567.06,265.553 1569.26,264.669 1571.47,263.789 1573.67,262.914 1575.88,262.042 1578.08,261.175 1580.29,260.311 1582.49,259.452 1584.69,258.596 1586.9,257.745 1589.1,256.897 1591.31,256.054 1593.51,255.214 1595.72,254.378 1597.92,253.546 1600.13,252.718 1602.33,251.894 1604.54,251.073 1606.74,250.257 1608.95,249.444 1611.15,248.635 1613.35,247.829 1615.56,247.028 1617.76,246.23 1619.97,245.436 1622.17,244.645 1624.38,243.858 1626.58,243.075 1628.79,242.296 1630.99,241.52 1633.2,240.747 1635.4,239.979 1637.61,239.214 1639.81,238.452 1642.02,237.694 1644.22,236.939 1646.42,236.188 1648.63,235.441 1650.83,234.697 1653.04,233.956 1655.24,233.219 1657.45,232.486 1659.65,231.755 1661.86,231.029 1664.06,230.305 1666.27,229.585 1668.47,228.868 1670.68,228.155 1672.88,227.445 1675.09,226.738 1677.29,226.035 1679.49,225.334 1681.7,224.638 1683.9,223.944 1686.11,223.254 1688.31,222.566 1690.52,221.882 1692.72,221.202 1694.93,220.524 1697.13,219.85 1699.34,219.178 1701.54,218.51 1703.75,217.845 1705.95,217.183 1708.16,216.525 1710.36,215.869 1712.56,215.216 1714.77,214.567 1716.97,213.92 1719.18,213.277 1721.38,212.636 1723.59,211.999 1725.79,211.365 1728,210.733 1730.2,210.105 1732.41,209.479 1734.61,208.856 1736.82,208.237 1739.02,207.62 1741.23,207.006 1743.43,206.395 1745.63,205.787 1747.84,205.182 1750.04,204.579 1752.25,203.98 1754.45,203.383 1756.66,202.789 1758.86,202.198 1761.07,201.61 1763.27,201.024 1765.48,200.441 1767.68,199.861 1769.89,199.284 1772.09,198.709 1774.3,198.137 1776.5,197.568 1778.7,197.001 1780.91,196.437 1783.11,195.876 1785.32,195.318 1787.52,194.762 1789.73,194.208 1791.93,193.658 1794.14,193.11 1796.34,192.564 1798.55,192.021 1800.75,191.481 1802.96,190.943 1805.16,190.407 1807.37,189.875 1809.57,189.344 1811.77,188.817 1813.98,188.291 1816.18,187.769 1818.39,187.248 1820.59,186.73 1822.8,186.215 1825,185.702 1827.21,185.191 1829.41,184.683 1831.62,184.178 1833.82,183.674 1836.03,183.173 1838.23,182.675 1840.44,182.178 1842.64,181.684 1844.84,181.193 1847.05,180.704 1849.25,180.217 1851.46,179.732 1853.66,179.25 1855.87,178.77 1858.07,178.292 1860.28,177.816 1862.48,177.343 1864.69,176.872 1866.89,176.403 1869.1,175.936 1871.3,175.472 1873.51,175.01 1875.71,174.55 1877.91,174.092 1880.12,173.636 1882.32,173.183 1884.53,172.731 1886.73,172.282 1888.94,171.835 1891.14,171.39 1893.35,170.947 1895.55,170.506 1897.76,170.068 1899.96,169.631 1902.17,169.196 1904.37,168.764 1906.58,168.333 1908.78,167.905 1910.98,167.479 1913.19,167.054 1915.39,166.632 1917.6,166.211 1919.8,165.793 1922.01,165.376 1924.21,164.962 1926.42,164.55 1928.62,164.139 1930.83,163.73 1933.03,163.324 1935.24,162.919 1937.44,162.516 1939.65,162.115 1941.85,161.716 1944.05,161.319 1946.26,160.924 1948.46,160.531 1950.67,160.139 1952.87,159.75 1955.08,159.362 1957.28,158.976 1959.49,158.592 1961.69,158.21 1963.9,157.829 1966.1,157.451 1968.31,157.074 1970.51,156.699 1972.72,156.326 1974.92,155.954 1977.12,155.584 1979.33,155.216 1981.53,154.85 1983.74,154.486 1985.94,154.123 1988.15,153.762 1990.35,153.403 1992.56,153.045 1994.76,152.69 1996.97,152.335 1999.17,151.983 2001.38,151.632 2003.58,151.283 2005.79,150.936 2007.99,150.59 2010.19,150.246 2012.4,149.903 2014.6,149.562 2016.81,149.223 2019.01,148.885 2021.22,148.549 2023.42,148.215 2025.63,147.882 2027.83,147.551 2030.04,147.221 2032.24,146.893 2034.45,146.567 2036.65,146.242 2038.86,145.919 2041.06,145.597 2043.26,145.276 2045.47,144.958 2047.67,144.64 2049.88,144.325 2052.08,144.01 2054.29,143.698 2056.49,143.386 2058.7,143.077 2060.9,142.768 2063.11,142.462 2065.31,142.156 2067.52,141.852 2069.72,141.55 2071.93,141.249 2074.13,140.949 2076.33,140.651 2078.54,140.355 2080.74,140.059 2082.95,139.766 2085.15,139.473 2087.36,139.182 2089.56,138.892 2091.77,138.604 2093.97,138.317 2096.18,138.032 2098.38,137.747 2100.59,137.465 2102.79,137.183 2105,136.903 2107.2,136.624 2109.4,136.347 2111.61,136.071 2113.81,135.796 2116.02,135.522 2118.22,135.25 2120.43,134.979 2122.63,134.71 2124.84,134.441 2127.04,134.174 2129.25,133.908 2131.45,133.644 2133.66,133.381 2135.86,133.119 2138.07,132.858 2140.27,132.598 2142.47,132.34 2144.68,132.083 2146.88,131.827 2149.09,131.573 2151.29,131.319 2153.5,131.067 2155.7,130.816 2157.91,130.566 2160.11,130.318 2162.32,130.07 2164.52,129.824 2166.73,129.579 2168.93,129.335 2171.14,129.093 2173.34,128.851 2175.54,128.611 2177.75,128.371 2179.95,128.133 2182.16,127.896 2184.36,127.661 2186.57,127.426 2188.77,127.192 2190.98,126.96 2193.18,126.728 2195.39,126.498 2197.59,126.269 2199.8,126.041 2202,125.814 2204.21,125.588 2206.41,125.363 2208.61,125.139 2210.82,124.917 2213.02,124.695 2215.23,124.475 2217.43,124.255 2219.64,124.037 2221.84,123.819 2224.05,123.603 2226.25,123.388 2228.46,123.173 2230.66,122.96 2232.87,122.748 2235.07,122.537 2237.28,122.326 2239.48,122.117 2241.68,121.909 2243.89,121.702 2246.09,121.496 2248.3,121.29 2250.5,121.086 2252.71,120.883 2254.91,120.681 2257.12,120.479 2259.32,120.279 2261.53,120.08 2263.73,119.881 2265.94,119.684 2268.14,119.487 2270.35,119.291 2272.55,119.097 2274.75,118.903 2276.96,118.71 2279.16,118.518 2281.37,118.327 2283.57,118.137 2285.78,117.948 2287.98,117.76 2290.19,117.573 2292.39,117.386 2294.6,117.201 2296.8,117.016 2299.01,116.832 2301.21,116.649 2303.42,116.467 2305.62,116.286 2307.82,116.106 2310.03,115.927 2312.23,115.748 2314.44,115.57 2316.64,115.394 2318.85,115.218 2321.05,115.042 2323.26,114.868 2325.46,114.695 2327.67,114.522 2329.87,114.35 2332.08,114.179 2334.28,114.009 2336.49,113.84 2338.69,113.671 2340.89,113.503 2343.1,113.336 2345.3,113.17 2347.51,113.005 2349.71,112.84 2351.92,112.677 2354.12,112.514 2356.33,112.352 2358.53,112.19 2360.74,112.029 2362.94,111.87 2365.15,111.711 2367.35,111.552 2369.56,111.395 2371.76,111.238 "/>
<path clip-path="url(#clip840)" d="M242.715 451.541 L570.636 451.541 L570.636 88.7106 L242.715 88.7106  Z" fill="#ffffff" fill-rule="evenodd" fill-opacity="1"/>
<polyline clip-path="url(#clip840)" style="stroke:#000000; stroke-linecap:round; stroke-linejoin:round; stroke-width:3.99945; stroke-opacity:1; fill:none" points="242.715,451.541 570.636,451.541 570.636,88.7106 242.715,88.7106 242.715,451.541 "/>
<polyline clip-path="url(#clip840)" style="stroke:#009af9; stroke-linecap:round; stroke-linejoin:round; stroke-width:3.99945; stroke-opacity:1; fill:none" points="267.186,140.544 414.017,140.544 "/>
<path clip-path="url(#clip840)" d="M452.33 160.228 Q450.525 164.857 448.812 166.269 Q447.099 167.681 444.229 167.681 L440.827 167.681 L440.827 164.117 L443.326 164.117 Q445.086 164.117 446.058 163.283 Q447.03 162.45 448.21 159.349 L448.974 157.405 L438.489 131.899 L443.002 131.899 L451.104 152.174 L459.205 131.899 L463.718 131.899 L452.33 160.228 Z" fill="#000000" fill-rule="evenodd" fill-opacity="1" /><path clip-path="url(#clip840)" d="M471.009 153.887 L478.647 153.887 L478.647 127.525 L470.338 129.191 L470.338 124.932 L478.601 123.266 L483.277 123.266 L483.277 153.887 L490.915 153.887 L490.915 157.821 L471.009 157.821 L471.009 153.887 Z" fill="#000000" fill-rule="evenodd" fill-opacity="1" /><polyline clip-path="url(#clip840)" style="stroke:#e26f46; stroke-linecap:round; stroke-linejoin:round; stroke-width:3.99945; stroke-opacity:1; fill:none" points="267.186,192.376 414.017,192.376 "/>
<path clip-path="url(#clip840)" d="M452.33 212.061 Q450.525 216.69 448.812 218.102 Q447.099 219.514 444.229 219.514 L440.827 219.514 L440.827 215.949 L443.326 215.949 Q445.086 215.949 446.058 215.116 Q447.03 214.283 448.21 211.182 L448.974 209.237 L438.489 183.732 L443.002 183.732 L451.104 204.007 L459.205 183.732 L463.718 183.732 L452.33 212.061 Z" fill="#000000" fill-rule="evenodd" fill-opacity="1" /><path clip-path="url(#clip840)" d="M474.227 205.719 L490.545 205.719 L490.545 209.654 L468.602 209.654 L468.602 205.719 Q471.264 202.965 475.847 198.336 Q480.453 193.684 481.633 192.342 Q483.878 189.819 484.758 188.083 Q485.661 186.324 485.661 184.634 Q485.661 181.88 483.716 180.144 Q481.795 178.409 478.694 178.409 Q476.495 178.409 474.041 179.172 Q471.611 179.936 468.833 181.487 L468.833 176.765 Q471.657 175.631 474.111 175.052 Q476.564 174.474 478.601 174.474 Q483.971 174.474 487.165 177.159 Q490.359 179.843 490.359 184.334 Q490.359 186.463 489.549 188.384 Q488.762 190.282 486.656 192.874 Q486.077 193.545 482.976 196.762 Q479.874 199.956 474.227 205.719 Z" fill="#000000" fill-rule="evenodd" fill-opacity="1" /><polyline clip-path="url(#clip840)" style="stroke:#3da44d; stroke-linecap:round; stroke-linejoin:round; stroke-width:3.99945; stroke-opacity:1; fill:none" points="267.186,244.209 414.017,244.209 "/>
<path clip-path="url(#clip840)" d="M452.33 263.894 Q450.525 268.523 448.812 269.935 Q447.099 271.347 444.229 271.347 L440.827 271.347 L440.827 267.782 L443.326 267.782 Q445.086 267.782 446.058 266.949 Q447.03 266.116 448.21 263.015 L448.974 261.07 L438.489 235.565 L443.002 235.565 L451.104 255.84 L459.205 235.565 L463.718 235.565 L452.33 263.894 Z" fill="#000000" fill-rule="evenodd" fill-opacity="1" /><path clip-path="url(#clip840)" d="M484.365 242.855 Q487.721 243.573 489.596 245.841 Q491.494 248.109 491.494 251.442 Q491.494 256.557 487.975 259.358 Q484.457 262.158 477.976 262.158 Q475.8 262.158 473.486 261.718 Q471.194 261.302 468.741 260.445 L468.741 255.932 Q470.685 257.066 473 257.645 Q475.314 258.224 477.837 258.224 Q482.235 258.224 484.527 256.488 Q486.841 254.752 486.841 251.442 Q486.841 248.387 484.689 246.674 Q482.559 244.938 478.74 244.938 L474.713 244.938 L474.713 241.096 L478.925 241.096 Q482.374 241.096 484.203 239.731 Q486.031 238.342 486.031 235.75 Q486.031 233.088 484.133 231.676 Q482.258 230.241 478.74 230.241 Q476.819 230.241 474.62 230.658 Q472.421 231.075 469.782 231.954 L469.782 227.788 Q472.444 227.047 474.759 226.677 Q477.097 226.307 479.157 226.307 Q484.48 226.307 487.582 228.737 Q490.683 231.144 490.683 235.264 Q490.683 238.134 489.04 240.124 Q487.397 242.092 484.365 242.855 Z" fill="#000000" fill-rule="evenodd" fill-opacity="1" /><polyline clip-path="url(#clip840)" style="stroke:#c271d2; stroke-linecap:round; stroke-linejoin:round; stroke-width:3.99945; stroke-opacity:1; fill:none" points="267.186,296.042 414.017,296.042 "/>
<path clip-path="url(#clip840)" d="M438.489 303.09 L438.489 287.398 L442.748 287.398 L442.748 302.928 Q442.748 306.608 444.183 308.459 Q445.618 310.288 448.488 310.288 Q451.937 310.288 453.927 308.089 Q455.941 305.89 455.941 302.095 L455.941 287.398 L460.2 287.398 L460.2 313.32 L455.941 313.32 L455.941 309.339 Q454.39 311.7 452.33 312.857 Q450.293 313.991 447.585 313.991 Q443.118 313.991 440.804 311.214 Q438.489 308.436 438.489 303.09 M449.206 286.773 L449.206 286.773 Z" fill="#000000" fill-rule="evenodd" fill-opacity="1" /><path clip-path="url(#clip840)" d="M470.384 309.385 L478.022 309.385 L478.022 283.023 L469.713 284.69 L469.713 280.431 L477.976 278.765 L482.652 278.765 L482.652 309.385 L490.29 309.385 L490.29 313.32 L470.384 313.32 L470.384 309.385 Z" fill="#000000" fill-rule="evenodd" fill-opacity="1" /><path clip-path="url(#clip840)" d="M509.362 277.353 Q506.261 282.676 504.756 287.884 Q503.252 293.091 503.252 298.438 Q503.252 303.784 504.756 309.038 Q506.284 314.269 509.362 319.569 L505.659 319.569 Q502.187 314.13 500.451 308.876 Q498.738 303.622 498.738 298.438 Q498.738 293.276 500.451 288.046 Q502.164 282.815 505.659 277.353 L509.362 277.353 Z" fill="#000000" fill-rule="evenodd" fill-opacity="1" /><path clip-path="url(#clip840)" d="M521.838 280.038 L521.838 287.398 L530.61 287.398 L530.61 290.707 L521.838 290.707 L521.838 304.779 Q521.838 307.95 522.694 308.853 Q523.574 309.756 526.236 309.756 L530.61 309.756 L530.61 313.32 L526.236 313.32 Q521.306 313.32 519.431 311.491 Q517.556 309.64 517.556 304.779 L517.556 290.707 L514.431 290.707 L514.431 287.398 L517.556 287.398 L517.556 280.038 L521.838 280.038 Z" fill="#000000" fill-rule="evenodd" fill-opacity="1" /><path clip-path="url(#clip840)" d="M535.541 277.353 L539.244 277.353 Q542.716 282.815 544.429 288.046 Q546.165 293.276 546.165 298.438 Q546.165 303.622 544.429 308.876 Q542.716 314.13 539.244 319.569 L535.541 319.569 Q538.619 314.269 540.124 309.038 Q541.651 303.784 541.651 298.438 Q541.651 293.091 540.124 287.884 Q538.619 282.676 535.541 277.353 Z" fill="#000000" fill-rule="evenodd" fill-opacity="1" /><polyline clip-path="url(#clip840)" style="stroke:#ac8d18; stroke-linecap:round; stroke-linejoin:round; stroke-width:3.99945; stroke-opacity:1; fill:none" points="267.186,347.875 414.017,347.875 "/>
<path clip-path="url(#clip840)" d="M438.489 354.923 L438.489 339.231 L442.748 339.231 L442.748 354.761 Q442.748 358.441 444.183 360.292 Q445.618 362.121 448.488 362.121 Q451.937 362.121 453.927 359.922 Q455.941 357.723 455.941 353.927 L455.941 339.231 L460.2 339.231 L460.2 365.153 L455.941 365.153 L455.941 361.172 Q454.39 363.533 452.33 364.69 Q450.293 365.824 447.585 365.824 Q443.118 365.824 440.804 363.047 Q438.489 360.269 438.489 354.923 M449.206 338.606 L449.206 338.606 Z" fill="#000000" fill-rule="evenodd" fill-opacity="1" /><path clip-path="url(#clip840)" d="M473.602 361.218 L489.92 361.218 L489.92 365.153 L467.977 365.153 L467.977 361.218 Q470.639 358.464 475.222 353.835 Q479.828 349.183 481.008 347.84 Q483.254 345.318 484.133 343.582 Q485.036 341.823 485.036 340.133 Q485.036 337.379 483.091 335.643 Q481.17 333.907 478.069 333.907 Q475.87 333.907 473.416 334.671 Q470.986 335.435 468.209 336.985 L468.209 332.264 Q471.032 331.13 473.486 330.551 Q475.939 329.973 477.976 329.973 Q483.346 329.973 486.54 332.657 Q489.734 335.342 489.734 339.832 Q489.734 341.962 488.924 343.883 Q488.137 345.78 486.031 348.373 Q485.452 349.044 482.351 352.261 Q479.249 355.455 473.602 361.218 Z" fill="#000000" fill-rule="evenodd" fill-opacity="1" /><path clip-path="url(#clip840)" d="M509.362 329.186 Q506.261 334.509 504.756 339.717 Q503.252 344.924 503.252 350.271 Q503.252 355.617 504.756 360.871 Q506.284 366.102 509.362 371.402 L505.659 371.402 Q502.187 365.963 500.451 360.709 Q498.738 355.455 498.738 350.271 Q498.738 345.109 500.451 339.879 Q502.164 334.648 505.659 329.186 L509.362 329.186 Z" fill="#000000" fill-rule="evenodd" fill-opacity="1" /><path clip-path="url(#clip840)" d="M521.838 331.87 L521.838 339.231 L530.61 339.231 L530.61 342.54 L521.838 342.54 L521.838 356.612 Q521.838 359.783 522.694 360.686 Q523.574 361.588 526.236 361.588 L530.61 361.588 L530.61 365.153 L526.236 365.153 Q521.306 365.153 519.431 363.324 Q517.556 361.473 517.556 356.612 L517.556 342.54 L514.431 342.54 L514.431 339.231 L517.556 339.231 L517.556 331.87 L521.838 331.87 Z" fill="#000000" fill-rule="evenodd" fill-opacity="1" /><path clip-path="url(#clip840)" d="M535.541 329.186 L539.244 329.186 Q542.716 334.648 544.429 339.879 Q546.165 345.109 546.165 350.271 Q546.165 355.455 544.429 360.709 Q542.716 365.963 539.244 371.402 L535.541 371.402 Q538.619 366.102 540.124 360.871 Q541.651 355.617 541.651 350.271 Q541.651 344.924 540.124 339.717 Q538.619 334.509 535.541 329.186 Z" fill="#000000" fill-rule="evenodd" fill-opacity="1" /><polyline clip-path="url(#clip840)" style="stroke:#00a9ad; stroke-linecap:round; stroke-linejoin:round; stroke-width:3.99945; stroke-opacity:1; fill:none" points="267.186,399.708 414.017,399.708 "/>
<path clip-path="url(#clip840)" d="M438.489 406.756 L438.489 391.063 L442.748 391.063 L442.748 406.594 Q442.748 410.274 444.183 412.125 Q445.618 413.954 448.488 413.954 Q451.937 413.954 453.927 411.755 Q455.941 409.556 455.941 405.76 L455.941 391.063 L460.2 391.063 L460.2 416.986 L455.941 416.986 L455.941 413.005 Q454.39 415.365 452.33 416.523 Q450.293 417.657 447.585 417.657 Q443.118 417.657 440.804 414.879 Q438.489 412.102 438.489 406.756 M449.206 390.438 L449.206 390.438 Z" fill="#000000" fill-rule="evenodd" fill-opacity="1" /><path clip-path="url(#clip840)" d="M483.74 398.354 Q487.096 399.072 488.971 401.34 Q490.869 403.608 490.869 406.941 Q490.869 412.056 487.35 414.856 Q483.832 417.657 477.351 417.657 Q475.176 417.657 472.861 417.217 Q470.569 416.8 468.116 415.944 L468.116 411.431 Q470.06 412.565 472.375 413.144 Q474.689 413.722 477.212 413.722 Q481.61 413.722 483.902 411.986 Q486.216 410.25 486.216 406.941 Q486.216 403.886 484.064 402.173 Q481.934 400.437 478.115 400.437 L474.088 400.437 L474.088 396.595 L478.3 396.595 Q481.749 396.595 483.578 395.229 Q485.406 393.841 485.406 391.249 Q485.406 388.587 483.508 387.175 Q481.633 385.74 478.115 385.74 Q476.194 385.74 473.995 386.157 Q471.796 386.573 469.158 387.453 L469.158 383.287 Q471.819 382.546 474.134 382.176 Q476.472 381.805 478.532 381.805 Q483.855 381.805 486.957 384.236 Q490.058 386.643 490.058 390.763 Q490.058 393.632 488.415 395.623 Q486.772 397.59 483.74 398.354 Z" fill="#000000" fill-rule="evenodd" fill-opacity="1" /><path clip-path="url(#clip840)" d="M509.362 381.019 Q506.261 386.342 504.756 391.549 Q503.252 396.757 503.252 402.103 Q503.252 407.45 504.756 412.704 Q506.284 417.935 509.362 423.235 L505.659 423.235 Q502.187 417.796 500.451 412.542 Q498.738 407.288 498.738 402.103 Q498.738 396.942 500.451 391.711 Q502.164 386.481 505.659 381.019 L509.362 381.019 Z" fill="#000000" fill-rule="evenodd" fill-opacity="1" /><path clip-path="url(#clip840)" d="M521.838 383.703 L521.838 391.063 L530.61 391.063 L530.61 394.373 L521.838 394.373 L521.838 408.445 Q521.838 411.616 522.694 412.519 Q523.574 413.421 526.236 413.421 L530.61 413.421 L530.61 416.986 L526.236 416.986 Q521.306 416.986 519.431 415.157 Q517.556 413.306 517.556 408.445 L517.556 394.373 L514.431 394.373 L514.431 391.063 L517.556 391.063 L517.556 383.703 L521.838 383.703 Z" fill="#000000" fill-rule="evenodd" fill-opacity="1" /><path clip-path="url(#clip840)" d="M535.541 381.019 L539.244 381.019 Q542.716 386.481 544.429 391.711 Q546.165 396.942 546.165 402.103 Q546.165 407.288 544.429 412.542 Q542.716 417.796 539.244 423.235 L535.541 423.235 Q538.619 417.935 540.124 412.704 Q541.651 407.45 541.651 402.103 Q541.651 396.757 540.124 391.549 Q538.619 386.342 535.541 381.019 Z" fill="#000000" fill-rule="evenodd" fill-opacity="1" /></svg>
