<?xml version="1.0" encoding="utf-8"?>
<svg xmlns="http://www.w3.org/2000/svg" xmlns:xlink="http://www.w3.org/1999/xlink" width="604.75" height="364.75" viewBox="0 0 2419 1459">
<defs>
  <clipPath id="clip800">
    <rect x="0" y="0" width="2419" height="1459"/>
  </clipPath>
</defs>
<path clip-path="url(#clip800)" d="M0 1459 L2419 1459 L2419 0 L0 0  Z" fill="#ffffff" fill-rule="evenodd" fill-opacity="1"/>
<defs>
  <clipPath id="clip801">
    <rect x="483" y="0" width="1694" height="1459"/>
  </clipPath>
</defs>
<path clip-path="url(#clip800)" d="M169.299 1350.16 L2371.76 1350.16 L2371.76 47.2376 L169.299 47.2376  Z" fill="#ffffff" fill-rule="evenodd" fill-opacity="1"/>
<defs>
  <clipPath id="clip802">
    <rect x="169" y="47" width="2203" height="1304"/>
  </clipPath>
</defs>
<polyline clip-path="url(#clip802)" style="stroke:#000000; stroke-linecap:round; stroke-linejoin:round; stroke-width:1.99973; stroke-opacity:0.1; fill:none" points="231.633,1350.16 231.633,47.2376 "/>
<polyline clip-path="url(#clip802)" style="stroke:#000000; stroke-linecap:round; stroke-linejoin:round; stroke-width:1.99973; stroke-opacity:0.1; fill:none" points="579.469,1350.16 579.469,47.2376 "/>
<polyline clip-path="url(#clip802)" style="stroke:#000000; stroke-linecap:round; stroke-linejoin:round; stroke-width:1.99973; stroke-opacity:0.1; fill:none" points="927.306,1350.16 927.306,47.2376 "/>
<polyline clip-path="url(#clip802)" style="stroke:#000000; stroke-linecap:round; stroke-linejoin:round; stroke-width:1.99973; stroke-opacity:0.1; fill:none" points="1275.14,1350.16 1275.14,47.2376 "/>
<polyline clip-path="url(#clip802)" style="stroke:#000000; stroke-linecap:round; stroke-linejoin:round; stroke-width:1.99973; stroke-opacity:0.1; fill:none" points="1622.98,1350.16 1622.98,47.2376 "/>
<polyline clip-path="url(#clip802)" style="stroke:#000000; stroke-linecap:round; stroke-linejoin:round; stroke-width:1.99973; stroke-opacity:0.1; fill:none" points="1970.81,1350.16 1970.81,47.2376 "/>
<polyline clip-path="url(#clip802)" style="stroke:#000000; stroke-linecap:round; stroke-linejoin:round; stroke-width:1.99973; stroke-opacity:0.1; fill:none" points="2318.65,1350.16 2318.65,47.2376 "/>
<polyline clip-path="url(#clip800)" style="stroke:#000000; stroke-linecap:round; stroke-linejoin:round; stroke-width:3.99945; stroke-opacity:1; fill:none" points="169.299,1350.16 2371.76,1350.16 "/>
<polyline clip-path="url(#clip800)" style="stroke:#000000; stroke-linecap:round; stroke-linejoin:round; stroke-width:3.99945; stroke-opacity:1; fill:none" points="231.633,1350.16 231.633,1331.27 "/>
<polyline clip-path="url(#clip800)" style="stroke:#000000; stroke-linecap:round; stroke-linejoin:round; stroke-width:3.99945; stroke-opacity:1; fill:none" points="579.469,1350.16 579.469,1331.27 "/>
<polyline clip-path="url(#clip800)" style="stroke:#000000; stroke-linecap:round; stroke-linejoin:round; stroke-width:3.99945; stroke-opacity:1; fill:none" points="927.306,1350.16 927.306,1331.27 "/>
<polyline clip-path="url(#clip800)" style="stroke:#000000; stroke-linecap:round; stroke-linejoin:round; stroke-width:3.99945; stroke-opacity:1; fill:none" points="1275.14,1350.16 1275.14,1331.27 "/>
<polyline clip-path="url(#clip800)" style="stroke:#000000; stroke-linecap:round; stroke-linejoin:round; stroke-width:3.99945; stroke-opacity:1; fill:none" points="1622.98,1350.16 1622.98,1331.27 "/>
<polyline clip-path="url(#clip800)" style="stroke:#000000; stroke-linecap:round; stroke-linejoin:round; stroke-width:3.99945; stroke-opacity:1; fill:none" points="1970.81,1350.16 1970.81,1331.27 "/>
<polyline clip-path="url(#clip800)" style="stroke:#000000; stroke-linecap:round; stroke-linejoin:round; stroke-width:3.99945; stroke-opacity:1; fill:none" points="2318.65,1350.16 2318.65,1331.27 "/>
<path clip-path="url(#clip800)" d="M209.019 1381.23 Q205.409 1381.23 203.58 1384.79 Q201.775 1388.34 201.775 1395.46 Q201.775 1402.57 203.58 1406.13 Q205.409 1409.68 209.019 1409.68 Q212.653 1409.68 214.459 1406.13 Q216.287 1402.57 216.287 1395.46 Q216.287 1388.34 214.459 1384.79 Q212.653 1381.23 209.019 1381.23 M209.019 1377.53 Q214.829 1377.53 217.884 1382.13 Q220.963 1386.72 220.963 1395.46 Q220.963 1404.19 217.884 1408.8 Q214.829 1413.38 209.019 1413.38 Q203.21 1413.38 200.131 1408.8 Q197.076 1404.19 197.076 1395.46 Q197.076 1386.72 200.131 1382.13 Q203.21 1377.53 209.019 1377.53 Z" fill="#000000" fill-rule="evenodd" fill-opacity="1" /><path clip-path="url(#clip800)" d="M229.18 1406.83 L234.063 1406.83 L234.063 1412.71 L229.18 1412.71 L229.18 1406.83 Z" fill="#000000" fill-rule="evenodd" fill-opacity="1" /><path clip-path="url(#clip800)" d="M254.247 1381.23 Q250.636 1381.23 248.808 1384.79 Q247.002 1388.34 247.002 1395.46 Q247.002 1402.57 248.808 1406.13 Q250.636 1409.68 254.247 1409.68 Q257.881 1409.68 259.686 1406.13 Q261.515 1402.57 261.515 1395.46 Q261.515 1388.34 259.686 1384.79 Q257.881 1381.23 254.247 1381.23 M254.247 1377.53 Q260.057 1377.53 263.112 1382.13 Q266.19 1386.72 266.19 1395.46 Q266.19 1404.19 263.112 1408.8 Q260.057 1413.38 254.247 1413.38 Q248.437 1413.38 245.359 1408.8 Q242.303 1404.19 242.303 1395.46 Q242.303 1386.72 245.359 1382.13 Q248.437 1377.53 254.247 1377.53 Z" fill="#000000" fill-rule="evenodd" fill-opacity="1" /><path clip-path="url(#clip800)" d="M557.469 1381.23 Q553.858 1381.23 552.03 1384.79 Q550.224 1388.34 550.224 1395.46 Q550.224 1402.57 552.03 1406.13 Q553.858 1409.68 557.469 1409.68 Q561.103 1409.68 562.908 1406.13 Q564.737 1402.57 564.737 1395.46 Q564.737 1388.34 562.908 1384.79 Q561.103 1381.23 557.469 1381.23 M557.469 1377.53 Q563.279 1377.53 566.334 1382.13 Q569.412 1386.72 569.412 1395.46 Q569.412 1404.19 566.334 1408.8 Q563.279 1413.38 557.469 1413.38 Q551.659 1413.38 548.581 1408.8 Q545.526 1404.19 545.526 1395.46 Q545.526 1386.72 548.581 1382.13 Q551.659 1377.53 557.469 1377.53 Z" fill="#000000" fill-rule="evenodd" fill-opacity="1" /><path clip-path="url(#clip800)" d="M577.629 1406.83 L582.513 1406.83 L582.513 1412.71 L577.629 1412.71 L577.629 1406.83 Z" fill="#000000" fill-rule="evenodd" fill-opacity="1" /><path clip-path="url(#clip800)" d="M593.507 1408.77 L601.146 1408.77 L601.146 1382.41 L592.836 1384.08 L592.836 1379.82 L601.099 1378.15 L605.775 1378.15 L605.775 1408.77 L613.413 1408.77 L613.413 1412.71 L593.507 1412.71 L593.507 1408.77 Z" fill="#000000" fill-rule="evenodd" fill-opacity="1" /><path clip-path="url(#clip800)" d="M905.49 1381.23 Q901.88 1381.23 900.051 1384.79 Q898.246 1388.34 898.246 1395.46 Q898.246 1402.57 900.051 1406.13 Q901.88 1409.68 905.49 1409.68 Q909.124 1409.68 910.93 1406.13 Q912.758 1402.57 912.758 1395.46 Q912.758 1388.34 910.93 1384.79 Q909.124 1381.23 905.49 1381.23 M905.49 1377.53 Q911.3 1377.53 914.355 1382.13 Q917.434 1386.72 917.434 1395.46 Q917.434 1404.19 914.355 1408.8 Q911.3 1413.38 905.49 1413.38 Q899.681 1413.38 896.602 1408.8 Q893.547 1404.19 893.547 1395.46 Q893.547 1386.72 896.602 1382.13 Q899.681 1377.53 905.49 1377.53 Z" fill="#000000" fill-rule="evenodd" fill-opacity="1" /><path clip-path="url(#clip800)" d="M925.651 1406.83 L930.534 1406.83 L930.534 1412.71 L925.651 1412.71 L925.651 1406.83 Z" fill="#000000" fill-rule="evenodd" fill-opacity="1" /><path clip-path="url(#clip800)" d="M944.746 1408.77 L961.064 1408.77 L961.064 1412.71 L939.122 1412.71 L939.122 1408.77 Q941.783 1406.02 946.366 1401.39 Q950.972 1396.74 952.153 1395.39 Q954.398 1392.87 955.278 1391.14 Q956.18 1389.38 956.18 1387.69 Q956.18 1384.93 954.236 1383.2 Q952.315 1381.46 949.213 1381.46 Q947.014 1381.46 944.561 1382.23 Q942.131 1382.99 939.353 1384.54 L939.353 1379.82 Q942.177 1378.68 944.63 1378.11 Q947.084 1377.53 949.121 1377.53 Q954.491 1377.53 957.685 1380.21 Q960.879 1382.9 960.879 1387.39 Q960.879 1389.52 960.069 1391.44 Q959.282 1393.34 957.176 1395.93 Q956.597 1396.6 953.495 1399.82 Q950.394 1403.01 944.746 1408.77 Z" fill="#000000" fill-rule="evenodd" fill-opacity="1" /><path clip-path="url(#clip800)" d="M1252.85 1381.23 Q1249.24 1381.23 1247.41 1384.79 Q1245.61 1388.34 1245.61 1395.46 Q1245.61 1402.57 1247.41 1406.13 Q1249.24 1409.68 1252.85 1409.68 Q1256.49 1409.68 1258.29 1406.13 Q1260.12 1402.57 1260.12 1395.46 Q1260.12 1388.34 1258.29 1384.79 Q1256.49 1381.23 1252.85 1381.23 M1252.85 1377.53 Q1258.66 1377.53 1261.72 1382.13 Q1264.8 1386.72 1264.8 1395.46 Q1264.8 1404.19 1261.72 1408.8 Q1258.66 1413.38 1252.85 1413.38 Q1247.04 1413.38 1243.96 1408.8 Q1240.91 1404.19 1240.91 1395.46 Q1240.91 1386.72 1243.96 1382.13 Q1247.04 1377.53 1252.85 1377.53 Z" fill="#000000" fill-rule="evenodd" fill-opacity="1" /><path clip-path="url(#clip800)" d="M1273.01 1406.83 L1277.9 1406.83 L1277.9 1412.71 L1273.01 1412.71 L1273.01 1406.83 Z" fill="#000000" fill-rule="evenodd" fill-opacity="1" /><path clip-path="url(#clip800)" d="M1302.25 1394.08 Q1305.6 1394.79 1307.48 1397.06 Q1309.37 1399.33 1309.37 1402.66 Q1309.37 1407.78 1305.86 1410.58 Q1302.34 1413.38 1295.86 1413.38 Q1293.68 1413.38 1291.37 1412.94 Q1289.08 1412.52 1286.62 1411.67 L1286.62 1407.15 Q1288.57 1408.29 1290.88 1408.87 Q1293.2 1409.44 1295.72 1409.44 Q1300.12 1409.44 1302.41 1407.71 Q1304.72 1405.97 1304.72 1402.66 Q1304.72 1399.61 1302.57 1397.89 Q1300.44 1396.16 1296.62 1396.16 L1292.59 1396.16 L1292.59 1392.32 L1296.81 1392.32 Q1300.26 1392.32 1302.08 1390.95 Q1303.91 1389.56 1303.91 1386.97 Q1303.91 1384.31 1302.01 1382.9 Q1300.14 1381.46 1296.62 1381.46 Q1294.7 1381.46 1292.5 1381.88 Q1290.3 1382.29 1287.66 1383.17 L1287.66 1379.01 Q1290.33 1378.27 1292.64 1377.9 Q1294.98 1377.53 1297.04 1377.53 Q1302.36 1377.53 1305.46 1379.96 Q1308.56 1382.36 1308.56 1386.48 Q1308.56 1389.35 1306.92 1391.34 Q1305.28 1393.31 1302.25 1394.08 Z" fill="#000000" fill-rule="evenodd" fill-opacity="1" /><path clip-path="url(#clip800)" d="M1600.12 1381.23 Q1596.51 1381.23 1594.68 1384.79 Q1592.88 1388.34 1592.88 1395.46 Q1592.88 1402.57 1594.68 1406.13 Q1596.51 1409.68 1600.12 1409.68 Q1603.76 1409.68 1605.56 1406.13 Q1607.39 1402.57 1607.39 1395.46 Q1607.39 1388.34 1605.56 1384.79 Q1603.76 1381.23 1600.12 1381.23 M1600.12 1377.53 Q1605.93 1377.53 1608.99 1382.13 Q1612.06 1386.72 1612.06 1395.46 Q1612.06 1404.19 1608.99 1408.8 Q1605.93 1413.38 1600.12 1413.38 Q1594.31 1413.38 1591.23 1408.8 Q1588.18 1404.19 1588.18 1395.46 Q1588.18 1386.72 1591.23 1382.13 Q1594.31 1377.53 1600.12 1377.53 Z" fill="#000000" fill-rule="evenodd" fill-opacity="1" /><path clip-path="url(#clip800)" d="M1620.28 1406.83 L1625.17 1406.83 L1625.17 1412.71 L1620.28 1412.71 L1620.28 1406.83 Z" fill="#000000" fill-rule="evenodd" fill-opacity="1" /><path clip-path="url(#clip800)" d="M1648.2 1382.23 L1636.39 1400.67 L1648.2 1400.67 L1648.2 1382.23 M1646.97 1378.15 L1652.85 1378.15 L1652.85 1400.67 L1657.78 1400.67 L1657.78 1404.56 L1652.85 1404.56 L1652.85 1412.71 L1648.2 1412.71 L1648.2 1404.56 L1632.6 1404.56 L1632.6 1400.05 L1646.97 1378.15 Z" fill="#000000" fill-rule="evenodd" fill-opacity="1" /><path clip-path="url(#clip800)" d="M1948.7 1381.23 Q1945.09 1381.23 1943.26 1384.79 Q1941.45 1388.34 1941.45 1395.46 Q1941.45 1402.57 1943.26 1406.13 Q1945.09 1409.68 1948.7 1409.68 Q1952.33 1409.68 1954.14 1406.13 Q1955.97 1402.57 1955.97 1395.46 Q1955.97 1388.34 1954.14 1384.79 Q1952.33 1381.23 1948.7 1381.23 M1948.7 1377.53 Q1954.51 1377.53 1957.56 1382.13 Q1960.64 1386.72 1960.64 1395.46 Q1960.64 1404.19 1957.56 1408.8 Q1954.51 1413.38 1948.7 1413.38 Q1942.89 1413.38 1939.81 1408.8 Q1936.75 1404.19 1936.75 1395.46 Q1936.75 1386.72 1939.81 1382.13 Q1942.89 1377.53 1948.7 1377.53 Z" fill="#000000" fill-rule="evenodd" fill-opacity="1" /><path clip-path="url(#clip800)" d="M1968.86 1406.83 L1973.74 1406.83 L1973.74 1412.71 L1968.86 1412.71 L1968.86 1406.83 Z" fill="#000000" fill-rule="evenodd" fill-opacity="1" /><path clip-path="url(#clip800)" d="M1983.97 1378.15 L2002.33 1378.15 L2002.33 1382.09 L1988.25 1382.09 L1988.25 1390.56 Q1989.27 1390.21 1990.29 1390.05 Q1991.31 1389.86 1992.33 1389.86 Q1998.11 1389.86 2001.49 1393.03 Q2004.87 1396.2 2004.87 1401.62 Q2004.87 1407.2 2001.4 1410.3 Q1997.93 1413.38 1991.61 1413.38 Q1989.44 1413.38 1987.17 1413.01 Q1984.92 1412.64 1982.51 1411.9 L1982.51 1407.2 Q1984.6 1408.33 1986.82 1408.89 Q1989.04 1409.44 1991.52 1409.44 Q1995.52 1409.44 1997.86 1407.34 Q2000.2 1405.23 2000.2 1401.62 Q2000.2 1398.01 1997.86 1395.9 Q1995.52 1393.8 1991.52 1393.8 Q1989.64 1393.8 1987.77 1394.21 Q1985.92 1394.63 1983.97 1395.51 L1983.97 1378.15 Z" fill="#000000" fill-rule="evenodd" fill-opacity="1" /><path clip-path="url(#clip800)" d="M2295.96 1381.23 Q2292.34 1381.23 2290.52 1384.79 Q2288.71 1388.34 2288.71 1395.46 Q2288.71 1402.57 2290.52 1406.13 Q2292.34 1409.68 2295.96 1409.68 Q2299.59 1409.68 2301.39 1406.13 Q2303.22 1402.57 2303.22 1395.46 Q2303.22 1388.34 2301.39 1384.79 Q2299.59 1381.23 2295.96 1381.23 M2295.96 1377.53 Q2301.77 1377.53 2304.82 1382.13 Q2307.9 1386.72 2307.9 1395.46 Q2307.9 1404.19 2304.82 1408.8 Q2301.77 1413.38 2295.96 1413.38 Q2290.15 1413.38 2287.07 1408.8 Q2284.01 1404.19 2284.01 1395.46 Q2284.01 1386.72 2287.07 1382.13 Q2290.15 1377.53 2295.96 1377.53 Z" fill="#000000" fill-rule="evenodd" fill-opacity="1" /><path clip-path="url(#clip800)" d="M2316.12 1406.83 L2321 1406.83 L2321 1412.71 L2316.12 1412.71 L2316.12 1406.83 Z" fill="#000000" fill-rule="evenodd" fill-opacity="1" /><path clip-path="url(#clip800)" d="M2341.76 1393.57 Q2338.61 1393.57 2336.76 1395.72 Q2334.93 1397.87 2334.93 1401.62 Q2334.93 1405.35 2336.76 1407.52 Q2338.61 1409.68 2341.76 1409.68 Q2344.91 1409.68 2346.74 1407.52 Q2348.59 1405.35 2348.59 1401.62 Q2348.59 1397.87 2346.74 1395.72 Q2344.91 1393.57 2341.76 1393.57 M2351.04 1378.92 L2351.04 1383.17 Q2349.28 1382.34 2347.48 1381.9 Q2345.7 1381.46 2343.94 1381.46 Q2339.31 1381.46 2336.85 1384.59 Q2334.42 1387.71 2334.08 1394.03 Q2335.44 1392.02 2337.5 1390.95 Q2339.56 1389.86 2342.04 1389.86 Q2347.25 1389.86 2350.26 1393.03 Q2353.29 1396.18 2353.29 1401.62 Q2353.29 1406.94 2350.14 1410.16 Q2346.99 1413.38 2341.76 1413.38 Q2335.77 1413.38 2332.6 1408.8 Q2329.42 1404.19 2329.42 1395.46 Q2329.42 1387.27 2333.31 1382.41 Q2337.2 1377.53 2343.75 1377.53 Q2345.51 1377.53 2347.29 1377.87 Q2349.1 1378.22 2351.04 1378.92 Z" fill="#000000" fill-rule="evenodd" fill-opacity="1" /><polyline clip-path="url(#clip802)" style="stroke:#000000; stroke-linecap:round; stroke-linejoin:round; stroke-width:1.99973; stroke-opacity:0.1; fill:none" points="169.299,1313.29 2371.76,1313.29 "/>
<polyline clip-path="url(#clip802)" style="stroke:#000000; stroke-linecap:round; stroke-linejoin:round; stroke-width:1.99973; stroke-opacity:0.1; fill:none" points="169.299,1002.89 2371.76,1002.89 "/>
<polyline clip-path="url(#clip802)" style="stroke:#000000; stroke-linecap:round; stroke-linejoin:round; stroke-width:1.99973; stroke-opacity:0.1; fill:none" points="169.299,692.492 2371.76,692.492 "/>
<polyline clip-path="url(#clip802)" style="stroke:#000000; stroke-linecap:round; stroke-linejoin:round; stroke-width:1.99973; stroke-opacity:0.1; fill:none" points="169.299,382.094 2371.76,382.094 "/>
<polyline clip-path="url(#clip802)" style="stroke:#000000; stroke-linecap:round; stroke-linejoin:round; stroke-width:1.99973; stroke-opacity:0.1; fill:none" points="169.299,71.6969 2371.76,71.6969 "/>
<polyline clip-path="url(#clip800)" style="stroke:#000000; stroke-linecap:round; stroke-linejoin:round; stroke-width:3.99945; stroke-opacity:1; fill:none" points="169.299,1350.16 169.299,47.2376 "/>
<polyline clip-path="url(#clip800)" style="stroke:#000000; stroke-linecap:round; stroke-linejoin:round; stroke-width:3.99945; stroke-opacity:1; fill:none" points="169.299,1313.29 188.195,1313.29 "/>
<polyline clip-path="url(#clip800)" style="stroke:#000000; stroke-linecap:round; stroke-linejoin:round; stroke-width:3.99945; stroke-opacity:1; fill:none" points="169.299,1002.89 188.195,1002.89 "/>
<polyline clip-path="url(#clip800)" style="stroke:#000000; stroke-linecap:round; stroke-linejoin:round; stroke-width:3.99945; stroke-opacity:1; fill:none" points="169.299,692.492 188.195,692.492 "/>
<polyline clip-path="url(#clip800)" style="stroke:#000000; stroke-linecap:round; stroke-linejoin:round; stroke-width:3.99945; stroke-opacity:1; fill:none" points="169.299,382.094 188.195,382.094 "/>
<polyline clip-path="url(#clip800)" style="stroke:#000000; stroke-linecap:round; stroke-linejoin:round; stroke-width:3.99945; stroke-opacity:1; fill:none" points="169.299,71.6969 188.195,71.6969 "/>
<path clip-path="url(#clip800)" d="M121.071 1299.09 Q117.46 1299.09 115.632 1302.65 Q113.826 1306.19 113.826 1313.32 Q113.826 1320.43 115.632 1323.99 Q117.46 1327.53 121.071 1327.53 Q124.705 1327.53 126.51 1323.99 Q128.339 1320.43 128.339 1313.32 Q128.339 1306.19 126.51 1302.65 Q124.705 1299.09 121.071 1299.09 M121.071 1295.38 Q126.881 1295.38 129.936 1299.99 Q133.014 1304.57 133.014 1313.32 Q133.014 1322.05 129.936 1326.65 Q126.881 1331.24 121.071 1331.24 Q115.261 1331.24 112.183 1326.65 Q109.128 1322.05 109.128 1313.32 Q109.128 1304.57 112.183 1299.99 Q115.261 1295.38 121.071 1295.38 Z" fill="#000000" fill-rule="evenodd" fill-opacity="1" /><path clip-path="url(#clip800)" d="M85.9351 1016.23 L102.253 1016.23 L102.253 1020.17 L80.3106 1020.17 L80.3106 1016.23 Q82.9724 1013.48 87.5554 1008.85 Q92.1614 1004.2 93.3419 1002.85 Q95.5871 1000.33 96.4666 998.596 Q97.3693 996.837 97.3693 995.148 Q97.3693 992.393 95.425 990.657 Q93.5039 988.922 90.4023 988.922 Q88.2034 988.922 85.75 989.685 Q83.3196 990.449 80.5421 992 L80.5421 987.278 Q83.3659 986.144 85.8194 985.566 Q88.2729 984.987 90.3097 984.987 Q95.6796 984.987 98.8738 987.672 Q102.068 990.357 102.068 994.847 Q102.068 996.976 101.258 998.897 Q100.471 1000.79 98.3646 1003.39 Q97.7859 1004.06 94.6844 1007.28 Q91.5828 1010.47 85.9351 1016.23 Z" fill="#000000" fill-rule="evenodd" fill-opacity="1" /><path clip-path="url(#clip800)" d="M112.113 985.612 L130.468 985.612 L130.468 989.546 L116.395 989.546 L116.395 998.017 Q117.414 997.67 118.432 997.508 Q119.451 997.323 120.469 997.323 Q126.256 997.323 129.635 1000.49 Q133.014 1003.66 133.014 1009.08 Q133.014 1014.66 129.542 1017.76 Q126.07 1020.84 119.752 1020.84 Q117.576 1020.84 115.308 1020.47 Q113.062 1020.1 110.655 1019.36 L110.655 1014.66 Q112.738 1015.79 114.96 1016.35 Q117.182 1016.9 119.659 1016.9 Q123.663 1016.9 126.001 1014.8 Q128.339 1012.69 128.339 1009.08 Q128.339 1005.47 126.001 1003.36 Q123.663 1001.26 119.659 1001.26 Q117.784 1001.26 115.909 1001.67 Q114.058 1002.09 112.113 1002.97 L112.113 985.612 Z" fill="#000000" fill-rule="evenodd" fill-opacity="1" /><path clip-path="url(#clip800)" d="M80.9587 675.214 L99.3136 675.214 L99.3136 679.149 L85.2407 679.149 L85.2407 687.62 Q86.2592 687.273 87.2776 687.111 Q88.296 686.926 89.3145 686.926 Q95.101 686.926 98.4803 690.096 Q101.86 693.267 101.86 698.683 Q101.86 704.261 98.3877 707.363 Q94.9158 710.441 88.5969 710.441 Q86.4212 710.441 84.1529 710.07 Q81.9077 709.7 79.5005 708.96 L79.5005 704.261 Q81.5837 705.395 83.8057 705.951 Q86.0277 706.506 88.5043 706.506 Q92.5086 706.506 94.8464 704.4 Q97.1841 702.294 97.1841 698.683 Q97.1841 695.073 94.8464 692.966 Q92.5086 690.86 88.5043 690.86 Q86.6295 690.86 84.7547 691.277 Q82.903 691.693 80.9587 692.573 L80.9587 675.214 Z" fill="#000000" fill-rule="evenodd" fill-opacity="1" /><path clip-path="url(#clip800)" d="M121.071 678.293 Q117.46 678.293 115.632 681.857 Q113.826 685.398 113.826 692.527 Q113.826 699.632 115.632 703.196 Q117.46 706.738 121.071 706.738 Q124.705 706.738 126.51 703.196 Q128.339 699.632 128.339 692.527 Q128.339 685.398 126.51 681.857 Q124.705 678.293 121.071 678.293 M121.071 674.589 Q126.881 674.589 129.936 679.195 Q133.014 683.778 133.014 692.527 Q133.014 701.252 129.936 705.858 Q126.881 710.441 121.071 710.441 Q115.261 710.441 112.183 705.858 Q109.128 701.252 109.128 692.527 Q109.128 683.778 112.183 679.195 Q115.261 674.589 121.071 674.589 Z" fill="#000000" fill-rule="evenodd" fill-opacity="1" /><path clip-path="url(#clip800)" d="M80.7273 364.817 L102.948 364.817 L102.948 366.807 L90.4023 399.372 L85.5185 399.372 L97.323 368.751 L80.7273 368.751 L80.7273 364.817 Z" fill="#000000" fill-rule="evenodd" fill-opacity="1" /><path clip-path="url(#clip800)" d="M112.113 364.817 L130.468 364.817 L130.468 368.751 L116.395 368.751 L116.395 377.222 Q117.414 376.875 118.432 376.713 Q119.451 376.528 120.469 376.528 Q126.256 376.528 129.635 379.699 Q133.014 382.87 133.014 388.286 Q133.014 393.864 129.542 396.965 Q126.07 400.043 119.752 400.043 Q117.576 400.043 115.308 399.673 Q113.062 399.303 110.655 398.562 L110.655 393.864 Q112.738 394.998 114.96 395.553 Q117.182 396.109 119.659 396.109 Q123.663 396.109 126.001 394.002 Q128.339 391.896 128.339 388.286 Q128.339 384.675 126.001 382.569 Q123.663 380.463 119.659 380.463 Q117.784 380.463 115.909 380.879 Q114.058 381.296 112.113 382.175 L112.113 364.817 Z" fill="#000000" fill-rule="evenodd" fill-opacity="1" /><path clip-path="url(#clip800)" d="M51.5632 85.04 L59.2014 85.04 L59.2014 58.678 L50.8919 60.3444 L50.8919 56.0857 L59.1551 54.4193 L63.8306 54.4193 L63.8306 85.04 L71.4688 85.04 L71.4688 88.9746 L51.5632 88.9746 L51.5632 85.04 Z" fill="#000000" fill-rule="evenodd" fill-opacity="1" /><path clip-path="url(#clip800)" d="M90.9115 57.4976 Q87.3007 57.4976 85.4722 61.0619 Q83.6668 64.603 83.6668 71.7317 Q83.6668 78.8371 85.4722 82.4014 Q87.3007 85.9426 90.9115 85.9426 Q94.5455 85.9426 96.3509 82.4014 Q98.1794 78.8371 98.1794 71.7317 Q98.1794 64.603 96.3509 61.0619 Q94.5455 57.4976 90.9115 57.4976 M90.9115 53.7944 Q96.7212 53.7944 99.7765 58.4002 Q102.855 62.9829 102.855 71.7317 Q102.855 80.4573 99.7765 85.0631 Q96.7212 89.6458 90.9115 89.6458 Q85.1019 89.6458 82.0234 85.0631 Q78.9682 80.4573 78.9682 71.7317 Q78.9682 62.9829 82.0234 58.4002 Q85.1019 53.7944 90.9115 53.7944 Z" fill="#000000" fill-rule="evenodd" fill-opacity="1" /><path clip-path="url(#clip800)" d="M121.071 57.4976 Q117.46 57.4976 115.632 61.0619 Q113.826 64.603 113.826 71.7317 Q113.826 78.8371 115.632 82.4014 Q117.46 85.9426 121.071 85.9426 Q124.705 85.9426 126.51 82.4014 Q128.339 78.8371 128.339 71.7317 Q128.339 64.603 126.51 61.0619 Q124.705 57.4976 121.071 57.4976 M121.071 53.7944 Q126.881 53.7944 129.936 58.4002 Q133.014 62.9829 133.014 71.7317 Q133.014 80.4573 129.936 85.0631 Q126.881 89.6458 121.071 89.6458 Q115.261 89.6458 112.183 85.0631 Q109.128 80.4573 109.128 71.7317 Q109.128 62.9829 112.183 58.4002 Q115.261 53.7944 121.071 53.7944 Z" fill="#000000" fill-rule="evenodd" fill-opacity="1" /><polyline clip-path="url(#clip802)" style="stroke:#009af9; stroke-linecap:round; stroke-linejoin:round; stroke-width:3.99945; stroke-opacity:1; fill:none" points="231.633,84.1128 2309.43,84.1128 "/>
<polyline clip-path="url(#clip802)" style="stroke:#e26f46; stroke-linecap:round; stroke-linejoin:round; stroke-width:3.99945; stroke-opacity:1; fill:none" points="231.633,1300.87 2309.43,1313.29 "/>
<polyline clip-path="url(#clip802)" style="stroke:#3da44d; stroke-linecap:round; stroke-linejoin:round; stroke-width:3.99945; stroke-opacity:1; fill:none" points="231.633,1313.29 2309.43,1300.87 "/>
<path clip-path="url(#clip800)" d="M2025.09 298 L2298.34 298 L2298.34 90.6684 L2025.09 90.6684  Z" fill="#ffffff" fill-rule="evenodd" fill-opacity="1"/>
<polyline clip-path="url(#clip800)" style="stroke:#000000; stroke-linecap:round; stroke-linejoin:round; stroke-width:3.99945; stroke-opacity:1; fill:none" points="2025.09,298 2298.34,298 2298.34,90.6684 2025.09,90.6684 2025.09,298 "/>
<polyline clip-path="url(#clip800)" style="stroke:#009af9; stroke-linecap:round; stroke-linejoin:round; stroke-width:3.99945; stroke-opacity:1; fill:none" points="2049.57,142.501 2196.4,142.501 "/>
<path clip-path="url(#clip800)" d="M2234.71 162.186 Q2232.9 166.815 2231.19 168.227 Q2229.48 169.639 2226.61 169.639 L2223.21 169.639 L2223.21 166.074 L2225.71 166.074 Q2227.46 166.074 2228.44 165.241 Q2229.41 164.408 2230.59 161.307 L2231.35 159.362 L2220.87 133.857 L2225.38 133.857 L2233.48 154.132 L2241.58 133.857 L2246.1 133.857 L2234.71 162.186 Z" fill="#000000" fill-rule="evenodd" fill-opacity="1" /><path clip-path="url(#clip800)" d="M2253.39 155.844 L2261.03 155.844 L2261.03 129.482 L2252.72 131.149 L2252.72 126.89 L2260.98 125.224 L2265.66 125.224 L2265.66 155.844 L2273.29 155.844 L2273.29 159.779 L2253.39 159.779 L2253.39 155.844 Z" fill="#000000" fill-rule="evenodd" fill-opacity="1" /><polyline clip-path="url(#clip800)" style="stroke:#e26f46; stroke-linecap:round; stroke-linejoin:round; stroke-width:3.99945; stroke-opacity:1; fill:none" points="2049.57,194.334 2196.4,194.334 "/>
<path clip-path="url(#clip800)" d="M2234.71 214.019 Q2232.9 218.648 2231.19 220.06 Q2229.48 221.472 2226.61 221.472 L2223.21 221.472 L2223.21 217.907 L2225.71 217.907 Q2227.46 217.907 2228.44 217.074 Q2229.41 216.241 2230.59 213.139 L2231.35 211.195 L2220.87 185.69 L2225.38 185.69 L2233.48 205.965 L2241.58 185.69 L2246.1 185.69 L2234.71 214.019 Z" fill="#000000" fill-rule="evenodd" fill-opacity="1" /><path clip-path="url(#clip800)" d="M2256.61 207.677 L2272.92 207.677 L2272.92 211.612 L2250.98 211.612 L2250.98 207.677 Q2253.64 204.923 2258.23 200.294 Q2262.83 195.642 2264.01 194.3 Q2266.26 191.777 2267.14 190.041 Q2268.04 188.282 2268.04 186.592 Q2268.04 183.838 2266.1 182.102 Q2264.17 180.366 2261.07 180.366 Q2258.87 180.366 2256.42 181.13 Q2253.99 181.894 2251.21 183.445 L2251.21 178.723 Q2254.04 177.589 2256.49 177.01 Q2258.94 176.432 2260.98 176.432 Q2266.35 176.432 2269.54 179.116 Q2272.74 181.801 2272.74 186.291 Q2272.74 188.421 2271.93 190.342 Q2271.14 192.24 2269.04 194.832 Q2268.46 195.503 2265.35 198.72 Q2262.25 201.914 2256.61 207.677 Z" fill="#000000" fill-rule="evenodd" fill-opacity="1" /><polyline clip-path="url(#clip800)" style="stroke:#3da44d; stroke-linecap:round; stroke-linejoin:round; stroke-width:3.99945; stroke-opacity:1; fill:none" points="2049.57,246.167 2196.4,246.167 "/>
<path clip-path="url(#clip800)" d="M2234.71 265.852 Q2232.9 270.481 2231.19 271.893 Q2229.48 273.304 2226.61 273.304 L2223.21 273.304 L2223.21 269.74 L2225.71 269.74 Q2227.46 269.74 2228.44 268.907 Q2229.41 268.074 2230.59 264.972 L2231.35 263.028 L2220.87 237.523 L2225.38 237.523 L2233.48 257.797 L2241.58 237.523 L2246.1 237.523 L2234.71 265.852 Z" fill="#000000" fill-rule="evenodd" fill-opacity="1" /><path clip-path="url(#clip800)" d="M2266.74 244.813 Q2270.1 245.531 2271.97 247.799 Q2273.87 250.067 2273.87 253.4 Q2273.87 258.515 2270.35 261.315 Q2266.84 264.116 2260.36 264.116 Q2258.18 264.116 2255.87 263.676 Q2253.57 263.26 2251.12 262.403 L2251.12 257.89 Q2253.06 259.024 2255.38 259.603 Q2257.69 260.181 2260.22 260.181 Q2264.61 260.181 2266.91 258.445 Q2269.22 256.71 2269.22 253.4 Q2269.22 250.345 2267.07 248.632 Q2264.94 246.896 2261.12 246.896 L2257.09 246.896 L2257.09 243.054 L2261.3 243.054 Q2264.75 243.054 2266.58 241.689 Q2268.41 240.3 2268.41 237.708 Q2268.41 235.046 2266.51 233.634 Q2264.64 232.199 2261.12 232.199 Q2259.2 232.199 2257 232.616 Q2254.8 233.032 2252.16 233.912 L2252.16 229.746 Q2254.82 229.005 2257.14 228.635 Q2259.48 228.265 2261.54 228.265 Q2266.86 228.265 2269.96 230.695 Q2273.06 233.102 2273.06 237.222 Q2273.06 240.092 2271.42 242.082 Q2269.78 244.049 2266.74 244.813 Z" fill="#000000" fill-rule="evenodd" fill-opacity="1" /></svg>
