<svg width="2164" height="615" xmlns="http://www.w3.org/2000/svg" xmlns:xlink="http://www.w3.org/1999/xlink" xml:space="preserve" overflow="hidden"><defs><clipPath id="clip0"><rect x="1118" y="801" width="2164" height="615"/></clipPath></defs><g clip-path="url(#clip0)" transform="translate(-1118 -801)"><text font-family="Calibri Light,Calibri Light_MSFontService,sans-serif" font-weight="300" font-size="275" transform="matrix(1 0 0 1 1283.05 1177)">21303134811</text><path d="M2817 978C2817 960.051 2827.19 945.5 2839.75 945.5L2907.75 945.5C2920.31 945.5 2930.5 930.949 2930.5 913 2930.5 930.949 2940.69 945.5 2953.25 945.5L3021.25 945.5C3033.81 945.5 3044 960.051 3044 978" stroke="#4472C4" stroke-width="2.29167" stroke-miterlimit="8" fill="none" fill-rule="evenodd"/><text font-family="Arial,Arial_MSFontService,sans-serif" font-weight="400" font-size="83" transform="matrix(1 0 0 1 2866.58 906)">SA1</text><path d="M2161 978C2161 960.051 2171.19 945.5 2183.75 945.5L2419.25 945.5C2431.81 945.5 2442 930.949 2442 913 2442 930.949 2452.19 945.5 2464.75 945.5L2700.25 945.5C2712.81 945.5 2723 960.051 2723 978" stroke="#4472C4" stroke-width="2.29167" stroke-miterlimit="8" fill="none" fill-rule="evenodd"/><text font-family="Arial,Arial_MSFontService,sans-serif" font-weight="400" font-size="83" transform="matrix(1 0 0 1 2364.19 906)">SA2</text><path d="M1807 978C1807 960.051 1817.19 945.5 1829.75 945.5L1897.75 945.5C1910.31 945.5 1920.5 930.949 1920.5 913 1920.5 930.949 1930.69 945.5 1943.25 945.5L2011.25 945.5C2023.81 945.5 2034 960.051 2034 978" stroke="#4472C4" stroke-width="2.29167" stroke-miterlimit="8" fill="none" fill-rule="evenodd"/><text font-family="Arial,Arial_MSFontService,sans-serif" font-weight="400" font-size="83" transform="matrix(1 0 0 1 1856.26 906)">SA3</text><path d="M1485 978C1485 960.051 1495.19 945.5 1507.75 945.5L1576.25 945.5C1588.81 945.5 1599 930.949 1599 913 1599 930.949 1609.19 945.5 1621.75 945.5L1690.25 945.5C1702.81 945.5 1713 960.051 1713 978" stroke="#4472C4" stroke-width="2.29167" stroke-miterlimit="8" fill="none" fill-rule="evenodd"/><text font-family="Arial,Arial_MSFontService,sans-serif" font-weight="400" font-size="83" transform="matrix(1 0 0 1 1534.87 906)">SA4</text><path d="M1286 978C1286 960.051 1296.19 945.5 1308.75 945.5L1325.75 945.5C1338.31 945.5 1348.5 930.949 1348.5 913 1348.5 930.949 1358.69 945.5 1371.25 945.5L1388.25 945.5C1400.81 945.5 1411 960.051 1411 978" stroke="#4472C4" stroke-width="2.29167" stroke-miterlimit="8" fill="none" fill-rule="evenodd"/><text font-family="Arial,Arial_MSFontService,sans-serif" font-weight="400" font-size="83" transform="matrix(1 0 0 1 1284.47 906)">S/T</text></g></svg>