<?xml version="1.0" encoding="utf-8"?>
<svg xmlns="http://www.w3.org/2000/svg" xmlns:xlink="http://www.w3.org/1999/xlink" width="672" height="480" viewBox="0 0 2688 1920">
<defs>
  <clipPath id="clip090">
    <rect x="0" y="0" width="2688" height="1920"/>
  </clipPath>
</defs>
<path clip-path="url(#clip090)" d="M0 1920 L2688 1920 L2688 0 L0 0  Z" fill="#ffffff" fill-rule="evenodd" fill-opacity="1"/>
<defs>
  <clipPath id="clip091">
    <rect x="537" y="0" width="1883" height="1883"/>
  </clipPath>
</defs>
<path clip-path="url(#clip090)" d="M172.001 1800.78 L2640.76 1800.78 L2640.76 47.2441 L172.001 47.2441  Z" fill="#ffffff" fill-rule="evenodd" fill-opacity="1"/>
<defs>
  <clipPath id="clip092">
    <rect x="172" y="47" width="2470" height="1755"/>
  </clipPath>
</defs>
<polyline clip-path="url(#clip092)" style="stroke:#000000; stroke-linecap:round; stroke-linejoin:round; stroke-width:2; stroke-opacity:0.1; fill:none" points="241.872,1800.78 241.872,47.2441 "/>
<polyline clip-path="url(#clip092)" style="stroke:#000000; stroke-linecap:round; stroke-linejoin:round; stroke-width:2; stroke-opacity:0.1; fill:none" points="694.361,1800.78 694.361,47.2441 "/>
<polyline clip-path="url(#clip092)" style="stroke:#000000; stroke-linecap:round; stroke-linejoin:round; stroke-width:2; stroke-opacity:0.1; fill:none" points="1146.85,1800.78 1146.85,47.2441 "/>
<polyline clip-path="url(#clip092)" style="stroke:#000000; stroke-linecap:round; stroke-linejoin:round; stroke-width:2; stroke-opacity:0.1; fill:none" points="1599.34,1800.78 1599.34,47.2441 "/>
<polyline clip-path="url(#clip092)" style="stroke:#000000; stroke-linecap:round; stroke-linejoin:round; stroke-width:2; stroke-opacity:0.1; fill:none" points="2051.83,1800.78 2051.83,47.2441 "/>
<polyline clip-path="url(#clip092)" style="stroke:#000000; stroke-linecap:round; stroke-linejoin:round; stroke-width:2; stroke-opacity:0.1; fill:none" points="2504.32,1800.78 2504.32,47.2441 "/>
<polyline clip-path="url(#clip090)" style="stroke:#000000; stroke-linecap:round; stroke-linejoin:round; stroke-width:4; stroke-opacity:1; fill:none" points="172.001,1800.78 2640.76,1800.78 "/>
<polyline clip-path="url(#clip090)" style="stroke:#000000; stroke-linecap:round; stroke-linejoin:round; stroke-width:4; stroke-opacity:1; fill:none" points="241.872,1800.78 241.872,1781.88 "/>
<polyline clip-path="url(#clip090)" style="stroke:#000000; stroke-linecap:round; stroke-linejoin:round; stroke-width:4; stroke-opacity:1; fill:none" points="694.361,1800.78 694.361,1781.88 "/>
<polyline clip-path="url(#clip090)" style="stroke:#000000; stroke-linecap:round; stroke-linejoin:round; stroke-width:4; stroke-opacity:1; fill:none" points="1146.85,1800.78 1146.85,1781.88 "/>
<polyline clip-path="url(#clip090)" style="stroke:#000000; stroke-linecap:round; stroke-linejoin:round; stroke-width:4; stroke-opacity:1; fill:none" points="1599.34,1800.78 1599.34,1781.88 "/>
<polyline clip-path="url(#clip090)" style="stroke:#000000; stroke-linecap:round; stroke-linejoin:round; stroke-width:4; stroke-opacity:1; fill:none" points="2051.83,1800.78 2051.83,1781.88 "/>
<polyline clip-path="url(#clip090)" style="stroke:#000000; stroke-linecap:round; stroke-linejoin:round; stroke-width:4; stroke-opacity:1; fill:none" points="2504.32,1800.78 2504.32,1781.88 "/>
<path clip-path="url(#clip090)" d="M241.872 1834 Q238.261 1834 236.432 1837.57 Q234.626 1841.11 234.626 1848.24 Q234.626 1855.34 236.432 1858.91 Q238.261 1862.45 241.872 1862.45 Q245.506 1862.45 247.312 1858.91 Q249.14 1855.34 249.14 1848.24 Q249.14 1841.11 247.312 1837.57 Q245.506 1834 241.872 1834 M241.872 1830.3 Q247.682 1830.3 250.737 1834.9 Q253.816 1839.49 253.816 1848.24 Q253.816 1856.96 250.737 1861.57 Q247.682 1866.15 241.872 1866.15 Q236.062 1866.15 232.983 1861.57 Q229.927 1856.96 229.927 1848.24 Q229.927 1839.49 232.983 1834.9 Q236.062 1830.3 241.872 1830.3 Z" fill="#000000" fill-rule="evenodd" fill-opacity="1" /><path clip-path="url(#clip090)" d="M669.048 1861.55 L676.687 1861.55 L676.687 1835.18 L668.377 1836.85 L668.377 1832.59 L676.641 1830.92 L681.317 1830.92 L681.317 1861.55 L688.956 1861.55 L688.956 1865.48 L669.048 1865.48 L669.048 1861.55 Z" fill="#000000" fill-rule="evenodd" fill-opacity="1" /><path clip-path="url(#clip090)" d="M708.4 1834 Q704.789 1834 702.96 1837.57 Q701.155 1841.11 701.155 1848.24 Q701.155 1855.34 702.96 1858.91 Q704.789 1862.45 708.4 1862.45 Q712.034 1862.45 713.84 1858.91 Q715.668 1855.34 715.668 1848.24 Q715.668 1841.11 713.84 1837.57 Q712.034 1834 708.4 1834 M708.4 1830.3 Q714.21 1830.3 717.266 1834.9 Q720.344 1839.49 720.344 1848.24 Q720.344 1856.96 717.266 1861.57 Q714.21 1866.15 708.4 1866.15 Q702.59 1866.15 699.511 1861.57 Q696.455 1856.96 696.455 1848.24 Q696.455 1839.49 699.511 1834.9 Q702.59 1830.3 708.4 1830.3 Z" fill="#000000" fill-rule="evenodd" fill-opacity="1" /><path clip-path="url(#clip090)" d="M1125.62 1861.55 L1141.94 1861.55 L1141.94 1865.48 L1120 1865.48 L1120 1861.55 Q1122.66 1858.79 1127.24 1854.16 Q1131.85 1849.51 1133.03 1848.17 Q1135.28 1845.65 1136.16 1843.91 Q1137.06 1842.15 1137.06 1840.46 Q1137.06 1837.71 1135.11 1835.97 Q1133.19 1834.23 1130.09 1834.23 Q1127.89 1834.23 1125.44 1835 Q1123.01 1835.76 1120.23 1837.31 L1120.23 1832.59 Q1123.05 1831.46 1125.51 1830.88 Q1127.96 1830.3 1130 1830.3 Q1135.37 1830.3 1138.56 1832.98 Q1141.76 1835.67 1141.76 1840.16 Q1141.76 1842.29 1140.95 1844.21 Q1140.16 1846.11 1138.05 1848.7 Q1137.47 1849.37 1134.37 1852.59 Q1131.27 1855.78 1125.62 1861.55 Z" fill="#000000" fill-rule="evenodd" fill-opacity="1" /><path clip-path="url(#clip090)" d="M1161.76 1834 Q1158.15 1834 1156.32 1837.57 Q1154.51 1841.11 1154.51 1848.24 Q1154.51 1855.34 1156.32 1858.91 Q1158.15 1862.45 1161.76 1862.45 Q1165.39 1862.45 1167.2 1858.91 Q1169.03 1855.34 1169.03 1848.24 Q1169.03 1841.11 1167.2 1837.57 Q1165.39 1834 1161.76 1834 M1161.76 1830.3 Q1167.57 1830.3 1170.62 1834.9 Q1173.7 1839.49 1173.7 1848.24 Q1173.7 1856.96 1170.62 1861.57 Q1167.57 1866.15 1161.76 1866.15 Q1155.95 1866.15 1152.87 1861.57 Q1149.81 1856.96 1149.81 1848.24 Q1149.81 1839.49 1152.87 1834.9 Q1155.95 1830.3 1161.76 1830.3 Z" fill="#000000" fill-rule="evenodd" fill-opacity="1" /><path clip-path="url(#clip090)" d="M1588.18 1846.85 Q1591.54 1847.57 1593.41 1849.84 Q1595.31 1852.1 1595.31 1855.44 Q1595.31 1860.55 1591.79 1863.35 Q1588.27 1866.15 1581.79 1866.15 Q1579.62 1866.15 1577.3 1865.71 Q1575.01 1865.3 1572.56 1864.44 L1572.56 1859.93 Q1574.5 1861.06 1576.82 1861.64 Q1579.13 1862.22 1581.65 1862.22 Q1586.05 1862.22 1588.34 1860.48 Q1590.66 1858.75 1590.66 1855.44 Q1590.66 1852.38 1588.51 1850.67 Q1586.38 1848.93 1582.56 1848.93 L1578.53 1848.93 L1578.53 1845.09 L1582.74 1845.09 Q1586.19 1845.09 1588.02 1843.72 Q1589.85 1842.34 1589.85 1839.74 Q1589.85 1837.08 1587.95 1835.67 Q1586.07 1834.23 1582.56 1834.23 Q1580.63 1834.23 1578.44 1834.65 Q1576.24 1835.07 1573.6 1835.95 L1573.6 1831.78 Q1576.26 1831.04 1578.57 1830.67 Q1580.91 1830.3 1582.97 1830.3 Q1588.3 1830.3 1591.4 1832.73 Q1594.5 1835.14 1594.5 1839.26 Q1594.5 1842.13 1592.86 1844.12 Q1591.21 1846.09 1588.18 1846.85 Z" fill="#000000" fill-rule="evenodd" fill-opacity="1" /><path clip-path="url(#clip090)" d="M1614.18 1834 Q1610.57 1834 1608.74 1837.57 Q1606.93 1841.11 1606.93 1848.24 Q1606.93 1855.34 1608.74 1858.91 Q1610.57 1862.45 1614.18 1862.45 Q1617.81 1862.45 1619.62 1858.91 Q1621.44 1855.34 1621.44 1848.24 Q1621.44 1841.11 1619.62 1837.57 Q1617.81 1834 1614.18 1834 M1614.18 1830.3 Q1619.99 1830.3 1623.04 1834.9 Q1626.12 1839.49 1626.12 1848.24 Q1626.12 1856.96 1623.04 1861.57 Q1619.99 1866.15 1614.18 1866.15 Q1608.37 1866.15 1605.29 1861.57 Q1602.23 1856.96 1602.23 1848.24 Q1602.23 1839.49 1605.29 1834.9 Q1608.37 1830.3 1614.18 1830.3 Z" fill="#000000" fill-rule="evenodd" fill-opacity="1" /><path clip-path="url(#clip090)" d="M2040 1835 L2028.19 1853.45 L2040 1853.45 L2040 1835 M2038.77 1830.92 L2044.65 1830.92 L2044.65 1853.45 L2049.58 1853.45 L2049.58 1857.34 L2044.65 1857.34 L2044.65 1865.48 L2040 1865.48 L2040 1857.34 L2024.4 1857.34 L2024.4 1852.82 L2038.77 1830.92 Z" fill="#000000" fill-rule="evenodd" fill-opacity="1" /><path clip-path="url(#clip090)" d="M2067.31 1834 Q2063.7 1834 2061.87 1837.57 Q2060.07 1841.11 2060.07 1848.24 Q2060.07 1855.34 2061.87 1858.91 Q2063.7 1862.45 2067.31 1862.45 Q2070.95 1862.45 2072.75 1858.91 Q2074.58 1855.34 2074.58 1848.24 Q2074.58 1841.11 2072.75 1837.57 Q2070.95 1834 2067.31 1834 M2067.31 1830.3 Q2073.12 1830.3 2076.18 1834.9 Q2079.26 1839.49 2079.26 1848.24 Q2079.26 1856.96 2076.18 1861.57 Q2073.12 1866.15 2067.31 1866.15 Q2061.5 1866.15 2058.42 1861.57 Q2055.37 1856.96 2055.37 1848.24 Q2055.37 1839.49 2058.42 1834.9 Q2061.5 1830.3 2067.31 1830.3 Z" fill="#000000" fill-rule="evenodd" fill-opacity="1" /><path clip-path="url(#clip090)" d="M2479.02 1830.92 L2497.37 1830.92 L2497.37 1834.86 L2483.3 1834.86 L2483.3 1843.33 Q2484.32 1842.98 2485.33 1842.82 Q2486.35 1842.64 2487.37 1842.64 Q2493.16 1842.64 2496.54 1845.81 Q2499.92 1848.98 2499.92 1854.4 Q2499.92 1859.97 2496.45 1863.08 Q2492.97 1866.15 2486.65 1866.15 Q2484.48 1866.15 2482.21 1865.78 Q2479.96 1865.41 2477.56 1864.67 L2477.56 1859.97 Q2479.64 1861.11 2481.86 1861.66 Q2484.08 1862.22 2486.56 1862.22 Q2490.57 1862.22 2492.9 1860.11 Q2495.24 1858.01 2495.24 1854.4 Q2495.24 1850.78 2492.9 1848.68 Q2490.57 1846.57 2486.56 1846.57 Q2484.69 1846.57 2482.81 1846.99 Q2480.96 1847.4 2479.02 1848.28 L2479.02 1830.92 Z" fill="#000000" fill-rule="evenodd" fill-opacity="1" /><path clip-path="url(#clip090)" d="M2519.13 1834 Q2515.52 1834 2513.69 1837.57 Q2511.89 1841.11 2511.89 1848.24 Q2511.89 1855.34 2513.69 1858.91 Q2515.52 1862.45 2519.13 1862.45 Q2522.76 1862.45 2524.57 1858.91 Q2526.4 1855.34 2526.4 1848.24 Q2526.4 1841.11 2524.57 1837.57 Q2522.76 1834 2519.13 1834 M2519.13 1830.3 Q2524.94 1830.3 2528 1834.9 Q2531.08 1839.49 2531.08 1848.24 Q2531.08 1856.96 2528 1861.57 Q2524.94 1866.15 2519.13 1866.15 Q2513.32 1866.15 2510.24 1861.57 Q2507.19 1856.96 2507.19 1848.24 Q2507.19 1839.49 2510.24 1834.9 Q2513.32 1830.3 2519.13 1830.3 Z" fill="#000000" fill-rule="evenodd" fill-opacity="1" /><polyline clip-path="url(#clip092)" style="stroke:#000000; stroke-linecap:round; stroke-linejoin:round; stroke-width:2; stroke-opacity:0.1; fill:none" points="172.001,1751.15 2640.76,1751.15 "/>
<polyline clip-path="url(#clip092)" style="stroke:#000000; stroke-linecap:round; stroke-linejoin:round; stroke-width:2; stroke-opacity:0.1; fill:none" points="172.001,1333.4 2640.76,1333.4 "/>
<polyline clip-path="url(#clip092)" style="stroke:#000000; stroke-linecap:round; stroke-linejoin:round; stroke-width:2; stroke-opacity:0.1; fill:none" points="172.001,915.657 2640.76,915.657 "/>
<polyline clip-path="url(#clip092)" style="stroke:#000000; stroke-linecap:round; stroke-linejoin:round; stroke-width:2; stroke-opacity:0.1; fill:none" points="172.001,497.91 2640.76,497.91 "/>
<polyline clip-path="url(#clip092)" style="stroke:#000000; stroke-linecap:round; stroke-linejoin:round; stroke-width:2; stroke-opacity:0.1; fill:none" points="172.001,80.1626 2640.76,80.1626 "/>
<polyline clip-path="url(#clip090)" style="stroke:#000000; stroke-linecap:round; stroke-linejoin:round; stroke-width:4; stroke-opacity:1; fill:none" points="172.001,1800.78 172.001,47.2441 "/>
<polyline clip-path="url(#clip090)" style="stroke:#000000; stroke-linecap:round; stroke-linejoin:round; stroke-width:4; stroke-opacity:1; fill:none" points="172.001,1751.15 190.899,1751.15 "/>
<polyline clip-path="url(#clip090)" style="stroke:#000000; stroke-linecap:round; stroke-linejoin:round; stroke-width:4; stroke-opacity:1; fill:none" points="172.001,1333.4 190.899,1333.4 "/>
<polyline clip-path="url(#clip090)" style="stroke:#000000; stroke-linecap:round; stroke-linejoin:round; stroke-width:4; stroke-opacity:1; fill:none" points="172.001,915.657 190.899,915.657 "/>
<polyline clip-path="url(#clip090)" style="stroke:#000000; stroke-linecap:round; stroke-linejoin:round; stroke-width:4; stroke-opacity:1; fill:none" points="172.001,497.91 190.899,497.91 "/>
<polyline clip-path="url(#clip090)" style="stroke:#000000; stroke-linecap:round; stroke-linejoin:round; stroke-width:4; stroke-opacity:1; fill:none" points="172.001,80.1626 190.899,80.1626 "/>
<path clip-path="url(#clip090)" d="M119.737 1736.95 Q116.126 1736.95 114.297 1740.51 Q112.492 1744.06 112.492 1751.19 Q112.492 1758.29 114.297 1761.86 Q116.126 1765.4 119.737 1765.4 Q123.371 1765.4 125.177 1761.86 Q127.005 1758.29 127.005 1751.19 Q127.005 1744.06 125.177 1740.51 Q123.371 1736.95 119.737 1736.95 M119.737 1733.25 Q125.547 1733.25 128.603 1737.85 Q131.681 1742.44 131.681 1751.19 Q131.681 1759.91 128.603 1764.52 Q125.547 1769.1 119.737 1769.1 Q113.927 1769.1 110.848 1764.52 Q107.793 1759.91 107.793 1751.19 Q107.793 1742.44 110.848 1737.85 Q113.927 1733.25 119.737 1733.25 Z" fill="#000000" fill-rule="evenodd" fill-opacity="1" /><path clip-path="url(#clip090)" d="M84.5982 1346.75 L100.918 1346.75 L100.918 1350.68 L78.9733 1350.68 L78.9733 1346.75 Q81.6353 1343.99 86.2186 1339.36 Q90.8251 1334.71 92.0056 1333.37 Q94.251 1330.85 95.1306 1329.11 Q96.0334 1327.35 96.0334 1325.66 Q96.0334 1322.91 94.0889 1321.17 Q92.1676 1319.43 89.0658 1319.43 Q86.8667 1319.43 84.4131 1320.2 Q81.9825 1320.96 79.2047 1322.51 L79.2047 1317.79 Q82.0288 1316.66 84.4825 1316.08 Q86.9362 1315.5 88.9732 1315.5 Q94.3436 1315.5 97.538 1318.18 Q100.732 1320.87 100.732 1325.36 Q100.732 1327.49 99.9222 1329.41 Q99.1352 1331.31 97.0287 1333.9 Q96.45 1334.57 93.3482 1337.79 Q90.2464 1340.98 84.5982 1346.75 Z" fill="#000000" fill-rule="evenodd" fill-opacity="1" /><path clip-path="url(#clip090)" d="M110.779 1316.12 L129.135 1316.12 L129.135 1320.06 L115.061 1320.06 L115.061 1328.53 Q116.08 1328.18 117.098 1328.02 Q118.117 1327.84 119.135 1327.84 Q124.922 1327.84 128.302 1331.01 Q131.681 1334.18 131.681 1339.6 Q131.681 1345.17 128.209 1348.28 Q124.737 1351.36 118.417 1351.36 Q116.242 1351.36 113.973 1350.98 Q111.728 1350.61 109.32 1349.87 L109.32 1345.17 Q111.404 1346.31 113.626 1346.86 Q115.848 1347.42 118.325 1347.42 Q122.33 1347.42 124.667 1345.31 Q127.005 1343.21 127.005 1339.6 Q127.005 1335.98 124.667 1333.88 Q122.33 1331.77 118.325 1331.77 Q116.45 1331.77 114.575 1332.19 Q112.723 1332.61 110.779 1333.48 L110.779 1316.12 Z" fill="#000000" fill-rule="evenodd" fill-opacity="1" /><path clip-path="url(#clip090)" d="M79.6214 898.377 L97.9778 898.377 L97.9778 902.312 L83.9038 902.312 L83.9038 910.784 Q84.9223 910.437 85.9408 910.275 Q86.9593 910.09 87.9778 910.09 Q93.7649 910.09 97.1445 913.261 Q100.524 916.432 100.524 921.849 Q100.524 927.428 97.0519 930.529 Q93.5797 933.608 87.2603 933.608 Q85.0843 933.608 82.8158 933.238 Q80.5705 932.867 78.1631 932.127 L78.1631 927.428 Q80.2464 928.562 82.4686 929.117 Q84.6908 929.673 87.1677 929.673 Q91.1723 929.673 93.5102 927.566 Q95.8482 925.46 95.8482 921.849 Q95.8482 918.238 93.5102 916.131 Q91.1723 914.025 87.1677 914.025 Q85.2927 914.025 83.4177 914.441 Q81.5658 914.858 79.6214 915.738 L79.6214 898.377 Z" fill="#000000" fill-rule="evenodd" fill-opacity="1" /><path clip-path="url(#clip090)" d="M119.737 901.455 Q116.126 901.455 114.297 905.02 Q112.492 908.562 112.492 915.691 Q112.492 922.798 114.297 926.363 Q116.126 929.904 119.737 929.904 Q123.371 929.904 125.177 926.363 Q127.005 922.798 127.005 915.691 Q127.005 908.562 125.177 905.02 Q123.371 901.455 119.737 901.455 M119.737 897.752 Q125.547 897.752 128.603 902.358 Q131.681 906.942 131.681 915.691 Q131.681 924.418 128.603 929.025 Q125.547 933.608 119.737 933.608 Q113.927 933.608 110.848 929.025 Q107.793 924.418 107.793 915.691 Q107.793 906.942 110.848 902.358 Q113.927 897.752 119.737 897.752 Z" fill="#000000" fill-rule="evenodd" fill-opacity="1" /><path clip-path="url(#clip090)" d="M79.3899 480.63 L101.612 480.63 L101.612 482.62 L89.0658 515.19 L84.1816 515.19 L95.9871 484.565 L79.3899 484.565 L79.3899 480.63 Z" fill="#000000" fill-rule="evenodd" fill-opacity="1" /><path clip-path="url(#clip090)" d="M110.779 480.63 L129.135 480.63 L129.135 484.565 L115.061 484.565 L115.061 493.037 Q116.08 492.69 117.098 492.528 Q118.117 492.343 119.135 492.343 Q124.922 492.343 128.302 495.514 Q131.681 498.685 131.681 504.102 Q131.681 509.68 128.209 512.782 Q124.737 515.861 118.417 515.861 Q116.242 515.861 113.973 515.491 Q111.728 515.12 109.32 514.379 L109.32 509.68 Q111.404 510.815 113.626 511.37 Q115.848 511.926 118.325 511.926 Q122.33 511.926 124.667 509.819 Q127.005 507.713 127.005 504.102 Q127.005 500.491 124.667 498.384 Q122.33 496.278 118.325 496.278 Q116.45 496.278 114.575 496.694 Q112.723 497.111 110.779 497.991 L110.779 480.63 Z" fill="#000000" fill-rule="evenodd" fill-opacity="1" /><path clip-path="url(#clip090)" d="M50.2234 93.5074 L57.8623 93.5074 L57.8623 67.1418 L49.5521 68.8085 L49.5521 64.5492 L57.816 62.8826 L62.4919 62.8826 L62.4919 93.5074 L70.1307 93.5074 L70.1307 97.4426 L50.2234 97.4426 L50.2234 93.5074 Z" fill="#000000" fill-rule="evenodd" fill-opacity="1" /><path clip-path="url(#clip090)" d="M89.5751 65.9613 Q85.964 65.9613 84.1353 69.526 Q82.3297 73.0677 82.3297 80.1973 Q82.3297 87.3037 84.1353 90.8685 Q85.964 94.4102 89.5751 94.4102 Q93.2093 94.4102 95.0148 90.8685 Q96.8435 87.3037 96.8435 80.1973 Q96.8435 73.0677 95.0148 69.526 Q93.2093 65.9613 89.5751 65.9613 M89.5751 62.2576 Q95.3852 62.2576 98.4408 66.864 Q101.519 71.4473 101.519 80.1973 Q101.519 88.9241 98.4408 93.5305 Q95.3852 98.1139 89.5751 98.1139 Q83.7649 98.1139 80.6862 93.5305 Q77.6307 88.9241 77.6307 80.1973 Q77.6307 71.4473 80.6862 66.864 Q83.7649 62.2576 89.5751 62.2576 Z" fill="#000000" fill-rule="evenodd" fill-opacity="1" /><path clip-path="url(#clip090)" d="M119.737 65.9613 Q116.126 65.9613 114.297 69.526 Q112.492 73.0677 112.492 80.1973 Q112.492 87.3037 114.297 90.8685 Q116.126 94.4102 119.737 94.4102 Q123.371 94.4102 125.177 90.8685 Q127.005 87.3037 127.005 80.1973 Q127.005 73.0677 125.177 69.526 Q123.371 65.9613 119.737 65.9613 M119.737 62.2576 Q125.547 62.2576 128.603 66.864 Q131.681 71.4473 131.681 80.1973 Q131.681 88.9241 128.603 93.5305 Q125.547 98.1139 119.737 98.1139 Q113.927 98.1139 110.848 93.5305 Q107.793 88.9241 107.793 80.1973 Q107.793 71.4473 110.848 66.864 Q113.927 62.2576 119.737 62.2576 Z" fill="#000000" fill-rule="evenodd" fill-opacity="1" /><polyline clip-path="url(#clip092)" style="stroke:#009af9; stroke-linecap:round; stroke-linejoin:round; stroke-width:4; stroke-opacity:1; fill:none" points="241.872,96.8724 274.219,113.582 314.074,130.292 329.95,147.002 350.28,147.002 376.522,163.712 386.439,180.422 401.088,180.422 410.733,180.422 424.542,197.132 458.947,213.842 479.67,230.552 486.957,247.261 501.368,263.971 522.589,280.681 534.127,297.391 535.429,314.101 545.548,330.811 547.167,347.521 547.799,347.521 552.251,364.231 553.103,380.94 561.485,380.94 569.547,380.94 577.753,397.65 579.345,414.36 581.253,431.07 590.191,447.78 595.04,464.49 601.991,481.2 630.641,497.91 643.608,514.62 644.569,531.329 646.172,548.039 650.262,564.749 651.623,581.459 654.051,581.459 657.48,598.169 659.839,614.879 662.834,614.879 668.828,631.589 669.02,648.299 676.068,665.008 680.58,665.008 691.974,681.718 692.759,698.428 713.06,698.428 715.221,715.138 715.83,715.138 716.657,731.848 718.467,748.558 735.605,748.558 742.294,765.268 743.155,781.978 747.688,798.688 749.972,798.688 751.607,815.397 755.441,832.107 767.313,832.107 770.937,848.817 771.629,848.817 771.895,865.527 772.576,882.237 773.467,898.947 775.282,915.657 779.621,932.367 782.293,932.367 783.976,949.077 784.99,965.786 785.627,965.786 786.948,982.496 792.429,982.496 797.425,999.206 797.676,999.206 802.251,1015.92 829.772,1015.92 831.466,1015.92 831.807,1015.92 836.98,1032.63 839.054,1032.63 842.437,1049.34 844.462,1049.34 845.065,1066.05 845.941,1066.05 848.583,1082.76 852.507,1099.47 861.47,1099.47 866.203,1099.47 881.77,1116.18 884.539,1132.89 891.891,1149.6 899.096,1166.31 900.18,1183.01 908.371,1199.72 909.169,1199.72 911.846,1216.43 912.691,1233.14 913.488,1249.85 924.26,1266.56 926.178,1283.27 939.3,1283.27 946.88,1283.27 948.464,1283.27 951.129,1299.98 954.15,1316.69 958.023,1316.69 962.487,1316.69 963.093,1333.4 970.3,1350.11 971.831,1366.82 983.293,1383.53 984.889,1400.24 993.896,1416.95 995.583,1416.95 1000.17,1433.66 1000.17,1433.66 1002.14,1450.37 1008.21,1467.08 1016.07,1467.08 1016.63,1467.08 1025.24,1467.08 1030.31,1467.08 1034.52,1483.79 1035.08,1483.79 1044.68,1483.79 1046.3,1500.5 1054.15,1500.5 1056.42,1517.21 1056.71,1517.21 1057.7,1517.21 1059.35,1517.21 1081.83,1533.92 1089.27,1550.63 1097.4,1567.34 1100.72,1584.05 1101.85,1600.76 1114.2,1600.76 1124.18,1600.76 1130.58,1600.76 1131.22,1617.47 1144.84,1634.18 1152.74,1634.18 1153.31,1634.18 1161.33,1634.18 1172.99,1650.89 1188.31,1650.89 1192.76,1650.89 1200.36,1650.89 1215.99,1650.89 1220.28,1650.89 1227.36,1650.89 1246.99,1650.89 1258.33,1650.89 1258.82,1667.6 1281.15,1667.6 1319.27,1667.6 1332.52,1667.6 1332.58,1684.31 1334.95,1684.31 1340.93,1684.31 1363.27,1701.02 1366.93,1701.02 1378.11,1701.02 1379.88,1717.73 1413.11,1717.73 1421.54,1717.73 1426.03,1717.73 1428.31,1717.73 1451.67,1717.73 1497.27,1717.73 1501.55,1717.73 1534.94,1717.73 1595.63,1734.44 1607.02,1734.44 1610.18,1734.44 1656.1,1734.44 1659.5,1734.44 1673.85,1734.44 1725.29,1734.44 1752.93,1751.15 1773.96,1751.15 1790.08,1751.15 1841.34,1751.15 1869.38,1751.15 1877.33,1751.15 1887.74,1751.15 1917.44,1751.15 1931,1751.15 1933.75,1751.15 2005.97,1751.15 2027.91,1751.15 2051.51,1751.15 2087.8,1751.15 2109.56,1751.15 2360.84,1751.15 2413.42,1751.15 2452.4,1751.15 2487.05,1751.15 2570.89,1751.15 "/>
<polyline clip-path="url(#clip092)" style="stroke:#e26f46; stroke-linecap:round; stroke-linejoin:round; stroke-width:4; stroke-opacity:1; fill:none" points="241.872,1734.44 274.219,1717.73 314.074,1701.02 329.95,1684.31 350.28,1701.02 376.522,1684.31 386.439,1667.6 401.088,1684.31 410.733,1701.02 424.542,1684.31 458.947,1667.6 479.67,1650.89 486.957,1634.18 501.368,1617.47 522.589,1600.76 534.127,1584.05 535.429,1567.34 545.548,1550.63 547.167,1533.92 547.799,1550.63 552.251,1533.92 553.103,1517.21 561.485,1533.92 569.547,1550.63 577.753,1533.92 579.345,1517.21 581.253,1500.5 590.191,1483.79 595.04,1467.08 601.991,1450.37 630.641,1433.66 643.608,1416.95 644.569,1400.24 646.172,1383.53 650.262,1366.82 651.623,1350.11 654.051,1366.82 657.48,1350.11 659.839,1333.4 662.834,1350.11 668.828,1333.4 669.02,1316.69 676.068,1299.98 680.58,1316.69 691.974,1299.98 692.759,1283.27 713.06,1299.98 715.221,1283.27 715.83,1299.98 716.657,1283.27 718.467,1266.56 735.605,1283.27 742.294,1266.56 743.155,1249.85 747.688,1233.14 749.972,1249.85 751.607,1233.14 755.441,1216.43 767.313,1233.14 770.937,1216.43 771.629,1233.14 771.895,1216.43 772.576,1199.72 773.467,1183.01 775.282,1166.31 779.621,1149.6 782.293,1166.31 783.976,1149.6 784.99,1132.89 785.627,1149.6 786.948,1132.89 792.429,1149.6 797.425,1132.89 797.676,1149.6 802.251,1132.89 829.772,1149.6 831.466,1166.31 831.807,1183.01 836.98,1166.31 839.054,1183.01 842.437,1166.31 844.462,1183.01 845.065,1166.31 845.941,1183.01 848.583,1166.31 852.507,1149.6 861.47,1166.31 866.203,1183.01 881.77,1166.31 884.539,1149.6 891.891,1132.89 899.096,1116.18 900.18,1099.47 908.371,1082.76 909.169,1099.47 911.846,1082.76 912.691,1066.05 913.488,1049.34 924.26,1032.63 926.178,1015.92 939.3,1032.63 946.88,1049.34 948.464,1066.05 951.129,1049.34 954.15,1032.63 958.023,1049.34 962.487,1066.05 963.093,1049.34 970.3,1032.63 971.831,1015.92 983.293,999.206 984.889,982.496 993.896,965.786 995.583,982.496 1000.17,965.786 1000.17,982.496 1002.14,965.786 1008.21,949.077 1016.07,965.786 1016.63,982.496 1025.24,999.206 1030.31,1015.92 1034.52,999.206 1035.08,1015.92 1044.68,1032.63 1046.3,1015.92 1054.15,1032.63 1056.42,1015.92 1056.71,1032.63 1057.7,1049.34 1059.35,1066.05 1081.83,1049.34 1089.27,1032.63 1097.4,1015.92 1100.72,999.206 1101.85,982.496 1114.2,999.206 1124.18,1015.92 1130.58,1032.63 1131.22,1015.92 1144.84,999.206 1152.74,1015.92 1153.31,1032.63 1161.33,1049.34 1172.99,1032.63 1188.31,1049.34 1192.76,1066.05 1200.36,1082.76 1215.99,1099.47 1220.28,1116.18 1227.36,1132.89 1246.99,1149.6 1258.33,1166.31 1258.82,1149.6 1281.15,1166.31 1319.27,1183.01 1332.52,1199.72 1332.58,1183.01 1334.95,1199.72 1340.93,1216.43 1363.27,1199.72 1366.93,1216.43 1378.11,1233.14 1379.88,1216.43 1413.11,1233.14 1421.54,1249.85 1426.03,1266.56 1428.31,1283.27 1451.67,1299.98 1497.27,1316.69 1501.55,1333.4 1534.94,1350.11 1595.63,1333.4 1607.02,1350.11 1610.18,1366.82 1656.1,1383.53 1659.5,1400.24 1673.85,1416.95 1725.29,1433.66 1752.93,1416.95 1773.96,1433.66 1790.08,1450.37 1841.34,1467.08 1869.38,1483.79 1877.33,1500.5 1887.74,1517.21 1917.44,1533.92 1931,1550.63 1933.75,1567.34 2005.97,1584.05 2027.91,1600.76 2051.51,1617.47 2087.8,1634.18 2109.56,1650.89 2360.84,1667.6 2413.42,1684.31 2452.4,1701.02 2487.05,1717.73 2570.89,1734.44 "/>
<polyline clip-path="url(#clip092)" style="stroke:#3da44d; stroke-linecap:round; stroke-linejoin:round; stroke-width:4; stroke-opacity:1; fill:none" points="241.872,1751.15 274.219,1751.15 314.074,1751.15 329.95,1751.15 350.28,1734.44 376.522,1734.44 386.439,1734.44 401.088,1717.73 410.733,1701.02 424.542,1701.02 458.947,1701.02 479.67,1701.02 486.957,1701.02 501.368,1701.02 522.589,1701.02 534.127,1701.02 535.429,1701.02 545.548,1701.02 547.167,1701.02 547.799,1684.31 552.251,1684.31 553.103,1684.31 561.485,1667.6 569.547,1650.89 577.753,1650.89 579.345,1650.89 581.253,1650.89 590.191,1650.89 595.04,1650.89 601.991,1650.89 630.641,1650.89 643.608,1650.89 644.569,1650.89 646.172,1650.89 650.262,1650.89 651.623,1650.89 654.051,1634.18 657.48,1634.18 659.839,1634.18 662.834,1617.47 668.828,1617.47 669.02,1617.47 676.068,1617.47 680.58,1600.76 691.974,1600.76 692.759,1600.76 713.06,1584.05 715.221,1584.05 715.83,1567.34 716.657,1567.34 718.467,1567.34 735.605,1550.63 742.294,1550.63 743.155,1550.63 747.688,1550.63 749.972,1533.92 751.607,1533.92 755.441,1533.92 767.313,1517.21 770.937,1517.21 771.629,1500.5 771.895,1500.5 772.576,1500.5 773.467,1500.5 775.282,1500.5 779.621,1500.5 782.293,1483.79 783.976,1483.79 784.99,1483.79 785.627,1467.08 786.948,1467.08 792.429,1450.37 797.425,1450.37 797.676,1433.66 802.251,1433.66 829.772,1416.95 831.466,1400.24 831.807,1383.53 836.98,1383.53 839.054,1366.82 842.437,1366.82 844.462,1350.11 845.065,1350.11 845.941,1333.4 848.583,1333.4 852.507,1333.4 861.47,1316.69 866.203,1299.98 881.77,1299.98 884.539,1299.98 891.891,1299.98 899.096,1299.98 900.18,1299.98 908.371,1299.98 909.169,1283.27 911.846,1283.27 912.691,1283.27 913.488,1283.27 924.26,1283.27 926.178,1283.27 939.3,1266.56 946.88,1249.85 948.464,1233.14 951.129,1233.14 954.15,1233.14 958.023,1216.43 962.487,1199.72 963.093,1199.72 970.3,1199.72 971.831,1199.72 983.293,1199.72 984.889,1199.72 993.896,1199.72 995.583,1183.01 1000.17,1183.01 1000.17,1166.31 1002.14,1166.31 1008.21,1166.31 1016.07,1149.6 1016.63,1132.89 1025.24,1116.18 1030.31,1099.47 1034.52,1099.47 1035.08,1082.76 1044.68,1066.05 1046.3,1066.05 1054.15,1049.34 1056.42,1049.34 1056.71,1032.63 1057.7,1015.92 1059.35,999.206 1081.83,999.206 1089.27,999.206 1097.4,999.206 1100.72,999.206 1101.85,999.206 1114.2,982.496 1124.18,965.786 1130.58,949.077 1131.22,949.077 1144.84,949.077 1152.74,932.367 1153.31,915.657 1161.33,898.947 1172.99,898.947 1188.31,882.237 1192.76,865.527 1200.36,848.817 1215.99,832.107 1220.28,815.397 1227.36,798.688 1246.99,781.978 1258.33,765.268 1258.82,765.268 1281.15,748.558 1319.27,731.848 1332.52,715.138 1332.58,715.138 1334.95,698.428 1340.93,681.718 1363.27,681.718 1366.93,665.008 1378.11,648.299 1379.88,648.299 1413.11,631.589 1421.54,614.879 1426.03,598.169 1428.31,581.459 1451.67,564.749 1497.27,548.039 1501.55,531.329 1534.94,514.62 1595.63,514.62 1607.02,497.91 1610.18,481.2 1656.1,464.49 1659.5,447.78 1673.85,431.07 1725.29,414.36 1752.93,414.36 1773.96,397.65 1790.08,380.94 1841.34,364.231 1869.38,347.521 1877.33,330.811 1887.74,314.101 1917.44,297.391 1931,280.681 1933.75,263.971 2005.97,247.261 2027.91,230.552 2051.51,213.842 2087.8,197.132 2109.56,180.422 2360.84,163.712 2413.42,147.002 2452.4,130.292 2487.05,113.582 2570.89,96.8724 "/>
<path clip-path="url(#clip090)" d="M2258.58 313.055 L2558.46 313.055 L2558.46 105.695 L2258.58 105.695  Z" fill="#ffffff" fill-rule="evenodd" fill-opacity="1"/>
<polyline clip-path="url(#clip090)" style="stroke:#000000; stroke-linecap:round; stroke-linejoin:round; stroke-width:4; stroke-opacity:1; fill:none" points="2258.58,313.055 2558.46,313.055 2558.46,105.695 2258.58,105.695 2258.58,313.055 "/>
<polyline clip-path="url(#clip090)" style="stroke:#009af9; stroke-linecap:round; stroke-linejoin:round; stroke-width:4; stroke-opacity:1; fill:none" points="2286.01,157.535 2450.59,157.535 "/>
<path clip-path="url(#clip090)" d="M2491.87 177.223 Q2490.06 181.852 2488.35 183.264 Q2486.64 184.676 2483.77 184.676 L2480.36 184.676 L2480.36 181.112 L2482.86 181.112 Q2484.62 181.112 2485.59 180.278 Q2486.57 179.445 2487.75 176.343 L2488.51 174.399 L2478.02 148.889 L2482.54 148.889 L2490.64 169.167 L2498.74 148.889 L2503.26 148.889 L2491.87 177.223 Z" fill="#000000" fill-rule="evenodd" fill-opacity="1" /><path clip-path="url(#clip090)" d="M2510.55 170.88 L2518.19 170.88 L2518.19 144.515 L2509.88 146.181 L2509.88 141.922 L2518.14 140.255 L2522.82 140.255 L2522.82 170.88 L2530.45 170.88 L2530.45 174.815 L2510.55 174.815 L2510.55 170.88 Z" fill="#000000" fill-rule="evenodd" fill-opacity="1" /><polyline clip-path="url(#clip090)" style="stroke:#e26f46; stroke-linecap:round; stroke-linejoin:round; stroke-width:4; stroke-opacity:1; fill:none" points="2286.01,209.375 2450.59,209.375 "/>
<path clip-path="url(#clip090)" d="M2491.87 229.063 Q2490.06 233.692 2488.35 235.104 Q2486.64 236.516 2483.77 236.516 L2480.36 236.516 L2480.36 232.952 L2482.86 232.952 Q2484.62 232.952 2485.59 232.118 Q2486.57 231.285 2487.75 228.183 L2488.51 226.239 L2478.02 200.729 L2482.54 200.729 L2490.64 221.007 L2498.74 200.729 L2503.26 200.729 L2491.87 229.063 Z" fill="#000000" fill-rule="evenodd" fill-opacity="1" /><path clip-path="url(#clip090)" d="M2513.77 222.72 L2530.08 222.72 L2530.08 226.655 L2508.14 226.655 L2508.14 222.72 Q2510.8 219.965 2515.39 215.336 Q2519.99 210.683 2521.17 209.341 Q2523.42 206.817 2524.3 205.081 Q2525.2 203.322 2525.2 201.632 Q2525.2 198.878 2523.26 197.142 Q2521.33 195.405 2518.23 195.405 Q2516.03 195.405 2513.58 196.169 Q2511.15 196.933 2508.37 198.484 L2508.37 193.762 Q2511.2 192.628 2513.65 192.049 Q2516.1 191.47 2518.14 191.47 Q2523.51 191.47 2526.7 194.155 Q2529.9 196.841 2529.9 201.331 Q2529.9 203.461 2529.09 205.382 Q2528.3 207.28 2526.2 209.873 Q2525.62 210.544 2522.52 213.762 Q2519.41 216.956 2513.77 222.72 Z" fill="#000000" fill-rule="evenodd" fill-opacity="1" /><polyline clip-path="url(#clip090)" style="stroke:#3da44d; stroke-linecap:round; stroke-linejoin:round; stroke-width:4; stroke-opacity:1; fill:none" points="2286.01,261.215 2450.59,261.215 "/>
<path clip-path="url(#clip090)" d="M2491.87 280.903 Q2490.06 285.532 2488.35 286.944 Q2486.64 288.356 2483.77 288.356 L2480.36 288.356 L2480.36 284.792 L2482.86 284.792 Q2484.62 284.792 2485.59 283.958 Q2486.57 283.125 2487.75 280.023 L2488.51 278.079 L2478.02 252.569 L2482.54 252.569 L2490.64 272.847 L2498.74 252.569 L2503.26 252.569 L2491.87 280.903 Z" fill="#000000" fill-rule="evenodd" fill-opacity="1" /><path clip-path="url(#clip090)" d="M2523.9 259.861 Q2527.26 260.579 2529.14 262.847 Q2531.03 265.116 2531.03 268.449 Q2531.03 273.565 2527.51 276.366 Q2524 279.167 2517.52 279.167 Q2515.34 279.167 2513.02 278.727 Q2510.73 278.31 2508.28 277.454 L2508.28 272.94 Q2510.22 274.074 2512.54 274.653 Q2514.85 275.231 2517.38 275.231 Q2521.77 275.231 2524.07 273.495 Q2526.38 271.759 2526.38 268.449 Q2526.38 265.393 2524.23 263.681 Q2522.1 261.944 2518.28 261.944 L2514.25 261.944 L2514.25 258.102 L2518.46 258.102 Q2521.91 258.102 2523.74 256.736 Q2525.57 255.347 2525.57 252.755 Q2525.57 250.093 2523.67 248.681 Q2521.8 247.245 2518.28 247.245 Q2516.36 247.245 2514.16 247.662 Q2511.96 248.079 2509.32 248.958 L2509.32 244.792 Q2511.98 244.051 2514.3 243.681 Q2516.64 243.31 2518.7 243.31 Q2524.02 243.31 2527.12 245.741 Q2530.22 248.148 2530.22 252.269 Q2530.22 255.139 2528.58 257.13 Q2526.94 259.097 2523.9 259.861 Z" fill="#000000" fill-rule="evenodd" fill-opacity="1" /></svg>
