<?xml version="1.0" encoding="utf-8"?>
<svg xmlns="http://www.w3.org/2000/svg" xmlns:xlink="http://www.w3.org/1999/xlink" width="604.75" height="364.75" viewBox="0 0 2419 1459">
<defs>
  <clipPath id="clip140">
    <rect x="0" y="0" width="2419" height="1459"/>
  </clipPath>
</defs>
<path clip-path="url(#clip140)" d="M0 1459 L2419 1459 L2419 0 L0 0  Z" fill="#ffffff" fill-rule="evenodd" fill-opacity="1"/>
<defs>
  <clipPath id="clip141">
    <rect x="483" y="0" width="1694" height="1459"/>
  </clipPath>
</defs>
<path clip-path="url(#clip140)" d="M169.299 1350.16 L2371.76 1350.16 L2371.76 47.2376 L169.299 47.2376  Z" fill="#ffffff" fill-rule="evenodd" fill-opacity="1"/>
<defs>
  <clipPath id="clip142">
    <rect x="169" y="47" width="2203" height="1304"/>
  </clipPath>
</defs>
<polyline clip-path="url(#clip142)" style="stroke:#000000; stroke-linecap:round; stroke-linejoin:round; stroke-width:1.99973; stroke-opacity:0.1; fill:none" points="231.633,1350.16 231.633,47.2376 "/>
<polyline clip-path="url(#clip142)" style="stroke:#000000; stroke-linecap:round; stroke-linejoin:round; stroke-width:1.99973; stroke-opacity:0.1; fill:none" points="647.064,1350.16 647.064,47.2376 "/>
<polyline clip-path="url(#clip142)" style="stroke:#000000; stroke-linecap:round; stroke-linejoin:round; stroke-width:1.99973; stroke-opacity:0.1; fill:none" points="1062.49,1350.16 1062.49,47.2376 "/>
<polyline clip-path="url(#clip142)" style="stroke:#000000; stroke-linecap:round; stroke-linejoin:round; stroke-width:1.99973; stroke-opacity:0.1; fill:none" points="1477.93,1350.16 1477.93,47.2376 "/>
<polyline clip-path="url(#clip142)" style="stroke:#000000; stroke-linecap:round; stroke-linejoin:round; stroke-width:1.99973; stroke-opacity:0.1; fill:none" points="1893.36,1350.16 1893.36,47.2376 "/>
<polyline clip-path="url(#clip142)" style="stroke:#000000; stroke-linecap:round; stroke-linejoin:round; stroke-width:1.99973; stroke-opacity:0.1; fill:none" points="2308.79,1350.16 2308.79,47.2376 "/>
<polyline clip-path="url(#clip140)" style="stroke:#000000; stroke-linecap:round; stroke-linejoin:round; stroke-width:3.99945; stroke-opacity:1; fill:none" points="169.299,1350.16 2371.76,1350.16 "/>
<polyline clip-path="url(#clip140)" style="stroke:#000000; stroke-linecap:round; stroke-linejoin:round; stroke-width:3.99945; stroke-opacity:1; fill:none" points="231.633,1350.16 231.633,1331.27 "/>
<polyline clip-path="url(#clip140)" style="stroke:#000000; stroke-linecap:round; stroke-linejoin:round; stroke-width:3.99945; stroke-opacity:1; fill:none" points="647.064,1350.16 647.064,1331.27 "/>
<polyline clip-path="url(#clip140)" style="stroke:#000000; stroke-linecap:round; stroke-linejoin:round; stroke-width:3.99945; stroke-opacity:1; fill:none" points="1062.49,1350.16 1062.49,1331.27 "/>
<polyline clip-path="url(#clip140)" style="stroke:#000000; stroke-linecap:round; stroke-linejoin:round; stroke-width:3.99945; stroke-opacity:1; fill:none" points="1477.93,1350.16 1477.93,1331.27 "/>
<polyline clip-path="url(#clip140)" style="stroke:#000000; stroke-linecap:round; stroke-linejoin:round; stroke-width:3.99945; stroke-opacity:1; fill:none" points="1893.36,1350.16 1893.36,1331.27 "/>
<polyline clip-path="url(#clip140)" style="stroke:#000000; stroke-linecap:round; stroke-linejoin:round; stroke-width:3.99945; stroke-opacity:1; fill:none" points="2308.79,1350.16 2308.79,1331.27 "/>
<path clip-path="url(#clip140)" d="M231.633 1381.23 Q228.022 1381.23 226.194 1384.79 Q224.388 1388.34 224.388 1395.46 Q224.388 1402.57 226.194 1406.13 Q228.022 1409.68 231.633 1409.68 Q235.267 1409.68 237.072 1406.13 Q238.901 1402.57 238.901 1395.46 Q238.901 1388.34 237.072 1384.79 Q235.267 1381.23 231.633 1381.23 M231.633 1377.53 Q237.443 1377.53 240.498 1382.13 Q243.576 1386.72 243.576 1395.46 Q243.576 1404.19 240.498 1408.8 Q237.443 1413.38 231.633 1413.38 Q225.823 1413.38 222.745 1408.8 Q219.69 1404.19 219.69 1395.46 Q219.69 1386.72 222.745 1382.13 Q225.823 1377.53 231.633 1377.53 Z" fill="#000000" fill-rule="evenodd" fill-opacity="1" /><path clip-path="url(#clip140)" d="M621.754 1408.77 L629.392 1408.77 L629.392 1382.41 L621.082 1384.08 L621.082 1379.82 L629.345 1378.15 L634.021 1378.15 L634.021 1408.77 L641.659 1408.77 L641.659 1412.71 L621.754 1412.71 L621.754 1408.77 Z" fill="#000000" fill-rule="evenodd" fill-opacity="1" /><path clip-path="url(#clip140)" d="M661.102 1381.23 Q657.491 1381.23 655.663 1384.79 Q653.857 1388.34 653.857 1395.46 Q653.857 1402.57 655.663 1406.13 Q657.491 1409.68 661.102 1409.68 Q664.736 1409.68 666.541 1406.13 Q668.37 1402.57 668.37 1395.46 Q668.37 1388.34 666.541 1384.79 Q664.736 1381.23 661.102 1381.23 M661.102 1377.53 Q666.912 1377.53 669.967 1382.13 Q673.045 1386.72 673.045 1395.46 Q673.045 1404.19 669.967 1408.8 Q666.912 1413.38 661.102 1413.38 Q655.292 1413.38 652.214 1408.8 Q649.159 1404.19 649.159 1395.46 Q649.159 1386.72 652.214 1382.13 Q655.292 1377.53 661.102 1377.53 Z" fill="#000000" fill-rule="evenodd" fill-opacity="1" /><path clip-path="url(#clip140)" d="M1041.27 1408.77 L1057.59 1408.77 L1057.59 1412.71 L1035.65 1412.71 L1035.65 1408.77 Q1038.31 1406.02 1042.89 1401.39 Q1047.5 1396.74 1048.68 1395.39 Q1050.92 1392.87 1051.8 1391.14 Q1052.7 1389.38 1052.7 1387.69 Q1052.7 1384.93 1050.76 1383.2 Q1048.84 1381.46 1045.74 1381.46 Q1043.54 1381.46 1041.08 1382.23 Q1038.65 1382.99 1035.88 1384.54 L1035.88 1379.82 Q1038.7 1378.68 1041.15 1378.11 Q1043.61 1377.53 1045.64 1377.53 Q1051.01 1377.53 1054.21 1380.21 Q1057.4 1382.9 1057.4 1387.39 Q1057.4 1389.52 1056.59 1391.44 Q1055.81 1393.34 1053.7 1395.93 Q1053.12 1396.6 1050.02 1399.82 Q1046.92 1403.01 1041.27 1408.77 Z" fill="#000000" fill-rule="evenodd" fill-opacity="1" /><path clip-path="url(#clip140)" d="M1077.4 1381.23 Q1073.79 1381.23 1071.96 1384.79 Q1070.16 1388.34 1070.16 1395.46 Q1070.16 1402.57 1071.96 1406.13 Q1073.79 1409.68 1077.4 1409.68 Q1081.03 1409.68 1082.84 1406.13 Q1084.67 1402.57 1084.67 1395.46 Q1084.67 1388.34 1082.84 1384.79 Q1081.03 1381.23 1077.4 1381.23 M1077.4 1377.53 Q1083.21 1377.53 1086.27 1382.13 Q1089.34 1386.72 1089.34 1395.46 Q1089.34 1404.19 1086.27 1408.8 Q1083.21 1413.38 1077.4 1413.38 Q1071.59 1413.38 1068.51 1408.8 Q1065.46 1404.19 1065.46 1395.46 Q1065.46 1386.72 1068.51 1382.13 Q1071.59 1377.53 1077.4 1377.53 Z" fill="#000000" fill-rule="evenodd" fill-opacity="1" /><path clip-path="url(#clip140)" d="M1466.77 1394.08 Q1470.13 1394.79 1472 1397.06 Q1473.9 1399.33 1473.9 1402.66 Q1473.9 1407.78 1470.38 1410.58 Q1466.86 1413.38 1460.38 1413.38 Q1458.2 1413.38 1455.89 1412.94 Q1453.6 1412.52 1451.15 1411.67 L1451.15 1407.15 Q1453.09 1408.29 1455.4 1408.87 Q1457.72 1409.44 1460.24 1409.44 Q1464.64 1409.44 1466.93 1407.71 Q1469.25 1405.97 1469.25 1402.66 Q1469.25 1399.61 1467.09 1397.89 Q1464.96 1396.16 1461.14 1396.16 L1457.12 1396.16 L1457.12 1392.32 L1461.33 1392.32 Q1464.78 1392.32 1466.61 1390.95 Q1468.44 1389.56 1468.44 1386.97 Q1468.44 1384.31 1466.54 1382.9 Q1464.66 1381.46 1461.14 1381.46 Q1459.22 1381.46 1457.02 1381.88 Q1454.83 1382.29 1452.19 1383.17 L1452.19 1379.01 Q1454.85 1378.27 1457.16 1377.9 Q1459.5 1377.53 1461.56 1377.53 Q1466.88 1377.53 1469.99 1379.96 Q1473.09 1382.36 1473.09 1386.48 Q1473.09 1389.35 1471.44 1391.34 Q1469.8 1393.31 1466.77 1394.08 Z" fill="#000000" fill-rule="evenodd" fill-opacity="1" /><path clip-path="url(#clip140)" d="M1492.76 1381.23 Q1489.15 1381.23 1487.32 1384.79 Q1485.52 1388.34 1485.52 1395.46 Q1485.52 1402.57 1487.32 1406.13 Q1489.15 1409.68 1492.76 1409.68 Q1496.4 1409.68 1498.2 1406.13 Q1500.03 1402.57 1500.03 1395.46 Q1500.03 1388.34 1498.2 1384.79 Q1496.4 1381.23 1492.76 1381.23 M1492.76 1377.53 Q1498.57 1377.53 1501.63 1382.13 Q1504.71 1386.72 1504.71 1395.46 Q1504.71 1404.19 1501.63 1408.8 Q1498.57 1413.38 1492.76 1413.38 Q1486.95 1413.38 1483.87 1408.8 Q1480.82 1404.19 1480.82 1395.46 Q1480.82 1386.72 1483.87 1382.13 Q1486.95 1377.53 1492.76 1377.53 Z" fill="#000000" fill-rule="evenodd" fill-opacity="1" /><path clip-path="url(#clip140)" d="M1881.53 1382.23 L1869.72 1400.67 L1881.53 1400.67 L1881.53 1382.23 M1880.3 1378.15 L1886.18 1378.15 L1886.18 1400.67 L1891.11 1400.67 L1891.11 1404.56 L1886.18 1404.56 L1886.18 1412.71 L1881.53 1412.71 L1881.53 1404.56 L1865.93 1404.56 L1865.93 1400.05 L1880.3 1378.15 Z" fill="#000000" fill-rule="evenodd" fill-opacity="1" /><path clip-path="url(#clip140)" d="M1908.84 1381.23 Q1905.23 1381.23 1903.4 1384.79 Q1901.6 1388.34 1901.6 1395.46 Q1901.6 1402.57 1903.4 1406.13 Q1905.23 1409.68 1908.84 1409.68 Q1912.47 1409.68 1914.28 1406.13 Q1916.11 1402.57 1916.11 1395.46 Q1916.11 1388.34 1914.28 1384.79 Q1912.47 1381.23 1908.84 1381.23 M1908.84 1377.53 Q1914.65 1377.53 1917.71 1382.13 Q1920.78 1386.72 1920.78 1395.46 Q1920.78 1404.19 1917.71 1408.8 Q1914.65 1413.38 1908.84 1413.38 Q1903.03 1413.38 1899.95 1408.8 Q1896.9 1404.19 1896.9 1395.46 Q1896.9 1386.72 1899.95 1382.13 Q1903.03 1377.53 1908.84 1377.53 Z" fill="#000000" fill-rule="evenodd" fill-opacity="1" /><path clip-path="url(#clip140)" d="M2283.49 1378.15 L2301.84 1378.15 L2301.84 1382.09 L2287.77 1382.09 L2287.77 1390.56 Q2288.79 1390.21 2289.81 1390.05 Q2290.83 1389.86 2291.84 1389.86 Q2297.63 1389.86 2301.01 1393.03 Q2304.39 1396.2 2304.39 1401.62 Q2304.39 1407.2 2300.92 1410.3 Q2297.45 1413.38 2291.13 1413.38 Q2288.95 1413.38 2286.68 1413.01 Q2284.44 1412.64 2282.03 1411.9 L2282.03 1407.2 Q2284.11 1408.33 2286.33 1408.89 Q2288.56 1409.44 2291.03 1409.44 Q2295.04 1409.44 2297.38 1407.34 Q2299.71 1405.23 2299.71 1401.62 Q2299.71 1398.01 2297.38 1395.9 Q2295.04 1393.8 2291.03 1393.8 Q2289.16 1393.8 2287.28 1394.21 Q2285.43 1394.63 2283.49 1395.51 L2283.49 1378.15 Z" fill="#000000" fill-rule="evenodd" fill-opacity="1" /><path clip-path="url(#clip140)" d="M2323.6 1381.23 Q2319.99 1381.23 2318.16 1384.79 Q2316.36 1388.34 2316.36 1395.46 Q2316.36 1402.57 2318.16 1406.13 Q2319.99 1409.68 2323.6 1409.68 Q2327.23 1409.68 2329.04 1406.13 Q2330.87 1402.57 2330.87 1395.46 Q2330.87 1388.34 2329.04 1384.79 Q2327.23 1381.23 2323.6 1381.23 M2323.6 1377.53 Q2329.41 1377.53 2332.47 1382.13 Q2335.54 1386.72 2335.54 1395.46 Q2335.54 1404.19 2332.47 1408.8 Q2329.41 1413.38 2323.6 1413.38 Q2317.79 1413.38 2314.71 1408.8 Q2311.66 1404.19 2311.66 1395.46 Q2311.66 1386.72 2314.71 1382.13 Q2317.79 1377.53 2323.6 1377.53 Z" fill="#000000" fill-rule="evenodd" fill-opacity="1" /><polyline clip-path="url(#clip142)" style="stroke:#000000; stroke-linecap:round; stroke-linejoin:round; stroke-width:1.99973; stroke-opacity:0.1; fill:none" points="169.299,1313.29 2371.76,1313.29 "/>
<polyline clip-path="url(#clip142)" style="stroke:#000000; stroke-linecap:round; stroke-linejoin:round; stroke-width:1.99973; stroke-opacity:0.1; fill:none" points="169.299,1002.89 2371.76,1002.89 "/>
<polyline clip-path="url(#clip142)" style="stroke:#000000; stroke-linecap:round; stroke-linejoin:round; stroke-width:1.99973; stroke-opacity:0.1; fill:none" points="169.299,692.492 2371.76,692.492 "/>
<polyline clip-path="url(#clip142)" style="stroke:#000000; stroke-linecap:round; stroke-linejoin:round; stroke-width:1.99973; stroke-opacity:0.1; fill:none" points="169.299,382.094 2371.76,382.094 "/>
<polyline clip-path="url(#clip142)" style="stroke:#000000; stroke-linecap:round; stroke-linejoin:round; stroke-width:1.99973; stroke-opacity:0.1; fill:none" points="169.299,71.6969 2371.76,71.6969 "/>
<polyline clip-path="url(#clip140)" style="stroke:#000000; stroke-linecap:round; stroke-linejoin:round; stroke-width:3.99945; stroke-opacity:1; fill:none" points="169.299,1350.16 169.299,47.2376 "/>
<polyline clip-path="url(#clip140)" style="stroke:#000000; stroke-linecap:round; stroke-linejoin:round; stroke-width:3.99945; stroke-opacity:1; fill:none" points="169.299,1313.29 188.195,1313.29 "/>
<polyline clip-path="url(#clip140)" style="stroke:#000000; stroke-linecap:round; stroke-linejoin:round; stroke-width:3.99945; stroke-opacity:1; fill:none" points="169.299,1002.89 188.195,1002.89 "/>
<polyline clip-path="url(#clip140)" style="stroke:#000000; stroke-linecap:round; stroke-linejoin:round; stroke-width:3.99945; stroke-opacity:1; fill:none" points="169.299,692.492 188.195,692.492 "/>
<polyline clip-path="url(#clip140)" style="stroke:#000000; stroke-linecap:round; stroke-linejoin:round; stroke-width:3.99945; stroke-opacity:1; fill:none" points="169.299,382.094 188.195,382.094 "/>
<polyline clip-path="url(#clip140)" style="stroke:#000000; stroke-linecap:round; stroke-linejoin:round; stroke-width:3.99945; stroke-opacity:1; fill:none" points="169.299,71.6969 188.195,71.6969 "/>
<path clip-path="url(#clip140)" d="M121.071 1299.09 Q117.46 1299.09 115.632 1302.65 Q113.826 1306.19 113.826 1313.32 Q113.826 1320.43 115.632 1323.99 Q117.46 1327.53 121.071 1327.53 Q124.705 1327.53 126.51 1323.99 Q128.339 1320.43 128.339 1313.32 Q128.339 1306.19 126.51 1302.65 Q124.705 1299.09 121.071 1299.09 M121.071 1295.38 Q126.881 1295.38 129.936 1299.99 Q133.014 1304.57 133.014 1313.32 Q133.014 1322.05 129.936 1326.65 Q126.881 1331.24 121.071 1331.24 Q115.261 1331.24 112.183 1326.65 Q109.128 1322.05 109.128 1313.32 Q109.128 1304.57 112.183 1299.99 Q115.261 1295.38 121.071 1295.38 Z" fill="#000000" fill-rule="evenodd" fill-opacity="1" /><path clip-path="url(#clip140)" d="M85.9351 1016.23 L102.253 1016.23 L102.253 1020.17 L80.3106 1020.17 L80.3106 1016.23 Q82.9724 1013.48 87.5554 1008.85 Q92.1614 1004.2 93.3419 1002.85 Q95.5871 1000.33 96.4666 998.596 Q97.3693 996.837 97.3693 995.148 Q97.3693 992.393 95.425 990.657 Q93.5039 988.922 90.4023 988.922 Q88.2034 988.922 85.75 989.685 Q83.3196 990.449 80.5421 992 L80.5421 987.278 Q83.3659 986.144 85.8194 985.566 Q88.2729 984.987 90.3097 984.987 Q95.6796 984.987 98.8738 987.672 Q102.068 990.357 102.068 994.847 Q102.068 996.976 101.258 998.897 Q100.471 1000.79 98.3646 1003.39 Q97.7859 1004.06 94.6844 1007.28 Q91.5828 1010.47 85.9351 1016.23 Z" fill="#000000" fill-rule="evenodd" fill-opacity="1" /><path clip-path="url(#clip140)" d="M112.113 985.612 L130.468 985.612 L130.468 989.546 L116.395 989.546 L116.395 998.017 Q117.414 997.67 118.432 997.508 Q119.451 997.323 120.469 997.323 Q126.256 997.323 129.635 1000.49 Q133.014 1003.66 133.014 1009.08 Q133.014 1014.66 129.542 1017.76 Q126.07 1020.84 119.752 1020.84 Q117.576 1020.84 115.308 1020.47 Q113.062 1020.1 110.655 1019.36 L110.655 1014.66 Q112.738 1015.79 114.96 1016.35 Q117.182 1016.9 119.659 1016.9 Q123.663 1016.9 126.001 1014.8 Q128.339 1012.69 128.339 1009.08 Q128.339 1005.47 126.001 1003.36 Q123.663 1001.26 119.659 1001.26 Q117.784 1001.26 115.909 1001.67 Q114.058 1002.09 112.113 1002.97 L112.113 985.612 Z" fill="#000000" fill-rule="evenodd" fill-opacity="1" /><path clip-path="url(#clip140)" d="M80.9587 675.214 L99.3136 675.214 L99.3136 679.149 L85.2407 679.149 L85.2407 687.62 Q86.2592 687.273 87.2776 687.111 Q88.296 686.926 89.3145 686.926 Q95.101 686.926 98.4803 690.096 Q101.86 693.267 101.86 698.683 Q101.86 704.261 98.3877 707.363 Q94.9158 710.441 88.5969 710.441 Q86.4212 710.441 84.1529 710.07 Q81.9077 709.7 79.5005 708.96 L79.5005 704.261 Q81.5837 705.395 83.8057 705.951 Q86.0277 706.506 88.5043 706.506 Q92.5086 706.506 94.8464 704.4 Q97.1841 702.294 97.1841 698.683 Q97.1841 695.073 94.8464 692.966 Q92.5086 690.86 88.5043 690.86 Q86.6295 690.86 84.7547 691.277 Q82.903 691.693 80.9587 692.573 L80.9587 675.214 Z" fill="#000000" fill-rule="evenodd" fill-opacity="1" /><path clip-path="url(#clip140)" d="M121.071 678.293 Q117.46 678.293 115.632 681.857 Q113.826 685.398 113.826 692.527 Q113.826 699.632 115.632 703.196 Q117.46 706.738 121.071 706.738 Q124.705 706.738 126.51 703.196 Q128.339 699.632 128.339 692.527 Q128.339 685.398 126.51 681.857 Q124.705 678.293 121.071 678.293 M121.071 674.589 Q126.881 674.589 129.936 679.195 Q133.014 683.778 133.014 692.527 Q133.014 701.252 129.936 705.858 Q126.881 710.441 121.071 710.441 Q115.261 710.441 112.183 705.858 Q109.128 701.252 109.128 692.527 Q109.128 683.778 112.183 679.195 Q115.261 674.589 121.071 674.589 Z" fill="#000000" fill-rule="evenodd" fill-opacity="1" /><path clip-path="url(#clip140)" d="M80.7273 364.817 L102.948 364.817 L102.948 366.807 L90.4023 399.372 L85.5185 399.372 L97.323 368.751 L80.7273 368.751 L80.7273 364.817 Z" fill="#000000" fill-rule="evenodd" fill-opacity="1" /><path clip-path="url(#clip140)" d="M112.113 364.817 L130.468 364.817 L130.468 368.751 L116.395 368.751 L116.395 377.222 Q117.414 376.875 118.432 376.713 Q119.451 376.528 120.469 376.528 Q126.256 376.528 129.635 379.699 Q133.014 382.87 133.014 388.286 Q133.014 393.864 129.542 396.965 Q126.07 400.043 119.752 400.043 Q117.576 400.043 115.308 399.673 Q113.062 399.303 110.655 398.562 L110.655 393.864 Q112.738 394.998 114.96 395.553 Q117.182 396.109 119.659 396.109 Q123.663 396.109 126.001 394.002 Q128.339 391.896 128.339 388.286 Q128.339 384.675 126.001 382.569 Q123.663 380.463 119.659 380.463 Q117.784 380.463 115.909 380.879 Q114.058 381.296 112.113 382.175 L112.113 364.817 Z" fill="#000000" fill-rule="evenodd" fill-opacity="1" /><path clip-path="url(#clip140)" d="M51.5632 85.04 L59.2014 85.04 L59.2014 58.678 L50.8919 60.3444 L50.8919 56.0857 L59.1551 54.4193 L63.8306 54.4193 L63.8306 85.04 L71.4688 85.04 L71.4688 88.9746 L51.5632 88.9746 L51.5632 85.04 Z" fill="#000000" fill-rule="evenodd" fill-opacity="1" /><path clip-path="url(#clip140)" d="M90.9115 57.4976 Q87.3007 57.4976 85.4722 61.0619 Q83.6668 64.603 83.6668 71.7317 Q83.6668 78.8371 85.4722 82.4014 Q87.3007 85.9426 90.9115 85.9426 Q94.5455 85.9426 96.3509 82.4014 Q98.1794 78.8371 98.1794 71.7317 Q98.1794 64.603 96.3509 61.0619 Q94.5455 57.4976 90.9115 57.4976 M90.9115 53.7944 Q96.7212 53.7944 99.7765 58.4002 Q102.855 62.9829 102.855 71.7317 Q102.855 80.4573 99.7765 85.0631 Q96.7212 89.6458 90.9115 89.6458 Q85.1019 89.6458 82.0234 85.0631 Q78.9682 80.4573 78.9682 71.7317 Q78.9682 62.9829 82.0234 58.4002 Q85.1019 53.7944 90.9115 53.7944 Z" fill="#000000" fill-rule="evenodd" fill-opacity="1" /><path clip-path="url(#clip140)" d="M121.071 57.4976 Q117.46 57.4976 115.632 61.0619 Q113.826 64.603 113.826 71.7317 Q113.826 78.8371 115.632 82.4014 Q117.46 85.9426 121.071 85.9426 Q124.705 85.9426 126.51 82.4014 Q128.339 78.8371 128.339 71.7317 Q128.339 64.603 126.51 61.0619 Q124.705 57.4976 121.071 57.4976 M121.071 53.7944 Q126.881 53.7944 129.936 58.4002 Q133.014 62.9829 133.014 71.7317 Q133.014 80.4573 129.936 85.0631 Q126.881 89.6458 121.071 89.6458 Q115.261 89.6458 112.183 85.0631 Q109.128 80.4573 109.128 71.7317 Q109.128 62.9829 112.183 58.4002 Q115.261 53.7944 121.071 53.7944 Z" fill="#000000" fill-rule="evenodd" fill-opacity="1" /><polyline clip-path="url(#clip142)" style="stroke:#009af9; stroke-linecap:round; stroke-linejoin:round; stroke-width:3.99945; stroke-opacity:1; fill:none" points="231.633,84.1128 260.582,96.5287 269.793,108.945 284.709,121.361 324.132,133.776 347.789,146.192 371.645,146.192 383.112,158.608 384.416,171.024 392.643,183.44 409.622,195.856 419.005,208.272 419.048,220.688 424.115,233.104 424.707,245.52 439.732,257.935 441.958,270.351 452.84,270.351 461.938,282.767 474.653,295.183 486.794,307.599 504.272,320.015 510.674,320.015 511.274,332.431 512.091,344.847 516.749,344.847 518.586,344.847 524.352,357.263 525.074,369.679 526.518,382.094 536.23,394.51 536.964,406.926 538.597,419.342 542.428,431.758 552.187,444.174 552.408,456.59 552.981,456.59 553.007,456.59 553.557,456.59 556.461,469.006 565.464,481.422 567.607,481.422 570.534,481.422 574.567,493.838 575.817,506.253 581.269,518.669 583.819,518.669 586.921,518.669 593.928,531.085 601.337,543.501 619.356,555.917 620.584,568.333 621.341,580.749 622.305,593.165 628.898,605.581 629.984,617.997 632.034,630.412 634.491,642.828 637.931,655.244 638.807,667.66 644.54,667.66 645.149,667.66 656.235,667.66 660.072,680.076 665.361,692.492 670.55,692.492 674.569,704.908 674.856,717.324 681.772,729.74 683.128,742.156 687.821,754.571 693.161,766.987 699.381,779.403 703.832,779.403 709.883,791.819 711.03,804.235 713.95,816.651 715.549,816.651 723.324,829.067 724.526,841.483 728.186,853.899 728.323,853.899 729.338,866.315 731.922,878.73 733.876,878.73 734.001,891.146 746.282,891.146 748.775,891.146 749.403,903.562 750.618,915.978 755.673,928.394 758.465,928.394 759.625,940.81 763.108,953.226 767.55,965.642 768.763,978.058 769.129,978.058 775.885,978.058 776.191,990.474 778.711,1002.89 783.536,1015.31 784.886,1027.72 793.134,1040.14 804.437,1052.55 804.516,1052.55 815.295,1052.55 818.492,1052.55 818.783,1064.97 822.323,1064.97 826.737,1077.38 828.261,1077.38 834.336,1089.8 847.998,1089.8 848.015,1089.8 854.738,1089.8 856.146,1102.22 869.01,1114.63 878.448,1114.63 881.723,1127.05 886.67,1127.05 887.073,1139.46 894.319,1139.46 898.232,1151.88 900.172,1164.3 907.754,1176.71 909.042,1176.71 910.715,1176.71 926.63,1189.13 948.339,1201.54 948.964,1213.96 951.312,1226.38 954.316,1226.38 980.746,1226.38 989.816,1226.38 993.27,1226.38 1002.45,1238.79 1002.67,1251.21 1029.65,1263.62 1037.61,1263.62 1039.15,1263.62 1044.91,1276.04 1046.7,1276.04 1048.97,1276.04 1050.02,1276.04 1054.07,1276.04 1056.07,1276.04 1058.69,1276.04 1059.55,1276.04 1065.34,1276.04 1068.58,1288.46 1070.08,1288.46 1073.48,1288.46 1078,1288.46 1083.99,1288.46 1098.69,1288.46 1103.94,1288.46 1106.67,1300.87 1107.17,1300.87 1107.6,1300.87 1110.88,1300.87 1115.52,1300.87 1118.01,1300.87 1141.82,1300.87 1145.3,1300.87 1151.47,1300.87 1151.53,1300.87 1161.56,1300.87 1183.15,1300.87 1192.61,1300.87 1194.11,1300.87 1223.39,1300.87 1235.43,1313.29 1263.44,1313.29 1279.56,1313.29 1295.29,1313.29 1334.11,1313.29 1349.32,1313.29 1400.15,1313.29 1409.34,1313.29 1431.7,1313.29 1498.37,1313.29 1545.21,1313.29 1560.49,1313.29 1624.49,1313.29 1624.69,1313.29 1690.72,1313.29 1709.6,1313.29 1713.28,1313.29 1720.59,1313.29 1745.17,1313.29 1754.6,1313.29 1883.59,1313.29 1926.07,1313.29 1939.36,1313.29 1983.42,1313.29 1987.09,1313.29 2139.68,1313.29 2309.43,1313.29 "/>
<polyline clip-path="url(#clip142)" style="stroke:#e26f46; stroke-linecap:round; stroke-linejoin:round; stroke-width:3.99945; stroke-opacity:1; fill:none" points="231.633,1300.87 260.582,1288.46 269.793,1276.04 284.709,1263.62 324.132,1251.21 347.789,1238.79 371.645,1251.21 383.112,1238.79 384.416,1226.38 392.643,1213.96 409.622,1201.54 419.005,1189.13 419.048,1176.71 424.115,1164.3 424.707,1151.88 439.732,1139.46 441.958,1127.05 452.84,1139.46 461.938,1127.05 474.653,1114.63 486.794,1102.22 504.272,1089.8 510.674,1102.22 511.274,1089.8 512.091,1077.38 516.749,1089.8 518.586,1102.22 524.352,1089.8 525.074,1077.38 526.518,1064.97 536.23,1052.55 536.964,1040.14 538.597,1027.72 542.428,1015.31 552.187,1002.89 552.408,990.474 552.981,1002.89 553.007,1015.31 553.557,1027.72 556.461,1015.31 565.464,1002.89 567.607,1015.31 570.534,1027.72 574.567,1015.31 575.817,1002.89 581.269,990.474 583.819,1002.89 586.921,1015.31 593.928,1002.89 601.337,990.474 619.356,978.058 620.584,965.642 621.341,953.226 622.305,940.81 628.898,928.394 629.984,915.978 632.034,903.562 634.491,891.146 637.931,878.73 638.807,866.315 644.54,878.73 645.149,891.146 656.235,903.562 660.072,891.146 665.361,878.73 670.55,891.146 674.569,878.73 674.856,866.315 681.772,853.899 683.128,841.483 687.821,829.067 693.161,816.651 699.381,804.235 703.832,816.651 709.883,804.235 711.03,791.819 713.95,779.403 715.549,791.819 723.324,779.403 724.526,766.987 728.186,754.571 728.323,766.987 729.338,754.571 731.922,742.156 733.876,754.571 734.001,742.156 746.282,754.571 748.775,766.987 749.403,754.571 750.618,742.156 755.673,729.74 758.465,742.156 759.625,729.74 763.108,717.324 767.55,704.908 768.763,692.492 769.129,704.908 775.885,717.324 776.191,704.908 778.711,692.492 783.536,680.076 784.886,667.66 793.134,655.244 804.437,642.828 804.516,655.244 815.295,667.66 818.492,680.076 818.783,667.66 822.323,680.076 826.737,667.66 828.261,680.076 834.336,667.66 847.998,680.076 848.015,692.492 854.738,704.908 856.146,692.492 869.01,680.076 878.448,692.492 881.723,680.076 886.67,692.492 887.073,680.076 894.319,692.492 898.232,680.076 900.172,667.66 907.754,655.244 909.042,667.66 910.715,680.076 926.63,667.66 948.339,655.244 948.964,642.828 951.312,630.412 954.316,642.828 980.746,655.244 989.816,667.66 993.27,680.076 1002.45,667.66 1002.67,655.244 1029.65,642.828 1037.61,655.244 1039.15,667.66 1044.91,655.244 1046.7,667.66 1048.97,680.076 1050.02,692.492 1054.07,704.908 1056.07,717.324 1058.69,729.74 1059.55,742.156 1065.34,754.571 1068.58,742.156 1070.08,754.571 1073.48,766.987 1078,779.403 1083.99,791.819 1098.69,804.235 1103.94,816.651 1106.67,804.235 1107.17,816.651 1107.6,829.067 1110.88,841.483 1115.52,853.899 1118.01,866.315 1141.82,878.73 1145.3,891.146 1151.47,903.562 1151.53,915.978 1161.56,928.394 1183.15,940.81 1192.61,953.226 1194.11,965.642 1223.39,978.058 1235.43,965.642 1263.44,978.058 1279.56,990.474 1295.29,1002.89 1334.11,1015.31 1349.32,1027.72 1400.15,1040.14 1409.34,1052.55 1431.7,1064.97 1498.37,1077.38 1545.21,1089.8 1560.49,1102.22 1624.49,1114.63 1624.69,1127.05 1690.72,1139.46 1709.6,1151.88 1713.28,1164.3 1720.59,1176.71 1745.17,1189.13 1754.6,1201.54 1883.59,1213.96 1926.07,1226.38 1939.36,1238.79 1983.42,1251.21 1987.09,1263.62 2139.68,1276.04 2309.43,1288.46 "/>
<polyline clip-path="url(#clip142)" style="stroke:#3da44d; stroke-linecap:round; stroke-linejoin:round; stroke-width:3.99945; stroke-opacity:1; fill:none" points="231.633,1313.29 260.582,1313.29 269.793,1313.29 284.709,1313.29 324.132,1313.29 347.789,1313.29 371.645,1300.87 383.112,1300.87 384.416,1300.87 392.643,1300.87 409.622,1300.87 419.005,1300.87 419.048,1300.87 424.115,1300.87 424.707,1300.87 439.732,1300.87 441.958,1300.87 452.84,1288.46 461.938,1288.46 474.653,1288.46 486.794,1288.46 504.272,1288.46 510.674,1276.04 511.274,1276.04 512.091,1276.04 516.749,1263.62 518.586,1251.21 524.352,1251.21 525.074,1251.21 526.518,1251.21 536.23,1251.21 536.964,1251.21 538.597,1251.21 542.428,1251.21 552.187,1251.21 552.408,1251.21 552.981,1238.79 553.007,1226.38 553.557,1213.96 556.461,1213.96 565.464,1213.96 567.607,1201.54 570.534,1189.13 574.567,1189.13 575.817,1189.13 581.269,1189.13 583.819,1176.71 586.921,1164.3 593.928,1164.3 601.337,1164.3 619.356,1164.3 620.584,1164.3 621.341,1164.3 622.305,1164.3 628.898,1164.3 629.984,1164.3 632.034,1164.3 634.491,1164.3 637.931,1164.3 638.807,1164.3 644.54,1151.88 645.149,1139.46 656.235,1127.05 660.072,1127.05 665.361,1127.05 670.55,1114.63 674.569,1114.63 674.856,1114.63 681.772,1114.63 683.128,1114.63 687.821,1114.63 693.161,1114.63 699.381,1114.63 703.832,1102.22 709.883,1102.22 711.03,1102.22 713.95,1102.22 715.549,1089.8 723.324,1089.8 724.526,1089.8 728.186,1089.8 728.323,1077.38 729.338,1077.38 731.922,1077.38 733.876,1064.97 734.001,1064.97 746.282,1052.55 748.775,1040.14 749.403,1040.14 750.618,1040.14 755.673,1040.14 758.465,1027.72 759.625,1027.72 763.108,1027.72 767.55,1027.72 768.763,1027.72 769.129,1015.31 775.885,1002.89 776.191,1002.89 778.711,1002.89 783.536,1002.89 784.886,1002.89 793.134,1002.89 804.437,1002.89 804.516,990.474 815.295,978.058 818.492,965.642 818.783,965.642 822.323,953.226 826.737,953.226 828.261,940.81 834.336,940.81 847.998,928.394 848.015,915.978 854.738,903.562 856.146,903.562 869.01,903.562 878.448,891.146 881.723,891.146 886.67,878.73 887.073,878.73 894.319,866.315 898.232,866.315 900.172,866.315 907.754,866.315 909.042,853.899 910.715,841.483 926.63,841.483 948.339,841.483 948.964,841.483 951.312,841.483 954.316,829.067 980.746,816.651 989.816,804.235 993.27,791.819 1002.45,791.819 1002.67,791.819 1029.65,791.819 1037.61,779.403 1039.15,766.987 1044.91,766.987 1046.7,754.571 1048.97,742.156 1050.02,729.74 1054.07,717.324 1056.07,704.908 1058.69,692.492 1059.55,680.076 1065.34,667.66 1068.58,667.66 1070.08,655.244 1073.48,642.828 1078,630.412 1083.99,617.997 1098.69,605.581 1103.94,593.165 1106.67,593.165 1107.17,580.749 1107.6,568.333 1110.88,555.917 1115.52,543.501 1118.01,531.085 1141.82,518.669 1145.3,506.253 1151.47,493.838 1151.53,481.422 1161.56,469.006 1183.15,456.59 1192.61,444.174 1194.11,431.758 1223.39,419.342 1235.43,419.342 1263.44,406.926 1279.56,394.51 1295.29,382.094 1334.11,369.679 1349.32,357.263 1400.15,344.847 1409.34,332.431 1431.7,320.015 1498.37,307.599 1545.21,295.183 1560.49,282.767 1624.49,270.351 1624.69,257.935 1690.72,245.52 1709.6,233.104 1713.28,220.688 1720.59,208.272 1745.17,195.856 1754.6,183.44 1883.59,171.024 1926.07,158.608 1939.36,146.192 1983.42,133.776 1987.09,121.361 2139.68,108.945 2309.43,96.5287 "/>
<path clip-path="url(#clip140)" d="M2025.09 298 L2298.34 298 L2298.34 90.6684 L2025.09 90.6684  Z" fill="#ffffff" fill-rule="evenodd" fill-opacity="1"/>
<polyline clip-path="url(#clip140)" style="stroke:#000000; stroke-linecap:round; stroke-linejoin:round; stroke-width:3.99945; stroke-opacity:1; fill:none" points="2025.09,298 2298.34,298 2298.34,90.6684 2025.09,90.6684 2025.09,298 "/>
<polyline clip-path="url(#clip140)" style="stroke:#009af9; stroke-linecap:round; stroke-linejoin:round; stroke-width:3.99945; stroke-opacity:1; fill:none" points="2049.57,142.501 2196.4,142.501 "/>
<path clip-path="url(#clip140)" d="M2234.71 162.186 Q2232.9 166.815 2231.19 168.227 Q2229.48 169.639 2226.61 169.639 L2223.21 169.639 L2223.21 166.074 L2225.71 166.074 Q2227.46 166.074 2228.44 165.241 Q2229.41 164.408 2230.59 161.307 L2231.35 159.362 L2220.87 133.857 L2225.38 133.857 L2233.48 154.132 L2241.58 133.857 L2246.1 133.857 L2234.71 162.186 Z" fill="#000000" fill-rule="evenodd" fill-opacity="1" /><path clip-path="url(#clip140)" d="M2253.39 155.844 L2261.03 155.844 L2261.03 129.482 L2252.72 131.149 L2252.72 126.89 L2260.98 125.224 L2265.66 125.224 L2265.66 155.844 L2273.29 155.844 L2273.29 159.779 L2253.39 159.779 L2253.39 155.844 Z" fill="#000000" fill-rule="evenodd" fill-opacity="1" /><polyline clip-path="url(#clip140)" style="stroke:#e26f46; stroke-linecap:round; stroke-linejoin:round; stroke-width:3.99945; stroke-opacity:1; fill:none" points="2049.57,194.334 2196.4,194.334 "/>
<path clip-path="url(#clip140)" d="M2234.71 214.019 Q2232.9 218.648 2231.19 220.06 Q2229.48 221.472 2226.61 221.472 L2223.21 221.472 L2223.21 217.907 L2225.71 217.907 Q2227.46 217.907 2228.44 217.074 Q2229.41 216.241 2230.59 213.139 L2231.35 211.195 L2220.87 185.69 L2225.38 185.69 L2233.48 205.965 L2241.58 185.69 L2246.1 185.69 L2234.71 214.019 Z" fill="#000000" fill-rule="evenodd" fill-opacity="1" /><path clip-path="url(#clip140)" d="M2256.61 207.677 L2272.92 207.677 L2272.92 211.612 L2250.98 211.612 L2250.98 207.677 Q2253.64 204.923 2258.23 200.294 Q2262.83 195.642 2264.01 194.3 Q2266.26 191.777 2267.14 190.041 Q2268.04 188.282 2268.04 186.592 Q2268.04 183.838 2266.1 182.102 Q2264.17 180.366 2261.07 180.366 Q2258.87 180.366 2256.42 181.13 Q2253.99 181.894 2251.21 183.445 L2251.21 178.723 Q2254.04 177.589 2256.49 177.01 Q2258.94 176.432 2260.98 176.432 Q2266.35 176.432 2269.54 179.116 Q2272.74 181.801 2272.74 186.291 Q2272.74 188.421 2271.93 190.342 Q2271.14 192.24 2269.04 194.832 Q2268.46 195.503 2265.35 198.72 Q2262.25 201.914 2256.61 207.677 Z" fill="#000000" fill-rule="evenodd" fill-opacity="1" /><polyline clip-path="url(#clip140)" style="stroke:#3da44d; stroke-linecap:round; stroke-linejoin:round; stroke-width:3.99945; stroke-opacity:1; fill:none" points="2049.57,246.167 2196.4,246.167 "/>
<path clip-path="url(#clip140)" d="M2234.71 265.852 Q2232.9 270.481 2231.19 271.893 Q2229.48 273.304 2226.61 273.304 L2223.21 273.304 L2223.21 269.74 L2225.71 269.74 Q2227.46 269.74 2228.44 268.907 Q2229.41 268.074 2230.59 264.972 L2231.35 263.028 L2220.87 237.523 L2225.38 237.523 L2233.48 257.797 L2241.58 237.523 L2246.1 237.523 L2234.71 265.852 Z" fill="#000000" fill-rule="evenodd" fill-opacity="1" /><path clip-path="url(#clip140)" d="M2266.74 244.813 Q2270.1 245.531 2271.97 247.799 Q2273.87 250.067 2273.87 253.4 Q2273.87 258.515 2270.35 261.315 Q2266.84 264.116 2260.36 264.116 Q2258.18 264.116 2255.87 263.676 Q2253.57 263.26 2251.12 262.403 L2251.12 257.89 Q2253.06 259.024 2255.38 259.603 Q2257.69 260.181 2260.22 260.181 Q2264.61 260.181 2266.91 258.445 Q2269.22 256.71 2269.22 253.4 Q2269.22 250.345 2267.07 248.632 Q2264.94 246.896 2261.12 246.896 L2257.09 246.896 L2257.09 243.054 L2261.3 243.054 Q2264.75 243.054 2266.58 241.689 Q2268.41 240.3 2268.41 237.708 Q2268.41 235.046 2266.51 233.634 Q2264.64 232.199 2261.12 232.199 Q2259.2 232.199 2257 232.616 Q2254.8 233.032 2252.16 233.912 L2252.16 229.746 Q2254.82 229.005 2257.14 228.635 Q2259.48 228.265 2261.54 228.265 Q2266.86 228.265 2269.96 230.695 Q2273.06 233.102 2273.06 237.222 Q2273.06 240.092 2271.42 242.082 Q2269.78 244.049 2266.74 244.813 Z" fill="#000000" fill-rule="evenodd" fill-opacity="1" /></svg>
