<?xml version="1.0" encoding="utf-8"?>
<svg xmlns="http://www.w3.org/2000/svg" xmlns:xlink="http://www.w3.org/1999/xlink" width="604.75" height="364.75" viewBox="0 0 2419 1459">
<defs>
  <clipPath id="clip960">
    <rect x="0" y="0" width="2419" height="1459"/>
  </clipPath>
</defs>
<path clip-path="url(#clip960)" d="M0 1459 L2419 1459 L2419 0 L0 0  Z" fill="#ffffff" fill-rule="evenodd" fill-opacity="1"/>
<defs>
  <clipPath id="clip961">
    <rect x="483" y="0" width="1694" height="1459"/>
  </clipPath>
</defs>
<path clip-path="url(#clip960)" d="M186.937 1350.16 L2371.76 1350.16 L2371.76 47.2376 L186.937 47.2376  Z" fill="#ffffff" fill-rule="evenodd" fill-opacity="1"/>
<defs>
  <clipPath id="clip962">
    <rect x="186" y="47" width="2186" height="1304"/>
  </clipPath>
</defs>
<polyline clip-path="url(#clip962)" style="stroke:#000000; stroke-linecap:round; stroke-linejoin:round; stroke-width:1.99973; stroke-opacity:0.1; fill:none" points="594.905,1350.16 594.905,47.2376 "/>
<polyline clip-path="url(#clip962)" style="stroke:#000000; stroke-linecap:round; stroke-linejoin:round; stroke-width:1.99973; stroke-opacity:0.1; fill:none" points="1005.57,1350.16 1005.57,47.2376 "/>
<polyline clip-path="url(#clip962)" style="stroke:#000000; stroke-linecap:round; stroke-linejoin:round; stroke-width:1.99973; stroke-opacity:0.1; fill:none" points="1416.24,1350.16 1416.24,47.2376 "/>
<polyline clip-path="url(#clip962)" style="stroke:#000000; stroke-linecap:round; stroke-linejoin:round; stroke-width:1.99973; stroke-opacity:0.1; fill:none" points="1826.9,1350.16 1826.9,47.2376 "/>
<polyline clip-path="url(#clip962)" style="stroke:#000000; stroke-linecap:round; stroke-linejoin:round; stroke-width:1.99973; stroke-opacity:0.1; fill:none" points="2237.57,1350.16 2237.57,47.2376 "/>
<polyline clip-path="url(#clip960)" style="stroke:#000000; stroke-linecap:round; stroke-linejoin:round; stroke-width:3.99945; stroke-opacity:1; fill:none" points="186.937,1350.16 2371.76,1350.16 "/>
<polyline clip-path="url(#clip960)" style="stroke:#000000; stroke-linecap:round; stroke-linejoin:round; stroke-width:3.99945; stroke-opacity:1; fill:none" points="594.905,1350.16 594.905,1331.27 "/>
<polyline clip-path="url(#clip960)" style="stroke:#000000; stroke-linecap:round; stroke-linejoin:round; stroke-width:3.99945; stroke-opacity:1; fill:none" points="1005.57,1350.16 1005.57,1331.27 "/>
<polyline clip-path="url(#clip960)" style="stroke:#000000; stroke-linecap:round; stroke-linejoin:round; stroke-width:3.99945; stroke-opacity:1; fill:none" points="1416.24,1350.16 1416.24,1331.27 "/>
<polyline clip-path="url(#clip960)" style="stroke:#000000; stroke-linecap:round; stroke-linejoin:round; stroke-width:3.99945; stroke-opacity:1; fill:none" points="1826.9,1350.16 1826.9,1331.27 "/>
<polyline clip-path="url(#clip960)" style="stroke:#000000; stroke-linecap:round; stroke-linejoin:round; stroke-width:3.99945; stroke-opacity:1; fill:none" points="2237.57,1350.16 2237.57,1331.27 "/>
<path clip-path="url(#clip960)" d="M594.905 1381.23 Q591.294 1381.23 589.465 1384.79 Q587.66 1388.34 587.66 1395.46 Q587.66 1402.57 589.465 1406.13 Q591.294 1409.68 594.905 1409.68 Q598.539 1409.68 600.344 1406.13 Q602.172 1402.57 602.172 1395.46 Q602.172 1388.34 600.344 1384.79 Q598.539 1381.23 594.905 1381.23 M594.905 1377.53 Q600.714 1377.53 603.77 1382.13 Q606.848 1386.72 606.848 1395.46 Q606.848 1404.19 603.77 1408.8 Q600.714 1413.38 594.905 1413.38 Q589.095 1413.38 586.017 1408.8 Q582.961 1404.19 582.961 1395.46 Q582.961 1386.72 586.017 1382.13 Q589.095 1377.53 594.905 1377.53 Z" fill="#000000" fill-rule="evenodd" fill-opacity="1" /><path clip-path="url(#clip960)" d="M994.414 1394.08 Q997.771 1394.79 999.645 1397.06 Q1001.54 1399.33 1001.54 1402.66 Q1001.54 1407.78 998.025 1410.58 Q994.507 1413.38 988.026 1413.38 Q985.85 1413.38 983.536 1412.94 Q981.244 1412.52 978.791 1411.67 L978.791 1407.15 Q980.735 1408.29 983.05 1408.87 Q985.364 1409.44 987.887 1409.44 Q992.285 1409.44 994.576 1407.71 Q996.891 1405.97 996.891 1402.66 Q996.891 1399.61 994.738 1397.89 Q992.609 1396.16 988.79 1396.16 L984.762 1396.16 L984.762 1392.32 L988.975 1392.32 Q992.424 1392.32 994.252 1390.95 Q996.081 1389.56 996.081 1386.97 Q996.081 1384.31 994.183 1382.9 Q992.308 1381.46 988.79 1381.46 Q986.869 1381.46 984.67 1381.88 Q982.471 1382.29 979.832 1383.17 L979.832 1379.01 Q982.494 1378.27 984.809 1377.9 Q987.146 1377.53 989.206 1377.53 Q994.53 1377.53 997.632 1379.96 Q1000.73 1382.36 1000.73 1386.48 Q1000.73 1389.35 999.09 1391.34 Q997.447 1393.31 994.414 1394.08 Z" fill="#000000" fill-rule="evenodd" fill-opacity="1" /><path clip-path="url(#clip960)" d="M1020.41 1381.23 Q1016.8 1381.23 1014.97 1384.79 Q1013.16 1388.34 1013.16 1395.46 Q1013.16 1402.57 1014.97 1406.13 Q1016.8 1409.68 1020.41 1409.68 Q1024.04 1409.68 1025.85 1406.13 Q1027.68 1402.57 1027.68 1395.46 Q1027.68 1388.34 1025.85 1384.79 Q1024.04 1381.23 1020.41 1381.23 M1020.41 1377.53 Q1026.22 1377.53 1029.27 1382.13 Q1032.35 1386.72 1032.35 1395.46 Q1032.35 1404.19 1029.27 1408.8 Q1026.22 1413.38 1020.41 1413.38 Q1014.6 1413.38 1011.52 1408.8 Q1008.46 1404.19 1008.46 1395.46 Q1008.46 1386.72 1011.52 1382.13 Q1014.6 1377.53 1020.41 1377.53 Z" fill="#000000" fill-rule="evenodd" fill-opacity="1" /><path clip-path="url(#clip960)" d="M1401.64 1393.57 Q1398.5 1393.57 1396.64 1395.72 Q1394.82 1397.87 1394.82 1401.62 Q1394.82 1405.35 1396.64 1407.52 Q1398.5 1409.68 1401.64 1409.68 Q1404.79 1409.68 1406.62 1407.52 Q1408.47 1405.35 1408.47 1401.62 Q1408.47 1397.87 1406.62 1395.72 Q1404.79 1393.57 1401.64 1393.57 M1410.92 1378.92 L1410.92 1383.17 Q1409.17 1382.34 1407.36 1381.9 Q1405.58 1381.46 1403.82 1381.46 Q1399.19 1381.46 1396.74 1384.59 Q1394.31 1387.71 1393.96 1394.03 Q1395.32 1392.02 1397.38 1390.95 Q1399.44 1389.86 1401.92 1389.86 Q1407.13 1389.86 1410.14 1393.03 Q1413.17 1396.18 1413.17 1401.62 Q1413.17 1406.94 1410.02 1410.16 Q1406.87 1413.38 1401.64 1413.38 Q1395.65 1413.38 1392.48 1408.8 Q1389.31 1404.19 1389.31 1395.46 Q1389.31 1387.27 1393.2 1382.41 Q1397.08 1377.53 1403.63 1377.53 Q1405.39 1377.53 1407.18 1377.87 Q1408.98 1378.22 1410.92 1378.92 Z" fill="#000000" fill-rule="evenodd" fill-opacity="1" /><path clip-path="url(#clip960)" d="M1431.22 1381.23 Q1427.61 1381.23 1425.78 1384.79 Q1423.98 1388.34 1423.98 1395.46 Q1423.98 1402.57 1425.78 1406.13 Q1427.61 1409.68 1431.22 1409.68 Q1434.86 1409.68 1436.66 1406.13 Q1438.49 1402.57 1438.49 1395.46 Q1438.49 1388.34 1436.66 1384.79 Q1434.86 1381.23 1431.22 1381.23 M1431.22 1377.53 Q1437.03 1377.53 1440.09 1382.13 Q1443.17 1386.72 1443.17 1395.46 Q1443.17 1404.19 1440.09 1408.8 Q1437.03 1413.38 1431.22 1413.38 Q1425.41 1413.38 1422.34 1408.8 Q1419.28 1404.19 1419.28 1395.46 Q1419.28 1386.72 1422.34 1382.13 Q1425.41 1377.53 1431.22 1377.53 Z" fill="#000000" fill-rule="evenodd" fill-opacity="1" /><path clip-path="url(#clip960)" d="M1802.03 1411.99 L1802.03 1407.73 Q1803.79 1408.56 1805.6 1409 Q1807.4 1409.44 1809.14 1409.44 Q1813.77 1409.44 1816.2 1406.34 Q1818.65 1403.22 1819 1396.88 Q1817.66 1398.87 1815.6 1399.93 Q1813.54 1401 1811.04 1401 Q1805.85 1401 1802.82 1397.87 Q1799.81 1394.72 1799.81 1389.28 Q1799.81 1383.96 1802.96 1380.74 Q1806.11 1377.53 1811.34 1377.53 Q1817.33 1377.53 1820.48 1382.13 Q1823.65 1386.72 1823.65 1395.46 Q1823.65 1403.63 1819.76 1408.52 Q1815.9 1413.38 1809.35 1413.38 Q1807.59 1413.38 1805.78 1413.03 Q1803.98 1412.68 1802.03 1411.99 M1811.34 1397.34 Q1814.49 1397.34 1816.31 1395.19 Q1818.17 1393.03 1818.17 1389.28 Q1818.17 1385.56 1816.31 1383.41 Q1814.49 1381.23 1811.34 1381.23 Q1808.19 1381.23 1806.34 1383.41 Q1804.51 1385.56 1804.51 1389.28 Q1804.51 1393.03 1806.34 1395.19 Q1808.19 1397.34 1811.34 1397.34 Z" fill="#000000" fill-rule="evenodd" fill-opacity="1" /><path clip-path="url(#clip960)" d="M1842.05 1381.23 Q1838.44 1381.23 1836.61 1384.79 Q1834.81 1388.34 1834.81 1395.46 Q1834.81 1402.57 1836.61 1406.13 Q1838.44 1409.68 1842.05 1409.68 Q1845.69 1409.68 1847.49 1406.13 Q1849.32 1402.57 1849.32 1395.46 Q1849.32 1388.34 1847.49 1384.79 Q1845.69 1381.23 1842.05 1381.23 M1842.05 1377.53 Q1847.86 1377.53 1850.92 1382.13 Q1854 1386.72 1854 1395.46 Q1854 1404.19 1850.92 1408.8 Q1847.86 1413.38 1842.05 1413.38 Q1836.24 1413.38 1833.16 1408.8 Q1830.11 1404.19 1830.11 1395.46 Q1830.11 1386.72 1833.16 1382.13 Q1836.24 1377.53 1842.05 1377.53 Z" fill="#000000" fill-rule="evenodd" fill-opacity="1" /><path clip-path="url(#clip960)" d="M2197.18 1408.77 L2204.82 1408.77 L2204.82 1382.41 L2196.51 1384.08 L2196.51 1379.82 L2204.77 1378.15 L2209.45 1378.15 L2209.45 1408.77 L2217.08 1408.77 L2217.08 1412.71 L2197.18 1412.71 L2197.18 1408.77 Z" fill="#000000" fill-rule="evenodd" fill-opacity="1" /><path clip-path="url(#clip960)" d="M2230.56 1408.77 L2246.87 1408.77 L2246.87 1412.71 L2224.93 1412.71 L2224.93 1408.77 Q2227.59 1406.02 2232.18 1401.39 Q2236.78 1396.74 2237.96 1395.39 Q2240.21 1392.87 2241.09 1391.14 Q2241.99 1389.38 2241.99 1387.69 Q2241.99 1384.93 2240.05 1383.2 Q2238.12 1381.46 2235.02 1381.46 Q2232.82 1381.46 2230.37 1382.23 Q2227.94 1382.99 2225.16 1384.54 L2225.16 1379.82 Q2227.99 1378.68 2230.44 1378.11 Q2232.89 1377.53 2234.93 1377.53 Q2240.3 1377.53 2243.49 1380.21 Q2246.69 1382.9 2246.69 1387.39 Q2246.69 1389.52 2245.88 1391.44 Q2245.09 1393.34 2242.99 1395.93 Q2242.41 1396.6 2239.31 1399.82 Q2236.2 1403.01 2230.56 1408.77 Z" fill="#000000" fill-rule="evenodd" fill-opacity="1" /><path clip-path="url(#clip960)" d="M2266.69 1381.23 Q2263.08 1381.23 2261.25 1384.79 Q2259.44 1388.34 2259.44 1395.46 Q2259.44 1402.57 2261.25 1406.13 Q2263.08 1409.68 2266.69 1409.68 Q2270.32 1409.68 2272.13 1406.13 Q2273.95 1402.57 2273.95 1395.46 Q2273.95 1388.34 2272.13 1384.79 Q2270.32 1381.23 2266.69 1381.23 M2266.69 1377.53 Q2272.5 1377.53 2275.55 1382.13 Q2278.63 1386.72 2278.63 1395.46 Q2278.63 1404.19 2275.55 1408.8 Q2272.5 1413.38 2266.69 1413.38 Q2260.88 1413.38 2257.8 1408.8 Q2254.74 1404.19 2254.74 1395.46 Q2254.74 1386.72 2257.8 1382.13 Q2260.88 1377.53 2266.69 1377.53 Z" fill="#000000" fill-rule="evenodd" fill-opacity="1" /><polyline clip-path="url(#clip962)" style="stroke:#000000; stroke-linecap:round; stroke-linejoin:round; stroke-width:1.99973; stroke-opacity:0.1; fill:none" points="186.937,1313.31 2371.76,1313.31 "/>
<polyline clip-path="url(#clip962)" style="stroke:#000000; stroke-linecap:round; stroke-linejoin:round; stroke-width:1.99973; stroke-opacity:0.1; fill:none" points="186.937,1020.42 2371.76,1020.42 "/>
<polyline clip-path="url(#clip962)" style="stroke:#000000; stroke-linecap:round; stroke-linejoin:round; stroke-width:1.99973; stroke-opacity:0.1; fill:none" points="186.937,727.532 2371.76,727.532 "/>
<polyline clip-path="url(#clip962)" style="stroke:#000000; stroke-linecap:round; stroke-linejoin:round; stroke-width:1.99973; stroke-opacity:0.1; fill:none" points="186.937,434.642 2371.76,434.642 "/>
<polyline clip-path="url(#clip962)" style="stroke:#000000; stroke-linecap:round; stroke-linejoin:round; stroke-width:1.99973; stroke-opacity:0.1; fill:none" points="186.937,141.752 2371.76,141.752 "/>
<polyline clip-path="url(#clip960)" style="stroke:#000000; stroke-linecap:round; stroke-linejoin:round; stroke-width:3.99945; stroke-opacity:1; fill:none" points="186.937,1350.16 186.937,47.2376 "/>
<polyline clip-path="url(#clip960)" style="stroke:#000000; stroke-linecap:round; stroke-linejoin:round; stroke-width:3.99945; stroke-opacity:1; fill:none" points="186.937,1313.31 205.833,1313.31 "/>
<polyline clip-path="url(#clip960)" style="stroke:#000000; stroke-linecap:round; stroke-linejoin:round; stroke-width:3.99945; stroke-opacity:1; fill:none" points="186.937,1020.42 205.833,1020.42 "/>
<polyline clip-path="url(#clip960)" style="stroke:#000000; stroke-linecap:round; stroke-linejoin:round; stroke-width:3.99945; stroke-opacity:1; fill:none" points="186.937,727.532 205.833,727.532 "/>
<polyline clip-path="url(#clip960)" style="stroke:#000000; stroke-linecap:round; stroke-linejoin:round; stroke-width:3.99945; stroke-opacity:1; fill:none" points="186.937,434.642 205.833,434.642 "/>
<polyline clip-path="url(#clip960)" style="stroke:#000000; stroke-linecap:round; stroke-linejoin:round; stroke-width:3.99945; stroke-opacity:1; fill:none" points="186.937,141.752 205.833,141.752 "/>
<path clip-path="url(#clip960)" d="M63.3214 1299.11 Q59.7106 1299.11 57.882 1302.68 Q56.0766 1306.22 56.0766 1313.35 Q56.0766 1320.45 57.882 1324.02 Q59.7106 1327.56 63.3214 1327.56 Q66.9553 1327.56 68.7607 1324.02 Q70.5893 1320.45 70.5893 1313.35 Q70.5893 1306.22 68.7607 1302.68 Q66.9553 1299.11 63.3214 1299.11 M63.3214 1295.41 Q69.1311 1295.41 72.1863 1300.01 Q75.2648 1304.6 75.2648 1313.35 Q75.2648 1322.07 72.1863 1326.68 Q69.1311 1331.26 63.3214 1331.26 Q57.5117 1331.26 54.4333 1326.68 Q51.378 1322.07 51.378 1313.35 Q51.378 1304.6 54.4333 1300.01 Q57.5117 1295.41 63.3214 1295.41 Z" fill="#000000" fill-rule="evenodd" fill-opacity="1" /><path clip-path="url(#clip960)" d="M83.4816 1324.71 L88.3655 1324.71 L88.3655 1330.59 L83.4816 1330.59 L83.4816 1324.71 Z" fill="#000000" fill-rule="evenodd" fill-opacity="1" /><path clip-path="url(#clip960)" d="M108.549 1299.11 Q104.938 1299.11 103.11 1302.68 Q101.304 1306.22 101.304 1313.35 Q101.304 1320.45 103.11 1324.02 Q104.938 1327.56 108.549 1327.56 Q112.183 1327.56 113.988 1324.02 Q115.817 1320.45 115.817 1313.35 Q115.817 1306.22 113.988 1302.68 Q112.183 1299.11 108.549 1299.11 M108.549 1295.41 Q114.359 1295.41 117.414 1300.01 Q120.492 1304.6 120.492 1313.35 Q120.492 1322.07 117.414 1326.68 Q114.359 1331.26 108.549 1331.26 Q102.739 1331.26 99.6608 1326.68 Q96.6055 1322.07 96.6055 1313.35 Q96.6055 1304.6 99.6608 1300.01 Q102.739 1295.41 108.549 1295.41 Z" fill="#000000" fill-rule="evenodd" fill-opacity="1" /><path clip-path="url(#clip960)" d="M138.708 1299.11 Q135.097 1299.11 133.269 1302.68 Q131.464 1306.22 131.464 1313.35 Q131.464 1320.45 133.269 1324.02 Q135.097 1327.56 138.708 1327.56 Q142.342 1327.56 144.148 1324.02 Q145.976 1320.45 145.976 1313.35 Q145.976 1306.22 144.148 1302.68 Q142.342 1299.11 138.708 1299.11 M138.708 1295.41 Q144.518 1295.41 147.573 1300.01 Q150.652 1304.6 150.652 1313.35 Q150.652 1322.07 147.573 1326.68 Q144.518 1331.26 138.708 1331.26 Q132.899 1331.26 129.82 1326.68 Q126.765 1322.07 126.765 1313.35 Q126.765 1304.6 129.82 1300.01 Q132.899 1295.41 138.708 1295.41 Z" fill="#000000" fill-rule="evenodd" fill-opacity="1" /><path clip-path="url(#clip960)" d="M64.5481 1006.22 Q60.9373 1006.22 59.1088 1009.79 Q57.3034 1013.33 57.3034 1020.46 Q57.3034 1027.56 59.1088 1031.13 Q60.9373 1034.67 64.5481 1034.67 Q68.1821 1034.67 69.9875 1031.13 Q71.816 1027.56 71.816 1020.46 Q71.816 1013.33 69.9875 1009.79 Q68.1821 1006.22 64.5481 1006.22 M64.5481 1002.52 Q70.3578 1002.52 73.4131 1007.12 Q76.4915 1011.71 76.4915 1020.46 Q76.4915 1029.18 73.4131 1033.79 Q70.3578 1038.37 64.5481 1038.37 Q58.7384 1038.37 55.66 1033.79 Q52.6047 1029.18 52.6047 1020.46 Q52.6047 1011.71 55.66 1007.12 Q58.7384 1002.52 64.5481 1002.52 Z" fill="#000000" fill-rule="evenodd" fill-opacity="1" /><path clip-path="url(#clip960)" d="M84.7084 1031.82 L89.5922 1031.82 L89.5922 1037.7 L84.7084 1037.7 L84.7084 1031.82 Z" fill="#000000" fill-rule="evenodd" fill-opacity="1" /><path clip-path="url(#clip960)" d="M109.776 1006.22 Q106.165 1006.22 104.336 1009.79 Q102.531 1013.33 102.531 1020.46 Q102.531 1027.56 104.336 1031.13 Q106.165 1034.67 109.776 1034.67 Q113.41 1034.67 115.215 1031.13 Q117.044 1027.56 117.044 1020.46 Q117.044 1013.33 115.215 1009.79 Q113.41 1006.22 109.776 1006.22 M109.776 1002.52 Q115.585 1002.52 118.641 1007.12 Q121.719 1011.71 121.719 1020.46 Q121.719 1029.18 118.641 1033.79 Q115.585 1038.37 109.776 1038.37 Q103.966 1038.37 100.888 1033.79 Q97.8322 1029.18 97.8322 1020.46 Q97.8322 1011.71 100.888 1007.12 Q103.966 1002.52 109.776 1002.52 Z" fill="#000000" fill-rule="evenodd" fill-opacity="1" /><path clip-path="url(#clip960)" d="M130.746 1033.76 L138.384 1033.76 L138.384 1007.4 L130.075 1009.07 L130.075 1004.81 L138.338 1003.14 L143.013 1003.14 L143.013 1033.76 L150.652 1033.76 L150.652 1037.7 L130.746 1037.7 L130.746 1033.76 Z" fill="#000000" fill-rule="evenodd" fill-opacity="1" /><path clip-path="url(#clip960)" d="M64.9185 713.332 Q61.3077 713.332 59.4791 716.896 Q57.6737 720.438 57.6737 727.566 Q57.6737 734.672 59.4791 738.236 Q61.3077 741.777 64.9185 741.777 Q68.5524 741.777 70.3578 738.236 Q72.1863 734.672 72.1863 727.566 Q72.1863 720.438 70.3578 716.896 Q68.5524 713.332 64.9185 713.332 M64.9185 709.629 Q70.7281 709.629 73.7834 714.235 Q76.8619 718.818 76.8619 727.566 Q76.8619 736.292 73.7834 740.898 Q70.7281 745.48 64.9185 745.48 Q59.1088 745.48 56.0304 740.898 Q52.9751 736.292 52.9751 727.566 Q52.9751 718.818 56.0304 714.235 Q59.1088 709.629 64.9185 709.629 Z" fill="#000000" fill-rule="evenodd" fill-opacity="1" /><path clip-path="url(#clip960)" d="M85.0787 738.93 L89.9626 738.93 L89.9626 744.809 L85.0787 744.809 L85.0787 738.93 Z" fill="#000000" fill-rule="evenodd" fill-opacity="1" /><path clip-path="url(#clip960)" d="M110.146 713.332 Q106.535 713.332 104.707 716.896 Q102.901 720.438 102.901 727.566 Q102.901 734.672 104.707 738.236 Q106.535 741.777 110.146 741.777 Q113.78 741.777 115.585 738.236 Q117.414 734.672 117.414 727.566 Q117.414 720.438 115.585 716.896 Q113.78 713.332 110.146 713.332 M110.146 709.629 Q115.956 709.629 119.011 714.235 Q122.089 718.818 122.089 727.566 Q122.089 736.292 119.011 740.898 Q115.956 745.48 110.146 745.48 Q104.336 745.48 101.258 740.898 Q98.2026 736.292 98.2026 727.566 Q98.2026 718.818 101.258 714.235 Q104.336 709.629 110.146 709.629 Z" fill="#000000" fill-rule="evenodd" fill-opacity="1" /><path clip-path="url(#clip960)" d="M134.334 740.875 L150.652 740.875 L150.652 744.809 L128.709 744.809 L128.709 740.875 Q131.371 738.12 135.954 733.491 Q140.56 728.839 141.74 727.497 Q143.986 724.974 144.865 723.238 Q145.768 721.479 145.768 719.79 Q145.768 717.035 143.824 715.299 Q141.902 713.564 138.801 713.564 Q136.602 713.564 134.148 714.327 Q131.718 715.091 128.941 716.642 L128.941 711.92 Q131.764 710.786 134.218 710.208 Q136.671 709.629 138.708 709.629 Q144.078 709.629 147.272 712.314 Q150.466 714.999 150.466 719.489 Q150.466 721.618 149.656 723.539 Q148.869 725.437 146.763 728.029 Q146.184 728.7 143.083 731.917 Q139.981 735.111 134.334 740.875 Z" fill="#000000" fill-rule="evenodd" fill-opacity="1" /><path clip-path="url(#clip960)" d="M63.9695 420.442 Q60.3587 420.442 58.5301 424.007 Q56.7247 427.548 56.7247 434.677 Q56.7247 441.782 58.5301 445.346 Q60.3587 448.887 63.9695 448.887 Q67.6034 448.887 69.4088 445.346 Q71.2373 441.782 71.2373 434.677 Q71.2373 427.548 69.4088 424.007 Q67.6034 420.442 63.9695 420.442 M63.9695 416.739 Q69.7791 416.739 72.8344 421.345 Q75.9129 425.928 75.9129 434.677 Q75.9129 443.402 72.8344 448.008 Q69.7791 452.591 63.9695 452.591 Q58.1598 452.591 55.0814 448.008 Q52.0261 443.402 52.0261 434.677 Q52.0261 425.928 55.0814 421.345 Q58.1598 416.739 63.9695 416.739 Z" fill="#000000" fill-rule="evenodd" fill-opacity="1" /><path clip-path="url(#clip960)" d="M84.1297 446.041 L89.0136 446.041 L89.0136 451.919 L84.1297 451.919 L84.1297 446.041 Z" fill="#000000" fill-rule="evenodd" fill-opacity="1" /><path clip-path="url(#clip960)" d="M109.197 420.442 Q105.586 420.442 103.758 424.007 Q101.952 427.548 101.952 434.677 Q101.952 441.782 103.758 445.346 Q105.586 448.887 109.197 448.887 Q112.831 448.887 114.636 445.346 Q116.465 441.782 116.465 434.677 Q116.465 427.548 114.636 424.007 Q112.831 420.442 109.197 420.442 M109.197 416.739 Q115.007 416.739 118.062 421.345 Q121.14 425.928 121.14 434.677 Q121.14 443.402 118.062 448.008 Q115.007 452.591 109.197 452.591 Q103.387 452.591 100.309 448.008 Q97.2536 443.402 97.2536 434.677 Q97.2536 425.928 100.309 421.345 Q103.387 416.739 109.197 416.739 Z" fill="#000000" fill-rule="evenodd" fill-opacity="1" /><path clip-path="url(#clip960)" d="M143.523 433.288 Q146.879 434.005 148.754 436.274 Q150.652 438.542 150.652 441.875 Q150.652 446.99 147.133 449.79 Q143.615 452.591 137.134 452.591 Q134.959 452.591 132.644 452.151 Q130.353 451.734 127.899 450.878 L127.899 446.365 Q129.843 447.499 132.158 448.077 Q134.473 448.656 136.995 448.656 Q141.393 448.656 143.685 446.92 Q145.999 445.184 145.999 441.875 Q145.999 438.819 143.847 437.107 Q141.717 435.371 137.898 435.371 L133.871 435.371 L133.871 431.529 L138.083 431.529 Q141.532 431.529 143.361 430.163 Q145.189 428.775 145.189 426.182 Q145.189 423.521 143.291 422.109 Q141.416 420.674 137.898 420.674 Q135.977 420.674 133.778 421.091 Q131.579 421.507 128.941 422.387 L128.941 418.221 Q131.602 417.48 133.917 417.11 Q136.255 416.739 138.315 416.739 Q143.638 416.739 146.74 419.169 Q149.842 421.577 149.842 425.696 Q149.842 428.566 148.198 430.557 Q146.555 432.524 143.523 433.288 Z" fill="#000000" fill-rule="evenodd" fill-opacity="1" /><path clip-path="url(#clip960)" d="M62.8353 127.553 Q59.2245 127.553 57.396 131.117 Q55.5906 134.658 55.5906 141.787 Q55.5906 148.892 57.396 152.457 Q59.2245 155.998 62.8353 155.998 Q66.4693 155.998 68.2746 152.457 Q70.1032 148.892 70.1032 141.787 Q70.1032 134.658 68.2746 131.117 Q66.4693 127.553 62.8353 127.553 M62.8353 123.85 Q68.645 123.85 71.7003 128.455 Q74.7787 133.038 74.7787 141.787 Q74.7787 150.512 71.7003 155.118 Q68.645 159.701 62.8353 159.701 Q57.0256 159.701 53.9472 155.118 Q50.8919 150.512 50.8919 141.787 Q50.8919 133.038 53.9472 128.455 Q57.0256 123.85 62.8353 123.85 Z" fill="#000000" fill-rule="evenodd" fill-opacity="1" /><path clip-path="url(#clip960)" d="M82.9956 153.151 L87.8794 153.151 L87.8794 159.03 L82.9956 159.03 L82.9956 153.151 Z" fill="#000000" fill-rule="evenodd" fill-opacity="1" /><path clip-path="url(#clip960)" d="M108.063 127.553 Q104.452 127.553 102.623 131.117 Q100.818 134.658 100.818 141.787 Q100.818 148.892 102.623 152.457 Q104.452 155.998 108.063 155.998 Q111.697 155.998 113.502 152.457 Q115.331 148.892 115.331 141.787 Q115.331 134.658 113.502 131.117 Q111.697 127.553 108.063 127.553 M108.063 123.85 Q113.872 123.85 116.928 128.455 Q120.006 133.038 120.006 141.787 Q120.006 150.512 116.928 155.118 Q113.872 159.701 108.063 159.701 Q102.253 159.701 99.1747 155.118 Q96.1194 150.512 96.1194 141.787 Q96.1194 133.038 99.1747 128.455 Q102.253 123.85 108.063 123.85 Z" fill="#000000" fill-rule="evenodd" fill-opacity="1" /><path clip-path="url(#clip960)" d="M141.069 128.548 L129.265 146.994 L141.069 146.994 L141.069 128.548 M139.842 124.474 L145.722 124.474 L145.722 146.994 L150.652 146.994 L150.652 150.883 L145.722 150.883 L145.722 159.03 L141.069 159.03 L141.069 150.883 L125.469 150.883 L125.469 146.369 L139.842 124.474 Z" fill="#000000" fill-rule="evenodd" fill-opacity="1" /><polyline clip-path="url(#clip962)" style="stroke:#009af9; stroke-linecap:round; stroke-linejoin:round; stroke-width:3.99945; stroke-opacity:1; fill:none" points="457.147,1313.28 462.865,1313.28 468.583,1313.27 474.301,1313.25 480.019,1313.22 485.737,1313.18 491.456,1313.12 497.174,1313.04 502.892,1312.92 508.61,1312.76 514.328,1312.55 520.046,1312.26 525.765,1311.88 531.483,1311.38 537.201,1310.74 542.919,1309.94 548.637,1308.93 554.355,1307.68 560.074,1306.15 565.792,1304.32 571.51,1302.15 577.228,1299.61 582.946,1296.68 588.664,1293.35 594.383,1289.62 600.101,1285.49 605.819,1281 611.537,1276.2 617.255,1271.14 622.973,1265.91 628.692,1260.59 634.41,1255.3 640.128,1250.14 645.846,1245.24 651.564,1240.72 657.282,1236.69 663.001,1233.26 668.719,1230.5 674.437,1228.5 680.155,1227.28 685.873,1226.87 691.591,1227.23 697.31,1228.32 703.028,1230.06 708.746,1232.34 714.464,1235.03 720.182,1237.96 725.9,1240.98 731.619,1243.91 737.337,1246.56 743.055,1248.78 748.773,1250.41 754.491,1251.3 760.209,1251.36 765.928,1250.5 771.646,1248.68 777.364,1245.88 783.082,1242.14 788.8,1237.51 794.518,1232.06 800.237,1225.92 805.955,1219.19 811.673,1212 817.391,1204.5 823.109,1196.81 828.827,1189.05 834.546,1181.32 840.264,1173.71 845.982,1166.29 851.7,1159.12 857.418,1152.24 863.136,1145.67 868.855,1139.44 874.573,1133.56 880.291,1128.02 886.009,1122.85 891.727,1118.01 897.445,1113.49 903.164,1109.27 908.882,1105.27 914.6,1101.42 920.318,1097.63 926.036,1093.74 931.754,1089.62 937.473,1085.07 943.191,1079.92 948.909,1073.96 954.627,1067 960.345,1058.88 966.063,1049.45 971.782,1038.61 977.5,1026.31 983.218,1012.54 988.936,997.345 994.654,980.822 1000.37,963.101 1006.09,944.338 1011.81,924.706 1017.53,904.379 1023.25,883.514 1028.96,862.245 1034.68,840.669 1040.4,818.844 1046.12,796.785 1051.84,774.467 1057.55,751.835 1063.27,728.812 1068.99,705.315 1074.71,681.262 1080.43,656.594 1086.14,631.279 1091.86,605.325 1097.58,578.782 1103.3,551.744 1109.02,524.343 1114.74,496.742 1120.45,469.127 1126.17,441.69 1131.89,414.621 1137.61,388.093 1143.33,362.256 1149.04,337.228 1154.76,313.093 1160.48,289.906 1166.2,267.693 1171.92,246.463 1177.64,226.216 1183.35,206.953 1189.07,188.689 1194.79,171.458 1200.51,155.326 1206.23,140.389 1211.94,126.781 1217.66,114.666 1223.38,104.241 1229.1,95.7274 1234.82,89.3665 1240.54,85.4098 1246.25,84.1128 1251.97,85.7268 1257.69,90.4904 1263.41,98.6221 1269.13,110.312 1274.84,125.713 1280.56,144.936 1286.28,168.04 1292,195.025 1297.72,225.828 1303.44,260.319 1309.15,298.297 1314.87,339.495 1320.59,383.578 1326.31,430.151 1332.03,478.769 1337.74,528.948 1343.46,580.175 1349.18,631.926 1354.9,683.678 1360.62,734.923 1366.33,785.182 1372.05,834.015 1377.77,881.033 1383.49,925.899 1389.21,968.338 1394.93,1008.14 1400.64,1045.14 1406.36,1079.26 1412.08,1110.45 1417.8,1138.72 1423.52,1164.15 1429.23,1186.81 1434.95,1206.84 1440.67,1224.39 1446.39,1239.64 1452.11,1252.77 1457.83,1263.97 1463.54,1273.44 1469.26,1281.38 1474.98,1287.96 1480.7,1293.37 1486.42,1297.76 1492.13,1301.31 1497.85,1304.13 1503.57,1306.36 1509.29,1308.1 1515.01,1309.44 1520.73,1310.47 1526.44,1311.24 1532.16,1311.82 1537.88,1312.25 1543.6,1312.56 1549.32,1312.79 1555.03,1312.95 1560.75,1313.07 1566.47,1313.15 1572.19,1313.2 1577.91,1313.24 1583.63,1313.26 1589.34,1313.27 1595.06,1313.28 "/>
<polyline clip-path="url(#clip962)" style="stroke:#e26f46; stroke-linecap:round; stroke-linejoin:round; stroke-width:3.99945; stroke-opacity:1; fill:none" points="348.742,1313.29 354.724,1313.28 360.706,1313.28 366.688,1313.27 372.671,1313.25 378.653,1313.23 384.635,1313.21 390.617,1313.17 396.599,1313.12 402.582,1313.05 408.564,1312.96 414.546,1312.84 420.528,1312.69 426.51,1312.49 432.493,1312.25 438.475,1311.94 444.457,1311.55 450.439,1311.06 456.421,1310.47 462.404,1309.74 468.386,1308.86 474.368,1307.79 480.35,1306.52 486.332,1305.01 492.315,1303.22 498.297,1301.13 504.279,1298.69 510.261,1295.88 516.243,1292.64 522.226,1288.93 528.208,1284.73 534.19,1279.97 540.172,1274.63 546.154,1268.67 552.137,1262.04 558.119,1254.71 564.101,1246.65 570.083,1237.84 576.065,1228.25 582.048,1217.87 588.03,1206.7 594.012,1194.72 599.994,1181.95 605.976,1168.41 611.959,1154.12 617.941,1139.11 623.923,1123.43 629.905,1107.12 635.887,1090.23 641.87,1072.82 647.852,1054.97 653.834,1036.72 659.816,1018.16 665.798,999.353 671.781,980.37 677.763,961.284 683.745,942.171 689.727,923.11 695.709,904.182 701.692,885.473 707.674,867.075 713.656,849.083 719.638,831.601 725.62,814.734 731.603,798.593 737.585,783.287 743.567,768.923 749.549,755.602 755.532,743.41 761.514,732.419 767.496,722.677 773.478,714.206 779.46,707 785.443,701.017 791.425,696.183 797.407,692.389 803.389,689.496 809.371,687.335 815.354,685.718 821.336,684.439 827.318,683.284 833.3,682.041 839.282,680.508 845.265,678.496 851.247,675.842 857.229,672.414 863.211,668.112 869.193,662.874 875.176,656.675 881.158,649.526 887.14,641.475 893.122,632.598 899.104,622.995 905.087,612.79 911.069,602.119 917.051,591.126 923.033,579.96 929.015,568.769 934.998,557.696 940.98,546.879 946.962,536.446 952.944,526.519 958.926,517.21 964.909,508.625 970.891,500.863 976.873,494.017 982.855,488.178 988.837,483.43 994.82,479.856 1000.8,477.531 1006.78,476.524 1012.77,476.895 1018.75,478.691 1024.73,481.945 1030.71,486.671 1036.69,492.866 1042.68,500.501 1048.66,509.524 1054.64,519.861 1060.62,531.415 1066.61,544.066 1072.59,557.678 1078.57,572.101 1084.55,587.176 1090.53,602.743 1096.52,618.64 1102.5,634.718 1108.48,650.839 1114.46,666.884 1120.45,682.756 1126.43,698.382 1132.41,713.717 1138.39,728.742 1144.37,743.463 1150.36,757.909 1156.34,772.132 1162.32,786.196 1168.3,800.18 1174.29,814.168 1180.27,828.245 1186.25,842.496 1192.23,856.994 1198.21,871.803 1204.2,886.973 1210.18,902.537 1216.16,918.508 1222.14,934.882 1228.13,951.637 1234.11,968.733 1240.09,986.114 1246.07,1003.71 1252.05,1021.44 1258.04,1039.22 1264.02,1056.94 1270,1074.52 1275.98,1091.85 1281.97,1108.83 1287.95,1125.38 1293.93,1141.4 1299.91,1156.81 1305.89,1171.56 1311.88,1185.57 1317.86,1198.79 1323.84,1211.2 1329.82,1222.77 1335.81,1233.47 1341.79,1243.32 1347.77,1252.31 1353.75,1260.47 1359.73,1267.81 1365.72,1274.38 1371.7,1280.21 1377.68,1285.36 1383.66,1289.85 1389.64,1293.76 1395.63,1297.13 1401.61,1300 1407.59,1302.45 1413.57,1304.5 1419.56,1306.22 1425.54,1307.65 1431.52,1308.82 1437.5,1309.77 1443.48,1310.55 1449.47,1311.17 1455.45,1311.66 1461.43,1312.05 1467.41,1312.36 1473.4,1312.59 1479.38,1312.77 1485.36,1312.91 1491.34,1313.02 1497.32,1313.1 1503.31,1313.16 1509.29,1313.2 1515.27,1313.23 1521.25,1313.25 1527.24,1313.27 1533.22,1313.28 1539.2,1313.28 "/>
<polyline clip-path="url(#clip962)" style="stroke:#3da44d; stroke-linecap:round; stroke-linejoin:round; stroke-width:3.99945; stroke-opacity:1; fill:none" points="248.771,1313.28 259.129,1313.26 269.486,1313.25 279.844,1313.22 290.202,1313.18 300.559,1313.12 310.917,1313.05 321.274,1312.94 331.632,1312.79 341.989,1312.6 352.347,1312.33 362.704,1311.98 373.062,1311.52 383.42,1310.92 393.777,1310.15 404.135,1309.16 414.492,1307.91 424.85,1306.34 435.207,1304.38 445.565,1301.96 455.922,1299 466.28,1295.41 476.638,1291.1 486.995,1285.96 497.353,1279.88 507.71,1272.76 518.068,1264.5 528.425,1254.98 538.783,1244.11 549.14,1231.8 559.498,1217.98 569.856,1202.59 580.213,1185.6 590.571,1166.99 600.928,1146.78 611.286,1125.02 621.643,1101.77 632.001,1077.14 642.358,1051.27 652.716,1024.31 663.074,996.461 673.431,967.936 683.789,938.969 694.146,909.815 704.504,880.739 714.861,852.015 725.219,823.92 735.576,796.729 745.934,770.712 756.292,746.128 766.649,723.221 777.007,702.215 787.364,683.314 797.722,666.698 808.079,652.517 818.437,640.893 828.794,631.915 839.152,625.642 849.51,622.094 859.867,621.262 870.225,623.096 880.582,627.513 890.94,634.398 901.297,643.598 911.655,654.932 922.013,668.188 932.37,683.132 942.728,699.507 953.085,717.04 963.443,735.451 973.8,754.454 984.158,773.767 994.515,793.118 1004.87,812.253 1015.23,830.94 1025.59,848.975 1035.95,866.187 1046.3,882.442 1056.66,897.643 1067.02,911.731 1077.38,924.685 1087.73,936.518 1098.09,947.272 1108.45,957.016 1118.81,965.839 1129.16,973.84 1139.52,981.129 1149.88,987.816 1160.24,994.007 1170.59,999.8 1180.95,1005.28 1191.31,1010.52 1201.67,1015.59 1212.02,1020.52 1222.38,1025.34 1232.74,1030.07 1243.1,1034.73 1253.45,1039.31 1263.81,1043.82 1274.17,1048.25 1284.53,1052.6 1294.88,1056.87 1305.24,1061.07 1315.6,1065.2 1325.96,1069.28 1336.31,1073.32 1346.67,1077.35 1357.03,1081.38 1367.39,1085.45 1377.75,1089.58 1388.1,1093.8 1398.46,1098.12 1408.82,1102.59 1419.18,1107.2 1429.53,1111.99 1439.89,1116.97 1450.25,1122.14 1460.61,1127.5 1470.96,1133.07 1481.32,1138.82 1491.68,1144.74 1502.04,1150.83 1512.39,1157.05 1522.75,1163.38 1533.11,1169.78 1543.47,1176.22 1553.82,1182.65 1564.18,1189.04 1574.54,1195.35 1584.9,1201.52 1595.25,1207.52 1605.61,1213.31 1615.97,1218.85 1626.33,1224.11 1636.68,1229.06 1647.04,1233.68 1657.4,1237.96 1667.76,1241.89 1678.11,1245.46 1688.47,1248.69 1698.83,1251.59 1709.19,1254.17 1719.54,1256.45 1729.9,1258.47 1740.26,1260.26 1750.62,1261.84 1760.97,1263.26 1771.33,1264.55 1781.69,1265.74 1792.05,1266.88 1802.4,1267.99 1812.76,1269.1 1823.12,1270.24 1833.48,1271.43 1843.84,1272.69 1854.19,1274.04 1864.55,1275.48 1874.91,1277.01 1885.27,1278.64 1895.62,1280.37 1905.98,1282.17 1916.34,1284.04 1926.7,1285.97 1937.05,1287.92 1947.41,1289.9 1957.77,1291.86 1968.13,1293.8 1978.48,1295.7 1988.84,1297.52 1999.2,1299.27 2009.56,1300.92 2019.91,1302.46 2030.27,1303.88 2040.63,1305.19 2050.99,1306.37 2061.34,1307.43 2071.7,1308.37 2082.06,1309.2 2092.42,1309.91 2102.77,1310.53 2113.13,1311.05 2123.49,1311.5 2133.85,1311.86 2144.2,1312.17 2154.56,1312.42 2164.92,1312.62 2175.28,1312.78 2185.63,1312.9 2195.99,1313 2206.35,1313.08 2216.71,1313.14 2227.06,1313.19 2237.42,1313.22 2247.78,1313.24 2258.14,1313.26 2268.49,1313.27 2278.85,1313.28 2289.21,1313.29 2299.57,1313.29 2309.93,1313.28 "/>
<path clip-path="url(#clip960)" d="M2053.53 298 L2298.93 298 L2298.93 90.6684 L2053.53 90.6684  Z" fill="#ffffff" fill-rule="evenodd" fill-opacity="1"/>
<polyline clip-path="url(#clip960)" style="stroke:#000000; stroke-linecap:round; stroke-linejoin:round; stroke-width:3.99945; stroke-opacity:1; fill:none" points="2053.53,298 2298.93,298 2298.93,90.6684 2053.53,90.6684 2053.53,298 "/>
<polyline clip-path="url(#clip960)" style="stroke:#009af9; stroke-linecap:round; stroke-linejoin:round; stroke-width:3.99945; stroke-opacity:1; fill:none" points="2077.81,142.501 2223.46,142.501 "/>
<path clip-path="url(#clip960)" d="M2247.74 125.224 L2252.41 125.224 L2252.41 159.779 L2247.74 159.779 L2247.74 125.224 Z" fill="#000000" fill-rule="evenodd" fill-opacity="1" /><polyline clip-path="url(#clip960)" style="stroke:#e26f46; stroke-linecap:round; stroke-linejoin:round; stroke-width:3.99945; stroke-opacity:1; fill:none" points="2077.81,194.334 2223.46,194.334 "/>
<path clip-path="url(#clip960)" d="M2264.13 195.41 Q2265.63 195.92 2267.04 197.586 Q2268.48 199.253 2269.91 202.169 L2274.66 211.612 L2269.63 211.612 L2265.21 202.747 Q2263.5 199.276 2261.88 198.142 Q2260.28 197.007 2257.51 197.007 L2252.41 197.007 L2252.41 211.612 L2247.74 211.612 L2247.74 177.057 L2258.29 177.057 Q2264.22 177.057 2267.13 179.533 Q2270.05 182.01 2270.05 187.009 Q2270.05 190.272 2268.52 192.425 Q2267.02 194.577 2264.13 195.41 M2252.41 180.899 L2252.41 193.165 L2258.29 193.165 Q2261.67 193.165 2263.38 191.615 Q2265.12 190.041 2265.12 187.009 Q2265.12 183.977 2263.38 182.449 Q2261.67 180.899 2258.29 180.899 L2252.41 180.899 Z" fill="#000000" fill-rule="evenodd" fill-opacity="1" /><polyline clip-path="url(#clip960)" style="stroke:#3da44d; stroke-linecap:round; stroke-linejoin:round; stroke-width:3.99945; stroke-opacity:1; fill:none" points="2077.81,246.167 2223.46,246.167 "/>
<path clip-path="url(#clip960)" d="M2269.98 230.024 L2269.98 234.583 Q2267.32 233.31 2264.96 232.685 Q2262.6 232.06 2260.4 232.06 Q2256.58 232.06 2254.5 233.542 Q2252.44 235.023 2252.44 237.754 Q2252.44 240.045 2253.8 241.226 Q2255.19 242.383 2259.03 243.1 L2261.86 243.679 Q2267.09 244.674 2269.56 247.197 Q2272.06 249.697 2272.06 253.909 Q2272.06 258.932 2268.68 261.524 Q2265.33 264.116 2258.82 264.116 Q2256.37 264.116 2253.59 263.56 Q2250.84 263.005 2247.88 261.917 L2247.88 257.103 Q2250.72 258.7 2253.45 259.51 Q2256.19 260.32 2258.82 260.32 Q2262.83 260.32 2265 258.746 Q2267.18 257.173 2267.18 254.256 Q2267.18 251.71 2265.61 250.275 Q2264.06 248.84 2260.49 248.123 L2257.64 247.567 Q2252.41 246.526 2250.08 244.304 Q2247.74 242.082 2247.74 238.124 Q2247.74 233.542 2250.95 230.903 Q2254.2 228.265 2259.87 228.265 Q2262.3 228.265 2264.82 228.704 Q2267.34 229.144 2269.98 230.024 Z" fill="#000000" fill-rule="evenodd" fill-opacity="1" /></svg>
