<?xml version="1.0" encoding="utf-8"?>
<svg xmlns="http://www.w3.org/2000/svg" xmlns:xlink="http://www.w3.org/1999/xlink" width="672" height="480" viewBox="0 0 2688 1920">
<defs>
  <clipPath id="clip210">
    <rect x="0" y="0" width="2688" height="1920"/>
  </clipPath>
</defs>
<path clip-path="url(#clip210)" d="M0 1920 L2688 1920 L2688 0 L0 0  Z" fill="#ffffff" fill-rule="evenodd" fill-opacity="1"/>
<defs>
  <clipPath id="clip211">
    <rect x="537" y="0" width="1883" height="1883"/>
  </clipPath>
</defs>
<path clip-path="url(#clip210)" d="M219.802 1800.78 L2640.76 1800.78 L2640.76 47.2441 L219.802 47.2441  Z" fill="#ffffff" fill-rule="evenodd" fill-opacity="1"/>
<defs>
  <clipPath id="clip212">
    <rect x="219" y="47" width="2422" height="1755"/>
  </clipPath>
</defs>
<polyline clip-path="url(#clip212)" style="stroke:#000000; stroke-linecap:round; stroke-linejoin:round; stroke-width:2; stroke-opacity:0.1; fill:none" points="444.12,1800.78 444.12,47.2441 "/>
<polyline clip-path="url(#clip212)" style="stroke:#000000; stroke-linecap:round; stroke-linejoin:round; stroke-width:2; stroke-opacity:0.1; fill:none" points="736.721,1800.78 736.721,47.2441 "/>
<polyline clip-path="url(#clip212)" style="stroke:#000000; stroke-linecap:round; stroke-linejoin:round; stroke-width:2; stroke-opacity:0.1; fill:none" points="1029.32,1800.78 1029.32,47.2441 "/>
<polyline clip-path="url(#clip212)" style="stroke:#000000; stroke-linecap:round; stroke-linejoin:round; stroke-width:2; stroke-opacity:0.1; fill:none" points="1321.92,1800.78 1321.92,47.2441 "/>
<polyline clip-path="url(#clip212)" style="stroke:#000000; stroke-linecap:round; stroke-linejoin:round; stroke-width:2; stroke-opacity:0.1; fill:none" points="1614.52,1800.78 1614.52,47.2441 "/>
<polyline clip-path="url(#clip212)" style="stroke:#000000; stroke-linecap:round; stroke-linejoin:round; stroke-width:2; stroke-opacity:0.1; fill:none" points="1907.13,1800.78 1907.13,47.2441 "/>
<polyline clip-path="url(#clip212)" style="stroke:#000000; stroke-linecap:round; stroke-linejoin:round; stroke-width:2; stroke-opacity:0.1; fill:none" points="2199.73,1800.78 2199.73,47.2441 "/>
<polyline clip-path="url(#clip212)" style="stroke:#000000; stroke-linecap:round; stroke-linejoin:round; stroke-width:2; stroke-opacity:0.1; fill:none" points="2492.33,1800.78 2492.33,47.2441 "/>
<polyline clip-path="url(#clip210)" style="stroke:#000000; stroke-linecap:round; stroke-linejoin:round; stroke-width:4; stroke-opacity:1; fill:none" points="219.802,1800.78 2640.76,1800.78 "/>
<polyline clip-path="url(#clip210)" style="stroke:#000000; stroke-linecap:round; stroke-linejoin:round; stroke-width:4; stroke-opacity:1; fill:none" points="444.12,1800.78 444.12,1781.88 "/>
<polyline clip-path="url(#clip210)" style="stroke:#000000; stroke-linecap:round; stroke-linejoin:round; stroke-width:4; stroke-opacity:1; fill:none" points="736.721,1800.78 736.721,1781.88 "/>
<polyline clip-path="url(#clip210)" style="stroke:#000000; stroke-linecap:round; stroke-linejoin:round; stroke-width:4; stroke-opacity:1; fill:none" points="1029.32,1800.78 1029.32,1781.88 "/>
<polyline clip-path="url(#clip210)" style="stroke:#000000; stroke-linecap:round; stroke-linejoin:round; stroke-width:4; stroke-opacity:1; fill:none" points="1321.92,1800.78 1321.92,1781.88 "/>
<polyline clip-path="url(#clip210)" style="stroke:#000000; stroke-linecap:round; stroke-linejoin:round; stroke-width:4; stroke-opacity:1; fill:none" points="1614.52,1800.78 1614.52,1781.88 "/>
<polyline clip-path="url(#clip210)" style="stroke:#000000; stroke-linecap:round; stroke-linejoin:round; stroke-width:4; stroke-opacity:1; fill:none" points="1907.13,1800.78 1907.13,1781.88 "/>
<polyline clip-path="url(#clip210)" style="stroke:#000000; stroke-linecap:round; stroke-linejoin:round; stroke-width:4; stroke-opacity:1; fill:none" points="2199.73,1800.78 2199.73,1781.88 "/>
<polyline clip-path="url(#clip210)" style="stroke:#000000; stroke-linecap:round; stroke-linejoin:round; stroke-width:4; stroke-opacity:1; fill:none" points="2492.33,1800.78 2492.33,1781.88 "/>
<path clip-path="url(#clip210)" d="M383.102 1848.65 L412.777 1848.65 L412.777 1852.59 L383.102 1852.59 L383.102 1848.65 Z" fill="#000000" fill-rule="evenodd" fill-opacity="1" /><path clip-path="url(#clip210)" d="M426.898 1861.55 L443.217 1861.55 L443.217 1865.48 L421.273 1865.48 L421.273 1861.55 Q423.935 1858.79 428.518 1854.16 Q433.124 1849.51 434.305 1848.17 Q436.55 1845.65 437.43 1843.91 Q438.333 1842.15 438.333 1840.46 Q438.333 1837.71 436.388 1835.97 Q434.467 1834.23 431.365 1834.23 Q429.166 1834.23 426.712 1835 Q424.282 1835.76 421.504 1837.31 L421.504 1832.59 Q424.328 1831.46 426.782 1830.88 Q429.236 1830.3 431.273 1830.3 Q436.643 1830.3 439.837 1832.98 Q443.032 1835.67 443.032 1840.16 Q443.032 1842.29 442.222 1844.21 Q441.435 1846.11 439.328 1848.7 Q438.749 1849.37 435.648 1852.59 Q432.546 1855.78 426.898 1861.55 Z" fill="#000000" fill-rule="evenodd" fill-opacity="1" /><path clip-path="url(#clip210)" d="M463.032 1834 Q459.421 1834 457.592 1837.57 Q455.786 1841.11 455.786 1848.24 Q455.786 1855.34 457.592 1858.91 Q459.421 1862.45 463.032 1862.45 Q466.666 1862.45 468.472 1858.91 Q470.3 1855.34 470.3 1848.24 Q470.3 1841.11 468.472 1837.57 Q466.666 1834 463.032 1834 M463.032 1830.3 Q468.842 1830.3 471.897 1834.9 Q474.976 1839.49 474.976 1848.24 Q474.976 1856.96 471.897 1861.57 Q468.842 1866.15 463.032 1866.15 Q457.222 1866.15 454.143 1861.57 Q451.087 1856.96 451.087 1848.24 Q451.087 1839.49 454.143 1834.9 Q457.222 1830.3 463.032 1830.3 Z" fill="#000000" fill-rule="evenodd" fill-opacity="1" /><path clip-path="url(#clip210)" d="M493.194 1834 Q489.583 1834 487.754 1837.57 Q485.948 1841.11 485.948 1848.24 Q485.948 1855.34 487.754 1858.91 Q489.583 1862.45 493.194 1862.45 Q496.828 1862.45 498.633 1858.91 Q500.462 1855.34 500.462 1848.24 Q500.462 1841.11 498.633 1837.57 Q496.828 1834 493.194 1834 M493.194 1830.3 Q499.004 1830.3 502.059 1834.9 Q505.138 1839.49 505.138 1848.24 Q505.138 1856.96 502.059 1861.57 Q499.004 1866.15 493.194 1866.15 Q487.383 1866.15 484.305 1861.57 Q481.249 1856.96 481.249 1848.24 Q481.249 1839.49 484.305 1834.9 Q487.383 1830.3 493.194 1830.3 Z" fill="#000000" fill-rule="evenodd" fill-opacity="1" /><path clip-path="url(#clip210)" d="M736.721 1834 Q733.11 1834 731.281 1837.57 Q729.476 1841.11 729.476 1848.24 Q729.476 1855.34 731.281 1858.91 Q733.11 1862.45 736.721 1862.45 Q740.355 1862.45 742.161 1858.91 Q743.989 1855.34 743.989 1848.24 Q743.989 1841.11 742.161 1837.57 Q740.355 1834 736.721 1834 M736.721 1830.3 Q742.531 1830.3 745.587 1834.9 Q748.665 1839.49 748.665 1848.24 Q748.665 1856.96 745.587 1861.57 Q742.531 1866.15 736.721 1866.15 Q730.911 1866.15 727.832 1861.57 Q724.777 1856.96 724.777 1848.24 Q724.777 1839.49 727.832 1834.9 Q730.911 1830.3 736.721 1830.3 Z" fill="#000000" fill-rule="evenodd" fill-opacity="1" /><path clip-path="url(#clip210)" d="M993.015 1861.55 L1009.33 1861.55 L1009.33 1865.48 L987.39 1865.48 L987.39 1861.55 Q990.052 1858.79 994.635 1854.16 Q999.241 1849.51 1000.42 1848.17 Q1002.67 1845.65 1003.55 1843.91 Q1004.45 1842.15 1004.45 1840.46 Q1004.45 1837.71 1002.51 1835.97 Q1000.58 1834.23 997.482 1834.23 Q995.283 1834.23 992.829 1835 Q990.399 1835.76 987.621 1837.31 L987.621 1832.59 Q990.445 1831.46 992.899 1830.88 Q995.352 1830.3 997.39 1830.3 Q1002.76 1830.3 1005.95 1832.98 Q1009.15 1835.67 1009.15 1840.16 Q1009.15 1842.29 1008.34 1844.21 Q1007.55 1846.11 1005.45 1848.7 Q1004.87 1849.37 1001.76 1852.59 Q998.663 1855.78 993.015 1861.55 Z" fill="#000000" fill-rule="evenodd" fill-opacity="1" /><path clip-path="url(#clip210)" d="M1029.15 1834 Q1025.54 1834 1023.71 1837.57 Q1021.9 1841.11 1021.9 1848.24 Q1021.9 1855.34 1023.71 1858.91 Q1025.54 1862.45 1029.15 1862.45 Q1032.78 1862.45 1034.59 1858.91 Q1036.42 1855.34 1036.42 1848.24 Q1036.42 1841.11 1034.59 1837.57 Q1032.78 1834 1029.15 1834 M1029.15 1830.3 Q1034.96 1830.3 1038.01 1834.9 Q1041.09 1839.49 1041.09 1848.24 Q1041.09 1856.96 1038.01 1861.57 Q1034.96 1866.15 1029.15 1866.15 Q1023.34 1866.15 1020.26 1861.57 Q1017.2 1856.96 1017.2 1848.24 Q1017.2 1839.49 1020.26 1834.9 Q1023.34 1830.3 1029.15 1830.3 Z" fill="#000000" fill-rule="evenodd" fill-opacity="1" /><path clip-path="url(#clip210)" d="M1059.31 1834 Q1055.7 1834 1053.87 1837.57 Q1052.07 1841.11 1052.07 1848.24 Q1052.07 1855.34 1053.87 1858.91 Q1055.7 1862.45 1059.31 1862.45 Q1062.94 1862.45 1064.75 1858.91 Q1066.58 1855.34 1066.58 1848.24 Q1066.58 1841.11 1064.75 1837.57 Q1062.94 1834 1059.31 1834 M1059.31 1830.3 Q1065.12 1830.3 1068.18 1834.9 Q1071.25 1839.49 1071.25 1848.24 Q1071.25 1856.96 1068.18 1861.57 Q1065.12 1866.15 1059.31 1866.15 Q1053.5 1866.15 1050.42 1861.57 Q1047.37 1856.96 1047.37 1848.24 Q1047.37 1839.49 1050.42 1834.9 Q1053.5 1830.3 1059.31 1830.3 Z" fill="#000000" fill-rule="evenodd" fill-opacity="1" /><path clip-path="url(#clip210)" d="M1295.01 1835 L1283.21 1853.45 L1295.01 1853.45 L1295.01 1835 M1293.79 1830.92 L1299.67 1830.92 L1299.67 1853.45 L1304.6 1853.45 L1304.6 1857.34 L1299.67 1857.34 L1299.67 1865.48 L1295.01 1865.48 L1295.01 1857.34 L1279.41 1857.34 L1279.41 1852.82 L1293.79 1830.92 Z" fill="#000000" fill-rule="evenodd" fill-opacity="1" /><path clip-path="url(#clip210)" d="M1322.33 1834 Q1318.72 1834 1316.89 1837.57 Q1315.08 1841.11 1315.08 1848.24 Q1315.08 1855.34 1316.89 1858.91 Q1318.72 1862.45 1322.33 1862.45 Q1325.96 1862.45 1327.77 1858.91 Q1329.6 1855.34 1329.6 1848.24 Q1329.6 1841.11 1327.77 1837.57 Q1325.96 1834 1322.33 1834 M1322.33 1830.3 Q1328.14 1830.3 1331.19 1834.9 Q1334.27 1839.49 1334.27 1848.24 Q1334.27 1856.96 1331.19 1861.57 Q1328.14 1866.15 1322.33 1866.15 Q1316.52 1866.15 1313.44 1861.57 Q1310.38 1856.96 1310.38 1848.24 Q1310.38 1839.49 1313.44 1834.9 Q1316.52 1830.3 1322.33 1830.3 Z" fill="#000000" fill-rule="evenodd" fill-opacity="1" /><path clip-path="url(#clip210)" d="M1352.49 1834 Q1348.88 1834 1347.05 1837.57 Q1345.25 1841.11 1345.25 1848.24 Q1345.25 1855.34 1347.05 1858.91 Q1348.88 1862.45 1352.49 1862.45 Q1356.12 1862.45 1357.93 1858.91 Q1359.76 1855.34 1359.76 1848.24 Q1359.76 1841.11 1357.93 1837.57 Q1356.12 1834 1352.49 1834 M1352.49 1830.3 Q1358.3 1830.3 1361.36 1834.9 Q1364.43 1839.49 1364.43 1848.24 Q1364.43 1856.96 1361.36 1861.57 Q1358.3 1866.15 1352.49 1866.15 Q1346.68 1866.15 1343.6 1861.57 Q1340.55 1856.96 1340.55 1848.24 Q1340.55 1839.49 1343.6 1834.9 Q1346.68 1830.3 1352.49 1830.3 Z" fill="#000000" fill-rule="evenodd" fill-opacity="1" /><path clip-path="url(#clip210)" d="M1584.85 1846.34 Q1581.7 1846.34 1579.85 1848.49 Q1578.02 1850.65 1578.02 1854.4 Q1578.02 1858.12 1579.85 1860.3 Q1581.7 1862.45 1584.85 1862.45 Q1588 1862.45 1589.83 1860.3 Q1591.68 1858.12 1591.68 1854.4 Q1591.68 1850.65 1589.83 1848.49 Q1588 1846.34 1584.85 1846.34 M1594.13 1831.69 L1594.13 1835.95 Q1592.37 1835.11 1590.57 1834.67 Q1588.78 1834.23 1587.02 1834.23 Q1582.4 1834.23 1579.94 1837.36 Q1577.51 1840.48 1577.16 1846.8 Q1578.53 1844.79 1580.59 1843.72 Q1582.65 1842.64 1585.13 1842.64 Q1590.33 1842.64 1593.34 1845.81 Q1596.38 1848.96 1596.38 1854.4 Q1596.38 1859.72 1593.23 1862.94 Q1590.08 1866.15 1584.85 1866.15 Q1578.85 1866.15 1575.68 1861.57 Q1572.51 1856.96 1572.51 1848.24 Q1572.51 1840.04 1576.4 1835.18 Q1580.29 1830.3 1586.84 1830.3 Q1588.6 1830.3 1590.38 1830.65 Q1592.19 1830.99 1594.13 1831.69 Z" fill="#000000" fill-rule="evenodd" fill-opacity="1" /><path clip-path="url(#clip210)" d="M1614.43 1834 Q1610.82 1834 1608.99 1837.57 Q1607.19 1841.11 1607.19 1848.24 Q1607.19 1855.34 1608.99 1858.91 Q1610.82 1862.45 1614.43 1862.45 Q1618.07 1862.45 1619.87 1858.91 Q1621.7 1855.34 1621.7 1848.24 Q1621.7 1841.11 1619.87 1837.57 Q1618.07 1834 1614.43 1834 M1614.43 1830.3 Q1620.24 1830.3 1623.3 1834.9 Q1626.38 1839.49 1626.38 1848.24 Q1626.38 1856.96 1623.3 1861.57 Q1620.24 1866.15 1614.43 1866.15 Q1608.62 1866.15 1605.54 1861.57 Q1602.49 1856.96 1602.49 1848.24 Q1602.49 1839.49 1605.54 1834.9 Q1608.62 1830.3 1614.43 1830.3 Z" fill="#000000" fill-rule="evenodd" fill-opacity="1" /><path clip-path="url(#clip210)" d="M1644.59 1834 Q1640.98 1834 1639.15 1837.57 Q1637.35 1841.11 1637.35 1848.24 Q1637.35 1855.34 1639.15 1858.91 Q1640.98 1862.45 1644.59 1862.45 Q1648.23 1862.45 1650.03 1858.91 Q1651.86 1855.34 1651.86 1848.24 Q1651.86 1841.11 1650.03 1837.57 Q1648.23 1834 1644.59 1834 M1644.59 1830.3 Q1650.4 1830.3 1653.46 1834.9 Q1656.54 1839.49 1656.54 1848.24 Q1656.54 1856.96 1653.46 1861.57 Q1650.4 1866.15 1644.59 1866.15 Q1638.78 1866.15 1635.71 1861.57 Q1632.65 1856.96 1632.65 1848.24 Q1632.65 1839.49 1635.71 1834.9 Q1638.78 1830.3 1644.59 1830.3 Z" fill="#000000" fill-rule="evenodd" fill-opacity="1" /><path clip-path="url(#clip210)" d="M1876.92 1849.07 Q1873.58 1849.07 1871.66 1850.85 Q1869.76 1852.64 1869.76 1855.76 Q1869.76 1858.89 1871.66 1860.67 Q1873.58 1862.45 1876.92 1862.45 Q1880.25 1862.45 1882.17 1860.67 Q1884.09 1858.86 1884.09 1855.76 Q1884.09 1852.64 1882.17 1850.85 Q1880.27 1849.07 1876.92 1849.07 M1872.24 1847.08 Q1869.23 1846.34 1867.54 1844.28 Q1865.88 1842.22 1865.88 1839.26 Q1865.88 1835.11 1868.82 1832.71 Q1871.78 1830.3 1876.92 1830.3 Q1882.08 1830.3 1885.02 1832.71 Q1887.96 1835.11 1887.96 1839.26 Q1887.96 1842.22 1886.27 1844.28 Q1884.6 1846.34 1881.62 1847.08 Q1885 1847.87 1886.87 1850.16 Q1888.77 1852.45 1888.77 1855.76 Q1888.77 1860.78 1885.69 1863.47 Q1882.64 1866.15 1876.92 1866.15 Q1871.2 1866.15 1868.12 1863.47 Q1865.07 1860.78 1865.07 1855.76 Q1865.07 1852.45 1866.96 1850.16 Q1868.86 1847.87 1872.24 1847.08 M1870.53 1839.7 Q1870.53 1842.38 1872.2 1843.89 Q1873.89 1845.39 1876.92 1845.39 Q1879.93 1845.39 1881.62 1843.89 Q1883.33 1842.38 1883.33 1839.7 Q1883.33 1837.01 1881.62 1835.51 Q1879.93 1834 1876.92 1834 Q1873.89 1834 1872.2 1835.51 Q1870.53 1837.01 1870.53 1839.7 Z" fill="#000000" fill-rule="evenodd" fill-opacity="1" /><path clip-path="url(#clip210)" d="M1907.08 1834 Q1903.47 1834 1901.64 1837.57 Q1899.83 1841.11 1899.83 1848.24 Q1899.83 1855.34 1901.64 1858.91 Q1903.47 1862.45 1907.08 1862.45 Q1910.71 1862.45 1912.52 1858.91 Q1914.35 1855.34 1914.35 1848.24 Q1914.35 1841.11 1912.52 1837.57 Q1910.71 1834 1907.08 1834 M1907.08 1830.3 Q1912.89 1830.3 1915.95 1834.9 Q1919.02 1839.49 1919.02 1848.24 Q1919.02 1856.96 1915.95 1861.57 Q1912.89 1866.15 1907.08 1866.15 Q1901.27 1866.15 1898.19 1861.57 Q1895.14 1856.96 1895.14 1848.24 Q1895.14 1839.49 1898.19 1834.9 Q1901.27 1830.3 1907.08 1830.3 Z" fill="#000000" fill-rule="evenodd" fill-opacity="1" /><path clip-path="url(#clip210)" d="M1937.24 1834 Q1933.63 1834 1931.8 1837.57 Q1930 1841.11 1930 1848.24 Q1930 1855.34 1931.8 1858.91 Q1933.63 1862.45 1937.24 1862.45 Q1940.88 1862.45 1942.68 1858.91 Q1944.51 1855.34 1944.51 1848.24 Q1944.51 1841.11 1942.68 1837.57 Q1940.88 1834 1937.24 1834 M1937.24 1830.3 Q1943.05 1830.3 1946.11 1834.9 Q1949.19 1839.49 1949.19 1848.24 Q1949.19 1856.96 1946.11 1861.57 Q1943.05 1866.15 1937.24 1866.15 Q1931.43 1866.15 1928.35 1861.57 Q1925.3 1856.96 1925.3 1848.24 Q1925.3 1839.49 1928.35 1834.9 Q1931.43 1830.3 1937.24 1830.3 Z" fill="#000000" fill-rule="evenodd" fill-opacity="1" /><path clip-path="url(#clip210)" d="M2144.25 1861.55 L2151.89 1861.55 L2151.89 1835.18 L2143.58 1836.85 L2143.58 1832.59 L2151.85 1830.92 L2156.52 1830.92 L2156.52 1861.55 L2164.16 1861.55 L2164.16 1865.48 L2144.25 1865.48 L2144.25 1861.55 Z" fill="#000000" fill-rule="evenodd" fill-opacity="1" /><path clip-path="url(#clip210)" d="M2183.6 1834 Q2179.99 1834 2178.16 1837.57 Q2176.36 1841.11 2176.36 1848.24 Q2176.36 1855.34 2178.16 1858.91 Q2179.99 1862.45 2183.6 1862.45 Q2187.24 1862.45 2189.04 1858.91 Q2190.87 1855.34 2190.87 1848.24 Q2190.87 1841.11 2189.04 1837.57 Q2187.24 1834 2183.6 1834 M2183.6 1830.3 Q2189.41 1830.3 2192.47 1834.9 Q2195.55 1839.49 2195.55 1848.24 Q2195.55 1856.96 2192.47 1861.57 Q2189.41 1866.15 2183.6 1866.15 Q2177.79 1866.15 2174.72 1861.57 Q2171.66 1856.96 2171.66 1848.24 Q2171.66 1839.49 2174.72 1834.9 Q2177.79 1830.3 2183.6 1830.3 Z" fill="#000000" fill-rule="evenodd" fill-opacity="1" /><path clip-path="url(#clip210)" d="M2213.77 1834 Q2210.16 1834 2208.33 1837.57 Q2206.52 1841.11 2206.52 1848.24 Q2206.52 1855.34 2208.33 1858.91 Q2210.16 1862.45 2213.77 1862.45 Q2217.4 1862.45 2219.21 1858.91 Q2221.03 1855.34 2221.03 1848.24 Q2221.03 1841.11 2219.21 1837.57 Q2217.4 1834 2213.77 1834 M2213.77 1830.3 Q2219.58 1830.3 2222.63 1834.9 Q2225.71 1839.49 2225.71 1848.24 Q2225.71 1856.96 2222.63 1861.57 Q2219.58 1866.15 2213.77 1866.15 Q2207.96 1866.15 2204.88 1861.57 Q2201.82 1856.96 2201.82 1848.24 Q2201.82 1839.49 2204.88 1834.9 Q2207.96 1830.3 2213.77 1830.3 Z" fill="#000000" fill-rule="evenodd" fill-opacity="1" /><path clip-path="url(#clip210)" d="M2243.93 1834 Q2240.32 1834 2238.49 1837.57 Q2236.68 1841.11 2236.68 1848.24 Q2236.68 1855.34 2238.49 1858.91 Q2240.32 1862.45 2243.93 1862.45 Q2247.56 1862.45 2249.37 1858.91 Q2251.2 1855.34 2251.2 1848.24 Q2251.2 1841.11 2249.37 1837.57 Q2247.56 1834 2243.93 1834 M2243.93 1830.3 Q2249.74 1830.3 2252.79 1834.9 Q2255.87 1839.49 2255.87 1848.24 Q2255.87 1856.96 2252.79 1861.57 Q2249.74 1866.15 2243.93 1866.15 Q2238.12 1866.15 2235.04 1861.57 Q2231.98 1856.96 2231.98 1848.24 Q2231.98 1839.49 2235.04 1834.9 Q2238.12 1830.3 2243.93 1830.3 Z" fill="#000000" fill-rule="evenodd" fill-opacity="1" /><path clip-path="url(#clip210)" d="M2436.85 1861.55 L2444.49 1861.55 L2444.49 1835.18 L2436.18 1836.85 L2436.18 1832.59 L2444.45 1830.92 L2449.12 1830.92 L2449.12 1861.55 L2456.76 1861.55 L2456.76 1865.48 L2436.85 1865.48 L2436.85 1861.55 Z" fill="#000000" fill-rule="evenodd" fill-opacity="1" /><path clip-path="url(#clip210)" d="M2470.23 1861.55 L2486.55 1861.55 L2486.55 1865.48 L2464.61 1865.48 L2464.61 1861.55 Q2467.27 1858.79 2471.85 1854.16 Q2476.46 1849.51 2477.64 1848.17 Q2479.89 1845.65 2480.77 1843.91 Q2481.67 1842.15 2481.67 1840.46 Q2481.67 1837.71 2479.72 1835.97 Q2477.8 1834.23 2474.7 1834.23 Q2472.5 1834.23 2470.05 1835 Q2467.62 1835.76 2464.84 1837.31 L2464.84 1832.59 Q2467.66 1831.46 2470.12 1830.88 Q2472.57 1830.3 2474.61 1830.3 Q2479.98 1830.3 2483.17 1832.98 Q2486.37 1835.67 2486.37 1840.16 Q2486.37 1842.29 2485.56 1844.21 Q2484.77 1846.11 2482.66 1848.7 Q2482.09 1849.37 2478.98 1852.59 Q2475.88 1855.78 2470.23 1861.55 Z" fill="#000000" fill-rule="evenodd" fill-opacity="1" /><path clip-path="url(#clip210)" d="M2506.37 1834 Q2502.76 1834 2500.93 1837.57 Q2499.12 1841.11 2499.12 1848.24 Q2499.12 1855.34 2500.93 1858.91 Q2502.76 1862.45 2506.37 1862.45 Q2510 1862.45 2511.81 1858.91 Q2513.64 1855.34 2513.64 1848.24 Q2513.64 1841.11 2511.81 1837.57 Q2510 1834 2506.37 1834 M2506.37 1830.3 Q2512.18 1830.3 2515.23 1834.9 Q2518.31 1839.49 2518.31 1848.24 Q2518.31 1856.96 2515.23 1861.57 Q2512.18 1866.15 2506.37 1866.15 Q2500.56 1866.15 2497.48 1861.57 Q2494.42 1856.96 2494.42 1848.24 Q2494.42 1839.49 2497.48 1834.9 Q2500.56 1830.3 2506.37 1830.3 Z" fill="#000000" fill-rule="evenodd" fill-opacity="1" /><path clip-path="url(#clip210)" d="M2536.53 1834 Q2532.92 1834 2531.09 1837.57 Q2529.28 1841.11 2529.28 1848.24 Q2529.28 1855.34 2531.09 1858.91 Q2532.92 1862.45 2536.53 1862.45 Q2540.16 1862.45 2541.97 1858.91 Q2543.8 1855.34 2543.8 1848.24 Q2543.8 1841.11 2541.97 1837.57 Q2540.16 1834 2536.53 1834 M2536.53 1830.3 Q2542.34 1830.3 2545.4 1834.9 Q2548.47 1839.49 2548.47 1848.24 Q2548.47 1856.96 2545.4 1861.57 Q2542.34 1866.15 2536.53 1866.15 Q2530.72 1866.15 2527.64 1861.57 Q2524.59 1856.96 2524.59 1848.24 Q2524.59 1839.49 2527.64 1834.9 Q2530.72 1830.3 2536.53 1830.3 Z" fill="#000000" fill-rule="evenodd" fill-opacity="1" /><polyline clip-path="url(#clip212)" style="stroke:#000000; stroke-linecap:round; stroke-linejoin:round; stroke-width:2; stroke-opacity:0.1; fill:none" points="219.802,1751.16 2640.76,1751.16 "/>
<polyline clip-path="url(#clip212)" style="stroke:#000000; stroke-linecap:round; stroke-linejoin:round; stroke-width:2; stroke-opacity:0.1; fill:none" points="219.802,1440.49 2640.76,1440.49 "/>
<polyline clip-path="url(#clip212)" style="stroke:#000000; stroke-linecap:round; stroke-linejoin:round; stroke-width:2; stroke-opacity:0.1; fill:none" points="219.802,1129.83 2640.76,1129.83 "/>
<polyline clip-path="url(#clip212)" style="stroke:#000000; stroke-linecap:round; stroke-linejoin:round; stroke-width:2; stroke-opacity:0.1; fill:none" points="219.802,819.171 2640.76,819.171 "/>
<polyline clip-path="url(#clip212)" style="stroke:#000000; stroke-linecap:round; stroke-linejoin:round; stroke-width:2; stroke-opacity:0.1; fill:none" points="219.802,508.509 2640.76,508.509 "/>
<polyline clip-path="url(#clip212)" style="stroke:#000000; stroke-linecap:round; stroke-linejoin:round; stroke-width:2; stroke-opacity:0.1; fill:none" points="219.802,197.847 2640.76,197.847 "/>
<polyline clip-path="url(#clip210)" style="stroke:#000000; stroke-linecap:round; stroke-linejoin:round; stroke-width:4; stroke-opacity:1; fill:none" points="219.802,1800.78 219.802,47.2441 "/>
<polyline clip-path="url(#clip210)" style="stroke:#000000; stroke-linecap:round; stroke-linejoin:round; stroke-width:4; stroke-opacity:1; fill:none" points="219.802,1751.16 238.7,1751.16 "/>
<polyline clip-path="url(#clip210)" style="stroke:#000000; stroke-linecap:round; stroke-linejoin:round; stroke-width:4; stroke-opacity:1; fill:none" points="219.802,1440.49 238.7,1440.49 "/>
<polyline clip-path="url(#clip210)" style="stroke:#000000; stroke-linecap:round; stroke-linejoin:round; stroke-width:4; stroke-opacity:1; fill:none" points="219.802,1129.83 238.7,1129.83 "/>
<polyline clip-path="url(#clip210)" style="stroke:#000000; stroke-linecap:round; stroke-linejoin:round; stroke-width:4; stroke-opacity:1; fill:none" points="219.802,819.171 238.7,819.171 "/>
<polyline clip-path="url(#clip210)" style="stroke:#000000; stroke-linecap:round; stroke-linejoin:round; stroke-width:4; stroke-opacity:1; fill:none" points="219.802,508.509 238.7,508.509 "/>
<polyline clip-path="url(#clip210)" style="stroke:#000000; stroke-linecap:round; stroke-linejoin:round; stroke-width:4; stroke-opacity:1; fill:none" points="219.802,197.847 238.7,197.847 "/>
<path clip-path="url(#clip210)" d="M61.9826 1736.96 Q58.3715 1736.96 56.5428 1740.52 Q54.7373 1744.06 54.7373 1751.19 Q54.7373 1758.3 56.5428 1761.86 Q58.3715 1765.4 61.9826 1765.4 Q65.6169 1765.4 67.4224 1761.86 Q69.2511 1758.3 69.2511 1751.19 Q69.2511 1744.06 67.4224 1740.52 Q65.6169 1736.96 61.9826 1736.96 M61.9826 1733.25 Q67.7928 1733.25 70.8483 1737.86 Q73.927 1742.44 73.927 1751.19 Q73.927 1759.92 70.8483 1764.52 Q67.7928 1769.11 61.9826 1769.11 Q56.1725 1769.11 53.0938 1764.52 Q50.0382 1759.92 50.0382 1751.19 Q50.0382 1742.44 53.0938 1737.86 Q56.1725 1733.25 61.9826 1733.25 Z" fill="#000000" fill-rule="evenodd" fill-opacity="1" /><path clip-path="url(#clip210)" d="M82.1445 1762.56 L87.0288 1762.56 L87.0288 1768.44 L82.1445 1768.44 L82.1445 1762.56 Z" fill="#000000" fill-rule="evenodd" fill-opacity="1" /><path clip-path="url(#clip210)" d="M107.214 1736.96 Q103.603 1736.96 101.774 1740.52 Q99.9685 1744.06 99.9685 1751.19 Q99.9685 1758.3 101.774 1761.86 Q103.603 1765.4 107.214 1765.4 Q110.848 1765.4 112.654 1761.86 Q114.482 1758.3 114.482 1751.19 Q114.482 1744.06 112.654 1740.52 Q110.848 1736.96 107.214 1736.96 M107.214 1733.25 Q113.024 1733.25 116.08 1737.86 Q119.158 1742.44 119.158 1751.19 Q119.158 1759.92 116.08 1764.52 Q113.024 1769.11 107.214 1769.11 Q101.404 1769.11 98.325 1764.52 Q95.2695 1759.92 95.2695 1751.19 Q95.2695 1742.44 98.325 1737.86 Q101.404 1733.25 107.214 1733.25 Z" fill="#000000" fill-rule="evenodd" fill-opacity="1" /><path clip-path="url(#clip210)" d="M137.376 1736.96 Q133.765 1736.96 131.936 1740.52 Q130.13 1744.06 130.13 1751.19 Q130.13 1758.3 131.936 1761.86 Q133.765 1765.4 137.376 1765.4 Q141.01 1765.4 142.816 1761.86 Q144.644 1758.3 144.644 1751.19 Q144.644 1744.06 142.816 1740.52 Q141.01 1736.96 137.376 1736.96 M137.376 1733.25 Q143.186 1733.25 146.241 1737.86 Q149.32 1742.44 149.32 1751.19 Q149.32 1759.92 146.241 1764.52 Q143.186 1769.11 137.376 1769.11 Q131.566 1769.11 128.487 1764.52 Q125.431 1759.92 125.431 1751.19 Q125.431 1742.44 128.487 1737.86 Q131.566 1733.25 137.376 1733.25 Z" fill="#000000" fill-rule="evenodd" fill-opacity="1" /><path clip-path="url(#clip210)" d="M167.538 1736.96 Q163.927 1736.96 162.098 1740.52 Q160.292 1744.06 160.292 1751.19 Q160.292 1758.3 162.098 1761.86 Q163.927 1765.4 167.538 1765.4 Q171.172 1765.4 172.977 1761.86 Q174.806 1758.3 174.806 1751.19 Q174.806 1744.06 172.977 1740.52 Q171.172 1736.96 167.538 1736.96 M167.538 1733.25 Q173.348 1733.25 176.403 1737.86 Q179.482 1742.44 179.482 1751.19 Q179.482 1759.92 176.403 1764.52 Q173.348 1769.11 167.538 1769.11 Q161.727 1769.11 158.649 1764.52 Q155.593 1759.92 155.593 1751.19 Q155.593 1742.44 158.649 1737.86 Q161.727 1733.25 167.538 1733.25 Z" fill="#000000" fill-rule="evenodd" fill-opacity="1" /><path clip-path="url(#clip210)" d="M63.2095 1426.29 Q59.5984 1426.29 57.7697 1429.86 Q55.9641 1433.4 55.9641 1440.53 Q55.9641 1447.64 57.7697 1451.2 Q59.5984 1454.74 63.2095 1454.74 Q66.8437 1454.74 68.6492 1451.2 Q70.4779 1447.64 70.4779 1440.53 Q70.4779 1433.4 68.6492 1429.86 Q66.8437 1426.29 63.2095 1426.29 M63.2095 1422.59 Q69.0196 1422.59 72.0752 1427.2 Q75.1538 1431.78 75.1538 1440.53 Q75.1538 1449.26 72.0752 1453.86 Q69.0196 1458.45 63.2095 1458.45 Q57.3993 1458.45 54.3206 1453.86 Q51.2651 1449.26 51.2651 1440.53 Q51.2651 1431.78 54.3206 1427.2 Q57.3993 1422.59 63.2095 1422.59 Z" fill="#000000" fill-rule="evenodd" fill-opacity="1" /><path clip-path="url(#clip210)" d="M83.3714 1451.89 L88.2556 1451.89 L88.2556 1457.77 L83.3714 1457.77 L83.3714 1451.89 Z" fill="#000000" fill-rule="evenodd" fill-opacity="1" /><path clip-path="url(#clip210)" d="M108.441 1426.29 Q104.83 1426.29 103.001 1429.86 Q101.195 1433.4 101.195 1440.53 Q101.195 1447.64 103.001 1451.2 Q104.83 1454.74 108.441 1454.74 Q112.075 1454.74 113.88 1451.2 Q115.709 1447.64 115.709 1440.53 Q115.709 1433.4 113.88 1429.86 Q112.075 1426.29 108.441 1426.29 M108.441 1422.59 Q114.251 1422.59 117.306 1427.2 Q120.385 1431.78 120.385 1440.53 Q120.385 1449.26 117.306 1453.86 Q114.251 1458.45 108.441 1458.45 Q102.631 1458.45 99.5519 1453.86 Q96.4963 1449.26 96.4963 1440.53 Q96.4963 1431.78 99.5519 1427.2 Q102.631 1422.59 108.441 1422.59 Z" fill="#000000" fill-rule="evenodd" fill-opacity="1" /><path clip-path="url(#clip210)" d="M138.603 1426.29 Q134.991 1426.29 133.163 1429.86 Q131.357 1433.4 131.357 1440.53 Q131.357 1447.64 133.163 1451.2 Q134.991 1454.74 138.603 1454.74 Q142.237 1454.74 144.042 1451.2 Q145.871 1447.64 145.871 1440.53 Q145.871 1433.4 144.042 1429.86 Q142.237 1426.29 138.603 1426.29 M138.603 1422.59 Q144.413 1422.59 147.468 1427.2 Q150.547 1431.78 150.547 1440.53 Q150.547 1449.26 147.468 1453.86 Q144.413 1458.45 138.603 1458.45 Q132.792 1458.45 129.714 1453.86 Q126.658 1449.26 126.658 1440.53 Q126.658 1431.78 129.714 1427.2 Q132.792 1422.59 138.603 1422.59 Z" fill="#000000" fill-rule="evenodd" fill-opacity="1" /><path clip-path="url(#clip210)" d="M159.575 1453.84 L167.214 1453.84 L167.214 1427.47 L158.903 1429.14 L158.903 1424.88 L167.167 1423.21 L171.843 1423.21 L171.843 1453.84 L179.482 1453.84 L179.482 1457.77 L159.575 1457.77 L159.575 1453.84 Z" fill="#000000" fill-rule="evenodd" fill-opacity="1" /><path clip-path="url(#clip210)" d="M63.5798 1115.63 Q59.9687 1115.63 58.14 1119.2 Q56.3345 1122.74 56.3345 1129.87 Q56.3345 1136.97 58.14 1140.54 Q59.9687 1144.08 63.5798 1144.08 Q67.2141 1144.08 69.0196 1140.54 Q70.8483 1136.97 70.8483 1129.87 Q70.8483 1122.74 69.0196 1119.2 Q67.2141 1115.63 63.5798 1115.63 M63.5798 1111.93 Q69.39 1111.93 72.4455 1116.53 Q75.5242 1121.12 75.5242 1129.87 Q75.5242 1138.59 72.4455 1143.2 Q69.39 1147.78 63.5798 1147.78 Q57.7697 1147.78 54.691 1143.2 Q51.6354 1138.59 51.6354 1129.87 Q51.6354 1121.12 54.691 1116.53 Q57.7697 1111.93 63.5798 1111.93 Z" fill="#000000" fill-rule="evenodd" fill-opacity="1" /><path clip-path="url(#clip210)" d="M83.7418 1141.23 L88.626 1141.23 L88.626 1147.11 L83.7418 1147.11 L83.7418 1141.23 Z" fill="#000000" fill-rule="evenodd" fill-opacity="1" /><path clip-path="url(#clip210)" d="M108.811 1115.63 Q105.2 1115.63 103.371 1119.2 Q101.566 1122.74 101.566 1129.87 Q101.566 1136.97 103.371 1140.54 Q105.2 1144.08 108.811 1144.08 Q112.445 1144.08 114.251 1140.54 Q116.08 1136.97 116.08 1129.87 Q116.08 1122.74 114.251 1119.2 Q112.445 1115.63 108.811 1115.63 M108.811 1111.93 Q114.621 1111.93 117.677 1116.53 Q120.755 1121.12 120.755 1129.87 Q120.755 1138.59 117.677 1143.2 Q114.621 1147.78 108.811 1147.78 Q103.001 1147.78 99.9222 1143.2 Q96.8667 1138.59 96.8667 1129.87 Q96.8667 1121.12 99.9222 1116.53 Q103.001 1111.93 108.811 1111.93 Z" fill="#000000" fill-rule="evenodd" fill-opacity="1" /><path clip-path="url(#clip210)" d="M138.973 1115.63 Q135.362 1115.63 133.533 1119.2 Q131.728 1122.74 131.728 1129.87 Q131.728 1136.97 133.533 1140.54 Q135.362 1144.08 138.973 1144.08 Q142.607 1144.08 144.413 1140.54 Q146.241 1136.97 146.241 1129.87 Q146.241 1122.74 144.413 1119.2 Q142.607 1115.63 138.973 1115.63 M138.973 1111.93 Q144.783 1111.93 147.839 1116.53 Q150.917 1121.12 150.917 1129.87 Q150.917 1138.59 147.839 1143.2 Q144.783 1147.78 138.973 1147.78 Q133.163 1147.78 130.084 1143.2 Q127.029 1138.59 127.029 1129.87 Q127.029 1121.12 130.084 1116.53 Q133.163 1111.93 138.973 1111.93 Z" fill="#000000" fill-rule="evenodd" fill-opacity="1" /><path clip-path="url(#clip210)" d="M163.163 1143.18 L179.482 1143.18 L179.482 1147.11 L157.538 1147.11 L157.538 1143.18 Q160.2 1140.42 164.783 1135.79 Q169.389 1131.14 170.57 1129.8 Q172.815 1127.27 173.695 1125.54 Q174.598 1123.78 174.598 1122.09 Q174.598 1119.33 172.653 1117.6 Q170.732 1115.86 167.63 1115.86 Q165.431 1115.86 162.977 1116.63 Q160.547 1117.39 157.769 1118.94 L157.769 1114.22 Q160.593 1113.09 163.047 1112.51 Q165.501 1111.93 167.538 1111.93 Q172.908 1111.93 176.102 1114.61 Q179.297 1117.3 179.297 1121.79 Q179.297 1123.92 178.487 1125.84 Q177.7 1127.74 175.593 1130.33 Q175.014 1131 171.913 1134.22 Q168.811 1137.41 163.163 1143.18 Z" fill="#000000" fill-rule="evenodd" fill-opacity="1" /><path clip-path="url(#clip210)" d="M62.6308 804.969 Q59.0197 804.969 57.191 808.534 Q55.3854 812.076 55.3854 819.205 Q55.3854 826.312 57.191 829.877 Q59.0197 833.418 62.6308 833.418 Q66.265 833.418 68.0705 829.877 Q69.8992 826.312 69.8992 819.205 Q69.8992 812.076 68.0705 808.534 Q66.265 804.969 62.6308 804.969 M62.6308 801.266 Q68.4409 801.266 71.4965 805.872 Q74.5751 810.455 74.5751 819.205 Q74.5751 827.932 71.4965 832.539 Q68.4409 837.122 62.6308 837.122 Q56.8206 837.122 53.7419 832.539 Q50.6864 827.932 50.6864 819.205 Q50.6864 810.455 53.7419 805.872 Q56.8206 801.266 62.6308 801.266 Z" fill="#000000" fill-rule="evenodd" fill-opacity="1" /><path clip-path="url(#clip210)" d="M82.7927 830.571 L87.6769 830.571 L87.6769 836.451 L82.7927 836.451 L82.7927 830.571 Z" fill="#000000" fill-rule="evenodd" fill-opacity="1" /><path clip-path="url(#clip210)" d="M107.862 804.969 Q104.251 804.969 102.422 808.534 Q100.617 812.076 100.617 819.205 Q100.617 826.312 102.422 829.877 Q104.251 833.418 107.862 833.418 Q111.496 833.418 113.302 829.877 Q115.13 826.312 115.13 819.205 Q115.13 812.076 113.302 808.534 Q111.496 804.969 107.862 804.969 M107.862 801.266 Q113.672 801.266 116.728 805.872 Q119.806 810.455 119.806 819.205 Q119.806 827.932 116.728 832.539 Q113.672 837.122 107.862 837.122 Q102.052 837.122 98.9732 832.539 Q95.9176 827.932 95.9176 819.205 Q95.9176 810.455 98.9732 805.872 Q102.052 801.266 107.862 801.266 Z" fill="#000000" fill-rule="evenodd" fill-opacity="1" /><path clip-path="url(#clip210)" d="M138.024 804.969 Q134.413 804.969 132.584 808.534 Q130.779 812.076 130.779 819.205 Q130.779 826.312 132.584 829.877 Q134.413 833.418 138.024 833.418 Q141.658 833.418 143.464 829.877 Q145.292 826.312 145.292 819.205 Q145.292 812.076 143.464 808.534 Q141.658 804.969 138.024 804.969 M138.024 801.266 Q143.834 801.266 146.89 805.872 Q149.968 810.455 149.968 819.205 Q149.968 827.932 146.89 832.539 Q143.834 837.122 138.024 837.122 Q132.214 837.122 129.135 832.539 Q126.079 827.932 126.079 819.205 Q126.079 810.455 129.135 805.872 Q132.214 801.266 138.024 801.266 Z" fill="#000000" fill-rule="evenodd" fill-opacity="1" /><path clip-path="url(#clip210)" d="M172.352 817.817 Q175.709 818.534 177.584 820.803 Q179.482 823.071 179.482 826.404 Q179.482 831.52 175.963 834.321 Q172.445 837.122 165.964 837.122 Q163.788 837.122 161.473 836.682 Q159.181 836.266 156.727 835.409 L156.727 830.895 Q158.672 832.029 160.987 832.608 Q163.302 833.187 165.825 833.187 Q170.223 833.187 172.514 831.451 Q174.829 829.715 174.829 826.404 Q174.829 823.349 172.676 821.636 Q170.547 819.9 166.727 819.9 L162.7 819.9 L162.7 816.057 L166.913 816.057 Q170.362 816.057 172.19 814.692 Q174.019 813.303 174.019 810.71 Q174.019 808.048 172.121 806.636 Q170.246 805.201 166.727 805.201 Q164.806 805.201 162.607 805.618 Q160.408 806.034 157.769 806.914 L157.769 802.747 Q160.431 802.006 162.746 801.636 Q165.084 801.266 167.144 801.266 Q172.468 801.266 175.57 803.696 Q178.672 806.104 178.672 810.224 Q178.672 813.094 177.028 815.085 Q175.385 817.053 172.352 817.817 Z" fill="#000000" fill-rule="evenodd" fill-opacity="1" /><path clip-path="url(#clip210)" d="M61.4965 494.307 Q57.8854 494.307 56.0567 497.872 Q54.2512 501.414 54.2512 508.544 Q54.2512 515.65 56.0567 519.215 Q57.8854 522.756 61.4965 522.756 Q65.1307 522.756 66.9363 519.215 Q68.765 515.65 68.765 508.544 Q68.765 501.414 66.9363 497.872 Q65.1307 494.307 61.4965 494.307 M61.4965 490.604 Q67.3067 490.604 70.3622 495.21 Q73.4409 499.794 73.4409 508.544 Q73.4409 517.27 70.3622 521.877 Q67.3067 526.46 61.4965 526.46 Q55.6864 526.46 52.6077 521.877 Q49.5521 517.27 49.5521 508.544 Q49.5521 499.794 52.6077 495.21 Q55.6864 490.604 61.4965 490.604 Z" fill="#000000" fill-rule="evenodd" fill-opacity="1" /><path clip-path="url(#clip210)" d="M81.6584 519.909 L86.5427 519.909 L86.5427 525.789 L81.6584 525.789 L81.6584 519.909 Z" fill="#000000" fill-rule="evenodd" fill-opacity="1" /><path clip-path="url(#clip210)" d="M106.728 494.307 Q103.117 494.307 101.288 497.872 Q99.4824 501.414 99.4824 508.544 Q99.4824 515.65 101.288 519.215 Q103.117 522.756 106.728 522.756 Q110.362 522.756 112.168 519.215 Q113.996 515.65 113.996 508.544 Q113.996 501.414 112.168 497.872 Q110.362 494.307 106.728 494.307 M106.728 490.604 Q112.538 490.604 115.593 495.21 Q118.672 499.794 118.672 508.544 Q118.672 517.27 115.593 521.877 Q112.538 526.46 106.728 526.46 Q100.918 526.46 97.8389 521.877 Q94.7834 517.27 94.7834 508.544 Q94.7834 499.794 97.8389 495.21 Q100.918 490.604 106.728 490.604 Z" fill="#000000" fill-rule="evenodd" fill-opacity="1" /><path clip-path="url(#clip210)" d="M136.89 494.307 Q133.279 494.307 131.45 497.872 Q129.644 501.414 129.644 508.544 Q129.644 515.65 131.45 519.215 Q133.279 522.756 136.89 522.756 Q140.524 522.756 142.329 519.215 Q144.158 515.65 144.158 508.544 Q144.158 501.414 142.329 497.872 Q140.524 494.307 136.89 494.307 M136.89 490.604 Q142.7 490.604 145.755 495.21 Q148.834 499.794 148.834 508.544 Q148.834 517.27 145.755 521.877 Q142.7 526.46 136.89 526.46 Q131.079 526.46 128.001 521.877 Q124.945 517.27 124.945 508.544 Q124.945 499.794 128.001 495.21 Q131.079 490.604 136.89 490.604 Z" fill="#000000" fill-rule="evenodd" fill-opacity="1" /><path clip-path="url(#clip210)" d="M169.899 495.303 L158.093 513.752 L169.899 513.752 L169.899 495.303 M168.672 491.229 L174.551 491.229 L174.551 513.752 L179.482 513.752 L179.482 517.641 L174.551 517.641 L174.551 525.789 L169.899 525.789 L169.899 517.641 L154.297 517.641 L154.297 513.127 L168.672 491.229 Z" fill="#000000" fill-rule="evenodd" fill-opacity="1" /><path clip-path="url(#clip210)" d="M62.978 183.646 Q59.3669 183.646 57.5382 187.21 Q55.7326 190.752 55.7326 197.882 Q55.7326 204.988 57.5382 208.553 Q59.3669 212.094 62.978 212.094 Q66.6122 212.094 68.4178 208.553 Q70.2465 204.988 70.2465 197.882 Q70.2465 190.752 68.4178 187.21 Q66.6122 183.646 62.978 183.646 M62.978 179.942 Q68.7881 179.942 71.8437 184.548 Q74.9224 189.132 74.9224 197.882 Q74.9224 206.608 71.8437 211.215 Q68.7881 215.798 62.978 215.798 Q57.1678 215.798 54.0891 211.215 Q51.0336 206.608 51.0336 197.882 Q51.0336 189.132 54.0891 184.548 Q57.1678 179.942 62.978 179.942 Z" fill="#000000" fill-rule="evenodd" fill-opacity="1" /><path clip-path="url(#clip210)" d="M83.1399 209.247 L88.0241 209.247 L88.0241 215.127 L83.1399 215.127 L83.1399 209.247 Z" fill="#000000" fill-rule="evenodd" fill-opacity="1" /><path clip-path="url(#clip210)" d="M108.209 183.646 Q104.598 183.646 102.769 187.21 Q100.964 190.752 100.964 197.882 Q100.964 204.988 102.769 208.553 Q104.598 212.094 108.209 212.094 Q111.843 212.094 113.649 208.553 Q115.478 204.988 115.478 197.882 Q115.478 190.752 113.649 187.21 Q111.843 183.646 108.209 183.646 M108.209 179.942 Q114.019 179.942 117.075 184.548 Q120.154 189.132 120.154 197.882 Q120.154 206.608 117.075 211.215 Q114.019 215.798 108.209 215.798 Q102.399 215.798 99.3204 211.215 Q96.2648 206.608 96.2648 197.882 Q96.2648 189.132 99.3204 184.548 Q102.399 179.942 108.209 179.942 Z" fill="#000000" fill-rule="evenodd" fill-opacity="1" /><path clip-path="url(#clip210)" d="M138.371 183.646 Q134.76 183.646 132.931 187.21 Q131.126 190.752 131.126 197.882 Q131.126 204.988 132.931 208.553 Q134.76 212.094 138.371 212.094 Q142.005 212.094 143.811 208.553 Q145.64 204.988 145.64 197.882 Q145.64 190.752 143.811 187.21 Q142.005 183.646 138.371 183.646 M138.371 179.942 Q144.181 179.942 147.237 184.548 Q150.315 189.132 150.315 197.882 Q150.315 206.608 147.237 211.215 Q144.181 215.798 138.371 215.798 Q132.561 215.798 129.482 211.215 Q126.427 206.608 126.427 197.882 Q126.427 189.132 129.482 184.548 Q132.561 179.942 138.371 179.942 Z" fill="#000000" fill-rule="evenodd" fill-opacity="1" /><path clip-path="url(#clip210)" d="M158.579 180.567 L176.936 180.567 L176.936 184.502 L162.862 184.502 L162.862 192.974 Q163.88 192.627 164.899 192.465 Q165.917 192.28 166.936 192.28 Q172.723 192.28 176.102 195.451 Q179.482 198.622 179.482 204.039 Q179.482 209.618 176.01 212.719 Q172.538 215.798 166.218 215.798 Q164.042 215.798 161.774 215.428 Q159.528 215.057 157.121 214.317 L157.121 209.618 Q159.204 210.752 161.427 211.307 Q163.649 211.863 166.126 211.863 Q170.13 211.863 172.468 209.757 Q174.806 207.65 174.806 204.039 Q174.806 200.428 172.468 198.321 Q170.13 196.215 166.126 196.215 Q164.251 196.215 162.376 196.632 Q160.524 197.048 158.579 197.928 L158.579 180.567 Z" fill="#000000" fill-rule="evenodd" fill-opacity="1" /><polyline clip-path="url(#clip212)" style="stroke:#009af9; stroke-linecap:round; stroke-linejoin:round; stroke-width:4; stroke-opacity:1; fill:none" points="556.775,1750.88 562.377,1750.72 567.979,1750.47 573.581,1750.08 579.183,1749.48 584.785,1748.58 590.387,1747.27 595.989,1745.38 601.591,1742.69 607.193,1738.96 612.795,1733.84 618.397,1726.95 623.999,1717.85 629.602,1706.02 635.204,1690.94 640.806,1672.05 646.408,1648.83 652.01,1620.83 657.612,1587.71 663.214,1549.34 668.816,1505.79 674.418,1457.42 680.02,1404.91 685.622,1349.3 691.224,1291.92 696.826,1234.4 702.428,1178.62 708.03,1126.57 713.632,1080.24 719.234,1041.56 724.836,1012.17 730.438,993.394 736.04,986.074 741.642,990.551 747.244,1006.62 752.846,1033.54 758.448,1070.11 764.05,1114.75 769.652,1165.6 775.254,1220.66 780.856,1277.93 786.458,1335.49 792.06,1391.67 797.662,1445.02 803.264,1494.46 808.866,1539.23 814.468,1578.87 820.07,1613.25 825.672,1642.46 831.274,1666.8 836.876,1686.7 842.478,1702.66 848.08,1715.23 853.682,1724.95 859.284,1732.33 864.887,1737.84 870.489,1741.88 876.091,1744.8 881.693,1746.86 887.295,1748.3 892.897,1749.29 898.499,1749.95 904.101,1750.39 909.703,1750.68 915.305,1750.86 920.907,1750.98 926.509,1751.05 932.111,1751.09 937.713,1751.12 943.315,1751.14 948.917,1751.14 954.519,1751.15 960.121,1751.15 965.723,1751.15 971.325,1751.15 976.927,1751.14 982.529,1751.14 988.131,1751.12 993.733,1751.1 999.335,1751.07 1004.94,1751.02 1010.54,1750.94 1016.14,1750.82 1021.74,1750.65 1027.35,1750.38 1032.95,1750 1038.55,1749.46 1044.15,1748.71 1049.75,1747.66 1055.36,1746.23 1060.96,1744.31 1066.56,1741.78 1072.16,1738.49 1077.76,1734.27 1083.37,1728.95 1088.97,1722.32 1094.57,1714.2 1100.17,1704.4 1105.77,1692.71 1111.38,1679 1116.98,1663.11 1122.58,1644.95 1128.18,1624.48 1133.78,1601.67 1139.39,1576.58 1144.99,1549.29 1150.59,1519.93 1156.19,1488.67 1161.79,1455.71 1167.4,1421.24 1173,1385.49 1178.6,1348.65 1184.2,1310.92 1189.8,1272.46 1195.41,1233.43 1201.01,1193.94 1206.61,1154.09 1212.21,1113.93 1217.81,1073.51 1223.42,1032.83 1229.02,991.892 1234.62,950.666 1240.22,909.111 1245.82,867.173 1251.43,824.793 1257.03,781.912 1262.63,738.479 1268.23,694.463 1273.83,649.864 1279.44,604.724 1285.04,559.141 1290.64,513.279 1296.24,467.377 1301.84,421.755 1307.45,376.813 1313.05,333.033 1318.65,290.971 1324.25,251.244 1329.85,214.522 1335.46,181.509 1341.06,152.927 1346.66,129.496 1352.26,111.916 1357.86,100.844 1363.47,96.8724 1369.07,100.506 1374.67,112.138 1380.27,132.026 1385.87,160.271 1391.48,196.797 1397.08,241.343 1402.68,293.456 1408.28,352.492 1413.88,417.64 1419.49,487.936 1425.09,562.306 1430.69,639.603 1436.29,718.65 1441.89,798.292 1447.5,877.429 1453.1,955.063 1458.7,1030.32 1464.3,1102.46 1469.91,1170.92 1475.51,1235.27 1481.11,1295.22 1486.71,1350.62 1492.31,1401.43 1497.92,1447.7 1503.52,1489.53 1509.12,1527.11 1514.72,1560.63 1520.32,1590.33 1525.93,1616.45 1531.53,1639.26 1537.13,1659.01 1542.73,1675.96 1548.33,1690.38 1553.94,1702.53 1559.54,1712.66 1565.14,1721.01 1570.74,1727.81 1576.34,1733.29 1581.95,1737.65 1587.55,1741.07 1593.15,1743.72 1598.75,1745.74 1604.35,1747.27 1609.96,1748.4 1615.56,1749.23 1621.16,1749.83 1626.76,1750.25 1632.36,1750.55 1637.97,1750.75 1643.57,1750.89 1649.17,1750.97 1654.77,1751.02 1660.37,1751.04 1665.98,1751.02 1671.58,1750.98 "/>
<polyline clip-path="url(#clip212)" style="stroke:#e26f46; stroke-linecap:round; stroke-linejoin:round; stroke-width:4; stroke-opacity:1; fill:none" points="288.32,1751.04 297.708,1751.01 307.096,1750.95 316.484,1750.88 325.872,1750.78 335.26,1750.65 344.648,1750.48 354.036,1750.26 363.425,1749.97 372.813,1749.59 382.201,1749.11 391.589,1748.5 400.977,1747.73 410.365,1746.78 419.753,1745.59 429.142,1744.13 438.53,1742.35 447.918,1740.2 457.306,1737.61 466.694,1734.53 476.082,1730.89 485.47,1726.62 494.859,1721.66 504.247,1715.94 513.635,1709.4 523.023,1702 532.411,1693.68 541.799,1684.42 551.187,1674.2 560.575,1663.03 569.964,1650.93 579.352,1637.96 588.74,1624.19 598.128,1609.73 607.516,1594.69 616.904,1579.25 626.292,1563.57 635.681,1547.86 645.069,1532.33 654.457,1517.21 663.845,1502.74 673.233,1489.13 682.621,1476.63 692.009,1465.43 701.398,1455.72 710.786,1447.67 720.174,1441.4 729.562,1436.99 738.95,1434.5 748.338,1433.93 757.726,1435.23 767.114,1438.33 776.503,1443.09 785.891,1449.37 795.279,1456.98 804.667,1465.7 814.055,1475.31 823.443,1485.56 832.831,1496.22 842.22,1507.05 851.608,1517.83 860.996,1528.34 870.384,1538.4 879.772,1547.85 889.16,1556.54 898.548,1564.38 907.936,1571.27 917.325,1577.17 926.713,1582.05 936.101,1585.91 945.489,1588.76 954.877,1590.63 964.265,1591.57 973.653,1591.64 983.042,1590.9 992.43,1589.4 1001.82,1587.21 1011.21,1584.39 1020.59,1580.99 1029.98,1577.07 1039.37,1572.65 1048.76,1567.77 1058.15,1562.46 1067.53,1556.72 1076.92,1550.58 1086.31,1544.01 1095.7,1537.03 1105.09,1529.61 1114.48,1521.75 1123.86,1513.44 1133.25,1504.65 1142.64,1495.38 1152.03,1485.6 1161.42,1475.32 1170.8,1464.53 1180.19,1453.22 1189.58,1441.4 1198.97,1429.08 1208.36,1416.27 1217.74,1402.99 1227.13,1389.27 1236.52,1375.13 1245.91,1360.6 1255.3,1345.72 1264.69,1330.53 1274.07,1315.07 1283.46,1299.39 1292.85,1283.53 1302.24,1267.56 1311.63,1251.52 1321.01,1235.47 1330.4,1219.48 1339.79,1203.63 1349.18,1187.98 1358.57,1172.61 1367.96,1157.61 1377.34,1143.07 1386.73,1129.09 1396.12,1115.75 1405.51,1103.17 1414.9,1091.45 1424.28,1080.69 1433.67,1071.01 1443.06,1062.5 1452.45,1055.28 1461.84,1049.43 1471.22,1045.06 1480.61,1042.24 1490,1041.06 1499.39,1041.58 1508.78,1043.85 1518.17,1047.92 1527.55,1053.82 1536.94,1061.55 1546.33,1071.12 1555.72,1082.5 1565.11,1095.67 1574.49,1110.56 1583.88,1127.1 1593.27,1145.21 1602.66,1164.79 1612.05,1185.71 1621.43,1207.84 1630.82,1231.02 1640.21,1255.11 1649.6,1279.92 1658.99,1305.28 1668.38,1331 1677.76,1356.91 1687.15,1382.8 1696.54,1408.51 1705.93,1433.86 1715.32,1458.68 1724.7,1482.82 1734.09,1506.14 1743.48,1528.51 1752.87,1549.84 1762.26,1570.04 1771.64,1589.03 1781.03,1606.78 1790.42,1623.26 1799.81,1638.45 1809.2,1652.37 1818.59,1665.03 1827.97,1676.48 1837.36,1686.76 1846.75,1695.94 1856.14,1704.07 1865.53,1711.22 1874.91,1717.49 1884.3,1722.93 1893.69,1727.62 1903.08,1731.65 1912.47,1735.09 1921.86,1737.99 1931.24,1740.43 1940.63,1742.47 1950.02,1744.17 1959.41,1745.56 1968.8,1746.71 1978.18,1747.64 1987.57,1748.39 1996.96,1749 2006.35,1749.48 2015.74,1749.86 2025.12,1750.16 2034.51,1750.4 2043.9,1750.58 2053.29,1750.72 2062.68,1750.83 2072.07,1750.91 2081.45,1750.97 2090.84,1751.02 2100.23,1751.05 2109.62,1751.07 2119.01,1751.09 2128.39,1751.1 2137.78,1751.09 2147.17,1751.09 2156.56,1751.07 "/>
<polyline clip-path="url(#clip212)" style="stroke:#3da44d; stroke-linecap:round; stroke-linejoin:round; stroke-width:4; stroke-opacity:1; fill:none" points="416.878,1751 427.709,1750.98 438.54,1750.92 449.371,1750.81 460.202,1750.64 471.033,1750.37 481.864,1749.97 492.695,1749.38 503.526,1748.53 514.357,1747.32 525.188,1745.62 536.018,1743.26 546.849,1740.05 557.68,1735.72 568.511,1729.97 579.342,1722.44 590.173,1712.72 601.004,1700.34 611.835,1684.82 622.666,1665.61 633.497,1642.2 644.328,1614.09 655.159,1580.82 665.99,1542.04 676.821,1497.54 687.652,1447.26 698.483,1391.37 709.314,1330.25 720.145,1264.57 730.976,1195.21 741.807,1123.35 752.638,1050.36 763.469,977.793 774.3,907.333 785.13,840.702 795.961,779.598 806.792,725.609 817.623,680.134 828.454,644.321 839.285,619.005 850.116,604.677 860.947,601.466 871.778,609.141 882.609,627.139 893.44,654.602 904.271,690.435 915.102,733.368 925.933,782.021 936.764,834.975 947.595,890.832 958.426,948.266 969.257,1006.07 980.088,1063.18 990.919,1118.7 1001.75,1171.92 1012.58,1222.3 1023.41,1269.45 1034.24,1313.14 1045.07,1353.27 1055.9,1389.85 1066.74,1422.97 1077.57,1452.76 1088.4,1479.43 1099.23,1503.18 1110.06,1524.25 1120.89,1542.86 1131.72,1559.23 1142.55,1573.56 1153.38,1586.04 1164.21,1596.86 1175.04,1606.17 1185.88,1614.15 1196.71,1620.94 1207.54,1626.69 1218.37,1631.55 1229.2,1635.66 1240.03,1639.17 1250.86,1642.22 1261.69,1644.96 1272.52,1647.49 1283.35,1649.96 1294.19,1652.44 1305.02,1655.04 1315.85,1657.8 1326.68,1660.77 1337.51,1663.96 1348.34,1667.37 1359.17,1670.98 1370,1674.75 1380.83,1678.62 1391.66,1682.54 1402.5,1686.45 1413.33,1690.29 1424.16,1694 1434.99,1697.54 1445.82,1700.86 1456.65,1703.95 1467.48,1706.78 1478.31,1709.36 1489.14,1711.7 1499.97,1713.83 1510.8,1715.76 1521.64,1717.54 1532.47,1719.2 1543.3,1720.79 1554.13,1722.33 1564.96,1723.87 1575.79,1725.42 1586.62,1727 1597.45,1728.62 1608.28,1730.29 1619.11,1731.98 1629.95,1733.69 1640.78,1735.4 1651.61,1737.09 1662.44,1738.73 1673.27,1740.3 1684.1,1741.78 1694.93,1743.15 1705.76,1744.41 1716.59,1745.53 1727.42,1746.53 1738.25,1747.4 1749.09,1748.14 1759.92,1748.76 1770.75,1749.28 1781.58,1749.7 1792.41,1750.03 1803.24,1750.28 1814.07,1750.46 1824.9,1750.58 1835.73,1750.63 1846.56,1750.61 1857.4,1750.5 1868.23,1750.3 1879.06,1749.97 1889.89,1749.47 1900.72,1748.75 1911.55,1747.73 1922.38,1746.33 1933.21,1744.43 1944.04,1741.89 1954.87,1738.57 1965.7,1734.27 1976.54,1728.81 1987.37,1721.97 1998.2,1713.54 2009.03,1703.32 2019.86,1691.13 2030.69,1676.84 2041.52,1660.38 2052.35,1641.73 2063.18,1621.01 2074.01,1598.42 2084.85,1574.3 2095.68,1549.08 2106.51,1523.34 2117.34,1497.73 2128.17,1472.99 2139,1449.88 2149.83,1429.2 2160.66,1411.66 2171.49,1397.93 2182.32,1388.53 2193.15,1383.82 2203.99,1383.99 2214.82,1389.04 2225.65,1398.77 2236.48,1412.79 2247.31,1430.57 2258.14,1451.45 2268.97,1474.7 2279.8,1499.53 2290.63,1525.17 2301.46,1550.89 2312.3,1576.05 2323.13,1600.08 2333.96,1622.54 2344.79,1643.12 2355.62,1661.61 2366.45,1677.93 2377.28,1692.06 2388.11,1704.1 2398.94,1714.19 2409.77,1722.5 2420.6,1729.24 2431.44,1734.61 2442.27,1738.84 2453.1,1742.1 2463.93,1744.59 2474.76,1746.46 2485.59,1747.84 2496.42,1748.85 2507.25,1749.57 2518.08,1750.08 2528.91,1750.43 2539.75,1750.67 2550.58,1750.83 2561.41,1750.93 2572.24,1750.98 "/>
<path clip-path="url(#clip210)" d="M2291.04 313.055 L2560.06 313.055 L2560.06 105.695 L2291.04 105.695  Z" fill="#ffffff" fill-rule="evenodd" fill-opacity="1"/>
<polyline clip-path="url(#clip210)" style="stroke:#000000; stroke-linecap:round; stroke-linejoin:round; stroke-width:4; stroke-opacity:1; fill:none" points="2291.04,313.055 2560.06,313.055 2560.06,105.695 2291.04,105.695 2291.04,313.055 "/>
<polyline clip-path="url(#clip210)" style="stroke:#009af9; stroke-linecap:round; stroke-linejoin:round; stroke-width:4; stroke-opacity:1; fill:none" points="2317.94,157.535 2479.34,157.535 "/>
<path clip-path="url(#clip210)" d="M2506.24 140.255 L2510.91 140.255 L2510.91 174.815 L2506.24 174.815 L2506.24 140.255 Z" fill="#000000" fill-rule="evenodd" fill-opacity="1" /><polyline clip-path="url(#clip210)" style="stroke:#e26f46; stroke-linecap:round; stroke-linejoin:round; stroke-width:4; stroke-opacity:1; fill:none" points="2317.94,209.375 2479.34,209.375 "/>
<path clip-path="url(#clip210)" d="M2522.63 210.452 Q2524.13 210.961 2525.54 212.628 Q2526.98 214.294 2528.41 217.211 L2533.16 226.655 L2528.13 226.655 L2523.71 217.79 Q2522 214.317 2520.38 213.183 Q2518.78 212.049 2516.01 212.049 L2510.91 212.049 L2510.91 226.655 L2506.24 226.655 L2506.24 192.095 L2516.79 192.095 Q2522.72 192.095 2525.63 194.572 Q2528.55 197.049 2528.55 202.049 Q2528.55 205.313 2527.02 207.466 Q2525.52 209.618 2522.63 210.452 M2510.91 195.938 L2510.91 208.206 L2516.79 208.206 Q2520.17 208.206 2521.88 206.655 Q2523.62 205.081 2523.62 202.049 Q2523.62 199.017 2521.88 197.489 Q2520.17 195.938 2516.79 195.938 L2510.91 195.938 Z" fill="#000000" fill-rule="evenodd" fill-opacity="1" /><polyline clip-path="url(#clip210)" style="stroke:#3da44d; stroke-linecap:round; stroke-linejoin:round; stroke-width:4; stroke-opacity:1; fill:none" points="2317.94,261.215 2479.34,261.215 "/>
<path clip-path="url(#clip210)" d="M2528.48 245.07 L2528.48 249.63 Q2525.82 248.357 2523.46 247.732 Q2521.1 247.107 2518.9 247.107 Q2515.08 247.107 2513 248.588 Q2510.94 250.069 2510.94 252.801 Q2510.94 255.093 2512.3 256.273 Q2513.69 257.431 2517.53 258.148 L2520.36 258.727 Q2525.59 259.722 2528.07 262.245 Q2530.57 264.745 2530.57 268.958 Q2530.57 273.981 2527.19 276.574 Q2523.83 279.167 2517.32 279.167 Q2514.87 279.167 2512.09 278.611 Q2509.34 278.055 2506.38 276.967 L2506.38 272.153 Q2509.22 273.75 2511.95 274.56 Q2514.69 275.37 2517.32 275.37 Q2521.33 275.37 2523.51 273.796 Q2525.68 272.222 2525.68 269.306 Q2525.68 266.759 2524.11 265.324 Q2522.56 263.889 2518.99 263.171 L2516.14 262.616 Q2510.91 261.574 2508.57 259.352 Q2506.24 257.13 2506.24 253.171 Q2506.24 248.588 2509.45 245.949 Q2512.7 243.31 2518.37 243.31 Q2520.8 243.31 2523.32 243.75 Q2525.84 244.19 2528.48 245.07 Z" fill="#000000" fill-rule="evenodd" fill-opacity="1" /></svg>
