<?xml version="1.0" encoding="utf-8"?>
<svg xmlns="http://www.w3.org/2000/svg" xmlns:xlink="http://www.w3.org/1999/xlink" width="604.75" height="364.75" viewBox="0 0 2419 1459">
<defs>
  <clipPath id="clip300">
    <rect x="0" y="0" width="2419" height="1459"/>
  </clipPath>
</defs>
<path clip-path="url(#clip300)" d="M0 1459 L2419 1459 L2419 0 L0 0  Z" fill="#ffffff" fill-rule="evenodd" fill-opacity="1"/>
<defs>
  <clipPath id="clip301">
    <rect x="483" y="0" width="1694" height="1459"/>
  </clipPath>
</defs>
<path clip-path="url(#clip300)" d="M186.937 1350.16 L2371.76 1350.16 L2371.76 47.2376 L186.937 47.2376  Z" fill="#ffffff" fill-rule="evenodd" fill-opacity="1"/>
<defs>
  <clipPath id="clip302">
    <rect x="186" y="47" width="2186" height="1304"/>
  </clipPath>
</defs>
<polyline clip-path="url(#clip302)" style="stroke:#000000; stroke-linecap:round; stroke-linejoin:round; stroke-width:1.99973; stroke-opacity:0.1; fill:none" points="538.788,1350.16 538.788,47.2376 "/>
<polyline clip-path="url(#clip302)" style="stroke:#000000; stroke-linecap:round; stroke-linejoin:round; stroke-width:1.99973; stroke-opacity:0.1; fill:none" points="951.772,1350.16 951.772,47.2376 "/>
<polyline clip-path="url(#clip302)" style="stroke:#000000; stroke-linecap:round; stroke-linejoin:round; stroke-width:1.99973; stroke-opacity:0.1; fill:none" points="1364.75,1350.16 1364.75,47.2376 "/>
<polyline clip-path="url(#clip302)" style="stroke:#000000; stroke-linecap:round; stroke-linejoin:round; stroke-width:1.99973; stroke-opacity:0.1; fill:none" points="1777.74,1350.16 1777.74,47.2376 "/>
<polyline clip-path="url(#clip302)" style="stroke:#000000; stroke-linecap:round; stroke-linejoin:round; stroke-width:1.99973; stroke-opacity:0.1; fill:none" points="2190.72,1350.16 2190.72,47.2376 "/>
<polyline clip-path="url(#clip300)" style="stroke:#000000; stroke-linecap:round; stroke-linejoin:round; stroke-width:3.99945; stroke-opacity:1; fill:none" points="186.937,1350.16 2371.76,1350.16 "/>
<polyline clip-path="url(#clip300)" style="stroke:#000000; stroke-linecap:round; stroke-linejoin:round; stroke-width:3.99945; stroke-opacity:1; fill:none" points="538.788,1350.16 538.788,1331.27 "/>
<polyline clip-path="url(#clip300)" style="stroke:#000000; stroke-linecap:round; stroke-linejoin:round; stroke-width:3.99945; stroke-opacity:1; fill:none" points="951.772,1350.16 951.772,1331.27 "/>
<polyline clip-path="url(#clip300)" style="stroke:#000000; stroke-linecap:round; stroke-linejoin:round; stroke-width:3.99945; stroke-opacity:1; fill:none" points="1364.75,1350.16 1364.75,1331.27 "/>
<polyline clip-path="url(#clip300)" style="stroke:#000000; stroke-linecap:round; stroke-linejoin:round; stroke-width:3.99945; stroke-opacity:1; fill:none" points="1777.74,1350.16 1777.74,1331.27 "/>
<polyline clip-path="url(#clip300)" style="stroke:#000000; stroke-linecap:round; stroke-linejoin:round; stroke-width:3.99945; stroke-opacity:1; fill:none" points="2190.72,1350.16 2190.72,1331.27 "/>
<path clip-path="url(#clip300)" d="M538.788 1381.23 Q535.178 1381.23 533.349 1384.79 Q531.544 1388.34 531.544 1395.46 Q531.544 1402.57 533.349 1406.13 Q535.178 1409.68 538.788 1409.68 Q542.422 1409.68 544.228 1406.13 Q546.056 1402.57 546.056 1395.46 Q546.056 1388.34 544.228 1384.79 Q542.422 1381.23 538.788 1381.23 M538.788 1377.53 Q544.598 1377.53 547.653 1382.13 Q550.732 1386.72 550.732 1395.46 Q550.732 1404.19 547.653 1408.8 Q544.598 1413.38 538.788 1413.38 Q532.979 1413.38 529.9 1408.8 Q526.845 1404.19 526.845 1395.46 Q526.845 1386.72 529.9 1382.13 Q532.979 1377.53 538.788 1377.53 Z" fill="#000000" fill-rule="evenodd" fill-opacity="1" /><path clip-path="url(#clip300)" d="M940.615 1394.08 Q943.971 1394.79 945.846 1397.06 Q947.744 1399.33 947.744 1402.66 Q947.744 1407.78 944.226 1410.58 Q940.708 1413.38 934.227 1413.38 Q932.051 1413.38 929.736 1412.94 Q927.445 1412.52 924.991 1411.67 L924.991 1407.15 Q926.936 1408.29 929.25 1408.87 Q931.565 1409.44 934.088 1409.44 Q938.486 1409.44 940.777 1407.71 Q943.092 1405.97 943.092 1402.66 Q943.092 1399.61 940.939 1397.89 Q938.81 1396.16 934.991 1396.16 L930.963 1396.16 L930.963 1392.32 L935.176 1392.32 Q938.625 1392.32 940.453 1390.95 Q942.282 1389.56 942.282 1386.97 Q942.282 1384.31 940.384 1382.9 Q938.509 1381.46 934.991 1381.46 Q933.069 1381.46 930.871 1381.88 Q928.672 1382.29 926.033 1383.17 L926.033 1379.01 Q928.695 1378.27 931.009 1377.9 Q933.347 1377.53 935.407 1377.53 Q940.731 1377.53 943.832 1379.96 Q946.934 1382.36 946.934 1386.48 Q946.934 1389.35 945.291 1391.34 Q943.647 1393.31 940.615 1394.08 Z" fill="#000000" fill-rule="evenodd" fill-opacity="1" /><path clip-path="url(#clip300)" d="M966.608 1381.23 Q962.997 1381.23 961.169 1384.79 Q959.363 1388.34 959.363 1395.46 Q959.363 1402.57 961.169 1406.13 Q962.997 1409.68 966.608 1409.68 Q970.242 1409.68 972.048 1406.13 Q973.876 1402.57 973.876 1395.46 Q973.876 1388.34 972.048 1384.79 Q970.242 1381.23 966.608 1381.23 M966.608 1377.53 Q972.418 1377.53 975.473 1382.13 Q978.552 1386.72 978.552 1395.46 Q978.552 1404.19 975.473 1408.8 Q972.418 1413.38 966.608 1413.38 Q960.799 1413.38 957.72 1408.8 Q954.665 1404.19 954.665 1395.46 Q954.665 1386.72 957.72 1382.13 Q960.799 1377.53 966.608 1377.53 Z" fill="#000000" fill-rule="evenodd" fill-opacity="1" /><path clip-path="url(#clip300)" d="M1350.16 1393.57 Q1347.01 1393.57 1345.16 1395.72 Q1343.33 1397.87 1343.33 1401.62 Q1343.33 1405.35 1345.16 1407.52 Q1347.01 1409.68 1350.16 1409.68 Q1353.31 1409.68 1355.14 1407.52 Q1356.99 1405.35 1356.99 1401.62 Q1356.99 1397.87 1355.14 1395.72 Q1353.31 1393.57 1350.16 1393.57 M1359.44 1378.92 L1359.44 1383.17 Q1357.68 1382.34 1355.88 1381.9 Q1354.1 1381.46 1352.34 1381.46 Q1347.71 1381.46 1345.25 1384.59 Q1342.82 1387.71 1342.48 1394.03 Q1343.84 1392.02 1345.9 1390.95 Q1347.96 1389.86 1350.44 1389.86 Q1355.65 1389.86 1358.66 1393.03 Q1361.69 1396.18 1361.69 1401.62 Q1361.69 1406.94 1358.54 1410.16 Q1355.39 1413.38 1350.16 1413.38 Q1344.17 1413.38 1341 1408.8 Q1337.82 1404.19 1337.82 1395.46 Q1337.82 1387.27 1341.71 1382.41 Q1345.6 1377.53 1352.15 1377.53 Q1353.91 1377.53 1355.69 1377.87 Q1357.5 1378.22 1359.44 1378.92 Z" fill="#000000" fill-rule="evenodd" fill-opacity="1" /><path clip-path="url(#clip300)" d="M1379.74 1381.23 Q1376.13 1381.23 1374.3 1384.79 Q1372.5 1388.34 1372.5 1395.46 Q1372.5 1402.57 1374.3 1406.13 Q1376.13 1409.68 1379.74 1409.68 Q1383.38 1409.68 1385.18 1406.13 Q1387.01 1402.57 1387.01 1395.46 Q1387.01 1388.34 1385.18 1384.79 Q1383.38 1381.23 1379.74 1381.23 M1379.74 1377.53 Q1385.55 1377.53 1388.61 1382.13 Q1391.69 1386.72 1391.69 1395.46 Q1391.69 1404.19 1388.61 1408.8 Q1385.55 1413.38 1379.74 1413.38 Q1373.93 1413.38 1370.85 1408.8 Q1367.8 1404.19 1367.8 1395.46 Q1367.8 1386.72 1370.85 1382.13 Q1373.93 1377.53 1379.74 1377.53 Z" fill="#000000" fill-rule="evenodd" fill-opacity="1" /><path clip-path="url(#clip300)" d="M1752.87 1411.99 L1752.87 1407.73 Q1754.63 1408.56 1756.43 1409 Q1758.24 1409.44 1759.97 1409.44 Q1764.6 1409.44 1767.03 1406.34 Q1769.49 1403.22 1769.83 1396.88 Q1768.49 1398.87 1766.43 1399.93 Q1764.37 1401 1761.87 1401 Q1756.69 1401 1753.65 1397.87 Q1750.65 1394.72 1750.65 1389.28 Q1750.65 1383.96 1753.79 1380.74 Q1756.94 1377.53 1762.17 1377.53 Q1768.17 1377.53 1771.31 1382.13 Q1774.49 1386.72 1774.49 1395.46 Q1774.49 1403.63 1770.6 1408.52 Q1766.73 1413.38 1760.18 1413.38 Q1758.42 1413.38 1756.62 1413.03 Q1754.81 1412.68 1752.87 1411.99 M1762.17 1397.34 Q1765.32 1397.34 1767.15 1395.19 Q1769 1393.03 1769 1389.28 Q1769 1385.56 1767.15 1383.41 Q1765.32 1381.23 1762.17 1381.23 Q1759.02 1381.23 1757.17 1383.41 Q1755.34 1385.56 1755.34 1389.28 Q1755.34 1393.03 1757.17 1395.19 Q1759.02 1397.34 1762.17 1397.34 Z" fill="#000000" fill-rule="evenodd" fill-opacity="1" /><path clip-path="url(#clip300)" d="M1792.89 1381.23 Q1789.28 1381.23 1787.45 1384.79 Q1785.64 1388.34 1785.64 1395.46 Q1785.64 1402.57 1787.45 1406.13 Q1789.28 1409.68 1792.89 1409.68 Q1796.52 1409.68 1798.33 1406.13 Q1800.16 1402.57 1800.16 1395.46 Q1800.16 1388.34 1798.33 1384.79 Q1796.52 1381.23 1792.89 1381.23 M1792.89 1377.53 Q1798.7 1377.53 1801.75 1382.13 Q1804.83 1386.72 1804.83 1395.46 Q1804.83 1404.19 1801.75 1408.8 Q1798.7 1413.38 1792.89 1413.38 Q1787.08 1413.38 1784 1408.8 Q1780.94 1404.19 1780.94 1395.46 Q1780.94 1386.72 1784 1382.13 Q1787.08 1377.53 1792.89 1377.53 Z" fill="#000000" fill-rule="evenodd" fill-opacity="1" /><path clip-path="url(#clip300)" d="M2150.33 1408.77 L2157.97 1408.77 L2157.97 1382.41 L2149.66 1384.08 L2149.66 1379.82 L2157.92 1378.15 L2162.6 1378.15 L2162.6 1408.77 L2170.24 1408.77 L2170.24 1412.71 L2150.33 1412.71 L2150.33 1408.77 Z" fill="#000000" fill-rule="evenodd" fill-opacity="1" /><path clip-path="url(#clip300)" d="M2183.71 1408.77 L2200.03 1408.77 L2200.03 1412.71 L2178.08 1412.71 L2178.08 1408.77 Q2180.75 1406.02 2185.33 1401.39 Q2189.93 1396.74 2191.11 1395.39 Q2193.36 1392.87 2194.24 1391.14 Q2195.14 1389.38 2195.14 1387.69 Q2195.14 1384.93 2193.2 1383.2 Q2191.28 1381.46 2188.18 1381.46 Q2185.98 1381.46 2183.52 1382.23 Q2181.09 1382.99 2178.31 1384.54 L2178.31 1379.82 Q2181.14 1378.68 2183.59 1378.11 Q2186.05 1377.53 2188.08 1377.53 Q2193.45 1377.53 2196.65 1380.21 Q2199.84 1382.9 2199.84 1387.39 Q2199.84 1389.52 2199.03 1391.44 Q2198.24 1393.34 2196.14 1395.93 Q2195.56 1396.6 2192.46 1399.82 Q2189.36 1403.01 2183.71 1408.77 Z" fill="#000000" fill-rule="evenodd" fill-opacity="1" /><path clip-path="url(#clip300)" d="M2219.84 1381.23 Q2216.23 1381.23 2214.4 1384.79 Q2212.59 1388.34 2212.59 1395.46 Q2212.59 1402.57 2214.4 1406.13 Q2216.23 1409.68 2219.84 1409.68 Q2223.47 1409.68 2225.28 1406.13 Q2227.11 1402.57 2227.11 1395.46 Q2227.11 1388.34 2225.28 1384.79 Q2223.47 1381.23 2219.84 1381.23 M2219.84 1377.53 Q2225.65 1377.53 2228.7 1382.13 Q2231.78 1386.72 2231.78 1395.46 Q2231.78 1404.19 2228.7 1408.8 Q2225.65 1413.38 2219.84 1413.38 Q2214.03 1413.38 2210.95 1408.8 Q2207.9 1404.19 2207.9 1395.46 Q2207.9 1386.72 2210.95 1382.13 Q2214.03 1377.53 2219.84 1377.53 Z" fill="#000000" fill-rule="evenodd" fill-opacity="1" /><polyline clip-path="url(#clip302)" style="stroke:#000000; stroke-linecap:round; stroke-linejoin:round; stroke-width:1.99973; stroke-opacity:0.1; fill:none" points="186.937,1313.31 2371.76,1313.31 "/>
<polyline clip-path="url(#clip302)" style="stroke:#000000; stroke-linecap:round; stroke-linejoin:round; stroke-width:1.99973; stroke-opacity:0.1; fill:none" points="186.937,1115.17 2371.76,1115.17 "/>
<polyline clip-path="url(#clip302)" style="stroke:#000000; stroke-linecap:round; stroke-linejoin:round; stroke-width:1.99973; stroke-opacity:0.1; fill:none" points="186.937,917.033 2371.76,917.033 "/>
<polyline clip-path="url(#clip302)" style="stroke:#000000; stroke-linecap:round; stroke-linejoin:round; stroke-width:1.99973; stroke-opacity:0.1; fill:none" points="186.937,718.894 2371.76,718.894 "/>
<polyline clip-path="url(#clip302)" style="stroke:#000000; stroke-linecap:round; stroke-linejoin:round; stroke-width:1.99973; stroke-opacity:0.1; fill:none" points="186.937,520.754 2371.76,520.754 "/>
<polyline clip-path="url(#clip302)" style="stroke:#000000; stroke-linecap:round; stroke-linejoin:round; stroke-width:1.99973; stroke-opacity:0.1; fill:none" points="186.937,322.614 2371.76,322.614 "/>
<polyline clip-path="url(#clip302)" style="stroke:#000000; stroke-linecap:round; stroke-linejoin:round; stroke-width:1.99973; stroke-opacity:0.1; fill:none" points="186.937,124.475 2371.76,124.475 "/>
<polyline clip-path="url(#clip300)" style="stroke:#000000; stroke-linecap:round; stroke-linejoin:round; stroke-width:3.99945; stroke-opacity:1; fill:none" points="186.937,1350.16 186.937,47.2376 "/>
<polyline clip-path="url(#clip300)" style="stroke:#000000; stroke-linecap:round; stroke-linejoin:round; stroke-width:3.99945; stroke-opacity:1; fill:none" points="186.937,1313.31 205.833,1313.31 "/>
<polyline clip-path="url(#clip300)" style="stroke:#000000; stroke-linecap:round; stroke-linejoin:round; stroke-width:3.99945; stroke-opacity:1; fill:none" points="186.937,1115.17 205.833,1115.17 "/>
<polyline clip-path="url(#clip300)" style="stroke:#000000; stroke-linecap:round; stroke-linejoin:round; stroke-width:3.99945; stroke-opacity:1; fill:none" points="186.937,917.033 205.833,917.033 "/>
<polyline clip-path="url(#clip300)" style="stroke:#000000; stroke-linecap:round; stroke-linejoin:round; stroke-width:3.99945; stroke-opacity:1; fill:none" points="186.937,718.894 205.833,718.894 "/>
<polyline clip-path="url(#clip300)" style="stroke:#000000; stroke-linecap:round; stroke-linejoin:round; stroke-width:3.99945; stroke-opacity:1; fill:none" points="186.937,520.754 205.833,520.754 "/>
<polyline clip-path="url(#clip300)" style="stroke:#000000; stroke-linecap:round; stroke-linejoin:round; stroke-width:3.99945; stroke-opacity:1; fill:none" points="186.937,322.614 205.833,322.614 "/>
<polyline clip-path="url(#clip300)" style="stroke:#000000; stroke-linecap:round; stroke-linejoin:round; stroke-width:3.99945; stroke-opacity:1; fill:none" points="186.937,124.475 205.833,124.475 "/>
<path clip-path="url(#clip300)" d="M63.3214 1299.11 Q59.7106 1299.11 57.882 1302.68 Q56.0766 1306.22 56.0766 1313.35 Q56.0766 1320.45 57.882 1324.02 Q59.7106 1327.56 63.3214 1327.56 Q66.9553 1327.56 68.7607 1324.02 Q70.5893 1320.45 70.5893 1313.35 Q70.5893 1306.22 68.7607 1302.68 Q66.9553 1299.11 63.3214 1299.11 M63.3214 1295.41 Q69.1311 1295.41 72.1863 1300.02 Q75.2648 1304.6 75.2648 1313.35 Q75.2648 1322.07 72.1863 1326.68 Q69.1311 1331.26 63.3214 1331.26 Q57.5117 1331.26 54.4333 1326.68 Q51.378 1322.07 51.378 1313.35 Q51.378 1304.6 54.4333 1300.02 Q57.5117 1295.41 63.3214 1295.41 Z" fill="#000000" fill-rule="evenodd" fill-opacity="1" /><path clip-path="url(#clip300)" d="M83.4816 1324.71 L88.3655 1324.71 L88.3655 1330.59 L83.4816 1330.59 L83.4816 1324.71 Z" fill="#000000" fill-rule="evenodd" fill-opacity="1" /><path clip-path="url(#clip300)" d="M108.549 1299.11 Q104.938 1299.11 103.11 1302.68 Q101.304 1306.22 101.304 1313.35 Q101.304 1320.45 103.11 1324.02 Q104.938 1327.56 108.549 1327.56 Q112.183 1327.56 113.988 1324.02 Q115.817 1320.45 115.817 1313.35 Q115.817 1306.22 113.988 1302.68 Q112.183 1299.11 108.549 1299.11 M108.549 1295.41 Q114.359 1295.41 117.414 1300.02 Q120.492 1304.6 120.492 1313.35 Q120.492 1322.07 117.414 1326.68 Q114.359 1331.26 108.549 1331.26 Q102.739 1331.26 99.6608 1326.68 Q96.6055 1322.07 96.6055 1313.35 Q96.6055 1304.6 99.6608 1300.02 Q102.739 1295.41 108.549 1295.41 Z" fill="#000000" fill-rule="evenodd" fill-opacity="1" /><path clip-path="url(#clip300)" d="M138.708 1299.11 Q135.097 1299.11 133.269 1302.68 Q131.464 1306.22 131.464 1313.35 Q131.464 1320.45 133.269 1324.02 Q135.097 1327.56 138.708 1327.56 Q142.342 1327.56 144.148 1324.02 Q145.976 1320.45 145.976 1313.35 Q145.976 1306.22 144.148 1302.68 Q142.342 1299.11 138.708 1299.11 M138.708 1295.41 Q144.518 1295.41 147.573 1300.02 Q150.652 1304.6 150.652 1313.35 Q150.652 1322.07 147.573 1326.68 Q144.518 1331.26 138.708 1331.26 Q132.899 1331.26 129.82 1326.68 Q126.765 1322.07 126.765 1313.35 Q126.765 1304.6 129.82 1300.02 Q132.899 1295.41 138.708 1295.41 Z" fill="#000000" fill-rule="evenodd" fill-opacity="1" /><path clip-path="url(#clip300)" d="M64.5481 1100.97 Q60.9373 1100.97 59.1088 1104.54 Q57.3034 1108.08 57.3034 1115.21 Q57.3034 1122.31 59.1088 1125.88 Q60.9373 1129.42 64.5481 1129.42 Q68.1821 1129.42 69.9875 1125.88 Q71.816 1122.31 71.816 1115.21 Q71.816 1108.08 69.9875 1104.54 Q68.1821 1100.97 64.5481 1100.97 M64.5481 1097.27 Q70.3578 1097.27 73.4131 1101.88 Q76.4915 1106.46 76.4915 1115.21 Q76.4915 1123.93 73.4131 1128.54 Q70.3578 1133.12 64.5481 1133.12 Q58.7384 1133.12 55.66 1128.54 Q52.6047 1123.93 52.6047 1115.21 Q52.6047 1106.46 55.66 1101.88 Q58.7384 1097.27 64.5481 1097.27 Z" fill="#000000" fill-rule="evenodd" fill-opacity="1" /><path clip-path="url(#clip300)" d="M84.7084 1126.57 L89.5922 1126.57 L89.5922 1132.45 L84.7084 1132.45 L84.7084 1126.57 Z" fill="#000000" fill-rule="evenodd" fill-opacity="1" /><path clip-path="url(#clip300)" d="M109.776 1100.97 Q106.165 1100.97 104.336 1104.54 Q102.531 1108.08 102.531 1115.21 Q102.531 1122.31 104.336 1125.88 Q106.165 1129.42 109.776 1129.42 Q113.41 1129.42 115.215 1125.88 Q117.044 1122.31 117.044 1115.21 Q117.044 1108.08 115.215 1104.54 Q113.41 1100.97 109.776 1100.97 M109.776 1097.27 Q115.585 1097.27 118.641 1101.88 Q121.719 1106.46 121.719 1115.21 Q121.719 1123.93 118.641 1128.54 Q115.585 1133.12 109.776 1133.12 Q103.966 1133.12 100.888 1128.54 Q97.8322 1123.93 97.8322 1115.21 Q97.8322 1106.46 100.888 1101.88 Q103.966 1097.27 109.776 1097.27 Z" fill="#000000" fill-rule="evenodd" fill-opacity="1" /><path clip-path="url(#clip300)" d="M130.746 1128.52 L138.384 1128.52 L138.384 1102.15 L130.075 1103.82 L130.075 1099.56 L138.338 1097.9 L143.013 1097.9 L143.013 1128.52 L150.652 1128.52 L150.652 1132.45 L130.746 1132.45 L130.746 1128.52 Z" fill="#000000" fill-rule="evenodd" fill-opacity="1" /><path clip-path="url(#clip300)" d="M64.9185 902.834 Q61.3077 902.834 59.4791 906.398 Q57.6737 909.939 57.6737 917.068 Q57.6737 924.173 59.4791 927.738 Q61.3077 931.279 64.9185 931.279 Q68.5524 931.279 70.3578 927.738 Q72.1863 924.173 72.1863 917.068 Q72.1863 909.939 70.3578 906.398 Q68.5524 902.834 64.9185 902.834 M64.9185 899.131 Q70.7281 899.131 73.7834 903.737 Q76.8619 908.319 76.8619 917.068 Q76.8619 925.794 73.7834 930.399 Q70.7281 934.982 64.9185 934.982 Q59.1088 934.982 56.0304 930.399 Q52.9751 925.794 52.9751 917.068 Q52.9751 908.319 56.0304 903.737 Q59.1088 899.131 64.9185 899.131 Z" fill="#000000" fill-rule="evenodd" fill-opacity="1" /><path clip-path="url(#clip300)" d="M85.0787 928.432 L89.9626 928.432 L89.9626 934.311 L85.0787 934.311 L85.0787 928.432 Z" fill="#000000" fill-rule="evenodd" fill-opacity="1" /><path clip-path="url(#clip300)" d="M110.146 902.834 Q106.535 902.834 104.707 906.398 Q102.901 909.939 102.901 917.068 Q102.901 924.173 104.707 927.738 Q106.535 931.279 110.146 931.279 Q113.78 931.279 115.585 927.738 Q117.414 924.173 117.414 917.068 Q117.414 909.939 115.585 906.398 Q113.78 902.834 110.146 902.834 M110.146 899.131 Q115.956 899.131 119.011 903.737 Q122.089 908.319 122.089 917.068 Q122.089 925.794 119.011 930.399 Q115.956 934.982 110.146 934.982 Q104.336 934.982 101.258 930.399 Q98.2026 925.794 98.2026 917.068 Q98.2026 908.319 101.258 903.737 Q104.336 899.131 110.146 899.131 Z" fill="#000000" fill-rule="evenodd" fill-opacity="1" /><path clip-path="url(#clip300)" d="M134.334 930.376 L150.652 930.376 L150.652 934.311 L128.709 934.311 L128.709 930.376 Q131.371 927.622 135.954 922.993 Q140.56 918.341 141.74 916.999 Q143.986 914.476 144.865 912.74 Q145.768 910.981 145.768 909.291 Q145.768 906.537 143.824 904.801 Q141.902 903.065 138.801 903.065 Q136.602 903.065 134.148 903.829 Q131.718 904.593 128.941 906.144 L128.941 901.422 Q131.764 900.288 134.218 899.709 Q136.671 899.131 138.708 899.131 Q144.078 899.131 147.272 901.816 Q150.466 904.5 150.466 908.99 Q150.466 911.12 149.656 913.041 Q148.869 914.939 146.763 917.531 Q146.184 918.202 143.083 921.419 Q139.981 924.613 134.334 930.376 Z" fill="#000000" fill-rule="evenodd" fill-opacity="1" /><path clip-path="url(#clip300)" d="M63.9695 704.694 Q60.3587 704.694 58.5301 708.259 Q56.7247 711.8 56.7247 718.928 Q56.7247 726.034 58.5301 729.598 Q60.3587 733.139 63.9695 733.139 Q67.6034 733.139 69.4088 729.598 Q71.2373 726.034 71.2373 718.928 Q71.2373 711.8 69.4088 708.259 Q67.6034 704.694 63.9695 704.694 M63.9695 700.991 Q69.7791 700.991 72.8344 705.597 Q75.9129 710.18 75.9129 718.928 Q75.9129 727.654 72.8344 732.26 Q69.7791 736.843 63.9695 736.843 Q58.1598 736.843 55.0814 732.26 Q52.0261 727.654 52.0261 718.928 Q52.0261 710.18 55.0814 705.597 Q58.1598 700.991 63.9695 700.991 Z" fill="#000000" fill-rule="evenodd" fill-opacity="1" /><path clip-path="url(#clip300)" d="M84.1297 730.293 L89.0136 730.293 L89.0136 736.171 L84.1297 736.171 L84.1297 730.293 Z" fill="#000000" fill-rule="evenodd" fill-opacity="1" /><path clip-path="url(#clip300)" d="M109.197 704.694 Q105.586 704.694 103.758 708.259 Q101.952 711.8 101.952 718.928 Q101.952 726.034 103.758 729.598 Q105.586 733.139 109.197 733.139 Q112.831 733.139 114.636 729.598 Q116.465 726.034 116.465 718.928 Q116.465 711.8 114.636 708.259 Q112.831 704.694 109.197 704.694 M109.197 700.991 Q115.007 700.991 118.062 705.597 Q121.14 710.18 121.14 718.928 Q121.14 727.654 118.062 732.26 Q115.007 736.843 109.197 736.843 Q103.387 736.843 100.309 732.26 Q97.2536 727.654 97.2536 718.928 Q97.2536 710.18 100.309 705.597 Q103.387 700.991 109.197 700.991 Z" fill="#000000" fill-rule="evenodd" fill-opacity="1" /><path clip-path="url(#clip300)" d="M143.523 717.54 Q146.879 718.257 148.754 720.525 Q150.652 722.794 150.652 726.126 Q150.652 731.241 147.133 734.042 Q143.615 736.843 137.134 736.843 Q134.959 736.843 132.644 736.403 Q130.353 735.986 127.899 735.13 L127.899 730.617 Q129.843 731.751 132.158 732.329 Q134.473 732.908 136.995 732.908 Q141.393 732.908 143.685 731.172 Q145.999 729.436 145.999 726.126 Q145.999 723.071 143.847 721.359 Q141.717 719.623 137.898 719.623 L133.871 719.623 L133.871 715.781 L138.083 715.781 Q141.532 715.781 143.361 714.415 Q145.189 713.026 145.189 710.434 Q145.189 707.773 143.291 706.361 Q141.416 704.926 137.898 704.926 Q135.977 704.926 133.778 705.342 Q131.579 705.759 128.941 706.638 L128.941 702.472 Q131.602 701.732 133.917 701.361 Q136.255 700.991 138.315 700.991 Q143.638 700.991 146.74 703.421 Q149.842 705.828 149.842 709.948 Q149.842 712.818 148.198 714.809 Q146.555 716.776 143.523 717.54 Z" fill="#000000" fill-rule="evenodd" fill-opacity="1" /><path clip-path="url(#clip300)" d="M62.8353 506.555 Q59.2245 506.555 57.396 510.119 Q55.5906 513.66 55.5906 520.789 Q55.5906 527.894 57.396 531.459 Q59.2245 535 62.8353 535 Q66.4693 535 68.2746 531.459 Q70.1032 527.894 70.1032 520.789 Q70.1032 513.66 68.2746 510.119 Q66.4693 506.555 62.8353 506.555 M62.8353 502.852 Q68.645 502.852 71.7003 507.457 Q74.7787 512.04 74.7787 520.789 Q74.7787 529.514 71.7003 534.12 Q68.645 538.703 62.8353 538.703 Q57.0256 538.703 53.9472 534.12 Q50.8919 529.514 50.8919 520.789 Q50.8919 512.04 53.9472 507.457 Q57.0256 502.852 62.8353 502.852 Z" fill="#000000" fill-rule="evenodd" fill-opacity="1" /><path clip-path="url(#clip300)" d="M82.9956 532.153 L87.8794 532.153 L87.8794 538.032 L82.9956 538.032 L82.9956 532.153 Z" fill="#000000" fill-rule="evenodd" fill-opacity="1" /><path clip-path="url(#clip300)" d="M108.063 506.555 Q104.452 506.555 102.623 510.119 Q100.818 513.66 100.818 520.789 Q100.818 527.894 102.623 531.459 Q104.452 535 108.063 535 Q111.697 535 113.502 531.459 Q115.331 527.894 115.331 520.789 Q115.331 513.66 113.502 510.119 Q111.697 506.555 108.063 506.555 M108.063 502.852 Q113.872 502.852 116.928 507.457 Q120.006 512.04 120.006 520.789 Q120.006 529.514 116.928 534.12 Q113.872 538.703 108.063 538.703 Q102.253 538.703 99.1747 534.12 Q96.1194 529.514 96.1194 520.789 Q96.1194 512.04 99.1747 507.457 Q102.253 502.852 108.063 502.852 Z" fill="#000000" fill-rule="evenodd" fill-opacity="1" /><path clip-path="url(#clip300)" d="M141.069 507.55 L129.265 525.996 L141.069 525.996 L141.069 507.55 M139.842 503.476 L145.722 503.476 L145.722 525.996 L150.652 525.996 L150.652 529.885 L145.722 529.885 L145.722 538.032 L141.069 538.032 L141.069 529.885 L125.469 529.885 L125.469 525.371 L139.842 503.476 Z" fill="#000000" fill-rule="evenodd" fill-opacity="1" /><path clip-path="url(#clip300)" d="M64.3167 308.415 Q60.7059 308.415 58.8773 311.979 Q57.0719 315.521 57.0719 322.649 Q57.0719 329.755 58.8773 333.319 Q60.7059 336.86 64.3167 336.86 Q67.9506 336.86 69.756 333.319 Q71.5845 329.755 71.5845 322.649 Q71.5845 315.521 69.756 311.979 Q67.9506 308.415 64.3167 308.415 M64.3167 304.712 Q70.1263 304.712 73.1816 309.318 Q76.2601 313.9 76.2601 322.649 Q76.2601 331.375 73.1816 335.981 Q70.1263 340.563 64.3167 340.563 Q58.507 340.563 55.4286 335.981 Q52.3733 331.375 52.3733 322.649 Q52.3733 313.9 55.4286 309.318 Q58.507 304.712 64.3167 304.712 Z" fill="#000000" fill-rule="evenodd" fill-opacity="1" /><path clip-path="url(#clip300)" d="M84.4769 334.013 L89.3608 334.013 L89.3608 339.892 L84.4769 339.892 L84.4769 334.013 Z" fill="#000000" fill-rule="evenodd" fill-opacity="1" /><path clip-path="url(#clip300)" d="M109.544 308.415 Q105.933 308.415 104.105 311.979 Q102.299 315.521 102.299 322.649 Q102.299 329.755 104.105 333.319 Q105.933 336.86 109.544 336.86 Q113.178 336.86 114.983 333.319 Q116.812 329.755 116.812 322.649 Q116.812 315.521 114.983 311.979 Q113.178 308.415 109.544 308.415 M109.544 304.712 Q115.354 304.712 118.409 309.318 Q121.488 313.9 121.488 322.649 Q121.488 331.375 118.409 335.981 Q115.354 340.563 109.544 340.563 Q103.734 340.563 100.656 335.981 Q97.6008 331.375 97.6008 322.649 Q97.6008 313.9 100.656 309.318 Q103.734 304.712 109.544 304.712 Z" fill="#000000" fill-rule="evenodd" fill-opacity="1" /><path clip-path="url(#clip300)" d="M129.751 305.337 L148.106 305.337 L148.106 309.271 L134.033 309.271 L134.033 317.742 Q135.051 317.395 136.07 317.233 Q137.088 317.048 138.106 317.048 Q143.893 317.048 147.272 320.219 Q150.652 323.39 150.652 328.806 Q150.652 334.384 147.18 337.485 Q143.708 340.563 137.389 340.563 Q135.213 340.563 132.945 340.193 Q130.7 339.823 128.293 339.082 L128.293 334.384 Q130.376 335.518 132.598 336.073 Q134.82 336.629 137.296 336.629 Q141.301 336.629 143.638 334.522 Q145.976 332.416 145.976 328.806 Q145.976 325.195 143.638 323.089 Q141.301 320.983 137.296 320.983 Q135.422 320.983 133.547 321.399 Q131.695 321.816 129.751 322.695 L129.751 305.337 Z" fill="#000000" fill-rule="evenodd" fill-opacity="1" /><path clip-path="url(#clip300)" d="M63.1594 110.276 Q59.5486 110.276 57.72 113.84 Q55.9146 117.381 55.9146 124.51 Q55.9146 131.615 57.72 135.179 Q59.5486 138.721 63.1594 138.721 Q66.7933 138.721 68.5987 135.179 Q70.4272 131.615 70.4272 124.51 Q70.4272 117.381 68.5987 113.84 Q66.7933 110.276 63.1594 110.276 M63.1594 106.572 Q68.969 106.572 72.0243 111.178 Q75.1027 115.761 75.1027 124.51 Q75.1027 133.235 72.0243 137.841 Q68.969 142.424 63.1594 142.424 Q57.3497 142.424 54.2713 137.841 Q51.216 133.235 51.216 124.51 Q51.216 115.761 54.2713 111.178 Q57.3497 106.572 63.1594 106.572 Z" fill="#000000" fill-rule="evenodd" fill-opacity="1" /><path clip-path="url(#clip300)" d="M83.3196 135.874 L88.2034 135.874 L88.2034 141.752 L83.3196 141.752 L83.3196 135.874 Z" fill="#000000" fill-rule="evenodd" fill-opacity="1" /><path clip-path="url(#clip300)" d="M108.387 110.276 Q104.776 110.276 102.948 113.84 Q101.142 117.381 101.142 124.51 Q101.142 131.615 102.948 135.179 Q104.776 138.721 108.387 138.721 Q112.021 138.721 113.826 135.179 Q115.655 131.615 115.655 124.51 Q115.655 117.381 113.826 113.84 Q112.021 110.276 108.387 110.276 M108.387 106.572 Q114.197 106.572 117.252 111.178 Q120.33 115.761 120.33 124.51 Q120.33 133.235 117.252 137.841 Q114.197 142.424 108.387 142.424 Q102.577 142.424 99.4988 137.841 Q96.4435 133.235 96.4435 124.51 Q96.4435 115.761 99.4988 111.178 Q102.577 106.572 108.387 106.572 Z" fill="#000000" fill-rule="evenodd" fill-opacity="1" /><path clip-path="url(#clip300)" d="M139.125 122.612 Q135.977 122.612 134.125 124.764 Q132.297 126.917 132.297 130.666 Q132.297 134.392 134.125 136.568 Q135.977 138.721 139.125 138.721 Q142.273 138.721 144.101 136.568 Q145.953 134.392 145.953 130.666 Q145.953 126.917 144.101 124.764 Q142.273 122.612 139.125 122.612 M148.406 107.961 L148.406 112.22 Q146.647 111.386 144.842 110.947 Q143.06 110.507 141.301 110.507 Q136.671 110.507 134.218 113.632 Q131.788 116.756 131.44 123.075 Q132.806 121.061 134.866 119.996 Q136.926 118.909 139.403 118.909 Q144.611 118.909 147.62 122.079 Q150.652 125.227 150.652 130.666 Q150.652 135.989 147.504 139.207 Q144.356 142.424 139.125 142.424 Q133.13 142.424 129.959 137.841 Q126.788 133.235 126.788 124.51 Q126.788 116.316 130.677 111.456 Q134.565 106.572 141.115 106.572 Q142.875 106.572 144.657 106.919 Q146.462 107.267 148.406 107.961 Z" fill="#000000" fill-rule="evenodd" fill-opacity="1" /><polyline clip-path="url(#clip302)" style="stroke:#009af9; stroke-linecap:round; stroke-linejoin:round; stroke-width:3.99945; stroke-opacity:1; fill:none" points="248.771,1313.28 255.975,1313.28 263.179,1313.27 270.382,1313.25 277.586,1313.23 284.79,1313.2 291.993,1313.15 299.197,1313.09 306.401,1313.01 313.604,1312.9 320.808,1312.76 328.012,1312.57 335.215,1312.32 342.419,1312.01 349.623,1311.6 356.827,1311.09 364.03,1310.45 371.234,1309.64 378.438,1308.65 385.641,1307.44 392.845,1305.96 400.049,1304.19 407.252,1302.07 414.456,1299.57 421.66,1296.63 428.863,1293.21 436.067,1289.27 443.271,1284.77 450.474,1279.68 457.678,1273.95 464.882,1267.58 472.085,1260.55 479.289,1252.87 486.493,1244.54 493.696,1235.58 500.9,1226.04 508.104,1215.97 515.308,1205.42 522.511,1194.47 529.715,1183.21 536.919,1171.71 544.122,1160.07 551.326,1148.39 558.53,1136.74 565.733,1125.21 572.937,1113.87 580.141,1102.8 587.344,1092.02 594.548,1081.58 601.752,1071.49 608.955,1061.75 616.159,1052.34 623.363,1043.23 630.566,1034.37 637.77,1025.71 644.974,1017.18 652.177,1008.72 659.381,1000.26 666.585,991.737 673.789,983.099 680.992,974.304 688.196,965.323 695.4,956.149 702.603,946.79 709.807,937.278 717.011,927.665 724.214,918.024 731.418,908.447 738.622,899.044 745.825,889.937 753.029,881.258 760.233,873.146 767.436,865.739 774.64,859.17 781.844,853.563 789.047,849.026 796.251,845.649 803.455,843.497 810.658,842.61 817.862,842.996 825.066,844.636 832.27,847.48 839.473,851.447 846.677,856.431 853.881,862.3 861.084,868.903 868.288,876.073 875.492,883.632 882.695,891.397 889.899,899.185 897.103,906.817 904.306,914.127 911.51,920.96 918.714,927.181 925.917,932.676 933.121,937.354 940.325,941.151 947.528,944.026 954.732,945.967 961.936,946.987 969.139,947.125 976.343,946.443 983.547,945.024 990.751,942.972 997.954,940.406 1005.16,937.462 1012.36,934.283 1019.57,931.021 1026.77,927.834 1033.97,924.875 1041.18,922.298 1048.38,920.248 1055.58,918.859 1062.79,918.252 1069.99,918.532 1077.19,919.784 1084.4,922.075 1091.6,925.45 1098.81,929.931 1106.01,935.521 1113.21,942.201 1120.42,949.934 1127.62,958.663 1134.82,968.318 1142.03,978.813 1149.23,990.052 1156.44,1001.93 1163.64,1014.33 1170.84,1027.15 1178.05,1040.25 1185.25,1053.52 1192.45,1066.83 1199.66,1080.08 1206.86,1093.13 1214.06,1105.9 1221.27,1118.27 1228.47,1130.16 1235.68,1141.49 1242.88,1152.19 1250.08,1162.21 1257.29,1171.51 1264.49,1180.08 1271.69,1187.9 1278.9,1194.99 1286.1,1201.38 1293.31,1207.11 1300.51,1212.24 1307.71,1216.82 1314.92,1220.95 1322.12,1224.68 1329.32,1228.11 1336.53,1231.31 1343.73,1234.35 1350.93,1237.32 1358.14,1240.26 1365.34,1243.23 1372.55,1246.27 1379.75,1249.39 1386.95,1252.62 1394.16,1255.95 1401.36,1259.38 1408.56,1262.89 1415.77,1266.45 1422.97,1270.04 1430.18,1273.61 1437.38,1277.13 1444.58,1280.58 1451.79,1283.91 1458.99,1287.09 1466.19,1290.1 1473.4,1292.92 1480.6,1295.54 1487.8,1297.94 1495.01,1300.12 1502.21,1302.07 1509.42,1303.82 1516.62,1305.35 1523.82,1306.69 1531.03,1307.85 1538.23,1308.84 1545.43,1309.68 1552.64,1310.39 1559.84,1310.98 1567.05,1311.46 1574.25,1311.86 1581.45,1312.18 1588.66,1312.43 1595.86,1312.64 1603.06,1312.8 1610.27,1312.92 1617.47,1313.02 1624.67,1313.1 1631.88,1313.15 1639.08,1313.2 1646.29,1313.23 1653.49,1313.25 1660.69,1313.27 1667.9,1313.28 1675.1,1313.28 1682.3,1313.28 "/>
<polyline clip-path="url(#clip302)" style="stroke:#e26f46; stroke-linecap:round; stroke-linejoin:round; stroke-width:3.99945; stroke-opacity:1; fill:none" points="395.381,1313.26 398.828,1313.25 402.276,1313.22 405.723,1313.18 409.171,1313.13 412.618,1313.05 416.065,1312.94 419.513,1312.79 422.96,1312.58 426.408,1312.3 429.855,1311.93 433.302,1311.44 436.75,1310.79 440.197,1309.94 443.645,1308.85 447.092,1307.46 450.539,1305.68 453.987,1303.45 457.434,1300.67 460.882,1297.23 464.329,1293.01 467.776,1287.89 471.224,1281.71 474.671,1274.33 478.119,1265.59 481.566,1255.32 485.013,1243.34 488.461,1229.5 491.908,1213.63 495.355,1195.58 498.803,1175.21 502.25,1152.41 505.698,1127.09 509.145,1099.19 512.592,1068.69 516.04,1035.6 519.487,999.998 522.935,961.978 526.382,921.698 529.829,879.359 533.277,835.212 536.724,789.549 540.172,742.703 543.619,695.042 547.066,646.961 550.514,598.875 553.961,551.211 557.409,504.393 560.856,458.838 564.303,414.941 567.751,373.066 571.198,333.538 574.646,296.633 578.093,262.573 581.54,231.52 584.988,203.58 588.435,178.796 591.883,157.159 595.33,138.609 598.777,123.046 602.225,110.338 605.672,100.331 609.12,92.8631 612.567,87.7704 616.014,84.8993 619.462,84.1128 622.909,85.2956 626.357,88.3568 629.804,93.2302 633.251,99.8715 636.699,108.254 640.146,118.362 643.593,130.184 647.041,143.703 650.488,158.893 653.936,175.706 657.383,194.073 660.83,213.895 664.278,235.048 667.725,257.377 671.173,280.703 674.62,304.827 678.067,329.537 681.515,354.612 684.962,379.834 688.41,404.994 691.857,429.899 695.304,454.379 698.752,478.292 702.199,501.525 705.647,524.002 709.094,545.675 712.541,566.531 715.989,586.581 719.436,605.862 722.884,624.427 726.331,642.337 729.778,659.662 733.226,676.468 736.673,692.815 740.121,708.75 743.568,724.308 747.015,739.507 750.463,754.348 753.91,768.82 757.358,782.9 760.805,796.554 764.252,809.748 767.7,822.45 771.147,834.633 774.595,846.283 778.042,857.398 781.489,867.995 784.937,878.108 788.384,887.788 791.831,897.104 795.279,906.134 798.726,914.965 802.174,923.688 805.621,932.393 809.068,941.161 812.516,950.064 815.963,959.158 819.411,968.482 822.858,978.055 826.305,987.879 829.753,997.937 833.2,1008.19 836.648,1018.61 840.095,1029.12 843.542,1039.66 846.99,1050.17 850.437,1060.59 853.885,1070.86 857.332,1080.92 860.779,1090.72 864.227,1100.23 867.674,1109.42 871.122,1118.27 874.569,1126.77 878.016,1134.91 881.464,1142.7 884.911,1150.15 888.359,1157.26 891.806,1164.06 895.253,1170.57 898.701,1176.79 902.148,1182.76 905.596,1188.51 909.043,1194.05 912.49,1199.41 915.938,1204.62 919.385,1209.7 922.833,1214.68 926.28,1219.57 929.727,1224.4 933.175,1229.19 936.622,1233.94 940.069,1238.66 943.517,1243.35 946.964,1248.01 950.412,1252.63 953.859,1257.19 957.306,1261.67 960.754,1266.06 964.201,1270.33 967.649,1274.45 971.096,1278.41 974.543,1282.17 977.991,1285.72 981.438,1289.05 984.886,1292.13 988.333,1294.96 991.78,1297.53 995.228,1299.85 998.675,1301.93 1002.12,1303.76 1005.57,1305.36 1009.02,1306.75 1012.46,1307.94 1015.91,1308.96 1019.36,1309.81 1022.81,1310.52 1026.25,1311.11 1029.7,1311.58 1033.15,1311.97 1036.6,1312.28 1040.04,1312.52 1043.49,1312.72 1046.94,1312.87 1050.39,1312.98 1053.83,1313.07 1057.28,1313.13 1060.73,1313.18 1064.18,1313.22 1067.62,1313.24 1071.07,1313.26 1074.52,1313.27 1077.97,1313.27 1081.41,1313.27 "/>
<polyline clip-path="url(#clip302)" style="stroke:#3da44d; stroke-linecap:round; stroke-linejoin:round; stroke-width:3.99945; stroke-opacity:1; fill:none" points="433.35,1313.29 442.78,1313.29 452.211,1313.28 461.641,1313.27 471.071,1313.26 480.501,1313.24 489.931,1313.22 499.361,1313.19 508.791,1313.15 518.221,1313.09 527.651,1313.02 537.081,1312.92 546.511,1312.8 555.941,1312.65 565.371,1312.46 574.801,1312.22 584.231,1311.92 593.661,1311.55 603.091,1311.1 612.521,1310.56 621.951,1309.9 631.381,1309.12 640.811,1308.2 650.241,1307.11 659.671,1305.85 669.101,1304.39 678.531,1302.71 687.961,1300.8 697.391,1298.64 706.821,1296.23 716.251,1293.55 725.681,1290.59 735.111,1287.35 744.541,1283.84 753.971,1280.05 763.401,1276 772.831,1271.7 782.261,1267.16 791.691,1262.41 801.121,1257.47 810.551,1252.35 819.981,1247.09 829.411,1241.71 838.841,1236.24 848.272,1230.67 857.702,1225.05 867.132,1219.37 876.562,1213.63 885.992,1207.86 895.422,1202.02 904.852,1196.13 914.282,1190.16 923.712,1184.1 933.142,1177.94 942.572,1171.65 952.002,1165.22 961.432,1158.65 970.862,1151.92 980.292,1145.04 989.722,1138.03 999.152,1130.89 1008.58,1123.67 1018.01,1116.4 1027.44,1109.13 1036.87,1101.92 1046.3,1094.85 1055.73,1087.98 1065.16,1081.38 1074.59,1075.15 1084.02,1069.35 1093.45,1064.05 1102.88,1059.32 1112.31,1055.22 1121.74,1051.8 1131.17,1049.07 1140.6,1047.07 1150.03,1045.79 1159.46,1045.22 1168.89,1045.33 1178.32,1046.07 1187.75,1047.39 1197.18,1049.22 1206.61,1051.47 1216.04,1054.06 1225.47,1056.9 1234.9,1059.87 1244.33,1062.89 1253.76,1065.84 1263.19,1068.63 1272.62,1071.16 1282.05,1073.34 1291.48,1075.1 1300.91,1076.36 1310.34,1077.06 1319.77,1077.15 1329.2,1076.58 1338.63,1075.34 1348.06,1073.4 1357.49,1070.77 1366.92,1067.47 1376.35,1063.52 1385.78,1058.96 1395.21,1053.84 1404.64,1048.23 1414.07,1042.2 1423.5,1035.84 1432.93,1029.23 1442.36,1022.48 1451.79,1015.69 1461.22,1008.96 1470.65,1002.39 1480.08,996.09 1489.51,990.145 1498.94,984.646 1508.37,979.673 1517.8,975.295 1527.23,971.569 1536.66,968.541 1546.09,966.244 1555.52,964.697 1564.95,963.908 1574.38,963.875 1583.81,964.583 1593.24,966.009 1602.67,968.123 1612.1,970.889 1621.53,974.267 1630.96,978.214 1640.39,982.685 1649.82,987.635 1659.25,993.021 1668.68,998.802 1678.11,1004.94 1687.54,1011.39 1696.97,1018.14 1706.4,1025.14 1715.83,1032.37 1725.26,1039.81 1734.69,1047.44 1744.12,1055.25 1753.55,1063.21 1762.98,1071.31 1772.41,1079.55 1781.84,1087.91 1791.27,1096.38 1800.7,1104.96 1810.13,1113.62 1819.56,1122.36 1828.99,1131.16 1838.42,1140.01 1847.85,1148.89 1857.28,1157.78 1866.71,1166.64 1876.14,1175.47 1885.57,1184.22 1895,1192.86 1904.43,1201.37 1913.86,1209.7 1923.29,1217.83 1932.72,1225.71 1942.15,1233.32 1951.58,1240.62 1961.01,1247.58 1970.44,1254.19 1979.87,1260.41 1989.3,1266.24 1998.73,1271.66 2008.16,1276.66 2017.59,1281.26 2027.02,1285.44 2036.45,1289.23 2045.88,1292.63 2055.31,1295.66 2064.74,1298.34 2074.17,1300.7 2083.6,1302.75 2093.03,1304.53 2102.46,1306.06 2111.89,1307.36 2121.32,1308.46 2130.75,1309.38 2140.18,1310.15 2149.61,1310.79 2159.04,1311.31 2168.47,1311.74 2177.9,1312.08 2187.33,1312.36 2196.76,1312.58 2206.19,1312.75 2215.62,1312.88 2225.05,1312.99 2234.49,1313.07 2243.92,1313.13 2253.35,1313.18 2262.78,1313.21 2272.21,1313.24 2281.64,1313.26 2291.07,1313.27 2300.5,1313.28 2309.93,1313.29 "/>
<path clip-path="url(#clip300)" d="M2053.53 298 L2298.93 298 L2298.93 90.6684 L2053.53 90.6684  Z" fill="#ffffff" fill-rule="evenodd" fill-opacity="1"/>
<polyline clip-path="url(#clip300)" style="stroke:#000000; stroke-linecap:round; stroke-linejoin:round; stroke-width:3.99945; stroke-opacity:1; fill:none" points="2053.53,298 2298.93,298 2298.93,90.6684 2053.53,90.6684 2053.53,298 "/>
<polyline clip-path="url(#clip300)" style="stroke:#009af9; stroke-linecap:round; stroke-linejoin:round; stroke-width:3.99945; stroke-opacity:1; fill:none" points="2077.81,142.501 2223.46,142.501 "/>
<path clip-path="url(#clip300)" d="M2247.74 125.224 L2252.41 125.224 L2252.41 159.779 L2247.74 159.779 L2247.74 125.224 Z" fill="#000000" fill-rule="evenodd" fill-opacity="1" /><polyline clip-path="url(#clip300)" style="stroke:#e26f46; stroke-linecap:round; stroke-linejoin:round; stroke-width:3.99945; stroke-opacity:1; fill:none" points="2077.81,194.334 2223.46,194.334 "/>
<path clip-path="url(#clip300)" d="M2264.13 195.41 Q2265.63 195.92 2267.04 197.586 Q2268.48 199.253 2269.91 202.169 L2274.66 211.612 L2269.63 211.612 L2265.21 202.747 Q2263.5 199.276 2261.88 198.142 Q2260.28 197.007 2257.51 197.007 L2252.41 197.007 L2252.41 211.612 L2247.74 211.612 L2247.74 177.057 L2258.29 177.057 Q2264.22 177.057 2267.13 179.533 Q2270.05 182.01 2270.05 187.009 Q2270.05 190.272 2268.52 192.425 Q2267.02 194.577 2264.13 195.41 M2252.41 180.899 L2252.41 193.165 L2258.29 193.165 Q2261.67 193.165 2263.38 191.615 Q2265.12 190.041 2265.12 187.009 Q2265.12 183.977 2263.38 182.449 Q2261.67 180.899 2258.29 180.899 L2252.41 180.899 Z" fill="#000000" fill-rule="evenodd" fill-opacity="1" /><polyline clip-path="url(#clip300)" style="stroke:#3da44d; stroke-linecap:round; stroke-linejoin:round; stroke-width:3.99945; stroke-opacity:1; fill:none" points="2077.81,246.167 2223.46,246.167 "/>
<path clip-path="url(#clip300)" d="M2269.98 230.024 L2269.98 234.583 Q2267.32 233.31 2264.96 232.685 Q2262.6 232.06 2260.4 232.06 Q2256.58 232.06 2254.5 233.542 Q2252.44 235.023 2252.44 237.754 Q2252.44 240.045 2253.8 241.226 Q2255.19 242.383 2259.03 243.1 L2261.86 243.679 Q2267.09 244.674 2269.56 247.197 Q2272.06 249.697 2272.06 253.909 Q2272.06 258.932 2268.68 261.524 Q2265.33 264.116 2258.82 264.116 Q2256.37 264.116 2253.59 263.56 Q2250.84 263.005 2247.88 261.917 L2247.88 257.103 Q2250.72 258.7 2253.45 259.51 Q2256.19 260.32 2258.82 260.32 Q2262.83 260.32 2265 258.746 Q2267.18 257.173 2267.18 254.256 Q2267.18 251.71 2265.61 250.275 Q2264.06 248.84 2260.49 248.123 L2257.64 247.567 Q2252.41 246.526 2250.08 244.304 Q2247.74 242.082 2247.74 238.124 Q2247.74 233.542 2250.95 230.903 Q2254.2 228.265 2259.87 228.265 Q2262.3 228.265 2264.82 228.704 Q2267.34 229.144 2269.98 230.024 Z" fill="#000000" fill-rule="evenodd" fill-opacity="1" /></svg>
