<?xml version="1.0" encoding="utf-8"?>
<svg xmlns="http://www.w3.org/2000/svg" xmlns:xlink="http://www.w3.org/1999/xlink" width="672" height="480" viewBox="0 0 2688 1920">
<defs>
  <clipPath id="clip920">
    <rect x="0" y="0" width="2688" height="1920"/>
  </clipPath>
</defs>
<path clip-path="url(#clip920)" d="M0 1920 L2688 1920 L2688 0 L0 0  Z" fill="#ffffff" fill-rule="evenodd" fill-opacity="1"/>
<defs>
  <clipPath id="clip921">
    <rect x="537" y="0" width="1883" height="1883"/>
  </clipPath>
</defs>
<path clip-path="url(#clip920)" d="M172.001 1800.78 L2640.76 1800.78 L2640.76 47.2441 L172.001 47.2441  Z" fill="#ffffff" fill-rule="evenodd" fill-opacity="1"/>
<defs>
  <clipPath id="clip922">
    <rect x="172" y="47" width="2470" height="1755"/>
  </clipPath>
</defs>
<polyline clip-path="url(#clip922)" style="stroke:#000000; stroke-linecap:round; stroke-linejoin:round; stroke-width:2; stroke-opacity:0.1; fill:none" points="241.872,1800.78 241.872,47.2441 "/>
<polyline clip-path="url(#clip922)" style="stroke:#000000; stroke-linecap:round; stroke-linejoin:round; stroke-width:2; stroke-opacity:0.1; fill:none" points="599.704,1800.78 599.704,47.2441 "/>
<polyline clip-path="url(#clip922)" style="stroke:#000000; stroke-linecap:round; stroke-linejoin:round; stroke-width:2; stroke-opacity:0.1; fill:none" points="957.537,1800.78 957.537,47.2441 "/>
<polyline clip-path="url(#clip922)" style="stroke:#000000; stroke-linecap:round; stroke-linejoin:round; stroke-width:2; stroke-opacity:0.1; fill:none" points="1315.37,1800.78 1315.37,47.2441 "/>
<polyline clip-path="url(#clip922)" style="stroke:#000000; stroke-linecap:round; stroke-linejoin:round; stroke-width:2; stroke-opacity:0.1; fill:none" points="1673.2,1800.78 1673.2,47.2441 "/>
<polyline clip-path="url(#clip922)" style="stroke:#000000; stroke-linecap:round; stroke-linejoin:round; stroke-width:2; stroke-opacity:0.1; fill:none" points="2031.03,1800.78 2031.03,47.2441 "/>
<polyline clip-path="url(#clip922)" style="stroke:#000000; stroke-linecap:round; stroke-linejoin:round; stroke-width:2; stroke-opacity:0.1; fill:none" points="2388.87,1800.78 2388.87,47.2441 "/>
<polyline clip-path="url(#clip920)" style="stroke:#000000; stroke-linecap:round; stroke-linejoin:round; stroke-width:4; stroke-opacity:1; fill:none" points="172.001,1800.78 2640.76,1800.78 "/>
<polyline clip-path="url(#clip920)" style="stroke:#000000; stroke-linecap:round; stroke-linejoin:round; stroke-width:4; stroke-opacity:1; fill:none" points="241.872,1800.78 241.872,1781.88 "/>
<polyline clip-path="url(#clip920)" style="stroke:#000000; stroke-linecap:round; stroke-linejoin:round; stroke-width:4; stroke-opacity:1; fill:none" points="599.704,1800.78 599.704,1781.88 "/>
<polyline clip-path="url(#clip920)" style="stroke:#000000; stroke-linecap:round; stroke-linejoin:round; stroke-width:4; stroke-opacity:1; fill:none" points="957.537,1800.78 957.537,1781.88 "/>
<polyline clip-path="url(#clip920)" style="stroke:#000000; stroke-linecap:round; stroke-linejoin:round; stroke-width:4; stroke-opacity:1; fill:none" points="1315.37,1800.78 1315.37,1781.88 "/>
<polyline clip-path="url(#clip920)" style="stroke:#000000; stroke-linecap:round; stroke-linejoin:round; stroke-width:4; stroke-opacity:1; fill:none" points="1673.2,1800.78 1673.2,1781.88 "/>
<polyline clip-path="url(#clip920)" style="stroke:#000000; stroke-linecap:round; stroke-linejoin:round; stroke-width:4; stroke-opacity:1; fill:none" points="2031.03,1800.78 2031.03,1781.88 "/>
<polyline clip-path="url(#clip920)" style="stroke:#000000; stroke-linecap:round; stroke-linejoin:round; stroke-width:4; stroke-opacity:1; fill:none" points="2388.87,1800.78 2388.87,1781.88 "/>
<path clip-path="url(#clip920)" d="M219.256 1834 Q215.645 1834 213.816 1837.57 Q212.011 1841.11 212.011 1848.24 Q212.011 1855.34 213.816 1858.91 Q215.645 1862.45 219.256 1862.45 Q222.89 1862.45 224.696 1858.91 Q226.525 1855.34 226.525 1848.24 Q226.525 1841.11 224.696 1837.57 Q222.89 1834 219.256 1834 M219.256 1830.3 Q225.066 1830.3 228.122 1834.9 Q231.2 1839.49 231.2 1848.24 Q231.2 1856.96 228.122 1861.57 Q225.066 1866.15 219.256 1866.15 Q213.446 1866.15 210.367 1861.57 Q207.312 1856.96 207.312 1848.24 Q207.312 1839.49 210.367 1834.9 Q213.446 1830.3 219.256 1830.3 Z" fill="#000000" fill-rule="evenodd" fill-opacity="1" /><path clip-path="url(#clip920)" d="M239.418 1859.6 L244.302 1859.6 L244.302 1865.48 L239.418 1865.48 L239.418 1859.6 Z" fill="#000000" fill-rule="evenodd" fill-opacity="1" /><path clip-path="url(#clip920)" d="M264.487 1834 Q260.876 1834 259.048 1837.57 Q257.242 1841.11 257.242 1848.24 Q257.242 1855.34 259.048 1858.91 Q260.876 1862.45 264.487 1862.45 Q268.122 1862.45 269.927 1858.91 Q271.756 1855.34 271.756 1848.24 Q271.756 1841.11 269.927 1837.57 Q268.122 1834 264.487 1834 M264.487 1830.3 Q270.298 1830.3 273.353 1834.9 Q276.432 1839.49 276.432 1848.24 Q276.432 1856.96 273.353 1861.57 Q270.298 1866.15 264.487 1866.15 Q258.677 1866.15 255.599 1861.57 Q252.543 1856.96 252.543 1848.24 Q252.543 1839.49 255.599 1834.9 Q258.677 1830.3 264.487 1830.3 Z" fill="#000000" fill-rule="evenodd" fill-opacity="1" /><path clip-path="url(#clip920)" d="M577.887 1834 Q574.276 1834 572.447 1837.57 Q570.642 1841.11 570.642 1848.24 Q570.642 1855.34 572.447 1858.91 Q574.276 1862.45 577.887 1862.45 Q581.521 1862.45 583.327 1858.91 Q585.156 1855.34 585.156 1848.24 Q585.156 1841.11 583.327 1837.57 Q581.521 1834 577.887 1834 M577.887 1830.3 Q583.697 1830.3 586.753 1834.9 Q589.832 1839.49 589.832 1848.24 Q589.832 1856.96 586.753 1861.57 Q583.697 1866.15 577.887 1866.15 Q572.077 1866.15 568.998 1861.57 Q565.943 1856.96 565.943 1848.24 Q565.943 1839.49 568.998 1834.9 Q572.077 1830.3 577.887 1830.3 Z" fill="#000000" fill-rule="evenodd" fill-opacity="1" /><path clip-path="url(#clip920)" d="M598.049 1859.6 L602.933 1859.6 L602.933 1865.48 L598.049 1865.48 L598.049 1859.6 Z" fill="#000000" fill-rule="evenodd" fill-opacity="1" /><path clip-path="url(#clip920)" d="M617.146 1861.55 L633.466 1861.55 L633.466 1865.48 L611.521 1865.48 L611.521 1861.55 Q614.183 1858.79 618.767 1854.16 Q623.373 1849.51 624.554 1848.17 Q626.799 1845.65 627.679 1843.91 Q628.581 1842.15 628.581 1840.46 Q628.581 1837.71 626.637 1835.97 Q624.716 1834.23 621.614 1834.23 Q619.415 1834.23 616.961 1835 Q614.531 1835.76 611.753 1837.31 L611.753 1832.59 Q614.577 1831.46 617.031 1830.88 Q619.484 1830.3 621.521 1830.3 Q626.892 1830.3 630.086 1832.98 Q633.28 1835.67 633.28 1840.16 Q633.28 1842.29 632.47 1844.21 Q631.683 1846.11 629.577 1848.7 Q628.998 1849.37 625.896 1852.59 Q622.794 1855.78 617.146 1861.55 Z" fill="#000000" fill-rule="evenodd" fill-opacity="1" /><path clip-path="url(#clip920)" d="M934.678 1834 Q931.067 1834 929.238 1837.57 Q927.433 1841.11 927.433 1848.24 Q927.433 1855.34 929.238 1858.91 Q931.067 1862.45 934.678 1862.45 Q938.312 1862.45 940.118 1858.91 Q941.947 1855.34 941.947 1848.24 Q941.947 1841.11 940.118 1837.57 Q938.312 1834 934.678 1834 M934.678 1830.3 Q940.488 1830.3 943.544 1834.9 Q946.622 1839.49 946.622 1848.24 Q946.622 1856.96 943.544 1861.57 Q940.488 1866.15 934.678 1866.15 Q928.868 1866.15 925.789 1861.57 Q922.734 1856.96 922.734 1848.24 Q922.734 1839.49 925.789 1834.9 Q928.868 1830.3 934.678 1830.3 Z" fill="#000000" fill-rule="evenodd" fill-opacity="1" /><path clip-path="url(#clip920)" d="M954.84 1859.6 L959.724 1859.6 L959.724 1865.48 L954.84 1865.48 L954.84 1859.6 Z" fill="#000000" fill-rule="evenodd" fill-opacity="1" /><path clip-path="url(#clip920)" d="M982.757 1835 L970.951 1853.45 L982.757 1853.45 L982.757 1835 M981.53 1830.92 L987.409 1830.92 L987.409 1853.45 L992.34 1853.45 L992.34 1857.34 L987.409 1857.34 L987.409 1865.48 L982.757 1865.48 L982.757 1857.34 L967.155 1857.34 L967.155 1852.82 L981.53 1830.92 Z" fill="#000000" fill-rule="evenodd" fill-opacity="1" /><path clip-path="url(#clip920)" d="M1292.67 1834 Q1289.06 1834 1287.23 1837.57 Q1285.43 1841.11 1285.43 1848.24 Q1285.43 1855.34 1287.23 1858.91 Q1289.06 1862.45 1292.67 1862.45 Q1296.31 1862.45 1298.11 1858.91 Q1299.94 1855.34 1299.94 1848.24 Q1299.94 1841.11 1298.11 1837.57 Q1296.31 1834 1292.67 1834 M1292.67 1830.3 Q1298.48 1830.3 1301.54 1834.9 Q1304.62 1839.49 1304.62 1848.24 Q1304.62 1856.96 1301.54 1861.57 Q1298.48 1866.15 1292.67 1866.15 Q1286.86 1866.15 1283.78 1861.57 Q1280.73 1856.96 1280.73 1848.24 Q1280.73 1839.49 1283.78 1834.9 Q1286.86 1830.3 1292.67 1830.3 Z" fill="#000000" fill-rule="evenodd" fill-opacity="1" /><path clip-path="url(#clip920)" d="M1312.83 1859.6 L1317.72 1859.6 L1317.72 1865.48 L1312.83 1865.48 L1312.83 1859.6 Z" fill="#000000" fill-rule="evenodd" fill-opacity="1" /><path clip-path="url(#clip920)" d="M1338.48 1846.34 Q1335.33 1846.34 1333.48 1848.49 Q1331.65 1850.65 1331.65 1854.4 Q1331.65 1858.12 1333.48 1860.3 Q1335.33 1862.45 1338.48 1862.45 Q1341.63 1862.45 1343.46 1860.3 Q1345.31 1858.12 1345.31 1854.4 Q1345.31 1850.65 1343.46 1848.49 Q1341.63 1846.34 1338.48 1846.34 M1347.76 1831.69 L1347.76 1835.95 Q1346.01 1835.11 1344.2 1834.67 Q1342.42 1834.23 1340.66 1834.23 Q1336.03 1834.23 1333.58 1837.36 Q1331.14 1840.48 1330.8 1846.8 Q1332.16 1844.79 1334.22 1843.72 Q1336.28 1842.64 1338.76 1842.64 Q1343.97 1842.64 1346.98 1845.81 Q1350.01 1848.96 1350.01 1854.4 Q1350.01 1859.72 1346.86 1862.94 Q1343.71 1866.15 1338.48 1866.15 Q1332.49 1866.15 1329.32 1861.57 Q1326.14 1856.96 1326.14 1848.24 Q1326.14 1840.04 1330.03 1835.18 Q1333.92 1830.3 1340.47 1830.3 Q1342.23 1830.3 1344.01 1830.65 Q1345.82 1830.99 1347.76 1831.69 Z" fill="#000000" fill-rule="evenodd" fill-opacity="1" /><path clip-path="url(#clip920)" d="M1650.63 1834 Q1647.02 1834 1645.19 1837.57 Q1643.39 1841.11 1643.39 1848.24 Q1643.39 1855.34 1645.19 1858.91 Q1647.02 1862.45 1650.63 1862.45 Q1654.27 1862.45 1656.07 1858.91 Q1657.9 1855.34 1657.9 1848.24 Q1657.9 1841.11 1656.07 1837.57 Q1654.27 1834 1650.63 1834 M1650.63 1830.3 Q1656.44 1830.3 1659.5 1834.9 Q1662.58 1839.49 1662.58 1848.24 Q1662.58 1856.96 1659.5 1861.57 Q1656.44 1866.15 1650.63 1866.15 Q1644.82 1866.15 1641.74 1861.57 Q1638.69 1856.96 1638.69 1848.24 Q1638.69 1839.49 1641.74 1834.9 Q1644.82 1830.3 1650.63 1830.3 Z" fill="#000000" fill-rule="evenodd" fill-opacity="1" /><path clip-path="url(#clip920)" d="M1670.79 1859.6 L1675.68 1859.6 L1675.68 1865.48 L1670.79 1865.48 L1670.79 1859.6 Z" fill="#000000" fill-rule="evenodd" fill-opacity="1" /><path clip-path="url(#clip920)" d="M1695.86 1849.07 Q1692.53 1849.07 1690.61 1850.85 Q1688.71 1852.64 1688.71 1855.76 Q1688.71 1858.89 1690.61 1860.67 Q1692.53 1862.45 1695.86 1862.45 Q1699.2 1862.45 1701.12 1860.67 Q1703.04 1858.86 1703.04 1855.76 Q1703.04 1852.64 1701.12 1850.85 Q1699.22 1849.07 1695.86 1849.07 M1691.19 1847.08 Q1688.18 1846.34 1686.49 1844.28 Q1684.82 1842.22 1684.82 1839.26 Q1684.82 1835.11 1687.76 1832.71 Q1690.72 1830.3 1695.86 1830.3 Q1701.03 1830.3 1703.97 1832.71 Q1706.91 1835.11 1706.91 1839.26 Q1706.91 1842.22 1705.22 1844.28 Q1703.55 1846.34 1700.56 1847.08 Q1703.94 1847.87 1705.82 1850.16 Q1707.72 1852.45 1707.72 1855.76 Q1707.72 1860.78 1704.64 1863.47 Q1701.58 1866.15 1695.86 1866.15 Q1690.15 1866.15 1687.07 1863.47 Q1684.01 1860.78 1684.01 1855.76 Q1684.01 1852.45 1685.91 1850.16 Q1687.81 1847.87 1691.19 1847.08 M1689.47 1839.7 Q1689.47 1842.38 1691.14 1843.89 Q1692.83 1845.39 1695.86 1845.39 Q1698.87 1845.39 1700.56 1843.89 Q1702.28 1842.38 1702.28 1839.7 Q1702.28 1837.01 1700.56 1835.51 Q1698.87 1834 1695.86 1834 Q1692.83 1834 1691.14 1835.51 Q1689.47 1837.01 1689.47 1839.7 Z" fill="#000000" fill-rule="evenodd" fill-opacity="1" /><path clip-path="url(#clip920)" d="M1998.19 1861.55 L2005.83 1861.55 L2005.83 1835.18 L1997.52 1836.85 L1997.52 1832.59 L2005.78 1830.92 L2010.46 1830.92 L2010.46 1861.55 L2018.09 1861.55 L2018.09 1865.48 L1998.19 1865.48 L1998.19 1861.55 Z" fill="#000000" fill-rule="evenodd" fill-opacity="1" /><path clip-path="url(#clip920)" d="M2027.54 1859.6 L2032.42 1859.6 L2032.42 1865.48 L2027.54 1865.48 L2027.54 1859.6 Z" fill="#000000" fill-rule="evenodd" fill-opacity="1" /><path clip-path="url(#clip920)" d="M2052.61 1834 Q2049 1834 2047.17 1837.57 Q2045.36 1841.11 2045.36 1848.24 Q2045.36 1855.34 2047.17 1858.91 Q2049 1862.45 2052.61 1862.45 Q2056.24 1862.45 2058.05 1858.91 Q2059.88 1855.34 2059.88 1848.24 Q2059.88 1841.11 2058.05 1837.57 Q2056.24 1834 2052.61 1834 M2052.61 1830.3 Q2058.42 1830.3 2061.47 1834.9 Q2064.55 1839.49 2064.55 1848.24 Q2064.55 1856.96 2061.47 1861.57 Q2058.42 1866.15 2052.61 1866.15 Q2046.8 1866.15 2043.72 1861.57 Q2040.66 1856.96 2040.66 1848.24 Q2040.66 1839.49 2043.72 1834.9 Q2046.8 1830.3 2052.61 1830.3 Z" fill="#000000" fill-rule="evenodd" fill-opacity="1" /><path clip-path="url(#clip920)" d="M2356.82 1861.55 L2364.46 1861.55 L2364.46 1835.18 L2356.15 1836.85 L2356.15 1832.59 L2364.41 1830.92 L2369.09 1830.92 L2369.09 1861.55 L2376.73 1861.55 L2376.73 1865.48 L2356.82 1865.48 L2356.82 1861.55 Z" fill="#000000" fill-rule="evenodd" fill-opacity="1" /><path clip-path="url(#clip920)" d="M2386.17 1859.6 L2391.05 1859.6 L2391.05 1865.48 L2386.17 1865.48 L2386.17 1859.6 Z" fill="#000000" fill-rule="evenodd" fill-opacity="1" /><path clip-path="url(#clip920)" d="M2405.27 1861.55 L2421.59 1861.55 L2421.59 1865.48 L2399.64 1865.48 L2399.64 1861.55 Q2402.3 1858.79 2406.89 1854.16 Q2411.49 1849.51 2412.67 1848.17 Q2414.92 1845.65 2415.8 1843.91 Q2416.7 1842.15 2416.7 1840.46 Q2416.7 1837.71 2414.76 1835.97 Q2412.84 1834.23 2409.73 1834.23 Q2407.54 1834.23 2405.08 1835 Q2402.65 1835.76 2399.87 1837.31 L2399.87 1832.59 Q2402.7 1831.46 2405.15 1830.88 Q2407.61 1830.3 2409.64 1830.3 Q2415.01 1830.3 2418.21 1832.98 Q2421.4 1835.67 2421.4 1840.16 Q2421.4 1842.29 2420.59 1844.21 Q2419.8 1846.11 2417.7 1848.7 Q2417.12 1849.37 2414.02 1852.59 Q2410.92 1855.78 2405.27 1861.55 Z" fill="#000000" fill-rule="evenodd" fill-opacity="1" /><polyline clip-path="url(#clip922)" style="stroke:#000000; stroke-linecap:round; stroke-linejoin:round; stroke-width:2; stroke-opacity:0.1; fill:none" points="172.001,1751.15 2640.76,1751.15 "/>
<polyline clip-path="url(#clip922)" style="stroke:#000000; stroke-linecap:round; stroke-linejoin:round; stroke-width:2; stroke-opacity:0.1; fill:none" points="172.001,1333.4 2640.76,1333.4 "/>
<polyline clip-path="url(#clip922)" style="stroke:#000000; stroke-linecap:round; stroke-linejoin:round; stroke-width:2; stroke-opacity:0.1; fill:none" points="172.001,915.657 2640.76,915.657 "/>
<polyline clip-path="url(#clip922)" style="stroke:#000000; stroke-linecap:round; stroke-linejoin:round; stroke-width:2; stroke-opacity:0.1; fill:none" points="172.001,497.91 2640.76,497.91 "/>
<polyline clip-path="url(#clip922)" style="stroke:#000000; stroke-linecap:round; stroke-linejoin:round; stroke-width:2; stroke-opacity:0.1; fill:none" points="172.001,80.1626 2640.76,80.1626 "/>
<polyline clip-path="url(#clip920)" style="stroke:#000000; stroke-linecap:round; stroke-linejoin:round; stroke-width:4; stroke-opacity:1; fill:none" points="172.001,1800.78 172.001,47.2441 "/>
<polyline clip-path="url(#clip920)" style="stroke:#000000; stroke-linecap:round; stroke-linejoin:round; stroke-width:4; stroke-opacity:1; fill:none" points="172.001,1751.15 190.899,1751.15 "/>
<polyline clip-path="url(#clip920)" style="stroke:#000000; stroke-linecap:round; stroke-linejoin:round; stroke-width:4; stroke-opacity:1; fill:none" points="172.001,1333.4 190.899,1333.4 "/>
<polyline clip-path="url(#clip920)" style="stroke:#000000; stroke-linecap:round; stroke-linejoin:round; stroke-width:4; stroke-opacity:1; fill:none" points="172.001,915.657 190.899,915.657 "/>
<polyline clip-path="url(#clip920)" style="stroke:#000000; stroke-linecap:round; stroke-linejoin:round; stroke-width:4; stroke-opacity:1; fill:none" points="172.001,497.91 190.899,497.91 "/>
<polyline clip-path="url(#clip920)" style="stroke:#000000; stroke-linecap:round; stroke-linejoin:round; stroke-width:4; stroke-opacity:1; fill:none" points="172.001,80.1626 190.899,80.1626 "/>
<path clip-path="url(#clip920)" d="M119.737 1736.95 Q116.126 1736.95 114.297 1740.51 Q112.492 1744.06 112.492 1751.19 Q112.492 1758.29 114.297 1761.86 Q116.126 1765.4 119.737 1765.4 Q123.371 1765.4 125.177 1761.86 Q127.005 1758.29 127.005 1751.19 Q127.005 1744.06 125.177 1740.51 Q123.371 1736.95 119.737 1736.95 M119.737 1733.25 Q125.547 1733.25 128.603 1737.85 Q131.681 1742.44 131.681 1751.19 Q131.681 1759.91 128.603 1764.52 Q125.547 1769.1 119.737 1769.1 Q113.927 1769.1 110.848 1764.52 Q107.793 1759.91 107.793 1751.19 Q107.793 1742.44 110.848 1737.85 Q113.927 1733.25 119.737 1733.25 Z" fill="#000000" fill-rule="evenodd" fill-opacity="1" /><path clip-path="url(#clip920)" d="M84.5982 1346.75 L100.918 1346.75 L100.918 1350.68 L78.9733 1350.68 L78.9733 1346.75 Q81.6353 1343.99 86.2186 1339.36 Q90.8251 1334.71 92.0056 1333.37 Q94.251 1330.85 95.1306 1329.11 Q96.0334 1327.35 96.0334 1325.66 Q96.0334 1322.91 94.0889 1321.17 Q92.1676 1319.43 89.0658 1319.43 Q86.8667 1319.43 84.4131 1320.2 Q81.9825 1320.96 79.2047 1322.51 L79.2047 1317.79 Q82.0288 1316.66 84.4825 1316.08 Q86.9362 1315.5 88.9732 1315.5 Q94.3436 1315.5 97.538 1318.18 Q100.732 1320.87 100.732 1325.36 Q100.732 1327.49 99.9222 1329.41 Q99.1352 1331.31 97.0287 1333.9 Q96.45 1334.57 93.3482 1337.79 Q90.2464 1340.98 84.5982 1346.75 Z" fill="#000000" fill-rule="evenodd" fill-opacity="1" /><path clip-path="url(#clip920)" d="M110.779 1316.12 L129.135 1316.12 L129.135 1320.06 L115.061 1320.06 L115.061 1328.53 Q116.08 1328.18 117.098 1328.02 Q118.117 1327.84 119.135 1327.84 Q124.922 1327.84 128.302 1331.01 Q131.681 1334.18 131.681 1339.6 Q131.681 1345.17 128.209 1348.28 Q124.737 1351.36 118.417 1351.36 Q116.242 1351.36 113.973 1350.98 Q111.728 1350.61 109.32 1349.87 L109.32 1345.17 Q111.404 1346.31 113.626 1346.86 Q115.848 1347.42 118.325 1347.42 Q122.33 1347.42 124.667 1345.31 Q127.005 1343.21 127.005 1339.6 Q127.005 1335.98 124.667 1333.88 Q122.33 1331.77 118.325 1331.77 Q116.45 1331.77 114.575 1332.19 Q112.723 1332.61 110.779 1333.48 L110.779 1316.12 Z" fill="#000000" fill-rule="evenodd" fill-opacity="1" /><path clip-path="url(#clip920)" d="M79.6214 898.377 L97.9778 898.377 L97.9778 902.312 L83.9038 902.312 L83.9038 910.784 Q84.9223 910.437 85.9408 910.275 Q86.9593 910.09 87.9778 910.09 Q93.7649 910.09 97.1445 913.261 Q100.524 916.432 100.524 921.849 Q100.524 927.428 97.0519 930.529 Q93.5797 933.608 87.2603 933.608 Q85.0843 933.608 82.8158 933.238 Q80.5705 932.867 78.1631 932.127 L78.1631 927.428 Q80.2464 928.562 82.4686 929.117 Q84.6908 929.673 87.1677 929.673 Q91.1723 929.673 93.5102 927.566 Q95.8482 925.46 95.8482 921.849 Q95.8482 918.238 93.5102 916.131 Q91.1723 914.025 87.1677 914.025 Q85.2927 914.025 83.4177 914.441 Q81.5658 914.858 79.6214 915.738 L79.6214 898.377 Z" fill="#000000" fill-rule="evenodd" fill-opacity="1" /><path clip-path="url(#clip920)" d="M119.737 901.455 Q116.126 901.455 114.297 905.02 Q112.492 908.562 112.492 915.691 Q112.492 922.798 114.297 926.363 Q116.126 929.904 119.737 929.904 Q123.371 929.904 125.177 926.363 Q127.005 922.798 127.005 915.691 Q127.005 908.562 125.177 905.02 Q123.371 901.455 119.737 901.455 M119.737 897.752 Q125.547 897.752 128.603 902.358 Q131.681 906.942 131.681 915.691 Q131.681 924.418 128.603 929.025 Q125.547 933.608 119.737 933.608 Q113.927 933.608 110.848 929.025 Q107.793 924.418 107.793 915.691 Q107.793 906.942 110.848 902.358 Q113.927 897.752 119.737 897.752 Z" fill="#000000" fill-rule="evenodd" fill-opacity="1" /><path clip-path="url(#clip920)" d="M79.3899 480.63 L101.612 480.63 L101.612 482.62 L89.0658 515.19 L84.1816 515.19 L95.9871 484.565 L79.3899 484.565 L79.3899 480.63 Z" fill="#000000" fill-rule="evenodd" fill-opacity="1" /><path clip-path="url(#clip920)" d="M110.779 480.63 L129.135 480.63 L129.135 484.565 L115.061 484.565 L115.061 493.037 Q116.08 492.69 117.098 492.528 Q118.117 492.343 119.135 492.343 Q124.922 492.343 128.302 495.514 Q131.681 498.685 131.681 504.102 Q131.681 509.68 128.209 512.782 Q124.737 515.861 118.417 515.861 Q116.242 515.861 113.973 515.491 Q111.728 515.12 109.32 514.379 L109.32 509.68 Q111.404 510.815 113.626 511.37 Q115.848 511.926 118.325 511.926 Q122.33 511.926 124.667 509.819 Q127.005 507.713 127.005 504.102 Q127.005 500.491 124.667 498.384 Q122.33 496.278 118.325 496.278 Q116.45 496.278 114.575 496.694 Q112.723 497.111 110.779 497.991 L110.779 480.63 Z" fill="#000000" fill-rule="evenodd" fill-opacity="1" /><path clip-path="url(#clip920)" d="M50.2234 93.5074 L57.8623 93.5074 L57.8623 67.1418 L49.5521 68.8085 L49.5521 64.5492 L57.816 62.8826 L62.4919 62.8826 L62.4919 93.5074 L70.1307 93.5074 L70.1307 97.4426 L50.2234 97.4426 L50.2234 93.5074 Z" fill="#000000" fill-rule="evenodd" fill-opacity="1" /><path clip-path="url(#clip920)" d="M89.5751 65.9613 Q85.964 65.9613 84.1353 69.526 Q82.3297 73.0677 82.3297 80.1973 Q82.3297 87.3037 84.1353 90.8685 Q85.964 94.4102 89.5751 94.4102 Q93.2093 94.4102 95.0148 90.8685 Q96.8435 87.3037 96.8435 80.1973 Q96.8435 73.0677 95.0148 69.526 Q93.2093 65.9613 89.5751 65.9613 M89.5751 62.2576 Q95.3852 62.2576 98.4408 66.864 Q101.519 71.4473 101.519 80.1973 Q101.519 88.9241 98.4408 93.5305 Q95.3852 98.1139 89.5751 98.1139 Q83.7649 98.1139 80.6862 93.5305 Q77.6307 88.9241 77.6307 80.1973 Q77.6307 71.4473 80.6862 66.864 Q83.7649 62.2576 89.5751 62.2576 Z" fill="#000000" fill-rule="evenodd" fill-opacity="1" /><path clip-path="url(#clip920)" d="M119.737 65.9613 Q116.126 65.9613 114.297 69.526 Q112.492 73.0677 112.492 80.1973 Q112.492 87.3037 114.297 90.8685 Q116.126 94.4102 119.737 94.4102 Q123.371 94.4102 125.177 90.8685 Q127.005 87.3037 127.005 80.1973 Q127.005 73.0677 125.177 69.526 Q123.371 65.9613 119.737 65.9613 M119.737 62.2576 Q125.547 62.2576 128.603 66.864 Q131.681 71.4473 131.681 80.1973 Q131.681 88.9241 128.603 93.5305 Q125.547 98.1139 119.737 98.1139 Q113.927 98.1139 110.848 93.5305 Q107.793 88.9241 107.793 80.1973 Q107.793 71.4473 110.848 66.864 Q113.927 62.2576 119.737 62.2576 Z" fill="#000000" fill-rule="evenodd" fill-opacity="1" /><polyline clip-path="url(#clip922)" style="stroke:#009af9; stroke-linecap:round; stroke-linejoin:round; stroke-width:4; stroke-opacity:1; fill:none" points="241.872,96.8724 2570.89,96.8724 "/>
<polyline clip-path="url(#clip922)" style="stroke:#e26f46; stroke-linecap:round; stroke-linejoin:round; stroke-width:4; stroke-opacity:1; fill:none" points="241.872,1734.44 2570.89,1751.15 "/>
<polyline clip-path="url(#clip922)" style="stroke:#3da44d; stroke-linecap:round; stroke-linejoin:round; stroke-width:4; stroke-opacity:1; fill:none" points="241.872,1751.15 2570.89,1734.44 "/>
<path clip-path="url(#clip920)" d="M2258.58 313.055 L2558.46 313.055 L2558.46 105.695 L2258.58 105.695  Z" fill="#ffffff" fill-rule="evenodd" fill-opacity="1"/>
<polyline clip-path="url(#clip920)" style="stroke:#000000; stroke-linecap:round; stroke-linejoin:round; stroke-width:4; stroke-opacity:1; fill:none" points="2258.58,313.055 2558.46,313.055 2558.46,105.695 2258.58,105.695 2258.58,313.055 "/>
<polyline clip-path="url(#clip920)" style="stroke:#009af9; stroke-linecap:round; stroke-linejoin:round; stroke-width:4; stroke-opacity:1; fill:none" points="2286.01,157.535 2450.59,157.535 "/>
<path clip-path="url(#clip920)" d="M2491.87 177.223 Q2490.06 181.852 2488.35 183.264 Q2486.64 184.676 2483.77 184.676 L2480.36 184.676 L2480.36 181.112 L2482.86 181.112 Q2484.62 181.112 2485.59 180.278 Q2486.57 179.445 2487.75 176.343 L2488.51 174.399 L2478.02 148.889 L2482.54 148.889 L2490.64 169.167 L2498.74 148.889 L2503.26 148.889 L2491.87 177.223 Z" fill="#000000" fill-rule="evenodd" fill-opacity="1" /><path clip-path="url(#clip920)" d="M2510.55 170.88 L2518.19 170.88 L2518.19 144.515 L2509.88 146.181 L2509.88 141.922 L2518.14 140.255 L2522.82 140.255 L2522.82 170.88 L2530.45 170.88 L2530.45 174.815 L2510.55 174.815 L2510.55 170.88 Z" fill="#000000" fill-rule="evenodd" fill-opacity="1" /><polyline clip-path="url(#clip920)" style="stroke:#e26f46; stroke-linecap:round; stroke-linejoin:round; stroke-width:4; stroke-opacity:1; fill:none" points="2286.01,209.375 2450.59,209.375 "/>
<path clip-path="url(#clip920)" d="M2491.87 229.063 Q2490.06 233.692 2488.35 235.104 Q2486.64 236.516 2483.77 236.516 L2480.36 236.516 L2480.36 232.952 L2482.86 232.952 Q2484.62 232.952 2485.59 232.118 Q2486.57 231.285 2487.75 228.183 L2488.51 226.239 L2478.02 200.729 L2482.54 200.729 L2490.64 221.007 L2498.74 200.729 L2503.26 200.729 L2491.87 229.063 Z" fill="#000000" fill-rule="evenodd" fill-opacity="1" /><path clip-path="url(#clip920)" d="M2513.77 222.72 L2530.08 222.72 L2530.08 226.655 L2508.14 226.655 L2508.14 222.72 Q2510.8 219.965 2515.39 215.336 Q2519.99 210.683 2521.17 209.341 Q2523.42 206.817 2524.3 205.081 Q2525.2 203.322 2525.2 201.632 Q2525.2 198.878 2523.26 197.142 Q2521.33 195.405 2518.23 195.405 Q2516.03 195.405 2513.58 196.169 Q2511.15 196.933 2508.37 198.484 L2508.37 193.762 Q2511.2 192.628 2513.65 192.049 Q2516.1 191.47 2518.14 191.47 Q2523.51 191.47 2526.7 194.155 Q2529.9 196.841 2529.9 201.331 Q2529.9 203.461 2529.09 205.382 Q2528.3 207.28 2526.2 209.873 Q2525.62 210.544 2522.52 213.762 Q2519.41 216.956 2513.77 222.72 Z" fill="#000000" fill-rule="evenodd" fill-opacity="1" /><polyline clip-path="url(#clip920)" style="stroke:#3da44d; stroke-linecap:round; stroke-linejoin:round; stroke-width:4; stroke-opacity:1; fill:none" points="2286.01,261.215 2450.59,261.215 "/>
<path clip-path="url(#clip920)" d="M2491.87 280.903 Q2490.06 285.532 2488.35 286.944 Q2486.64 288.356 2483.77 288.356 L2480.36 288.356 L2480.36 284.792 L2482.86 284.792 Q2484.62 284.792 2485.59 283.958 Q2486.57 283.125 2487.75 280.023 L2488.51 278.079 L2478.02 252.569 L2482.54 252.569 L2490.64 272.847 L2498.74 252.569 L2503.26 252.569 L2491.87 280.903 Z" fill="#000000" fill-rule="evenodd" fill-opacity="1" /><path clip-path="url(#clip920)" d="M2523.9 259.861 Q2527.26 260.579 2529.14 262.847 Q2531.03 265.116 2531.03 268.449 Q2531.03 273.565 2527.51 276.366 Q2524 279.167 2517.52 279.167 Q2515.34 279.167 2513.02 278.727 Q2510.73 278.31 2508.28 277.454 L2508.28 272.94 Q2510.22 274.074 2512.54 274.653 Q2514.85 275.231 2517.38 275.231 Q2521.77 275.231 2524.07 273.495 Q2526.38 271.759 2526.38 268.449 Q2526.38 265.393 2524.23 263.681 Q2522.1 261.944 2518.28 261.944 L2514.25 261.944 L2514.25 258.102 L2518.46 258.102 Q2521.91 258.102 2523.74 256.736 Q2525.57 255.347 2525.57 252.755 Q2525.57 250.093 2523.67 248.681 Q2521.8 247.245 2518.28 247.245 Q2516.36 247.245 2514.16 247.662 Q2511.96 248.079 2509.32 248.958 L2509.32 244.792 Q2511.98 244.051 2514.3 243.681 Q2516.64 243.31 2518.7 243.31 Q2524.02 243.31 2527.12 245.741 Q2530.22 248.148 2530.22 252.269 Q2530.22 255.139 2528.58 257.13 Q2526.94 259.097 2523.9 259.861 Z" fill="#000000" fill-rule="evenodd" fill-opacity="1" /></svg>
