<?xml version="1.0" encoding="utf-8"?>
<svg xmlns="http://www.w3.org/2000/svg" xmlns:xlink="http://www.w3.org/1999/xlink" width="672" height="480" viewBox="0 0 2688 1920">
<defs>
  <clipPath id="clip250">
    <rect x="0" y="0" width="2688" height="1920"/>
  </clipPath>
</defs>
<path clip-path="url(#clip250)" d="M0 1920 L2688 1920 L2688 0 L0 0  Z" fill="#ffffff" fill-rule="evenodd" fill-opacity="1"/>
<defs>
  <clipPath id="clip251">
    <rect x="537" y="0" width="1883" height="1883"/>
  </clipPath>
</defs>
<path clip-path="url(#clip250)" d="M189.154 1734.12 L2640.76 1734.12 L2640.76 47.2441 L189.154 47.2441  Z" fill="#ffffff" fill-rule="evenodd" fill-opacity="1"/>
<defs>
  <clipPath id="clip252">
    <rect x="189" y="47" width="2453" height="1688"/>
  </clipPath>
</defs>
<polyline clip-path="url(#clip252)" style="stroke:#000000; stroke-linecap:round; stroke-linejoin:round; stroke-width:2; stroke-opacity:0.1; fill:none" points="189.154,1734.12 189.154,47.2441 "/>
<polyline clip-path="url(#clip252)" style="stroke:#000000; stroke-linecap:round; stroke-linejoin:round; stroke-width:2; stroke-opacity:0.1; fill:none" points="679.474,1734.12 679.474,47.2441 "/>
<polyline clip-path="url(#clip252)" style="stroke:#000000; stroke-linecap:round; stroke-linejoin:round; stroke-width:2; stroke-opacity:0.1; fill:none" points="1169.79,1734.12 1169.79,47.2441 "/>
<polyline clip-path="url(#clip252)" style="stroke:#000000; stroke-linecap:round; stroke-linejoin:round; stroke-width:2; stroke-opacity:0.1; fill:none" points="1660.12,1734.12 1660.12,47.2441 "/>
<polyline clip-path="url(#clip252)" style="stroke:#000000; stroke-linecap:round; stroke-linejoin:round; stroke-width:2; stroke-opacity:0.1; fill:none" points="2150.44,1734.12 2150.44,47.2441 "/>
<polyline clip-path="url(#clip252)" style="stroke:#000000; stroke-linecap:round; stroke-linejoin:round; stroke-width:2; stroke-opacity:0.1; fill:none" points="2640.76,1734.12 2640.76,47.2441 "/>
<polyline clip-path="url(#clip250)" style="stroke:#000000; stroke-linecap:round; stroke-linejoin:round; stroke-width:4; stroke-opacity:1; fill:none" points="189.154,1734.12 2640.76,1734.12 "/>
<polyline clip-path="url(#clip250)" style="stroke:#000000; stroke-linecap:round; stroke-linejoin:round; stroke-width:4; stroke-opacity:1; fill:none" points="189.154,1734.12 189.154,1715.22 "/>
<polyline clip-path="url(#clip250)" style="stroke:#000000; stroke-linecap:round; stroke-linejoin:round; stroke-width:4; stroke-opacity:1; fill:none" points="679.474,1734.12 679.474,1715.22 "/>
<polyline clip-path="url(#clip250)" style="stroke:#000000; stroke-linecap:round; stroke-linejoin:round; stroke-width:4; stroke-opacity:1; fill:none" points="1169.79,1734.12 1169.79,1715.22 "/>
<polyline clip-path="url(#clip250)" style="stroke:#000000; stroke-linecap:round; stroke-linejoin:round; stroke-width:4; stroke-opacity:1; fill:none" points="1660.12,1734.12 1660.12,1715.22 "/>
<polyline clip-path="url(#clip250)" style="stroke:#000000; stroke-linecap:round; stroke-linejoin:round; stroke-width:4; stroke-opacity:1; fill:none" points="2150.44,1734.12 2150.44,1715.22 "/>
<polyline clip-path="url(#clip250)" style="stroke:#000000; stroke-linecap:round; stroke-linejoin:round; stroke-width:4; stroke-opacity:1; fill:none" points="2640.76,1734.12 2640.76,1715.22 "/>
<path clip-path="url(#clip250)" d="M189.154 1767.34 Q185.543 1767.34 183.714 1770.9 Q181.909 1774.45 181.909 1781.58 Q181.909 1788.68 183.714 1792.25 Q185.543 1795.79 189.154 1795.79 Q192.788 1795.79 194.594 1792.25 Q196.422 1788.68 196.422 1781.58 Q196.422 1774.45 194.594 1770.9 Q192.788 1767.34 189.154 1767.34 M189.154 1763.64 Q194.964 1763.64 198.02 1768.24 Q201.098 1772.83 201.098 1781.58 Q201.098 1790.3 198.02 1794.91 Q194.964 1799.49 189.154 1799.49 Q183.344 1799.49 180.265 1794.91 Q177.21 1790.3 177.21 1781.58 Q177.21 1772.83 180.265 1768.24 Q183.344 1763.64 189.154 1763.64 Z" fill="#000000" fill-rule="evenodd" fill-opacity="1" /><path clip-path="url(#clip250)" d="M654.162 1794.89 L661.801 1794.89 L661.801 1768.52 L653.491 1770.19 L653.491 1765.93 L661.755 1764.26 L666.43 1764.26 L666.43 1794.89 L674.069 1794.89 L674.069 1798.82 L654.162 1798.82 L654.162 1794.89 Z" fill="#000000" fill-rule="evenodd" fill-opacity="1" /><path clip-path="url(#clip250)" d="M693.514 1767.34 Q689.903 1767.34 688.074 1770.9 Q686.268 1774.45 686.268 1781.58 Q686.268 1788.68 688.074 1792.25 Q689.903 1795.79 693.514 1795.79 Q697.148 1795.79 698.953 1792.25 Q700.782 1788.68 700.782 1781.58 Q700.782 1774.45 698.953 1770.9 Q697.148 1767.34 693.514 1767.34 M693.514 1763.64 Q699.324 1763.64 702.379 1768.24 Q705.458 1772.83 705.458 1781.58 Q705.458 1790.3 702.379 1794.91 Q699.324 1799.49 693.514 1799.49 Q687.704 1799.49 684.625 1794.91 Q681.569 1790.3 681.569 1781.58 Q681.569 1772.83 684.625 1768.24 Q687.704 1763.64 693.514 1763.64 Z" fill="#000000" fill-rule="evenodd" fill-opacity="1" /><path clip-path="url(#clip250)" d="M1148.57 1794.89 L1164.89 1794.89 L1164.89 1798.82 L1142.94 1798.82 L1142.94 1794.89 Q1145.61 1792.13 1150.19 1787.5 Q1154.79 1782.85 1155.98 1781.51 Q1158.22 1778.98 1159.1 1777.25 Q1160 1775.49 1160 1773.8 Q1160 1771.04 1158.06 1769.31 Q1156.14 1767.57 1153.04 1767.57 Q1150.84 1767.57 1148.38 1768.34 Q1145.95 1769.1 1143.17 1770.65 L1143.17 1765.93 Q1146 1764.79 1148.45 1764.21 Q1150.91 1763.64 1152.94 1763.64 Q1158.31 1763.64 1161.51 1766.32 Q1164.7 1769.01 1164.7 1773.5 Q1164.7 1775.63 1163.89 1777.55 Q1163.1 1779.45 1161 1782.04 Q1160.42 1782.71 1157.32 1785.93 Q1154.22 1789.12 1148.57 1794.89 Z" fill="#000000" fill-rule="evenodd" fill-opacity="1" /><path clip-path="url(#clip250)" d="M1184.7 1767.34 Q1181.09 1767.34 1179.26 1770.9 Q1177.46 1774.45 1177.46 1781.58 Q1177.46 1788.68 1179.26 1792.25 Q1181.09 1795.79 1184.7 1795.79 Q1188.34 1795.79 1190.14 1792.25 Q1191.97 1788.68 1191.97 1781.58 Q1191.97 1774.45 1190.14 1770.9 Q1188.34 1767.34 1184.7 1767.34 M1184.7 1763.64 Q1190.51 1763.64 1193.57 1768.24 Q1196.65 1772.83 1196.65 1781.58 Q1196.65 1790.3 1193.57 1794.91 Q1190.51 1799.49 1184.7 1799.49 Q1178.89 1799.49 1175.81 1794.91 Q1172.76 1790.3 1172.76 1781.58 Q1172.76 1772.83 1175.81 1768.24 Q1178.89 1763.64 1184.7 1763.64 Z" fill="#000000" fill-rule="evenodd" fill-opacity="1" /><path clip-path="url(#clip250)" d="M1648.96 1780.19 Q1652.31 1780.9 1654.19 1783.17 Q1656.09 1785.44 1656.09 1788.77 Q1656.09 1793.89 1652.57 1796.69 Q1649.05 1799.49 1642.57 1799.49 Q1640.39 1799.49 1638.08 1799.05 Q1635.79 1798.64 1633.33 1797.78 L1633.33 1793.27 Q1635.28 1794.4 1637.59 1794.98 Q1639.91 1795.56 1642.43 1795.56 Q1646.83 1795.56 1649.12 1793.82 Q1651.43 1792.08 1651.43 1788.77 Q1651.43 1785.72 1649.28 1784.01 Q1647.15 1782.27 1643.33 1782.27 L1639.31 1782.27 L1639.31 1778.43 L1643.52 1778.43 Q1646.97 1778.43 1648.8 1777.06 Q1650.62 1775.67 1650.62 1773.08 Q1650.62 1770.42 1648.73 1769.01 Q1646.85 1767.57 1643.33 1767.57 Q1641.41 1767.57 1639.21 1767.99 Q1637.01 1768.4 1634.37 1769.28 L1634.37 1765.12 Q1637.04 1764.38 1639.35 1764.01 Q1641.69 1763.64 1643.75 1763.64 Q1649.07 1763.64 1652.18 1766.07 Q1655.28 1768.47 1655.28 1772.59 Q1655.28 1775.46 1653.63 1777.46 Q1651.99 1779.42 1648.96 1780.19 Z" fill="#000000" fill-rule="evenodd" fill-opacity="1" /><path clip-path="url(#clip250)" d="M1674.95 1767.34 Q1671.34 1767.34 1669.51 1770.9 Q1667.71 1774.45 1667.71 1781.58 Q1667.71 1788.68 1669.51 1792.25 Q1671.34 1795.79 1674.95 1795.79 Q1678.59 1795.79 1680.39 1792.25 Q1682.22 1788.68 1682.22 1781.58 Q1682.22 1774.45 1680.39 1770.9 Q1678.59 1767.34 1674.95 1767.34 M1674.95 1763.64 Q1680.76 1763.64 1683.82 1768.24 Q1686.9 1772.83 1686.9 1781.58 Q1686.9 1790.3 1683.82 1794.91 Q1680.76 1799.49 1674.95 1799.49 Q1669.14 1799.49 1666.06 1794.91 Q1663.01 1790.3 1663.01 1781.58 Q1663.01 1772.83 1666.06 1768.24 Q1669.14 1763.64 1674.95 1763.64 Z" fill="#000000" fill-rule="evenodd" fill-opacity="1" /><path clip-path="url(#clip250)" d="M2138.61 1768.34 L2126.8 1786.78 L2138.61 1786.78 L2138.61 1768.34 M2137.38 1764.26 L2143.26 1764.26 L2143.26 1786.78 L2148.19 1786.78 L2148.19 1790.67 L2143.26 1790.67 L2143.26 1798.82 L2138.61 1798.82 L2138.61 1790.67 L2123.01 1790.67 L2123.01 1786.16 L2137.38 1764.26 Z" fill="#000000" fill-rule="evenodd" fill-opacity="1" /><path clip-path="url(#clip250)" d="M2165.92 1767.34 Q2162.31 1767.34 2160.48 1770.9 Q2158.68 1774.45 2158.68 1781.58 Q2158.68 1788.68 2160.48 1792.25 Q2162.31 1795.79 2165.92 1795.79 Q2169.56 1795.79 2171.36 1792.25 Q2173.19 1788.68 2173.19 1781.58 Q2173.19 1774.45 2171.36 1770.9 Q2169.56 1767.34 2165.92 1767.34 M2165.92 1763.64 Q2171.73 1763.64 2174.79 1768.24 Q2177.87 1772.83 2177.87 1781.58 Q2177.87 1790.3 2174.79 1794.91 Q2171.73 1799.49 2165.92 1799.49 Q2160.11 1799.49 2157.03 1794.91 Q2153.98 1790.3 2153.98 1781.58 Q2153.98 1772.83 2157.03 1768.24 Q2160.11 1763.64 2165.92 1763.64 Z" fill="#000000" fill-rule="evenodd" fill-opacity="1" /><path clip-path="url(#clip250)" d="M2615.46 1764.26 L2633.81 1764.26 L2633.81 1768.2 L2619.74 1768.2 L2619.74 1776.67 Q2620.76 1776.32 2621.77 1776.16 Q2622.79 1775.97 2623.81 1775.97 Q2629.6 1775.97 2632.98 1779.15 Q2636.36 1782.32 2636.36 1787.73 Q2636.36 1793.31 2632.89 1796.41 Q2629.41 1799.49 2623.09 1799.49 Q2620.92 1799.49 2618.65 1799.12 Q2616.4 1798.75 2614 1798.01 L2614 1793.31 Q2616.08 1794.45 2618.3 1795 Q2620.52 1795.56 2623 1795.56 Q2627.01 1795.56 2629.34 1793.45 Q2631.68 1791.34 2631.68 1787.73 Q2631.68 1784.12 2629.34 1782.02 Q2627.01 1779.91 2623 1779.91 Q2621.13 1779.91 2619.25 1780.33 Q2617.4 1780.74 2615.46 1781.62 L2615.46 1764.26 Z" fill="#000000" fill-rule="evenodd" fill-opacity="1" /><path clip-path="url(#clip250)" d="M2655.57 1767.34 Q2651.96 1767.34 2650.13 1770.9 Q2648.33 1774.45 2648.33 1781.58 Q2648.33 1788.68 2650.13 1792.25 Q2651.96 1795.79 2655.57 1795.79 Q2659.2 1795.79 2661.01 1792.25 Q2662.84 1788.68 2662.84 1781.58 Q2662.84 1774.45 2661.01 1770.9 Q2659.2 1767.34 2655.57 1767.34 M2655.57 1763.64 Q2661.38 1763.64 2664.44 1768.24 Q2667.52 1772.83 2667.52 1781.58 Q2667.52 1790.3 2664.44 1794.91 Q2661.38 1799.49 2655.57 1799.49 Q2649.76 1799.49 2646.68 1794.91 Q2643.63 1790.3 2643.63 1781.58 Q2643.63 1772.83 2646.68 1768.24 Q2649.76 1763.64 2655.57 1763.64 Z" fill="#000000" fill-rule="evenodd" fill-opacity="1" /><path clip-path="url(#clip250)" d="M1414.02 1837.53 L1414.02 1847.65 L1426.08 1847.65 L1426.08 1852.2 L1414.02 1852.2 L1414.02 1871.56 Q1414.02 1875.92 1415.19 1877.16 Q1416.4 1878.4 1420.06 1878.4 L1426.08 1878.4 L1426.08 1883.3 L1420.06 1883.3 Q1413.28 1883.3 1410.71 1880.79 Q1408.13 1878.24 1408.13 1871.56 L1408.13 1852.2 L1403.83 1852.2 L1403.83 1847.65 L1408.13 1847.65 L1408.13 1837.53 L1414.02 1837.53 Z" fill="#000000" fill-rule="evenodd" fill-opacity="1" /><polyline clip-path="url(#clip252)" style="stroke:#000000; stroke-linecap:round; stroke-linejoin:round; stroke-width:2; stroke-opacity:0.1; fill:none" points="189.154,1686.38 2640.76,1686.38 "/>
<polyline clip-path="url(#clip252)" style="stroke:#000000; stroke-linecap:round; stroke-linejoin:round; stroke-width:2; stroke-opacity:0.1; fill:none" points="189.154,1284.51 2640.76,1284.51 "/>
<polyline clip-path="url(#clip252)" style="stroke:#000000; stroke-linecap:round; stroke-linejoin:round; stroke-width:2; stroke-opacity:0.1; fill:none" points="189.154,882.643 2640.76,882.643 "/>
<polyline clip-path="url(#clip252)" style="stroke:#000000; stroke-linecap:round; stroke-linejoin:round; stroke-width:2; stroke-opacity:0.1; fill:none" points="189.154,480.777 2640.76,480.777 "/>
<polyline clip-path="url(#clip252)" style="stroke:#000000; stroke-linecap:round; stroke-linejoin:round; stroke-width:2; stroke-opacity:0.1; fill:none" points="189.154,78.9111 2640.76,78.9111 "/>
<polyline clip-path="url(#clip250)" style="stroke:#000000; stroke-linecap:round; stroke-linejoin:round; stroke-width:4; stroke-opacity:1; fill:none" points="189.154,1734.12 189.154,47.2441 "/>
<polyline clip-path="url(#clip250)" style="stroke:#000000; stroke-linecap:round; stroke-linejoin:round; stroke-width:4; stroke-opacity:1; fill:none" points="189.154,1686.38 208.052,1686.38 "/>
<polyline clip-path="url(#clip250)" style="stroke:#000000; stroke-linecap:round; stroke-linejoin:round; stroke-width:4; stroke-opacity:1; fill:none" points="189.154,1284.51 208.052,1284.51 "/>
<polyline clip-path="url(#clip250)" style="stroke:#000000; stroke-linecap:round; stroke-linejoin:round; stroke-width:4; stroke-opacity:1; fill:none" points="189.154,882.643 208.052,882.643 "/>
<polyline clip-path="url(#clip250)" style="stroke:#000000; stroke-linecap:round; stroke-linejoin:round; stroke-width:4; stroke-opacity:1; fill:none" points="189.154,480.777 208.052,480.777 "/>
<polyline clip-path="url(#clip250)" style="stroke:#000000; stroke-linecap:round; stroke-linejoin:round; stroke-width:4; stroke-opacity:1; fill:none" points="189.154,78.9111 208.052,78.9111 "/>
<path clip-path="url(#clip250)" d="M61.4965 1672.17 Q57.8854 1672.17 56.0567 1675.74 Q54.2512 1679.28 54.2512 1686.41 Q54.2512 1693.52 56.0567 1697.08 Q57.8854 1700.62 61.4965 1700.62 Q65.1307 1700.62 66.9363 1697.08 Q68.765 1693.52 68.765 1686.41 Q68.765 1679.28 66.9363 1675.74 Q65.1307 1672.17 61.4965 1672.17 M61.4965 1668.47 Q67.3067 1668.47 70.3622 1673.08 Q73.4409 1677.66 73.4409 1686.41 Q73.4409 1695.14 70.3622 1699.74 Q67.3067 1704.33 61.4965 1704.33 Q55.6864 1704.33 52.6077 1699.74 Q49.5521 1695.14 49.5521 1686.41 Q49.5521 1677.66 52.6077 1673.08 Q55.6864 1668.47 61.4965 1668.47 Z" fill="#000000" fill-rule="evenodd" fill-opacity="1" /><path clip-path="url(#clip250)" d="M81.6584 1697.78 L86.5427 1697.78 L86.5427 1703.66 L81.6584 1703.66 L81.6584 1697.78 Z" fill="#000000" fill-rule="evenodd" fill-opacity="1" /><path clip-path="url(#clip250)" d="M106.728 1672.17 Q103.117 1672.17 101.288 1675.74 Q99.4824 1679.28 99.4824 1686.41 Q99.4824 1693.52 101.288 1697.08 Q103.117 1700.62 106.728 1700.62 Q110.362 1700.62 112.168 1697.08 Q113.996 1693.52 113.996 1686.41 Q113.996 1679.28 112.168 1675.74 Q110.362 1672.17 106.728 1672.17 M106.728 1668.47 Q112.538 1668.47 115.593 1673.08 Q118.672 1677.66 118.672 1686.41 Q118.672 1695.14 115.593 1699.74 Q112.538 1704.33 106.728 1704.33 Q100.918 1704.33 97.8389 1699.74 Q94.7834 1695.14 94.7834 1686.41 Q94.7834 1677.66 97.8389 1673.08 Q100.918 1668.47 106.728 1668.47 Z" fill="#000000" fill-rule="evenodd" fill-opacity="1" /><path clip-path="url(#clip250)" d="M136.89 1672.17 Q133.279 1672.17 131.45 1675.74 Q129.644 1679.28 129.644 1686.41 Q129.644 1693.52 131.45 1697.08 Q133.279 1700.62 136.89 1700.62 Q140.524 1700.62 142.329 1697.08 Q144.158 1693.52 144.158 1686.41 Q144.158 1679.28 142.329 1675.74 Q140.524 1672.17 136.89 1672.17 M136.89 1668.47 Q142.7 1668.47 145.755 1673.08 Q148.834 1677.66 148.834 1686.41 Q148.834 1695.14 145.755 1699.74 Q142.7 1704.33 136.89 1704.33 Q131.079 1704.33 128.001 1699.74 Q124.945 1695.14 124.945 1686.41 Q124.945 1677.66 128.001 1673.08 Q131.079 1668.47 136.89 1668.47 Z" fill="#000000" fill-rule="evenodd" fill-opacity="1" /><path clip-path="url(#clip250)" d="M62.4919 1270.31 Q58.8808 1270.31 57.0521 1273.87 Q55.2465 1277.41 55.2465 1284.54 Q55.2465 1291.65 57.0521 1295.22 Q58.8808 1298.76 62.4919 1298.76 Q66.1261 1298.76 67.9317 1295.22 Q69.7604 1291.65 69.7604 1284.54 Q69.7604 1277.41 67.9317 1273.87 Q66.1261 1270.31 62.4919 1270.31 M62.4919 1266.6 Q68.302 1266.6 71.3576 1271.21 Q74.4363 1275.79 74.4363 1284.54 Q74.4363 1293.27 71.3576 1297.88 Q68.302 1302.46 62.4919 1302.46 Q56.6817 1302.46 53.603 1297.88 Q50.5475 1293.27 50.5475 1284.54 Q50.5475 1275.79 53.603 1271.21 Q56.6817 1266.6 62.4919 1266.6 Z" fill="#000000" fill-rule="evenodd" fill-opacity="1" /><path clip-path="url(#clip250)" d="M82.6538 1295.91 L87.538 1295.91 L87.538 1301.79 L82.6538 1301.79 L82.6538 1295.91 Z" fill="#000000" fill-rule="evenodd" fill-opacity="1" /><path clip-path="url(#clip250)" d="M101.751 1297.85 L118.07 1297.85 L118.07 1301.79 L96.126 1301.79 L96.126 1297.85 Q98.788 1295.1 103.371 1290.47 Q107.978 1285.82 109.158 1284.47 Q111.404 1281.95 112.283 1280.22 Q113.186 1278.46 113.186 1276.77 Q113.186 1274.01 111.242 1272.28 Q109.32 1270.54 106.218 1270.54 Q104.019 1270.54 101.566 1271.3 Q99.1352 1272.07 96.3574 1273.62 L96.3574 1268.9 Q99.1815 1267.76 101.635 1267.18 Q104.089 1266.6 106.126 1266.6 Q111.496 1266.6 114.691 1269.29 Q117.885 1271.97 117.885 1276.47 Q117.885 1278.59 117.075 1280.52 Q116.288 1282.41 114.181 1285.01 Q113.603 1285.68 110.501 1288.9 Q107.399 1292.09 101.751 1297.85 Z" fill="#000000" fill-rule="evenodd" fill-opacity="1" /><path clip-path="url(#clip250)" d="M127.931 1267.23 L146.288 1267.23 L146.288 1271.16 L132.214 1271.16 L132.214 1279.64 Q133.232 1279.29 134.251 1279.13 Q135.269 1278.94 136.288 1278.94 Q142.075 1278.94 145.454 1282.11 Q148.834 1285.28 148.834 1290.7 Q148.834 1296.28 145.362 1299.38 Q141.89 1302.46 135.57 1302.46 Q133.394 1302.46 131.126 1302.09 Q128.88 1301.72 126.473 1300.98 L126.473 1296.28 Q128.556 1297.41 130.779 1297.97 Q133.001 1298.53 135.478 1298.53 Q139.482 1298.53 141.82 1296.42 Q144.158 1294.31 144.158 1290.7 Q144.158 1287.09 141.82 1284.98 Q139.482 1282.88 135.478 1282.88 Q133.603 1282.88 131.728 1283.29 Q129.876 1283.71 127.931 1284.59 L127.931 1267.23 Z" fill="#000000" fill-rule="evenodd" fill-opacity="1" /><path clip-path="url(#clip250)" d="M61.4965 868.442 Q57.8854 868.442 56.0567 872.007 Q54.2512 875.548 54.2512 882.678 Q54.2512 889.784 56.0567 893.349 Q57.8854 896.891 61.4965 896.891 Q65.1307 896.891 66.9363 893.349 Q68.765 889.784 68.765 882.678 Q68.765 875.548 66.9363 872.007 Q65.1307 868.442 61.4965 868.442 M61.4965 864.738 Q67.3067 864.738 70.3622 869.345 Q73.4409 873.928 73.4409 882.678 Q73.4409 891.405 70.3622 896.011 Q67.3067 900.595 61.4965 900.595 Q55.6864 900.595 52.6077 896.011 Q49.5521 891.405 49.5521 882.678 Q49.5521 873.928 52.6077 869.345 Q55.6864 864.738 61.4965 864.738 Z" fill="#000000" fill-rule="evenodd" fill-opacity="1" /><path clip-path="url(#clip250)" d="M81.6584 894.044 L86.5427 894.044 L86.5427 899.923 L81.6584 899.923 L81.6584 894.044 Z" fill="#000000" fill-rule="evenodd" fill-opacity="1" /><path clip-path="url(#clip250)" d="M96.7741 865.363 L115.13 865.363 L115.13 869.298 L101.056 869.298 L101.056 877.771 Q102.075 877.423 103.094 877.261 Q104.112 877.076 105.131 877.076 Q110.918 877.076 114.297 880.247 Q117.677 883.419 117.677 888.835 Q117.677 894.414 114.205 897.516 Q110.732 900.595 104.413 900.595 Q102.237 900.595 99.9685 900.224 Q97.7232 899.854 95.3158 899.113 L95.3158 894.414 Q97.3991 895.548 99.6213 896.104 Q101.844 896.659 104.32 896.659 Q108.325 896.659 110.663 894.553 Q113.001 892.446 113.001 888.835 Q113.001 885.224 110.663 883.118 Q108.325 881.011 104.32 881.011 Q102.445 881.011 100.57 881.428 Q98.7185 881.845 96.7741 882.724 L96.7741 865.363 Z" fill="#000000" fill-rule="evenodd" fill-opacity="1" /><path clip-path="url(#clip250)" d="M136.89 868.442 Q133.279 868.442 131.45 872.007 Q129.644 875.548 129.644 882.678 Q129.644 889.784 131.45 893.349 Q133.279 896.891 136.89 896.891 Q140.524 896.891 142.329 893.349 Q144.158 889.784 144.158 882.678 Q144.158 875.548 142.329 872.007 Q140.524 868.442 136.89 868.442 M136.89 864.738 Q142.7 864.738 145.755 869.345 Q148.834 873.928 148.834 882.678 Q148.834 891.405 145.755 896.011 Q142.7 900.595 136.89 900.595 Q131.079 900.595 128.001 896.011 Q124.945 891.405 124.945 882.678 Q124.945 873.928 128.001 869.345 Q131.079 864.738 136.89 864.738 Z" fill="#000000" fill-rule="evenodd" fill-opacity="1" /><path clip-path="url(#clip250)" d="M62.4919 466.576 Q58.8808 466.576 57.0521 470.141 Q55.2465 473.682 55.2465 480.812 Q55.2465 487.918 57.0521 491.483 Q58.8808 495.025 62.4919 495.025 Q66.1261 495.025 67.9317 491.483 Q69.7604 487.918 69.7604 480.812 Q69.7604 473.682 67.9317 470.141 Q66.1261 466.576 62.4919 466.576 M62.4919 462.872 Q68.302 462.872 71.3576 467.479 Q74.4363 472.062 74.4363 480.812 Q74.4363 489.539 71.3576 494.145 Q68.302 498.728 62.4919 498.728 Q56.6817 498.728 53.603 494.145 Q50.5475 489.539 50.5475 480.812 Q50.5475 472.062 53.603 467.479 Q56.6817 462.872 62.4919 462.872 Z" fill="#000000" fill-rule="evenodd" fill-opacity="1" /><path clip-path="url(#clip250)" d="M82.6538 492.178 L87.538 492.178 L87.538 498.057 L82.6538 498.057 L82.6538 492.178 Z" fill="#000000" fill-rule="evenodd" fill-opacity="1" /><path clip-path="url(#clip250)" d="M96.5426 463.497 L118.765 463.497 L118.765 465.488 L106.218 498.057 L101.334 498.057 L113.14 467.432 L96.5426 467.432 L96.5426 463.497 Z" fill="#000000" fill-rule="evenodd" fill-opacity="1" /><path clip-path="url(#clip250)" d="M127.931 463.497 L146.288 463.497 L146.288 467.432 L132.214 467.432 L132.214 475.905 Q133.232 475.557 134.251 475.395 Q135.269 475.21 136.288 475.21 Q142.075 475.21 145.454 478.381 Q148.834 481.553 148.834 486.969 Q148.834 492.548 145.362 495.65 Q141.89 498.728 135.57 498.728 Q133.394 498.728 131.126 498.358 Q128.88 497.988 126.473 497.247 L126.473 492.548 Q128.556 493.682 130.779 494.238 Q133.001 494.793 135.478 494.793 Q139.482 494.793 141.82 492.687 Q144.158 490.58 144.158 486.969 Q144.158 483.358 141.82 481.252 Q139.482 479.145 135.478 479.145 Q133.603 479.145 131.728 479.562 Q129.876 479.979 127.931 480.858 L127.931 463.497 Z" fill="#000000" fill-rule="evenodd" fill-opacity="1" /><path clip-path="url(#clip250)" d="M52.3067 92.256 L59.9456 92.256 L59.9456 65.8904 L51.6354 67.557 L51.6354 63.2978 L59.8993 61.6311 L64.5752 61.6311 L64.5752 92.256 L72.214 92.256 L72.214 96.1911 L52.3067 96.1911 L52.3067 92.256 Z" fill="#000000" fill-rule="evenodd" fill-opacity="1" /><path clip-path="url(#clip250)" d="M81.6584 90.3115 L86.5427 90.3115 L86.5427 96.1911 L81.6584 96.1911 L81.6584 90.3115 Z" fill="#000000" fill-rule="evenodd" fill-opacity="1" /><path clip-path="url(#clip250)" d="M106.728 64.7098 Q103.117 64.7098 101.288 68.2746 Q99.4824 71.8163 99.4824 78.9459 Q99.4824 86.0523 101.288 89.6171 Q103.117 93.1587 106.728 93.1587 Q110.362 93.1587 112.168 89.6171 Q113.996 86.0523 113.996 78.9459 Q113.996 71.8163 112.168 68.2746 Q110.362 64.7098 106.728 64.7098 M106.728 61.0061 Q112.538 61.0061 115.593 65.6126 Q118.672 70.1959 118.672 78.9459 Q118.672 87.6727 115.593 92.2791 Q112.538 96.8624 106.728 96.8624 Q100.918 96.8624 97.8389 92.2791 Q94.7834 87.6727 94.7834 78.9459 Q94.7834 70.1959 97.8389 65.6126 Q100.918 61.0061 106.728 61.0061 Z" fill="#000000" fill-rule="evenodd" fill-opacity="1" /><path clip-path="url(#clip250)" d="M136.89 64.7098 Q133.279 64.7098 131.45 68.2746 Q129.644 71.8163 129.644 78.9459 Q129.644 86.0523 131.45 89.6171 Q133.279 93.1587 136.89 93.1587 Q140.524 93.1587 142.329 89.6171 Q144.158 86.0523 144.158 78.9459 Q144.158 71.8163 142.329 68.2746 Q140.524 64.7098 136.89 64.7098 M136.89 61.0061 Q142.7 61.0061 145.755 65.6126 Q148.834 70.1959 148.834 78.9459 Q148.834 87.6727 145.755 92.2791 Q142.7 96.8624 136.89 96.8624 Q131.079 96.8624 128.001 92.2791 Q124.945 87.6727 124.945 78.9459 Q124.945 70.1959 128.001 65.6126 Q131.079 61.0061 136.89 61.0061 Z" fill="#000000" fill-rule="evenodd" fill-opacity="1" /><polyline clip-path="url(#clip252)" style="stroke:#009af9; stroke-linecap:round; stroke-linejoin:round; stroke-width:4; stroke-opacity:1; fill:none" points="189.154,94.9858 191.608,95.3879 194.062,95.798 196.516,96.2162 198.97,96.6426 201.424,97.0773 203.878,97.5206 206.332,97.9726 208.786,98.4335 211.241,98.9035 213.695,99.3826 216.149,99.8711 218.603,100.369 221.057,100.877 223.511,101.395 225.965,101.923 228.419,102.461 230.873,103.009 233.327,103.569 235.781,104.139 238.235,104.72 240.689,105.313 243.143,105.917 245.597,106.533 248.051,107.161 250.505,107.801 252.959,108.453 255.414,109.118 257.868,109.796 260.322,110.486 262.776,111.191 265.23,111.908 267.684,112.64 270.138,113.385 272.592,114.145 275.046,114.92 277.5,115.709 279.954,116.513 282.408,117.333 284.862,118.168 287.316,119.019 289.77,119.887 292.224,120.771 294.678,121.671 297.132,122.589 299.587,123.524 302.041,124.477 304.495,125.448 306.949,126.437 309.403,127.445 311.857,128.471 314.311,129.517 316.765,130.583 319.219,131.668 321.673,132.774 324.127,133.9 326.581,135.047 329.035,136.216 331.489,137.406 333.943,138.618 336.397,139.852 338.851,141.11 341.305,142.39 343.76,143.694 346.214,145.022 348.668,146.374 351.122,147.751 353.576,149.153 356.03,150.58 358.484,152.033 360.938,153.513 363.392,155.019 365.846,156.552 368.3,158.113 370.754,159.702 373.208,161.319 375.662,162.965 378.116,164.641 380.57,166.346 383.024,168.081 385.478,169.846 387.933,171.643 390.387,173.472 392.841,175.332 395.295,177.225 397.749,179.15 400.203,181.109 402.657,183.102 405.111,185.129 407.565,187.191 410.019,189.288 412.473,191.421 414.927,193.59 417.381,195.795 419.835,198.038 422.289,200.318 424.743,202.637 427.197,204.994 429.651,207.39 432.106,209.826 434.56,212.301 437.014,214.818 439.468,217.375 441.922,219.974 444.376,222.615 446.83,225.298 449.284,228.025 451.738,230.795 454.192,233.609 456.646,236.468 459.1,239.371 461.554,242.32 464.008,245.315 466.462,248.356 468.916,251.443 471.37,254.578 473.824,257.761 476.279,260.991 478.733,264.27 481.187,267.598 483.641,270.975 486.095,274.402 488.549,277.879 491.003,281.406 493.457,284.985 495.911,288.614 498.365,292.296 500.819,296.029 503.273,299.815 505.727,303.654 508.181,307.545 510.635,311.49 513.089,315.488 515.543,319.541 517.998,323.647 520.452,327.808 522.906,332.024 525.36,336.295 527.814,340.621 530.268,345.002 532.722,349.44 535.176,353.932 537.63,358.481 540.084,363.086 542.538,367.747 544.992,372.464 547.446,377.237 549.9,382.067 552.354,386.953 554.808,391.895 557.262,396.893 559.716,401.947 562.171,407.057 564.625,412.223 567.079,417.445 569.533,422.723 571.987,428.056 574.441,433.444 576.895,438.887 579.349,444.385 581.803,449.938 584.257,455.545 586.711,461.206 589.165,466.92 591.619,472.688 594.073,478.508 596.527,484.381 598.981,490.306 601.435,496.283 603.889,502.311 606.344,508.39 608.798,514.519 611.252,520.697 613.706,526.924 616.16,533.198 618.614,539.52 621.068,545.887 623.522,552.301 625.976,558.759 628.43,565.261 630.884,571.806 633.338,578.393 635.792,585.021 638.246,591.69 640.7,598.398 643.154,605.144 645.608,611.929 648.062,618.749 650.517,625.605 652.971,632.496 655.425,639.419 657.879,646.376 660.333,653.363 662.787,660.38 665.241,667.427 667.695,674.501 670.149,681.602 672.603,688.728 675.057,695.879 677.511,703.053 679.965,710.248 682.419,717.464 684.873,724.699 687.327,731.952 689.781,739.221 692.235,746.505 694.69,753.804 697.144,761.114 699.598,768.436 702.052,775.767 704.506,783.106 706.96,790.452 709.414,797.803 711.868,805.158 714.322,812.518 716.776,819.879 719.23,827.24 721.684,834.601 724.138,841.959 726.592,849.313 729.046,856.661 731.5,864.003 733.954,871.336 736.408,878.659 738.863,885.971 741.317,893.271 743.771,900.557 746.225,907.827 748.679,915.081 751.133,922.318 753.587,929.536 756.041,936.733 758.495,943.909 760.949,951.063 763.403,958.193 765.857,965.298 768.311,972.377 770.765,979.429 773.219,986.454 775.673,993.449 778.127,1000.41 780.581,1007.35 783.036,1014.25 785.49,1021.12 787.944,1027.96 790.398,1034.76 792.852,1041.52 795.306,1048.25 797.76,1054.94 800.214,1061.59 802.668,1068.21 805.122,1074.78 807.576,1081.32 810.03,1087.81 812.484,1094.26 814.938,1100.67 817.392,1107.03 819.846,1113.35 822.3,1119.63 824.754,1125.86 827.209,1132.05 829.663,1138.19 832.117,1144.28 834.571,1150.33 837.025,1156.33 839.479,1162.28 841.933,1168.18 844.387,1174.04 846.841,1179.84 849.295,1185.6 851.749,1191.3 854.203,1196.96 856.657,1202.56 859.111,1208.12 861.565,1213.62 864.019,1219.07 866.473,1224.48 868.928,1229.83 871.382,1235.13 873.836,1240.37 876.29,1245.57 878.744,1250.72 881.198,1255.82 883.652,1260.86 886.106,1265.85 888.56,1270.8 891.014,1275.69 893.468,1280.53 895.922,1285.32 898.376,1290.07 900.83,1294.76 903.284,1299.4 905.738,1303.99 908.192,1308.53 910.646,1313.02 913.101,1317.46 915.555,1321.85 918.009,1326.19 920.463,1330.48 922.917,1334.73 925.371,1338.92 927.825,1343.07 930.279,1347.17 932.733,1351.22 935.187,1355.22 937.641,1359.18 940.095,1363.09 942.549,1366.95 945.003,1370.77 947.457,1374.53 949.911,1378.26 952.365,1381.94 954.819,1385.57 957.274,1389.16 959.728,1392.7 962.182,1396.2 964.636,1399.66 967.09,1403.07 969.544,1406.44 971.998,1409.77 974.452,1413.06 976.906,1416.3 979.36,1419.51 981.814,1422.67 984.268,1425.8 986.722,1428.88 989.176,1431.93 991.63,1434.93 994.084,1437.9 996.538,1440.83 998.992,1443.73 1001.45,1446.58 1003.9,1449.4 1006.35,1452.19 1008.81,1454.93 1011.26,1457.65 1013.72,1460.32 1016.17,1462.96 1018.62,1465.57 1021.08,1468.14 1023.53,1470.68 1025.99,1473.19 1028.44,1475.66 1030.9,1478.1 1033.35,1480.51 1035.8,1482.89 1038.26,1485.23 1040.71,1487.55 1043.17,1489.83 1045.62,1492.08 1048.07,1494.31 1050.53,1496.5 1052.98,1498.66 1055.44,1500.8 1057.89,1502.9 1060.34,1504.98 1062.8,1507.03 1065.25,1509.05 1067.71,1511.05 1070.16,1513.02 1072.61,1514.96 1075.07,1516.87 1077.52,1518.76 1079.98,1520.63 1082.43,1522.47 1084.88,1524.28 1087.34,1526.07 1089.79,1527.83 1092.25,1529.57 1094.7,1531.29 1097.15,1532.98 1099.61,1534.65 1102.06,1536.3 1104.52,1537.92 1106.97,1539.53 1109.42,1541.11 1111.88,1542.67 1114.33,1544.21 1116.79,1545.72 1119.24,1547.22 1121.7,1548.69 1124.15,1550.15 1126.6,1551.59 1129.06,1553 1131.51,1554.4 1133.97,1555.78 1136.42,1557.14 1138.87,1558.48 1141.33,1559.8 1143.78,1561.11 1146.24,1562.4 1148.69,1563.67 1151.14,1564.92 1153.6,1566.16 1156.05,1567.38 1158.51,1568.58 1160.96,1569.77 1163.41,1570.94 1165.87,1572.1 1168.32,1573.24 1170.78,1574.37 1173.23,1575.48 1175.68,1576.58 1178.14,1577.66 1180.59,1578.73 1183.05,1579.78 1185.5,1580.83 1187.95,1581.86 1190.41,1582.87 1192.86,1583.87 1195.32,1584.86 1197.77,1585.84 1200.23,1586.8 1202.68,1587.75 1205.13,1588.69 1207.59,1589.62 1210.04,1590.53 1212.5,1591.43 1214.95,1592.32 1217.4,1593.2 1219.86,1594.07 1222.31,1594.93 1224.77,1595.77 1227.22,1596.61 1229.67,1597.43 1232.13,1598.25 1234.58,1599.05 1237.04,1599.84 1239.49,1600.63 1241.94,1601.4 1244.4,1602.16 1246.85,1602.92 1249.31,1603.66 1251.76,1604.4 1254.21,1605.12 1256.67,1605.84 1259.12,1606.55 1261.58,1607.25 1264.03,1607.94 1266.48,1608.62 1268.94,1609.29 1271.39,1609.96 1273.85,1610.61 1276.3,1611.26 1278.75,1611.9 1281.21,1612.54 1283.66,1613.16 1286.12,1613.78 1288.57,1614.39 1291.03,1614.99 1293.48,1615.58 1295.93,1616.17 1298.39,1616.75 1300.84,1617.33 1303.3,1617.89 1305.75,1618.45 1308.2,1619.01 1310.66,1619.55 1313.11,1620.09 1315.57,1620.62 1318.02,1621.15 1320.47,1621.67 1322.93,1622.19 1325.38,1622.69 1327.84,1623.2 1330.29,1623.69 1332.74,1624.18 1335.2,1624.67 1337.65,1625.15 1340.11,1625.62 1342.56,1626.09 1345.01,1626.55 1347.47,1627.01 1349.92,1627.46 1352.38,1627.91 1354.83,1628.35 1357.28,1628.79 1359.74,1629.22 1362.19,1629.64 1364.65,1630.06 1367.1,1630.48 1369.55,1630.89 1372.01,1631.3 1374.46,1631.7 1376.92,1632.1 1379.37,1632.49 1381.83,1632.88 1384.28,1633.26 1386.73,1633.64 1389.19,1634.02 1391.64,1634.39 1394.1,1634.76 1396.55,1635.12 1399,1635.48 1401.46,1635.83 1403.91,1636.18 1406.37,1636.53 1408.82,1636.87 1411.27,1637.21 1413.73,1637.55 1416.18,1637.88 1418.64,1638.21 1421.09,1638.53 1423.54,1638.85 1426,1639.17 1428.45,1639.48 1430.91,1639.79 1433.36,1640.1 1435.81,1640.41 1438.27,1640.71 1440.72,1641 1443.18,1641.3 1445.63,1641.59 1448.08,1641.88 1450.54,1642.16 1452.99,1642.44 1455.45,1642.72 1457.9,1643 1460.35,1643.27 1462.81,1643.54 1465.26,1643.81 1467.72,1644.07 1470.17,1644.33 1472.63,1644.59 1475.08,1644.85 1477.53,1645.1 1479.99,1645.35 1482.44,1645.6 1484.9,1645.85 1487.35,1646.09 1489.8,1646.33 1492.26,1646.57 1494.71,1646.8 1497.17,1647.04 1499.62,1647.27 1502.07,1647.5 1504.53,1647.72 1506.98,1647.95 1509.44,1648.17 1511.89,1648.39 1514.34,1648.61 1516.8,1648.82 1519.25,1649.04 1521.71,1649.25 1524.16,1649.46 1526.61,1649.66 1529.07,1649.87 1531.52,1650.07 1533.98,1650.27 1536.43,1650.47 1538.88,1650.67 1541.34,1650.86 1543.79,1651.05 1546.25,1651.24 1548.7,1651.43 1551.16,1651.62 1553.61,1651.81 1556.06,1651.99 1558.52,1652.17 1560.97,1652.35 1563.43,1652.53 1565.88,1652.7 1568.33,1652.88 1570.79,1653.05 1573.24,1653.22 1575.7,1653.39 1578.15,1653.56 1580.6,1653.73 1583.06,1653.89 1585.51,1654.06 1587.97,1654.22 1590.42,1654.38 1592.87,1654.54 1595.33,1654.69 1597.78,1654.85 1600.24,1655 1602.69,1655.16 1605.14,1655.31 1607.6,1655.46 1610.05,1655.61 1612.51,1655.75 1614.96,1655.9 1617.41,1656.04 1619.87,1656.19 1622.32,1656.33 1624.78,1656.47 1627.23,1656.61 1629.68,1656.75 1632.14,1656.88 1634.59,1657.02 1637.05,1657.15 1639.5,1657.29 1641.96,1657.42 1644.41,1657.55 1646.86,1657.68 1649.32,1657.81 1651.77,1657.93 1654.23,1658.06 1656.68,1658.18 1659.13,1658.31 1661.59,1658.43 1664.04,1658.55 1666.5,1658.67 1668.95,1658.79 1671.4,1658.91 1673.86,1659.02 1676.31,1659.14 1678.77,1659.26 1681.22,1659.37 1683.67,1659.48 1686.13,1659.6 1688.58,1659.71 1691.04,1659.82 1693.49,1659.93 1695.94,1660.03 1698.4,1660.14 1700.85,1660.25 1703.31,1660.35 1705.76,1660.46 1708.21,1660.56 1710.67,1660.66 1713.12,1660.77 1715.58,1660.87 1718.03,1660.97 1720.48,1661.07 1722.94,1661.17 1725.39,1661.26 1727.85,1661.36 1730.3,1661.46 1732.76,1661.55 1735.21,1661.65 1737.66,1661.74 1740.12,1661.83 1742.57,1661.92 1745.03,1662.02 1747.48,1662.11 1749.93,1662.2 1752.39,1662.29 1754.84,1662.37 1757.3,1662.46 1759.75,1662.55 1762.2,1662.63 1764.66,1662.72 1767.11,1662.81 1769.57,1662.89 1772.02,1662.97 1774.47,1663.06 1776.93,1663.14 1779.38,1663.22 1781.84,1663.3 1784.29,1663.38 1786.74,1663.46 1789.2,1663.54 1791.65,1663.62 1794.11,1663.69 1796.56,1663.77 1799.01,1663.85 1801.47,1663.92 1803.92,1664 1806.38,1664.07 1808.83,1664.15 1811.28,1664.22 1813.74,1664.29 1816.19,1664.36 1818.65,1664.44 1821.1,1664.51 1823.56,1664.58 1826.01,1664.65 1828.46,1664.72 1830.92,1664.79 1833.37,1664.85 1835.83,1664.92 1838.28,1664.99 1840.73,1665.06 1843.19,1665.12 1845.64,1665.19 1848.1,1665.25 1850.55,1665.32 1853,1665.38 1855.46,1665.45 1857.91,1665.51 1860.37,1665.57 1862.82,1665.63 1865.27,1665.69 1867.73,1665.76 1870.18,1665.82 1872.64,1665.88 1875.09,1665.94 1877.54,1666 1880,1666.06 1882.45,1666.11 1884.91,1666.17 1887.36,1666.23 1889.81,1666.29 1892.27,1666.34 1894.72,1666.4 1897.18,1666.46 1899.63,1666.51 1902.09,1666.57 1904.54,1666.62 1906.99,1666.68 1909.45,1666.73 1911.9,1666.78 1914.36,1666.84 1916.81,1666.89 1919.26,1666.94 1921.72,1666.99 1924.17,1667.04 1926.63,1667.1 1929.08,1667.15 1931.53,1667.2 1933.99,1667.25 1936.44,1667.3 1938.9,1667.35 1941.35,1667.39 1943.8,1667.44 1946.26,1667.49 1948.71,1667.54 1951.17,1667.59 1953.62,1667.63 1956.07,1667.68 1958.53,1667.73 1960.98,1667.77 1963.44,1667.82 1965.89,1667.86 1968.34,1667.91 1970.8,1667.95 1973.25,1668 1975.71,1668.04 1978.16,1668.09 1980.61,1668.13 1983.07,1668.17 1985.52,1668.22 1987.98,1668.26 1990.43,1668.3 1992.89,1668.34 1995.34,1668.39 1997.79,1668.43 2000.25,1668.47 2002.7,1668.51 2005.16,1668.55 2007.61,1668.59 2010.06,1668.63 2012.52,1668.67 2014.97,1668.71 2017.43,1668.75 2019.88,1668.79 2022.33,1668.83 2024.79,1668.87 2027.24,1668.9 2029.7,1668.94 2032.15,1668.98 2034.6,1669.02 2037.06,1669.05 2039.51,1669.09 2041.97,1669.13 2044.42,1669.16 2046.87,1669.2 2049.33,1669.24 2051.78,1669.27 2054.24,1669.31 2056.69,1669.34 2059.14,1669.38 2061.6,1669.41 2064.05,1669.45 2066.51,1669.48 2068.96,1669.51 2071.41,1669.55 2073.87,1669.58 2076.32,1669.62 2078.78,1669.65 2081.23,1669.68 2083.69,1669.71 2086.14,1669.75 2088.59,1669.78 2091.05,1669.81 2093.5,1669.84 2095.96,1669.87 2098.41,1669.91 2100.86,1669.94 2103.32,1669.97 2105.77,1670 2108.23,1670.03 2110.68,1670.06 2113.13,1670.09 2115.59,1670.12 2118.04,1670.15 2120.5,1670.18 2122.95,1670.21 2125.4,1670.24 2127.86,1670.27 2130.31,1670.3 2132.77,1670.32 2135.22,1670.35 2137.67,1670.38 2140.13,1670.41 2142.58,1670.44 2145.04,1670.46 2147.49,1670.49 2149.94,1670.52 2152.4,1670.55 2154.85,1670.57 2157.31,1670.6 2159.76,1670.63 2162.21,1670.65 2164.67,1670.68 2167.12,1670.71 2169.58,1670.73 2172.03,1670.76 2174.49,1670.78 2176.94,1670.81 2179.39,1670.83 2181.85,1670.86 2184.3,1670.88 2186.76,1670.91 2189.21,1670.93 2191.66,1670.96 2194.12,1670.98 2196.57,1671.01 2199.03,1671.03 2201.48,1671.05 2203.93,1671.08 2206.39,1671.1 2208.84,1671.13 2211.3,1671.15 2213.75,1671.17 2216.2,1671.19 2218.66,1671.22 2221.11,1671.24 2223.57,1671.26 2226.02,1671.28 2228.47,1671.31 2230.93,1671.33 2233.38,1671.35 2235.84,1671.37 2238.29,1671.39 2240.74,1671.42 2243.2,1671.44 2245.65,1671.46 2248.11,1671.48 2250.56,1671.5 2253.02,1671.52 2255.47,1671.54 2257.92,1671.56 2260.38,1671.58 2262.83,1671.6 2265.29,1671.63 2267.74,1671.65 2270.19,1671.67 2272.65,1671.69 2275.1,1671.71 2277.56,1671.72 2280.01,1671.74 2282.46,1671.76 2284.92,1671.78 2287.37,1671.8 2289.83,1671.82 2292.28,1671.84 2294.73,1671.86 2297.19,1671.88 2299.64,1671.9 2302.1,1671.92 2304.55,1671.93 2307,1671.95 2309.46,1671.97 2311.91,1671.99 2314.37,1672.01 2316.82,1672.02 2319.27,1672.04 2321.73,1672.06 2324.18,1672.08 2326.64,1672.09 2329.09,1672.11 2331.54,1672.13 2334,1672.15 2336.45,1672.16 2338.91,1672.18 2341.36,1672.2 2343.82,1672.21 2346.27,1672.23 2348.72,1672.25 2351.18,1672.26 2353.63,1672.28 2356.09,1672.3 2358.54,1672.31 2360.99,1672.33 2363.45,1672.34 2365.9,1672.36 2368.36,1672.38 2370.81,1672.39 2373.26,1672.41 2375.72,1672.42 2378.17,1672.44 2380.63,1672.45 2383.08,1672.47 2385.53,1672.48 2387.99,1672.5 2390.44,1672.51 2392.9,1672.53 2395.35,1672.54 2397.8,1672.56 2400.26,1672.57 2402.71,1672.59 2405.17,1672.6 2407.62,1672.62 2410.07,1672.63 2412.53,1672.64 2414.98,1672.66 2417.44,1672.67 2419.89,1672.69 2422.34,1672.7 2424.8,1672.71 2427.25,1672.73 2429.71,1672.74 2432.16,1672.76 2434.62,1672.77 2437.07,1672.78 2439.52,1672.8 2441.98,1672.81 2444.43,1672.82 2446.89,1672.84 2449.34,1672.85 2451.79,1672.86 2454.25,1672.87 2456.7,1672.89 2459.16,1672.9 2461.61,1672.91 2464.06,1672.92 2466.52,1672.94 2468.97,1672.95 2471.43,1672.96 2473.88,1672.97 2476.33,1672.99 2478.79,1673 2481.24,1673.01 2483.7,1673.02 2486.15,1673.03 2488.6,1673.05 2491.06,1673.06 2493.51,1673.07 2495.97,1673.08 2498.42,1673.09 2500.87,1673.1 2503.33,1673.12 2505.78,1673.13 2508.24,1673.14 2510.69,1673.15 2513.14,1673.16 2515.6,1673.17 2518.05,1673.18 2520.51,1673.19 2522.96,1673.21 2525.42,1673.22 2527.87,1673.23 2530.32,1673.24 2532.78,1673.25 2535.23,1673.26 2537.69,1673.27 2540.14,1673.28 2542.59,1673.29 2545.05,1673.3 2547.5,1673.31 2549.96,1673.32 2552.41,1673.33 2554.86,1673.34 2557.32,1673.35 2559.77,1673.36 2562.23,1673.37 2564.68,1673.38 2567.13,1673.39 2569.59,1673.4 2572.04,1673.41 2574.5,1673.42 2576.95,1673.43 2579.4,1673.44 2581.86,1673.45 2584.31,1673.46 2586.77,1673.47 2589.22,1673.48 2591.67,1673.49 2594.13,1673.5 2596.58,1673.51 2599.04,1673.52 2601.49,1673.53 2603.95,1673.54 2606.4,1673.54 2608.85,1673.55 2611.31,1673.56 2613.76,1673.57 2616.22,1673.58 2618.67,1673.59 2621.12,1673.6 2623.58,1673.61 2626.03,1673.62 2628.49,1673.62 2630.94,1673.63 2633.39,1673.64 2635.85,1673.65 2638.3,1673.66 2640.76,1673.67 "/>
<polyline clip-path="url(#clip252)" style="stroke:#e26f46; stroke-linecap:round; stroke-linejoin:round; stroke-width:4; stroke-opacity:1; fill:none" points="189.154,1670.3 191.608,1669.98 194.062,1669.65 196.516,1669.32 198.97,1668.98 201.424,1668.63 203.878,1668.28 206.332,1667.92 208.786,1667.55 211.241,1667.18 213.695,1666.79 216.149,1666.4 218.603,1666.01 221.057,1665.6 223.511,1665.19 225.965,1664.77 228.419,1664.34 230.873,1663.9 233.327,1663.46 235.781,1663 238.235,1662.54 240.689,1662.07 243.143,1661.59 245.597,1661.09 248.051,1660.59 250.505,1660.09 252.959,1659.57 255.414,1659.04 257.868,1658.5 260.322,1657.95 262.776,1657.39 265.23,1656.82 267.684,1656.23 270.138,1655.64 272.592,1655.04 275.046,1654.42 277.5,1653.79 279.954,1653.15 282.408,1652.5 284.862,1651.84 287.316,1651.16 289.77,1650.47 292.224,1649.77 294.678,1649.05 297.132,1648.32 299.587,1647.58 302.041,1646.82 304.495,1646.05 306.949,1645.27 309.403,1644.47 311.857,1643.65 314.311,1642.82 316.765,1641.98 319.219,1641.12 321.673,1640.24 324.127,1639.35 326.581,1638.44 329.035,1637.51 331.489,1636.57 333.943,1635.61 336.397,1634.63 338.851,1633.63 341.305,1632.62 343.76,1631.59 346.214,1630.54 348.668,1629.47 351.122,1628.38 353.576,1627.27 356.03,1626.14 358.484,1624.99 360.938,1623.82 363.392,1622.63 365.846,1621.42 368.3,1620.19 370.754,1618.93 373.208,1617.66 375.662,1616.36 378.116,1615.03 380.57,1613.69 383.024,1612.32 385.478,1610.93 387.933,1609.51 390.387,1608.07 392.841,1606.61 395.295,1605.12 397.749,1603.61 400.203,1602.06 402.657,1600.5 405.111,1598.9 407.565,1597.28 410.019,1595.64 412.473,1593.96 414.927,1592.26 417.381,1590.53 419.835,1588.77 422.289,1586.98 424.743,1585.17 427.197,1583.32 429.651,1581.45 432.106,1579.54 434.56,1577.6 437.014,1575.64 439.468,1573.64 441.922,1571.61 444.376,1569.55 446.83,1567.45 449.284,1565.33 451.738,1563.17 454.192,1560.98 456.646,1558.75 459.1,1556.49 461.554,1554.2 464.008,1551.87 466.462,1549.51 468.916,1547.11 471.37,1544.68 473.824,1542.22 476.279,1539.71 478.733,1537.17 481.187,1534.6 483.641,1531.99 486.095,1529.34 488.549,1526.66 491.003,1523.94 493.457,1521.18 495.911,1518.38 498.365,1515.55 500.819,1512.68 503.273,1509.77 505.727,1506.82 508.181,1503.83 510.635,1500.81 513.089,1497.75 515.543,1494.65 517.998,1491.51 520.452,1488.33 522.906,1485.11 525.36,1481.86 527.814,1478.56 530.268,1475.23 532.722,1471.86 535.176,1468.45 537.63,1465 540.084,1461.51 542.538,1457.98 544.992,1454.42 547.446,1450.82 549.9,1447.17 552.354,1443.5 554.808,1439.78 557.262,1436.02 559.716,1432.23 562.171,1428.4 564.625,1424.54 567.079,1420.64 569.533,1416.7 571.987,1412.73 574.441,1408.72 576.895,1404.67 579.349,1400.6 581.803,1396.48 584.257,1392.34 586.711,1388.16 589.165,1383.95 591.619,1379.71 594.073,1375.43 596.527,1371.12 598.981,1366.79 601.435,1362.42 603.889,1358.03 606.344,1353.6 608.798,1349.15 611.252,1344.67 613.706,1340.16 616.16,1335.63 618.614,1331.08 621.068,1326.5 623.522,1321.9 625.976,1317.28 628.43,1312.63 630.884,1307.97 633.338,1303.29 635.792,1298.59 638.246,1293.88 640.7,1289.14 643.154,1284.4 645.608,1279.64 648.062,1274.86 650.517,1270.08 652.971,1265.29 655.425,1260.48 657.879,1255.67 660.333,1250.85 662.787,1246.02 665.241,1241.19 667.695,1236.36 670.149,1231.52 672.603,1226.69 675.057,1221.85 677.511,1217.01 679.965,1212.18 682.419,1207.35 684.873,1202.52 687.327,1197.7 689.781,1192.89 692.235,1188.09 694.69,1183.3 697.144,1178.51 699.598,1173.75 702.052,1168.99 704.506,1164.26 706.96,1159.53 709.414,1154.83 711.868,1150.15 714.322,1145.49 716.776,1140.84 719.23,1136.23 721.684,1131.63 724.138,1127.06 726.592,1122.52 729.046,1118.01 731.5,1113.52 733.954,1109.07 736.408,1104.65 738.863,1100.26 741.317,1095.9 743.771,1091.58 746.225,1087.3 748.679,1083.06 751.133,1078.85 753.587,1074.69 756.041,1070.56 758.495,1066.48 760.949,1062.44 763.403,1058.44 765.857,1054.49 768.311,1050.58 770.765,1046.72 773.219,1042.91 775.673,1039.14 778.127,1035.42 780.581,1031.75 783.036,1028.14 785.49,1024.57 787.944,1021.06 790.398,1017.59 792.852,1014.18 795.306,1010.83 797.76,1007.52 800.214,1004.28 802.668,1001.08 805.122,997.945 807.576,994.863 810.03,991.839 812.484,988.871 814.938,985.96 817.392,983.107 819.846,980.312 822.3,977.575 824.754,974.897 827.209,972.278 829.663,969.718 832.117,967.217 834.571,964.776 837.025,962.394 839.479,960.072 841.933,957.81 844.387,955.609 846.841,953.467 849.295,951.385 851.749,949.363 854.203,947.402 856.657,945.5 859.111,943.659 861.565,941.878 864.019,940.156 866.473,938.493 868.928,936.89 871.382,935.345 873.836,933.859 876.29,932.431 878.744,931.061 881.198,929.749 883.652,928.494 886.106,927.296 888.56,926.155 891.014,925.069 893.468,924.04 895.922,923.067 898.376,922.148 900.83,921.285 903.284,920.476 905.738,919.72 908.192,919.019 910.646,918.371 913.101,917.775 915.555,917.232 918.009,916.741 920.463,916.301 922.917,915.912 925.371,915.573 927.825,915.285 930.279,915.046 932.733,914.856 935.187,914.714 937.641,914.621 940.095,914.575 942.549,914.576 945.003,914.623 947.457,914.716 949.911,914.854 952.365,915.037 954.819,915.264 957.274,915.535 959.728,915.848 962.182,916.204 964.636,916.601 967.09,917.04 969.544,917.518 971.998,918.037 974.452,918.594 976.906,919.19 979.36,919.824 981.814,920.495 984.268,921.201 986.722,921.944 989.176,922.72 991.63,923.532 994.084,924.377 996.538,925.255 998.992,926.166 1001.45,927.109 1003.9,928.084 1006.35,929.09 1008.81,930.127 1011.26,931.193 1013.72,932.29 1016.17,933.416 1018.62,934.57 1021.08,935.752 1023.53,936.962 1025.99,938.2 1028.44,939.464 1030.9,940.754 1033.35,942.07 1035.8,943.412 1038.26,944.778 1040.71,946.168 1043.17,947.583 1045.62,949.02 1048.07,950.481 1050.53,951.964 1052.98,953.47 1055.44,954.997 1057.89,956.545 1060.34,958.114 1062.8,959.703 1065.25,961.312 1067.71,962.941 1070.16,964.588 1072.61,966.254 1075.07,967.938 1077.52,969.64 1079.98,971.359 1082.43,973.096 1084.88,974.848 1087.34,976.617 1089.79,978.402 1092.25,980.201 1094.7,982.016 1097.15,983.845 1099.61,985.688 1102.06,987.545 1104.52,989.416 1106.97,991.299 1109.42,993.195 1111.88,995.103 1114.33,997.023 1116.79,998.955 1119.24,1000.9 1121.7,1002.85 1124.15,1004.81 1126.6,1006.79 1129.06,1008.77 1131.51,1010.76 1133.97,1012.77 1136.42,1014.78 1138.87,1016.8 1141.33,1018.82 1143.78,1020.86 1146.24,1022.9 1148.69,1024.95 1151.14,1027 1153.6,1029.06 1156.05,1031.13 1158.51,1033.21 1160.96,1035.29 1163.41,1037.37 1165.87,1039.46 1168.32,1041.55 1170.78,1043.65 1173.23,1045.75 1175.68,1047.86 1178.14,1049.97 1180.59,1052.08 1183.05,1054.19 1185.5,1056.31 1187.95,1058.43 1190.41,1060.55 1192.86,1062.68 1195.32,1064.8 1197.77,1066.93 1200.23,1069.06 1202.68,1071.2 1205.13,1073.33 1207.59,1075.47 1210.04,1077.61 1212.5,1079.75 1214.95,1081.89 1217.4,1084.03 1219.86,1086.17 1222.31,1088.31 1224.77,1090.45 1227.22,1092.59 1229.67,1094.74 1232.13,1096.88 1234.58,1099.02 1237.04,1101.16 1239.49,1103.3 1241.94,1105.44 1244.4,1107.58 1246.85,1109.72 1249.31,1111.85 1251.76,1113.99 1254.21,1116.12 1256.67,1118.25 1259.12,1120.38 1261.58,1122.51 1264.03,1124.64 1266.48,1126.76 1268.94,1128.89 1271.39,1131.01 1273.85,1133.12 1276.3,1135.24 1278.75,1137.35 1281.21,1139.46 1283.66,1141.57 1286.12,1143.67 1288.57,1145.77 1291.03,1147.87 1293.48,1149.97 1295.93,1152.06 1298.39,1154.15 1300.84,1156.23 1303.3,1158.32 1305.75,1160.39 1308.2,1162.47 1310.66,1164.54 1313.11,1166.61 1315.57,1168.67 1318.02,1170.73 1320.47,1172.78 1322.93,1174.83 1325.38,1176.88 1327.84,1178.92 1330.29,1180.96 1332.74,1182.99 1335.2,1185.02 1337.65,1187.05 1340.11,1189.07 1342.56,1191.08 1345.01,1193.09 1347.47,1195.1 1349.92,1197.1 1352.38,1199.1 1354.83,1201.09 1357.28,1203.08 1359.74,1205.06 1362.19,1207.04 1364.65,1209.01 1367.1,1210.98 1369.55,1212.94 1372.01,1214.9 1374.46,1216.85 1376.92,1218.8 1379.37,1220.74 1381.83,1222.68 1384.28,1224.61 1386.73,1226.54 1389.19,1228.46 1391.64,1230.37 1394.1,1232.28 1396.55,1234.19 1399,1236.09 1401.46,1237.98 1403.91,1239.87 1406.37,1241.75 1408.82,1243.63 1411.27,1245.5 1413.73,1247.37 1416.18,1249.23 1418.64,1251.09 1421.09,1252.94 1423.54,1254.78 1426,1256.62 1428.45,1258.45 1430.91,1260.28 1433.36,1262.1 1435.81,1263.92 1438.27,1265.72 1440.72,1267.53 1443.18,1269.33 1445.63,1271.12 1448.08,1272.91 1450.54,1274.69 1452.99,1276.46 1455.45,1278.23 1457.9,1279.99 1460.35,1281.75 1462.81,1283.5 1465.26,1285.25 1467.72,1286.98 1470.17,1288.72 1472.63,1290.45 1475.08,1292.17 1477.53,1293.88 1479.99,1295.59 1482.44,1297.3 1484.9,1298.99 1487.35,1300.68 1489.8,1302.37 1492.26,1304.05 1494.71,1305.72 1497.17,1307.39 1499.62,1309.05 1502.07,1310.71 1504.53,1312.36 1506.98,1314 1509.44,1315.64 1511.89,1317.27 1514.34,1318.9 1516.8,1320.52 1519.25,1322.13 1521.71,1323.74 1524.16,1325.34 1526.61,1326.94 1529.07,1328.53 1531.52,1330.11 1533.98,1331.69 1536.43,1333.26 1538.88,1334.83 1541.34,1336.39 1543.79,1337.95 1546.25,1339.5 1548.7,1341.04 1551.16,1342.58 1553.61,1344.11 1556.06,1345.63 1558.52,1347.15 1560.97,1348.67 1563.43,1350.18 1565.88,1351.68 1568.33,1353.18 1570.79,1354.67 1573.24,1356.15 1575.7,1357.63 1578.15,1359.1 1580.6,1360.57 1583.06,1362.03 1585.51,1363.49 1587.97,1364.94 1590.42,1366.39 1592.87,1367.83 1595.33,1369.26 1597.78,1370.69 1600.24,1372.11 1602.69,1373.53 1605.14,1374.94 1607.6,1376.34 1610.05,1377.74 1612.51,1379.14 1614.96,1380.52 1617.41,1381.91 1619.87,1383.28 1622.32,1384.66 1624.78,1386.02 1627.23,1387.38 1629.68,1388.74 1632.14,1390.09 1634.59,1391.43 1637.05,1392.77 1639.5,1394.1 1641.96,1395.43 1644.41,1396.76 1646.86,1398.07 1649.32,1399.38 1651.77,1400.69 1654.23,1401.99 1656.68,1403.29 1659.13,1404.58 1661.59,1405.86 1664.04,1407.14 1666.5,1408.41 1668.95,1409.68 1671.4,1410.95 1673.86,1412.21 1676.31,1413.46 1678.77,1414.71 1681.22,1415.95 1683.67,1417.19 1686.13,1418.42 1688.58,1419.65 1691.04,1420.87 1693.49,1422.08 1695.94,1423.29 1698.4,1424.5 1700.85,1425.7 1703.31,1426.9 1705.76,1428.09 1708.21,1429.28 1710.67,1430.46 1713.12,1431.63 1715.58,1432.8 1718.03,1433.97 1720.48,1435.13 1722.94,1436.29 1725.39,1437.44 1727.85,1438.58 1730.3,1439.73 1732.76,1440.86 1735.21,1441.99 1737.66,1443.12 1740.12,1444.24 1742.57,1445.36 1745.03,1446.47 1747.48,1447.58 1749.93,1448.68 1752.39,1449.78 1754.84,1450.87 1757.3,1451.96 1759.75,1453.04 1762.2,1454.12 1764.66,1455.2 1767.11,1456.27 1769.57,1457.33 1772.02,1458.39 1774.47,1459.45 1776.93,1460.5 1779.38,1461.54 1781.84,1462.59 1784.29,1463.62 1786.74,1464.66 1789.2,1465.68 1791.65,1466.71 1794.11,1467.73 1796.56,1468.74 1799.01,1469.75 1801.47,1470.76 1803.92,1471.76 1806.38,1472.76 1808.83,1473.75 1811.28,1474.74 1813.74,1475.72 1816.19,1476.7 1818.65,1477.68 1821.1,1478.65 1823.56,1479.62 1826.01,1480.58 1828.46,1481.54 1830.92,1482.49 1833.37,1483.44 1835.83,1484.39 1838.28,1485.33 1840.73,1486.26 1843.19,1487.2 1845.64,1488.13 1848.1,1489.05 1850.55,1489.97 1853,1490.89 1855.46,1491.8 1857.91,1492.71 1860.37,1493.61 1862.82,1494.51 1865.27,1495.41 1867.73,1496.3 1870.18,1497.19 1872.64,1498.08 1875.09,1498.96 1877.54,1499.83 1880,1500.71 1882.45,1501.57 1884.91,1502.44 1887.36,1503.3 1889.81,1504.16 1892.27,1505.01 1894.72,1505.86 1897.18,1506.7 1899.63,1507.55 1902.09,1508.38 1904.54,1509.22 1906.99,1510.05 1909.45,1510.88 1911.9,1511.7 1914.36,1512.52 1916.81,1513.33 1919.26,1514.14 1921.72,1514.95 1924.17,1515.76 1926.63,1516.56 1929.08,1517.36 1931.53,1518.15 1933.99,1518.94 1936.44,1519.73 1938.9,1520.51 1941.35,1521.29 1943.8,1522.06 1946.26,1522.84 1948.71,1523.6 1951.17,1524.37 1953.62,1525.13 1956.07,1525.89 1958.53,1526.64 1960.98,1527.4 1963.44,1528.14 1965.89,1528.89 1968.34,1529.63 1970.8,1530.37 1973.25,1531.1 1975.71,1531.83 1978.16,1532.56 1980.61,1533.28 1983.07,1534 1985.52,1534.72 1987.98,1535.44 1990.43,1536.15 1992.89,1536.86 1995.34,1537.56 1997.79,1538.26 2000.25,1538.96 2002.7,1539.66 2005.16,1540.35 2007.61,1541.04 2010.06,1541.72 2012.52,1542.4 2014.97,1543.08 2017.43,1543.76 2019.88,1544.43 2022.33,1545.1 2024.79,1545.77 2027.24,1546.43 2029.7,1547.09 2032.15,1547.75 2034.6,1548.41 2037.06,1549.06 2039.51,1549.71 2041.97,1550.35 2044.42,1551 2046.87,1551.64 2049.33,1552.27 2051.78,1552.91 2054.24,1553.54 2056.69,1554.17 2059.14,1554.79 2061.6,1555.41 2064.05,1556.03 2066.51,1556.65 2068.96,1557.26 2071.41,1557.87 2073.87,1558.48 2076.32,1559.09 2078.78,1559.69 2081.23,1560.29 2083.69,1560.89 2086.14,1561.48 2088.59,1562.07 2091.05,1562.66 2093.5,1563.25 2095.96,1563.83 2098.41,1564.41 2100.86,1564.99 2103.32,1565.56 2105.77,1566.14 2108.23,1566.71 2110.68,1567.27 2113.13,1567.84 2115.59,1568.4 2118.04,1568.96 2120.5,1569.52 2122.95,1570.07 2125.4,1570.62 2127.86,1571.17 2130.31,1571.72 2132.77,1572.26 2135.22,1572.8 2137.67,1573.34 2140.13,1573.88 2142.58,1574.41 2145.04,1574.94 2147.49,1575.47 2149.94,1576 2152.4,1576.52 2154.85,1577.05 2157.31,1577.56 2159.76,1578.08 2162.21,1578.6 2164.67,1579.11 2167.12,1579.62 2169.58,1580.12 2172.03,1580.63 2174.49,1581.13 2176.94,1581.63 2179.39,1582.13 2181.85,1582.63 2184.3,1583.12 2186.76,1583.61 2189.21,1584.1 2191.66,1584.58 2194.12,1585.07 2196.57,1585.55 2199.03,1586.03 2201.48,1586.51 2203.93,1586.98 2206.39,1587.45 2208.84,1587.92 2211.3,1588.39 2213.75,1588.86 2216.2,1589.32 2218.66,1589.78 2221.11,1590.24 2223.57,1590.7 2226.02,1591.16 2228.47,1591.61 2230.93,1592.06 2233.38,1592.51 2235.84,1592.96 2238.29,1593.4 2240.74,1593.84 2243.2,1594.28 2245.65,1594.72 2248.11,1595.16 2250.56,1595.59 2253.02,1596.03 2255.47,1596.46 2257.92,1596.88 2260.38,1597.31 2262.83,1597.73 2265.29,1598.16 2267.74,1598.58 2270.19,1598.99 2272.65,1599.41 2275.1,1599.83 2277.56,1600.24 2280.01,1600.65 2282.46,1601.06 2284.92,1601.46 2287.37,1601.87 2289.83,1602.27 2292.28,1602.67 2294.73,1603.07 2297.19,1603.47 2299.64,1603.86 2302.1,1604.26 2304.55,1604.65 2307,1605.04 2309.46,1605.42 2311.91,1605.81 2314.37,1606.19 2316.82,1606.58 2319.27,1606.96 2321.73,1607.34 2324.18,1607.71 2326.64,1608.09 2329.09,1608.46 2331.54,1608.83 2334,1609.2 2336.45,1609.57 2338.91,1609.94 2341.36,1610.3 2343.82,1610.67 2346.27,1611.03 2348.72,1611.39 2351.18,1611.75 2353.63,1612.1 2356.09,1612.46 2358.54,1612.81 2360.99,1613.16 2363.45,1613.51 2365.9,1613.86 2368.36,1614.2 2370.81,1614.55 2373.26,1614.89 2375.72,1615.23 2378.17,1615.57 2380.63,1615.91 2383.08,1616.25 2385.53,1616.58 2387.99,1616.92 2390.44,1617.25 2392.9,1617.58 2395.35,1617.91 2397.8,1618.23 2400.26,1618.56 2402.71,1618.88 2405.17,1619.21 2407.62,1619.53 2410.07,1619.85 2412.53,1620.17 2414.98,1620.48 2417.44,1620.8 2419.89,1621.11 2422.34,1621.42 2424.8,1621.73 2427.25,1622.04 2429.71,1622.35 2432.16,1622.66 2434.62,1622.96 2437.07,1623.26 2439.52,1623.57 2441.98,1623.87 2444.43,1624.16 2446.89,1624.46 2449.34,1624.76 2451.79,1625.05 2454.25,1625.35 2456.7,1625.64 2459.16,1625.93 2461.61,1626.22 2464.06,1626.51 2466.52,1626.79 2468.97,1627.08 2471.43,1627.36 2473.88,1627.64 2476.33,1627.92 2478.79,1628.2 2481.24,1628.48 2483.7,1628.76 2486.15,1629.04 2488.6,1629.31 2491.06,1629.58 2493.51,1629.86 2495.97,1630.13 2498.42,1630.39 2500.87,1630.66 2503.33,1630.93 2505.78,1631.19 2508.24,1631.46 2510.69,1631.72 2513.14,1631.98 2515.6,1632.24 2518.05,1632.5 2520.51,1632.76 2522.96,1633.02 2525.42,1633.27 2527.87,1633.53 2530.32,1633.78 2532.78,1634.03 2535.23,1634.28 2537.69,1634.53 2540.14,1634.78 2542.59,1635.03 2545.05,1635.27 2547.5,1635.52 2549.96,1635.76 2552.41,1636 2554.86,1636.25 2557.32,1636.49 2559.77,1636.73 2562.23,1636.96 2564.68,1637.2 2567.13,1637.44 2569.59,1637.67 2572.04,1637.9 2574.5,1638.14 2576.95,1638.37 2579.4,1638.6 2581.86,1638.83 2584.31,1639.05 2586.77,1639.28 2589.22,1639.51 2591.67,1639.73 2594.13,1639.95 2596.58,1640.18 2599.04,1640.4 2601.49,1640.62 2603.95,1640.84 2606.4,1641.06 2608.85,1641.27 2611.31,1641.49 2613.76,1641.7 2616.22,1641.92 2618.67,1642.13 2621.12,1642.34 2623.58,1642.55 2626.03,1642.77 2628.49,1642.97 2630.94,1643.18 2633.39,1643.39 2635.85,1643.6 2638.3,1643.8 2640.76,1644 "/>
<polyline clip-path="url(#clip252)" style="stroke:#3da44d; stroke-linecap:round; stroke-linejoin:round; stroke-width:4; stroke-opacity:1; fill:none" points="189.154,1686.38 191.608,1686.29 194.062,1686.21 196.516,1686.13 198.97,1686.04 201.424,1685.95 203.878,1685.86 206.332,1685.77 208.786,1685.68 211.241,1685.58 213.695,1685.49 216.149,1685.39 218.603,1685.29 221.057,1685.18 223.511,1685.08 225.965,1684.97 228.419,1684.86 230.873,1684.75 233.327,1684.64 235.781,1684.52 238.235,1684.4 240.689,1684.28 243.143,1684.16 245.597,1684.03 248.051,1683.91 250.505,1683.78 252.959,1683.64 255.414,1683.51 257.868,1683.37 260.322,1683.23 262.776,1683.08 265.23,1682.94 267.684,1682.79 270.138,1682.64 272.592,1682.48 275.046,1682.32 277.5,1682.16 279.954,1682 282.408,1681.83 284.862,1681.66 287.316,1681.48 289.77,1681.31 292.224,1681.12 294.678,1680.94 297.132,1680.75 299.587,1680.56 302.041,1680.36 304.495,1680.16 306.949,1679.96 309.403,1679.75 311.857,1679.54 314.311,1679.32 316.765,1679.1 319.219,1678.88 321.673,1678.65 324.127,1678.42 326.581,1678.18 329.035,1677.94 331.489,1677.69 333.943,1677.44 336.397,1677.18 338.851,1676.92 341.305,1676.65 343.76,1676.38 346.214,1676.1 348.668,1675.82 351.122,1675.53 353.576,1675.24 356.03,1674.94 358.484,1674.64 360.938,1674.33 363.392,1674.01 365.846,1673.69 368.3,1673.36 370.754,1673.03 373.208,1672.69 375.662,1672.34 378.116,1671.99 380.57,1671.63 383.024,1671.26 385.478,1670.88 387.933,1670.5 390.387,1670.12 392.841,1669.72 395.295,1669.32 397.749,1668.91 400.203,1668.49 402.657,1668.06 405.111,1667.63 407.565,1667.19 410.019,1666.74 412.473,1666.28 414.927,1665.81 417.381,1665.34 419.835,1664.85 422.289,1664.36 424.743,1663.86 427.197,1663.35 429.651,1662.83 432.106,1662.3 434.56,1661.76 437.014,1661.21 439.468,1660.65 441.922,1660.08 444.376,1659.5 446.83,1658.91 449.284,1658.31 451.738,1657.7 454.192,1657.08 456.646,1656.44 459.1,1655.8 461.554,1655.14 464.008,1654.47 466.462,1653.8 468.916,1653.1 471.37,1652.4 473.824,1651.69 476.279,1650.96 478.733,1650.22 481.187,1649.46 483.641,1648.7 486.095,1647.92 488.549,1647.13 491.003,1646.32 493.457,1645.5 495.911,1644.67 498.365,1643.82 500.819,1642.96 503.273,1642.08 505.727,1641.19 508.181,1640.28 510.635,1639.36 513.089,1638.42 515.543,1637.47 517.998,1636.51 520.452,1635.52 522.906,1634.52 525.36,1633.51 527.814,1632.48 530.268,1631.43 532.722,1630.36 535.176,1629.28 537.63,1628.18 540.084,1627.06 542.538,1625.93 544.992,1624.78 547.446,1623.61 549.9,1622.42 552.354,1621.21 554.808,1619.99 557.262,1618.74 559.716,1617.48 562.171,1616.2 564.625,1614.9 567.079,1613.58 569.533,1612.24 571.987,1610.88 574.441,1609.5 576.895,1608.1 579.349,1606.68 581.803,1605.24 584.257,1603.78 586.711,1602.3 589.165,1600.79 591.619,1599.27 594.073,1597.72 596.527,1596.16 598.981,1594.57 601.435,1592.96 603.889,1591.33 606.344,1589.67 608.798,1587.99 611.252,1586.3 613.706,1584.57 616.16,1582.83 618.614,1581.06 621.068,1579.27 623.522,1577.46 625.976,1575.63 628.43,1573.77 630.884,1571.88 633.338,1569.98 635.792,1568.05 638.246,1566.1 640.7,1564.12 643.154,1562.12 645.608,1560.1 648.062,1558.05 650.517,1555.98 652.971,1553.88 655.425,1551.76 657.879,1549.62 660.333,1547.45 662.787,1545.26 665.241,1543.04 667.695,1540.8 670.149,1538.54 672.603,1536.25 675.057,1533.93 677.511,1531.6 679.965,1529.24 682.419,1526.85 684.873,1524.44 687.327,1522.01 689.781,1519.55 692.235,1517.07 694.69,1514.56 697.144,1512.03 699.598,1509.48 702.052,1506.9 704.506,1504.3 706.96,1501.68 709.414,1499.03 711.868,1496.35 714.322,1493.66 716.776,1490.94 719.23,1488.2 721.684,1485.43 724.138,1482.64 726.592,1479.83 729.046,1476.99 731.5,1474.14 733.954,1471.26 736.408,1468.36 738.863,1465.43 741.317,1462.49 743.771,1459.52 746.225,1456.53 748.679,1453.52 751.133,1450.49 753.587,1447.44 756.041,1444.37 758.495,1441.28 760.949,1438.16 763.403,1435.03 765.857,1431.88 768.311,1428.7 770.765,1425.51 773.219,1422.3 775.673,1419.07 778.127,1415.83 780.581,1412.56 783.036,1409.27 785.49,1405.97 787.944,1402.65 790.398,1399.31 792.852,1395.96 795.306,1392.59 797.76,1389.2 800.214,1385.79 802.668,1382.37 805.122,1378.94 807.576,1375.48 810.03,1372.02 812.484,1368.53 814.938,1365.03 817.392,1361.52 819.846,1358 822.3,1354.46 824.754,1350.9 827.209,1347.33 829.663,1343.75 832.117,1340.16 834.571,1336.56 837.025,1332.94 839.479,1329.31 841.933,1325.67 844.387,1322.01 846.841,1318.35 849.295,1314.68 851.749,1310.99 854.203,1307.3 856.657,1303.6 859.111,1299.88 861.565,1296.16 864.019,1292.43 866.473,1288.69 868.928,1284.95 871.382,1281.19 873.836,1277.43 876.29,1273.66 878.744,1269.88 881.198,1266.1 883.652,1262.31 886.106,1258.51 888.56,1254.71 891.014,1250.9 893.468,1247.09 895.922,1243.27 898.376,1239.45 900.83,1235.62 903.284,1231.79 905.738,1227.95 908.192,1224.12 910.646,1220.27 913.101,1216.43 915.555,1212.58 918.009,1208.73 920.463,1204.88 922.917,1201.02 925.371,1197.17 927.825,1193.31 930.279,1189.45 932.733,1185.59 935.187,1181.72 937.641,1177.86 940.095,1174 942.549,1170.14 945.003,1166.27 947.457,1162.41 949.911,1158.55 952.365,1154.69 954.819,1150.83 957.274,1146.97 959.728,1143.11 962.182,1139.26 964.636,1135.4 967.09,1131.55 969.544,1127.7 971.998,1123.85 974.452,1120.01 976.906,1116.17 979.36,1112.33 981.814,1108.49 984.268,1104.66 986.722,1100.84 989.176,1097.01 991.63,1093.2 994.084,1089.38 996.538,1085.57 998.992,1081.77 1001.45,1077.97 1003.9,1074.17 1006.35,1070.39 1008.81,1066.6 1011.26,1062.82 1013.72,1059.05 1016.17,1055.28 1018.62,1051.52 1021.08,1047.77 1023.53,1044.02 1025.99,1040.27 1028.44,1036.54 1030.9,1032.8 1033.35,1029.08 1035.8,1025.36 1038.26,1021.65 1040.71,1017.95 1043.17,1014.25 1045.62,1010.56 1048.07,1006.87 1050.53,1003.2 1052.98,999.528 1055.44,995.867 1057.89,992.212 1060.34,988.565 1062.8,984.926 1065.25,981.295 1067.71,977.672 1070.16,974.056 1072.61,970.448 1075.07,966.849 1077.52,963.258 1079.98,959.675 1082.43,956.101 1084.88,952.535 1087.34,948.977 1089.79,945.428 1092.25,941.888 1094.7,938.357 1097.15,934.835 1099.61,931.321 1102.06,927.817 1104.52,924.322 1106.97,920.836 1109.42,917.359 1111.88,913.891 1114.33,910.433 1116.79,906.985 1119.24,903.546 1121.7,900.116 1124.15,896.697 1126.6,893.287 1129.06,889.887 1131.51,886.497 1133.97,883.116 1136.42,879.746 1138.87,876.386 1141.33,873.036 1143.78,869.696 1146.24,866.366 1148.69,863.047 1151.14,859.738 1153.6,856.439 1156.05,853.151 1158.51,849.874 1160.96,846.606 1163.41,843.35 1165.87,840.104 1168.32,836.869 1170.78,833.645 1173.23,830.431 1175.68,827.228 1178.14,824.037 1180.59,820.856 1183.05,817.686 1185.5,814.527 1187.95,811.378 1190.41,808.241 1192.86,805.114 1195.32,801.998 1197.77,798.892 1200.23,795.797 1202.68,792.713 1205.13,789.64 1207.59,786.577 1210.04,783.525 1212.5,780.483 1214.95,777.452 1217.4,774.432 1219.86,771.423 1222.31,768.424 1224.77,765.436 1227.22,762.459 1229.67,759.493 1232.13,756.537 1234.58,753.592 1237.04,750.657 1239.49,747.734 1241.94,744.821 1244.4,741.919 1246.85,739.027 1249.31,736.146 1251.76,733.276 1254.21,730.416 1256.67,727.568 1259.12,724.729 1261.58,721.902 1264.03,719.085 1266.48,716.279 1268.94,713.483 1271.39,710.698 1273.85,707.924 1276.3,705.16 1278.75,702.407 1281.21,699.664 1283.66,696.932 1286.12,694.21 1288.57,691.499 1291.03,688.799 1293.48,686.109 1295.93,683.429 1298.39,680.76 1300.84,678.102 1303.3,675.454 1305.75,672.816 1308.2,670.189 1310.66,667.572 1313.11,664.965 1315.57,662.369 1318.02,659.783 1320.47,657.207 1322.93,654.642 1325.38,652.087 1327.84,649.542 1330.29,647.008 1332.74,644.483 1335.2,641.969 1337.65,639.465 1340.11,636.972 1342.56,634.488 1345.01,632.014 1347.47,629.551 1349.92,627.097 1352.38,624.654 1354.83,622.22 1357.28,619.797 1359.74,617.383 1362.19,614.98 1364.65,612.586 1367.1,610.202 1369.55,607.828 1372.01,605.463 1374.46,603.109 1376.92,600.764 1379.37,598.429 1381.83,596.103 1384.28,593.788 1386.73,591.482 1389.19,589.185 1391.64,586.898 1394.1,584.621 1396.55,582.353 1399,580.095 1401.46,577.846 1403.91,575.606 1406.37,573.376 1408.82,571.156 1411.27,568.944 1413.73,566.742 1416.18,564.55 1418.64,562.367 1421.09,560.193 1423.54,558.028 1426,555.872 1428.45,553.726 1430.91,551.588 1433.36,549.46 1435.81,547.341 1438.27,545.231 1440.72,543.13 1443.18,541.038 1445.63,538.955 1448.08,536.881 1450.54,534.815 1452.99,532.759 1455.45,530.712 1457.9,528.673 1460.35,526.643 1462.81,524.622 1465.26,522.61 1467.72,520.606 1470.17,518.612 1472.63,516.625 1475.08,514.648 1477.53,512.679 1479.99,510.718 1482.44,508.767 1484.9,506.823 1487.35,504.888 1489.8,502.962 1492.26,501.044 1494.71,499.135 1497.17,497.233 1499.62,495.341 1502.07,493.456 1504.53,491.58 1506.98,489.712 1509.44,487.852 1511.89,486 1514.34,484.157 1516.8,482.322 1519.25,480.495 1521.71,478.675 1524.16,476.864 1526.61,475.061 1529.07,473.266 1531.52,471.479 1533.98,469.7 1536.43,467.929 1538.88,466.165 1541.34,464.41 1543.79,462.662 1546.25,460.922 1548.7,459.19 1551.16,457.465 1553.61,455.748 1556.06,454.039 1558.52,452.337 1560.97,450.643 1563.43,448.957 1565.88,447.278 1568.33,445.606 1570.79,443.943 1573.24,442.286 1575.7,440.637 1578.15,438.995 1580.6,437.361 1583.06,435.734 1585.51,434.114 1587.97,432.502 1590.42,430.897 1592.87,429.299 1595.33,427.708 1597.78,426.124 1600.24,424.548 1602.69,422.979 1605.14,421.416 1607.6,419.861 1610.05,418.313 1612.51,416.771 1614.96,415.237 1617.41,413.71 1619.87,412.189 1622.32,410.676 1624.78,409.169 1627.23,407.669 1629.68,406.176 1632.14,404.69 1634.59,403.21 1637.05,401.737 1639.5,400.271 1641.96,398.812 1644.41,397.359 1646.86,395.912 1649.32,394.473 1651.77,393.04 1654.23,391.613 1656.68,390.193 1659.13,388.779 1661.59,387.372 1664.04,385.971 1666.5,384.577 1668.95,383.189 1671.4,381.807 1673.86,380.432 1676.31,379.063 1678.77,377.7 1681.22,376.343 1683.67,374.993 1686.13,373.648 1688.58,372.31 1691.04,370.978 1693.49,369.653 1695.94,368.333 1698.4,367.019 1700.85,365.711 1703.31,364.41 1705.76,363.114 1708.21,361.824 1710.67,360.541 1713.12,359.263 1715.58,357.991 1718.03,356.724 1720.48,355.464 1722.94,354.21 1725.39,352.961 1727.85,351.718 1730.3,350.48 1732.76,349.249 1735.21,348.023 1737.66,346.803 1740.12,345.588 1742.57,344.379 1745.03,343.175 1747.48,341.978 1749.93,340.785 1752.39,339.598 1754.84,338.417 1757.3,337.241 1759.75,336.07 1762.2,334.905 1764.66,333.746 1767.11,332.591 1769.57,331.442 1772.02,330.299 1774.47,329.16 1776.93,328.027 1779.38,326.899 1781.84,325.777 1784.29,324.659 1786.74,323.547 1789.2,322.44 1791.65,321.338 1794.11,320.241 1796.56,319.149 1799.01,318.062 1801.47,316.981 1803.92,315.904 1806.38,314.832 1808.83,313.766 1811.28,312.704 1813.74,311.647 1816.19,310.595 1818.65,309.548 1821.1,308.506 1823.56,307.469 1826.01,306.436 1828.46,305.409 1830.92,304.386 1833.37,303.368 1835.83,302.354 1838.28,301.346 1840.73,300.342 1843.19,299.342 1845.64,298.348 1848.1,297.358 1850.55,296.372 1853,295.392 1855.46,294.415 1857.91,293.444 1860.37,292.477 1862.82,291.514 1865.27,290.556 1867.73,289.602 1870.18,288.653 1872.64,287.709 1875.09,286.768 1877.54,285.832 1880,284.901 1882.45,283.974 1884.91,283.051 1887.36,282.132 1889.81,281.218 1892.27,280.308 1894.72,279.403 1897.18,278.501 1899.63,277.604 1902.09,276.711 1904.54,275.822 1906.99,274.938 1909.45,274.057 1911.9,273.181 1914.36,272.309 1916.81,271.441 1919.26,270.577 1921.72,269.717 1924.17,268.861 1926.63,268.009 1929.08,267.161 1931.53,266.317 1933.99,265.477 1936.44,264.641 1938.9,263.809 1941.35,262.981 1943.8,262.156 1946.26,261.336 1948.71,260.519 1951.17,259.707 1953.62,258.898 1956.07,258.093 1958.53,257.291 1960.98,256.494 1963.44,255.7 1965.89,254.91 1968.34,254.124 1970.8,253.341 1973.25,252.562 1975.71,251.787 1978.16,251.015 1980.61,250.247 1983.07,249.483 1985.52,248.722 1987.98,247.965 1990.43,247.211 1992.89,246.461 1995.34,245.715 1997.79,244.972 2000.25,244.232 2002.7,243.496 2005.16,242.764 2007.61,242.035 2010.06,241.309 2012.52,240.587 2014.97,239.868 2017.43,239.152 2019.88,238.44 2022.33,237.732 2024.79,237.026 2027.24,236.324 2029.7,235.626 2032.15,234.93 2034.6,234.238 2037.06,233.549 2039.51,232.863 2041.97,232.181 2044.42,231.502 2046.87,230.826 2049.33,230.153 2051.78,229.484 2054.24,228.817 2056.69,228.154 2059.14,227.494 2061.6,226.837 2064.05,226.183 2066.51,225.532 2068.96,224.884 2071.41,224.239 2073.87,223.598 2076.32,222.959 2078.78,222.323 2081.23,221.691 2083.69,221.061 2086.14,220.434 2088.59,219.811 2091.05,219.19 2093.5,218.572 2095.96,217.957 2098.41,217.345 2100.86,216.736 2103.32,216.13 2105.77,215.526 2108.23,214.926 2110.68,214.328 2113.13,213.734 2115.59,213.142 2118.04,212.552 2120.5,211.966 2122.95,211.382 2125.4,210.801 2127.86,210.223 2130.31,209.648 2132.77,209.075 2135.22,208.506 2137.67,207.938 2140.13,207.374 2142.58,206.812 2145.04,206.253 2147.49,205.696 2149.94,205.143 2152.4,204.591 2154.85,204.043 2157.31,203.497 2159.76,202.953 2162.21,202.413 2164.67,201.874 2167.12,201.339 2169.58,200.806 2172.03,200.275 2174.49,199.747 2176.94,199.221 2179.39,198.698 2181.85,198.178 2184.3,197.66 2186.76,197.144 2189.21,196.631 2191.66,196.12 2194.12,195.612 2196.57,195.106 2199.03,194.603 2201.48,194.102 2203.93,193.603 2206.39,193.107 2208.84,192.613 2211.3,192.121 2213.75,191.632 2216.2,191.145 2218.66,190.66 2221.11,190.178 2223.57,189.698 2226.02,189.221 2228.47,188.745 2230.93,188.272 2233.38,187.801 2235.84,187.333 2238.29,186.866 2240.74,186.402 2243.2,185.94 2245.65,185.48 2248.11,185.023 2250.56,184.567 2253.02,184.114 2255.47,183.663 2257.92,183.214 2260.38,182.768 2262.83,182.323 2265.29,181.88 2267.74,181.44 2270.19,181.002 2272.65,180.566 2275.1,180.131 2277.56,179.699 2280.01,179.269 2282.46,178.841 2284.92,178.416 2287.37,177.992 2289.83,177.57 2292.28,177.15 2294.73,176.732 2297.19,176.316 2299.64,175.902 2302.1,175.491 2304.55,175.081 2307,174.673 2309.46,174.267 2311.91,173.863 2314.37,173.46 2316.82,173.06 2319.27,172.662 2321.73,172.265 2324.18,171.871 2326.64,171.478 2329.09,171.087 2331.54,170.698 2334,170.311 2336.45,169.926 2338.91,169.543 2341.36,169.161 2343.82,168.781 2346.27,168.403 2348.72,168.027 2351.18,167.653 2353.63,167.28 2356.09,166.909 2358.54,166.54 2360.99,166.173 2363.45,165.808 2365.9,165.444 2368.36,165.082 2370.81,164.721 2373.26,164.363 2375.72,164.006 2378.17,163.651 2380.63,163.297 2383.08,162.945 2385.53,162.595 2387.99,162.247 2390.44,161.9 2392.9,161.555 2395.35,161.211 2397.8,160.869 2400.26,160.529 2402.71,160.19 2405.17,159.853 2407.62,159.518 2410.07,159.184 2412.53,158.852 2414.98,158.521 2417.44,158.192 2419.89,157.865 2422.34,157.539 2424.8,157.214 2427.25,156.892 2429.71,156.57 2432.16,156.251 2434.62,155.932 2437.07,155.616 2439.52,155.301 2441.98,154.987 2444.43,154.675 2446.89,154.364 2449.34,154.055 2451.79,153.747 2454.25,153.441 2456.7,153.136 2459.16,152.833 2461.61,152.531 2464.06,152.231 2466.52,151.932 2468.97,151.634 2471.43,151.338 2473.88,151.044 2476.33,150.75 2478.79,150.459 2481.24,150.168 2483.7,149.879 2486.15,149.591 2488.6,149.305 2491.06,149.02 2493.51,148.737 2495.97,148.454 2498.42,148.174 2500.87,147.894 2503.33,147.616 2505.78,147.339 2508.24,147.064 2510.69,146.789 2513.14,146.516 2515.6,146.245 2518.05,145.975 2520.51,145.706 2522.96,145.438 2525.42,145.172 2527.87,144.906 2530.32,144.643 2532.78,144.38 2535.23,144.119 2537.69,143.859 2540.14,143.6 2542.59,143.342 2545.05,143.086 2547.5,142.831 2549.96,142.577 2552.41,142.324 2554.86,142.073 2557.32,141.822 2559.77,141.573 2562.23,141.325 2564.68,141.079 2567.13,140.833 2569.59,140.589 2572.04,140.346 2574.5,140.104 2576.95,139.863 2579.4,139.623 2581.86,139.385 2584.31,139.147 2586.77,138.911 2589.22,138.676 2591.67,138.442 2594.13,138.209 2596.58,137.977 2599.04,137.747 2601.49,137.517 2603.95,137.289 2606.4,137.061 2608.85,136.835 2611.31,136.61 2613.76,136.386 2616.22,136.163 2618.67,135.941 2621.12,135.72 2623.58,135.5 2626.03,135.281 2628.49,135.064 2630.94,134.847 2633.39,134.631 2635.85,134.417 2638.3,134.203 2640.76,133.99 "/>
<path clip-path="url(#clip250)" d="M270.874 310.833 L623.719 310.833 L623.719 103.473 L270.874 103.473  Z" fill="#ffffff" fill-rule="evenodd" fill-opacity="1"/>
<polyline clip-path="url(#clip250)" style="stroke:#000000; stroke-linecap:round; stroke-linejoin:round; stroke-width:4; stroke-opacity:1; fill:none" points="270.874,310.833 623.719,310.833 623.719,103.473 270.874,103.473 270.874,310.833 "/>
<polyline clip-path="url(#clip250)" style="stroke:#009af9; stroke-linecap:round; stroke-linejoin:round; stroke-width:4; stroke-opacity:1; fill:none" points="298.114,155.313 461.554,155.313 "/>
<path clip-path="url(#clip250)" d="M488.794 162.362 L488.794 146.667 L493.053 146.667 L493.053 162.2 Q493.053 165.88 494.489 167.732 Q495.924 169.561 498.794 169.561 Q502.243 169.561 504.234 167.362 Q506.248 165.163 506.248 161.366 L506.248 146.667 L510.507 146.667 L510.507 172.593 L506.248 172.593 L506.248 168.612 Q504.697 170.973 502.637 172.13 Q500.6 173.264 497.891 173.264 Q493.424 173.264 491.109 170.487 Q488.794 167.709 488.794 162.362 M499.512 146.042 L499.512 146.042 Z" fill="#000000" fill-rule="evenodd" fill-opacity="1" /><path clip-path="url(#clip250)" d="M520.692 168.658 L528.331 168.658 L528.331 142.292 L520.021 143.959 L520.021 139.7 L528.285 138.033 L532.961 138.033 L532.961 168.658 L540.6 168.658 L540.6 172.593 L520.692 172.593 L520.692 168.658 Z" fill="#000000" fill-rule="evenodd" fill-opacity="1" /><path clip-path="url(#clip250)" d="M559.673 136.621 Q556.572 141.945 555.067 147.154 Q553.562 152.362 553.562 157.709 Q553.562 163.056 555.067 168.311 Q556.595 173.542 559.673 178.843 L555.97 178.843 Q552.498 173.403 550.761 168.149 Q549.049 162.894 549.049 157.709 Q549.049 152.547 550.761 147.316 Q552.474 142.084 555.97 136.621 L559.673 136.621 Z" fill="#000000" fill-rule="evenodd" fill-opacity="1" /><path clip-path="url(#clip250)" d="M572.15 139.306 L572.15 146.667 L580.923 146.667 L580.923 149.978 L572.15 149.978 L572.15 164.052 Q572.15 167.223 573.007 168.126 Q573.886 169.028 576.548 169.028 L580.923 169.028 L580.923 172.593 L576.548 172.593 Q571.618 172.593 569.743 170.764 Q567.868 168.913 567.868 164.052 L567.868 149.978 L564.743 149.978 L564.743 146.667 L567.868 146.667 L567.868 139.306 L572.15 139.306 Z" fill="#000000" fill-rule="evenodd" fill-opacity="1" /><path clip-path="url(#clip250)" d="M585.854 136.621 L589.558 136.621 Q593.03 142.084 594.743 147.316 Q596.479 152.547 596.479 157.709 Q596.479 162.894 594.743 168.149 Q593.03 173.403 589.558 178.843 L585.854 178.843 Q588.933 173.542 590.437 168.311 Q591.965 163.056 591.965 157.709 Q591.965 152.362 590.437 147.154 Q588.933 141.945 585.854 136.621 Z" fill="#000000" fill-rule="evenodd" fill-opacity="1" /><polyline clip-path="url(#clip250)" style="stroke:#e26f46; stroke-linecap:round; stroke-linejoin:round; stroke-width:4; stroke-opacity:1; fill:none" points="298.114,207.153 461.554,207.153 "/>
<path clip-path="url(#clip250)" d="M488.794 214.202 L488.794 198.507 L493.053 198.507 L493.053 214.04 Q493.053 217.72 494.489 219.572 Q495.924 221.401 498.794 221.401 Q502.243 221.401 504.234 219.202 Q506.248 217.003 506.248 213.206 L506.248 198.507 L510.507 198.507 L510.507 224.433 L506.248 224.433 L506.248 220.452 Q504.697 222.813 502.637 223.97 Q500.6 225.104 497.891 225.104 Q493.424 225.104 491.109 222.327 Q488.794 219.549 488.794 214.202 M499.512 197.882 L499.512 197.882 Z" fill="#000000" fill-rule="evenodd" fill-opacity="1" /><path clip-path="url(#clip250)" d="M523.91 220.498 L540.229 220.498 L540.229 224.433 L518.285 224.433 L518.285 220.498 Q520.947 217.743 525.53 213.114 Q530.137 208.461 531.317 207.118 Q533.563 204.595 534.442 202.859 Q535.345 201.1 535.345 199.41 Q535.345 196.656 533.4 194.919 Q531.479 193.183 528.377 193.183 Q526.178 193.183 523.725 193.947 Q521.294 194.711 518.516 196.262 L518.516 191.54 Q521.34 190.406 523.794 189.827 Q526.248 189.248 528.285 189.248 Q533.655 189.248 536.85 191.933 Q540.044 194.619 540.044 199.109 Q540.044 201.239 539.234 203.16 Q538.447 205.058 536.34 207.651 Q535.762 208.322 532.66 211.54 Q529.558 214.734 523.91 220.498 Z" fill="#000000" fill-rule="evenodd" fill-opacity="1" /><path clip-path="url(#clip250)" d="M559.673 188.461 Q556.572 193.785 555.067 198.994 Q553.562 204.202 553.562 209.549 Q553.562 214.896 555.067 220.151 Q556.595 225.382 559.673 230.683 L555.97 230.683 Q552.498 225.243 550.761 219.989 Q549.049 214.734 549.049 209.549 Q549.049 204.387 550.761 199.156 Q552.474 193.924 555.97 188.461 L559.673 188.461 Z" fill="#000000" fill-rule="evenodd" fill-opacity="1" /><path clip-path="url(#clip250)" d="M572.15 191.146 L572.15 198.507 L580.923 198.507 L580.923 201.818 L572.15 201.818 L572.15 215.892 Q572.15 219.063 573.007 219.966 Q573.886 220.868 576.548 220.868 L580.923 220.868 L580.923 224.433 L576.548 224.433 Q571.618 224.433 569.743 222.604 Q567.868 220.753 567.868 215.892 L567.868 201.818 L564.743 201.818 L564.743 198.507 L567.868 198.507 L567.868 191.146 L572.15 191.146 Z" fill="#000000" fill-rule="evenodd" fill-opacity="1" /><path clip-path="url(#clip250)" d="M585.854 188.461 L589.558 188.461 Q593.03 193.924 594.743 199.156 Q596.479 204.387 596.479 209.549 Q596.479 214.734 594.743 219.989 Q593.03 225.243 589.558 230.683 L585.854 230.683 Q588.933 225.382 590.437 220.151 Q591.965 214.896 591.965 209.549 Q591.965 204.202 590.437 198.994 Q588.933 193.785 585.854 188.461 Z" fill="#000000" fill-rule="evenodd" fill-opacity="1" /><polyline clip-path="url(#clip250)" style="stroke:#3da44d; stroke-linecap:round; stroke-linejoin:round; stroke-width:4; stroke-opacity:1; fill:none" points="298.114,258.993 461.554,258.993 "/>
<path clip-path="url(#clip250)" d="M488.794 266.042 L488.794 250.347 L493.053 250.347 L493.053 265.88 Q493.053 269.56 494.489 271.412 Q495.924 273.241 498.794 273.241 Q502.243 273.241 504.234 271.042 Q506.248 268.843 506.248 265.046 L506.248 250.347 L510.507 250.347 L510.507 276.273 L506.248 276.273 L506.248 272.292 Q504.697 274.653 502.637 275.81 Q500.6 276.944 497.891 276.944 Q493.424 276.944 491.109 274.167 Q488.794 271.389 488.794 266.042 M499.512 249.722 L499.512 249.722 Z" fill="#000000" fill-rule="evenodd" fill-opacity="1" /><path clip-path="url(#clip250)" d="M534.049 257.639 Q537.405 258.357 539.28 260.625 Q541.178 262.894 541.178 266.227 Q541.178 271.343 537.66 274.144 Q534.141 276.944 527.66 276.944 Q525.484 276.944 523.169 276.505 Q520.877 276.088 518.424 275.232 L518.424 270.718 Q520.368 271.852 522.683 272.431 Q524.998 273.009 527.521 273.009 Q531.919 273.009 534.211 271.273 Q536.525 269.537 536.525 266.227 Q536.525 263.171 534.373 261.458 Q532.243 259.722 528.424 259.722 L524.396 259.722 L524.396 255.88 L528.609 255.88 Q532.058 255.88 533.887 254.514 Q535.715 253.125 535.715 250.533 Q535.715 247.871 533.817 246.459 Q531.942 245.023 528.424 245.023 Q526.502 245.023 524.303 245.44 Q522.104 245.857 519.465 246.736 L519.465 242.57 Q522.127 241.829 524.442 241.459 Q526.78 241.088 528.84 241.088 Q534.164 241.088 537.266 243.519 Q540.368 245.926 540.368 250.046 Q540.368 252.917 538.725 254.908 Q537.081 256.875 534.049 257.639 Z" fill="#000000" fill-rule="evenodd" fill-opacity="1" /><path clip-path="url(#clip250)" d="M559.673 240.301 Q556.572 245.625 555.067 250.834 Q553.562 256.042 553.562 261.389 Q553.562 266.736 555.067 271.991 Q556.595 277.222 559.673 282.523 L555.97 282.523 Q552.498 277.083 550.761 271.829 Q549.049 266.574 549.049 261.389 Q549.049 256.227 550.761 250.996 Q552.474 245.764 555.97 240.301 L559.673 240.301 Z" fill="#000000" fill-rule="evenodd" fill-opacity="1" /><path clip-path="url(#clip250)" d="M572.15 242.986 L572.15 250.347 L580.923 250.347 L580.923 253.658 L572.15 253.658 L572.15 267.732 Q572.15 270.903 573.007 271.806 Q573.886 272.708 576.548 272.708 L580.923 272.708 L580.923 276.273 L576.548 276.273 Q571.618 276.273 569.743 274.444 Q567.868 272.593 567.868 267.732 L567.868 253.658 L564.743 253.658 L564.743 250.347 L567.868 250.347 L567.868 242.986 L572.15 242.986 Z" fill="#000000" fill-rule="evenodd" fill-opacity="1" /><path clip-path="url(#clip250)" d="M585.854 240.301 L589.558 240.301 Q593.03 245.764 594.743 250.996 Q596.479 256.227 596.479 261.389 Q596.479 266.574 594.743 271.829 Q593.03 277.083 589.558 282.523 L585.854 282.523 Q588.933 277.222 590.437 271.991 Q591.965 266.736 591.965 261.389 Q591.965 256.042 590.437 250.834 Q588.933 245.625 585.854 240.301 Z" fill="#000000" fill-rule="evenodd" fill-opacity="1" /></svg>
