<?xml version="1.0" encoding="utf-8"?>
<svg xmlns="http://www.w3.org/2000/svg" xmlns:xlink="http://www.w3.org/1999/xlink" width="672" height="480" viewBox="0 0 2688 1920">
<defs>
  <clipPath id="clip430">
    <rect x="0" y="0" width="2688" height="1920"/>
  </clipPath>
</defs>
<path clip-path="url(#clip430)" d="M0 1920 L2688 1920 L2688 0 L0 0  Z" fill="#ffffff" fill-rule="evenodd" fill-opacity="1"/>
<defs>
  <clipPath id="clip431">
    <rect x="537" y="0" width="1883" height="1883"/>
  </clipPath>
</defs>
<path clip-path="url(#clip430)" d="M113.761 1800.78 L2640.76 1800.78 L2640.76 47.2441 L113.761 47.2441  Z" fill="#ffffff" fill-rule="evenodd" fill-opacity="1"/>
<defs>
  <clipPath id="clip432">
    <rect x="113" y="47" width="2528" height="1755"/>
  </clipPath>
</defs>
<polyline clip-path="url(#clip432)" style="stroke:#000000; stroke-linecap:round; stroke-linejoin:round; stroke-width:2; stroke-opacity:0.1; fill:none" points="185.28,1800.78 185.28,47.2441 "/>
<polyline clip-path="url(#clip432)" style="stroke:#000000; stroke-linecap:round; stroke-linejoin:round; stroke-width:2; stroke-opacity:0.1; fill:none" points="551.47,1800.78 551.47,47.2441 "/>
<polyline clip-path="url(#clip432)" style="stroke:#000000; stroke-linecap:round; stroke-linejoin:round; stroke-width:2; stroke-opacity:0.1; fill:none" points="917.661,1800.78 917.661,47.2441 "/>
<polyline clip-path="url(#clip432)" style="stroke:#000000; stroke-linecap:round; stroke-linejoin:round; stroke-width:2; stroke-opacity:0.1; fill:none" points="1283.85,1800.78 1283.85,47.2441 "/>
<polyline clip-path="url(#clip432)" style="stroke:#000000; stroke-linecap:round; stroke-linejoin:round; stroke-width:2; stroke-opacity:0.1; fill:none" points="1650.04,1800.78 1650.04,47.2441 "/>
<polyline clip-path="url(#clip432)" style="stroke:#000000; stroke-linecap:round; stroke-linejoin:round; stroke-width:2; stroke-opacity:0.1; fill:none" points="2016.23,1800.78 2016.23,47.2441 "/>
<polyline clip-path="url(#clip432)" style="stroke:#000000; stroke-linecap:round; stroke-linejoin:round; stroke-width:2; stroke-opacity:0.1; fill:none" points="2382.42,1800.78 2382.42,47.2441 "/>
<polyline clip-path="url(#clip430)" style="stroke:#000000; stroke-linecap:round; stroke-linejoin:round; stroke-width:4; stroke-opacity:1; fill:none" points="113.761,1800.78 2640.76,1800.78 "/>
<polyline clip-path="url(#clip430)" style="stroke:#000000; stroke-linecap:round; stroke-linejoin:round; stroke-width:4; stroke-opacity:1; fill:none" points="185.28,1800.78 185.28,1781.88 "/>
<polyline clip-path="url(#clip430)" style="stroke:#000000; stroke-linecap:round; stroke-linejoin:round; stroke-width:4; stroke-opacity:1; fill:none" points="551.47,1800.78 551.47,1781.88 "/>
<polyline clip-path="url(#clip430)" style="stroke:#000000; stroke-linecap:round; stroke-linejoin:round; stroke-width:4; stroke-opacity:1; fill:none" points="917.661,1800.78 917.661,1781.88 "/>
<polyline clip-path="url(#clip430)" style="stroke:#000000; stroke-linecap:round; stroke-linejoin:round; stroke-width:4; stroke-opacity:1; fill:none" points="1283.85,1800.78 1283.85,1781.88 "/>
<polyline clip-path="url(#clip430)" style="stroke:#000000; stroke-linecap:round; stroke-linejoin:round; stroke-width:4; stroke-opacity:1; fill:none" points="1650.04,1800.78 1650.04,1781.88 "/>
<polyline clip-path="url(#clip430)" style="stroke:#000000; stroke-linecap:round; stroke-linejoin:round; stroke-width:4; stroke-opacity:1; fill:none" points="2016.23,1800.78 2016.23,1781.88 "/>
<polyline clip-path="url(#clip430)" style="stroke:#000000; stroke-linecap:round; stroke-linejoin:round; stroke-width:4; stroke-opacity:1; fill:none" points="2382.42,1800.78 2382.42,1781.88 "/>
<path clip-path="url(#clip430)" d="M185.28 1834 Q181.669 1834 179.84 1837.57 Q178.034 1841.11 178.034 1848.24 Q178.034 1855.34 179.84 1858.91 Q181.669 1862.45 185.28 1862.45 Q188.914 1862.45 190.719 1858.91 Q192.548 1855.34 192.548 1848.24 Q192.548 1841.11 190.719 1837.57 Q188.914 1834 185.28 1834 M185.28 1830.3 Q191.09 1830.3 194.145 1834.9 Q197.224 1839.49 197.224 1848.24 Q197.224 1856.96 194.145 1861.57 Q191.09 1866.15 185.28 1866.15 Q179.469 1866.15 176.391 1861.57 Q173.335 1856.96 173.335 1848.24 Q173.335 1839.49 176.391 1834.9 Q179.469 1830.3 185.28 1830.3 Z" fill="#000000" fill-rule="evenodd" fill-opacity="1" /><path clip-path="url(#clip430)" d="M526.158 1861.55 L533.797 1861.55 L533.797 1835.18 L525.487 1836.85 L525.487 1832.59 L533.751 1830.92 L538.427 1830.92 L538.427 1861.55 L546.065 1861.55 L546.065 1865.48 L526.158 1865.48 L526.158 1861.55 Z" fill="#000000" fill-rule="evenodd" fill-opacity="1" /><path clip-path="url(#clip430)" d="M565.51 1834 Q561.899 1834 560.07 1837.57 Q558.264 1841.11 558.264 1848.24 Q558.264 1855.34 560.07 1858.91 Q561.899 1862.45 565.51 1862.45 Q569.144 1862.45 570.95 1858.91 Q572.778 1855.34 572.778 1848.24 Q572.778 1841.11 570.95 1837.57 Q569.144 1834 565.51 1834 M565.51 1830.3 Q571.32 1830.3 574.375 1834.9 Q577.454 1839.49 577.454 1848.24 Q577.454 1856.96 574.375 1861.57 Q571.32 1866.15 565.51 1866.15 Q559.7 1866.15 556.621 1861.57 Q553.565 1856.96 553.565 1848.24 Q553.565 1839.49 556.621 1834.9 Q559.7 1830.3 565.51 1830.3 Z" fill="#000000" fill-rule="evenodd" fill-opacity="1" /><path clip-path="url(#clip430)" d="M896.435 1861.55 L912.754 1861.55 L912.754 1865.48 L890.81 1865.48 L890.81 1861.55 Q893.472 1858.79 898.055 1854.16 Q902.661 1849.51 903.842 1848.17 Q906.087 1845.65 906.967 1843.91 Q907.87 1842.15 907.87 1840.46 Q907.87 1837.71 905.925 1835.97 Q904.004 1834.23 900.902 1834.23 Q898.703 1834.23 896.249 1835 Q893.819 1835.76 891.041 1837.31 L891.041 1832.59 Q893.865 1831.46 896.319 1830.88 Q898.772 1830.3 900.81 1830.3 Q906.18 1830.3 909.374 1832.98 Q912.569 1835.67 912.569 1840.16 Q912.569 1842.29 911.759 1844.21 Q910.971 1846.11 908.865 1848.7 Q908.286 1849.37 905.184 1852.59 Q902.083 1855.78 896.435 1861.55 Z" fill="#000000" fill-rule="evenodd" fill-opacity="1" /><path clip-path="url(#clip430)" d="M932.569 1834 Q928.958 1834 927.129 1837.57 Q925.323 1841.11 925.323 1848.24 Q925.323 1855.34 927.129 1858.91 Q928.958 1862.45 932.569 1862.45 Q936.203 1862.45 938.008 1858.91 Q939.837 1855.34 939.837 1848.24 Q939.837 1841.11 938.008 1837.57 Q936.203 1834 932.569 1834 M932.569 1830.3 Q938.379 1830.3 941.434 1834.9 Q944.513 1839.49 944.513 1848.24 Q944.513 1856.96 941.434 1861.57 Q938.379 1866.15 932.569 1866.15 Q926.758 1866.15 923.68 1861.57 Q920.624 1856.96 920.624 1848.24 Q920.624 1839.49 923.68 1834.9 Q926.758 1830.3 932.569 1830.3 Z" fill="#000000" fill-rule="evenodd" fill-opacity="1" /><path clip-path="url(#clip430)" d="M1272.69 1846.85 Q1276.05 1847.57 1277.93 1849.84 Q1279.82 1852.1 1279.82 1855.44 Q1279.82 1860.55 1276.31 1863.35 Q1272.79 1866.15 1266.31 1866.15 Q1264.13 1866.15 1261.82 1865.71 Q1259.52 1865.3 1257.07 1864.44 L1257.07 1859.93 Q1259.01 1861.06 1261.33 1861.64 Q1263.64 1862.22 1266.17 1862.22 Q1270.57 1862.22 1272.86 1860.48 Q1275.17 1858.75 1275.17 1855.44 Q1275.17 1852.38 1273.02 1850.67 Q1270.89 1848.93 1267.07 1848.93 L1263.04 1848.93 L1263.04 1845.09 L1267.25 1845.09 Q1270.7 1845.09 1272.53 1843.72 Q1274.36 1842.34 1274.36 1839.74 Q1274.36 1837.08 1272.46 1835.67 Q1270.59 1834.23 1267.07 1834.23 Q1265.15 1834.23 1262.95 1834.65 Q1260.75 1835.07 1258.11 1835.95 L1258.11 1831.78 Q1260.77 1831.04 1263.09 1830.67 Q1265.43 1830.3 1267.49 1830.3 Q1272.81 1830.3 1275.91 1832.73 Q1279.01 1835.14 1279.01 1839.26 Q1279.01 1842.13 1277.37 1844.12 Q1275.73 1846.09 1272.69 1846.85 Z" fill="#000000" fill-rule="evenodd" fill-opacity="1" /><path clip-path="url(#clip430)" d="M1298.69 1834 Q1295.08 1834 1293.25 1837.57 Q1291.44 1841.11 1291.44 1848.24 Q1291.44 1855.34 1293.25 1858.91 Q1295.08 1862.45 1298.69 1862.45 Q1302.32 1862.45 1304.13 1858.91 Q1305.96 1855.34 1305.96 1848.24 Q1305.96 1841.11 1304.13 1837.57 Q1302.32 1834 1298.69 1834 M1298.69 1830.3 Q1304.5 1830.3 1307.56 1834.9 Q1310.63 1839.49 1310.63 1848.24 Q1310.63 1856.96 1307.56 1861.57 Q1304.5 1866.15 1298.69 1866.15 Q1292.88 1866.15 1289.8 1861.57 Q1286.75 1856.96 1286.75 1848.24 Q1286.75 1839.49 1289.8 1834.9 Q1292.88 1830.3 1298.69 1830.3 Z" fill="#000000" fill-rule="evenodd" fill-opacity="1" /><path clip-path="url(#clip430)" d="M1638.21 1835 L1626.41 1853.45 L1638.21 1853.45 L1638.21 1835 M1636.99 1830.92 L1642.87 1830.92 L1642.87 1853.45 L1647.8 1853.45 L1647.8 1857.34 L1642.87 1857.34 L1642.87 1865.48 L1638.21 1865.48 L1638.21 1857.34 L1622.61 1857.34 L1622.61 1852.82 L1636.99 1830.92 Z" fill="#000000" fill-rule="evenodd" fill-opacity="1" /><path clip-path="url(#clip430)" d="M1665.53 1834 Q1661.92 1834 1660.09 1837.57 Q1658.28 1841.11 1658.28 1848.24 Q1658.28 1855.34 1660.09 1858.91 Q1661.92 1862.45 1665.53 1862.45 Q1669.16 1862.45 1670.97 1858.91 Q1672.8 1855.34 1672.8 1848.24 Q1672.8 1841.11 1670.97 1837.57 Q1669.16 1834 1665.53 1834 M1665.53 1830.3 Q1671.34 1830.3 1674.39 1834.9 Q1677.47 1839.49 1677.47 1848.24 Q1677.47 1856.96 1674.39 1861.57 Q1671.34 1866.15 1665.53 1866.15 Q1659.72 1866.15 1656.64 1861.57 Q1653.58 1856.96 1653.58 1848.24 Q1653.58 1839.49 1656.64 1834.9 Q1659.72 1830.3 1665.53 1830.3 Z" fill="#000000" fill-rule="evenodd" fill-opacity="1" /><path clip-path="url(#clip430)" d="M1990.93 1830.92 L2009.29 1830.92 L2009.29 1834.86 L1995.22 1834.86 L1995.22 1843.33 Q1996.23 1842.98 1997.25 1842.82 Q1998.27 1842.64 1999.29 1842.64 Q2005.08 1842.64 2008.46 1845.81 Q2011.84 1848.98 2011.84 1854.4 Q2011.84 1859.97 2008.36 1863.08 Q2004.89 1866.15 1998.57 1866.15 Q1996.4 1866.15 1994.13 1865.78 Q1991.88 1865.41 1989.47 1864.67 L1989.47 1859.97 Q1991.56 1861.11 1993.78 1861.66 Q1996 1862.22 1998.48 1862.22 Q2002.48 1862.22 2004.82 1860.11 Q2007.16 1858.01 2007.16 1854.4 Q2007.16 1850.78 2004.82 1848.68 Q2002.48 1846.57 1998.48 1846.57 Q1996.6 1846.57 1994.73 1846.99 Q1992.88 1847.4 1990.93 1848.28 L1990.93 1830.92 Z" fill="#000000" fill-rule="evenodd" fill-opacity="1" /><path clip-path="url(#clip430)" d="M2031.05 1834 Q2027.44 1834 2025.61 1837.57 Q2023.8 1841.11 2023.8 1848.24 Q2023.8 1855.34 2025.61 1858.91 Q2027.44 1862.45 2031.05 1862.45 Q2034.68 1862.45 2036.49 1858.91 Q2038.32 1855.34 2038.32 1848.24 Q2038.32 1841.11 2036.49 1837.57 Q2034.68 1834 2031.05 1834 M2031.05 1830.3 Q2036.86 1830.3 2039.91 1834.9 Q2042.99 1839.49 2042.99 1848.24 Q2042.99 1856.96 2039.91 1861.57 Q2036.86 1866.15 2031.05 1866.15 Q2025.24 1866.15 2022.16 1861.57 Q2019.1 1856.96 2019.1 1848.24 Q2019.1 1839.49 2022.16 1834.9 Q2025.24 1830.3 2031.05 1830.3 Z" fill="#000000" fill-rule="evenodd" fill-opacity="1" /><path clip-path="url(#clip430)" d="M2367.83 1846.34 Q2364.68 1846.34 2362.83 1848.49 Q2361 1850.65 2361 1854.4 Q2361 1858.12 2362.83 1860.3 Q2364.68 1862.45 2367.83 1862.45 Q2370.98 1862.45 2372.81 1860.3 Q2374.66 1858.12 2374.66 1854.4 Q2374.66 1850.65 2372.81 1848.49 Q2370.98 1846.34 2367.83 1846.34 M2377.11 1831.69 L2377.11 1835.95 Q2375.35 1835.11 2373.55 1834.67 Q2371.76 1834.23 2370.01 1834.23 Q2365.38 1834.23 2362.92 1837.36 Q2360.49 1840.48 2360.14 1846.8 Q2361.51 1844.79 2363.57 1843.72 Q2365.63 1842.64 2368.11 1842.64 Q2373.32 1842.64 2376.33 1845.81 Q2379.36 1848.96 2379.36 1854.4 Q2379.36 1859.72 2376.21 1862.94 Q2373.06 1866.15 2367.83 1866.15 Q2361.83 1866.15 2358.66 1861.57 Q2355.49 1856.96 2355.49 1848.24 Q2355.49 1840.04 2359.38 1835.18 Q2363.27 1830.3 2369.82 1830.3 Q2371.58 1830.3 2373.36 1830.65 Q2375.17 1830.99 2377.11 1831.69 Z" fill="#000000" fill-rule="evenodd" fill-opacity="1" /><path clip-path="url(#clip430)" d="M2397.41 1834 Q2393.8 1834 2391.97 1837.57 Q2390.17 1841.11 2390.17 1848.24 Q2390.17 1855.34 2391.97 1858.91 Q2393.8 1862.45 2397.41 1862.45 Q2401.05 1862.45 2402.85 1858.91 Q2404.68 1855.34 2404.68 1848.24 Q2404.68 1841.11 2402.85 1837.57 Q2401.05 1834 2397.41 1834 M2397.41 1830.3 Q2403.22 1830.3 2406.28 1834.9 Q2409.36 1839.49 2409.36 1848.24 Q2409.36 1856.96 2406.28 1861.57 Q2403.22 1866.15 2397.41 1866.15 Q2391.6 1866.15 2388.52 1861.57 Q2385.47 1856.96 2385.47 1848.24 Q2385.47 1839.49 2388.52 1834.9 Q2391.6 1830.3 2397.41 1830.3 Z" fill="#000000" fill-rule="evenodd" fill-opacity="1" /><polyline clip-path="url(#clip432)" style="stroke:#000000; stroke-linecap:round; stroke-linejoin:round; stroke-width:2; stroke-opacity:0.1; fill:none" points="113.761,1751.15 2640.76,1751.15 "/>
<polyline clip-path="url(#clip432)" style="stroke:#000000; stroke-linecap:round; stroke-linejoin:round; stroke-width:2; stroke-opacity:0.1; fill:none" points="113.761,1199.72 2640.76,1199.72 "/>
<polyline clip-path="url(#clip432)" style="stroke:#000000; stroke-linecap:round; stroke-linejoin:round; stroke-width:2; stroke-opacity:0.1; fill:none" points="113.761,648.299 2640.76,648.299 "/>
<polyline clip-path="url(#clip432)" style="stroke:#000000; stroke-linecap:round; stroke-linejoin:round; stroke-width:2; stroke-opacity:0.1; fill:none" points="113.761,96.8724 2640.76,96.8724 "/>
<polyline clip-path="url(#clip430)" style="stroke:#000000; stroke-linecap:round; stroke-linejoin:round; stroke-width:4; stroke-opacity:1; fill:none" points="113.761,1800.78 113.761,47.2441 "/>
<polyline clip-path="url(#clip430)" style="stroke:#000000; stroke-linecap:round; stroke-linejoin:round; stroke-width:4; stroke-opacity:1; fill:none" points="113.761,1751.15 132.659,1751.15 "/>
<polyline clip-path="url(#clip430)" style="stroke:#000000; stroke-linecap:round; stroke-linejoin:round; stroke-width:4; stroke-opacity:1; fill:none" points="113.761,1199.72 132.659,1199.72 "/>
<polyline clip-path="url(#clip430)" style="stroke:#000000; stroke-linecap:round; stroke-linejoin:round; stroke-width:4; stroke-opacity:1; fill:none" points="113.761,648.299 132.659,648.299 "/>
<polyline clip-path="url(#clip430)" style="stroke:#000000; stroke-linecap:round; stroke-linejoin:round; stroke-width:4; stroke-opacity:1; fill:none" points="113.761,96.8724 132.659,96.8724 "/>
<path clip-path="url(#clip430)" d="M61.4965 1736.95 Q57.8854 1736.95 56.0567 1740.51 Q54.2512 1744.06 54.2512 1751.19 Q54.2512 1758.29 56.0567 1761.86 Q57.8854 1765.4 61.4965 1765.4 Q65.1307 1765.4 66.9363 1761.86 Q68.765 1758.29 68.765 1751.19 Q68.765 1744.06 66.9363 1740.51 Q65.1307 1736.95 61.4965 1736.95 M61.4965 1733.25 Q67.3067 1733.25 70.3622 1737.85 Q73.4409 1742.44 73.4409 1751.19 Q73.4409 1759.91 70.3622 1764.52 Q67.3067 1769.1 61.4965 1769.1 Q55.6864 1769.1 52.6077 1764.52 Q49.5521 1759.91 49.5521 1751.19 Q49.5521 1742.44 52.6077 1737.85 Q55.6864 1733.25 61.4965 1733.25 Z" fill="#000000" fill-rule="evenodd" fill-opacity="1" /><path clip-path="url(#clip430)" d="M53.5336 1213.07 L61.1724 1213.07 L61.1724 1186.7 L52.8623 1188.37 L52.8623 1184.11 L61.1261 1182.44 L65.802 1182.44 L65.802 1213.07 L73.4409 1213.07 L73.4409 1217 L53.5336 1217 L53.5336 1213.07 Z" fill="#000000" fill-rule="evenodd" fill-opacity="1" /><path clip-path="url(#clip430)" d="M57.1215 661.643 L73.4409 661.643 L73.4409 665.579 L51.4966 665.579 L51.4966 661.643 Q54.1586 658.889 58.7419 654.259 Q63.3483 649.606 64.5289 648.264 Q66.7743 645.741 67.6539 644.005 Q68.5567 642.245 68.5567 640.556 Q68.5567 637.801 66.6122 636.065 Q64.6909 634.329 61.5891 634.329 Q59.39 634.329 56.9363 635.093 Q54.5058 635.857 51.728 637.407 L51.728 632.685 Q54.5521 631.551 57.0058 630.972 Q59.4595 630.394 61.4965 630.394 Q66.8668 630.394 70.0613 633.079 Q73.2557 635.764 73.2557 640.255 Q73.2557 642.384 72.4455 644.306 Q71.6585 646.204 69.552 648.796 Q68.9733 649.468 65.8715 652.685 Q62.7696 655.88 57.1215 661.643 Z" fill="#000000" fill-rule="evenodd" fill-opacity="1" /><path clip-path="url(#clip430)" d="M66.3113 95.5183 Q69.6678 96.2359 71.5427 98.5044 Q73.4409 100.773 73.4409 104.106 Q73.4409 109.222 69.9224 112.023 Q66.4039 114.824 59.9224 114.824 Q57.7465 114.824 55.4317 114.384 Q53.1401 113.967 50.6864 113.111 L50.6864 108.597 Q52.6308 109.731 54.9456 110.31 Q57.2604 110.889 59.7836 110.889 Q64.1817 110.889 66.4733 109.152 Q68.7881 107.416 68.7881 104.106 Q68.7881 101.051 66.6354 99.3377 Q64.5057 97.6016 60.6863 97.6016 L56.6586 97.6016 L56.6586 93.759 L60.8715 93.759 Q64.3206 93.759 66.1493 92.3933 Q67.978 91.0044 67.978 88.4118 Q67.978 85.7498 66.0798 84.3378 Q64.2048 82.9026 60.6863 82.9026 Q58.765 82.9026 56.566 83.3193 Q54.3669 83.7359 51.728 84.6156 L51.728 80.4489 Q54.3901 79.7082 56.7049 79.3378 Q59.0428 78.9675 61.103 78.9675 Q66.427 78.9675 69.5289 81.398 Q72.6307 83.8054 72.6307 87.9257 Q72.6307 90.7961 70.9872 92.7868 Q69.3437 94.7544 66.3113 95.5183 Z" fill="#000000" fill-rule="evenodd" fill-opacity="1" /><polyline clip-path="url(#clip432)" style="stroke:#009af9; stroke-linecap:round; stroke-linejoin:round; stroke-width:4; stroke-opacity:1; fill:none" points="185.28,648.299 237.565,1199.72 249.859,1199.72 695.018,1751.15 885.833,1751.15 2569.24,1751.15 "/>
<polyline clip-path="url(#clip432)" style="stroke:#e26f46; stroke-linecap:round; stroke-linejoin:round; stroke-width:4; stroke-opacity:1; fill:none" points="185.28,1199.72 237.565,648.299 249.859,1199.72 695.018,648.299 885.833,1199.72 2569.24,1751.15 "/>
<polyline clip-path="url(#clip432)" style="stroke:#3da44d; stroke-linecap:round; stroke-linejoin:round; stroke-width:4; stroke-opacity:1; fill:none" points="185.28,1751.15 237.565,1751.15 249.859,1199.72 695.018,1199.72 885.833,648.299 2569.24,96.8724 "/>
<path clip-path="url(#clip430)" d="M197.994 313.055 L503.703 313.055 L503.703 105.695 L197.994 105.695  Z" fill="#ffffff" fill-rule="evenodd" fill-opacity="1"/>
<polyline clip-path="url(#clip430)" style="stroke:#000000; stroke-linecap:round; stroke-linejoin:round; stroke-width:4; stroke-opacity:1; fill:none" points="197.994,313.055 503.703,313.055 503.703,105.695 197.994,105.695 197.994,313.055 "/>
<polyline clip-path="url(#clip430)" style="stroke:#009af9; stroke-linecap:round; stroke-linejoin:round; stroke-width:4; stroke-opacity:1; fill:none" points="226.072,157.535 394.538,157.535 "/>
<path clip-path="url(#clip430)" d="M436.458 177.223 Q434.653 181.852 432.94 183.264 Q431.227 184.676 428.357 184.676 L424.954 184.676 L424.954 181.112 L427.454 181.112 Q429.213 181.112 430.185 180.278 Q431.157 179.445 432.338 176.343 L433.102 174.399 L422.616 148.889 L427.13 148.889 L435.232 169.167 L443.333 148.889 L447.847 148.889 L436.458 177.223 Z" fill="#000000" fill-rule="evenodd" fill-opacity="1" /><path clip-path="url(#clip430)" d="M455.139 170.88 L462.778 170.88 L462.778 144.515 L454.468 146.181 L454.468 141.922 L462.731 140.255 L467.407 140.255 L467.407 170.88 L475.046 170.88 L475.046 174.815 L455.139 174.815 L455.139 170.88 Z" fill="#000000" fill-rule="evenodd" fill-opacity="1" /><polyline clip-path="url(#clip430)" style="stroke:#e26f46; stroke-linecap:round; stroke-linejoin:round; stroke-width:4; stroke-opacity:1; fill:none" points="226.072,209.375 394.538,209.375 "/>
<path clip-path="url(#clip430)" d="M436.458 229.063 Q434.653 233.692 432.94 235.104 Q431.227 236.516 428.357 236.516 L424.954 236.516 L424.954 232.952 L427.454 232.952 Q429.213 232.952 430.185 232.118 Q431.157 231.285 432.338 228.183 L433.102 226.239 L422.616 200.729 L427.13 200.729 L435.232 221.007 L443.333 200.729 L447.847 200.729 L436.458 229.063 Z" fill="#000000" fill-rule="evenodd" fill-opacity="1" /><path clip-path="url(#clip430)" d="M458.356 222.72 L474.676 222.72 L474.676 226.655 L452.731 226.655 L452.731 222.72 Q455.393 219.965 459.977 215.336 Q464.583 210.683 465.764 209.341 Q468.009 206.817 468.889 205.081 Q469.792 203.322 469.792 201.632 Q469.792 198.878 467.847 197.142 Q465.926 195.405 462.824 195.405 Q460.625 195.405 458.171 196.169 Q455.741 196.933 452.963 198.484 L452.963 193.762 Q455.787 192.628 458.241 192.049 Q460.694 191.47 462.731 191.47 Q468.102 191.47 471.296 194.155 Q474.491 196.841 474.491 201.331 Q474.491 203.461 473.68 205.382 Q472.893 207.28 470.787 209.873 Q470.208 210.544 467.106 213.762 Q464.005 216.956 458.356 222.72 Z" fill="#000000" fill-rule="evenodd" fill-opacity="1" /><polyline clip-path="url(#clip430)" style="stroke:#3da44d; stroke-linecap:round; stroke-linejoin:round; stroke-width:4; stroke-opacity:1; fill:none" points="226.072,261.215 394.538,261.215 "/>
<path clip-path="url(#clip430)" d="M436.458 280.903 Q434.653 285.532 432.94 286.944 Q431.227 288.356 428.357 288.356 L424.954 288.356 L424.954 284.792 L427.454 284.792 Q429.213 284.792 430.185 283.958 Q431.157 283.125 432.338 280.023 L433.102 278.079 L422.616 252.569 L427.13 252.569 L435.232 272.847 L443.333 252.569 L447.847 252.569 L436.458 280.903 Z" fill="#000000" fill-rule="evenodd" fill-opacity="1" /><path clip-path="url(#clip430)" d="M468.495 259.861 Q471.852 260.579 473.727 262.847 Q475.625 265.116 475.625 268.449 Q475.625 273.565 472.106 276.366 Q468.588 279.167 462.106 279.167 Q459.93 279.167 457.616 278.727 Q455.324 278.31 452.87 277.454 L452.87 272.94 Q454.815 274.074 457.13 274.653 Q459.444 275.231 461.967 275.231 Q466.366 275.231 468.657 273.495 Q470.972 271.759 470.972 268.449 Q470.972 265.393 468.819 263.681 Q466.69 261.944 462.87 261.944 L458.842 261.944 L458.842 258.102 L463.055 258.102 Q466.504 258.102 468.333 256.736 Q470.162 255.347 470.162 252.755 Q470.162 250.093 468.264 248.681 Q466.389 247.245 462.87 247.245 Q460.949 247.245 458.75 247.662 Q456.551 248.079 453.912 248.958 L453.912 244.792 Q456.574 244.051 458.889 243.681 Q461.227 243.31 463.287 243.31 Q468.611 243.31 471.713 245.741 Q474.815 248.148 474.815 252.269 Q474.815 255.139 473.171 257.13 Q471.528 259.097 468.495 259.861 Z" fill="#000000" fill-rule="evenodd" fill-opacity="1" /></svg>
