<?xml version="1.0" encoding="utf-8"?>
<svg xmlns="http://www.w3.org/2000/svg" xmlns:xlink="http://www.w3.org/1999/xlink" width="672" height="480" viewBox="0 0 2688 1920">
<defs>
  <clipPath id="clip770">
    <rect x="0" y="0" width="2688" height="1920"/>
  </clipPath>
</defs>
<path clip-path="url(#clip770)" d="M0 1920 L2688 1920 L2688 0 L0 0  Z" fill="#ffffff" fill-rule="evenodd" fill-opacity="1"/>
<defs>
  <clipPath id="clip771">
    <rect x="537" y="0" width="1883" height="1883"/>
  </clipPath>
</defs>
<path clip-path="url(#clip770)" d="M172.001 1800.78 L2640.76 1800.78 L2640.76 47.2441 L172.001 47.2441  Z" fill="#ffffff" fill-rule="evenodd" fill-opacity="1"/>
<defs>
  <clipPath id="clip772">
    <rect x="172" y="47" width="2470" height="1755"/>
  </clipPath>
</defs>
<polyline clip-path="url(#clip772)" style="stroke:#000000; stroke-linecap:round; stroke-linejoin:round; stroke-width:2; stroke-opacity:0.1; fill:none" points="241.872,1800.78 241.872,47.2441 "/>
<polyline clip-path="url(#clip772)" style="stroke:#000000; stroke-linecap:round; stroke-linejoin:round; stroke-width:2; stroke-opacity:0.1; fill:none" points="602.837,1800.78 602.837,47.2441 "/>
<polyline clip-path="url(#clip772)" style="stroke:#000000; stroke-linecap:round; stroke-linejoin:round; stroke-width:2; stroke-opacity:0.1; fill:none" points="963.803,1800.78 963.803,47.2441 "/>
<polyline clip-path="url(#clip772)" style="stroke:#000000; stroke-linecap:round; stroke-linejoin:round; stroke-width:2; stroke-opacity:0.1; fill:none" points="1324.77,1800.78 1324.77,47.2441 "/>
<polyline clip-path="url(#clip772)" style="stroke:#000000; stroke-linecap:round; stroke-linejoin:round; stroke-width:2; stroke-opacity:0.1; fill:none" points="1685.73,1800.78 1685.73,47.2441 "/>
<polyline clip-path="url(#clip772)" style="stroke:#000000; stroke-linecap:round; stroke-linejoin:round; stroke-width:2; stroke-opacity:0.1; fill:none" points="2046.7,1800.78 2046.7,47.2441 "/>
<polyline clip-path="url(#clip772)" style="stroke:#000000; stroke-linecap:round; stroke-linejoin:round; stroke-width:2; stroke-opacity:0.1; fill:none" points="2407.66,1800.78 2407.66,47.2441 "/>
<polyline clip-path="url(#clip770)" style="stroke:#000000; stroke-linecap:round; stroke-linejoin:round; stroke-width:4; stroke-opacity:1; fill:none" points="172.001,1800.78 2640.76,1800.78 "/>
<polyline clip-path="url(#clip770)" style="stroke:#000000; stroke-linecap:round; stroke-linejoin:round; stroke-width:4; stroke-opacity:1; fill:none" points="241.872,1800.78 241.872,1781.88 "/>
<polyline clip-path="url(#clip770)" style="stroke:#000000; stroke-linecap:round; stroke-linejoin:round; stroke-width:4; stroke-opacity:1; fill:none" points="602.837,1800.78 602.837,1781.88 "/>
<polyline clip-path="url(#clip770)" style="stroke:#000000; stroke-linecap:round; stroke-linejoin:round; stroke-width:4; stroke-opacity:1; fill:none" points="963.803,1800.78 963.803,1781.88 "/>
<polyline clip-path="url(#clip770)" style="stroke:#000000; stroke-linecap:round; stroke-linejoin:round; stroke-width:4; stroke-opacity:1; fill:none" points="1324.77,1800.78 1324.77,1781.88 "/>
<polyline clip-path="url(#clip770)" style="stroke:#000000; stroke-linecap:round; stroke-linejoin:round; stroke-width:4; stroke-opacity:1; fill:none" points="1685.73,1800.78 1685.73,1781.88 "/>
<polyline clip-path="url(#clip770)" style="stroke:#000000; stroke-linecap:round; stroke-linejoin:round; stroke-width:4; stroke-opacity:1; fill:none" points="2046.7,1800.78 2046.7,1781.88 "/>
<polyline clip-path="url(#clip770)" style="stroke:#000000; stroke-linecap:round; stroke-linejoin:round; stroke-width:4; stroke-opacity:1; fill:none" points="2407.66,1800.78 2407.66,1781.88 "/>
<path clip-path="url(#clip770)" d="M241.872 1834 Q238.261 1834 236.432 1837.57 Q234.626 1841.11 234.626 1848.24 Q234.626 1855.34 236.432 1858.91 Q238.261 1862.45 241.872 1862.45 Q245.506 1862.45 247.312 1858.91 Q249.14 1855.34 249.14 1848.24 Q249.14 1841.11 247.312 1837.57 Q245.506 1834 241.872 1834 M241.872 1830.3 Q247.682 1830.3 250.737 1834.9 Q253.816 1839.49 253.816 1848.24 Q253.816 1856.96 250.737 1861.57 Q247.682 1866.15 241.872 1866.15 Q236.062 1866.15 232.983 1861.57 Q229.927 1856.96 229.927 1848.24 Q229.927 1839.49 232.983 1834.9 Q236.062 1830.3 241.872 1830.3 Z" fill="#000000" fill-rule="evenodd" fill-opacity="1" /><path clip-path="url(#clip770)" d="M577.525 1861.55 L585.164 1861.55 L585.164 1835.18 L576.854 1836.85 L576.854 1832.59 L585.117 1830.92 L589.793 1830.92 L589.793 1861.55 L597.432 1861.55 L597.432 1865.48 L577.525 1865.48 L577.525 1861.55 Z" fill="#000000" fill-rule="evenodd" fill-opacity="1" /><path clip-path="url(#clip770)" d="M616.876 1834 Q613.265 1834 611.437 1837.57 Q609.631 1841.11 609.631 1848.24 Q609.631 1855.34 611.437 1858.91 Q613.265 1862.45 616.876 1862.45 Q620.511 1862.45 622.316 1858.91 Q624.145 1855.34 624.145 1848.24 Q624.145 1841.11 622.316 1837.57 Q620.511 1834 616.876 1834 M616.876 1830.3 Q622.687 1830.3 625.742 1834.9 Q628.821 1839.49 628.821 1848.24 Q628.821 1856.96 625.742 1861.57 Q622.687 1866.15 616.876 1866.15 Q611.066 1866.15 607.988 1861.57 Q604.932 1856.96 604.932 1848.24 Q604.932 1839.49 607.988 1834.9 Q611.066 1830.3 616.876 1830.3 Z" fill="#000000" fill-rule="evenodd" fill-opacity="1" /><path clip-path="url(#clip770)" d="M942.576 1861.55 L958.895 1861.55 L958.895 1865.48 L936.951 1865.48 L936.951 1861.55 Q939.613 1858.79 944.196 1854.16 Q948.803 1849.51 949.983 1848.17 Q952.229 1845.65 953.108 1843.91 Q954.011 1842.15 954.011 1840.46 Q954.011 1837.71 952.067 1835.97 Q950.145 1834.23 947.043 1834.23 Q944.844 1834.23 942.391 1835 Q939.96 1835.76 937.182 1837.31 L937.182 1832.59 Q940.006 1831.46 942.46 1830.88 Q944.914 1830.3 946.951 1830.3 Q952.321 1830.3 955.516 1832.98 Q958.71 1835.67 958.71 1840.16 Q958.71 1842.29 957.9 1844.21 Q957.113 1846.11 955.006 1848.7 Q954.428 1849.37 951.326 1852.59 Q948.224 1855.78 942.576 1861.55 Z" fill="#000000" fill-rule="evenodd" fill-opacity="1" /><path clip-path="url(#clip770)" d="M978.71 1834 Q975.099 1834 973.27 1837.57 Q971.465 1841.11 971.465 1848.24 Q971.465 1855.34 973.27 1858.91 Q975.099 1862.45 978.71 1862.45 Q982.344 1862.45 984.15 1858.91 Q985.978 1855.34 985.978 1848.24 Q985.978 1841.11 984.15 1837.57 Q982.344 1834 978.71 1834 M978.71 1830.3 Q984.52 1830.3 987.576 1834.9 Q990.654 1839.49 990.654 1848.24 Q990.654 1856.96 987.576 1861.57 Q984.52 1866.15 978.71 1866.15 Q972.9 1866.15 969.821 1861.57 Q966.766 1856.96 966.766 1848.24 Q966.766 1839.49 969.821 1834.9 Q972.9 1830.3 978.71 1830.3 Z" fill="#000000" fill-rule="evenodd" fill-opacity="1" /><path clip-path="url(#clip770)" d="M1313.61 1846.85 Q1316.97 1847.57 1318.84 1849.84 Q1320.74 1852.1 1320.74 1855.44 Q1320.74 1860.55 1317.22 1863.35 Q1313.7 1866.15 1307.22 1866.15 Q1305.05 1866.15 1302.73 1865.71 Q1300.44 1865.3 1297.99 1864.44 L1297.99 1859.93 Q1299.93 1861.06 1302.25 1861.64 Q1304.56 1862.22 1307.08 1862.22 Q1311.48 1862.22 1313.77 1860.48 Q1316.09 1858.75 1316.09 1855.44 Q1316.09 1852.38 1313.93 1850.67 Q1311.81 1848.93 1307.99 1848.93 L1303.96 1848.93 L1303.96 1845.09 L1308.17 1845.09 Q1311.62 1845.09 1313.45 1843.72 Q1315.28 1842.34 1315.28 1839.74 Q1315.28 1837.08 1313.38 1835.67 Q1311.5 1834.23 1307.99 1834.23 Q1306.06 1834.23 1303.87 1834.65 Q1301.67 1835.07 1299.03 1835.95 L1299.03 1831.78 Q1301.69 1831.04 1304 1830.67 Q1306.34 1830.3 1308.4 1830.3 Q1313.73 1830.3 1316.83 1832.73 Q1319.93 1835.14 1319.93 1839.26 Q1319.93 1842.13 1318.29 1844.12 Q1316.64 1846.09 1313.61 1846.85 Z" fill="#000000" fill-rule="evenodd" fill-opacity="1" /><path clip-path="url(#clip770)" d="M1339.61 1834 Q1335.99 1834 1334.17 1837.57 Q1332.36 1841.11 1332.36 1848.24 Q1332.36 1855.34 1334.17 1858.91 Q1335.99 1862.45 1339.61 1862.45 Q1343.24 1862.45 1345.05 1858.91 Q1346.87 1855.34 1346.87 1848.24 Q1346.87 1841.11 1345.05 1837.57 Q1343.24 1834 1339.61 1834 M1339.61 1830.3 Q1345.42 1830.3 1348.47 1834.9 Q1351.55 1839.49 1351.55 1848.24 Q1351.55 1856.96 1348.47 1861.57 Q1345.42 1866.15 1339.61 1866.15 Q1333.8 1866.15 1330.72 1861.57 Q1327.66 1856.96 1327.66 1848.24 Q1327.66 1839.49 1330.72 1834.9 Q1333.8 1830.3 1339.61 1830.3 Z" fill="#000000" fill-rule="evenodd" fill-opacity="1" /><path clip-path="url(#clip770)" d="M1673.9 1835 L1662.1 1853.45 L1673.9 1853.45 L1673.9 1835 M1672.68 1830.92 L1678.56 1830.92 L1678.56 1853.45 L1683.49 1853.45 L1683.49 1857.34 L1678.56 1857.34 L1678.56 1865.48 L1673.9 1865.48 L1673.9 1857.34 L1658.3 1857.34 L1658.3 1852.82 L1672.68 1830.92 Z" fill="#000000" fill-rule="evenodd" fill-opacity="1" /><path clip-path="url(#clip770)" d="M1701.22 1834 Q1697.61 1834 1695.78 1837.57 Q1693.97 1841.11 1693.97 1848.24 Q1693.97 1855.34 1695.78 1858.91 Q1697.61 1862.45 1701.22 1862.45 Q1704.85 1862.45 1706.66 1858.91 Q1708.49 1855.34 1708.49 1848.24 Q1708.49 1841.11 1706.66 1837.57 Q1704.85 1834 1701.22 1834 M1701.22 1830.3 Q1707.03 1830.3 1710.09 1834.9 Q1713.16 1839.49 1713.16 1848.24 Q1713.16 1856.96 1710.09 1861.57 Q1707.03 1866.15 1701.22 1866.15 Q1695.41 1866.15 1692.33 1861.57 Q1689.28 1856.96 1689.28 1848.24 Q1689.28 1839.49 1692.33 1834.9 Q1695.41 1830.3 1701.22 1830.3 Z" fill="#000000" fill-rule="evenodd" fill-opacity="1" /><path clip-path="url(#clip770)" d="M2021.4 1830.92 L2039.75 1830.92 L2039.75 1834.86 L2025.68 1834.86 L2025.68 1843.33 Q2026.7 1842.98 2027.72 1842.82 Q2028.74 1842.64 2029.75 1842.64 Q2035.54 1842.64 2038.92 1845.81 Q2042.3 1848.98 2042.3 1854.4 Q2042.3 1859.97 2038.83 1863.08 Q2035.36 1866.15 2029.04 1866.15 Q2026.86 1866.15 2024.59 1865.78 Q2022.35 1865.41 2019.94 1864.67 L2019.94 1859.97 Q2022.02 1861.11 2024.25 1861.66 Q2026.47 1862.22 2028.94 1862.22 Q2032.95 1862.22 2035.29 1860.11 Q2037.62 1858.01 2037.62 1854.4 Q2037.62 1850.78 2035.29 1848.68 Q2032.95 1846.57 2028.94 1846.57 Q2027.07 1846.57 2025.19 1846.99 Q2023.34 1847.4 2021.4 1848.28 L2021.4 1830.92 Z" fill="#000000" fill-rule="evenodd" fill-opacity="1" /><path clip-path="url(#clip770)" d="M2061.51 1834 Q2057.9 1834 2056.07 1837.57 Q2054.27 1841.11 2054.27 1848.24 Q2054.27 1855.34 2056.07 1858.91 Q2057.9 1862.45 2061.51 1862.45 Q2065.15 1862.45 2066.95 1858.91 Q2068.78 1855.34 2068.78 1848.24 Q2068.78 1841.11 2066.95 1837.57 Q2065.15 1834 2061.51 1834 M2061.51 1830.3 Q2067.32 1830.3 2070.38 1834.9 Q2073.46 1839.49 2073.46 1848.24 Q2073.46 1856.96 2070.38 1861.57 Q2067.32 1866.15 2061.51 1866.15 Q2055.7 1866.15 2052.62 1861.57 Q2049.57 1856.96 2049.57 1848.24 Q2049.57 1839.49 2052.62 1834.9 Q2055.7 1830.3 2061.51 1830.3 Z" fill="#000000" fill-rule="evenodd" fill-opacity="1" /><path clip-path="url(#clip770)" d="M2393.07 1846.34 Q2389.92 1846.34 2388.07 1848.49 Q2386.24 1850.65 2386.24 1854.4 Q2386.24 1858.12 2388.07 1860.3 Q2389.92 1862.45 2393.07 1862.45 Q2396.22 1862.45 2398.05 1860.3 Q2399.9 1858.12 2399.9 1854.4 Q2399.9 1850.65 2398.05 1848.49 Q2396.22 1846.34 2393.07 1846.34 M2402.35 1831.69 L2402.35 1835.95 Q2400.59 1835.11 2398.79 1834.67 Q2397 1834.23 2395.25 1834.23 Q2390.62 1834.23 2388.16 1837.36 Q2385.73 1840.48 2385.38 1846.8 Q2386.75 1844.79 2388.81 1843.72 Q2390.87 1842.64 2393.35 1842.64 Q2398.56 1842.64 2401.56 1845.81 Q2404.6 1848.96 2404.6 1854.4 Q2404.6 1859.72 2401.45 1862.94 Q2398.3 1866.15 2393.07 1866.15 Q2387.07 1866.15 2383.9 1861.57 Q2380.73 1856.96 2380.73 1848.24 Q2380.73 1840.04 2384.62 1835.18 Q2388.51 1830.3 2395.06 1830.3 Q2396.82 1830.3 2398.6 1830.65 Q2400.41 1830.99 2402.35 1831.69 Z" fill="#000000" fill-rule="evenodd" fill-opacity="1" /><path clip-path="url(#clip770)" d="M2422.65 1834 Q2419.04 1834 2417.21 1837.57 Q2415.41 1841.11 2415.41 1848.24 Q2415.41 1855.34 2417.21 1858.91 Q2419.04 1862.45 2422.65 1862.45 Q2426.29 1862.45 2428.09 1858.91 Q2429.92 1855.34 2429.92 1848.24 Q2429.92 1841.11 2428.09 1837.57 Q2426.29 1834 2422.65 1834 M2422.65 1830.3 Q2428.46 1830.3 2431.52 1834.9 Q2434.6 1839.49 2434.6 1848.24 Q2434.6 1856.96 2431.52 1861.57 Q2428.46 1866.15 2422.65 1866.15 Q2416.84 1866.15 2413.76 1861.57 Q2410.71 1856.96 2410.71 1848.24 Q2410.71 1839.49 2413.76 1834.9 Q2416.84 1830.3 2422.65 1830.3 Z" fill="#000000" fill-rule="evenodd" fill-opacity="1" /><polyline clip-path="url(#clip772)" style="stroke:#000000; stroke-linecap:round; stroke-linejoin:round; stroke-width:2; stroke-opacity:0.1; fill:none" points="172.001,1751.15 2640.76,1751.15 "/>
<polyline clip-path="url(#clip772)" style="stroke:#000000; stroke-linecap:round; stroke-linejoin:round; stroke-width:2; stroke-opacity:0.1; fill:none" points="172.001,1333.4 2640.76,1333.4 "/>
<polyline clip-path="url(#clip772)" style="stroke:#000000; stroke-linecap:round; stroke-linejoin:round; stroke-width:2; stroke-opacity:0.1; fill:none" points="172.001,915.657 2640.76,915.657 "/>
<polyline clip-path="url(#clip772)" style="stroke:#000000; stroke-linecap:round; stroke-linejoin:round; stroke-width:2; stroke-opacity:0.1; fill:none" points="172.001,497.91 2640.76,497.91 "/>
<polyline clip-path="url(#clip772)" style="stroke:#000000; stroke-linecap:round; stroke-linejoin:round; stroke-width:2; stroke-opacity:0.1; fill:none" points="172.001,80.1626 2640.76,80.1626 "/>
<polyline clip-path="url(#clip770)" style="stroke:#000000; stroke-linecap:round; stroke-linejoin:round; stroke-width:4; stroke-opacity:1; fill:none" points="172.001,1800.78 172.001,47.2441 "/>
<polyline clip-path="url(#clip770)" style="stroke:#000000; stroke-linecap:round; stroke-linejoin:round; stroke-width:4; stroke-opacity:1; fill:none" points="172.001,1751.15 190.899,1751.15 "/>
<polyline clip-path="url(#clip770)" style="stroke:#000000; stroke-linecap:round; stroke-linejoin:round; stroke-width:4; stroke-opacity:1; fill:none" points="172.001,1333.4 190.899,1333.4 "/>
<polyline clip-path="url(#clip770)" style="stroke:#000000; stroke-linecap:round; stroke-linejoin:round; stroke-width:4; stroke-opacity:1; fill:none" points="172.001,915.657 190.899,915.657 "/>
<polyline clip-path="url(#clip770)" style="stroke:#000000; stroke-linecap:round; stroke-linejoin:round; stroke-width:4; stroke-opacity:1; fill:none" points="172.001,497.91 190.899,497.91 "/>
<polyline clip-path="url(#clip770)" style="stroke:#000000; stroke-linecap:round; stroke-linejoin:round; stroke-width:4; stroke-opacity:1; fill:none" points="172.001,80.1626 190.899,80.1626 "/>
<path clip-path="url(#clip770)" d="M119.737 1736.95 Q116.126 1736.95 114.297 1740.51 Q112.492 1744.06 112.492 1751.19 Q112.492 1758.29 114.297 1761.86 Q116.126 1765.4 119.737 1765.4 Q123.371 1765.4 125.177 1761.86 Q127.005 1758.29 127.005 1751.19 Q127.005 1744.06 125.177 1740.51 Q123.371 1736.95 119.737 1736.95 M119.737 1733.25 Q125.547 1733.25 128.603 1737.85 Q131.681 1742.44 131.681 1751.19 Q131.681 1759.91 128.603 1764.52 Q125.547 1769.1 119.737 1769.1 Q113.927 1769.1 110.848 1764.52 Q107.793 1759.91 107.793 1751.19 Q107.793 1742.44 110.848 1737.85 Q113.927 1733.25 119.737 1733.25 Z" fill="#000000" fill-rule="evenodd" fill-opacity="1" /><path clip-path="url(#clip770)" d="M84.5982 1346.75 L100.918 1346.75 L100.918 1350.68 L78.9733 1350.68 L78.9733 1346.75 Q81.6353 1343.99 86.2186 1339.36 Q90.8251 1334.71 92.0056 1333.37 Q94.251 1330.85 95.1306 1329.11 Q96.0334 1327.35 96.0334 1325.66 Q96.0334 1322.91 94.0889 1321.17 Q92.1676 1319.43 89.0658 1319.43 Q86.8667 1319.43 84.4131 1320.2 Q81.9825 1320.96 79.2047 1322.51 L79.2047 1317.79 Q82.0288 1316.66 84.4825 1316.08 Q86.9362 1315.5 88.9732 1315.5 Q94.3436 1315.5 97.538 1318.18 Q100.732 1320.87 100.732 1325.36 Q100.732 1327.49 99.9222 1329.41 Q99.1352 1331.31 97.0287 1333.9 Q96.45 1334.57 93.3482 1337.79 Q90.2464 1340.98 84.5982 1346.75 Z" fill="#000000" fill-rule="evenodd" fill-opacity="1" /><path clip-path="url(#clip770)" d="M110.779 1316.12 L129.135 1316.12 L129.135 1320.06 L115.061 1320.06 L115.061 1328.53 Q116.08 1328.18 117.098 1328.02 Q118.117 1327.84 119.135 1327.84 Q124.922 1327.84 128.302 1331.01 Q131.681 1334.18 131.681 1339.6 Q131.681 1345.17 128.209 1348.28 Q124.737 1351.36 118.417 1351.36 Q116.242 1351.36 113.973 1350.98 Q111.728 1350.61 109.32 1349.87 L109.32 1345.17 Q111.404 1346.31 113.626 1346.86 Q115.848 1347.42 118.325 1347.42 Q122.33 1347.42 124.667 1345.31 Q127.005 1343.21 127.005 1339.6 Q127.005 1335.98 124.667 1333.88 Q122.33 1331.77 118.325 1331.77 Q116.45 1331.77 114.575 1332.19 Q112.723 1332.61 110.779 1333.48 L110.779 1316.12 Z" fill="#000000" fill-rule="evenodd" fill-opacity="1" /><path clip-path="url(#clip770)" d="M79.6214 898.377 L97.9778 898.377 L97.9778 902.312 L83.9038 902.312 L83.9038 910.784 Q84.9223 910.437 85.9408 910.275 Q86.9593 910.09 87.9778 910.09 Q93.7649 910.09 97.1445 913.261 Q100.524 916.432 100.524 921.849 Q100.524 927.428 97.0519 930.529 Q93.5797 933.608 87.2603 933.608 Q85.0843 933.608 82.8158 933.238 Q80.5705 932.867 78.1631 932.127 L78.1631 927.428 Q80.2464 928.562 82.4686 929.117 Q84.6908 929.673 87.1677 929.673 Q91.1723 929.673 93.5102 927.566 Q95.8482 925.46 95.8482 921.849 Q95.8482 918.238 93.5102 916.131 Q91.1723 914.025 87.1677 914.025 Q85.2927 914.025 83.4177 914.441 Q81.5658 914.858 79.6214 915.738 L79.6214 898.377 Z" fill="#000000" fill-rule="evenodd" fill-opacity="1" /><path clip-path="url(#clip770)" d="M119.737 901.455 Q116.126 901.455 114.297 905.02 Q112.492 908.562 112.492 915.691 Q112.492 922.798 114.297 926.363 Q116.126 929.904 119.737 929.904 Q123.371 929.904 125.177 926.363 Q127.005 922.798 127.005 915.691 Q127.005 908.562 125.177 905.02 Q123.371 901.455 119.737 901.455 M119.737 897.752 Q125.547 897.752 128.603 902.358 Q131.681 906.942 131.681 915.691 Q131.681 924.418 128.603 929.025 Q125.547 933.608 119.737 933.608 Q113.927 933.608 110.848 929.025 Q107.793 924.418 107.793 915.691 Q107.793 906.942 110.848 902.358 Q113.927 897.752 119.737 897.752 Z" fill="#000000" fill-rule="evenodd" fill-opacity="1" /><path clip-path="url(#clip770)" d="M79.3899 480.63 L101.612 480.63 L101.612 482.62 L89.0658 515.19 L84.1816 515.19 L95.9871 484.565 L79.3899 484.565 L79.3899 480.63 Z" fill="#000000" fill-rule="evenodd" fill-opacity="1" /><path clip-path="url(#clip770)" d="M110.779 480.63 L129.135 480.63 L129.135 484.565 L115.061 484.565 L115.061 493.037 Q116.08 492.69 117.098 492.528 Q118.117 492.343 119.135 492.343 Q124.922 492.343 128.302 495.514 Q131.681 498.685 131.681 504.102 Q131.681 509.68 128.209 512.782 Q124.737 515.861 118.417 515.861 Q116.242 515.861 113.973 515.491 Q111.728 515.12 109.32 514.379 L109.32 509.68 Q111.404 510.815 113.626 511.37 Q115.848 511.926 118.325 511.926 Q122.33 511.926 124.667 509.819 Q127.005 507.713 127.005 504.102 Q127.005 500.491 124.667 498.384 Q122.33 496.278 118.325 496.278 Q116.45 496.278 114.575 496.694 Q112.723 497.111 110.779 497.991 L110.779 480.63 Z" fill="#000000" fill-rule="evenodd" fill-opacity="1" /><path clip-path="url(#clip770)" d="M50.2234 93.5074 L57.8623 93.5074 L57.8623 67.1418 L49.5521 68.8085 L49.5521 64.5492 L57.816 62.8826 L62.4919 62.8826 L62.4919 93.5074 L70.1307 93.5074 L70.1307 97.4426 L50.2234 97.4426 L50.2234 93.5074 Z" fill="#000000" fill-rule="evenodd" fill-opacity="1" /><path clip-path="url(#clip770)" d="M89.5751 65.9613 Q85.964 65.9613 84.1353 69.526 Q82.3297 73.0677 82.3297 80.1973 Q82.3297 87.3037 84.1353 90.8685 Q85.964 94.4102 89.5751 94.4102 Q93.2093 94.4102 95.0148 90.8685 Q96.8435 87.3037 96.8435 80.1973 Q96.8435 73.0677 95.0148 69.526 Q93.2093 65.9613 89.5751 65.9613 M89.5751 62.2576 Q95.3852 62.2576 98.4408 66.864 Q101.519 71.4473 101.519 80.1973 Q101.519 88.9241 98.4408 93.5305 Q95.3852 98.1139 89.5751 98.1139 Q83.7649 98.1139 80.6862 93.5305 Q77.6307 88.9241 77.6307 80.1973 Q77.6307 71.4473 80.6862 66.864 Q83.7649 62.2576 89.5751 62.2576 Z" fill="#000000" fill-rule="evenodd" fill-opacity="1" /><path clip-path="url(#clip770)" d="M119.737 65.9613 Q116.126 65.9613 114.297 69.526 Q112.492 73.0677 112.492 80.1973 Q112.492 87.3037 114.297 90.8685 Q116.126 94.4102 119.737 94.4102 Q123.371 94.4102 125.177 90.8685 Q127.005 87.3037 127.005 80.1973 Q127.005 73.0677 125.177 69.526 Q123.371 65.9613 119.737 65.9613 M119.737 62.2576 Q125.547 62.2576 128.603 66.864 Q131.681 71.4473 131.681 80.1973 Q131.681 88.9241 128.603 93.5305 Q125.547 98.1139 119.737 98.1139 Q113.927 98.1139 110.848 93.5305 Q107.793 88.9241 107.793 80.1973 Q107.793 71.4473 110.848 66.864 Q113.927 62.2576 119.737 62.2576 Z" fill="#000000" fill-rule="evenodd" fill-opacity="1" /><polyline clip-path="url(#clip772)" style="stroke:#009af9; stroke-linecap:round; stroke-linejoin:round; stroke-width:4; stroke-opacity:1; fill:none" points="241.872,96.8724 288.318,113.582 308.281,130.292 313.891,147.002 339.142,163.712 345,180.422 360.821,197.132 362.866,213.842 374.959,230.552 375.752,247.261 378.405,263.971 381.451,263.971 386.207,263.971 387.793,263.971 410.441,263.971 413.721,280.681 416.047,280.681 416.438,280.681 424.311,297.391 430.695,314.101 432.566,330.811 449.991,347.521 452.497,364.231 455.318,364.231 461.256,364.231 464.085,364.231 477.714,380.94 478.78,397.65 482.993,397.65 489.308,414.36 499.376,431.07 499.488,431.07 512.275,447.78 516.5,447.78 520.726,464.49 522.453,464.49 522.791,481.2 523.647,481.2 526.106,497.91 529.828,514.62 531.132,531.329 532.399,548.039 532.472,564.749 538.287,581.459 538.945,598.169 542.147,614.879 549.681,614.879 563.551,631.589 563.624,631.589 563.988,648.299 565.67,665.008 570.015,665.008 579.19,665.008 582.105,681.718 583.46,681.718 585.133,698.428 589.617,715.138 594.574,731.848 598.211,748.558 598.995,765.268 605.974,781.978 610.131,781.978 614.665,798.688 615.757,815.397 622.671,832.107 627.663,848.817 629.35,848.817 629.362,865.527 632.048,882.237 632.22,898.947 632.285,915.657 643.85,932.367 646.196,932.367 647.966,932.367 651.793,949.077 653.255,949.077 653.369,949.077 656.864,965.786 661.515,982.496 663.207,999.206 663.711,999.206 665.073,1015.92 667.207,1015.92 667.911,1032.63 672.479,1032.63 673.169,1032.63 674.224,1032.63 676.844,1049.34 681.046,1066.05 682.279,1066.05 687.711,1066.05 688.427,1082.76 693.217,1099.47 697.288,1116.18 697.48,1132.89 698.295,1149.6 699.164,1166.31 701.001,1183.01 703.055,1183.01 706.183,1183.01 710.044,1199.72 710.598,1216.43 711.465,1216.43 714.521,1233.14 717.011,1233.14 721.693,1249.85 722.632,1266.56 735.42,1283.27 737.851,1283.27 742.491,1283.27 745.177,1283.27 747.479,1299.98 750.017,1299.98 754.856,1316.69 755.364,1333.4 756.058,1333.4 757.392,1350.11 757.65,1366.82 763.415,1383.53 763.922,1383.53 775.31,1383.53 779.238,1400.24 781.573,1400.24 781.792,1416.95 785.127,1416.95 785.834,1416.95 786.545,1433.66 787.047,1433.66 800.742,1433.66 801.201,1433.66 801.738,1433.66 817.882,1433.66 823.536,1433.66 829.264,1433.66 834.836,1433.66 836.689,1450.37 839.942,1467.08 842.463,1467.08 857.037,1483.79 858.076,1500.5 874.918,1500.5 886.601,1517.21 894.56,1533.92 895.666,1533.92 902.103,1550.63 902.832,1550.63 903.82,1550.63 927.301,1567.34 933.116,1567.34 948.086,1567.34 965.434,1567.34 967.373,1584.05 968.782,1584.05 969.358,1584.05 969.875,1584.05 975.77,1584.05 981.621,1584.05 982.004,1584.05 988.675,1584.05 993.314,1584.05 1003.2,1584.05 1032.67,1584.05 1034.1,1584.05 1064.61,1584.05 1093.44,1584.05 1095.5,1584.05 1115.6,1600.76 1193.46,1600.76 1196.53,1600.76 1197.1,1600.76 1205.82,1600.76 1207.1,1600.76 1292.25,1600.76 1333.7,1600.76 1347.48,1600.76 1388.65,1617.47 1426.06,1617.47 1453.03,1617.47 1493.43,1617.47 1577.45,1617.47 1578.09,1634.18 1601.54,1634.18 1637.7,1650.89 1667.89,1650.89 1782.97,1650.89 1958.07,1650.89 1990.4,1650.89 2570.89,1650.89 "/>
<polyline clip-path="url(#clip772)" style="stroke:#e26f46; stroke-linecap:round; stroke-linejoin:round; stroke-width:4; stroke-opacity:1; fill:none" points="241.872,1734.44 288.318,1717.73 308.281,1701.02 313.891,1684.31 339.142,1667.6 345,1650.89 360.821,1634.18 362.866,1617.47 374.959,1600.76 375.752,1584.05 378.405,1567.34 381.451,1584.05 386.207,1600.76 387.793,1617.47 410.441,1634.18 413.721,1617.47 416.047,1634.18 416.438,1650.89 424.311,1634.18 430.695,1617.47 432.566,1600.76 449.991,1584.05 452.497,1567.34 455.318,1584.05 461.256,1600.76 464.085,1617.47 477.714,1600.76 478.78,1584.05 482.993,1600.76 489.308,1584.05 499.376,1567.34 499.488,1584.05 512.275,1567.34 516.5,1584.05 520.726,1567.34 522.453,1584.05 522.791,1567.34 523.647,1584.05 526.106,1567.34 529.828,1550.63 531.132,1533.92 532.399,1517.21 532.472,1500.5 538.287,1483.79 538.945,1467.08 542.147,1450.37 549.681,1467.08 563.551,1450.37 563.624,1467.08 563.988,1450.37 565.67,1433.66 570.015,1450.37 579.19,1467.08 582.105,1450.37 583.46,1467.08 585.133,1450.37 589.617,1433.66 594.574,1416.95 598.211,1400.24 598.995,1383.53 605.974,1366.82 610.131,1383.53 614.665,1366.82 615.757,1350.11 622.671,1333.4 627.663,1316.69 629.35,1333.4 629.362,1316.69 632.048,1299.98 632.22,1283.27 632.285,1266.56 643.85,1249.85 646.196,1266.56 647.966,1283.27 651.793,1266.56 653.255,1283.27 653.369,1299.98 656.864,1283.27 661.515,1266.56 663.207,1249.85 663.711,1266.56 665.073,1249.85 667.207,1266.56 667.911,1249.85 672.479,1266.56 673.169,1283.27 674.224,1299.98 676.844,1283.27 681.046,1266.56 682.279,1283.27 687.711,1299.98 688.427,1283.27 693.217,1266.56 697.288,1249.85 697.48,1233.14 698.295,1216.43 699.164,1199.72 701.001,1183.01 703.055,1199.72 706.183,1216.43 710.044,1199.72 710.598,1183.01 711.465,1199.72 714.521,1183.01 717.011,1199.72 721.693,1183.01 722.632,1166.31 735.42,1149.6 737.851,1166.31 742.491,1183.01 745.177,1199.72 747.479,1183.01 750.017,1199.72 754.856,1183.01 755.364,1166.31 756.058,1183.01 757.392,1166.31 757.65,1149.6 763.415,1132.89 763.922,1149.6 775.31,1166.31 779.238,1149.6 781.573,1166.31 781.792,1149.6 785.127,1166.31 785.834,1183.01 786.545,1166.31 787.047,1183.01 800.742,1199.72 801.201,1216.43 801.738,1233.14 817.882,1249.85 823.536,1266.56 829.264,1283.27 834.836,1299.98 836.689,1283.27 839.942,1266.56 842.463,1283.27 857.037,1266.56 858.076,1249.85 874.918,1266.56 886.601,1249.85 894.56,1233.14 895.666,1249.85 902.103,1233.14 902.832,1249.85 903.82,1266.56 927.301,1249.85 933.116,1266.56 948.086,1283.27 965.434,1299.98 967.373,1283.27 968.782,1299.98 969.358,1316.69 969.875,1333.4 975.77,1350.11 981.621,1366.82 982.004,1383.53 988.675,1400.24 993.314,1416.95 1003.2,1433.66 1032.67,1450.37 1034.1,1467.08 1064.61,1483.79 1093.44,1500.5 1095.5,1517.21 1115.6,1500.5 1193.46,1517.21 1196.53,1533.92 1197.1,1550.63 1205.82,1567.34 1207.1,1584.05 1292.25,1600.76 1333.7,1617.47 1347.48,1634.18 1388.65,1617.47 1426.06,1634.18 1453.03,1650.89 1493.43,1667.6 1577.45,1684.31 1578.09,1667.6 1601.54,1684.31 1637.7,1667.6 1667.89,1684.31 1782.97,1701.02 1958.07,1717.73 1990.4,1734.44 2570.89,1751.15 "/>
<polyline clip-path="url(#clip772)" style="stroke:#3da44d; stroke-linecap:round; stroke-linejoin:round; stroke-width:4; stroke-opacity:1; fill:none" points="241.872,1751.15 288.318,1751.15 308.281,1751.15 313.891,1751.15 339.142,1751.15 345,1751.15 360.821,1751.15 362.866,1751.15 374.959,1751.15 375.752,1751.15 378.405,1751.15 381.451,1734.44 386.207,1717.73 387.793,1701.02 410.441,1684.31 413.721,1684.31 416.047,1667.6 416.438,1650.89 424.311,1650.89 430.695,1650.89 432.566,1650.89 449.991,1650.89 452.497,1650.89 455.318,1634.18 461.256,1617.47 464.085,1600.76 477.714,1600.76 478.78,1600.76 482.993,1584.05 489.308,1584.05 499.376,1584.05 499.488,1567.34 512.275,1567.34 516.5,1550.63 520.726,1550.63 522.453,1533.92 522.791,1533.92 523.647,1517.21 526.106,1517.21 529.828,1517.21 531.132,1517.21 532.399,1517.21 532.472,1517.21 538.287,1517.21 538.945,1517.21 542.147,1517.21 549.681,1500.5 563.551,1500.5 563.624,1483.79 563.988,1483.79 565.67,1483.79 570.015,1467.08 579.19,1450.37 582.105,1450.37 583.46,1433.66 585.133,1433.66 589.617,1433.66 594.574,1433.66 598.211,1433.66 598.995,1433.66 605.974,1433.66 610.131,1416.95 614.665,1416.95 615.757,1416.95 622.671,1416.95 627.663,1416.95 629.35,1400.24 629.362,1400.24 632.048,1400.24 632.22,1400.24 632.285,1400.24 643.85,1400.24 646.196,1383.53 647.966,1366.82 651.793,1366.82 653.255,1350.11 653.369,1333.4 656.864,1333.4 661.515,1333.4 663.207,1333.4 663.711,1316.69 665.073,1316.69 667.207,1299.98 667.911,1299.98 672.479,1283.27 673.169,1266.56 674.224,1249.85 676.844,1249.85 681.046,1249.85 682.279,1233.14 687.711,1216.43 688.427,1216.43 693.217,1216.43 697.288,1216.43 697.48,1216.43 698.295,1216.43 699.164,1216.43 701.001,1216.43 703.055,1199.72 706.183,1183.01 710.044,1183.01 710.598,1183.01 711.465,1166.31 714.521,1166.31 717.011,1149.6 721.693,1149.6 722.632,1149.6 735.42,1149.6 737.851,1132.89 742.491,1116.18 745.177,1099.47 747.479,1099.47 750.017,1082.76 754.856,1082.76 755.364,1082.76 756.058,1066.05 757.392,1066.05 757.65,1066.05 763.415,1066.05 763.922,1049.34 775.31,1032.63 779.238,1032.63 781.573,1015.92 781.792,1015.92 785.127,999.206 785.834,982.496 786.545,982.496 787.047,965.786 800.742,949.077 801.201,932.367 801.738,915.657 817.882,898.947 823.536,882.237 829.264,865.527 834.836,848.817 836.689,848.817 839.942,848.817 842.463,832.107 857.037,832.107 858.076,832.107 874.918,815.397 886.601,815.397 894.56,815.397 895.666,798.688 902.103,798.688 902.832,781.978 903.82,765.268 927.301,765.268 933.116,748.558 948.086,731.848 965.434,715.138 967.373,715.138 968.782,698.428 969.358,681.718 969.875,665.008 975.77,648.299 981.621,631.589 982.004,614.879 988.675,598.169 993.314,581.459 1003.2,564.749 1032.67,548.039 1034.1,531.329 1064.61,514.62 1093.44,497.91 1095.5,481.2 1115.6,481.2 1193.46,464.49 1196.53,447.78 1197.1,431.07 1205.82,414.36 1207.1,397.65 1292.25,380.94 1333.7,364.231 1347.48,347.521 1388.65,347.521 1426.06,330.811 1453.03,314.101 1493.43,297.391 1577.45,280.681 1578.09,280.681 1601.54,263.971 1637.7,263.971 1667.89,247.261 1782.97,230.552 1958.07,213.842 1990.4,197.132 2570.89,180.422 "/>
<path clip-path="url(#clip770)" d="M2258.58 313.055 L2558.46 313.055 L2558.46 105.695 L2258.58 105.695  Z" fill="#ffffff" fill-rule="evenodd" fill-opacity="1"/>
<polyline clip-path="url(#clip770)" style="stroke:#000000; stroke-linecap:round; stroke-linejoin:round; stroke-width:4; stroke-opacity:1; fill:none" points="2258.58,313.055 2558.46,313.055 2558.46,105.695 2258.58,105.695 2258.58,313.055 "/>
<polyline clip-path="url(#clip770)" style="stroke:#009af9; stroke-linecap:round; stroke-linejoin:round; stroke-width:4; stroke-opacity:1; fill:none" points="2286.01,157.535 2450.59,157.535 "/>
<path clip-path="url(#clip770)" d="M2491.87 177.223 Q2490.06 181.852 2488.35 183.264 Q2486.64 184.676 2483.77 184.676 L2480.36 184.676 L2480.36 181.112 L2482.86 181.112 Q2484.62 181.112 2485.59 180.278 Q2486.57 179.445 2487.75 176.343 L2488.51 174.399 L2478.02 148.889 L2482.54 148.889 L2490.64 169.167 L2498.74 148.889 L2503.26 148.889 L2491.87 177.223 Z" fill="#000000" fill-rule="evenodd" fill-opacity="1" /><path clip-path="url(#clip770)" d="M2510.55 170.88 L2518.19 170.88 L2518.19 144.515 L2509.88 146.181 L2509.88 141.922 L2518.14 140.255 L2522.82 140.255 L2522.82 170.88 L2530.45 170.88 L2530.45 174.815 L2510.55 174.815 L2510.55 170.88 Z" fill="#000000" fill-rule="evenodd" fill-opacity="1" /><polyline clip-path="url(#clip770)" style="stroke:#e26f46; stroke-linecap:round; stroke-linejoin:round; stroke-width:4; stroke-opacity:1; fill:none" points="2286.01,209.375 2450.59,209.375 "/>
<path clip-path="url(#clip770)" d="M2491.87 229.063 Q2490.06 233.692 2488.35 235.104 Q2486.64 236.516 2483.77 236.516 L2480.36 236.516 L2480.36 232.952 L2482.86 232.952 Q2484.62 232.952 2485.59 232.118 Q2486.57 231.285 2487.75 228.183 L2488.51 226.239 L2478.02 200.729 L2482.54 200.729 L2490.64 221.007 L2498.74 200.729 L2503.26 200.729 L2491.87 229.063 Z" fill="#000000" fill-rule="evenodd" fill-opacity="1" /><path clip-path="url(#clip770)" d="M2513.77 222.72 L2530.08 222.72 L2530.08 226.655 L2508.14 226.655 L2508.14 222.72 Q2510.8 219.965 2515.39 215.336 Q2519.99 210.683 2521.17 209.341 Q2523.42 206.817 2524.3 205.081 Q2525.2 203.322 2525.2 201.632 Q2525.2 198.878 2523.26 197.142 Q2521.33 195.405 2518.23 195.405 Q2516.03 195.405 2513.58 196.169 Q2511.15 196.933 2508.37 198.484 L2508.37 193.762 Q2511.2 192.628 2513.65 192.049 Q2516.1 191.47 2518.14 191.47 Q2523.51 191.47 2526.7 194.155 Q2529.9 196.841 2529.9 201.331 Q2529.9 203.461 2529.09 205.382 Q2528.3 207.28 2526.2 209.873 Q2525.62 210.544 2522.52 213.762 Q2519.41 216.956 2513.77 222.72 Z" fill="#000000" fill-rule="evenodd" fill-opacity="1" /><polyline clip-path="url(#clip770)" style="stroke:#3da44d; stroke-linecap:round; stroke-linejoin:round; stroke-width:4; stroke-opacity:1; fill:none" points="2286.01,261.215 2450.59,261.215 "/>
<path clip-path="url(#clip770)" d="M2491.87 280.903 Q2490.06 285.532 2488.35 286.944 Q2486.64 288.356 2483.77 288.356 L2480.36 288.356 L2480.36 284.792 L2482.86 284.792 Q2484.62 284.792 2485.59 283.958 Q2486.57 283.125 2487.75 280.023 L2488.51 278.079 L2478.02 252.569 L2482.54 252.569 L2490.64 272.847 L2498.74 252.569 L2503.26 252.569 L2491.87 280.903 Z" fill="#000000" fill-rule="evenodd" fill-opacity="1" /><path clip-path="url(#clip770)" d="M2523.9 259.861 Q2527.26 260.579 2529.14 262.847 Q2531.03 265.116 2531.03 268.449 Q2531.03 273.565 2527.51 276.366 Q2524 279.167 2517.52 279.167 Q2515.34 279.167 2513.02 278.727 Q2510.73 278.31 2508.28 277.454 L2508.28 272.94 Q2510.22 274.074 2512.54 274.653 Q2514.85 275.231 2517.38 275.231 Q2521.77 275.231 2524.07 273.495 Q2526.38 271.759 2526.38 268.449 Q2526.38 265.393 2524.23 263.681 Q2522.1 261.944 2518.28 261.944 L2514.25 261.944 L2514.25 258.102 L2518.46 258.102 Q2521.91 258.102 2523.74 256.736 Q2525.57 255.347 2525.57 252.755 Q2525.57 250.093 2523.67 248.681 Q2521.8 247.245 2518.28 247.245 Q2516.36 247.245 2514.16 247.662 Q2511.96 248.079 2509.32 248.958 L2509.32 244.792 Q2511.98 244.051 2514.3 243.681 Q2516.64 243.31 2518.7 243.31 Q2524.02 243.31 2527.12 245.741 Q2530.22 248.148 2530.22 252.269 Q2530.22 255.139 2528.58 257.13 Q2526.94 259.097 2523.9 259.861 Z" fill="#000000" fill-rule="evenodd" fill-opacity="1" /></svg>
