<?xml version="1.0" encoding="utf-8"?>
<svg xmlns="http://www.w3.org/2000/svg" xmlns:xlink="http://www.w3.org/1999/xlink" width="672" height="480" viewBox="0 0 2688 1920">
<defs>
  <clipPath id="clip960">
    <rect x="0" y="0" width="2688" height="1920"/>
  </clipPath>
</defs>
<path clip-path="url(#clip960)" d="M0 1920 L2688 1920 L2688 0 L0 0  Z" fill="#ffffff" fill-rule="evenodd" fill-opacity="1"/>
<defs>
  <clipPath id="clip961">
    <rect x="537" y="0" width="1883" height="1883"/>
  </clipPath>
</defs>
<path clip-path="url(#clip960)" d="M172.001 1734.12 L2640.76 1734.12 L2640.76 47.2441 L172.001 47.2441  Z" fill="#ffffff" fill-rule="evenodd" fill-opacity="1"/>
<defs>
  <clipPath id="clip962">
    <rect x="172" y="47" width="2470" height="1688"/>
  </clipPath>
</defs>
<polyline clip-path="url(#clip962)" style="stroke:#000000; stroke-linecap:round; stroke-linejoin:round; stroke-width:2; stroke-opacity:0.1; fill:none" points="172.001,1734.12 172.001,47.2441 "/>
<polyline clip-path="url(#clip962)" style="stroke:#000000; stroke-linecap:round; stroke-linejoin:round; stroke-width:2; stroke-opacity:0.1; fill:none" points="665.752,1734.12 665.752,47.2441 "/>
<polyline clip-path="url(#clip962)" style="stroke:#000000; stroke-linecap:round; stroke-linejoin:round; stroke-width:2; stroke-opacity:0.1; fill:none" points="1159.5,1734.12 1159.5,47.2441 "/>
<polyline clip-path="url(#clip962)" style="stroke:#000000; stroke-linecap:round; stroke-linejoin:round; stroke-width:2; stroke-opacity:0.1; fill:none" points="1653.25,1734.12 1653.25,47.2441 "/>
<polyline clip-path="url(#clip962)" style="stroke:#000000; stroke-linecap:round; stroke-linejoin:round; stroke-width:2; stroke-opacity:0.1; fill:none" points="2147,1734.12 2147,47.2441 "/>
<polyline clip-path="url(#clip962)" style="stroke:#000000; stroke-linecap:round; stroke-linejoin:round; stroke-width:2; stroke-opacity:0.1; fill:none" points="2640.76,1734.12 2640.76,47.2441 "/>
<polyline clip-path="url(#clip960)" style="stroke:#000000; stroke-linecap:round; stroke-linejoin:round; stroke-width:4; stroke-opacity:1; fill:none" points="172.001,1734.12 2640.76,1734.12 "/>
<polyline clip-path="url(#clip960)" style="stroke:#000000; stroke-linecap:round; stroke-linejoin:round; stroke-width:4; stroke-opacity:1; fill:none" points="172.001,1734.12 172.001,1715.22 "/>
<polyline clip-path="url(#clip960)" style="stroke:#000000; stroke-linecap:round; stroke-linejoin:round; stroke-width:4; stroke-opacity:1; fill:none" points="665.752,1734.12 665.752,1715.22 "/>
<polyline clip-path="url(#clip960)" style="stroke:#000000; stroke-linecap:round; stroke-linejoin:round; stroke-width:4; stroke-opacity:1; fill:none" points="1159.5,1734.12 1159.5,1715.22 "/>
<polyline clip-path="url(#clip960)" style="stroke:#000000; stroke-linecap:round; stroke-linejoin:round; stroke-width:4; stroke-opacity:1; fill:none" points="1653.25,1734.12 1653.25,1715.22 "/>
<polyline clip-path="url(#clip960)" style="stroke:#000000; stroke-linecap:round; stroke-linejoin:round; stroke-width:4; stroke-opacity:1; fill:none" points="2147,1734.12 2147,1715.22 "/>
<polyline clip-path="url(#clip960)" style="stroke:#000000; stroke-linecap:round; stroke-linejoin:round; stroke-width:4; stroke-opacity:1; fill:none" points="2640.76,1734.12 2640.76,1715.22 "/>
<path clip-path="url(#clip960)" d="M172.001 1767.34 Q168.39 1767.34 166.562 1770.9 Q164.756 1774.45 164.756 1781.58 Q164.756 1788.68 166.562 1792.25 Q168.39 1795.79 172.001 1795.79 Q175.636 1795.79 177.441 1792.25 Q179.27 1788.68 179.27 1781.58 Q179.27 1774.45 177.441 1770.9 Q175.636 1767.34 172.001 1767.34 M172.001 1763.64 Q177.811 1763.64 180.867 1768.24 Q183.946 1772.83 183.946 1781.58 Q183.946 1790.3 180.867 1794.91 Q177.811 1799.49 172.001 1799.49 Q166.191 1799.49 163.112 1794.91 Q160.057 1790.3 160.057 1781.58 Q160.057 1772.83 163.112 1768.24 Q166.191 1763.64 172.001 1763.64 Z" fill="#000000" fill-rule="evenodd" fill-opacity="1" /><path clip-path="url(#clip960)" d="M640.44 1794.89 L648.079 1794.89 L648.079 1768.52 L639.769 1770.19 L639.769 1765.93 L648.032 1764.26 L652.708 1764.26 L652.708 1794.89 L660.347 1794.89 L660.347 1798.82 L640.44 1798.82 L640.44 1794.89 Z" fill="#000000" fill-rule="evenodd" fill-opacity="1" /><path clip-path="url(#clip960)" d="M679.792 1767.34 Q676.18 1767.34 674.352 1770.9 Q672.546 1774.45 672.546 1781.58 Q672.546 1788.68 674.352 1792.25 Q676.18 1795.79 679.792 1795.79 Q683.426 1795.79 685.231 1792.25 Q687.06 1788.68 687.06 1781.58 Q687.06 1774.45 685.231 1770.9 Q683.426 1767.34 679.792 1767.34 M679.792 1763.64 Q685.602 1763.64 688.657 1768.24 Q691.736 1772.83 691.736 1781.58 Q691.736 1790.3 688.657 1794.91 Q685.602 1799.49 679.792 1799.49 Q673.981 1799.49 670.903 1794.91 Q667.847 1790.3 667.847 1781.58 Q667.847 1772.83 670.903 1768.24 Q673.981 1763.64 679.792 1763.64 Z" fill="#000000" fill-rule="evenodd" fill-opacity="1" /><path clip-path="url(#clip960)" d="M1138.28 1794.89 L1154.6 1794.89 L1154.6 1798.82 L1132.65 1798.82 L1132.65 1794.89 Q1135.31 1792.13 1139.9 1787.5 Q1144.5 1782.85 1145.68 1781.51 Q1147.93 1778.98 1148.81 1777.25 Q1149.71 1775.49 1149.71 1773.8 Q1149.71 1771.04 1147.77 1769.31 Q1145.85 1767.57 1142.74 1767.57 Q1140.54 1767.57 1138.09 1768.34 Q1135.66 1769.1 1132.88 1770.65 L1132.88 1765.93 Q1135.71 1764.79 1138.16 1764.21 Q1140.61 1763.64 1142.65 1763.64 Q1148.02 1763.64 1151.22 1766.32 Q1154.41 1769.01 1154.41 1773.5 Q1154.41 1775.63 1153.6 1777.55 Q1152.81 1779.45 1150.71 1782.04 Q1150.13 1782.71 1147.03 1785.93 Q1143.92 1789.12 1138.28 1794.89 Z" fill="#000000" fill-rule="evenodd" fill-opacity="1" /><path clip-path="url(#clip960)" d="M1174.41 1767.34 Q1170.8 1767.34 1168.97 1770.9 Q1167.17 1774.45 1167.17 1781.58 Q1167.17 1788.68 1168.97 1792.25 Q1170.8 1795.79 1174.41 1795.79 Q1178.04 1795.79 1179.85 1792.25 Q1181.68 1788.68 1181.68 1781.58 Q1181.68 1774.45 1179.85 1770.9 Q1178.04 1767.34 1174.41 1767.34 M1174.41 1763.64 Q1180.22 1763.64 1183.28 1768.24 Q1186.35 1772.83 1186.35 1781.58 Q1186.35 1790.3 1183.28 1794.91 Q1180.22 1799.49 1174.41 1799.49 Q1168.6 1799.49 1165.52 1794.91 Q1162.47 1790.3 1162.47 1781.58 Q1162.47 1772.83 1165.52 1768.24 Q1168.6 1763.64 1174.41 1763.64 Z" fill="#000000" fill-rule="evenodd" fill-opacity="1" /><path clip-path="url(#clip960)" d="M1642.1 1780.19 Q1645.45 1780.9 1647.33 1783.17 Q1649.23 1785.44 1649.23 1788.77 Q1649.23 1793.89 1645.71 1796.69 Q1642.19 1799.49 1635.71 1799.49 Q1633.53 1799.49 1631.22 1799.05 Q1628.93 1798.64 1626.47 1797.78 L1626.47 1793.27 Q1628.42 1794.4 1630.73 1794.98 Q1633.05 1795.56 1635.57 1795.56 Q1639.97 1795.56 1642.26 1793.82 Q1644.57 1792.08 1644.57 1788.77 Q1644.57 1785.72 1642.42 1784.01 Q1640.29 1782.27 1636.47 1782.27 L1632.44 1782.27 L1632.44 1778.43 L1636.66 1778.43 Q1640.11 1778.43 1641.93 1777.06 Q1643.76 1775.67 1643.76 1773.08 Q1643.76 1770.42 1641.87 1769.01 Q1639.99 1767.57 1636.47 1767.57 Q1634.55 1767.57 1632.35 1767.99 Q1630.15 1768.4 1627.51 1769.28 L1627.51 1765.12 Q1630.18 1764.38 1632.49 1764.01 Q1634.83 1763.64 1636.89 1763.64 Q1642.21 1763.64 1645.31 1766.07 Q1648.42 1768.47 1648.42 1772.59 Q1648.42 1775.46 1646.77 1777.46 Q1645.13 1779.42 1642.1 1780.19 Z" fill="#000000" fill-rule="evenodd" fill-opacity="1" /><path clip-path="url(#clip960)" d="M1668.09 1767.34 Q1664.48 1767.34 1662.65 1770.9 Q1660.85 1774.45 1660.85 1781.58 Q1660.85 1788.68 1662.65 1792.25 Q1664.48 1795.79 1668.09 1795.79 Q1671.73 1795.79 1673.53 1792.25 Q1675.36 1788.68 1675.36 1781.58 Q1675.36 1774.45 1673.53 1770.9 Q1671.73 1767.34 1668.09 1767.34 M1668.09 1763.64 Q1673.9 1763.64 1676.96 1768.24 Q1680.04 1772.83 1680.04 1781.58 Q1680.04 1790.3 1676.96 1794.91 Q1673.9 1799.49 1668.09 1799.49 Q1662.28 1799.49 1659.2 1794.91 Q1656.15 1790.3 1656.15 1781.58 Q1656.15 1772.83 1659.2 1768.24 Q1662.28 1763.64 1668.09 1763.64 Z" fill="#000000" fill-rule="evenodd" fill-opacity="1" /><path clip-path="url(#clip960)" d="M2135.18 1768.34 L2123.37 1786.78 L2135.18 1786.78 L2135.18 1768.34 M2133.95 1764.26 L2139.83 1764.26 L2139.83 1786.78 L2144.76 1786.78 L2144.76 1790.67 L2139.83 1790.67 L2139.83 1798.82 L2135.18 1798.82 L2135.18 1790.67 L2119.57 1790.67 L2119.57 1786.16 L2133.95 1764.26 Z" fill="#000000" fill-rule="evenodd" fill-opacity="1" /><path clip-path="url(#clip960)" d="M2162.49 1767.34 Q2158.88 1767.34 2157.05 1770.9 Q2155.25 1774.45 2155.25 1781.58 Q2155.25 1788.68 2157.05 1792.25 Q2158.88 1795.79 2162.49 1795.79 Q2166.13 1795.79 2167.93 1792.25 Q2169.76 1788.68 2169.76 1781.58 Q2169.76 1774.45 2167.93 1770.9 Q2166.13 1767.34 2162.49 1767.34 M2162.49 1763.64 Q2168.3 1763.64 2171.36 1768.24 Q2174.44 1772.83 2174.44 1781.58 Q2174.44 1790.3 2171.36 1794.91 Q2168.3 1799.49 2162.49 1799.49 Q2156.68 1799.49 2153.6 1794.91 Q2150.55 1790.3 2150.55 1781.58 Q2150.55 1772.83 2153.6 1768.24 Q2156.68 1763.64 2162.49 1763.64 Z" fill="#000000" fill-rule="evenodd" fill-opacity="1" /><path clip-path="url(#clip960)" d="M2615.46 1764.26 L2633.81 1764.26 L2633.81 1768.2 L2619.74 1768.2 L2619.74 1776.67 Q2620.76 1776.32 2621.77 1776.16 Q2622.79 1775.97 2623.81 1775.97 Q2629.6 1775.97 2632.98 1779.15 Q2636.36 1782.32 2636.36 1787.73 Q2636.36 1793.31 2632.89 1796.41 Q2629.41 1799.49 2623.09 1799.49 Q2620.92 1799.49 2618.65 1799.12 Q2616.4 1798.75 2614 1798.01 L2614 1793.31 Q2616.08 1794.45 2618.3 1795 Q2620.52 1795.56 2623 1795.56 Q2627.01 1795.56 2629.34 1793.45 Q2631.68 1791.34 2631.68 1787.73 Q2631.68 1784.12 2629.34 1782.02 Q2627.01 1779.91 2623 1779.91 Q2621.13 1779.91 2619.25 1780.33 Q2617.4 1780.74 2615.46 1781.62 L2615.46 1764.26 Z" fill="#000000" fill-rule="evenodd" fill-opacity="1" /><path clip-path="url(#clip960)" d="M2655.57 1767.34 Q2651.96 1767.34 2650.13 1770.9 Q2648.33 1774.45 2648.33 1781.58 Q2648.33 1788.68 2650.13 1792.25 Q2651.96 1795.79 2655.57 1795.79 Q2659.2 1795.79 2661.01 1792.25 Q2662.84 1788.68 2662.84 1781.58 Q2662.84 1774.45 2661.01 1770.9 Q2659.2 1767.34 2655.57 1767.34 M2655.57 1763.64 Q2661.38 1763.64 2664.44 1768.24 Q2667.52 1772.83 2667.52 1781.58 Q2667.52 1790.3 2664.44 1794.91 Q2661.38 1799.49 2655.57 1799.49 Q2649.76 1799.49 2646.68 1794.91 Q2643.63 1790.3 2643.63 1781.58 Q2643.63 1772.83 2646.68 1768.24 Q2649.76 1763.64 2655.57 1763.64 Z" fill="#000000" fill-rule="evenodd" fill-opacity="1" /><path clip-path="url(#clip960)" d="M1405.44 1837.53 L1405.44 1847.65 L1417.5 1847.65 L1417.5 1852.2 L1405.44 1852.2 L1405.44 1871.56 Q1405.44 1875.92 1406.62 1877.16 Q1407.83 1878.4 1411.49 1878.4 L1417.5 1878.4 L1417.5 1883.3 L1411.49 1883.3 Q1404.71 1883.3 1402.13 1880.79 Q1399.55 1878.24 1399.55 1871.56 L1399.55 1852.2 L1395.25 1852.2 L1395.25 1847.65 L1399.55 1847.65 L1399.55 1837.53 L1405.44 1837.53 Z" fill="#000000" fill-rule="evenodd" fill-opacity="1" /><polyline clip-path="url(#clip962)" style="stroke:#000000; stroke-linecap:round; stroke-linejoin:round; stroke-width:2; stroke-opacity:0.1; fill:none" points="172.001,1686.38 2640.76,1686.38 "/>
<polyline clip-path="url(#clip962)" style="stroke:#000000; stroke-linecap:round; stroke-linejoin:round; stroke-width:2; stroke-opacity:0.1; fill:none" points="172.001,1284.51 2640.76,1284.51 "/>
<polyline clip-path="url(#clip962)" style="stroke:#000000; stroke-linecap:round; stroke-linejoin:round; stroke-width:2; stroke-opacity:0.1; fill:none" points="172.001,882.643 2640.76,882.643 "/>
<polyline clip-path="url(#clip962)" style="stroke:#000000; stroke-linecap:round; stroke-linejoin:round; stroke-width:2; stroke-opacity:0.1; fill:none" points="172.001,480.777 2640.76,480.777 "/>
<polyline clip-path="url(#clip962)" style="stroke:#000000; stroke-linecap:round; stroke-linejoin:round; stroke-width:2; stroke-opacity:0.1; fill:none" points="172.001,78.9111 2640.76,78.9111 "/>
<polyline clip-path="url(#clip960)" style="stroke:#000000; stroke-linecap:round; stroke-linejoin:round; stroke-width:4; stroke-opacity:1; fill:none" points="172.001,1734.12 172.001,47.2441 "/>
<polyline clip-path="url(#clip960)" style="stroke:#000000; stroke-linecap:round; stroke-linejoin:round; stroke-width:4; stroke-opacity:1; fill:none" points="172.001,1686.38 190.899,1686.38 "/>
<polyline clip-path="url(#clip960)" style="stroke:#000000; stroke-linecap:round; stroke-linejoin:round; stroke-width:4; stroke-opacity:1; fill:none" points="172.001,1284.51 190.899,1284.51 "/>
<polyline clip-path="url(#clip960)" style="stroke:#000000; stroke-linecap:round; stroke-linejoin:round; stroke-width:4; stroke-opacity:1; fill:none" points="172.001,882.643 190.899,882.643 "/>
<polyline clip-path="url(#clip960)" style="stroke:#000000; stroke-linecap:round; stroke-linejoin:round; stroke-width:4; stroke-opacity:1; fill:none" points="172.001,480.777 190.899,480.777 "/>
<polyline clip-path="url(#clip960)" style="stroke:#000000; stroke-linecap:round; stroke-linejoin:round; stroke-width:4; stroke-opacity:1; fill:none" points="172.001,78.9111 190.899,78.9111 "/>
<path clip-path="url(#clip960)" d="M119.737 1672.17 Q116.126 1672.17 114.297 1675.74 Q112.492 1679.28 112.492 1686.41 Q112.492 1693.52 114.297 1697.08 Q116.126 1700.62 119.737 1700.62 Q123.371 1700.62 125.177 1697.08 Q127.005 1693.52 127.005 1686.41 Q127.005 1679.28 125.177 1675.74 Q123.371 1672.17 119.737 1672.17 M119.737 1668.47 Q125.547 1668.47 128.603 1673.08 Q131.681 1677.66 131.681 1686.41 Q131.681 1695.14 128.603 1699.74 Q125.547 1704.33 119.737 1704.33 Q113.927 1704.33 110.848 1699.74 Q107.793 1695.14 107.793 1686.41 Q107.793 1677.66 110.848 1673.08 Q113.927 1668.47 119.737 1668.47 Z" fill="#000000" fill-rule="evenodd" fill-opacity="1" /><path clip-path="url(#clip960)" d="M84.5982 1297.85 L100.918 1297.85 L100.918 1301.79 L78.9733 1301.79 L78.9733 1297.85 Q81.6353 1295.1 86.2186 1290.47 Q90.8251 1285.82 92.0056 1284.47 Q94.251 1281.95 95.1306 1280.22 Q96.0334 1278.46 96.0334 1276.77 Q96.0334 1274.01 94.0889 1272.28 Q92.1676 1270.54 89.0658 1270.54 Q86.8667 1270.54 84.4131 1271.3 Q81.9825 1272.07 79.2047 1273.62 L79.2047 1268.9 Q82.0288 1267.76 84.4825 1267.18 Q86.9362 1266.6 88.9732 1266.6 Q94.3436 1266.6 97.538 1269.29 Q100.732 1271.97 100.732 1276.47 Q100.732 1278.59 99.9222 1280.52 Q99.1352 1282.41 97.0287 1285.01 Q96.45 1285.68 93.3482 1288.9 Q90.2464 1292.09 84.5982 1297.85 Z" fill="#000000" fill-rule="evenodd" fill-opacity="1" /><path clip-path="url(#clip960)" d="M110.779 1267.23 L129.135 1267.23 L129.135 1271.16 L115.061 1271.16 L115.061 1279.64 Q116.08 1279.29 117.098 1279.13 Q118.117 1278.94 119.135 1278.94 Q124.922 1278.94 128.302 1282.11 Q131.681 1285.28 131.681 1290.7 Q131.681 1296.28 128.209 1299.38 Q124.737 1302.46 118.417 1302.46 Q116.242 1302.46 113.973 1302.09 Q111.728 1301.72 109.32 1300.98 L109.32 1296.28 Q111.404 1297.41 113.626 1297.97 Q115.848 1298.53 118.325 1298.53 Q122.33 1298.53 124.667 1296.42 Q127.005 1294.31 127.005 1290.7 Q127.005 1287.09 124.667 1284.98 Q122.33 1282.88 118.325 1282.88 Q116.45 1282.88 114.575 1283.29 Q112.723 1283.71 110.779 1284.59 L110.779 1267.23 Z" fill="#000000" fill-rule="evenodd" fill-opacity="1" /><path clip-path="url(#clip960)" d="M79.6214 865.363 L97.9778 865.363 L97.9778 869.298 L83.9038 869.298 L83.9038 877.771 Q84.9223 877.423 85.9408 877.261 Q86.9593 877.076 87.9778 877.076 Q93.7649 877.076 97.1445 880.247 Q100.524 883.419 100.524 888.835 Q100.524 894.414 97.0519 897.516 Q93.5797 900.595 87.2603 900.595 Q85.0843 900.595 82.8158 900.224 Q80.5705 899.854 78.1631 899.113 L78.1631 894.414 Q80.2464 895.548 82.4686 896.104 Q84.6908 896.659 87.1677 896.659 Q91.1723 896.659 93.5102 894.553 Q95.8482 892.446 95.8482 888.835 Q95.8482 885.224 93.5102 883.118 Q91.1723 881.011 87.1677 881.011 Q85.2927 881.011 83.4177 881.428 Q81.5658 881.845 79.6214 882.724 L79.6214 865.363 Z" fill="#000000" fill-rule="evenodd" fill-opacity="1" /><path clip-path="url(#clip960)" d="M119.737 868.442 Q116.126 868.442 114.297 872.007 Q112.492 875.548 112.492 882.678 Q112.492 889.784 114.297 893.349 Q116.126 896.891 119.737 896.891 Q123.371 896.891 125.177 893.349 Q127.005 889.784 127.005 882.678 Q127.005 875.548 125.177 872.007 Q123.371 868.442 119.737 868.442 M119.737 864.738 Q125.547 864.738 128.603 869.345 Q131.681 873.928 131.681 882.678 Q131.681 891.405 128.603 896.011 Q125.547 900.595 119.737 900.595 Q113.927 900.595 110.848 896.011 Q107.793 891.405 107.793 882.678 Q107.793 873.928 110.848 869.345 Q113.927 864.738 119.737 864.738 Z" fill="#000000" fill-rule="evenodd" fill-opacity="1" /><path clip-path="url(#clip960)" d="M79.3899 463.497 L101.612 463.497 L101.612 465.488 L89.0658 498.057 L84.1816 498.057 L95.9871 467.432 L79.3899 467.432 L79.3899 463.497 Z" fill="#000000" fill-rule="evenodd" fill-opacity="1" /><path clip-path="url(#clip960)" d="M110.779 463.497 L129.135 463.497 L129.135 467.432 L115.061 467.432 L115.061 475.905 Q116.08 475.557 117.098 475.395 Q118.117 475.21 119.135 475.21 Q124.922 475.21 128.302 478.381 Q131.681 481.553 131.681 486.969 Q131.681 492.548 128.209 495.65 Q124.737 498.728 118.417 498.728 Q116.242 498.728 113.973 498.358 Q111.728 497.988 109.32 497.247 L109.32 492.548 Q111.404 493.682 113.626 494.238 Q115.848 494.793 118.325 494.793 Q122.33 494.793 124.667 492.687 Q127.005 490.58 127.005 486.969 Q127.005 483.358 124.667 481.252 Q122.33 479.145 118.325 479.145 Q116.45 479.145 114.575 479.562 Q112.723 479.979 110.779 480.858 L110.779 463.497 Z" fill="#000000" fill-rule="evenodd" fill-opacity="1" /><path clip-path="url(#clip960)" d="M50.2234 92.256 L57.8623 92.256 L57.8623 65.8904 L49.5521 67.557 L49.5521 63.2978 L57.816 61.6311 L62.4919 61.6311 L62.4919 92.256 L70.1307 92.256 L70.1307 96.1911 L50.2234 96.1911 L50.2234 92.256 Z" fill="#000000" fill-rule="evenodd" fill-opacity="1" /><path clip-path="url(#clip960)" d="M89.5751 64.7098 Q85.964 64.7098 84.1353 68.2746 Q82.3297 71.8163 82.3297 78.9459 Q82.3297 86.0523 84.1353 89.6171 Q85.964 93.1587 89.5751 93.1587 Q93.2093 93.1587 95.0148 89.6171 Q96.8435 86.0523 96.8435 78.9459 Q96.8435 71.8163 95.0148 68.2746 Q93.2093 64.7098 89.5751 64.7098 M89.5751 61.0061 Q95.3852 61.0061 98.4408 65.6126 Q101.519 70.1959 101.519 78.9459 Q101.519 87.6727 98.4408 92.2791 Q95.3852 96.8624 89.5751 96.8624 Q83.7649 96.8624 80.6862 92.2791 Q77.6307 87.6727 77.6307 78.9459 Q77.6307 70.1959 80.6862 65.6126 Q83.7649 61.0061 89.5751 61.0061 Z" fill="#000000" fill-rule="evenodd" fill-opacity="1" /><path clip-path="url(#clip960)" d="M119.737 64.7098 Q116.126 64.7098 114.297 68.2746 Q112.492 71.8163 112.492 78.9459 Q112.492 86.0523 114.297 89.6171 Q116.126 93.1587 119.737 93.1587 Q123.371 93.1587 125.177 89.6171 Q127.005 86.0523 127.005 78.9459 Q127.005 71.8163 125.177 68.2746 Q123.371 64.7098 119.737 64.7098 M119.737 61.0061 Q125.547 61.0061 128.603 65.6126 Q131.681 70.1959 131.681 78.9459 Q131.681 87.6727 128.603 92.2791 Q125.547 96.8624 119.737 96.8624 Q113.927 96.8624 110.848 92.2791 Q107.793 87.6727 107.793 78.9459 Q107.793 70.1959 110.848 65.6126 Q113.927 61.0061 119.737 61.0061 Z" fill="#000000" fill-rule="evenodd" fill-opacity="1" /><polyline clip-path="url(#clip962)" style="stroke:#009af9; stroke-linecap:round; stroke-linejoin:round; stroke-width:4; stroke-opacity:1; fill:none" points="172.001,94.9858 236.275,94.9858 "/>
<polyline clip-path="url(#clip962)" style="stroke:#e26f46; stroke-linecap:round; stroke-linejoin:round; stroke-width:4; stroke-opacity:1; fill:none" points="172.001,1670.3 236.275,1686.38 "/>
<polyline clip-path="url(#clip962)" style="stroke:#3da44d; stroke-linecap:round; stroke-linejoin:round; stroke-width:4; stroke-opacity:1; fill:none" points="172.001,1686.38 236.275,1670.3 "/>
<polyline clip-path="url(#clip962)" style="stroke:#c271d2; stroke-linecap:round; stroke-linejoin:round; stroke-width:4; stroke-opacity:1; fill:none" points="172.001,94.9858 174.473,95.3879 176.944,95.798 179.415,96.2162 181.886,96.6426 184.357,97.0773 186.829,97.5206 189.3,97.9726 191.771,98.4335 194.242,98.9035 196.714,99.3826 199.185,99.8711 201.656,100.369 204.127,100.877 206.598,101.395 209.07,101.923 211.541,102.461 214.012,103.009 216.483,103.569 218.955,104.139 221.426,104.72 223.897,105.313 226.368,105.917 228.84,106.533 231.311,107.161 233.782,107.801 236.253,108.453 238.724,109.118 241.196,109.796 243.667,110.486 246.138,111.191 248.609,111.908 251.081,112.64 253.552,113.385 256.023,114.145 258.494,114.92 260.965,115.709 263.437,116.513 265.908,117.333 268.379,118.168 270.85,119.019 273.322,119.887 275.793,120.771 278.264,121.671 280.735,122.589 283.206,123.524 285.678,124.477 288.149,125.448 290.62,126.437 293.091,127.445 295.563,128.471 298.034,129.517 300.505,130.583 302.976,131.668 305.448,132.774 307.919,133.9 310.39,135.047 312.861,136.216 315.332,137.406 317.804,138.618 320.275,139.852 322.746,141.11 325.217,142.39 327.689,143.694 330.16,145.022 332.631,146.374 335.102,147.751 337.573,149.153 340.045,150.58 342.516,152.033 344.987,153.513 347.458,155.019 349.93,156.552 352.401,158.113 354.872,159.702 357.343,161.319 359.814,162.965 362.286,164.641 364.757,166.346 367.228,168.081 369.699,169.847 372.171,171.644 374.642,173.472 377.113,175.332 379.584,177.225 382.056,179.15 384.527,181.109 386.998,183.102 389.469,185.129 391.94,187.191 394.412,189.287 396.883,191.42 399.354,193.589 401.825,195.794 404.297,198.037 406.768,200.318 409.239,202.636 411.71,204.993 414.181,207.39 416.653,209.826 419.124,212.302 421.595,214.818 424.066,217.376 426.538,219.975 429.009,222.616 431.48,225.3 433.951,228.027 436.422,230.797 438.894,233.611 441.365,236.469 443.836,239.373 446.307,242.321 448.779,245.315 451.25,248.356 453.721,251.444 456.192,254.578 458.664,257.76 461.135,260.99 463.606,264.269 466.077,267.596 468.548,270.973 471.02,274.399 473.491,277.876 475.962,281.403 478.433,284.982 480.905,288.611 483.376,292.293 485.847,296.026 488.318,299.813 490.789,303.652 493.261,307.544 495.732,311.489 498.203,315.488 500.674,319.541 503.146,323.649 505.617,327.811 508.088,332.027 510.559,336.299 513.03,340.625 515.502,345.007 517.973,349.444 520.444,353.937 522.915,358.486 525.387,363.09 527.858,367.75 530.329,372.467 532.8,377.239 535.272,382.068 537.743,386.953 540.214,391.894 542.685,396.892 545.156,401.945 547.628,407.055 550.099,412.221 552.57,417.443 555.041,422.72 557.513,428.054 559.984,433.442 562.455,438.886 564.926,444.384 567.397,449.938 569.869,455.545 572.34,461.207 574.811,466.922 577.282,472.69 579.754,478.511 582.225,484.385 584.696,490.31 587.167,496.287 589.638,502.314 592.11,508.392 594.581,514.519 597.052,520.696 599.523,526.921 601.995,533.194 604.466,539.513 606.937,545.88 609.408,552.292 611.88,558.748 614.351,565.249 616.822,571.793 619.293,578.38 621.764,585.008 624.236,591.676 626.707,598.385 629.178,605.132 631.649,611.916 634.121,618.738 636.592,625.595 639.063,632.487 641.534,639.412 644.005,646.37 646.477,653.359 648.948,660.378 651.419,667.426 653.89,674.503 656.362,681.607 658.833,688.738 661.304,695.892 663.775,703.07 666.246,710.269 668.718,717.488 671.189,724.727 673.66,731.982 676.131,739.253 678.603,746.539 681.074,753.838 683.545,761.149 686.016,768.471 688.488,775.801 690.959,783.139 693.43,790.484 695.901,797.833 698.372,805.186 700.844,812.541 703.315,819.898 705.786,827.254 708.257,834.608 710.729,841.96 713.2,849.307 715.671,856.649 718.142,863.984 720.613,871.31 723.085,878.628 725.556,885.935 728.027,893.229 730.498,900.511 732.97,907.778 735.441,915.03 737.912,922.265 740.383,929.481 742.854,936.679 745.326,943.855 747.797,951.01 750.268,958.142 752.739,965.25 755.211,972.333 757.682,979.388 760.153,986.417 762.624,993.416 765.096,1000.39 767.567,1007.32 770.038,1014.23 772.509,1021.1 774.98,1027.94 777.452,1034.74 779.923,1041.51 782.394,1048.24 784.865,1054.93 787.337,1061.58 789.808,1068.19 792.279,1074.77 794.75,1081.3 797.221,1087.79 799.693,1094.24 802.164,1100.65 804.635,1107.02 807.106,1113.34 809.578,1119.61 812.049,1125.84 814.52,1132.03 816.991,1138.17 819.462,1144.26 821.934,1150.31 824.405,1156.31 826.876,1162.26 829.347,1168.16 831.819,1174.01 834.29,1179.82 836.761,1185.58 839.232,1191.28 841.704,1196.94 844.175,1202.55 846.646,1208.1 849.117,1213.61 851.588,1219.06 854.06,1224.47 856.531,1229.82 859.002,1235.12 861.473,1240.38 863.945,1245.58 866.416,1250.72 868.887,1255.82 871.358,1260.87 873.829,1265.86 876.301,1270.81 878.772,1275.7 881.243,1280.54 883.714,1285.33 886.186,1290.07 888.657,1294.76 891.128,1299.4 893.599,1303.98 896.07,1308.52 898.542,1313.01 901.013,1317.45 903.484,1321.84 905.955,1326.18 908.427,1330.47 910.898,1334.71 913.369,1338.9 915.84,1343.05 918.312,1347.14 920.783,1351.19 923.254,1355.19 925.725,1359.14 928.196,1363.05 930.668,1366.91 933.139,1370.72 935.61,1374.49 938.081,1378.22 940.553,1381.89 943.024,1385.53 945.495,1389.12 947.966,1392.66 950.437,1396.16 952.909,1399.62 955.38,1403.04 957.851,1406.41 960.322,1409.74 962.794,1413.03 965.265,1416.28 967.736,1419.49 970.207,1422.65 972.678,1425.78 975.15,1428.87 977.621,1431.92 980.092,1434.92 982.563,1437.89 985.035,1440.82 987.506,1443.72 989.977,1446.57 992.448,1449.39 994.92,1452.17 997.391,1454.92 999.862,1457.63 1002.33,1460.3 1004.8,1462.94 1007.28,1465.54 1009.75,1468.11 1012.22,1470.64 1014.69,1473.15 1017.16,1475.61 1019.63,1478.05 1022.1,1480.45 1024.57,1482.82 1027.05,1485.16 1029.52,1487.47 1031.99,1489.74 1034.46,1491.99 1036.93,1494.2 1039.4,1496.39 1041.87,1498.55 1044.34,1500.67 1046.82,1502.77 1049.29,1504.84 1051.76,1506.89 1054.23,1508.9 1056.7,1510.89 1059.17,1512.85 1061.64,1514.79 1064.11,1516.7 1066.59,1518.58 1069.06,1520.44 1071.53,1522.28 1074,1524.09 1076.47,1525.87 1078.94,1527.63 1081.41,1529.37 1083.88,1531.08 1086.35,1532.78 1088.83,1534.44 1091.3,1536.09 1093.77,1537.71 1096.24,1539.32 1098.71,1540.9 1101.18,1542.46 1103.65,1543.99 1106.12,1545.51 1108.6,1547.01 1111.07,1548.49 1113.54,1549.94 1116.01,1551.38 1118.48,1552.8 1120.95,1554.2 1123.42,1555.58 1125.89,1556.94 1128.37,1558.29 1130.84,1559.61 1133.31,1560.92 1135.78,1562.21 1138.25,1563.49 1140.72,1564.74 1143.19,1565.98 1145.66,1567.21 1148.14,1568.41 1150.61,1569.61 1153.08,1570.78 1155.55,1571.94 1158.02,1573.09 1160.49,1574.22 1162.96,1575.33 1165.43,1576.43 1167.91,1577.52 1170.38,1578.59 1172.85,1579.65 1175.32,1580.69 1177.79,1581.72 1180.26,1582.74 1182.73,1583.74 1185.2,1584.73 1187.68,1585.71 1190.15,1586.67 1192.62,1587.63 1195.09,1588.57 1197.56,1589.49 1200.03,1590.41 1202.5,1591.31 1204.97,1592.21 1207.44,1593.09 1209.92,1593.96 1212.39,1594.81 1214.86,1595.66 1217.33,1596.5 1219.8,1597.32 1222.27,1598.14 1224.74,1598.94 1227.21,1599.74 1229.69,1600.52 1232.16,1601.3 1234.63,1602.06 1237.1,1602.82 1239.57,1603.56 1242.04,1604.3 1244.51,1605.02 1246.98,1605.74 1249.46,1606.45 1251.93,1607.15 1254.4,1607.84 1256.87,1608.52 1259.34,1609.2 1261.81,1609.86 1264.28,1610.52 1266.75,1611.17 1269.23,1611.81 1271.7,1612.45 1274.17,1613.07 1276.64,1613.69 1279.11,1614.3 1281.58,1614.9 1284.05,1615.5 1286.52,1616.09 1289,1616.67 1291.47,1617.24 1293.94,1617.81 1296.41,1618.37 1298.88,1618.92 1301.35,1619.47 1303.82,1620.01 1306.29,1620.54 1308.77,1621.07 1311.24,1621.59 1313.71,1622.1 1316.18,1622.61 1318.65,1623.12 1321.12,1623.61 1323.59,1624.1 1326.06,1624.59 1328.53,1625.07 1331.01,1625.54 1333.48,1626.01 1335.95,1626.47 1338.42,1626.93 1340.89,1627.38 1343.36,1627.83 1345.83,1628.27 1348.3,1628.71 1350.78,1629.14 1353.25,1629.57 1355.72,1629.99 1358.19,1630.41 1360.66,1630.82 1363.13,1631.23 1365.6,1631.63 1368.07,1632.03 1370.55,1632.42 1373.02,1632.81 1375.49,1633.19 1377.96,1633.57 1380.43,1633.95 1382.9,1634.32 1385.37,1634.69 1387.84,1635.05 1390.32,1635.41 1392.79,1635.77 1395.26,1636.12 1397.73,1636.47 1400.2,1636.81 1402.67,1637.15 1405.14,1637.49 1407.61,1637.82 1410.09,1638.15 1412.56,1638.47 1415.03,1638.79 1417.5,1639.11 1419.97,1639.43 1422.44,1639.74 1424.91,1640.05 1427.38,1640.35 1429.86,1640.65 1432.33,1640.95 1434.8,1641.24 1437.27,1641.53 1439.74,1641.82 1442.21,1642.11 1444.68,1642.39 1447.15,1642.67 1449.63,1642.95 1452.1,1643.22 1454.57,1643.49 1457.04,1643.76 1459.51,1644.02 1461.98,1644.28 1464.45,1644.54 1466.92,1644.8 1469.39,1645.05 1471.87,1645.3 1474.34,1645.55 1476.81,1645.8 1479.28,1646.04 1481.75,1646.28 1484.22,1646.52 1486.69,1646.76 1489.16,1646.99 1491.64,1647.22 1494.11,1647.45 1496.58,1647.68 1499.05,1647.9 1501.52,1648.12 1503.99,1648.34 1506.46,1648.56 1508.93,1648.77 1511.41,1648.99 1513.88,1649.2 1516.35,1649.41 1518.82,1649.61 1521.29,1649.82 1523.76,1650.02 1526.23,1650.22 1528.7,1650.42 1531.18,1650.62 1533.65,1650.81 1536.12,1651 1538.59,1651.19 1541.06,1651.38 1543.53,1651.57 1546,1651.76 1548.47,1651.94 1550.95,1652.12 1553.42,1652.3 1555.89,1652.48 1558.36,1652.66 1560.83,1652.83 1563.3,1653 1565.77,1653.18 1568.24,1653.35 1570.72,1653.52 1573.19,1653.68 1575.66,1653.85 1578.13,1654.01 1580.6,1654.17 1583.07,1654.33 1585.54,1654.49 1588.01,1654.65 1590.48,1654.81 1592.96,1654.96 1595.43,1655.11 1597.9,1655.26 1600.37,1655.42 1602.84,1655.56 1605.31,1655.71 1607.78,1655.86 1610.25,1656 1612.73,1656.15 1615.2,1656.29 1617.67,1656.43 1620.14,1656.57 1622.61,1656.71 1625.08,1656.84 1627.55,1656.98 1630.02,1657.11 1632.5,1657.25 1634.97,1657.38 1637.44,1657.51 1639.91,1657.64 1642.38,1657.77 1644.85,1657.89 1647.32,1658.02 1649.79,1658.15 1652.27,1658.27 1654.74,1658.39 1657.21,1658.51 1659.68,1658.63 1662.15,1658.75 1664.62,1658.87 1667.09,1658.99 1669.56,1659.11 1672.04,1659.22 1674.51,1659.34 1676.98,1659.45 1679.45,1659.56 1681.92,1659.67 1684.39,1659.78 1686.86,1659.89 1689.33,1660 1691.81,1660.11 1694.28,1660.21 1696.75,1660.32 1699.22,1660.43 1701.69,1660.53 1704.16,1660.63 1706.63,1660.73 1709.1,1660.84 1711.57,1660.94 1714.05,1661.04 1716.52,1661.13 1718.99,1661.23 1721.46,1661.33 1723.93,1661.42 1726.4,1661.52 1728.87,1661.61 1731.34,1661.71 1733.82,1661.8 1736.29,1661.89 1738.76,1661.98 1741.23,1662.08 1743.7,1662.17 1746.17,1662.25 1748.64,1662.34 1751.11,1662.43 1753.59,1662.52 1756.06,1662.6 1758.53,1662.69 1761,1662.77 1763.47,1662.86 1765.94,1662.94 1768.41,1663.02 1770.88,1663.11 1773.36,1663.19 1775.83,1663.27 1778.3,1663.35 1780.77,1663.43 1783.24,1663.51 1785.71,1663.59 1788.18,1663.66 1790.65,1663.74 1793.13,1663.82 1795.6,1663.89 1798.07,1663.97 1800.54,1664.04 1803.01,1664.12 1805.48,1664.19 1807.95,1664.26 1810.42,1664.34 1812.9,1664.41 1815.37,1664.48 1817.84,1664.55 1820.31,1664.62 1822.78,1664.69 1825.25,1664.76 1827.72,1664.83 1830.19,1664.89 1832.67,1664.96 1835.14,1665.03 1837.61,1665.09 1840.08,1665.16 1842.55,1665.22 1845.02,1665.29 1847.49,1665.35 1849.96,1665.42 1852.43,1665.48 1854.91,1665.54 1857.38,1665.61 1859.85,1665.67 1862.32,1665.73 1864.79,1665.79 1867.26,1665.85 1869.73,1665.91 1872.2,1665.97 1874.68,1666.03 1877.15,1666.09 1879.62,1666.15 1882.09,1666.2 1884.56,1666.26 1887.03,1666.32 1889.5,1666.37 1891.97,1666.43 1894.45,1666.49 1896.92,1666.54 1899.39,1666.6 1901.86,1666.65 1904.33,1666.7 1906.8,1666.76 1909.27,1666.81 1911.74,1666.86 1914.22,1666.92 1916.69,1666.97 1919.16,1667.02 1921.63,1667.07 1924.1,1667.12 1926.57,1667.17 1929.04,1667.22 1931.51,1667.27 1933.99,1667.32 1936.46,1667.37 1938.93,1667.42 1941.4,1667.47 1943.87,1667.52 1946.34,1667.56 1948.81,1667.61 1951.28,1667.66 1953.76,1667.7 1956.23,1667.75 1958.7,1667.8 1961.17,1667.84 1963.64,1667.89 1966.11,1667.93 1968.58,1667.98 1971.05,1668.02 1973.52,1668.06 1976,1668.11 1978.47,1668.15 1980.94,1668.19 1983.41,1668.24 1985.88,1668.28 1988.35,1668.32 1990.82,1668.36 1993.29,1668.41 1995.77,1668.45 1998.24,1668.49 2000.71,1668.53 2003.18,1668.57 2005.65,1668.61 2008.12,1668.65 2010.59,1668.69 2013.06,1668.73 2015.54,1668.77 2018.01,1668.81 2020.48,1668.84 2022.95,1668.88 2025.42,1668.92 2027.89,1668.96 2030.36,1669 2032.83,1669.03 2035.31,1669.07 2037.78,1669.11 2040.25,1669.14 2042.72,1669.18 2045.19,1669.21 2047.66,1669.25 2050.13,1669.29 2052.6,1669.32 2055.08,1669.36 2057.55,1669.39 2060.02,1669.43 2062.49,1669.46 2064.96,1669.49 2067.43,1669.53 2069.9,1669.56 2072.37,1669.59 2074.85,1669.63 2077.32,1669.66 2079.79,1669.69 2082.26,1669.73 2084.73,1669.76 2087.2,1669.79 2089.67,1669.82 2092.14,1669.85 2094.62,1669.88 2097.09,1669.92 2099.56,1669.95 2102.03,1669.98 2104.5,1670.01 2106.97,1670.04 2109.44,1670.07 2111.91,1670.1 2114.38,1670.13 2116.86,1670.16 2119.33,1670.19 2121.8,1670.22 2124.27,1670.25 2126.74,1670.28 2129.21,1670.3 2131.68,1670.33 2134.15,1670.36 2136.63,1670.39 2139.1,1670.42 2141.57,1670.44 2144.04,1670.47 2146.51,1670.5 2148.98,1670.53 2151.45,1670.55 2153.92,1670.58 2156.4,1670.61 2158.87,1670.63 2161.34,1670.66 2163.81,1670.69 2166.28,1670.71 2168.75,1670.74 2171.22,1670.76 2173.69,1670.79 2176.17,1670.81 2178.64,1670.84 2181.11,1670.86 2183.58,1670.89 2186.05,1670.91 2188.52,1670.94 2190.99,1670.96 2193.46,1670.99 2195.94,1671.01 2198.41,1671.04 2200.88,1671.06 2203.35,1671.08 2205.82,1671.11 2208.29,1671.13 2210.76,1671.15 2213.23,1671.18 2215.71,1671.2 2218.18,1671.22 2220.65,1671.24 2223.12,1671.27 2225.59,1671.29 2228.06,1671.31 2230.53,1671.33 2233,1671.35 2235.47,1671.38 2237.95,1671.4 2240.42,1671.42 2242.89,1671.44 2245.36,1671.46 2247.83,1671.48 2250.3,1671.5 2252.77,1671.53 2255.24,1671.55 2257.72,1671.57 2260.19,1671.59 2262.66,1671.61 2265.13,1671.63 2267.6,1671.65 2270.07,1671.67 2272.54,1671.69 2275.01,1671.71 2277.49,1671.73 2279.96,1671.75 2282.43,1671.77 2284.9,1671.78 2287.37,1671.8 2289.84,1671.82 2292.31,1671.84 2294.78,1671.86 2297.26,1671.88 2299.73,1671.9 2302.2,1671.92 2304.67,1671.93 2307.14,1671.95 2309.61,1671.97 2312.08,1671.99 2314.55,1672.01 2317.03,1672.02 2319.5,1672.04 2321.97,1672.06 2324.44,1672.08 2326.91,1672.09 2329.38,1672.11 2331.85,1672.13 2334.32,1672.15 2336.8,1672.16 2339.27,1672.18 2341.74,1672.2 2344.21,1672.21 2346.68,1672.23 2349.15,1672.25 2351.62,1672.26 2354.09,1672.28 2356.56,1672.3 2359.04,1672.31 2361.51,1672.33 2363.98,1672.34 2366.45,1672.36 2368.92,1672.37 2371.39,1672.39 2373.86,1672.41 2376.33,1672.42 2378.81,1672.44 2381.28,1672.45 2383.75,1672.47 2386.22,1672.48 2388.69,1672.5 2391.16,1672.51 2393.63,1672.53 2396.1,1672.54 2398.58,1672.56 2401.05,1672.57 2403.52,1672.59 2405.99,1672.6 2408.46,1672.61 2410.93,1672.63 2413.4,1672.64 2415.87,1672.66 2418.35,1672.67 2420.82,1672.68 2423.29,1672.7 2425.76,1672.71 2428.23,1672.73 2430.7,1672.74 2433.17,1672.75 2435.64,1672.77 2438.12,1672.78 2440.59,1672.79 2443.06,1672.81 2445.53,1672.82 2448,1672.83 2450.47,1672.84 2452.94,1672.86 2455.41,1672.87 2457.89,1672.88 2460.36,1672.9 2462.83,1672.91 2465.3,1672.92 2467.77,1672.93 2470.24,1672.95 2472.71,1672.96 2475.18,1672.97 2477.66,1672.98 2480.13,1672.99 2482.6,1673.01 2485.07,1673.02 2487.54,1673.03 2490.01,1673.04 2492.48,1673.05 2494.95,1673.07 2497.42,1673.08 2499.9,1673.09 2502.37,1673.1 2504.84,1673.11 2507.31,1673.12 2509.78,1673.13 2512.25,1673.15 2514.72,1673.16 2517.19,1673.17 2519.67,1673.18 2522.14,1673.19 2524.61,1673.2 2527.08,1673.21 2529.55,1673.22 2532.02,1673.23 2534.49,1673.24 2536.96,1673.25 2539.44,1673.27 2541.91,1673.28 2544.38,1673.29 2546.85,1673.3 2549.32,1673.31 2551.79,1673.32 2554.26,1673.33 2556.73,1673.34 2559.21,1673.35 2561.68,1673.36 2564.15,1673.37 2566.62,1673.38 2569.09,1673.39 2571.56,1673.4 2574.03,1673.41 2576.5,1673.42 2578.98,1673.43 2581.45,1673.44 2583.92,1673.45 2586.39,1673.46 2588.86,1673.46 2591.33,1673.47 2593.8,1673.48 2596.27,1673.49 2598.75,1673.5 2601.22,1673.51 2603.69,1673.52 2606.16,1673.53 2608.63,1673.54 2611.1,1673.55 2613.57,1673.56 2616.04,1673.57 2618.51,1673.57 2620.99,1673.58 2623.46,1673.59 2625.93,1673.6 2628.4,1673.61 2630.87,1673.62 2633.34,1673.63 2635.81,1673.63 2638.28,1673.64 2640.76,1673.65 "/>
<polyline clip-path="url(#clip962)" style="stroke:#ac8d18; stroke-linecap:round; stroke-linejoin:round; stroke-width:4; stroke-opacity:1; fill:none" points="172.001,1670.3 174.473,1669.98 176.944,1669.65 179.415,1669.32 181.886,1668.98 184.357,1668.63 186.829,1668.28 189.3,1667.92 191.771,1667.55 194.242,1667.18 196.714,1666.79 199.185,1666.4 201.656,1666.01 204.127,1665.6 206.598,1665.19 209.07,1664.77 211.541,1664.34 214.012,1663.9 216.483,1663.46 218.955,1663 221.426,1662.54 223.897,1662.07 226.368,1661.59 228.84,1661.09 231.311,1660.59 233.782,1660.09 236.253,1659.57 238.724,1659.04 241.196,1658.5 243.667,1657.95 246.138,1657.39 248.609,1656.82 251.081,1656.23 253.552,1655.64 256.023,1655.04 258.494,1654.42 260.965,1653.79 263.437,1653.15 265.908,1652.5 268.379,1651.84 270.85,1651.16 273.322,1650.47 275.793,1649.77 278.264,1649.05 280.735,1648.32 283.206,1647.58 285.678,1646.82 288.149,1646.05 290.62,1645.27 293.091,1644.47 295.563,1643.65 298.034,1642.82 300.505,1641.98 302.976,1641.12 305.448,1640.24 307.919,1639.35 310.39,1638.44 312.861,1637.51 315.332,1636.57 317.804,1635.61 320.275,1634.63 322.746,1633.63 325.217,1632.62 327.689,1631.59 330.16,1630.54 332.631,1629.47 335.102,1628.38 337.573,1627.27 340.045,1626.14 342.516,1624.99 344.987,1623.82 347.458,1622.63 349.93,1621.42 352.401,1620.19 354.872,1618.93 357.343,1617.66 359.814,1616.36 362.286,1615.03 364.757,1613.69 367.228,1612.32 369.699,1610.93 372.171,1609.51 374.642,1608.07 377.113,1606.61 379.584,1605.12 382.056,1603.61 384.527,1602.06 386.998,1600.5 389.469,1598.9 391.94,1597.28 394.412,1595.64 396.883,1593.96 399.354,1592.26 401.825,1590.53 404.297,1588.77 406.768,1586.99 409.239,1585.17 411.71,1583.32 414.181,1581.45 416.653,1579.54 419.124,1577.6 421.595,1575.64 424.066,1573.64 426.538,1571.61 429.009,1569.55 431.48,1567.45 433.951,1565.33 436.422,1563.17 438.894,1560.98 441.365,1558.75 443.836,1556.49 446.307,1554.2 448.779,1551.87 451.25,1549.51 453.721,1547.11 456.192,1544.68 458.664,1542.22 461.135,1539.71 463.606,1537.18 466.077,1534.6 468.548,1531.99 471.02,1529.34 473.491,1526.66 475.962,1523.94 478.433,1521.18 480.905,1518.38 483.376,1515.55 485.847,1512.68 488.318,1509.77 490.789,1506.82 493.261,1503.84 495.732,1500.81 498.203,1497.75 500.674,1494.65 503.146,1491.51 505.617,1488.33 508.088,1485.11 510.559,1481.86 513.03,1478.56 515.502,1475.23 517.973,1471.86 520.444,1468.44 522.915,1465 525.387,1461.51 527.858,1457.98 530.329,1454.42 532.8,1450.82 535.272,1447.17 537.743,1443.5 540.214,1439.78 542.685,1436.03 545.156,1432.23 547.628,1428.41 550.099,1424.54 552.57,1420.64 555.041,1416.7 557.513,1412.73 559.984,1408.72 562.455,1404.67 564.926,1400.6 567.397,1396.48 569.869,1392.34 572.34,1388.16 574.811,1383.95 577.282,1379.7 579.754,1375.43 582.225,1371.12 584.696,1366.78 587.167,1362.42 589.638,1358.02 592.11,1353.6 594.581,1349.15 597.052,1344.67 599.523,1340.17 601.995,1335.64 604.466,1331.09 606.937,1326.51 609.408,1321.91 611.88,1317.29 614.351,1312.65 616.822,1307.99 619.293,1303.31 621.764,1298.61 624.236,1293.89 626.707,1289.16 629.178,1284.41 631.649,1279.65 634.121,1274.88 636.592,1270.09 639.063,1265.29 641.534,1260.49 644.005,1255.67 646.477,1250.85 648.948,1246.03 651.419,1241.19 653.89,1236.36 656.362,1231.52 658.833,1226.68 661.304,1221.83 663.775,1216.99 666.246,1212.16 668.718,1207.32 671.189,1202.5 673.66,1197.67 676.131,1192.86 678.603,1188.06 681.074,1183.27 683.545,1178.48 686.016,1173.72 688.488,1168.97 690.959,1164.23 693.43,1159.51 695.901,1154.81 698.372,1150.13 700.844,1145.47 703.315,1140.83 705.786,1136.22 708.257,1131.63 710.729,1127.06 713.2,1122.53 715.671,1118.02 718.142,1113.54 720.613,1109.09 723.085,1104.67 725.556,1100.29 728.027,1095.94 730.498,1091.62 732.97,1087.34 735.441,1083.1 737.912,1078.89 740.383,1074.73 742.854,1070.6 745.326,1066.52 747.797,1062.47 750.268,1058.47 752.739,1054.52 755.211,1050.61 757.682,1046.74 760.153,1042.93 762.624,1039.16 765.096,1035.44 767.567,1031.77 770.038,1028.14 772.509,1024.58 774.98,1021.06 777.452,1017.6 779.923,1014.19 782.394,1010.83 784.865,1007.53 787.337,1004.28 789.808,1001.09 792.279,997.954 794.75,994.874 797.221,991.851 799.693,988.885 802.164,985.977 804.635,983.125 807.106,980.332 809.578,977.597 812.049,974.92 814.52,972.302 816.991,969.743 819.462,967.243 821.934,964.802 824.405,962.421 826.876,960.099 829.347,957.837 831.819,955.634 834.29,953.491 836.761,951.408 839.232,949.385 841.704,947.421 844.175,945.517 846.646,943.673 849.117,941.888 851.588,940.163 854.06,938.497 856.531,936.89 859.002,935.343 861.473,933.854 863.945,932.424 866.416,931.052 868.887,929.738 871.358,928.482 873.829,927.283 876.301,926.141 878.772,925.057 881.243,924.029 883.714,923.056 886.186,922.14 888.657,921.278 891.128,920.472 893.599,919.719 896.07,919.02 898.542,918.374 901.013,917.781 903.484,917.24 905.955,916.751 908.427,916.313 910.898,915.927 913.369,915.591 915.84,915.305 918.312,915.069 920.783,914.881 923.254,914.742 925.725,914.65 928.196,914.606 930.668,914.608 933.139,914.655 935.61,914.749 938.081,914.887 940.553,915.069 943.024,915.295 945.495,915.563 947.966,915.875 950.437,916.228 952.909,916.623 955.38,917.058 957.851,917.533 960.322,918.049 962.794,918.603 965.265,919.196 967.736,919.826 970.207,920.494 972.678,921.199 975.15,921.94 977.621,922.717 980.092,923.529 982.563,924.376 985.035,925.257 987.506,926.171 989.977,927.118 992.448,928.098 994.92,929.109 997.391,930.152 999.862,931.226 1002.33,932.329 1004.8,933.463 1007.28,934.625 1009.75,935.817 1012.22,937.036 1014.69,938.283 1017.16,939.557 1019.63,940.857 1022.1,942.184 1024.57,943.535 1027.05,944.912 1029.52,946.313 1031.99,947.738 1034.46,949.186 1036.93,950.657 1039.4,952.15 1041.87,953.665 1044.34,955.201 1046.82,956.758 1049.29,958.335 1051.76,959.932 1054.23,961.548 1056.7,963.182 1059.17,964.835 1061.64,966.506 1064.11,968.195 1066.59,969.9 1069.06,971.622 1071.53,973.361 1074,975.115 1076.47,976.885 1078.94,978.67 1081.41,980.47 1083.88,982.283 1086.35,984.111 1088.83,985.953 1091.3,987.808 1093.77,989.675 1096.24,991.555 1098.71,993.447 1101.18,995.351 1103.65,997.266 1106.12,999.193 1108.6,1001.13 1111.07,1003.08 1113.54,1005.04 1116.01,1007 1118.48,1008.98 1120.95,1010.97 1123.42,1012.96 1125.89,1014.96 1128.37,1016.97 1130.84,1018.99 1133.31,1021.02 1135.78,1023.05 1138.25,1025.1 1140.72,1027.14 1143.19,1029.2 1145.66,1031.26 1148.14,1033.32 1150.61,1035.4 1153.08,1037.47 1155.55,1039.56 1158.02,1041.64 1160.49,1043.74 1162.96,1045.83 1165.43,1047.93 1167.91,1050.04 1170.38,1052.15 1172.85,1054.26 1175.32,1056.37 1177.79,1058.49 1180.26,1060.61 1182.73,1062.73 1185.2,1064.86 1187.68,1066.99 1190.15,1069.12 1192.62,1071.25 1195.09,1073.38 1197.56,1075.52 1200.03,1077.66 1202.5,1079.79 1204.97,1081.93 1207.44,1084.07 1209.92,1086.21 1212.39,1088.35 1214.86,1090.49 1217.33,1092.63 1219.8,1094.77 1222.27,1096.91 1224.74,1099.05 1227.21,1101.19 1229.69,1103.33 1232.16,1105.47 1234.63,1107.61 1237.1,1109.74 1239.57,1111.88 1242.04,1114.01 1244.51,1116.14 1246.98,1118.27 1249.46,1120.4 1251.93,1122.53 1254.4,1124.66 1256.87,1126.78 1259.34,1128.9 1261.81,1131.02 1264.28,1133.14 1266.75,1135.25 1269.23,1137.36 1271.7,1139.47 1274.17,1141.58 1276.64,1143.68 1279.11,1145.78 1281.58,1147.88 1284.05,1149.98 1286.52,1152.07 1289,1154.16 1291.47,1156.24 1293.94,1158.32 1296.41,1160.4 1298.88,1162.47 1301.35,1164.54 1303.82,1166.61 1306.29,1168.67 1308.77,1170.73 1311.24,1172.79 1313.71,1174.84 1316.18,1176.88 1318.65,1178.93 1321.12,1180.96 1323.59,1183 1326.06,1185.03 1328.53,1187.05 1331.01,1189.07 1333.48,1191.09 1335.95,1193.1 1338.42,1195.11 1340.89,1197.11 1343.36,1199.1 1345.83,1201.1 1348.3,1203.08 1350.78,1205.07 1353.25,1207.04 1355.72,1209.02 1358.19,1210.98 1360.66,1212.95 1363.13,1214.9 1365.6,1216.85 1368.07,1218.8 1370.55,1220.74 1373.02,1222.68 1375.49,1224.61 1377.96,1226.54 1380.43,1228.46 1382.9,1230.37 1385.37,1232.28 1387.84,1234.19 1390.32,1236.09 1392.79,1237.98 1395.26,1239.87 1397.73,1241.75 1400.2,1243.63 1402.67,1245.5 1405.14,1247.36 1407.61,1249.22 1410.09,1251.08 1412.56,1252.93 1415.03,1254.77 1417.5,1256.61 1419.97,1258.44 1422.44,1260.27 1424.91,1262.09 1427.38,1263.9 1429.86,1265.71 1432.33,1267.51 1434.8,1269.31 1437.27,1271.1 1439.74,1272.89 1442.21,1274.67 1444.68,1276.44 1447.15,1278.21 1449.63,1279.97 1452.1,1281.73 1454.57,1283.48 1457.04,1285.22 1459.51,1286.96 1461.98,1288.69 1464.45,1290.42 1466.92,1292.14 1469.39,1293.86 1471.87,1295.57 1474.34,1297.27 1476.81,1298.97 1479.28,1300.66 1481.75,1302.34 1484.22,1304.02 1486.69,1305.7 1489.16,1307.37 1491.64,1309.03 1494.11,1310.68 1496.58,1312.33 1499.05,1313.98 1501.52,1315.62 1503.99,1317.25 1506.46,1318.87 1508.93,1320.49 1511.41,1322.11 1513.88,1323.72 1516.35,1325.32 1518.82,1326.92 1521.29,1328.51 1523.76,1330.09 1526.23,1331.67 1528.7,1333.24 1531.18,1334.81 1533.65,1336.37 1536.12,1337.93 1538.59,1339.47 1541.06,1341.02 1543.53,1342.56 1546,1344.09 1548.47,1345.61 1550.95,1347.13 1553.42,1348.65 1555.89,1350.15 1558.36,1351.66 1560.83,1353.15 1563.3,1354.64 1565.77,1356.13 1568.24,1357.61 1570.72,1359.08 1573.19,1360.55 1575.66,1362.01 1578.13,1363.47 1580.6,1364.92 1583.07,1366.36 1585.54,1367.8 1588.01,1369.23 1590.48,1370.66 1592.96,1372.08 1595.43,1373.5 1597.9,1374.91 1600.37,1376.32 1602.84,1377.72 1605.31,1379.11 1607.78,1380.5 1610.25,1381.88 1612.73,1383.26 1615.2,1384.63 1617.67,1386 1620.14,1387.36 1622.61,1388.71 1625.08,1390.06 1627.55,1391.41 1630.02,1392.74 1632.5,1394.08 1634.97,1395.4 1637.44,1396.73 1639.91,1398.04 1642.38,1399.36 1644.85,1400.66 1647.32,1401.96 1649.79,1403.26 1652.27,1404.55 1654.74,1405.83 1657.21,1407.11 1659.68,1408.38 1662.15,1409.65 1664.62,1410.92 1667.09,1412.18 1669.56,1413.43 1672.04,1414.68 1674.51,1415.92 1676.98,1417.16 1679.45,1418.39 1681.92,1419.61 1684.39,1420.84 1686.86,1422.05 1689.33,1423.26 1691.81,1424.47 1694.28,1425.67 1696.75,1426.87 1699.22,1428.06 1701.69,1429.25 1704.16,1430.43 1706.63,1431.6 1709.1,1432.77 1711.57,1433.94 1714.05,1435.1 1716.52,1436.26 1718.99,1437.41 1721.46,1438.55 1723.93,1439.7 1726.4,1440.83 1728.87,1441.96 1731.34,1443.09 1733.82,1444.21 1736.29,1445.33 1738.76,1446.44 1741.23,1447.55 1743.7,1448.65 1746.17,1449.75 1748.64,1450.84 1751.11,1451.93 1753.59,1453.01 1756.06,1454.09 1758.53,1455.17 1761,1456.24 1763.47,1457.3 1765.94,1458.36 1768.41,1459.42 1770.88,1460.47 1773.36,1461.52 1775.83,1462.56 1778.3,1463.6 1780.77,1464.63 1783.24,1465.66 1785.71,1466.68 1788.18,1467.7 1790.65,1468.71 1793.13,1469.73 1795.6,1470.73 1798.07,1471.73 1800.54,1472.73 1803.01,1473.72 1805.48,1474.71 1807.95,1475.69 1810.42,1476.67 1812.9,1477.65 1815.37,1478.62 1817.84,1479.59 1820.31,1480.55 1822.78,1481.51 1825.25,1482.46 1827.72,1483.41 1830.19,1484.36 1832.67,1485.3 1835.14,1486.24 1837.61,1487.17 1840.08,1488.1 1842.55,1489.02 1845.02,1489.94 1847.49,1490.86 1849.96,1491.77 1852.43,1492.68 1854.91,1493.59 1857.38,1494.49 1859.85,1495.38 1862.32,1496.28 1864.79,1497.16 1867.26,1498.05 1869.73,1498.93 1872.2,1499.81 1874.68,1500.68 1877.15,1501.55 1879.62,1502.41 1882.09,1503.27 1884.56,1504.13 1887.03,1504.98 1889.5,1505.83 1891.97,1506.68 1894.45,1507.52 1896.92,1508.36 1899.39,1509.19 1901.86,1510.02 1904.33,1510.85 1906.8,1511.67 1909.27,1512.49 1911.74,1513.31 1914.22,1514.12 1916.69,1514.93 1919.16,1515.73 1921.63,1516.53 1924.1,1517.33 1926.57,1518.12 1929.04,1518.91 1931.51,1519.7 1933.99,1520.48 1936.46,1521.26 1938.93,1522.04 1941.4,1522.81 1943.87,1523.58 1946.34,1524.34 1948.81,1525.11 1951.28,1525.86 1953.76,1526.62 1956.23,1527.37 1958.7,1528.12 1961.17,1528.86 1963.64,1529.6 1966.11,1530.34 1968.58,1531.08 1971.05,1531.81 1973.52,1532.54 1976,1533.26 1978.47,1533.98 1980.94,1534.7 1983.41,1535.41 1985.88,1536.12 1988.35,1536.83 1990.82,1537.54 1993.29,1538.24 1995.77,1538.94 1998.24,1539.63 2000.71,1540.32 2003.18,1541.01 2005.65,1541.7 2008.12,1542.38 2010.59,1543.06 2013.06,1543.74 2015.54,1544.41 2018.01,1545.08 2020.48,1545.75 2022.95,1546.41 2025.42,1547.07 2027.89,1547.73 2030.36,1548.38 2032.83,1549.04 2035.31,1549.69 2037.78,1550.33 2040.25,1550.97 2042.72,1551.61 2045.19,1552.25 2047.66,1552.88 2050.13,1553.52 2052.6,1554.14 2055.08,1554.77 2057.55,1555.39 2060.02,1556.01 2062.49,1556.63 2064.96,1557.24 2067.43,1557.85 2069.9,1558.46 2072.37,1559.07 2074.85,1559.67 2077.32,1560.27 2079.79,1560.86 2082.26,1561.46 2084.73,1562.05 2087.2,1562.64 2089.67,1563.22 2092.14,1563.81 2094.62,1564.39 2097.09,1564.97 2099.56,1565.54 2102.03,1566.11 2104.5,1566.68 2106.97,1567.25 2109.44,1567.82 2111.91,1568.38 2114.38,1568.94 2116.86,1569.49 2119.33,1570.05 2121.8,1570.6 2124.27,1571.15 2126.74,1571.7 2129.21,1572.24 2131.68,1572.78 2134.15,1573.32 2136.63,1573.86 2139.1,1574.39 2141.57,1574.92 2144.04,1575.45 2146.51,1575.98 2148.98,1576.5 2151.45,1577.02 2153.92,1577.54 2156.4,1578.06 2158.87,1578.57 2161.34,1579.09 2163.81,1579.6 2166.28,1580.1 2168.75,1580.61 2171.22,1581.11 2173.69,1581.61 2176.17,1582.11 2178.64,1582.6 2181.11,1583.1 2183.58,1583.59 2186.05,1584.08 2188.52,1584.56 2190.99,1585.05 2193.46,1585.53 2195.94,1586.01 2198.41,1586.49 2200.88,1586.96 2203.35,1587.43 2205.82,1587.9 2208.29,1588.37 2210.76,1588.84 2213.23,1589.3 2215.71,1589.76 2218.18,1590.22 2220.65,1590.68 2223.12,1591.14 2225.59,1591.59 2228.06,1592.04 2230.53,1592.49 2233,1592.94 2235.47,1593.38 2237.95,1593.83 2240.42,1594.27 2242.89,1594.7 2245.36,1595.14 2247.83,1595.58 2250.3,1596.01 2252.77,1596.44 2255.24,1596.87 2257.72,1597.29 2260.19,1597.72 2262.66,1598.14 2265.13,1598.56 2267.6,1598.98 2270.07,1599.39 2272.54,1599.81 2275.01,1600.22 2277.49,1600.63 2279.96,1601.04 2282.43,1601.45 2284.9,1601.85 2287.37,1602.25 2289.84,1602.66 2292.31,1603.05 2294.78,1603.45 2297.26,1603.85 2299.73,1604.24 2302.2,1604.63 2304.67,1605.02 2307.14,1605.41 2309.61,1605.8 2312.08,1606.18 2314.55,1606.56 2317.03,1606.94 2319.5,1607.32 2321.97,1607.7 2324.44,1608.07 2326.91,1608.45 2329.38,1608.82 2331.85,1609.19 2334.32,1609.56 2336.8,1609.92 2339.27,1610.29 2341.74,1610.65 2344.21,1611.01 2346.68,1611.37 2349.15,1611.73 2351.62,1612.09 2354.09,1612.44 2356.56,1612.8 2359.04,1613.15 2361.51,1613.5 2363.98,1613.84 2366.45,1614.19 2368.92,1614.53 2371.39,1614.88 2373.86,1615.22 2376.33,1615.56 2378.81,1615.9 2381.28,1616.23 2383.75,1616.57 2386.22,1616.9 2388.69,1617.23 2391.16,1617.56 2393.63,1617.89 2396.1,1618.22 2398.58,1618.55 2401.05,1618.87 2403.52,1619.19 2405.99,1619.51 2408.46,1619.83 2410.93,1620.15 2413.4,1620.47 2415.87,1620.78 2418.35,1621.1 2420.82,1621.41 2423.29,1621.72 2425.76,1622.03 2428.23,1622.34 2430.7,1622.64 2433.17,1622.95 2435.64,1623.25 2438.12,1623.55 2440.59,1623.85 2443.06,1624.15 2445.53,1624.45 2448,1624.74 2450.47,1625.04 2452.94,1625.33 2455.41,1625.62 2457.89,1625.92 2460.36,1626.2 2462.83,1626.49 2465.3,1626.78 2467.77,1627.06 2470.24,1627.35 2472.71,1627.63 2475.18,1627.91 2477.66,1628.19 2480.13,1628.47 2482.6,1628.75 2485.07,1629.02 2487.54,1629.3 2490.01,1629.57 2492.48,1629.84 2494.95,1630.11 2497.42,1630.38 2499.9,1630.65 2502.37,1630.92 2504.84,1631.18 2507.31,1631.45 2509.78,1631.71 2512.25,1631.97 2514.72,1632.23 2517.19,1632.49 2519.67,1632.75 2522.14,1633.01 2524.61,1633.26 2527.08,1633.52 2529.55,1633.77 2532.02,1634.02 2534.49,1634.27 2536.96,1634.52 2539.44,1634.77 2541.91,1635.02 2544.38,1635.26 2546.85,1635.51 2549.32,1635.75 2551.79,1635.99 2554.26,1636.23 2556.73,1636.47 2559.21,1636.71 2561.68,1636.95 2564.15,1637.19 2566.62,1637.42 2569.09,1637.66 2571.56,1637.89 2574.03,1638.12 2576.5,1638.36 2578.98,1638.59 2581.45,1638.81 2583.92,1639.04 2586.39,1639.27 2588.86,1639.49 2591.33,1639.72 2593.8,1639.94 2596.27,1640.17 2598.75,1640.39 2601.22,1640.61 2603.69,1640.83 2606.16,1641.05 2608.63,1641.26 2611.1,1641.48 2613.57,1641.69 2616.04,1641.91 2618.51,1642.12 2620.99,1642.33 2623.46,1642.54 2625.93,1642.75 2628.4,1642.96 2630.87,1643.17 2633.34,1643.38 2635.81,1643.59 2638.28,1643.79 2640.76,1643.99 "/>
<polyline clip-path="url(#clip962)" style="stroke:#00a9ad; stroke-linecap:round; stroke-linejoin:round; stroke-width:4; stroke-opacity:1; fill:none" points="172.001,1686.38 174.473,1686.29 176.944,1686.21 179.415,1686.13 181.886,1686.04 184.357,1685.95 186.829,1685.86 189.3,1685.77 191.771,1685.68 194.242,1685.58 196.714,1685.49 199.185,1685.39 201.656,1685.29 204.127,1685.18 206.598,1685.08 209.07,1684.97 211.541,1684.86 214.012,1684.75 216.483,1684.64 218.955,1684.52 221.426,1684.4 223.897,1684.28 226.368,1684.16 228.84,1684.03 231.311,1683.91 233.782,1683.78 236.253,1683.64 238.724,1683.51 241.196,1683.37 243.667,1683.23 246.138,1683.08 248.609,1682.94 251.081,1682.79 253.552,1682.64 256.023,1682.48 258.494,1682.32 260.965,1682.16 263.437,1682 265.908,1681.83 268.379,1681.66 270.85,1681.48 273.322,1681.31 275.793,1681.12 278.264,1680.94 280.735,1680.75 283.206,1680.56 285.678,1680.36 288.149,1680.16 290.62,1679.96 293.091,1679.75 295.563,1679.54 298.034,1679.32 300.505,1679.1 302.976,1678.88 305.448,1678.65 307.919,1678.42 310.39,1678.18 312.861,1677.94 315.332,1677.69 317.804,1677.44 320.275,1677.18 322.746,1676.92 325.217,1676.65 327.689,1676.38 330.16,1676.1 332.631,1675.82 335.102,1675.53 337.573,1675.24 340.045,1674.94 342.516,1674.64 344.987,1674.33 347.458,1674.01 349.93,1673.69 352.401,1673.36 354.872,1673.03 357.343,1672.69 359.814,1672.34 362.286,1671.99 364.757,1671.63 367.228,1671.26 369.699,1670.88 372.171,1670.5 374.642,1670.12 377.113,1669.72 379.584,1669.32 382.056,1668.91 384.527,1668.49 386.998,1668.06 389.469,1667.63 391.94,1667.19 394.412,1666.74 396.883,1666.28 399.354,1665.81 401.825,1665.34 404.297,1664.85 406.768,1664.36 409.239,1663.86 411.71,1663.35 414.181,1662.83 416.653,1662.3 419.124,1661.76 421.595,1661.21 424.066,1660.65 426.538,1660.08 429.009,1659.5 431.48,1658.91 433.951,1658.31 436.422,1657.7 438.894,1657.07 441.365,1656.44 443.836,1655.8 446.307,1655.14 448.779,1654.47 451.25,1653.79 453.721,1653.1 456.192,1652.4 458.664,1651.69 461.135,1650.96 463.606,1650.22 466.077,1649.46 468.548,1648.7 471.02,1647.92 473.491,1647.13 475.962,1646.32 478.433,1645.5 480.905,1644.67 483.376,1643.82 485.847,1642.96 488.318,1642.08 490.789,1641.19 493.261,1640.28 495.732,1639.36 498.203,1638.43 500.674,1637.47 503.146,1636.51 505.617,1635.52 508.088,1634.52 510.559,1633.51 513.03,1632.48 515.502,1631.43 517.973,1630.36 520.444,1629.28 522.915,1628.18 525.387,1627.06 527.858,1625.93 530.329,1624.78 532.8,1623.61 535.272,1622.42 537.743,1621.21 540.214,1619.99 542.685,1618.74 545.156,1617.48 547.628,1616.2 550.099,1614.9 552.57,1613.58 555.041,1612.24 557.513,1610.88 559.984,1609.5 562.455,1608.1 564.926,1606.68 567.397,1605.24 569.869,1603.78 572.34,1602.3 574.811,1600.79 577.282,1599.27 579.754,1597.72 582.225,1596.16 584.696,1594.57 587.167,1592.96 589.638,1591.33 592.11,1589.67 594.581,1587.99 597.052,1586.3 599.523,1584.57 601.995,1582.83 604.466,1581.06 606.937,1579.27 609.408,1577.46 611.88,1575.62 614.351,1573.76 616.822,1571.88 619.293,1569.98 621.764,1568.05 624.236,1566.1 626.707,1564.12 629.178,1562.12 631.649,1560.1 634.121,1558.05 636.592,1555.98 639.063,1553.88 641.534,1551.76 644.005,1549.62 646.477,1547.45 648.948,1545.26 651.419,1543.04 653.89,1540.8 656.362,1538.54 658.833,1536.25 661.304,1533.94 663.775,1531.6 666.246,1529.24 668.718,1526.85 671.189,1524.44 673.66,1522.01 676.131,1519.55 678.603,1517.06 681.074,1514.56 683.545,1512.03 686.016,1509.47 688.488,1506.9 690.959,1504.29 693.43,1501.67 695.901,1499.02 698.372,1496.35 700.844,1493.65 703.315,1490.93 705.786,1488.19 708.257,1485.43 710.729,1482.64 713.2,1479.83 715.671,1476.99 718.142,1474.14 720.613,1471.26 723.085,1468.36 725.556,1465.44 728.027,1462.5 730.498,1459.53 732.97,1456.54 735.441,1453.53 737.912,1450.5 740.383,1447.45 742.854,1444.38 745.326,1441.29 747.797,1438.18 750.268,1435.05 752.739,1431.89 755.211,1428.72 757.682,1425.53 760.153,1422.32 762.624,1419.09 765.096,1415.84 767.567,1412.57 770.038,1409.29 772.509,1405.98 774.98,1402.66 777.452,1399.32 779.923,1395.97 782.394,1392.6 784.865,1389.21 787.337,1385.8 789.808,1382.38 792.279,1378.94 794.75,1375.48 797.221,1372.02 799.693,1368.53 802.164,1365.03 804.635,1361.52 807.106,1357.99 809.578,1354.45 812.049,1350.9 814.52,1347.33 816.991,1343.75 819.462,1340.16 821.934,1336.55 824.405,1332.93 826.876,1329.31 829.347,1325.66 831.819,1322.01 834.29,1318.35 836.761,1314.68 839.232,1310.99 841.704,1307.3 844.175,1303.6 846.646,1299.89 849.117,1296.17 851.588,1292.44 854.06,1288.7 856.531,1284.95 859.002,1281.2 861.473,1277.43 863.945,1273.66 866.416,1269.89 868.887,1266.1 871.358,1262.31 873.829,1258.52 876.301,1254.71 878.772,1250.91 881.243,1247.09 883.714,1243.28 886.186,1239.45 888.657,1235.63 891.128,1231.79 893.599,1227.96 896.07,1224.12 898.542,1220.28 901.013,1216.43 903.484,1212.58 905.955,1208.73 908.427,1204.88 910.898,1201.03 913.369,1197.17 915.84,1193.31 918.312,1189.45 920.783,1185.59 923.254,1181.73 925.725,1177.87 928.196,1174.01 930.668,1170.14 933.139,1166.28 935.61,1162.42 938.081,1158.56 940.553,1154.7 943.024,1150.84 945.495,1146.98 947.966,1143.12 950.437,1139.27 952.909,1135.42 955.38,1131.57 957.851,1127.72 960.322,1123.87 962.794,1120.03 965.265,1116.19 967.736,1112.35 970.207,1108.51 972.678,1104.68 975.15,1100.85 977.621,1097.03 980.092,1093.21 982.563,1089.39 985.035,1085.58 987.506,1081.77 989.977,1077.97 992.448,1074.17 994.92,1070.38 997.391,1066.59 999.862,1062.81 1002.33,1059.03 1004.8,1055.26 1007.28,1051.5 1009.75,1047.74 1012.22,1043.98 1014.69,1040.23 1017.16,1036.49 1019.63,1032.76 1022.1,1029.03 1024.57,1025.31 1027.05,1021.59 1029.52,1017.88 1031.99,1014.18 1034.46,1010.49 1036.93,1006.8 1039.4,1003.12 1041.87,999.451 1044.34,995.788 1046.82,992.132 1049.29,988.484 1051.76,984.844 1054.23,981.212 1056.7,977.588 1059.17,973.973 1061.64,970.366 1064.11,966.767 1066.59,963.177 1069.06,959.596 1071.53,956.023 1074,952.46 1076.47,948.905 1078.94,945.359 1081.41,941.821 1083.88,938.293 1086.35,934.774 1088.83,931.265 1091.3,927.764 1093.77,924.273 1096.24,920.791 1098.71,917.319 1101.18,913.856 1103.65,910.402 1106.12,906.958 1108.6,903.524 1111.07,900.099 1113.54,896.684 1116.01,893.279 1118.48,889.884 1120.95,886.499 1123.42,883.123 1125.89,879.758 1128.37,876.402 1130.84,873.057 1133.31,869.721 1135.78,866.396 1138.25,863.081 1140.72,859.776 1143.19,856.482 1145.66,853.197 1148.14,849.923 1150.61,846.66 1153.08,843.406 1155.55,840.163 1158.02,836.931 1160.49,833.709 1162.96,830.497 1165.43,827.296 1167.91,824.106 1170.38,820.926 1172.85,817.756 1175.32,814.598 1177.79,811.45 1180.26,808.312 1182.73,805.185 1185.2,802.069 1187.68,798.963 1190.15,795.868 1192.62,792.784 1195.09,789.711 1197.56,786.648 1200.03,783.596 1202.5,780.554 1204.97,777.524 1207.44,774.504 1209.92,771.495 1212.39,768.496 1214.86,765.509 1217.33,762.532 1219.8,759.566 1222.27,756.61 1224.74,753.665 1227.21,750.731 1229.69,747.808 1232.16,744.896 1234.63,741.994 1237.1,739.102 1239.57,736.222 1242.04,733.352 1244.51,730.493 1246.98,727.645 1249.46,724.807 1251.93,721.979 1254.4,719.163 1256.87,716.357 1259.34,713.562 1261.81,710.777 1264.28,708.003 1266.75,705.239 1269.23,702.486 1271.7,699.743 1274.17,697.011 1276.64,694.29 1279.11,691.579 1281.58,688.879 1284.05,686.189 1286.52,683.509 1289,680.84 1291.47,678.181 1293.94,675.533 1296.41,672.895 1298.88,670.268 1301.35,667.651 1303.82,665.044 1306.29,662.448 1308.77,659.862 1311.24,657.286 1313.71,654.72 1316.18,652.165 1318.65,649.62 1321.12,647.085 1323.59,644.56 1326.06,642.046 1328.53,639.542 1331.01,637.047 1333.48,634.563 1335.95,632.089 1338.42,629.625 1340.89,627.172 1343.36,624.728 1345.83,622.294 1348.3,619.87 1350.78,617.456 1353.25,615.052 1355.72,612.658 1358.19,610.273 1360.66,607.899 1363.13,605.534 1365.6,603.179 1368.07,600.834 1370.55,598.499 1373.02,596.173 1375.49,593.857 1377.96,591.551 1380.43,589.254 1382.9,586.967 1385.37,584.69 1387.84,582.422 1390.32,580.164 1392.79,577.915 1395.26,575.675 1397.73,573.445 1400.2,571.225 1402.67,569.014 1405.14,566.812 1407.61,564.619 1410.09,562.436 1412.56,560.262 1415.03,558.098 1417.5,555.942 1419.97,553.796 1422.44,551.659 1424.91,549.531 1427.38,547.412 1429.86,545.302 1432.33,543.201 1434.8,541.109 1437.27,539.026 1439.74,536.952 1442.21,534.887 1444.68,532.831 1447.15,530.784 1449.63,528.745 1452.1,526.716 1454.57,524.695 1457.04,522.683 1459.51,520.679 1461.98,518.685 1464.45,516.698 1466.92,514.721 1469.39,512.752 1471.87,510.792 1474.34,508.84 1476.81,506.897 1479.28,504.962 1481.75,503.036 1484.22,501.118 1486.69,499.208 1489.16,497.307 1491.64,495.414 1494.11,493.529 1496.58,491.653 1499.05,489.785 1501.52,487.925 1503.99,486.074 1506.46,484.23 1508.93,482.395 1511.41,480.567 1513.88,478.748 1516.35,476.937 1518.82,475.134 1521.29,473.339 1523.76,471.551 1526.23,469.772 1528.7,468.001 1531.18,466.237 1533.65,464.481 1536.12,462.733 1538.59,460.993 1541.06,459.261 1543.53,457.536 1546,455.819 1548.47,454.11 1550.95,452.408 1553.42,450.714 1555.89,449.027 1558.36,447.348 1560.83,445.677 1563.3,444.013 1565.77,442.356 1568.24,440.707 1570.72,439.065 1573.19,437.431 1575.66,435.804 1578.13,434.184 1580.6,432.571 1583.07,430.966 1585.54,429.368 1588.01,427.777 1590.48,426.194 1592.96,424.617 1595.43,423.048 1597.9,421.485 1600.37,419.93 1602.84,418.381 1605.31,416.84 1607.78,415.306 1610.25,413.778 1612.73,412.258 1615.2,410.744 1617.67,409.237 1620.14,407.737 1622.61,406.244 1625.08,404.757 1627.55,403.278 1630.02,401.805 1632.5,400.338 1634.97,398.879 1637.44,397.426 1639.91,395.979 1642.38,394.539 1644.85,393.106 1647.32,391.679 1649.79,390.259 1652.27,388.845 1654.74,387.438 1657.21,386.037 1659.68,384.642 1662.15,383.254 1664.62,381.872 1667.09,380.497 1669.56,379.128 1672.04,377.765 1674.51,376.408 1676.98,375.057 1679.45,373.713 1681.92,372.375 1684.39,371.042 1686.86,369.716 1689.33,368.397 1691.81,367.083 1694.28,365.775 1696.75,364.473 1699.22,363.177 1701.69,361.887 1704.16,360.603 1706.63,359.325 1709.1,358.053 1711.57,356.786 1714.05,355.526 1716.52,354.271 1718.99,353.022 1721.46,351.779 1723.93,350.541 1726.4,349.31 1728.87,348.084 1731.34,346.863 1733.82,345.648 1736.29,344.439 1738.76,343.235 1741.23,342.037 1743.7,340.845 1746.17,339.658 1748.64,338.476 1751.11,337.3 1753.59,336.129 1756.06,334.964 1758.53,333.804 1761,332.65 1763.47,331.501 1765.94,330.357 1768.41,329.218 1770.88,328.085 1773.36,326.957 1775.83,325.834 1778.3,324.717 1780.77,323.604 1783.24,322.497 1785.71,321.395 1788.18,320.298 1790.65,319.206 1793.13,318.119 1795.6,317.038 1798.07,315.961 1800.54,314.889 1803.01,313.822 1805.48,312.76 1807.95,311.704 1810.42,310.652 1812.9,309.605 1815.37,308.562 1817.84,307.525 1820.31,306.492 1822.78,305.465 1825.25,304.442 1827.72,303.424 1830.19,302.41 1832.67,301.401 1835.14,300.397 1837.61,299.398 1840.08,298.403 1842.55,297.413 1845.02,296.428 1847.49,295.447 1849.96,294.471 1852.43,293.499 1854.91,292.532 1857.38,291.569 1859.85,290.611 1862.32,289.657 1864.79,288.708 1867.26,287.763 1869.73,286.822 1872.2,285.886 1874.68,284.955 1877.15,284.027 1879.62,283.104 1882.09,282.186 1884.56,281.271 1887.03,280.361 1889.5,279.456 1891.97,278.554 1894.45,277.657 1896.92,276.763 1899.39,275.875 1901.86,274.99 1904.33,274.109 1906.8,273.233 1909.27,272.36 1911.74,271.492 1914.22,270.628 1916.69,269.767 1919.16,268.911 1921.63,268.059 1924.1,267.211 1926.57,266.367 1929.04,265.527 1931.51,264.691 1933.99,263.858 1936.46,263.03 1938.93,262.205 1941.4,261.385 1943.87,260.568 1946.34,259.755 1948.81,258.946 1951.28,258.141 1953.76,257.339 1956.23,256.542 1958.7,255.748 1961.17,254.957 1963.64,254.171 1966.11,253.388 1968.58,252.609 1971.05,251.834 1973.52,251.062 1976,250.294 1978.47,249.529 1980.94,248.768 1983.41,248.011 1985.88,247.257 1988.35,246.507 1990.82,245.76 1993.29,245.017 1995.77,244.278 1998.24,243.541 2000.71,242.809 2003.18,242.08 2005.65,241.354 2008.12,240.631 2010.59,239.912 2013.06,239.197 2015.54,238.485 2018.01,237.776 2020.48,237.071 2022.95,236.368 2025.42,235.67 2027.89,234.974 2030.36,234.282 2032.83,233.593 2035.31,232.907 2037.78,232.225 2040.25,231.546 2042.72,230.87 2045.19,230.197 2047.66,229.527 2050.13,228.861 2052.6,228.197 2055.08,227.537 2057.55,226.88 2060.02,226.226 2062.49,225.575 2064.96,224.927 2067.43,224.283 2069.9,223.641 2072.37,223.002 2074.85,222.367 2077.32,221.734 2079.79,221.104 2082.26,220.478 2084.73,219.854 2087.2,219.233 2089.67,218.615 2092.14,218.001 2094.62,217.389 2097.09,216.779 2099.56,216.173 2102.03,215.57 2104.5,214.969 2106.97,214.372 2109.44,213.777 2111.91,213.185 2114.38,212.596 2116.86,212.009 2119.33,211.426 2121.8,210.845 2124.27,210.267 2126.74,209.691 2129.21,209.119 2131.68,208.549 2134.15,207.981 2136.63,207.417 2139.1,206.855 2141.57,206.296 2144.04,205.739 2146.51,205.185 2148.98,204.634 2151.45,204.085 2153.92,203.539 2156.4,202.995 2158.87,202.454 2161.34,201.916 2163.81,201.38 2166.28,200.847 2168.75,200.316 2171.22,199.788 2173.69,199.262 2176.17,198.739 2178.64,198.218 2181.11,197.7 2183.58,197.184 2186.05,196.671 2188.52,196.16 2190.99,195.651 2193.46,195.145 2195.94,194.642 2198.41,194.141 2200.88,193.642 2203.35,193.145 2205.82,192.651 2208.29,192.159 2210.76,191.67 2213.23,191.183 2215.71,190.698 2218.18,190.216 2220.65,189.736 2223.12,189.258 2225.59,188.782 2228.06,188.309 2230.53,187.838 2233,187.369 2235.47,186.902 2237.95,186.438 2240.42,185.976 2242.89,185.516 2245.36,185.058 2247.83,184.603 2250.3,184.149 2252.77,183.698 2255.24,183.249 2257.72,182.802 2260.19,182.357 2262.66,181.915 2265.13,181.474 2267.6,181.036 2270.07,180.599 2272.54,180.165 2275.01,179.733 2277.49,179.303 2279.96,178.875 2282.43,178.449 2284.9,178.025 2287.37,177.603 2289.84,177.183 2292.31,176.765 2294.78,176.349 2297.26,175.935 2299.73,175.523 2302.2,175.113 2304.67,174.705 2307.14,174.299 2309.61,173.894 2312.08,173.492 2314.55,173.092 2317.03,172.693 2319.5,172.297 2321.97,171.902 2324.44,171.51 2326.91,171.119 2329.38,170.73 2331.85,170.343 2334.32,169.957 2336.8,169.574 2339.27,169.192 2341.74,168.812 2344.21,168.434 2346.68,168.058 2349.15,167.684 2351.62,167.311 2354.09,166.94 2356.56,166.571 2359.04,166.204 2361.51,165.838 2363.98,165.475 2366.45,165.113 2368.92,164.752 2371.39,164.394 2373.86,164.037 2376.33,163.682 2378.81,163.328 2381.28,162.976 2383.75,162.626 2386.22,162.278 2388.69,161.931 2391.16,161.586 2393.63,161.242 2396.1,160.9 2398.58,160.56 2401.05,160.221 2403.52,159.884 2405.99,159.549 2408.46,159.215 2410.93,158.883 2413.4,158.552 2415.87,158.223 2418.35,157.896 2420.82,157.57 2423.29,157.245 2425.76,156.923 2428.23,156.601 2430.7,156.281 2433.17,155.963 2435.64,155.647 2438.12,155.331 2440.59,155.018 2443.06,154.705 2445.53,154.395 2448,154.086 2450.47,153.778 2452.94,153.472 2455.41,153.167 2457.89,152.863 2460.36,152.562 2462.83,152.261 2465.3,151.962 2467.77,151.664 2470.24,151.368 2472.71,151.074 2475.18,150.78 2477.66,150.488 2480.13,150.198 2482.6,149.909 2485.07,149.621 2487.54,149.335 2490.01,149.05 2492.48,148.766 2494.95,148.484 2497.42,148.203 2499.9,147.923 2502.37,147.645 2504.84,147.368 2507.31,147.092 2509.78,146.818 2512.25,146.545 2514.72,146.274 2517.19,146.003 2519.67,145.734 2522.14,145.466 2524.61,145.2 2527.08,144.935 2529.55,144.671 2532.02,144.408 2534.49,144.147 2536.96,143.887 2539.44,143.628 2541.91,143.37 2544.38,143.114 2546.85,142.858 2549.32,142.604 2551.79,142.352 2554.26,142.1 2556.73,141.85 2559.21,141.601 2561.68,141.353 2564.15,141.106 2566.62,140.86 2569.09,140.616 2571.56,140.373 2574.03,140.131 2576.5,139.89 2578.98,139.65 2581.45,139.411 2583.92,139.174 2586.39,138.937 2588.86,138.702 2591.33,138.468 2593.8,138.235 2596.27,138.003 2598.75,137.773 2601.22,137.543 2603.69,137.315 2606.16,137.087 2608.63,136.861 2611.1,136.636 2613.57,136.411 2616.04,136.188 2618.51,135.966 2620.99,135.745 2623.46,135.526 2625.93,135.307 2628.4,135.089 2630.87,134.872 2633.34,134.656 2635.81,134.442 2638.28,134.228 2640.76,134.015 "/>
<path clip-path="url(#clip960)" d="M254.293 466.353 L608.853 466.353 L608.853 103.473 L254.293 103.473  Z" fill="#ffffff" fill-rule="evenodd" fill-opacity="1"/>
<polyline clip-path="url(#clip960)" style="stroke:#000000; stroke-linecap:round; stroke-linejoin:round; stroke-width:4; stroke-opacity:1; fill:none" points="254.293,466.353 608.853,466.353 608.853,103.473 254.293,103.473 254.293,466.353 "/>
<polyline clip-path="url(#clip960)" style="stroke:#009af9; stroke-linecap:round; stroke-linejoin:round; stroke-width:4; stroke-opacity:1; fill:none" points="281.724,155.313 446.307,155.313 "/>
<path clip-path="url(#clip960)" d="M487.581 175.001 Q485.775 179.63 484.062 181.042 Q482.349 182.454 479.479 182.454 L476.076 182.454 L476.076 178.889 L478.576 178.889 Q480.335 178.889 481.307 178.056 Q482.28 177.223 483.46 174.121 L484.224 172.177 L473.738 146.667 L478.252 146.667 L486.354 166.945 L494.455 146.667 L498.969 146.667 L487.581 175.001 Z" fill="#000000" fill-rule="evenodd" fill-opacity="1" /><path clip-path="url(#clip960)" d="M506.261 168.658 L513.9 168.658 L513.9 142.292 L505.59 143.959 L505.59 139.7 L513.854 138.033 L518.529 138.033 L518.529 168.658 L526.168 168.658 L526.168 172.593 L506.261 172.593 L506.261 168.658 Z" fill="#000000" fill-rule="evenodd" fill-opacity="1" /><polyline clip-path="url(#clip960)" style="stroke:#e26f46; stroke-linecap:round; stroke-linejoin:round; stroke-width:4; stroke-opacity:1; fill:none" points="281.724,207.153 446.307,207.153 "/>
<path clip-path="url(#clip960)" d="M487.581 226.841 Q485.775 231.47 484.062 232.882 Q482.349 234.294 479.479 234.294 L476.076 234.294 L476.076 230.729 L478.576 230.729 Q480.335 230.729 481.307 229.896 Q482.28 229.063 483.46 225.961 L484.224 224.017 L473.738 198.507 L478.252 198.507 L486.354 218.785 L494.455 198.507 L498.969 198.507 L487.581 226.841 Z" fill="#000000" fill-rule="evenodd" fill-opacity="1" /><path clip-path="url(#clip960)" d="M509.479 220.498 L525.798 220.498 L525.798 224.433 L503.854 224.433 L503.854 220.498 Q506.516 217.743 511.099 213.114 Q515.705 208.461 516.886 207.118 Q519.131 204.595 520.011 202.859 Q520.914 201.1 520.914 199.41 Q520.914 196.656 518.969 194.919 Q517.048 193.183 513.946 193.183 Q511.747 193.183 509.293 193.947 Q506.863 194.711 504.085 196.262 L504.085 191.54 Q506.909 190.406 509.363 189.827 Q511.816 189.248 513.854 189.248 Q519.224 189.248 522.418 191.933 Q525.613 194.619 525.613 199.109 Q525.613 201.239 524.803 203.16 Q524.015 205.058 521.909 207.651 Q521.33 208.322 518.228 211.54 Q515.127 214.734 509.479 220.498 Z" fill="#000000" fill-rule="evenodd" fill-opacity="1" /><polyline clip-path="url(#clip960)" style="stroke:#3da44d; stroke-linecap:round; stroke-linejoin:round; stroke-width:4; stroke-opacity:1; fill:none" points="281.724,258.993 446.307,258.993 "/>
<path clip-path="url(#clip960)" d="M487.581 278.681 Q485.775 283.31 484.062 284.722 Q482.349 286.134 479.479 286.134 L476.076 286.134 L476.076 282.569 L478.576 282.569 Q480.335 282.569 481.307 281.736 Q482.28 280.903 483.46 277.801 L484.224 275.857 L473.738 250.347 L478.252 250.347 L486.354 270.625 L494.455 250.347 L498.969 250.347 L487.581 278.681 Z" fill="#000000" fill-rule="evenodd" fill-opacity="1" /><path clip-path="url(#clip960)" d="M519.617 257.639 Q522.974 258.357 524.849 260.625 Q526.747 262.894 526.747 266.227 Q526.747 271.343 523.228 274.144 Q519.71 276.944 513.229 276.944 Q511.053 276.944 508.738 276.505 Q506.446 276.088 503.992 275.232 L503.992 270.718 Q505.937 271.852 508.252 272.431 Q510.566 273.009 513.09 273.009 Q517.488 273.009 519.779 271.273 Q522.094 269.537 522.094 266.227 Q522.094 263.171 519.941 261.458 Q517.812 259.722 513.992 259.722 L509.965 259.722 L509.965 255.88 L514.178 255.88 Q517.627 255.88 519.455 254.514 Q521.284 253.125 521.284 250.533 Q521.284 247.871 519.386 246.459 Q517.511 245.023 513.992 245.023 Q512.071 245.023 509.872 245.44 Q507.673 245.857 505.034 246.736 L505.034 242.57 Q507.696 241.829 510.011 241.459 Q512.349 241.088 514.409 241.088 Q519.733 241.088 522.835 243.519 Q525.937 245.926 525.937 250.046 Q525.937 252.917 524.293 254.908 Q522.65 256.875 519.617 257.639 Z" fill="#000000" fill-rule="evenodd" fill-opacity="1" /><polyline clip-path="url(#clip960)" style="stroke:#c271d2; stroke-linecap:round; stroke-linejoin:round; stroke-width:4; stroke-opacity:1; fill:none" points="281.724,310.833 446.307,310.833 "/>
<path clip-path="url(#clip960)" d="M473.738 317.882 L473.738 302.187 L477.997 302.187 L477.997 317.72 Q477.997 321.4 479.432 323.252 Q480.868 325.081 483.738 325.081 Q487.187 325.081 489.178 322.882 Q491.192 320.683 491.192 316.886 L491.192 302.187 L495.451 302.187 L495.451 328.113 L491.192 328.113 L491.192 324.132 Q489.641 326.493 487.581 327.65 Q485.543 328.784 482.835 328.784 Q478.368 328.784 476.053 326.007 Q473.738 323.229 473.738 317.882 M484.456 301.562 L484.456 301.562 Z" fill="#000000" fill-rule="evenodd" fill-opacity="1" /><path clip-path="url(#clip960)" d="M505.636 324.178 L513.275 324.178 L513.275 297.812 L504.965 299.479 L504.965 295.22 L513.229 293.553 L517.904 293.553 L517.904 324.178 L525.543 324.178 L525.543 328.113 L505.636 328.113 L505.636 324.178 Z" fill="#000000" fill-rule="evenodd" fill-opacity="1" /><path clip-path="url(#clip960)" d="M544.617 292.141 Q541.515 297.465 540.011 302.674 Q538.506 307.882 538.506 313.229 Q538.506 318.576 540.011 323.831 Q541.539 329.062 544.617 334.363 L540.914 334.363 Q537.441 328.923 535.705 323.669 Q533.992 318.414 533.992 313.229 Q533.992 308.067 535.705 302.836 Q537.418 297.604 540.914 292.141 L544.617 292.141 Z" fill="#000000" fill-rule="evenodd" fill-opacity="1" /><path clip-path="url(#clip960)" d="M557.094 294.826 L557.094 302.187 L565.867 302.187 L565.867 305.498 L557.094 305.498 L557.094 319.572 Q557.094 322.743 557.95 323.646 Q558.83 324.548 561.492 324.548 L565.867 324.548 L565.867 328.113 L561.492 328.113 Q556.562 328.113 554.687 326.284 Q552.812 324.433 552.812 319.572 L552.812 305.498 L549.687 305.498 L549.687 302.187 L552.812 302.187 L552.812 294.826 L557.094 294.826 Z" fill="#000000" fill-rule="evenodd" fill-opacity="1" /><path clip-path="url(#clip960)" d="M570.798 292.141 L574.501 292.141 Q577.974 297.604 579.686 302.836 Q581.423 308.067 581.423 313.229 Q581.423 318.414 579.686 323.669 Q577.974 328.923 574.501 334.363 L570.798 334.363 Q573.876 329.062 575.381 323.831 Q576.909 318.576 576.909 313.229 Q576.909 307.882 575.381 302.674 Q573.876 297.465 570.798 292.141 Z" fill="#000000" fill-rule="evenodd" fill-opacity="1" /><polyline clip-path="url(#clip960)" style="stroke:#ac8d18; stroke-linecap:round; stroke-linejoin:round; stroke-width:4; stroke-opacity:1; fill:none" points="281.724,362.673 446.307,362.673 "/>
<path clip-path="url(#clip960)" d="M473.738 369.722 L473.738 354.027 L477.997 354.027 L477.997 369.56 Q477.997 373.24 479.432 375.092 Q480.868 376.921 483.738 376.921 Q487.187 376.921 489.178 374.722 Q491.192 372.523 491.192 368.726 L491.192 354.027 L495.451 354.027 L495.451 379.953 L491.192 379.953 L491.192 375.972 Q489.641 378.333 487.581 379.49 Q485.543 380.624 482.835 380.624 Q478.368 380.624 476.053 377.847 Q473.738 375.069 473.738 369.722 M484.456 353.402 L484.456 353.402 Z" fill="#000000" fill-rule="evenodd" fill-opacity="1" /><path clip-path="url(#clip960)" d="M508.854 376.018 L525.173 376.018 L525.173 379.953 L503.229 379.953 L503.229 376.018 Q505.891 373.263 510.474 368.634 Q515.08 363.981 516.261 362.638 Q518.506 360.115 519.386 358.379 Q520.289 356.62 520.289 354.93 Q520.289 352.176 518.344 350.439 Q516.423 348.703 513.321 348.703 Q511.122 348.703 508.668 349.467 Q506.238 350.231 503.46 351.782 L503.46 347.06 Q506.284 345.926 508.738 345.347 Q511.191 344.768 513.229 344.768 Q518.599 344.768 521.793 347.453 Q524.988 350.139 524.988 354.629 Q524.988 356.759 524.178 358.68 Q523.39 360.578 521.284 363.171 Q520.705 363.842 517.603 367.06 Q514.502 370.254 508.854 376.018 Z" fill="#000000" fill-rule="evenodd" fill-opacity="1" /><path clip-path="url(#clip960)" d="M544.617 343.981 Q541.515 349.305 540.011 354.514 Q538.506 359.722 538.506 365.069 Q538.506 370.416 540.011 375.671 Q541.539 380.902 544.617 386.203 L540.914 386.203 Q537.441 380.763 535.705 375.509 Q533.992 370.254 533.992 365.069 Q533.992 359.907 535.705 354.676 Q537.418 349.444 540.914 343.981 L544.617 343.981 Z" fill="#000000" fill-rule="evenodd" fill-opacity="1" /><path clip-path="url(#clip960)" d="M557.094 346.666 L557.094 354.027 L565.867 354.027 L565.867 357.338 L557.094 357.338 L557.094 371.412 Q557.094 374.583 557.95 375.486 Q558.83 376.388 561.492 376.388 L565.867 376.388 L565.867 379.953 L561.492 379.953 Q556.562 379.953 554.687 378.124 Q552.812 376.273 552.812 371.412 L552.812 357.338 L549.687 357.338 L549.687 354.027 L552.812 354.027 L552.812 346.666 L557.094 346.666 Z" fill="#000000" fill-rule="evenodd" fill-opacity="1" /><path clip-path="url(#clip960)" d="M570.798 343.981 L574.501 343.981 Q577.974 349.444 579.686 354.676 Q581.423 359.907 581.423 365.069 Q581.423 370.254 579.686 375.509 Q577.974 380.763 574.501 386.203 L570.798 386.203 Q573.876 380.902 575.381 375.671 Q576.909 370.416 576.909 365.069 Q576.909 359.722 575.381 354.514 Q573.876 349.305 570.798 343.981 Z" fill="#000000" fill-rule="evenodd" fill-opacity="1" /><polyline clip-path="url(#clip960)" style="stroke:#00a9ad; stroke-linecap:round; stroke-linejoin:round; stroke-width:4; stroke-opacity:1; fill:none" points="281.724,414.513 446.307,414.513 "/>
<path clip-path="url(#clip960)" d="M473.738 421.562 L473.738 405.867 L477.997 405.867 L477.997 421.4 Q477.997 425.08 479.432 426.932 Q480.868 428.761 483.738 428.761 Q487.187 428.761 489.178 426.562 Q491.192 424.363 491.192 420.566 L491.192 405.867 L495.451 405.867 L495.451 431.793 L491.192 431.793 L491.192 427.812 Q489.641 430.173 487.581 431.33 Q485.543 432.464 482.835 432.464 Q478.368 432.464 476.053 429.687 Q473.738 426.909 473.738 421.562 M484.456 405.242 L484.456 405.242 Z" fill="#000000" fill-rule="evenodd" fill-opacity="1" /><path clip-path="url(#clip960)" d="M518.992 413.159 Q522.349 413.877 524.224 416.145 Q526.122 418.414 526.122 421.747 Q526.122 426.863 522.603 429.664 Q519.085 432.464 512.604 432.464 Q510.428 432.464 508.113 432.025 Q505.821 431.608 503.367 430.752 L503.367 426.238 Q505.312 427.372 507.627 427.951 Q509.941 428.529 512.465 428.529 Q516.863 428.529 519.154 426.793 Q521.469 425.057 521.469 421.747 Q521.469 418.691 519.316 416.978 Q517.187 415.242 513.367 415.242 L509.34 415.242 L509.34 411.4 L513.553 411.4 Q517.002 411.4 518.83 410.034 Q520.659 408.645 520.659 406.053 Q520.659 403.391 518.761 401.979 Q516.886 400.543 513.367 400.543 Q511.446 400.543 509.247 400.96 Q507.048 401.377 504.409 402.256 L504.409 398.09 Q507.071 397.349 509.386 396.979 Q511.724 396.608 513.784 396.608 Q519.108 396.608 522.21 399.039 Q525.312 401.446 525.312 405.566 Q525.312 408.437 523.668 410.428 Q522.025 412.395 518.992 413.159 Z" fill="#000000" fill-rule="evenodd" fill-opacity="1" /><path clip-path="url(#clip960)" d="M544.617 395.821 Q541.515 401.145 540.011 406.354 Q538.506 411.562 538.506 416.909 Q538.506 422.256 540.011 427.511 Q541.539 432.742 544.617 438.043 L540.914 438.043 Q537.441 432.603 535.705 427.349 Q533.992 422.094 533.992 416.909 Q533.992 411.747 535.705 406.516 Q537.418 401.284 540.914 395.821 L544.617 395.821 Z" fill="#000000" fill-rule="evenodd" fill-opacity="1" /><path clip-path="url(#clip960)" d="M557.094 398.506 L557.094 405.867 L565.867 405.867 L565.867 409.178 L557.094 409.178 L557.094 423.252 Q557.094 426.423 557.95 427.326 Q558.83 428.228 561.492 428.228 L565.867 428.228 L565.867 431.793 L561.492 431.793 Q556.562 431.793 554.687 429.964 Q552.812 428.113 552.812 423.252 L552.812 409.178 L549.687 409.178 L549.687 405.867 L552.812 405.867 L552.812 398.506 L557.094 398.506 Z" fill="#000000" fill-rule="evenodd" fill-opacity="1" /><path clip-path="url(#clip960)" d="M570.798 395.821 L574.501 395.821 Q577.974 401.284 579.686 406.516 Q581.423 411.747 581.423 416.909 Q581.423 422.094 579.686 427.349 Q577.974 432.603 574.501 438.043 L570.798 438.043 Q573.876 432.742 575.381 427.511 Q576.909 422.256 576.909 416.909 Q576.909 411.562 575.381 406.354 Q573.876 401.145 570.798 395.821 Z" fill="#000000" fill-rule="evenodd" fill-opacity="1" /></svg>
