<?xml version="1.0" encoding="utf-8"?>
<svg xmlns="http://www.w3.org/2000/svg" xmlns:xlink="http://www.w3.org/1999/xlink" width="672" height="480" viewBox="0 0 2688 1920">
<defs>
  <clipPath id="clip040">
    <rect x="0" y="0" width="2688" height="1920"/>
  </clipPath>
</defs>
<path clip-path="url(#clip040)" d="M0 1920 L2688 1920 L2688 0 L0 0  Z" fill="#ffffff" fill-rule="evenodd" fill-opacity="1"/>
<defs>
  <clipPath id="clip041">
    <rect x="537" y="0" width="1883" height="1883"/>
  </clipPath>
</defs>
<path clip-path="url(#clip040)" d="M219.802 1800.78 L2640.76 1800.78 L2640.76 47.2441 L219.802 47.2441  Z" fill="#ffffff" fill-rule="evenodd" fill-opacity="1"/>
<defs>
  <clipPath id="clip042">
    <rect x="219" y="47" width="2422" height="1755"/>
  </clipPath>
</defs>
<polyline clip-path="url(#clip042)" style="stroke:#000000; stroke-linecap:round; stroke-linejoin:round; stroke-width:2; stroke-opacity:0.1; fill:none" points="447.891,1800.78 447.891,47.2441 "/>
<polyline clip-path="url(#clip042)" style="stroke:#000000; stroke-linecap:round; stroke-linejoin:round; stroke-width:2; stroke-opacity:0.1; fill:none" points="747.576,1800.78 747.576,47.2441 "/>
<polyline clip-path="url(#clip042)" style="stroke:#000000; stroke-linecap:round; stroke-linejoin:round; stroke-width:2; stroke-opacity:0.1; fill:none" points="1047.26,1800.78 1047.26,47.2441 "/>
<polyline clip-path="url(#clip042)" style="stroke:#000000; stroke-linecap:round; stroke-linejoin:round; stroke-width:2; stroke-opacity:0.1; fill:none" points="1346.95,1800.78 1346.95,47.2441 "/>
<polyline clip-path="url(#clip042)" style="stroke:#000000; stroke-linecap:round; stroke-linejoin:round; stroke-width:2; stroke-opacity:0.1; fill:none" points="1646.63,1800.78 1646.63,47.2441 "/>
<polyline clip-path="url(#clip042)" style="stroke:#000000; stroke-linecap:round; stroke-linejoin:round; stroke-width:2; stroke-opacity:0.1; fill:none" points="1946.31,1800.78 1946.31,47.2441 "/>
<polyline clip-path="url(#clip042)" style="stroke:#000000; stroke-linecap:round; stroke-linejoin:round; stroke-width:2; stroke-opacity:0.1; fill:none" points="2246,1800.78 2246,47.2441 "/>
<polyline clip-path="url(#clip042)" style="stroke:#000000; stroke-linecap:round; stroke-linejoin:round; stroke-width:2; stroke-opacity:0.1; fill:none" points="2545.68,1800.78 2545.68,47.2441 "/>
<polyline clip-path="url(#clip040)" style="stroke:#000000; stroke-linecap:round; stroke-linejoin:round; stroke-width:4; stroke-opacity:1; fill:none" points="219.802,1800.78 2640.76,1800.78 "/>
<polyline clip-path="url(#clip040)" style="stroke:#000000; stroke-linecap:round; stroke-linejoin:round; stroke-width:4; stroke-opacity:1; fill:none" points="447.891,1800.78 447.891,1781.88 "/>
<polyline clip-path="url(#clip040)" style="stroke:#000000; stroke-linecap:round; stroke-linejoin:round; stroke-width:4; stroke-opacity:1; fill:none" points="747.576,1800.78 747.576,1781.88 "/>
<polyline clip-path="url(#clip040)" style="stroke:#000000; stroke-linecap:round; stroke-linejoin:round; stroke-width:4; stroke-opacity:1; fill:none" points="1047.26,1800.78 1047.26,1781.88 "/>
<polyline clip-path="url(#clip040)" style="stroke:#000000; stroke-linecap:round; stroke-linejoin:round; stroke-width:4; stroke-opacity:1; fill:none" points="1346.95,1800.78 1346.95,1781.88 "/>
<polyline clip-path="url(#clip040)" style="stroke:#000000; stroke-linecap:round; stroke-linejoin:round; stroke-width:4; stroke-opacity:1; fill:none" points="1646.63,1800.78 1646.63,1781.88 "/>
<polyline clip-path="url(#clip040)" style="stroke:#000000; stroke-linecap:round; stroke-linejoin:round; stroke-width:4; stroke-opacity:1; fill:none" points="1946.31,1800.78 1946.31,1781.88 "/>
<polyline clip-path="url(#clip040)" style="stroke:#000000; stroke-linecap:round; stroke-linejoin:round; stroke-width:4; stroke-opacity:1; fill:none" points="2246,1800.78 2246,1781.88 "/>
<polyline clip-path="url(#clip040)" style="stroke:#000000; stroke-linecap:round; stroke-linejoin:round; stroke-width:4; stroke-opacity:1; fill:none" points="2545.68,1800.78 2545.68,1781.88 "/>
<path clip-path="url(#clip040)" d="M386.873 1848.65 L416.549 1848.65 L416.549 1852.59 L386.873 1852.59 L386.873 1848.65 Z" fill="#000000" fill-rule="evenodd" fill-opacity="1" /><path clip-path="url(#clip040)" d="M430.669 1861.55 L446.989 1861.55 L446.989 1865.48 L425.044 1865.48 L425.044 1861.55 Q427.706 1858.79 432.29 1854.16 Q436.896 1849.51 438.077 1848.17 Q440.322 1845.65 441.202 1843.91 Q442.104 1842.15 442.104 1840.46 Q442.104 1837.71 440.16 1835.97 Q438.239 1834.23 435.137 1834.23 Q432.938 1834.23 430.484 1835 Q428.054 1835.76 425.276 1837.31 L425.276 1832.59 Q428.1 1831.46 430.554 1830.88 Q433.007 1830.3 435.044 1830.3 Q440.415 1830.3 443.609 1832.98 Q446.804 1835.67 446.804 1840.16 Q446.804 1842.29 445.993 1844.21 Q445.206 1846.11 443.1 1848.7 Q442.521 1849.37 439.419 1852.59 Q436.317 1855.78 430.669 1861.55 Z" fill="#000000" fill-rule="evenodd" fill-opacity="1" /><path clip-path="url(#clip040)" d="M466.803 1834 Q463.192 1834 461.364 1837.57 Q459.558 1841.11 459.558 1848.24 Q459.558 1855.34 461.364 1858.91 Q463.192 1862.45 466.803 1862.45 Q470.438 1862.45 472.243 1858.91 Q474.072 1855.34 474.072 1848.24 Q474.072 1841.11 472.243 1837.57 Q470.438 1834 466.803 1834 M466.803 1830.3 Q472.614 1830.3 475.669 1834.9 Q478.748 1839.49 478.748 1848.24 Q478.748 1856.96 475.669 1861.57 Q472.614 1866.15 466.803 1866.15 Q460.993 1866.15 457.915 1861.57 Q454.859 1856.96 454.859 1848.24 Q454.859 1839.49 457.915 1834.9 Q460.993 1830.3 466.803 1830.3 Z" fill="#000000" fill-rule="evenodd" fill-opacity="1" /><path clip-path="url(#clip040)" d="M496.965 1834 Q493.354 1834 491.526 1837.57 Q489.72 1841.11 489.72 1848.24 Q489.72 1855.34 491.526 1858.91 Q493.354 1862.45 496.965 1862.45 Q500.6 1862.45 502.405 1858.91 Q504.234 1855.34 504.234 1848.24 Q504.234 1841.11 502.405 1837.57 Q500.6 1834 496.965 1834 M496.965 1830.3 Q502.775 1830.3 505.831 1834.9 Q508.91 1839.49 508.91 1848.24 Q508.91 1856.96 505.831 1861.57 Q502.775 1866.15 496.965 1866.15 Q491.155 1866.15 488.076 1861.57 Q485.021 1856.96 485.021 1848.24 Q485.021 1839.49 488.076 1834.9 Q491.155 1830.3 496.965 1830.3 Z" fill="#000000" fill-rule="evenodd" fill-opacity="1" /><path clip-path="url(#clip040)" d="M747.576 1834 Q743.965 1834 742.136 1837.57 Q740.331 1841.11 740.331 1848.24 Q740.331 1855.34 742.136 1858.91 Q743.965 1862.45 747.576 1862.45 Q751.21 1862.45 753.016 1858.91 Q754.845 1855.34 754.845 1848.24 Q754.845 1841.11 753.016 1837.57 Q751.21 1834 747.576 1834 M747.576 1830.3 Q753.386 1830.3 756.442 1834.9 Q759.521 1839.49 759.521 1848.24 Q759.521 1856.96 756.442 1861.57 Q753.386 1866.15 747.576 1866.15 Q741.766 1866.15 738.687 1861.57 Q735.632 1856.96 735.632 1848.24 Q735.632 1839.49 738.687 1834.9 Q741.766 1830.3 747.576 1830.3 Z" fill="#000000" fill-rule="evenodd" fill-opacity="1" /><path clip-path="url(#clip040)" d="M1010.95 1861.55 L1027.27 1861.55 L1027.27 1865.48 L1005.33 1865.48 L1005.33 1861.55 Q1007.99 1858.79 1012.57 1854.16 Q1017.18 1849.51 1018.36 1848.17 Q1020.61 1845.65 1021.49 1843.91 Q1022.39 1842.15 1022.39 1840.46 Q1022.39 1837.71 1020.44 1835.97 Q1018.52 1834.23 1015.42 1834.23 Q1013.22 1834.23 1010.77 1835 Q1008.34 1835.76 1005.56 1837.31 L1005.56 1832.59 Q1008.38 1831.46 1010.84 1830.88 Q1013.29 1830.3 1015.33 1830.3 Q1020.7 1830.3 1023.89 1832.98 Q1027.09 1835.67 1027.09 1840.16 Q1027.09 1842.29 1026.28 1844.21 Q1025.49 1846.11 1023.38 1848.7 Q1022.81 1849.37 1019.7 1852.59 Q1016.6 1855.78 1010.95 1861.55 Z" fill="#000000" fill-rule="evenodd" fill-opacity="1" /><path clip-path="url(#clip040)" d="M1047.09 1834 Q1043.48 1834 1041.65 1837.57 Q1039.84 1841.11 1039.84 1848.24 Q1039.84 1855.34 1041.65 1858.91 Q1043.48 1862.45 1047.09 1862.45 Q1050.72 1862.45 1052.53 1858.91 Q1054.36 1855.34 1054.36 1848.24 Q1054.36 1841.11 1052.53 1837.57 Q1050.72 1834 1047.09 1834 M1047.09 1830.3 Q1052.9 1830.3 1055.95 1834.9 Q1059.03 1839.49 1059.03 1848.24 Q1059.03 1856.96 1055.95 1861.57 Q1052.9 1866.15 1047.09 1866.15 Q1041.28 1866.15 1038.2 1861.57 Q1035.14 1856.96 1035.14 1848.24 Q1035.14 1839.49 1038.2 1834.9 Q1041.28 1830.3 1047.09 1830.3 Z" fill="#000000" fill-rule="evenodd" fill-opacity="1" /><path clip-path="url(#clip040)" d="M1077.25 1834 Q1073.64 1834 1071.81 1837.57 Q1070 1841.11 1070 1848.24 Q1070 1855.34 1071.81 1858.91 Q1073.64 1862.45 1077.25 1862.45 Q1080.88 1862.45 1082.69 1858.91 Q1084.52 1855.34 1084.52 1848.24 Q1084.52 1841.11 1082.69 1837.57 Q1080.88 1834 1077.25 1834 M1077.25 1830.3 Q1083.06 1830.3 1086.11 1834.9 Q1089.19 1839.49 1089.19 1848.24 Q1089.19 1856.96 1086.11 1861.57 Q1083.06 1866.15 1077.25 1866.15 Q1071.44 1866.15 1068.36 1861.57 Q1065.3 1856.96 1065.3 1848.24 Q1065.3 1839.49 1068.36 1834.9 Q1071.44 1830.3 1077.25 1830.3 Z" fill="#000000" fill-rule="evenodd" fill-opacity="1" /><path clip-path="url(#clip040)" d="M1320.04 1835 L1308.23 1853.45 L1320.04 1853.45 L1320.04 1835 M1318.81 1830.92 L1324.69 1830.92 L1324.69 1853.45 L1329.62 1853.45 L1329.62 1857.34 L1324.69 1857.34 L1324.69 1865.48 L1320.04 1865.48 L1320.04 1857.34 L1304.43 1857.34 L1304.43 1852.82 L1318.81 1830.92 Z" fill="#000000" fill-rule="evenodd" fill-opacity="1" /><path clip-path="url(#clip040)" d="M1347.35 1834 Q1343.74 1834 1341.91 1837.57 Q1340.11 1841.11 1340.11 1848.24 Q1340.11 1855.34 1341.91 1858.91 Q1343.74 1862.45 1347.35 1862.45 Q1350.98 1862.45 1352.79 1858.91 Q1354.62 1855.34 1354.62 1848.24 Q1354.62 1841.11 1352.79 1837.57 Q1350.98 1834 1347.35 1834 M1347.35 1830.3 Q1353.16 1830.3 1356.22 1834.9 Q1359.3 1839.49 1359.3 1848.24 Q1359.3 1856.96 1356.22 1861.57 Q1353.16 1866.15 1347.35 1866.15 Q1341.54 1866.15 1338.46 1861.57 Q1335.41 1856.96 1335.41 1848.24 Q1335.41 1839.49 1338.46 1834.9 Q1341.54 1830.3 1347.35 1830.3 Z" fill="#000000" fill-rule="evenodd" fill-opacity="1" /><path clip-path="url(#clip040)" d="M1377.51 1834 Q1373.9 1834 1372.07 1837.57 Q1370.27 1841.11 1370.27 1848.24 Q1370.27 1855.34 1372.07 1858.91 Q1373.9 1862.45 1377.51 1862.45 Q1381.15 1862.45 1382.95 1858.91 Q1384.78 1855.34 1384.78 1848.24 Q1384.78 1841.11 1382.95 1837.57 Q1381.15 1834 1377.51 1834 M1377.51 1830.3 Q1383.32 1830.3 1386.38 1834.9 Q1389.46 1839.49 1389.46 1848.24 Q1389.46 1856.96 1386.38 1861.57 Q1383.32 1866.15 1377.51 1866.15 Q1371.7 1866.15 1368.62 1861.57 Q1365.57 1856.96 1365.57 1848.24 Q1365.57 1839.49 1368.62 1834.9 Q1371.7 1830.3 1377.51 1830.3 Z" fill="#000000" fill-rule="evenodd" fill-opacity="1" /><path clip-path="url(#clip040)" d="M1616.95 1846.34 Q1613.81 1846.34 1611.95 1848.49 Q1610.13 1850.65 1610.13 1854.4 Q1610.13 1858.12 1611.95 1860.3 Q1613.81 1862.45 1616.95 1862.45 Q1620.1 1862.45 1621.93 1860.3 Q1623.78 1858.12 1623.78 1854.4 Q1623.78 1850.65 1621.93 1848.49 Q1620.1 1846.34 1616.95 1846.34 M1626.24 1831.69 L1626.24 1835.95 Q1624.48 1835.11 1622.67 1834.67 Q1620.89 1834.23 1619.13 1834.23 Q1614.5 1834.23 1612.05 1837.36 Q1609.62 1840.48 1609.27 1846.8 Q1610.64 1844.79 1612.7 1843.72 Q1614.76 1842.64 1617.23 1842.64 Q1622.44 1842.64 1625.45 1845.81 Q1628.48 1848.96 1628.48 1854.4 Q1628.48 1859.72 1625.33 1862.94 Q1622.19 1866.15 1616.95 1866.15 Q1610.96 1866.15 1607.79 1861.57 Q1604.62 1856.96 1604.62 1848.24 Q1604.62 1840.04 1608.51 1835.18 Q1612.39 1830.3 1618.95 1830.3 Q1620.7 1830.3 1622.49 1830.65 Q1624.29 1830.99 1626.24 1831.69 Z" fill="#000000" fill-rule="evenodd" fill-opacity="1" /><path clip-path="url(#clip040)" d="M1646.54 1834 Q1642.93 1834 1641.1 1837.57 Q1639.29 1841.11 1639.29 1848.24 Q1639.29 1855.34 1641.1 1858.91 Q1642.93 1862.45 1646.54 1862.45 Q1650.17 1862.45 1651.98 1858.91 Q1653.81 1855.34 1653.81 1848.24 Q1653.81 1841.11 1651.98 1837.57 Q1650.17 1834 1646.54 1834 M1646.54 1830.3 Q1652.35 1830.3 1655.4 1834.9 Q1658.48 1839.49 1658.48 1848.24 Q1658.48 1856.96 1655.4 1861.57 Q1652.35 1866.15 1646.54 1866.15 Q1640.73 1866.15 1637.65 1861.57 Q1634.59 1856.96 1634.59 1848.24 Q1634.59 1839.49 1637.65 1834.9 Q1640.73 1830.3 1646.54 1830.3 Z" fill="#000000" fill-rule="evenodd" fill-opacity="1" /><path clip-path="url(#clip040)" d="M1676.7 1834 Q1673.09 1834 1671.26 1837.57 Q1669.45 1841.11 1669.45 1848.24 Q1669.45 1855.34 1671.26 1858.91 Q1673.09 1862.45 1676.7 1862.45 Q1680.33 1862.45 1682.14 1858.91 Q1683.97 1855.34 1683.97 1848.24 Q1683.97 1841.11 1682.14 1837.57 Q1680.33 1834 1676.7 1834 M1676.7 1830.3 Q1682.51 1830.3 1685.57 1834.9 Q1688.64 1839.49 1688.64 1848.24 Q1688.64 1856.96 1685.57 1861.57 Q1682.51 1866.15 1676.7 1866.15 Q1670.89 1866.15 1667.81 1861.57 Q1664.76 1856.96 1664.76 1848.24 Q1664.76 1839.49 1667.81 1834.9 Q1670.89 1830.3 1676.7 1830.3 Z" fill="#000000" fill-rule="evenodd" fill-opacity="1" /><path clip-path="url(#clip040)" d="M1916.11 1849.07 Q1912.77 1849.07 1910.85 1850.85 Q1908.95 1852.64 1908.95 1855.76 Q1908.95 1858.89 1910.85 1860.67 Q1912.77 1862.45 1916.11 1862.45 Q1919.44 1862.45 1921.36 1860.67 Q1923.28 1858.86 1923.28 1855.76 Q1923.28 1852.64 1921.36 1850.85 Q1919.46 1849.07 1916.11 1849.07 M1911.43 1847.08 Q1908.42 1846.34 1906.73 1844.28 Q1905.07 1842.22 1905.07 1839.26 Q1905.07 1835.11 1908.01 1832.71 Q1910.97 1830.3 1916.11 1830.3 Q1921.27 1830.3 1924.21 1832.71 Q1927.15 1835.11 1927.15 1839.26 Q1927.15 1842.22 1925.46 1844.28 Q1923.79 1846.34 1920.81 1847.08 Q1924.19 1847.87 1926.06 1850.16 Q1927.96 1852.45 1927.96 1855.76 Q1927.96 1860.78 1924.88 1863.47 Q1921.82 1866.15 1916.11 1866.15 Q1910.39 1866.15 1907.31 1863.47 Q1904.26 1860.78 1904.26 1855.76 Q1904.26 1852.45 1906.15 1850.16 Q1908.05 1847.87 1911.43 1847.08 M1909.72 1839.7 Q1909.72 1842.38 1911.38 1843.89 Q1913.07 1845.39 1916.11 1845.39 Q1919.12 1845.39 1920.81 1843.89 Q1922.52 1842.38 1922.52 1839.7 Q1922.52 1837.01 1920.81 1835.51 Q1919.12 1834 1916.11 1834 Q1913.07 1834 1911.38 1835.51 Q1909.72 1837.01 1909.72 1839.7 Z" fill="#000000" fill-rule="evenodd" fill-opacity="1" /><path clip-path="url(#clip040)" d="M1946.27 1834 Q1942.66 1834 1940.83 1837.57 Q1939.02 1841.11 1939.02 1848.24 Q1939.02 1855.34 1940.83 1858.91 Q1942.66 1862.45 1946.27 1862.45 Q1949.9 1862.45 1951.71 1858.91 Q1953.54 1855.34 1953.54 1848.24 Q1953.54 1841.11 1951.71 1837.57 Q1949.9 1834 1946.27 1834 M1946.27 1830.3 Q1952.08 1830.3 1955.13 1834.9 Q1958.21 1839.49 1958.21 1848.24 Q1958.21 1856.96 1955.13 1861.57 Q1952.08 1866.15 1946.27 1866.15 Q1940.46 1866.15 1937.38 1861.57 Q1934.32 1856.96 1934.32 1848.24 Q1934.32 1839.49 1937.38 1834.9 Q1940.46 1830.3 1946.27 1830.3 Z" fill="#000000" fill-rule="evenodd" fill-opacity="1" /><path clip-path="url(#clip040)" d="M1976.43 1834 Q1972.82 1834 1970.99 1837.57 Q1969.19 1841.11 1969.19 1848.24 Q1969.19 1855.34 1970.99 1858.91 Q1972.82 1862.45 1976.43 1862.45 Q1980.06 1862.45 1981.87 1858.91 Q1983.7 1855.34 1983.7 1848.24 Q1983.7 1841.11 1981.87 1837.57 Q1980.06 1834 1976.43 1834 M1976.43 1830.3 Q1982.24 1830.3 1985.3 1834.9 Q1988.37 1839.49 1988.37 1848.24 Q1988.37 1856.96 1985.3 1861.57 Q1982.24 1866.15 1976.43 1866.15 Q1970.62 1866.15 1967.54 1861.57 Q1964.49 1856.96 1964.49 1848.24 Q1964.49 1839.49 1967.54 1834.9 Q1970.62 1830.3 1976.43 1830.3 Z" fill="#000000" fill-rule="evenodd" fill-opacity="1" /><path clip-path="url(#clip040)" d="M2190.53 1861.55 L2198.16 1861.55 L2198.16 1835.18 L2189.85 1836.85 L2189.85 1832.59 L2198.12 1830.92 L2202.79 1830.92 L2202.79 1861.55 L2210.43 1861.55 L2210.43 1865.48 L2190.53 1865.48 L2190.53 1861.55 Z" fill="#000000" fill-rule="evenodd" fill-opacity="1" /><path clip-path="url(#clip040)" d="M2229.88 1834 Q2226.27 1834 2224.44 1837.57 Q2222.63 1841.11 2222.63 1848.24 Q2222.63 1855.34 2224.44 1858.91 Q2226.27 1862.45 2229.88 1862.45 Q2233.51 1862.45 2235.32 1858.91 Q2237.15 1855.34 2237.15 1848.24 Q2237.15 1841.11 2235.32 1837.57 Q2233.51 1834 2229.88 1834 M2229.88 1830.3 Q2235.69 1830.3 2238.74 1834.9 Q2241.82 1839.49 2241.82 1848.24 Q2241.82 1856.96 2238.74 1861.57 Q2235.69 1866.15 2229.88 1866.15 Q2224.07 1866.15 2220.99 1861.57 Q2217.93 1856.96 2217.93 1848.24 Q2217.93 1839.49 2220.99 1834.9 Q2224.07 1830.3 2229.88 1830.3 Z" fill="#000000" fill-rule="evenodd" fill-opacity="1" /><path clip-path="url(#clip040)" d="M2260.04 1834 Q2256.43 1834 2254.6 1837.57 Q2252.79 1841.11 2252.79 1848.24 Q2252.79 1855.34 2254.6 1858.91 Q2256.43 1862.45 2260.04 1862.45 Q2263.67 1862.45 2265.48 1858.91 Q2267.31 1855.34 2267.31 1848.24 Q2267.31 1841.11 2265.48 1837.57 Q2263.67 1834 2260.04 1834 M2260.04 1830.3 Q2265.85 1830.3 2268.9 1834.9 Q2271.98 1839.49 2271.98 1848.24 Q2271.98 1856.96 2268.9 1861.57 Q2265.85 1866.15 2260.04 1866.15 Q2254.23 1866.15 2251.15 1861.57 Q2248.09 1856.96 2248.09 1848.24 Q2248.09 1839.49 2251.15 1834.9 Q2254.23 1830.3 2260.04 1830.3 Z" fill="#000000" fill-rule="evenodd" fill-opacity="1" /><path clip-path="url(#clip040)" d="M2290.2 1834 Q2286.59 1834 2284.76 1837.57 Q2282.96 1841.11 2282.96 1848.24 Q2282.96 1855.34 2284.76 1858.91 Q2286.59 1862.45 2290.2 1862.45 Q2293.84 1862.45 2295.64 1858.91 Q2297.47 1855.34 2297.47 1848.24 Q2297.47 1841.11 2295.64 1837.57 Q2293.84 1834 2290.2 1834 M2290.2 1830.3 Q2296.01 1830.3 2299.07 1834.9 Q2302.15 1839.49 2302.15 1848.24 Q2302.15 1856.96 2299.07 1861.57 Q2296.01 1866.15 2290.2 1866.15 Q2284.39 1866.15 2281.31 1861.57 Q2278.26 1856.96 2278.26 1848.24 Q2278.26 1839.49 2281.31 1834.9 Q2284.39 1830.3 2290.2 1830.3 Z" fill="#000000" fill-rule="evenodd" fill-opacity="1" /><path clip-path="url(#clip040)" d="M2490.21 1861.55 L2497.85 1861.55 L2497.85 1835.18 L2489.54 1836.85 L2489.54 1832.59 L2497.8 1830.92 L2502.48 1830.92 L2502.48 1861.55 L2510.12 1861.55 L2510.12 1865.48 L2490.21 1865.48 L2490.21 1861.55 Z" fill="#000000" fill-rule="evenodd" fill-opacity="1" /><path clip-path="url(#clip040)" d="M2523.59 1861.55 L2539.91 1861.55 L2539.91 1865.48 L2517.96 1865.48 L2517.96 1861.55 Q2520.63 1858.79 2525.21 1854.16 Q2529.82 1849.51 2531 1848.17 Q2533.24 1845.65 2534.12 1843.91 Q2535.02 1842.15 2535.02 1840.46 Q2535.02 1837.71 2533.08 1835.97 Q2531.16 1834.23 2528.06 1834.23 Q2525.86 1834.23 2523.4 1835 Q2520.97 1835.76 2518.2 1837.31 L2518.2 1832.59 Q2521.02 1831.46 2523.47 1830.88 Q2525.93 1830.3 2527.96 1830.3 Q2533.33 1830.3 2536.53 1832.98 Q2539.72 1835.67 2539.72 1840.16 Q2539.72 1842.29 2538.91 1844.21 Q2538.13 1846.11 2536.02 1848.7 Q2535.44 1849.37 2532.34 1852.59 Q2529.24 1855.78 2523.59 1861.55 Z" fill="#000000" fill-rule="evenodd" fill-opacity="1" /><path clip-path="url(#clip040)" d="M2559.72 1834 Q2556.11 1834 2554.28 1837.57 Q2552.48 1841.11 2552.48 1848.24 Q2552.48 1855.34 2554.28 1858.91 Q2556.11 1862.45 2559.72 1862.45 Q2563.36 1862.45 2565.16 1858.91 Q2566.99 1855.34 2566.99 1848.24 Q2566.99 1841.11 2565.16 1837.57 Q2563.36 1834 2559.72 1834 M2559.72 1830.3 Q2565.53 1830.3 2568.59 1834.9 Q2571.67 1839.49 2571.67 1848.24 Q2571.67 1856.96 2568.59 1861.57 Q2565.53 1866.15 2559.72 1866.15 Q2553.91 1866.15 2550.83 1861.57 Q2547.78 1856.96 2547.78 1848.24 Q2547.78 1839.49 2550.83 1834.9 Q2553.91 1830.3 2559.72 1830.3 Z" fill="#000000" fill-rule="evenodd" fill-opacity="1" /><path clip-path="url(#clip040)" d="M2589.89 1834 Q2586.27 1834 2584.45 1837.57 Q2582.64 1841.11 2582.64 1848.24 Q2582.64 1855.34 2584.45 1858.91 Q2586.27 1862.45 2589.89 1862.45 Q2593.52 1862.45 2595.33 1858.91 Q2597.15 1855.34 2597.15 1848.24 Q2597.15 1841.11 2595.33 1837.57 Q2593.52 1834 2589.89 1834 M2589.89 1830.3 Q2595.7 1830.3 2598.75 1834.9 Q2601.83 1839.49 2601.83 1848.24 Q2601.83 1856.96 2598.75 1861.57 Q2595.7 1866.15 2589.89 1866.15 Q2584.08 1866.15 2581 1861.57 Q2577.94 1856.96 2577.94 1848.24 Q2577.94 1839.49 2581 1834.9 Q2584.08 1830.3 2589.89 1830.3 Z" fill="#000000" fill-rule="evenodd" fill-opacity="1" /><polyline clip-path="url(#clip042)" style="stroke:#000000; stroke-linecap:round; stroke-linejoin:round; stroke-width:2; stroke-opacity:0.1; fill:none" points="219.802,1751.16 2640.76,1751.16 "/>
<polyline clip-path="url(#clip042)" style="stroke:#000000; stroke-linecap:round; stroke-linejoin:round; stroke-width:2; stroke-opacity:0.1; fill:none" points="219.802,1415.59 2640.76,1415.59 "/>
<polyline clip-path="url(#clip042)" style="stroke:#000000; stroke-linecap:round; stroke-linejoin:round; stroke-width:2; stroke-opacity:0.1; fill:none" points="219.802,1080.01 2640.76,1080.01 "/>
<polyline clip-path="url(#clip042)" style="stroke:#000000; stroke-linecap:round; stroke-linejoin:round; stroke-width:2; stroke-opacity:0.1; fill:none" points="219.802,744.432 2640.76,744.432 "/>
<polyline clip-path="url(#clip042)" style="stroke:#000000; stroke-linecap:round; stroke-linejoin:round; stroke-width:2; stroke-opacity:0.1; fill:none" points="219.802,408.855 2640.76,408.855 "/>
<polyline clip-path="url(#clip042)" style="stroke:#000000; stroke-linecap:round; stroke-linejoin:round; stroke-width:2; stroke-opacity:0.1; fill:none" points="219.802,73.2777 2640.76,73.2777 "/>
<polyline clip-path="url(#clip040)" style="stroke:#000000; stroke-linecap:round; stroke-linejoin:round; stroke-width:4; stroke-opacity:1; fill:none" points="219.802,1800.78 219.802,47.2441 "/>
<polyline clip-path="url(#clip040)" style="stroke:#000000; stroke-linecap:round; stroke-linejoin:round; stroke-width:4; stroke-opacity:1; fill:none" points="219.802,1751.16 238.7,1751.16 "/>
<polyline clip-path="url(#clip040)" style="stroke:#000000; stroke-linecap:round; stroke-linejoin:round; stroke-width:4; stroke-opacity:1; fill:none" points="219.802,1415.59 238.7,1415.59 "/>
<polyline clip-path="url(#clip040)" style="stroke:#000000; stroke-linecap:round; stroke-linejoin:round; stroke-width:4; stroke-opacity:1; fill:none" points="219.802,1080.01 238.7,1080.01 "/>
<polyline clip-path="url(#clip040)" style="stroke:#000000; stroke-linecap:round; stroke-linejoin:round; stroke-width:4; stroke-opacity:1; fill:none" points="219.802,744.432 238.7,744.432 "/>
<polyline clip-path="url(#clip040)" style="stroke:#000000; stroke-linecap:round; stroke-linejoin:round; stroke-width:4; stroke-opacity:1; fill:none" points="219.802,408.855 238.7,408.855 "/>
<polyline clip-path="url(#clip040)" style="stroke:#000000; stroke-linecap:round; stroke-linejoin:round; stroke-width:4; stroke-opacity:1; fill:none" points="219.802,73.2777 238.7,73.2777 "/>
<path clip-path="url(#clip040)" d="M61.9826 1736.96 Q58.3715 1736.96 56.5428 1740.53 Q54.7373 1744.07 54.7373 1751.2 Q54.7373 1758.3 56.5428 1761.87 Q58.3715 1765.41 61.9826 1765.41 Q65.6169 1765.41 67.4224 1761.87 Q69.2511 1758.3 69.2511 1751.2 Q69.2511 1744.07 67.4224 1740.53 Q65.6169 1736.96 61.9826 1736.96 M61.9826 1733.26 Q67.7928 1733.26 70.8483 1737.86 Q73.927 1742.45 73.927 1751.2 Q73.927 1759.92 70.8483 1764.53 Q67.7928 1769.11 61.9826 1769.11 Q56.1725 1769.11 53.0938 1764.53 Q50.0382 1759.92 50.0382 1751.2 Q50.0382 1742.45 53.0938 1737.86 Q56.1725 1733.26 61.9826 1733.26 Z" fill="#000000" fill-rule="evenodd" fill-opacity="1" /><path clip-path="url(#clip040)" d="M82.1445 1762.56 L87.0288 1762.56 L87.0288 1768.44 L82.1445 1768.44 L82.1445 1762.56 Z" fill="#000000" fill-rule="evenodd" fill-opacity="1" /><path clip-path="url(#clip040)" d="M107.214 1736.96 Q103.603 1736.96 101.774 1740.53 Q99.9685 1744.07 99.9685 1751.2 Q99.9685 1758.3 101.774 1761.87 Q103.603 1765.41 107.214 1765.41 Q110.848 1765.41 112.654 1761.87 Q114.482 1758.3 114.482 1751.2 Q114.482 1744.07 112.654 1740.53 Q110.848 1736.96 107.214 1736.96 M107.214 1733.26 Q113.024 1733.26 116.08 1737.86 Q119.158 1742.45 119.158 1751.2 Q119.158 1759.92 116.08 1764.53 Q113.024 1769.11 107.214 1769.11 Q101.404 1769.11 98.325 1764.53 Q95.2695 1759.92 95.2695 1751.2 Q95.2695 1742.45 98.325 1737.86 Q101.404 1733.26 107.214 1733.26 Z" fill="#000000" fill-rule="evenodd" fill-opacity="1" /><path clip-path="url(#clip040)" d="M137.376 1736.96 Q133.765 1736.96 131.936 1740.53 Q130.13 1744.07 130.13 1751.2 Q130.13 1758.3 131.936 1761.87 Q133.765 1765.41 137.376 1765.41 Q141.01 1765.41 142.816 1761.87 Q144.644 1758.3 144.644 1751.2 Q144.644 1744.07 142.816 1740.53 Q141.01 1736.96 137.376 1736.96 M137.376 1733.26 Q143.186 1733.26 146.241 1737.86 Q149.32 1742.45 149.32 1751.2 Q149.32 1759.92 146.241 1764.53 Q143.186 1769.11 137.376 1769.11 Q131.566 1769.11 128.487 1764.53 Q125.431 1759.92 125.431 1751.2 Q125.431 1742.45 128.487 1737.86 Q131.566 1733.26 137.376 1733.26 Z" fill="#000000" fill-rule="evenodd" fill-opacity="1" /><path clip-path="url(#clip040)" d="M167.538 1736.96 Q163.927 1736.96 162.098 1740.53 Q160.292 1744.07 160.292 1751.2 Q160.292 1758.3 162.098 1761.87 Q163.927 1765.41 167.538 1765.41 Q171.172 1765.41 172.977 1761.87 Q174.806 1758.3 174.806 1751.2 Q174.806 1744.07 172.977 1740.53 Q171.172 1736.96 167.538 1736.96 M167.538 1733.26 Q173.348 1733.26 176.403 1737.86 Q179.482 1742.45 179.482 1751.2 Q179.482 1759.92 176.403 1764.53 Q173.348 1769.11 167.538 1769.11 Q161.727 1769.11 158.649 1764.53 Q155.593 1759.92 155.593 1751.2 Q155.593 1742.45 158.649 1737.86 Q161.727 1733.26 167.538 1733.26 Z" fill="#000000" fill-rule="evenodd" fill-opacity="1" /><path clip-path="url(#clip040)" d="M63.2095 1401.38 Q59.5984 1401.38 57.7697 1404.95 Q55.9641 1408.49 55.9641 1415.62 Q55.9641 1422.73 57.7697 1426.29 Q59.5984 1429.83 63.2095 1429.83 Q66.8437 1429.83 68.6492 1426.29 Q70.4779 1422.73 70.4779 1415.62 Q70.4779 1408.49 68.6492 1404.95 Q66.8437 1401.38 63.2095 1401.38 M63.2095 1397.68 Q69.0196 1397.68 72.0752 1402.29 Q75.1538 1406.87 75.1538 1415.62 Q75.1538 1424.35 72.0752 1428.95 Q69.0196 1433.54 63.2095 1433.54 Q57.3993 1433.54 54.3206 1428.95 Q51.2651 1424.35 51.2651 1415.62 Q51.2651 1406.87 54.3206 1402.29 Q57.3993 1397.68 63.2095 1397.68 Z" fill="#000000" fill-rule="evenodd" fill-opacity="1" /><path clip-path="url(#clip040)" d="M83.3714 1426.99 L88.2556 1426.99 L88.2556 1432.87 L83.3714 1432.87 L83.3714 1426.99 Z" fill="#000000" fill-rule="evenodd" fill-opacity="1" /><path clip-path="url(#clip040)" d="M108.441 1401.38 Q104.83 1401.38 103.001 1404.95 Q101.195 1408.49 101.195 1415.62 Q101.195 1422.73 103.001 1426.29 Q104.83 1429.83 108.441 1429.83 Q112.075 1429.83 113.88 1426.29 Q115.709 1422.73 115.709 1415.62 Q115.709 1408.49 113.88 1404.95 Q112.075 1401.38 108.441 1401.38 M108.441 1397.68 Q114.251 1397.68 117.306 1402.29 Q120.385 1406.87 120.385 1415.62 Q120.385 1424.35 117.306 1428.95 Q114.251 1433.54 108.441 1433.54 Q102.631 1433.54 99.5519 1428.95 Q96.4963 1424.35 96.4963 1415.62 Q96.4963 1406.87 99.5519 1402.29 Q102.631 1397.68 108.441 1397.68 Z" fill="#000000" fill-rule="evenodd" fill-opacity="1" /><path clip-path="url(#clip040)" d="M138.603 1401.38 Q134.991 1401.38 133.163 1404.95 Q131.357 1408.49 131.357 1415.62 Q131.357 1422.73 133.163 1426.29 Q134.991 1429.83 138.603 1429.83 Q142.237 1429.83 144.042 1426.29 Q145.871 1422.73 145.871 1415.62 Q145.871 1408.49 144.042 1404.95 Q142.237 1401.38 138.603 1401.38 M138.603 1397.68 Q144.413 1397.68 147.468 1402.29 Q150.547 1406.87 150.547 1415.62 Q150.547 1424.35 147.468 1428.95 Q144.413 1433.54 138.603 1433.54 Q132.792 1433.54 129.714 1428.95 Q126.658 1424.35 126.658 1415.62 Q126.658 1406.87 129.714 1402.29 Q132.792 1397.68 138.603 1397.68 Z" fill="#000000" fill-rule="evenodd" fill-opacity="1" /><path clip-path="url(#clip040)" d="M159.575 1428.93 L167.214 1428.93 L167.214 1402.57 L158.903 1404.23 L158.903 1399.97 L167.167 1398.31 L171.843 1398.31 L171.843 1428.93 L179.482 1428.93 L179.482 1432.87 L159.575 1432.87 L159.575 1428.93 Z" fill="#000000" fill-rule="evenodd" fill-opacity="1" /><path clip-path="url(#clip040)" d="M63.5798 1065.81 Q59.9687 1065.81 58.14 1069.37 Q56.3345 1072.91 56.3345 1080.04 Q56.3345 1087.15 58.14 1090.72 Q59.9687 1094.26 63.5798 1094.26 Q67.2141 1094.26 69.0196 1090.72 Q70.8483 1087.15 70.8483 1080.04 Q70.8483 1072.91 69.0196 1069.37 Q67.2141 1065.81 63.5798 1065.81 M63.5798 1062.1 Q69.39 1062.1 72.4455 1066.71 Q75.5242 1071.29 75.5242 1080.04 Q75.5242 1088.77 72.4455 1093.38 Q69.39 1097.96 63.5798 1097.96 Q57.7697 1097.96 54.691 1093.38 Q51.6354 1088.77 51.6354 1080.04 Q51.6354 1071.29 54.691 1066.71 Q57.7697 1062.1 63.5798 1062.1 Z" fill="#000000" fill-rule="evenodd" fill-opacity="1" /><path clip-path="url(#clip040)" d="M83.7418 1091.41 L88.626 1091.41 L88.626 1097.29 L83.7418 1097.29 L83.7418 1091.41 Z" fill="#000000" fill-rule="evenodd" fill-opacity="1" /><path clip-path="url(#clip040)" d="M108.811 1065.81 Q105.2 1065.81 103.371 1069.37 Q101.566 1072.91 101.566 1080.04 Q101.566 1087.15 103.371 1090.72 Q105.2 1094.26 108.811 1094.26 Q112.445 1094.26 114.251 1090.72 Q116.08 1087.15 116.08 1080.04 Q116.08 1072.91 114.251 1069.37 Q112.445 1065.81 108.811 1065.81 M108.811 1062.1 Q114.621 1062.1 117.677 1066.71 Q120.755 1071.29 120.755 1080.04 Q120.755 1088.77 117.677 1093.38 Q114.621 1097.96 108.811 1097.96 Q103.001 1097.96 99.9222 1093.38 Q96.8667 1088.77 96.8667 1080.04 Q96.8667 1071.29 99.9222 1066.71 Q103.001 1062.1 108.811 1062.1 Z" fill="#000000" fill-rule="evenodd" fill-opacity="1" /><path clip-path="url(#clip040)" d="M138.973 1065.81 Q135.362 1065.81 133.533 1069.37 Q131.728 1072.91 131.728 1080.04 Q131.728 1087.15 133.533 1090.72 Q135.362 1094.26 138.973 1094.26 Q142.607 1094.26 144.413 1090.72 Q146.241 1087.15 146.241 1080.04 Q146.241 1072.91 144.413 1069.37 Q142.607 1065.81 138.973 1065.81 M138.973 1062.1 Q144.783 1062.1 147.839 1066.71 Q150.917 1071.29 150.917 1080.04 Q150.917 1088.77 147.839 1093.38 Q144.783 1097.96 138.973 1097.96 Q133.163 1097.96 130.084 1093.38 Q127.029 1088.77 127.029 1080.04 Q127.029 1071.29 130.084 1066.71 Q133.163 1062.1 138.973 1062.1 Z" fill="#000000" fill-rule="evenodd" fill-opacity="1" /><path clip-path="url(#clip040)" d="M163.163 1093.35 L179.482 1093.35 L179.482 1097.29 L157.538 1097.29 L157.538 1093.35 Q160.2 1090.6 164.783 1085.97 Q169.389 1081.32 170.57 1079.97 Q172.815 1077.45 173.695 1075.72 Q174.598 1073.96 174.598 1072.27 Q174.598 1069.51 172.653 1067.78 Q170.732 1066.04 167.63 1066.04 Q165.431 1066.04 162.977 1066.8 Q160.547 1067.57 157.769 1069.12 L157.769 1064.4 Q160.593 1063.26 163.047 1062.68 Q165.501 1062.1 167.538 1062.1 Q172.908 1062.1 176.102 1064.79 Q179.297 1067.47 179.297 1071.97 Q179.297 1074.09 178.487 1076.02 Q177.7 1077.91 175.593 1080.51 Q175.014 1081.18 171.913 1084.4 Q168.811 1087.59 163.163 1093.35 Z" fill="#000000" fill-rule="evenodd" fill-opacity="1" /><path clip-path="url(#clip040)" d="M62.6308 730.231 Q59.0197 730.231 57.191 733.795 Q55.3854 737.337 55.3854 744.467 Q55.3854 751.573 57.191 755.138 Q59.0197 758.68 62.6308 758.68 Q66.265 758.68 68.0705 755.138 Q69.8992 751.573 69.8992 744.467 Q69.8992 737.337 68.0705 733.795 Q66.265 730.231 62.6308 730.231 M62.6308 726.527 Q68.4409 726.527 71.4965 731.133 Q74.5751 735.717 74.5751 744.467 Q74.5751 753.193 71.4965 757.8 Q68.4409 762.383 62.6308 762.383 Q56.8206 762.383 53.7419 757.8 Q50.6864 753.193 50.6864 744.467 Q50.6864 735.717 53.7419 731.133 Q56.8206 726.527 62.6308 726.527 Z" fill="#000000" fill-rule="evenodd" fill-opacity="1" /><path clip-path="url(#clip040)" d="M82.7927 755.832 L87.6769 755.832 L87.6769 761.712 L82.7927 761.712 L82.7927 755.832 Z" fill="#000000" fill-rule="evenodd" fill-opacity="1" /><path clip-path="url(#clip040)" d="M107.862 730.231 Q104.251 730.231 102.422 733.795 Q100.617 737.337 100.617 744.467 Q100.617 751.573 102.422 755.138 Q104.251 758.68 107.862 758.68 Q111.496 758.68 113.302 755.138 Q115.13 751.573 115.13 744.467 Q115.13 737.337 113.302 733.795 Q111.496 730.231 107.862 730.231 M107.862 726.527 Q113.672 726.527 116.728 731.133 Q119.806 735.717 119.806 744.467 Q119.806 753.193 116.728 757.8 Q113.672 762.383 107.862 762.383 Q102.052 762.383 98.9732 757.8 Q95.9176 753.193 95.9176 744.467 Q95.9176 735.717 98.9732 731.133 Q102.052 726.527 107.862 726.527 Z" fill="#000000" fill-rule="evenodd" fill-opacity="1" /><path clip-path="url(#clip040)" d="M138.024 730.231 Q134.413 730.231 132.584 733.795 Q130.779 737.337 130.779 744.467 Q130.779 751.573 132.584 755.138 Q134.413 758.68 138.024 758.68 Q141.658 758.68 143.464 755.138 Q145.292 751.573 145.292 744.467 Q145.292 737.337 143.464 733.795 Q141.658 730.231 138.024 730.231 M138.024 726.527 Q143.834 726.527 146.89 731.133 Q149.968 735.717 149.968 744.467 Q149.968 753.193 146.89 757.8 Q143.834 762.383 138.024 762.383 Q132.214 762.383 129.135 757.8 Q126.079 753.193 126.079 744.467 Q126.079 735.717 129.135 731.133 Q132.214 726.527 138.024 726.527 Z" fill="#000000" fill-rule="evenodd" fill-opacity="1" /><path clip-path="url(#clip040)" d="M172.352 743.078 Q175.709 743.795 177.584 746.064 Q179.482 748.332 179.482 751.666 Q179.482 756.781 175.963 759.582 Q172.445 762.383 165.964 762.383 Q163.788 762.383 161.473 761.943 Q159.181 761.527 156.727 760.67 L156.727 756.156 Q158.672 757.291 160.987 757.869 Q163.302 758.448 165.825 758.448 Q170.223 758.448 172.514 756.712 Q174.829 754.976 174.829 751.666 Q174.829 748.61 172.676 746.897 Q170.547 745.161 166.727 745.161 L162.7 745.161 L162.7 741.319 L166.913 741.319 Q170.362 741.319 172.19 739.953 Q174.019 738.564 174.019 735.971 Q174.019 733.309 172.121 731.897 Q170.246 730.462 166.727 730.462 Q164.806 730.462 162.607 730.879 Q160.408 731.295 157.769 732.175 L157.769 728.008 Q160.431 727.268 162.746 726.897 Q165.084 726.527 167.144 726.527 Q172.468 726.527 175.57 728.958 Q178.672 731.365 178.672 735.485 Q178.672 738.356 177.028 740.346 Q175.385 742.314 172.352 743.078 Z" fill="#000000" fill-rule="evenodd" fill-opacity="1" /><path clip-path="url(#clip040)" d="M61.4965 394.654 Q57.8854 394.654 56.0567 398.218 Q54.2512 401.76 54.2512 408.89 Q54.2512 415.996 56.0567 419.561 Q57.8854 423.102 61.4965 423.102 Q65.1307 423.102 66.9363 419.561 Q68.765 415.996 68.765 408.89 Q68.765 401.76 66.9363 398.218 Q65.1307 394.654 61.4965 394.654 M61.4965 390.95 Q67.3067 390.95 70.3622 395.556 Q73.4409 400.14 73.4409 408.89 Q73.4409 417.616 70.3622 422.223 Q67.3067 426.806 61.4965 426.806 Q55.6864 426.806 52.6077 422.223 Q49.5521 417.616 49.5521 408.89 Q49.5521 400.14 52.6077 395.556 Q55.6864 390.95 61.4965 390.95 Z" fill="#000000" fill-rule="evenodd" fill-opacity="1" /><path clip-path="url(#clip040)" d="M81.6584 420.255 L86.5427 420.255 L86.5427 426.135 L81.6584 426.135 L81.6584 420.255 Z" fill="#000000" fill-rule="evenodd" fill-opacity="1" /><path clip-path="url(#clip040)" d="M106.728 394.654 Q103.117 394.654 101.288 398.218 Q99.4824 401.76 99.4824 408.89 Q99.4824 415.996 101.288 419.561 Q103.117 423.102 106.728 423.102 Q110.362 423.102 112.168 419.561 Q113.996 415.996 113.996 408.89 Q113.996 401.76 112.168 398.218 Q110.362 394.654 106.728 394.654 M106.728 390.95 Q112.538 390.95 115.593 395.556 Q118.672 400.14 118.672 408.89 Q118.672 417.616 115.593 422.223 Q112.538 426.806 106.728 426.806 Q100.918 426.806 97.8389 422.223 Q94.7834 417.616 94.7834 408.89 Q94.7834 400.14 97.8389 395.556 Q100.918 390.95 106.728 390.95 Z" fill="#000000" fill-rule="evenodd" fill-opacity="1" /><path clip-path="url(#clip040)" d="M136.89 394.654 Q133.279 394.654 131.45 398.218 Q129.644 401.76 129.644 408.89 Q129.644 415.996 131.45 419.561 Q133.279 423.102 136.89 423.102 Q140.524 423.102 142.329 419.561 Q144.158 415.996 144.158 408.89 Q144.158 401.76 142.329 398.218 Q140.524 394.654 136.89 394.654 M136.89 390.95 Q142.7 390.95 145.755 395.556 Q148.834 400.14 148.834 408.89 Q148.834 417.616 145.755 422.223 Q142.7 426.806 136.89 426.806 Q131.079 426.806 128.001 422.223 Q124.945 417.616 124.945 408.89 Q124.945 400.14 128.001 395.556 Q131.079 390.95 136.89 390.95 Z" fill="#000000" fill-rule="evenodd" fill-opacity="1" /><path clip-path="url(#clip040)" d="M169.899 395.649 L158.093 414.098 L169.899 414.098 L169.899 395.649 M168.672 391.575 L174.551 391.575 L174.551 414.098 L179.482 414.098 L179.482 417.987 L174.551 417.987 L174.551 426.135 L169.899 426.135 L169.899 417.987 L154.297 417.987 L154.297 413.473 L168.672 391.575 Z" fill="#000000" fill-rule="evenodd" fill-opacity="1" /><path clip-path="url(#clip040)" d="M62.978 59.0764 Q59.3669 59.0764 57.5382 62.6412 Q55.7326 66.1828 55.7326 73.3124 Q55.7326 80.4189 57.5382 83.9837 Q59.3669 87.5253 62.978 87.5253 Q66.6122 87.5253 68.4178 83.9837 Q70.2465 80.4189 70.2465 73.3124 Q70.2465 66.1828 68.4178 62.6412 Q66.6122 59.0764 62.978 59.0764 M62.978 55.3727 Q68.7881 55.3727 71.8437 59.9792 Q74.9224 64.5625 74.9224 73.3124 Q74.9224 82.0392 71.8437 86.6457 Q68.7881 91.229 62.978 91.229 Q57.1678 91.229 54.0891 86.6457 Q51.0336 82.0392 51.0336 73.3124 Q51.0336 64.5625 54.0891 59.9792 Q57.1678 55.3727 62.978 55.3727 Z" fill="#000000" fill-rule="evenodd" fill-opacity="1" /><path clip-path="url(#clip040)" d="M83.1399 84.6781 L88.0241 84.6781 L88.0241 90.5577 L83.1399 90.5577 L83.1399 84.6781 Z" fill="#000000" fill-rule="evenodd" fill-opacity="1" /><path clip-path="url(#clip040)" d="M108.209 59.0764 Q104.598 59.0764 102.769 62.6412 Q100.964 66.1828 100.964 73.3124 Q100.964 80.4189 102.769 83.9837 Q104.598 87.5253 108.209 87.5253 Q111.843 87.5253 113.649 83.9837 Q115.478 80.4189 115.478 73.3124 Q115.478 66.1828 113.649 62.6412 Q111.843 59.0764 108.209 59.0764 M108.209 55.3727 Q114.019 55.3727 117.075 59.9792 Q120.154 64.5625 120.154 73.3124 Q120.154 82.0392 117.075 86.6457 Q114.019 91.229 108.209 91.229 Q102.399 91.229 99.3204 86.6457 Q96.2648 82.0392 96.2648 73.3124 Q96.2648 64.5625 99.3204 59.9792 Q102.399 55.3727 108.209 55.3727 Z" fill="#000000" fill-rule="evenodd" fill-opacity="1" /><path clip-path="url(#clip040)" d="M138.371 59.0764 Q134.76 59.0764 132.931 62.6412 Q131.126 66.1828 131.126 73.3124 Q131.126 80.4189 132.931 83.9837 Q134.76 87.5253 138.371 87.5253 Q142.005 87.5253 143.811 83.9837 Q145.64 80.4189 145.64 73.3124 Q145.64 66.1828 143.811 62.6412 Q142.005 59.0764 138.371 59.0764 M138.371 55.3727 Q144.181 55.3727 147.237 59.9792 Q150.315 64.5625 150.315 73.3124 Q150.315 82.0392 147.237 86.6457 Q144.181 91.229 138.371 91.229 Q132.561 91.229 129.482 86.6457 Q126.427 82.0392 126.427 73.3124 Q126.427 64.5625 129.482 59.9792 Q132.561 55.3727 138.371 55.3727 Z" fill="#000000" fill-rule="evenodd" fill-opacity="1" /><path clip-path="url(#clip040)" d="M158.579 55.9977 L176.936 55.9977 L176.936 59.9329 L162.862 59.9329 L162.862 68.405 Q163.88 68.0578 164.899 67.8958 Q165.917 67.7106 166.936 67.7106 Q172.723 67.7106 176.102 70.8819 Q179.482 74.0532 179.482 79.4698 Q179.482 85.0485 176.01 88.1503 Q172.538 91.229 166.218 91.229 Q164.042 91.229 161.774 90.8586 Q159.528 90.4882 157.121 89.7475 L157.121 85.0485 Q159.204 86.1827 161.427 86.7383 Q163.649 87.2938 166.126 87.2938 Q170.13 87.2938 172.468 85.1874 Q174.806 83.0809 174.806 79.4698 Q174.806 75.8587 172.468 73.7522 Q170.13 71.6458 166.126 71.6458 Q164.251 71.6458 162.376 72.0624 Q160.524 72.4791 158.579 73.3587 L158.579 55.9977 Z" fill="#000000" fill-rule="evenodd" fill-opacity="1" /><polyline clip-path="url(#clip042)" style="stroke:#009af9; stroke-linecap:round; stroke-linejoin:round; stroke-width:4; stroke-opacity:1; fill:none" points="560.87,1750.89 566.587,1750.73 572.303,1750.47 578.02,1750.08 583.737,1749.5 589.453,1748.63 595.17,1747.35 600.887,1745.53 606.603,1742.96 612.32,1739.4 618.036,1734.53 623.753,1728 629.47,1719.38 635.186,1708.2 640.903,1693.95 646.62,1676.11 652.336,1654.16 658.053,1627.66 663.769,1596.24 669.486,1559.72 675.203,1518.1 680.919,1471.64 686.636,1420.89 692.353,1366.72 698.069,1310.3 703.786,1253.11 709.502,1196.83 715.219,1143.36 720.936,1094.61 726.652,1052.48 732.369,1018.68 738.086,994.63 743.802,981.389 749.519,979.537 755.235,989.158 760.952,1009.82 766.669,1040.63 772.385,1080.27 778.102,1127.09 783.819,1179.26 789.535,1234.84 795.252,1291.95 800.968,1348.79 806.685,1403.83 812.402,1455.8 818.118,1503.71 823.835,1546.93 829.551,1585.1 835.268,1618.15 840.985,1646.2 846.701,1669.56 852.418,1688.66 858.135,1704.01 863.851,1716.11 869.568,1725.5 875.284,1732.65 881.001,1738 886.718,1741.95 892.434,1744.81 898.151,1746.84 903.868,1748.27 909.584,1749.26 915.301,1749.92 921.017,1750.37 926.734,1750.66 932.451,1750.85 938.167,1750.97 943.884,1751.05 949.601,1751.09 955.317,1751.12 961.034,1751.14 966.75,1751.15 972.467,1751.15 978.184,1751.15 983.9,1751.15 989.617,1751.14 995.334,1751.12 1001.05,1751.1 1006.77,1751.06 1012.48,1751 1018.2,1750.92 1023.92,1750.78 1029.63,1750.59 1035.35,1750.31 1041.07,1749.91 1046.78,1749.35 1052.5,1748.57 1058.22,1747.49 1063.93,1746.03 1069.65,1744.08 1075.37,1741.51 1081.08,1738.17 1086.8,1733.86 1092.52,1728.41 1098.23,1721.58 1103.95,1713.15 1109.67,1702.86 1115.38,1690.47 1121.1,1675.74 1126.82,1658.45 1132.53,1638.4 1138.25,1615.45 1143.97,1589.5 1149.68,1560.52 1155.4,1528.52 1161.12,1493.62 1166.83,1455.98 1172.55,1415.83 1178.27,1373.44 1183.98,1329.15 1189.7,1283.27 1195.42,1236.17 1201.13,1188.19 1206.85,1139.62 1212.57,1090.76 1218.28,1041.84 1224,993.079 1229.72,944.637 1235.43,896.66 1241.15,849.268 1246.86,802.573 1252.58,756.677 1258.3,711.683 1264.01,667.685 1269.73,624.772 1275.45,583.018 1281.16,542.476 1286.88,503.173 1292.6,465.109 1298.31,428.262 1304.03,392.599 1309.75,358.088 1315.46,324.723 1321.18,292.543 1326.9,261.649 1332.61,232.227 1338.33,204.548 1344.05,178.972 1349.76,155.939 1355.48,135.947 1361.2,119.525 1366.91,107.209 1372.63,99.5066 1378.35,96.8724 1384.06,99.6856 1389.78,108.235 1395.5,122.712 1401.21,143.212 1406.93,169.739 1412.65,202.213 1418.36,240.483 1424.08,284.332 1429.8,333.486 1435.51,387.611 1441.23,446.314 1446.95,509.143 1452.66,575.576 1458.38,645.026 1464.1,716.837 1469.81,790.293 1475.53,864.629 1481.25,939.048 1486.96,1012.74 1492.68,1084.92 1498.4,1154.82 1504.11,1221.77 1509.83,1285.17 1515.55,1344.51 1521.26,1399.44 1526.98,1449.68 1532.7,1495.13 1538.41,1535.75 1544.13,1571.66 1549.85,1603.02 1555.56,1630.1 1561.28,1653.22 1567,1672.73 1572.71,1688.99 1578.43,1702.4 1584.15,1713.32 1589.86,1722.11 1595.58,1729.11 1601.3,1734.6 1607.01,1738.87 1612.73,1742.14 1618.45,1744.62 1624.16,1746.47 1629.88,1747.84 1635.6,1748.84 1641.31,1749.56 1647.03,1750.07 1652.75,1750.42 1658.46,1750.67 1664.18,1750.83 1669.9,1750.94 1675.61,1751.01 1681.33,1751.05 1687.04,1751.05 1692.76,1751.03 1698.48,1750.98 "/>
<polyline clip-path="url(#clip042)" style="stroke:#e26f46; stroke-linecap:round; stroke-linejoin:round; stroke-width:4; stroke-opacity:1; fill:none" points="288.32,1751.06 298.138,1751.02 307.957,1750.96 317.776,1750.89 327.594,1750.79 337.413,1750.65 347.232,1750.47 357.051,1750.24 366.869,1749.93 376.688,1749.53 386.507,1749.02 396.325,1748.37 406.144,1747.54 415.963,1746.51 425.782,1745.23 435.6,1743.65 445.419,1741.71 455.238,1739.37 465.056,1736.54 474.875,1733.17 484.694,1729.19 494.513,1724.51 504.331,1719.07 514.15,1712.81 523.969,1705.65 533.787,1697.54 543.606,1688.45 553.425,1678.34 563.244,1667.21 573.062,1655.08 582.881,1641.99 592.7,1628.01 602.518,1613.24 612.337,1597.8 622.156,1581.86 631.975,1565.6 641.793,1549.23 651.612,1532.99 661.431,1517.12 671.249,1501.89 681.068,1487.54 690.887,1474.34 700.706,1462.52 710.524,1452.3 720.343,1443.87 730.162,1437.38 739.98,1432.95 749.799,1430.64 759.618,1430.47 769.436,1432.41 779.255,1436.38 789.074,1442.25 798.893,1449.85 808.711,1458.97 818.53,1469.39 828.349,1480.84 838.167,1493.06 847.986,1505.76 857.805,1518.66 867.624,1531.5 877.442,1544.02 887.261,1555.99 897.08,1567.2 906.898,1577.48 916.717,1586.68 926.536,1594.67 936.355,1601.38 946.173,1606.75 955.992,1610.76 965.811,1613.42 975.629,1614.74 985.448,1614.79 995.267,1613.61 1005.09,1611.29 1014.9,1607.92 1024.72,1603.59 1034.54,1598.4 1044.36,1592.45 1054.18,1585.84 1064,1578.65 1073.82,1570.97 1083.64,1562.88 1093.45,1554.45 1103.27,1545.73 1113.09,1536.77 1122.91,1527.6 1132.73,1518.23 1142.55,1508.67 1152.37,1498.92 1162.19,1488.96 1172,1478.77 1181.82,1468.3 1191.64,1457.52 1201.46,1446.38 1211.28,1434.83 1221.1,1422.82 1230.92,1410.3 1240.73,1397.23 1250.55,1383.56 1260.37,1369.27 1270.19,1354.34 1280.01,1338.74 1289.83,1322.48 1299.65,1305.57 1309.47,1288.05 1319.28,1269.94 1329.1,1251.31 1338.92,1232.22 1348.74,1212.76 1358.56,1193.03 1368.38,1173.13 1378.2,1153.18 1388.02,1133.32 1397.83,1113.68 1407.65,1094.42 1417.47,1075.69 1427.29,1057.65 1437.11,1040.46 1446.93,1024.29 1456.75,1009.29 1466.57,995.617 1476.38,983.432 1486.2,972.876 1496.02,964.082 1505.84,957.173 1515.66,952.256 1525.48,949.425 1535.3,948.755 1545.11,950.304 1554.93,954.109 1564.75,960.188 1574.57,968.538 1584.39,979.133 1594.21,991.928 1604.03,1006.86 1613.85,1023.83 1623.66,1042.74 1633.48,1063.47 1643.3,1085.86 1653.12,1109.77 1662.94,1135.02 1672.76,1161.42 1682.58,1188.79 1692.4,1216.91 1702.21,1245.6 1712.03,1274.63 1721.85,1303.8 1731.67,1332.92 1741.49,1361.78 1751.31,1390.2 1761.13,1418 1770.95,1445.03 1780.76,1471.13 1790.58,1496.19 1800.4,1520.09 1810.22,1542.74 1820.04,1564.08 1829.86,1584.05 1839.68,1602.64 1849.49,1619.81 1859.31,1635.6 1869.13,1650.01 1878.95,1663.08 1888.77,1674.87 1898.59,1685.43 1908.41,1694.83 1918.23,1703.15 1928.04,1710.47 1937.86,1716.86 1947.68,1722.4 1957.5,1727.19 1967.32,1731.29 1977.14,1734.78 1986.96,1737.74 1996.78,1740.23 2006.59,1742.3 2016.41,1744.03 2026.23,1745.45 2036.05,1746.61 2045.87,1747.56 2055.69,1748.33 2065.51,1748.95 2075.33,1749.44 2085.14,1749.83 2094.96,1750.14 2104.78,1750.38 2114.6,1750.57 2124.42,1750.72 2134.24,1750.83 2144.06,1750.91 2153.88,1750.98 2163.69,1751.02 2173.51,1751.06 2183.33,1751.08 2193.15,1751.1 2202.97,1751.11 2212.79,1751.11 2222.61,1751.11 2232.42,1751.1 2242.24,1751.08 "/>
<polyline clip-path="url(#clip042)" style="stroke:#3da44d; stroke-linecap:round; stroke-linejoin:round; stroke-width:4; stroke-opacity:1; fill:none" points="458.798,1751.03 469.418,1751.02 480.039,1750.98 490.659,1750.89 501.279,1750.72 511.9,1750.46 522.52,1750.04 533.14,1749.39 543.761,1748.42 554.381,1746.99 565.001,1744.89 575.621,1741.89 586.242,1737.66 596.862,1731.8 607.482,1723.81 618.103,1713.13 628.723,1699.06 639.343,1680.87 649.964,1657.73 660.584,1628.81 671.204,1593.3 681.824,1550.47 692.445,1499.72 703.065,1440.67 713.685,1373.24 724.306,1297.68 734.926,1214.67 745.546,1125.28 756.167,1031.05 766.787,933.909 777.407,836.135 788.028,740.26 798.648,648.956 809.268,564.894 819.888,490.609 830.509,428.352 841.129,379.967 851.749,346.792 862.37,329.584 872.99,328.493 883.61,343.063 894.231,372.286 904.851,414.672 915.471,468.352 926.091,531.2 936.712,600.955 947.332,675.34 957.952,752.174 968.573,829.462 979.193,905.463 989.813,978.73 1000.43,1048.14 1011.05,1112.87 1021.67,1172.41 1032.29,1226.5 1042.91,1275.09 1053.54,1318.33 1064.16,1356.49 1074.78,1389.93 1085.4,1419.09 1096.02,1444.43 1106.64,1466.43 1117.26,1485.57 1127.88,1502.33 1138.5,1517.13 1149.12,1530.4 1159.74,1542.49 1170.36,1553.71 1180.98,1564.32 1191.6,1574.52 1202.22,1584.45 1212.84,1594.19 1223.46,1603.78 1234.08,1613.22 1244.7,1622.49 1255.32,1631.57 1265.94,1640.4 1276.56,1648.95 1287.18,1657.19 1297.8,1665.1 1308.42,1672.68 1319.04,1679.92 1329.66,1686.82 1340.28,1693.37 1350.9,1699.59 1361.52,1705.45 1372.14,1710.93 1382.76,1716.02 1393.38,1720.68 1404.01,1724.89 1414.63,1728.62 1425.25,1731.83 1435.87,1734.52 1446.49,1736.67 1457.11,1738.28 1467.73,1739.35 1478.35,1739.9 1488.97,1739.97 1499.59,1739.59 1510.21,1738.82 1520.83,1737.72 1531.45,1736.37 1542.07,1734.84 1552.69,1733.24 1563.31,1731.64 1573.93,1730.14 1584.55,1728.83 1595.17,1727.79 1605.79,1727.07 1616.41,1726.72 1627.03,1726.76 1637.65,1727.2 1648.27,1728.01 1658.89,1729.17 1669.51,1730.62 1680.13,1732.28 1690.75,1734.1 1701.37,1736 1711.99,1737.91 1722.61,1739.78 1733.23,1741.54 1743.85,1743.16 1754.48,1744.63 1765.1,1745.91 1775.72,1747.01 1786.34,1747.93 1796.96,1748.69 1807.58,1749.31 1818.2,1749.79 1828.82,1750.16 1839.44,1750.45 1850.06,1750.66 1860.68,1750.81 1871.3,1750.91 1881.92,1750.98 1892.54,1751.01 1903.16,1751.01 1913.78,1750.98 1924.4,1750.9 1935.02,1750.77 1945.64,1750.54 1956.26,1750.18 1966.88,1749.64 1977.5,1748.84 1988.12,1747.65 1998.74,1745.96 2009.36,1743.58 2019.98,1740.29 2030.6,1735.82 2041.22,1729.89 2051.84,1722.15 2062.46,1712.25 2073.08,1699.84 2083.7,1684.61 2094.32,1666.28 2104.95,1644.7 2115.57,1619.86 2126.19,1591.92 2136.81,1561.23 2147.43,1528.4 2158.05,1494.23 2168.67,1459.75 2179.29,1426.14 2189.91,1394.67 2200.53,1366.65 2211.15,1343.32 2221.77,1325.76 2232.39,1314.82 2243.01,1311.04 2253.63,1314.6 2264.25,1325.33 2274.87,1342.7 2285.49,1365.87 2296.11,1393.77 2306.73,1425.15 2317.35,1458.72 2327.97,1493.2 2338.59,1527.39 2349.21,1560.27 2359.83,1591.03 2370.45,1619.06 2381.07,1644 2391.69,1665.68 2402.31,1684.1 2412.93,1699.43 2423.55,1711.91 2434.17,1721.88 2444.79,1729.68 2455.42,1735.67 2466.04,1740.17 2476.66,1743.49 2487.28,1745.9 2497.9,1747.61 2508.52,1748.81 2519.14,1749.62 2529.76,1750.17 2540.38,1750.54 2551,1750.77 2561.62,1750.91 2572.24,1750.99 "/>
<path clip-path="url(#clip040)" d="M2291.04 313.055 L2560.06 313.055 L2560.06 105.695 L2291.04 105.695  Z" fill="#ffffff" fill-rule="evenodd" fill-opacity="1"/>
<polyline clip-path="url(#clip040)" style="stroke:#000000; stroke-linecap:round; stroke-linejoin:round; stroke-width:4; stroke-opacity:1; fill:none" points="2291.04,313.055 2560.06,313.055 2560.06,105.695 2291.04,105.695 2291.04,313.055 "/>
<polyline clip-path="url(#clip040)" style="stroke:#009af9; stroke-linecap:round; stroke-linejoin:round; stroke-width:4; stroke-opacity:1; fill:none" points="2317.94,157.535 2479.34,157.535 "/>
<path clip-path="url(#clip040)" d="M2506.24 140.255 L2510.91 140.255 L2510.91 174.815 L2506.24 174.815 L2506.24 140.255 Z" fill="#000000" fill-rule="evenodd" fill-opacity="1" /><polyline clip-path="url(#clip040)" style="stroke:#e26f46; stroke-linecap:round; stroke-linejoin:round; stroke-width:4; stroke-opacity:1; fill:none" points="2317.94,209.375 2479.34,209.375 "/>
<path clip-path="url(#clip040)" d="M2522.63 210.452 Q2524.13 210.961 2525.54 212.628 Q2526.98 214.294 2528.41 217.211 L2533.16 226.655 L2528.13 226.655 L2523.71 217.79 Q2522 214.317 2520.38 213.183 Q2518.78 212.049 2516.01 212.049 L2510.91 212.049 L2510.91 226.655 L2506.24 226.655 L2506.24 192.095 L2516.79 192.095 Q2522.72 192.095 2525.63 194.572 Q2528.55 197.049 2528.55 202.049 Q2528.55 205.313 2527.02 207.466 Q2525.52 209.618 2522.63 210.452 M2510.91 195.938 L2510.91 208.206 L2516.79 208.206 Q2520.17 208.206 2521.88 206.655 Q2523.62 205.081 2523.62 202.049 Q2523.62 199.017 2521.88 197.489 Q2520.17 195.938 2516.79 195.938 L2510.91 195.938 Z" fill="#000000" fill-rule="evenodd" fill-opacity="1" /><polyline clip-path="url(#clip040)" style="stroke:#3da44d; stroke-linecap:round; stroke-linejoin:round; stroke-width:4; stroke-opacity:1; fill:none" points="2317.94,261.215 2479.34,261.215 "/>
<path clip-path="url(#clip040)" d="M2528.48 245.07 L2528.48 249.63 Q2525.82 248.357 2523.46 247.732 Q2521.1 247.107 2518.9 247.107 Q2515.08 247.107 2513 248.588 Q2510.94 250.069 2510.94 252.801 Q2510.94 255.093 2512.3 256.273 Q2513.69 257.431 2517.53 258.148 L2520.36 258.727 Q2525.59 259.722 2528.07 262.245 Q2530.57 264.745 2530.57 268.958 Q2530.57 273.981 2527.19 276.574 Q2523.83 279.167 2517.32 279.167 Q2514.87 279.167 2512.09 278.611 Q2509.34 278.055 2506.38 276.967 L2506.38 272.153 Q2509.22 273.75 2511.95 274.56 Q2514.69 275.37 2517.32 275.37 Q2521.33 275.37 2523.51 273.796 Q2525.68 272.222 2525.68 269.306 Q2525.68 266.759 2524.11 265.324 Q2522.56 263.889 2518.99 263.171 L2516.14 262.616 Q2510.91 261.574 2508.57 259.352 Q2506.24 257.13 2506.24 253.171 Q2506.24 248.588 2509.45 245.949 Q2512.7 243.31 2518.37 243.31 Q2520.8 243.31 2523.32 243.75 Q2525.84 244.19 2528.48 245.07 Z" fill="#000000" fill-rule="evenodd" fill-opacity="1" /></svg>
