<?xml version="1.0" encoding="utf-8"?>
<svg xmlns="http://www.w3.org/2000/svg" xmlns:xlink="http://www.w3.org/1999/xlink" width="672" height="480" viewBox="0 0 2688 1920">
<defs>
  <clipPath id="clip210">
    <rect x="0" y="0" width="2688" height="1920"/>
  </clipPath>
</defs>
<path clip-path="url(#clip210)" d="M0 1920 L2688 1920 L2688 0 L0 0  Z" fill="#ffffff" fill-rule="evenodd" fill-opacity="1"/>
<defs>
  <clipPath id="clip211">
    <rect x="537" y="0" width="1883" height="1883"/>
  </clipPath>
</defs>
<path clip-path="url(#clip210)" d="M172.001 1800.78 L2640.76 1800.78 L2640.76 47.2441 L172.001 47.2441  Z" fill="#ffffff" fill-rule="evenodd" fill-opacity="1"/>
<defs>
  <clipPath id="clip212">
    <rect x="172" y="47" width="2470" height="1755"/>
  </clipPath>
</defs>
<polyline clip-path="url(#clip212)" style="stroke:#000000; stroke-linecap:round; stroke-linejoin:round; stroke-width:2; stroke-opacity:0.1; fill:none" points="241.872,1800.78 241.872,47.2441 "/>
<polyline clip-path="url(#clip212)" style="stroke:#000000; stroke-linecap:round; stroke-linejoin:round; stroke-width:2; stroke-opacity:0.1; fill:none" points="694.724,1800.78 694.724,47.2441 "/>
<polyline clip-path="url(#clip212)" style="stroke:#000000; stroke-linecap:round; stroke-linejoin:round; stroke-width:2; stroke-opacity:0.1; fill:none" points="1147.58,1800.78 1147.58,47.2441 "/>
<polyline clip-path="url(#clip212)" style="stroke:#000000; stroke-linecap:round; stroke-linejoin:round; stroke-width:2; stroke-opacity:0.1; fill:none" points="1600.43,1800.78 1600.43,47.2441 "/>
<polyline clip-path="url(#clip212)" style="stroke:#000000; stroke-linecap:round; stroke-linejoin:round; stroke-width:2; stroke-opacity:0.1; fill:none" points="2053.28,1800.78 2053.28,47.2441 "/>
<polyline clip-path="url(#clip212)" style="stroke:#000000; stroke-linecap:round; stroke-linejoin:round; stroke-width:2; stroke-opacity:0.1; fill:none" points="2506.13,1800.78 2506.13,47.2441 "/>
<polyline clip-path="url(#clip210)" style="stroke:#000000; stroke-linecap:round; stroke-linejoin:round; stroke-width:4; stroke-opacity:1; fill:none" points="172.001,1800.78 2640.76,1800.78 "/>
<polyline clip-path="url(#clip210)" style="stroke:#000000; stroke-linecap:round; stroke-linejoin:round; stroke-width:4; stroke-opacity:1; fill:none" points="241.872,1800.78 241.872,1781.88 "/>
<polyline clip-path="url(#clip210)" style="stroke:#000000; stroke-linecap:round; stroke-linejoin:round; stroke-width:4; stroke-opacity:1; fill:none" points="694.724,1800.78 694.724,1781.88 "/>
<polyline clip-path="url(#clip210)" style="stroke:#000000; stroke-linecap:round; stroke-linejoin:round; stroke-width:4; stroke-opacity:1; fill:none" points="1147.58,1800.78 1147.58,1781.88 "/>
<polyline clip-path="url(#clip210)" style="stroke:#000000; stroke-linecap:round; stroke-linejoin:round; stroke-width:4; stroke-opacity:1; fill:none" points="1600.43,1800.78 1600.43,1781.88 "/>
<polyline clip-path="url(#clip210)" style="stroke:#000000; stroke-linecap:round; stroke-linejoin:round; stroke-width:4; stroke-opacity:1; fill:none" points="2053.28,1800.78 2053.28,1781.88 "/>
<polyline clip-path="url(#clip210)" style="stroke:#000000; stroke-linecap:round; stroke-linejoin:round; stroke-width:4; stroke-opacity:1; fill:none" points="2506.13,1800.78 2506.13,1781.88 "/>
<path clip-path="url(#clip210)" d="M241.872 1834 Q238.261 1834 236.432 1837.57 Q234.626 1841.11 234.626 1848.24 Q234.626 1855.34 236.432 1858.91 Q238.261 1862.45 241.872 1862.45 Q245.506 1862.45 247.312 1858.91 Q249.14 1855.34 249.14 1848.24 Q249.14 1841.11 247.312 1837.57 Q245.506 1834 241.872 1834 M241.872 1830.3 Q247.682 1830.3 250.737 1834.9 Q253.816 1839.49 253.816 1848.24 Q253.816 1856.96 250.737 1861.57 Q247.682 1866.15 241.872 1866.15 Q236.062 1866.15 232.983 1861.57 Q229.927 1856.96 229.927 1848.24 Q229.927 1839.49 232.983 1834.9 Q236.062 1830.3 241.872 1830.3 Z" fill="#000000" fill-rule="evenodd" fill-opacity="1" /><path clip-path="url(#clip210)" d="M669.412 1861.55 L677.051 1861.55 L677.051 1835.18 L668.741 1836.85 L668.741 1832.59 L677.004 1830.92 L681.68 1830.92 L681.68 1861.55 L689.319 1861.55 L689.319 1865.48 L669.412 1865.48 L669.412 1861.55 Z" fill="#000000" fill-rule="evenodd" fill-opacity="1" /><path clip-path="url(#clip210)" d="M708.764 1834 Q705.152 1834 703.324 1837.57 Q701.518 1841.11 701.518 1848.24 Q701.518 1855.34 703.324 1858.91 Q705.152 1862.45 708.764 1862.45 Q712.398 1862.45 714.203 1858.91 Q716.032 1855.34 716.032 1848.24 Q716.032 1841.11 714.203 1837.57 Q712.398 1834 708.764 1834 M708.764 1830.3 Q714.574 1830.3 717.629 1834.9 Q720.708 1839.49 720.708 1848.24 Q720.708 1856.96 717.629 1861.57 Q714.574 1866.15 708.764 1866.15 Q702.953 1866.15 699.875 1861.57 Q696.819 1856.96 696.819 1848.24 Q696.819 1839.49 699.875 1834.9 Q702.953 1830.3 708.764 1830.3 Z" fill="#000000" fill-rule="evenodd" fill-opacity="1" /><path clip-path="url(#clip210)" d="M1126.35 1861.55 L1142.67 1861.55 L1142.67 1865.48 L1120.73 1865.48 L1120.73 1861.55 Q1123.39 1858.79 1127.97 1854.16 Q1132.58 1849.51 1133.76 1848.17 Q1136 1845.65 1136.88 1843.91 Q1137.79 1842.15 1137.79 1840.46 Q1137.79 1837.71 1135.84 1835.97 Q1133.92 1834.23 1130.82 1834.23 Q1128.62 1834.23 1126.16 1835 Q1123.73 1835.76 1120.96 1837.31 L1120.96 1832.59 Q1123.78 1831.46 1126.23 1830.88 Q1128.69 1830.3 1130.73 1830.3 Q1136.1 1830.3 1139.29 1832.98 Q1142.48 1835.67 1142.48 1840.16 Q1142.48 1842.29 1141.67 1844.21 Q1140.89 1846.11 1138.78 1848.7 Q1138.2 1849.37 1135.1 1852.59 Q1132 1855.78 1126.35 1861.55 Z" fill="#000000" fill-rule="evenodd" fill-opacity="1" /><path clip-path="url(#clip210)" d="M1162.48 1834 Q1158.87 1834 1157.04 1837.57 Q1155.24 1841.11 1155.24 1848.24 Q1155.24 1855.34 1157.04 1858.91 Q1158.87 1862.45 1162.48 1862.45 Q1166.12 1862.45 1167.92 1858.91 Q1169.75 1855.34 1169.75 1848.24 Q1169.75 1841.11 1167.92 1837.57 Q1166.12 1834 1162.48 1834 M1162.48 1830.3 Q1168.29 1830.3 1171.35 1834.9 Q1174.43 1839.49 1174.43 1848.24 Q1174.43 1856.96 1171.35 1861.57 Q1168.29 1866.15 1162.48 1866.15 Q1156.67 1866.15 1153.6 1861.57 Q1150.54 1856.96 1150.54 1848.24 Q1150.54 1839.49 1153.6 1834.9 Q1156.67 1830.3 1162.48 1830.3 Z" fill="#000000" fill-rule="evenodd" fill-opacity="1" /><path clip-path="url(#clip210)" d="M1589.27 1846.85 Q1592.63 1847.57 1594.5 1849.84 Q1596.4 1852.1 1596.4 1855.44 Q1596.4 1860.55 1592.88 1863.35 Q1589.36 1866.15 1582.88 1866.15 Q1580.71 1866.15 1578.39 1865.71 Q1576.1 1865.3 1573.65 1864.44 L1573.65 1859.93 Q1575.59 1861.06 1577.91 1861.64 Q1580.22 1862.22 1582.74 1862.22 Q1587.14 1862.22 1589.43 1860.48 Q1591.75 1858.75 1591.75 1855.44 Q1591.75 1852.38 1589.6 1850.67 Q1587.47 1848.93 1583.65 1848.93 L1579.62 1848.93 L1579.62 1845.09 L1583.83 1845.09 Q1587.28 1845.09 1589.11 1843.72 Q1590.94 1842.34 1590.94 1839.74 Q1590.94 1837.08 1589.04 1835.67 Q1587.17 1834.23 1583.65 1834.23 Q1581.73 1834.23 1579.53 1834.65 Q1577.33 1835.07 1574.69 1835.95 L1574.69 1831.78 Q1577.35 1831.04 1579.67 1830.67 Q1582 1830.3 1584.06 1830.3 Q1589.39 1830.3 1592.49 1832.73 Q1595.59 1835.14 1595.59 1839.26 Q1595.59 1842.13 1593.95 1844.12 Q1592.3 1846.09 1589.27 1846.85 Z" fill="#000000" fill-rule="evenodd" fill-opacity="1" /><path clip-path="url(#clip210)" d="M1615.27 1834 Q1611.66 1834 1609.83 1837.57 Q1608.02 1841.11 1608.02 1848.24 Q1608.02 1855.34 1609.83 1858.91 Q1611.66 1862.45 1615.27 1862.45 Q1618.9 1862.45 1620.71 1858.91 Q1622.54 1855.34 1622.54 1848.24 Q1622.54 1841.11 1620.71 1837.57 Q1618.9 1834 1615.27 1834 M1615.27 1830.3 Q1621.08 1830.3 1624.13 1834.9 Q1627.21 1839.49 1627.21 1848.24 Q1627.21 1856.96 1624.13 1861.57 Q1621.08 1866.15 1615.27 1866.15 Q1609.46 1866.15 1606.38 1861.57 Q1603.32 1856.96 1603.32 1848.24 Q1603.32 1839.49 1606.38 1834.9 Q1609.46 1830.3 1615.27 1830.3 Z" fill="#000000" fill-rule="evenodd" fill-opacity="1" /><path clip-path="url(#clip210)" d="M2041.45 1835 L2029.65 1853.45 L2041.45 1853.45 L2041.45 1835 M2040.23 1830.92 L2046.11 1830.92 L2046.11 1853.45 L2051.04 1853.45 L2051.04 1857.34 L2046.11 1857.34 L2046.11 1865.48 L2041.45 1865.48 L2041.45 1857.34 L2025.85 1857.34 L2025.85 1852.82 L2040.23 1830.92 Z" fill="#000000" fill-rule="evenodd" fill-opacity="1" /><path clip-path="url(#clip210)" d="M2068.77 1834 Q2065.16 1834 2063.33 1837.57 Q2061.52 1841.11 2061.52 1848.24 Q2061.52 1855.34 2063.33 1858.91 Q2065.16 1862.45 2068.77 1862.45 Q2072.4 1862.45 2074.21 1858.91 Q2076.04 1855.34 2076.04 1848.24 Q2076.04 1841.11 2074.21 1837.57 Q2072.4 1834 2068.77 1834 M2068.77 1830.3 Q2074.58 1830.3 2077.63 1834.9 Q2080.71 1839.49 2080.71 1848.24 Q2080.71 1856.96 2077.63 1861.57 Q2074.58 1866.15 2068.77 1866.15 Q2062.96 1866.15 2059.88 1861.57 Q2056.82 1856.96 2056.82 1848.24 Q2056.82 1839.49 2059.88 1834.9 Q2062.96 1830.3 2068.77 1830.3 Z" fill="#000000" fill-rule="evenodd" fill-opacity="1" /><path clip-path="url(#clip210)" d="M2480.83 1830.92 L2499.19 1830.92 L2499.19 1834.86 L2485.12 1834.86 L2485.12 1843.33 Q2486.13 1842.98 2487.15 1842.82 Q2488.17 1842.64 2489.19 1842.64 Q2494.98 1842.64 2498.36 1845.81 Q2501.74 1848.98 2501.74 1854.4 Q2501.74 1859.97 2498.26 1863.08 Q2494.79 1866.15 2488.47 1866.15 Q2486.3 1866.15 2484.03 1865.78 Q2481.78 1865.41 2479.38 1864.67 L2479.38 1859.97 Q2481.46 1861.11 2483.68 1861.66 Q2485.9 1862.22 2488.38 1862.22 Q2492.38 1862.22 2494.72 1860.11 Q2497.06 1858.01 2497.06 1854.4 Q2497.06 1850.78 2494.72 1848.68 Q2492.38 1846.57 2488.38 1846.57 Q2486.51 1846.57 2484.63 1846.99 Q2482.78 1847.4 2480.83 1848.28 L2480.83 1830.92 Z" fill="#000000" fill-rule="evenodd" fill-opacity="1" /><path clip-path="url(#clip210)" d="M2520.95 1834 Q2517.34 1834 2515.51 1837.57 Q2513.7 1841.11 2513.7 1848.24 Q2513.7 1855.34 2515.51 1858.91 Q2517.34 1862.45 2520.95 1862.45 Q2524.58 1862.45 2526.39 1858.91 Q2528.22 1855.34 2528.22 1848.24 Q2528.22 1841.11 2526.39 1837.57 Q2524.58 1834 2520.95 1834 M2520.95 1830.3 Q2526.76 1830.3 2529.81 1834.9 Q2532.89 1839.49 2532.89 1848.24 Q2532.89 1856.96 2529.81 1861.57 Q2526.76 1866.15 2520.95 1866.15 Q2515.14 1866.15 2512.06 1861.57 Q2509 1856.96 2509 1848.24 Q2509 1839.49 2512.06 1834.9 Q2515.14 1830.3 2520.95 1830.3 Z" fill="#000000" fill-rule="evenodd" fill-opacity="1" /><polyline clip-path="url(#clip212)" style="stroke:#000000; stroke-linecap:round; stroke-linejoin:round; stroke-width:2; stroke-opacity:0.1; fill:none" points="172.001,1751.15 2640.76,1751.15 "/>
<polyline clip-path="url(#clip212)" style="stroke:#000000; stroke-linecap:round; stroke-linejoin:round; stroke-width:2; stroke-opacity:0.1; fill:none" points="172.001,1333.4 2640.76,1333.4 "/>
<polyline clip-path="url(#clip212)" style="stroke:#000000; stroke-linecap:round; stroke-linejoin:round; stroke-width:2; stroke-opacity:0.1; fill:none" points="172.001,915.657 2640.76,915.657 "/>
<polyline clip-path="url(#clip212)" style="stroke:#000000; stroke-linecap:round; stroke-linejoin:round; stroke-width:2; stroke-opacity:0.1; fill:none" points="172.001,497.91 2640.76,497.91 "/>
<polyline clip-path="url(#clip212)" style="stroke:#000000; stroke-linecap:round; stroke-linejoin:round; stroke-width:2; stroke-opacity:0.1; fill:none" points="172.001,80.1626 2640.76,80.1626 "/>
<polyline clip-path="url(#clip210)" style="stroke:#000000; stroke-linecap:round; stroke-linejoin:round; stroke-width:4; stroke-opacity:1; fill:none" points="172.001,1800.78 172.001,47.2441 "/>
<polyline clip-path="url(#clip210)" style="stroke:#000000; stroke-linecap:round; stroke-linejoin:round; stroke-width:4; stroke-opacity:1; fill:none" points="172.001,1751.15 190.899,1751.15 "/>
<polyline clip-path="url(#clip210)" style="stroke:#000000; stroke-linecap:round; stroke-linejoin:round; stroke-width:4; stroke-opacity:1; fill:none" points="172.001,1333.4 190.899,1333.4 "/>
<polyline clip-path="url(#clip210)" style="stroke:#000000; stroke-linecap:round; stroke-linejoin:round; stroke-width:4; stroke-opacity:1; fill:none" points="172.001,915.657 190.899,915.657 "/>
<polyline clip-path="url(#clip210)" style="stroke:#000000; stroke-linecap:round; stroke-linejoin:round; stroke-width:4; stroke-opacity:1; fill:none" points="172.001,497.91 190.899,497.91 "/>
<polyline clip-path="url(#clip210)" style="stroke:#000000; stroke-linecap:round; stroke-linejoin:round; stroke-width:4; stroke-opacity:1; fill:none" points="172.001,80.1626 190.899,80.1626 "/>
<path clip-path="url(#clip210)" d="M119.737 1736.95 Q116.126 1736.95 114.297 1740.51 Q112.492 1744.06 112.492 1751.19 Q112.492 1758.29 114.297 1761.86 Q116.126 1765.4 119.737 1765.4 Q123.371 1765.4 125.177 1761.86 Q127.005 1758.29 127.005 1751.19 Q127.005 1744.06 125.177 1740.51 Q123.371 1736.95 119.737 1736.95 M119.737 1733.25 Q125.547 1733.25 128.603 1737.85 Q131.681 1742.44 131.681 1751.19 Q131.681 1759.91 128.603 1764.52 Q125.547 1769.1 119.737 1769.1 Q113.927 1769.1 110.848 1764.52 Q107.793 1759.91 107.793 1751.19 Q107.793 1742.44 110.848 1737.85 Q113.927 1733.25 119.737 1733.25 Z" fill="#000000" fill-rule="evenodd" fill-opacity="1" /><path clip-path="url(#clip210)" d="M84.5982 1346.75 L100.918 1346.75 L100.918 1350.68 L78.9733 1350.68 L78.9733 1346.75 Q81.6353 1343.99 86.2186 1339.36 Q90.8251 1334.71 92.0056 1333.37 Q94.251 1330.85 95.1306 1329.11 Q96.0334 1327.35 96.0334 1325.66 Q96.0334 1322.91 94.0889 1321.17 Q92.1676 1319.43 89.0658 1319.43 Q86.8667 1319.43 84.4131 1320.2 Q81.9825 1320.96 79.2047 1322.51 L79.2047 1317.79 Q82.0288 1316.66 84.4825 1316.08 Q86.9362 1315.5 88.9732 1315.5 Q94.3436 1315.5 97.538 1318.18 Q100.732 1320.87 100.732 1325.36 Q100.732 1327.49 99.9222 1329.41 Q99.1352 1331.31 97.0287 1333.9 Q96.45 1334.57 93.3482 1337.79 Q90.2464 1340.98 84.5982 1346.75 Z" fill="#000000" fill-rule="evenodd" fill-opacity="1" /><path clip-path="url(#clip210)" d="M110.779 1316.12 L129.135 1316.12 L129.135 1320.06 L115.061 1320.06 L115.061 1328.53 Q116.08 1328.18 117.098 1328.02 Q118.117 1327.84 119.135 1327.84 Q124.922 1327.84 128.302 1331.01 Q131.681 1334.18 131.681 1339.6 Q131.681 1345.17 128.209 1348.28 Q124.737 1351.36 118.417 1351.36 Q116.242 1351.36 113.973 1350.98 Q111.728 1350.61 109.32 1349.87 L109.32 1345.17 Q111.404 1346.31 113.626 1346.86 Q115.848 1347.42 118.325 1347.42 Q122.33 1347.42 124.667 1345.31 Q127.005 1343.21 127.005 1339.6 Q127.005 1335.98 124.667 1333.88 Q122.33 1331.77 118.325 1331.77 Q116.45 1331.77 114.575 1332.19 Q112.723 1332.61 110.779 1333.48 L110.779 1316.12 Z" fill="#000000" fill-rule="evenodd" fill-opacity="1" /><path clip-path="url(#clip210)" d="M79.6214 898.377 L97.9778 898.377 L97.9778 902.312 L83.9038 902.312 L83.9038 910.784 Q84.9223 910.437 85.9408 910.275 Q86.9593 910.09 87.9778 910.09 Q93.7649 910.09 97.1445 913.261 Q100.524 916.432 100.524 921.849 Q100.524 927.428 97.0519 930.529 Q93.5797 933.608 87.2603 933.608 Q85.0843 933.608 82.8158 933.238 Q80.5705 932.867 78.1631 932.127 L78.1631 927.428 Q80.2464 928.562 82.4686 929.117 Q84.6908 929.673 87.1677 929.673 Q91.1723 929.673 93.5102 927.566 Q95.8482 925.46 95.8482 921.849 Q95.8482 918.238 93.5102 916.131 Q91.1723 914.025 87.1677 914.025 Q85.2927 914.025 83.4177 914.441 Q81.5658 914.858 79.6214 915.738 L79.6214 898.377 Z" fill="#000000" fill-rule="evenodd" fill-opacity="1" /><path clip-path="url(#clip210)" d="M119.737 901.455 Q116.126 901.455 114.297 905.02 Q112.492 908.562 112.492 915.691 Q112.492 922.798 114.297 926.363 Q116.126 929.904 119.737 929.904 Q123.371 929.904 125.177 926.363 Q127.005 922.798 127.005 915.691 Q127.005 908.562 125.177 905.02 Q123.371 901.455 119.737 901.455 M119.737 897.752 Q125.547 897.752 128.603 902.358 Q131.681 906.942 131.681 915.691 Q131.681 924.418 128.603 929.025 Q125.547 933.608 119.737 933.608 Q113.927 933.608 110.848 929.025 Q107.793 924.418 107.793 915.691 Q107.793 906.942 110.848 902.358 Q113.927 897.752 119.737 897.752 Z" fill="#000000" fill-rule="evenodd" fill-opacity="1" /><path clip-path="url(#clip210)" d="M79.3899 480.63 L101.612 480.63 L101.612 482.62 L89.0658 515.19 L84.1816 515.19 L95.9871 484.565 L79.3899 484.565 L79.3899 480.63 Z" fill="#000000" fill-rule="evenodd" fill-opacity="1" /><path clip-path="url(#clip210)" d="M110.779 480.63 L129.135 480.63 L129.135 484.565 L115.061 484.565 L115.061 493.037 Q116.08 492.69 117.098 492.528 Q118.117 492.343 119.135 492.343 Q124.922 492.343 128.302 495.514 Q131.681 498.685 131.681 504.102 Q131.681 509.68 128.209 512.782 Q124.737 515.861 118.417 515.861 Q116.242 515.861 113.973 515.491 Q111.728 515.12 109.32 514.379 L109.32 509.68 Q111.404 510.815 113.626 511.37 Q115.848 511.926 118.325 511.926 Q122.33 511.926 124.667 509.819 Q127.005 507.713 127.005 504.102 Q127.005 500.491 124.667 498.384 Q122.33 496.278 118.325 496.278 Q116.45 496.278 114.575 496.694 Q112.723 497.111 110.779 497.991 L110.779 480.63 Z" fill="#000000" fill-rule="evenodd" fill-opacity="1" /><path clip-path="url(#clip210)" d="M50.2234 93.5074 L57.8623 93.5074 L57.8623 67.1418 L49.5521 68.8085 L49.5521 64.5492 L57.816 62.8826 L62.4919 62.8826 L62.4919 93.5074 L70.1307 93.5074 L70.1307 97.4426 L50.2234 97.4426 L50.2234 93.5074 Z" fill="#000000" fill-rule="evenodd" fill-opacity="1" /><path clip-path="url(#clip210)" d="M89.5751 65.9613 Q85.964 65.9613 84.1353 69.526 Q82.3297 73.0677 82.3297 80.1973 Q82.3297 87.3037 84.1353 90.8685 Q85.964 94.4102 89.5751 94.4102 Q93.2093 94.4102 95.0148 90.8685 Q96.8435 87.3037 96.8435 80.1973 Q96.8435 73.0677 95.0148 69.526 Q93.2093 65.9613 89.5751 65.9613 M89.5751 62.2576 Q95.3852 62.2576 98.4408 66.864 Q101.519 71.4473 101.519 80.1973 Q101.519 88.9241 98.4408 93.5305 Q95.3852 98.1139 89.5751 98.1139 Q83.7649 98.1139 80.6862 93.5305 Q77.6307 88.9241 77.6307 80.1973 Q77.6307 71.4473 80.6862 66.864 Q83.7649 62.2576 89.5751 62.2576 Z" fill="#000000" fill-rule="evenodd" fill-opacity="1" /><path clip-path="url(#clip210)" d="M119.737 65.9613 Q116.126 65.9613 114.297 69.526 Q112.492 73.0677 112.492 80.1973 Q112.492 87.3037 114.297 90.8685 Q116.126 94.4102 119.737 94.4102 Q123.371 94.4102 125.177 90.8685 Q127.005 87.3037 127.005 80.1973 Q127.005 73.0677 125.177 69.526 Q123.371 65.9613 119.737 65.9613 M119.737 62.2576 Q125.547 62.2576 128.603 66.864 Q131.681 71.4473 131.681 80.1973 Q131.681 88.9241 128.603 93.5305 Q125.547 98.1139 119.737 98.1139 Q113.927 98.1139 110.848 93.5305 Q107.793 88.9241 107.793 80.1973 Q107.793 71.4473 110.848 66.864 Q113.927 62.2576 119.737 62.2576 Z" fill="#000000" fill-rule="evenodd" fill-opacity="1" /><polyline clip-path="url(#clip212)" style="stroke:#009af9; stroke-linecap:round; stroke-linejoin:round; stroke-width:4; stroke-opacity:1; fill:none" points="241.872,96.8724 242.765,113.582 256.653,130.292 322.533,147.002 325.395,147.002 512.818,147.002 558.665,147.002 585.791,163.712 646.106,163.712 829.677,180.422 931.808,197.132 977.576,213.842 987.365,230.552 999.323,247.261 1001.48,263.971 1007.09,280.681 1007.75,297.391 1011.6,314.101 1013.25,330.811 1013.7,347.521 1015.71,364.231 1020.47,364.231 1024.77,380.94 1029.26,397.65 1030.39,414.36 1034.17,431.07 1044.32,431.07 1044.73,431.07 1045.42,447.78 1048.85,447.78 1059.26,464.49 1059.82,481.2 1067.03,481.2 1068.43,497.91 1079.68,497.91 1084.78,514.62 1091.44,531.329 1092.51,531.329 1098.29,548.039 1113.28,564.749 1124.72,581.459 1128.14,598.169 1129.17,614.879 1131.62,631.589 1139.22,648.299 1147.03,665.008 1159.34,681.718 1161.14,681.718 1163.46,698.428 1165.49,715.138 1166.52,731.848 1172.38,748.558 1197.76,765.268 1199.69,781.978 1201.56,798.688 1201.91,815.397 1208.16,832.107 1212.07,848.817 1214.72,865.527 1217.57,882.237 1219.21,898.947 1224.94,915.657 1225.17,932.367 1225.96,949.077 1227.64,965.786 1228.87,982.496 1233.43,999.206 1239.27,999.206 1239.88,999.206 1243.03,999.206 1246.84,1015.92 1250.64,1015.92 1251.34,1032.63 1252.19,1032.63 1259.9,1049.34 1260.96,1066.05 1262.55,1082.76 1267.27,1099.47 1267.49,1116.18 1272.66,1132.89 1274.09,1149.6 1275.42,1166.31 1278.64,1183.01 1283.62,1199.72 1292.95,1199.72 1293.53,1216.43 1294.48,1233.14 1297.77,1249.85 1298.16,1266.56 1308.12,1266.56 1310.06,1283.27 1310.56,1299.98 1312.4,1316.69 1316.81,1316.69 1318.39,1316.69 1319.63,1316.69 1326.59,1333.4 1336.36,1333.4 1342.68,1350.11 1343.88,1350.11 1347.04,1350.11 1350.51,1350.11 1350.92,1366.82 1353.07,1383.53 1355.24,1400.24 1358.18,1416.95 1365.09,1416.95 1365.3,1433.66 1372.28,1433.66 1375.44,1433.66 1376.42,1433.66 1378.27,1450.37 1387.87,1450.37 1400.99,1450.37 1406.61,1467.08 1409.96,1483.79 1410.52,1500.5 1412.44,1500.5 1412.85,1517.21 1428.15,1533.92 1438.55,1533.92 1445.07,1533.92 1446.68,1550.63 1450.7,1550.63 1456.21,1567.34 1463.42,1567.34 1465.21,1567.34 1466.63,1567.34 1477.3,1567.34 1482.97,1567.34 1488.4,1567.34 1490.71,1567.34 1501.94,1567.34 1507.22,1567.34 1507.68,1584.05 1515.89,1584.05 1518.06,1584.05 1526.74,1584.05 1534,1584.05 1540.79,1600.76 1541.1,1600.76 1544.58,1600.76 1550.44,1600.76 1553.85,1617.47 1555.8,1617.47 1570.2,1617.47 1586.38,1634.18 1628.79,1634.18 1643.07,1634.18 1655.16,1650.89 1658.58,1667.6 1669.53,1667.6 1670.75,1667.6 1671.3,1667.6 1676.73,1667.6 1677.94,1667.6 1686.03,1667.6 1691.37,1667.6 1694.94,1667.6 1700.06,1667.6 1711.91,1667.6 1715.96,1667.6 1780.67,1684.31 1789.45,1684.31 1797.98,1701.02 1806.43,1701.02 1829.32,1701.02 1829.7,1701.02 1833.93,1717.73 1834.5,1717.73 1856.75,1717.73 1866.08,1717.73 1873.53,1717.73 1979.4,1717.73 2002.2,1734.44 2018.93,1734.44 2028.03,1734.44 2049.23,1734.44 2053.26,1734.44 2061.5,1734.44 2069.37,1734.44 2079.22,1734.44 2183.37,1734.44 2242.89,1734.44 2258.75,1734.44 2267.19,1734.44 2286.46,1734.44 2353.33,1734.44 2369.62,1734.44 2424.63,1734.44 2497.51,1734.44 2570.89,1734.44 "/>
<polyline clip-path="url(#clip212)" style="stroke:#e26f46; stroke-linecap:round; stroke-linejoin:round; stroke-width:4; stroke-opacity:1; fill:none" points="241.872,1734.44 242.765,1717.73 256.653,1701.02 322.533,1684.31 325.395,1701.02 512.818,1717.73 558.665,1734.44 585.791,1717.73 646.106,1734.44 829.677,1717.73 931.808,1701.02 977.576,1684.31 987.365,1667.6 999.323,1650.89 1001.48,1634.18 1007.09,1617.47 1007.75,1600.76 1011.6,1584.05 1013.25,1567.34 1013.7,1550.63 1015.71,1533.92 1020.47,1550.63 1024.77,1533.92 1029.26,1517.21 1030.39,1500.5 1034.17,1483.79 1044.32,1500.5 1044.73,1517.21 1045.42,1500.5 1048.85,1517.21 1059.26,1500.5 1059.82,1483.79 1067.03,1500.5 1068.43,1483.79 1079.68,1500.5 1084.78,1483.79 1091.44,1467.08 1092.51,1483.79 1098.29,1467.08 1113.28,1450.37 1124.72,1433.66 1128.14,1416.95 1129.17,1400.24 1131.62,1383.53 1139.22,1366.82 1147.03,1350.11 1159.34,1333.4 1161.14,1350.11 1163.46,1333.4 1165.49,1316.69 1166.52,1299.98 1172.38,1283.27 1197.76,1266.56 1199.69,1249.85 1201.56,1233.14 1201.91,1216.43 1208.16,1199.72 1212.07,1183.01 1214.72,1166.31 1217.57,1149.6 1219.21,1132.89 1224.94,1116.18 1225.17,1099.47 1225.96,1082.76 1227.64,1066.05 1228.87,1049.34 1233.43,1032.63 1239.27,1049.34 1239.88,1066.05 1243.03,1082.76 1246.84,1066.05 1250.64,1082.76 1251.34,1066.05 1252.19,1082.76 1259.9,1066.05 1260.96,1049.34 1262.55,1032.63 1267.27,1015.92 1267.49,999.206 1272.66,982.496 1274.09,965.786 1275.42,949.077 1278.64,932.367 1283.62,915.657 1292.95,932.367 1293.53,915.657 1294.48,898.947 1297.77,882.237 1298.16,865.527 1308.12,882.237 1310.06,865.527 1310.56,848.817 1312.4,832.107 1316.81,848.817 1318.39,865.527 1319.63,882.237 1326.59,865.527 1336.36,882.237 1342.68,865.527 1343.88,882.237 1347.04,898.947 1350.51,915.657 1350.92,898.947 1353.07,882.237 1355.24,865.527 1358.18,848.817 1365.09,865.527 1365.3,848.817 1372.28,865.527 1375.44,882.237 1376.42,898.947 1378.27,882.237 1387.87,898.947 1400.99,915.657 1406.61,898.947 1409.96,882.237 1410.52,865.527 1412.44,882.237 1412.85,865.527 1428.15,848.817 1438.55,865.527 1445.07,882.237 1446.68,865.527 1450.7,882.237 1456.21,865.527 1463.42,882.237 1465.21,898.947 1466.63,915.657 1477.3,932.367 1482.97,949.077 1488.4,965.786 1490.71,982.496 1501.94,999.206 1507.22,1015.92 1507.68,999.206 1515.89,1015.92 1518.06,1032.63 1526.74,1049.34 1534,1066.05 1540.79,1049.34 1541.1,1066.05 1544.58,1082.76 1550.44,1099.47 1553.85,1082.76 1555.8,1099.47 1570.2,1116.18 1586.38,1099.47 1628.79,1116.18 1643.07,1132.89 1655.16,1116.18 1658.58,1099.47 1669.53,1116.18 1670.75,1132.89 1671.3,1149.6 1676.73,1166.31 1677.94,1183.01 1686.03,1199.72 1691.37,1216.43 1694.94,1233.14 1700.06,1249.85 1711.91,1266.56 1715.96,1283.27 1780.67,1266.56 1789.45,1283.27 1797.98,1266.56 1806.43,1283.27 1829.32,1299.98 1829.7,1316.69 1833.93,1299.98 1834.5,1316.69 1856.75,1333.4 1866.08,1350.11 1873.53,1366.82 1979.4,1383.53 2002.2,1366.82 2018.93,1383.53 2028.03,1400.24 2049.23,1416.95 2053.26,1433.66 2061.5,1450.37 2069.37,1467.08 2079.22,1483.79 2183.37,1500.5 2242.89,1517.21 2258.75,1533.92 2267.19,1550.63 2286.46,1567.34 2353.33,1584.05 2369.62,1600.76 2424.63,1617.47 2497.51,1634.18 2570.89,1650.89 "/>
<polyline clip-path="url(#clip212)" style="stroke:#3da44d; stroke-linecap:round; stroke-linejoin:round; stroke-width:4; stroke-opacity:1; fill:none" points="241.872,1751.15 242.765,1751.15 256.653,1751.15 322.533,1751.15 325.395,1734.44 512.818,1717.73 558.665,1701.02 585.791,1701.02 646.106,1684.31 829.677,1684.31 931.808,1684.31 977.576,1684.31 987.365,1684.31 999.323,1684.31 1001.48,1684.31 1007.09,1684.31 1007.75,1684.31 1011.6,1684.31 1013.25,1684.31 1013.7,1684.31 1015.71,1684.31 1020.47,1667.6 1024.77,1667.6 1029.26,1667.6 1030.39,1667.6 1034.17,1667.6 1044.32,1650.89 1044.73,1634.18 1045.42,1634.18 1048.85,1617.47 1059.26,1617.47 1059.82,1617.47 1067.03,1600.76 1068.43,1600.76 1079.68,1584.05 1084.78,1584.05 1091.44,1584.05 1092.51,1567.34 1098.29,1567.34 1113.28,1567.34 1124.72,1567.34 1128.14,1567.34 1129.17,1567.34 1131.62,1567.34 1139.22,1567.34 1147.03,1567.34 1159.34,1567.34 1161.14,1550.63 1163.46,1550.63 1165.49,1550.63 1166.52,1550.63 1172.38,1550.63 1197.76,1550.63 1199.69,1550.63 1201.56,1550.63 1201.91,1550.63 1208.16,1550.63 1212.07,1550.63 1214.72,1550.63 1217.57,1550.63 1219.21,1550.63 1224.94,1550.63 1225.17,1550.63 1225.96,1550.63 1227.64,1550.63 1228.87,1550.63 1233.43,1550.63 1239.27,1533.92 1239.88,1517.21 1243.03,1500.5 1246.84,1500.5 1250.64,1483.79 1251.34,1483.79 1252.19,1467.08 1259.9,1467.08 1260.96,1467.08 1262.55,1467.08 1267.27,1467.08 1267.49,1467.08 1272.66,1467.08 1274.09,1467.08 1275.42,1467.08 1278.64,1467.08 1283.62,1467.08 1292.95,1450.37 1293.53,1450.37 1294.48,1450.37 1297.77,1450.37 1298.16,1450.37 1308.12,1433.66 1310.06,1433.66 1310.56,1433.66 1312.4,1433.66 1316.81,1416.95 1318.39,1400.24 1319.63,1383.53 1326.59,1383.53 1336.36,1366.82 1342.68,1366.82 1343.88,1350.11 1347.04,1333.4 1350.51,1316.69 1350.92,1316.69 1353.07,1316.69 1355.24,1316.69 1358.18,1316.69 1365.09,1299.98 1365.3,1299.98 1372.28,1283.27 1375.44,1266.56 1376.42,1249.85 1378.27,1249.85 1387.87,1233.14 1400.99,1216.43 1406.61,1216.43 1409.96,1216.43 1410.52,1216.43 1412.44,1199.72 1412.85,1199.72 1428.15,1199.72 1438.55,1183.01 1445.07,1166.31 1446.68,1166.31 1450.7,1149.6 1456.21,1149.6 1463.42,1132.89 1465.21,1116.18 1466.63,1099.47 1477.3,1082.76 1482.97,1066.05 1488.4,1049.34 1490.71,1032.63 1501.94,1015.92 1507.22,999.206 1507.68,999.206 1515.89,982.496 1518.06,965.786 1526.74,949.077 1534,932.367 1540.79,932.367 1541.1,915.657 1544.58,898.947 1550.44,882.237 1553.85,882.237 1555.8,865.527 1570.2,848.817 1586.38,848.817 1628.79,832.107 1643.07,815.397 1655.16,815.397 1658.58,815.397 1669.53,798.688 1670.75,781.978 1671.3,765.268 1676.73,748.558 1677.94,731.848 1686.03,715.138 1691.37,698.428 1694.94,681.718 1700.06,665.008 1711.91,648.299 1715.96,631.589 1780.67,631.589 1789.45,614.879 1797.98,614.879 1806.43,598.169 1829.32,581.459 1829.7,564.749 1833.93,564.749 1834.5,548.039 1856.75,531.329 1866.08,514.62 1873.53,497.91 1979.4,481.2 2002.2,481.2 2018.93,464.49 2028.03,447.78 2049.23,431.07 2053.26,414.36 2061.5,397.65 2069.37,380.94 2079.22,364.231 2183.37,347.521 2242.89,330.811 2258.75,314.101 2267.19,297.391 2286.46,280.681 2353.33,263.971 2369.62,247.261 2424.63,230.552 2497.51,213.842 2570.89,197.132 "/>
<path clip-path="url(#clip210)" d="M2258.58 313.055 L2558.46 313.055 L2558.46 105.695 L2258.58 105.695  Z" fill="#ffffff" fill-rule="evenodd" fill-opacity="1"/>
<polyline clip-path="url(#clip210)" style="stroke:#000000; stroke-linecap:round; stroke-linejoin:round; stroke-width:4; stroke-opacity:1; fill:none" points="2258.58,313.055 2558.46,313.055 2558.46,105.695 2258.58,105.695 2258.58,313.055 "/>
<polyline clip-path="url(#clip210)" style="stroke:#009af9; stroke-linecap:round; stroke-linejoin:round; stroke-width:4; stroke-opacity:1; fill:none" points="2286.01,157.535 2450.59,157.535 "/>
<path clip-path="url(#clip210)" d="M2491.87 177.223 Q2490.06 181.852 2488.35 183.264 Q2486.64 184.676 2483.77 184.676 L2480.36 184.676 L2480.36 181.112 L2482.86 181.112 Q2484.62 181.112 2485.59 180.278 Q2486.57 179.445 2487.75 176.343 L2488.51 174.399 L2478.02 148.889 L2482.54 148.889 L2490.64 169.167 L2498.74 148.889 L2503.26 148.889 L2491.87 177.223 Z" fill="#000000" fill-rule="evenodd" fill-opacity="1" /><path clip-path="url(#clip210)" d="M2510.55 170.88 L2518.19 170.88 L2518.19 144.515 L2509.88 146.181 L2509.88 141.922 L2518.14 140.255 L2522.82 140.255 L2522.82 170.88 L2530.45 170.88 L2530.45 174.815 L2510.55 174.815 L2510.55 170.88 Z" fill="#000000" fill-rule="evenodd" fill-opacity="1" /><polyline clip-path="url(#clip210)" style="stroke:#e26f46; stroke-linecap:round; stroke-linejoin:round; stroke-width:4; stroke-opacity:1; fill:none" points="2286.01,209.375 2450.59,209.375 "/>
<path clip-path="url(#clip210)" d="M2491.87 229.063 Q2490.06 233.692 2488.35 235.104 Q2486.64 236.516 2483.77 236.516 L2480.36 236.516 L2480.36 232.952 L2482.86 232.952 Q2484.62 232.952 2485.59 232.118 Q2486.57 231.285 2487.75 228.183 L2488.51 226.239 L2478.02 200.729 L2482.54 200.729 L2490.64 221.007 L2498.74 200.729 L2503.26 200.729 L2491.87 229.063 Z" fill="#000000" fill-rule="evenodd" fill-opacity="1" /><path clip-path="url(#clip210)" d="M2513.77 222.72 L2530.08 222.72 L2530.08 226.655 L2508.14 226.655 L2508.14 222.72 Q2510.8 219.965 2515.39 215.336 Q2519.99 210.683 2521.17 209.341 Q2523.42 206.817 2524.3 205.081 Q2525.2 203.322 2525.2 201.632 Q2525.2 198.878 2523.26 197.142 Q2521.33 195.405 2518.23 195.405 Q2516.03 195.405 2513.58 196.169 Q2511.15 196.933 2508.37 198.484 L2508.37 193.762 Q2511.2 192.628 2513.65 192.049 Q2516.1 191.47 2518.14 191.47 Q2523.51 191.47 2526.7 194.155 Q2529.9 196.841 2529.9 201.331 Q2529.9 203.461 2529.09 205.382 Q2528.3 207.28 2526.2 209.873 Q2525.62 210.544 2522.52 213.762 Q2519.41 216.956 2513.77 222.72 Z" fill="#000000" fill-rule="evenodd" fill-opacity="1" /><polyline clip-path="url(#clip210)" style="stroke:#3da44d; stroke-linecap:round; stroke-linejoin:round; stroke-width:4; stroke-opacity:1; fill:none" points="2286.01,261.215 2450.59,261.215 "/>
<path clip-path="url(#clip210)" d="M2491.87 280.903 Q2490.06 285.532 2488.35 286.944 Q2486.64 288.356 2483.77 288.356 L2480.36 288.356 L2480.36 284.792 L2482.86 284.792 Q2484.62 284.792 2485.59 283.958 Q2486.57 283.125 2487.75 280.023 L2488.51 278.079 L2478.02 252.569 L2482.54 252.569 L2490.64 272.847 L2498.74 252.569 L2503.26 252.569 L2491.87 280.903 Z" fill="#000000" fill-rule="evenodd" fill-opacity="1" /><path clip-path="url(#clip210)" d="M2523.9 259.861 Q2527.26 260.579 2529.14 262.847 Q2531.03 265.116 2531.03 268.449 Q2531.03 273.565 2527.51 276.366 Q2524 279.167 2517.52 279.167 Q2515.34 279.167 2513.02 278.727 Q2510.73 278.31 2508.28 277.454 L2508.28 272.94 Q2510.22 274.074 2512.54 274.653 Q2514.85 275.231 2517.38 275.231 Q2521.77 275.231 2524.07 273.495 Q2526.38 271.759 2526.38 268.449 Q2526.38 265.393 2524.23 263.681 Q2522.1 261.944 2518.28 261.944 L2514.25 261.944 L2514.25 258.102 L2518.46 258.102 Q2521.91 258.102 2523.74 256.736 Q2525.57 255.347 2525.57 252.755 Q2525.57 250.093 2523.67 248.681 Q2521.8 247.245 2518.28 247.245 Q2516.36 247.245 2514.16 247.662 Q2511.96 248.079 2509.32 248.958 L2509.32 244.792 Q2511.98 244.051 2514.3 243.681 Q2516.64 243.31 2518.7 243.31 Q2524.02 243.31 2527.12 245.741 Q2530.22 248.148 2530.22 252.269 Q2530.22 255.139 2528.58 257.13 Q2526.94 259.097 2523.9 259.861 Z" fill="#000000" fill-rule="evenodd" fill-opacity="1" /></svg>
